#define _width 256
#define _height 64
static char _bits[] = {
 0x00,0x00,0x00,0x00,0x00,0x00,0x00,0x00,0x00,0x00,0x00,0x00,0x00,0x00,0x00,
 0x00,0x00,0x00,0x00,0x00,0x00,0x00,0x00,0x00,0x00,0x00,0x00,0x00,0x00,0x00,
 0x00,0x00,0x00,0x00,0x00,0x00,0x00,0x00,0x00,0x00,0x00,0x00,0x00,0x00,0x80,
 0x01,0x00,0x00,0x00,0x00,0x00,0x00,0xe0,0xff,0x0f,0x00,0x00,0x00,0x00,0x00,
 0x00,0x00,0x00,0x00,0x00,0x00,0x00,0x00,0x00,0x00,0x00,0x00,0x00,0x00,0x00,
 0x00,0xf0,0x01,0x00,0x00,0x00,0x00,0x00,0x00,0xe0,0xff,0x3f,0x00,0x00,0x00,
 0x00,0x00,0x00,0x00,0x00,0x00,0x00,0x00,0x00,0x00,0x00,0x00,0x00,0x00,0x00,
 0x00,0x00,0x00,0xf8,0x01,0x00,0x00,0x00,0x00,0x00,0x00,0xe0,0xff,0xff,0x00,
 0x00,0x00,0x00,0x00,0x00,0x00,0x00,0x00,0x00,0x00,0x00,0x00,0x00,0x00,0x00,
 0x00,0x00,0x00,0x00,0x00,0xff,0x01,0x00,0x00,0x00,0x00,0x00,0x00,0xe0,0xff,
 0xff,0x03,0x00,0x00,0x00,0x00,0x00,0x00,0x00,0x00,0x00,0x00,0x00,0x00,0x00,
 0x00,0x00,0x00,0x00,0x00,0x00,0x80,0xff,0x01,0x00,0x00,0x00,0x00,0x00,0x00,
 0xe0,0xff,0xff,0x0f,0x00,0x00,0x00,0x00,0x00,0x00,0x00,0x00,0x00,0x00,0x00,
 0x00,0x00,0x00,0x00,0x00,0x00,0x00,0x00,0xf0,0xff,0x01,0x00,0x00,0x00,0x00,
 0x00,0x00,0xe0,0xff,0xff,0x3f,0x00,0x00,0x00,0x00,0x00,0x00,0x00,0x00,0x00,
 0x00,0x00,0x00,0x00,0x00,0x00,0x00,0x00,0x00,0x00,0xf8,0xff,0x01,0x00,0x00,
 0x00,0x00,0x00,0x00,0xe0,0xff,0xf3,0xff,0x00,0x00,0x00,0x00,0x00,0x00,0x00,
 0x00,0x00,0x00,0x00,0x00,0x00,0x00,0x00,0x00,0x00,0x00,0x00,0xfe,0xff,0x01,
 0x00,0x00,0x00,0x00,0x00,0x00,0xe0,0xff,0xc3,0xff,0x03,0x00,0x00,0x00,0x00,
 0x00,0x00,0x00,0x00,0x00,0x00,0x00,0x00,0x00,0x00,0x00,0x00,0x00,0x00,0xff,
 0xff,0x01,0x00,0x00,0x00,0x00,0x00,0x00,0xe0,0xff,0x83,0xff,0x07,0x00,0x00,
 0x00,0x00,0x00,0x00,0x00,0x00,0x00,0x00,0x00,0x00,0x00,0x00,0x00,0x00,0x00,
 0xe0,0xff,0xff,0x01,0x00,0x00,0x00,0x00,0x00,0x00,0xe0,0xff,0x03,0xfe,0x3f,
 0x00,0x00,0x00,0x00,0x00,0x00,0x00,0x00,0x00,0x00,0x00,0x00,0x00,0x00,0x00,
 0x00,0x00,0xf0,0xff,0xff,0x01,0x00,0x00,0x00,0x00,0x00,0x00,0xe0,0xff,0x03,
 0xf8,0x7f,0x00,0x00,0x00,0x00,0x00,0x00,0x00,0x00,0x00,0x00,0x00,0x00,0x00,
 0x00,0x00,0x00,0x00,0xff,0xff,0xff,0x01,0x00,0x00,0x00,0x00,0x00,0x00,0xe0,
 0xff,0x03,0xe0,0xff,0x03,0x00,0x00,0x00,0x00,0x00,0x00,0x00,0x00,0x00,0x00,
 0x00,0x00,0x00,0x00,0x00,0x80,0xff,0xff,0xff,0x01,0x00,0x00,0x00,0x00,0x00,
 0x00,0xe0,0xff,0x03,0x80,0xff,0x07,0x00,0x00,0x00,0x00,0x00,0x00,0x00,0x00,
 0x00,0x00,0x00,0x00,0x00,0x00,0x00,0xf0,0xff,0xff,0xff,0x01,0x00,0x00,0x00,
 0x00,0x00,0x00,0xe0,0xff,0x03,0x00,0xfe,0x1f,0x00,0x00,0x00,0x00,0x00,0x00,
 0x00,0x00,0x00,0x00,0x00,0x00,0x00,0x00,0x00,0xf8,0xff,0xff,0xff,0x01,0x00,
 0x00,0x00,0x00,0x00,0x00,0xe0,0xff,0x03,0x00,0xf8,0x3f,0x00,0x00,0x00,0x00,
 0x00,0x00,0x00,0x00,0x00,0x00,0x00,0x00,0x00,0x00,0x00,0xff,0xff,0xff,0xff,
 0x01,0x00,0x00,0x00,0x00,0x00,0x00,0xe0,0xff,0x03,0x00,0xf0,0x3f,0x00,0x00,
 0x00,0x00,0x00,0x00,0x00,0x00,0x00,0x00,0x00,0x00,0x00,0x00,0x80,0xff,0xff,
 0xf7,0xff,0x01,0x00,0x00,0x00,0x00,0x00,0x00,0xe0,0xff,0x03,0x00,0xf0,0x3f,
 0x00,0x00,0x00,0x00,0x00,0x00,0x00,0x00,0x00,0x00,0x00,0x00,0x00,0x00,0xf0,
 0xff,0xff,0xf0,0xff,0x01,0x00,0x00,0xfe,0xff,0xff,0x03,0xe0,0xff,0x03,0x00,
 0xf0,0x3f,0x00,0x00,0x00,0x00,0x00,0x00,0x00,0x00,0x00,0x00,0x00,0x00,0x00,
 0x00,0xf8,0xff,0x3f,0xf0,0xff,0x01,0x00,0x00,0xfe,0xff,0xff,0x03,0xe0,0xff,
 0x03,0x00,0xf0,0x3f,0x00,0x00,0x00,0x00,0x00,0x00,0x00,0x00,0x00,0x00,0x00,
 0x00,0x00,0x00,0xfe,0xff,0x0f,0xf0,0xff,0x01,0x00,0x00,0xfe,0xff,0xff,0x03,
 0xe0,0xff,0x03,0x00,0xf0,0x3f,0x00,0x00,0x00,0x00,0x00,0x00,0x00,0x00,0x00,
 0x00,0x00,0x00,0x00,0x80,0xff,0xff,0x07,0xf0,0xff,0x01,0x00,0x00,0xfe,0xff,
 0xff,0x03,0xe0,0xff,0x03,0x00,0xf0,0x3f,0x00,0x00,0x00,0x00,0x00,0x00,0x00,
 0x00,0x00,0x00,0x00,0x00,0x00,0xe0,0xff,0xff,0xff,0xff,0xff,0xff,0x3f,0x00,
 0xfe,0xff,0xff,0x03,0xe0,0xff,0x03,0x00,0xf0,0x3f,0x00,0x00,0x00,0x00,0x00,
 0x00,0x00,0x00,0x00,0x00,0x00,0x00,0x00,0xf8,0xff,0xff,0xff,0xff,0xff,0xff,
 0x3f,0x00,0xfe,0xff,0xff,0x03,0xe0,0xff,0x03,0x00,0xf0,0x3f,0x00,0x00,0x00,
 0x00,0x00,0x00,0x00,0x00,0x00,0x00,0x00,0x00,0x00,0xfc,0xff,0xff,0xff,0xff,
 0xff,0xff,0x3f,0x00,0xfe,0xff,0xff,0x03,0xe0,0xff,0x03,0x00,0xf8,0x3f,0x00,
 0x00,0x00,0x00,0x00,0x00,0x00,0x00,0x00,0x00,0x00,0x00,0x00,0xf8,0xff,0xff,
 0xff,0xff,0xff,0xff,0x3f,0x00,0xfe,0xff,0xff,0x03,0xe0,0xff,0x03,0x00,0xff,
 0x3f,0x00,0x00,0x00,0x00,0x00,0x00,0x00,0x00,0x00,0x00,0x00,0x00,0x00,0xc0,
 0xff,0xff,0xff,0xff,0xff,0xff,0x3f,0x00,0xfe,0xff,0xff,0x03,0xe0,0xff,0x03,
 0xfc,0xff,0x3f,0x00,0x00,0x00,0x00,0x00,0x00,0x00,0x00,0x00,0x00,0x00,0x00,
 0x00,0x00,0x00,0x00,0x00,0xf0,0xff,0x01,0x00,0x00,0x00,0x00,0x00,0x00,0xe0,
 0xff,0x03,0xff,0xff,0x0f,0x00,0x00,0x00,0x00,0x00,0x00,0x00,0x00,0x00,0x00,
 0x00,0x00,0x00,0x00,0x00,0x00,0x00,0xf0,0xff,0x01,0x00,0x00,0x00,0x00,0x00,
 0x00,0xe0,0xff,0xff,0xff,0xff,0x01,0x00,0x00,0x00,0x00,0x00,0x00,0x00,0x00,
 0x00,0x00,0x00,0x00,0x00,0x00,0x00,0x00,0x00,0xf0,0xff,0x01,0x00,0x00,0x00,
 0x00,0x00,0x00,0xe0,0xff,0xff,0xff,0xff,0x00,0x00,0x00,0x00,0x00,0x00,0x00,
 0x3e,0x00,0x00,0x00,0x00,0x00,0x00,0x00,0x00,0x00,0x00,0xf0,0xff,0x01,0x00,
 0x00,0x00,0x00,0x00,0x00,0xe0,0xff,0xff,0xff,0x07,0x00,0x00,0x00,0x00,0x00,
 0x00,0x00,0x78,0x00,0x00,0x00,0x00,0x00,0x00,0x00,0x00,0x00,0x00,0xf0,0xff,
 0x01,0x00,0x00,0x00,0x00,0x00,0x00,0xe0,0xff,0xff,0xff,0x00,0x00,0x00,0x00,
 0x00,0x00,0x00,0x00,0xf0,0x01,0x00,0x00,0x00,0x00,0x00,0x00,0x00,0x00,0x00,
 0xe0,0xff,0x00,0x00,0x00,0x00,0x00,0x00,0x00,0xe0,0xff,0xff,0x03,0x00,0x00,
 0x00,0x00,0x00,0x00,0x00,0x00,0xf0,0x07,0x00,0x00,0x00,0x00,0x00,0x00,0x00,
 0x00,0x00,0x80,0x3f,0x00,0x00,0x00,0x00,0x00,0x00,0x00,0xe0,0xff,0xff,0x00,
 0x00,0x00,0x00,0x00,0x00,0x00,0x00,0x00,0xe0,0x3f,0x00,0x00,0x00,0x00,0x00,
 0x00,0x00,0x00,0x00,0x00,0x00,0x00,0x00,0x00,0x00,0x00,0x00,0x00,0x00,0x00,
 0x00,0x00,0x00,0x00,0x00,0x00,0x00,0x00,0x00,0x00,0x80,0x7f,0x00,0x00,0x00,
 0x00,0x00,0x00,0x00,0x00,0x00,0x00,0x00,0x00,0x00,0x00,0x00,0x00,0x00,0x00,
 0x00,0x00,0x00,0x00,0x00,0x00,0x00,0x00,0x00,0x00,0x00,0x00,0x00,0xff,0x03,
 0x00,0x00,0x00,0x00,0x00,0x00,0x08,0x00,0x00,0x00,0x00,0x00,0x00,0x00,0x00,
 0x00,0x00,0x00,0x00,0x00,0x00,0x00,0x00,0x00,0x00,0x00,0x00,0x00,0x00,0x00,
 0xff,0x07,0x00,0x00,0x00,0x00,0x00,0x00,0x0c,0x00,0x00,0x00,0x00,0x00,0x00,
 0x00,0x00,0x00,0x00,0x00,0x00,0x00,0x00,0x00,0x00,0x00,0x00,0x00,0x00,0x00,
 0x00,0x00,0xfe,0x0f,0x00,0x00,0x00,0x00,0x00,0x80,0x0f,0x00,0xfc,0x07,0x00,
 0x00,0xfe,0x03,0x00,0x00,0x00,0x00,0xf8,0xff,0x0f,0x00,0xfe,0x03,0x00,0x00,
 0xc0,0x7f,0x00,0x00,0xf8,0x1f,0x00,0x00,0x00,0x00,0x00,0xe0,0x07,0x00,0xff,
 0x3f,0x00,0x80,0xff,0x1f,0x00,0x00,0x00,0x00,0xfc,0xff,0x1f,0x80,0xff,0x1f,
 0x00,0x00,0xe0,0xff,0x01,0x00,0xf0,0x3f,0x00,0x00,0x00,0x00,0x00,0xf8,0x03,
 0x00,0xff,0xff,0x01,0x80,0xff,0xff,0x00,0x00,0x40,0x00,0x7f,0x1c,0x7f,0x80,
 0xff,0xff,0x00,0x00,0xf8,0xff,0x07,0x00,0xe0,0x7f,0x00,0x00,0x00,0x00,0x00,
 0xfc,0x03,0x00,0xff,0xff,0x0f,0x80,0xff,0xff,0x07,0x00,0x60,0x80,0x7f,0x1c,
 0xff,0x80,0xff,0xff,0x07,0x00,0xfe,0xff,0x0f,0x00,0xc0,0xff,0x00,0x00,0x00,
 0x00,0x80,0xff,0x01,0x00,0xff,0xff,0xff,0x83,0xff,0xff,0xff,0x01,0x70,0xc0,
 0xcf,0x80,0xf9,0x81,0xff,0xff,0xff,0x81,0xff,0xc3,0x1f,0x00,0xc0,0xff,0x01,
 0x00,0x00,0x00,0xc0,0xff,0x00,0x00,0xff,0xf3,0xff,0x87,0xff,0xf9,0xff,0x03,
 0x78,0xe0,0x8f,0xff,0xf8,0x83,0xff,0xf9,0xff,0xe3,0xff,0x00,0x7e,0x00,0x80,
 0xff,0x03,0x00,0x00,0x00,0xf0,0x3f,0x00,0x00,0xff,0x03,0xff,0x83,0xff,0x81,
 0xff,0x01,0x7c,0xf0,0x4f,0x7f,0xf9,0x87,0xff,0x81,0xff,0xf9,0x1f,0x00,0x78,
 0x00,0x00,0xfe,0x07,0x00,0x0c,0x00,0xf8,0x1f,0x00,0x00,0xff,0xc3,0xff,0x80,
 0xff,0xe1,0x7f,0x00,0x7e,0xf0,0x3f,0x3c,0xfe,0x87,0xff,0xe1,0x7f,0xf8,0x0f,
 0x00,0x60,0x00,0x00,0xfc,0x0f,0x00,0x1e,0x00,0xfc,0x0f,0x00,0x00,0xff,0xfb,
 0x3f,0x80,0xff,0xfd,0x1f,0x00,0x7f,0xf0,0xf8,0x80,0x8f,0x87,0xff,0xfd,0x1f,
 0xf8,0x07,0x00,0x00,0x00,0x00,0xfc,0x1f,0x80,0x7f,0x00,0xfe,0x07,0x03,0x00,
 0xff,0xff,0x0f,0x80,0xff,0xff,0x07,0x80,0x7f,0xf0,0xe0,0xe3,0x83,0x87,0xff,
 0xff,0x07,0xf8,0x1f,0x00,0x00,0x00,0x00,0xf8,0x3f,0xc0,0xff,0x00,0xff,0xc3,
 0x0f,0x00,0xff,0xff,0x03,0x80,0xff,0xff,0x01,0xc0,0x7f,0xf0,0x80,0xff,0x80,
 0x87,0xff,0xff,0x01,0xf8,0xff,0x07,0x00,0x00,0x00,0xe0,0x7f,0xc0,0xff,0x80,
 0xff,0xe1,0x1f,0x00,0xff,0xff,0x0f,0x80,0xff,0xff,0x07,0xe0,0x7f,0xf0,0x00,
 0x3e,0x80,0x87,0xff,0xff,0x07,0xe0,0xff,0x3f,0x00,0x00,0x00,0xc0,0xff,0xe0,
 0xff,0xc1,0xff,0xf0,0x3f,0x00,0xff,0xff,0x1f,0x80,0xff,0xff,0x0f,0xe0,0x7f,
 0xf0,0x00,0x1c,0x80,0x87,0xff,0xff,0x0f,0x00,0xfe,0xff,0x01,0x00,0x00,0x80,
 0xff,0xf1,0xff,0xe3,0xff,0xf8,0x7f,0x00,0xff,0xfb,0x1f,0x80,0xff,0xfd,0x0f,
 0xe0,0x7f,0xf0,0x01,0x1c,0xc0,0x87,0xff,0xfd,0x0f,0x00,0xf0,0xff,0x0f,0x00,
 0x00,0x00,0xff,0xfb,0xff,0xf7,0x7f,0xfc,0xff,0x00,0xff,0xf3,0x3f,0x80,0xff,
 0xf9,0x1f,0xe0,0x7f,0xe0,0x07,0x1c,0xf0,0x83,0xff,0xf9,0x1f,0x00,0x80,0xff,
 0x7f,0x00,0x00,0x00,0xff,0xff,0xff,0xff,0x3f,0xfe,0xff,0xc1,0xff,0xe3,0x7f,
 0xe0,0xff,0xf1,0x3f,0xe0,0x7f,0xe0,0x1f,0x1c,0xfc,0xe3,0xff,0xf1,0x3f,0x18,
 0x00,0xfc,0x7f,0x00,0x00,0x00,0xfe,0xff,0xff,0xff,0x1f,0x7f,0xfc,0xe3,0xff,
 0xc3,0xff,0xf0,0xff,0xe1,0x7f,0xe0,0x7f,0xc0,0xff,0x9c,0xff,0xf1,0xff,0xe1,
 0x7f,0xf8,0x00,0x80,0x7f,0x00,0x00,0x00,0xf8,0xff,0xf7,0xff,0x07,0x3f,0xf8,
 0xe7,0xff,0x03,0xff,0xf3,0xff,0x81,0xff,0xc1,0x7f,0x00,0xff,0xff,0x7f,0xf0,
 0xff,0x81,0xff,0xf9,0x01,0xc0,0x7f,0x00,0x00,0x00,0xf0,0xff,0xe1,0xff,0x83,
 0xff,0xff,0xcf,0xff,0x03,0xfe,0xe7,0xff,0x01,0xff,0x83,0x7f,0xe0,0xfe,0xff,
 0xbf,0xe3,0xff,0x01,0xff,0xc3,0x0f,0xf8,0x7f,0x00,0x00,0x00,0xf0,0xff,0xc0,
 0xff,0xe3,0xff,0xff,0x1f,0xff,0x03,0xfe,0x87,0xff,0x01,0xff,0x03,0x7f,0xf0,
 0xfe,0xff,0xbf,0x87,0xff,0x01,0xff,0x83,0x1f,0xfc,0x1f,0x00,0x00,0x00,0xe0,
 0x7f,0x80,0xff,0xf1,0x0f,0xc0,0x3f,0xfe,0x03,0xfc,0x0f,0xff,0x01,0xfe,0x07,
 0x7e,0x30,0xf9,0xff,0x4f,0x06,0xff,0x01,0xfe,0x07,0xff,0xff,0x07,0x00,0x00,
 0x00,0x80,0x3f,0x00,0x7f,0xf8,0x03,0x80,0x7f,0xfe,0x01,0xf0,0x07,0xff,0x00,
 0xf8,0x03,0x7c,0xd0,0xf7,0xff,0xf7,0x05,0xff,0x00,0xf8,0x03,0xfe,0xff,0x01,
 0x00,0x00,0x00,0x00,0x1f,0x00,0x3e,0xfc,0x00,0x00,0xfe,0xfc,0x00,0xe0,0x03,
 0x7e,0x00,0xf0,0x01,0x78,0xe0,0xcf,0xff,0xf9,0x03,0x7e,0x00,0xf0,0x01,0xf8,
 0x7f,0x00,0x00,0x00,0x00,0x00,0x1e,0x00,0x3e,0x7c,0x00,0x00,0xf8,0x78,0x00,
 0xc0,0x03,0x3c,0x00,0xe0,0x01,0x70,0xc0,0xcf,0xff,0xf9,0x01,0x3c,0x00,0xe0,
 0x01,0xe0,0x3f,0x00,0x00,0x00,0x00,0x00,0x0c,0x00,0x1c,0x1e,0x00,0x00,0xf0,
 0x31,0x00,0x80,0x01,0x18,0x00,0xc0,0x00,0x60,0x00,0x3c,0x7f,0x1e,0x00,0x18,
 0x00,0xc0,0x00,0x80,0x0f,0x00,0x00,0x00,0x00,0x00,0x00,0x00,0x00,0x00,0x00,
 0x00,0x00,0x00,0x00,0x00,0x00,0x00,0x00,0x00,0x00,0x00,0x00,0x00,0x00,0x00,
 0x00,0x00,0x00,0x00,0x00,0x00,0x00,0x00 };
