#define _width 256
#define _height 64
static char _bits[] = {
 0x00,0x00,0x00,0x00,0x00,0x80,0xff,0xff,0xe1,0xff,0xc7,0xff,0x3f,0xf8,0xff,
 0xfb,0xff,0x0f,0xf8,0xff,0xe1,0xdf,0xff,0x0f,0x80,0xff,0x01,0x00,0x00,0x00,
 0x00,0x00,0x00,0x00,0x00,0x00,0x00,0xc0,0x00,0x00,0x31,0x00,0x64,0x00,0x60,
 0x08,0x00,0x0a,0x00,0x18,0x08,0x00,0x23,0x90,0x00,0x18,0xc0,0x00,0x07,0x00,
 0x00,0x00,0x00,0x00,0x00,0x00,0x00,0x00,0x00,0x40,0x00,0x00,0x19,0x00,0x24,
 0x00,0xc0,0x0c,0x00,0x0a,0x00,0x10,0x08,0x00,0x62,0xb0,0x00,0x30,0x40,0x00,
 0x0c,0x00,0x00,0x00,0x00,0x00,0x00,0x00,0x00,0x00,0x00,0x60,0x00,0x00,0x0d,
 0x00,0x34,0x00,0x80,0x04,0x00,0x0e,0x00,0x30,0x0c,0x00,0x46,0xa0,0x01,0x60,
 0x60,0x00,0x18,0x00,0x00,0x00,0x00,0x00,0x00,0x00,0x00,0x00,0x00,0x30,0xf0,
 0x81,0x07,0x0f,0x14,0x00,0x80,0x06,0x00,0x0c,0x00,0x20,0x04,0x00,0x44,0x20,
 0x01,0xc0,0x30,0x00,0x30,0x00,0x00,0x00,0x00,0x00,0x00,0x00,0x00,0x00,0x00,
 0x18,0x18,0x81,0x83,0x09,0x1c,0x0e,0x87,0x82,0x1f,0x0c,0x7c,0x60,0x04,0x1f,
 0x4c,0x60,0xc1,0x83,0x11,0x78,0x60,0x00,0x00,0x00,0x00,0x00,0x00,0x00,0x00,
 0x00,0x00,0x0c,0x8c,0xc1,0xc1,0x08,0x0c,0x0b,0x85,0x82,0x10,0x0c,0xc4,0x40,
 0x04,0x31,0xc8,0x40,0x43,0x06,0x1b,0xcc,0xc0,0x00,0x00,0x00,0x00,0x00,0x00,
 0x00,0x00,0x00,0x00,0x04,0xc4,0xc0,0x40,0x08,0x04,0x09,0x85,0xc3,0x30,0x08,
 0x84,0xc0,0x04,0x21,0x98,0x40,0xc2,0x0c,0x0e,0x84,0x81,0x00,0x00,0x00,0x00,
 0x00,0x00,0x00,0x00,0x00,0x00,0x06,0x46,0x60,0x60,0x08,0x84,0x0d,0x85,0x41,
 0x20,0x08,0x84,0x81,0x06,0x21,0x90,0xc0,0x82,0x08,0x0c,0x04,0x81,0x01,0x00,
 0x00,0x00,0x00,0x00,0x00,0x00,0x00,0x00,0x03,0x63,0x20,0x20,0xf8,0x87,0x04,
 0x85,0x61,0xe0,0x0f,0x04,0x83,0x03,0x21,0x90,0x80,0x86,0x18,0x08,0x04,0x03,
 0x01,0x00,0x00,0x00,0x00,0x00,0x00,0x00,0x00,0x80,0x81,0x31,0x30,0x30,0x00,
 0xc4,0x84,0x85,0x20,0x00,0x08,0x04,0x02,0x03,0x61,0x90,0x81,0x84,0x31,0x18,
 0x0c,0xfe,0x03,0x00,0x00,0x00,0x00,0x00,0x00,0x00,0x00,0xc0,0x80,0x1f,0x10,
 0xf0,0xff,0x7d,0x86,0xfc,0xe0,0xff,0x09,0xfc,0x03,0x03,0x41,0x30,0x81,0x05,
 0x21,0x10,0x18,0x00,0x00,0x00,0x00,0x00,0x00,0x00,0x00,0x00,0x00,0x40,0x00,
 0x00,0x10,0x00,0x00,0x01,0x82,0x80,0x00,0x00,0x09,0x00,0x00,0x03,0x43,0x20,
 0x01,0x0d,0x23,0x30,0xf0,0xff,0x07,0x00,0x00,0x00,0x00,0x00,0x00,0x00,0x00,
 0x60,0x00,0x00,0x18,0x00,0x00,0x01,0x82,0xc0,0x00,0x00,0x09,0x00,0x00,0x02,
 0x42,0x20,0x01,0x09,0x62,0x20,0x00,0x00,0x0c,0x00,0x00,0x00,0x00,0x00,0x00,
 0x00,0x00,0x30,0x00,0x00,0x08,0x00,0x00,0x01,0x83,0x40,0x00,0x00,0x09,0x00,
 0x00,0x02,0x42,0x20,0x03,0x0b,0x42,0x60,0x00,0x00,0x18,0x00,0x00,0x00,0x00,
 0x00,0x00,0x00,0x00,0x18,0x00,0x00,0x0c,0x00,0x00,0x01,0xc1,0x40,0x00,0x00,
 0x09,0x00,0x00,0x06,0x42,0x60,0x02,0x1a,0x46,0x40,0x00,0x00,0x10,0x00,0x00,
 0x00,0x00,0x00,0x00,0x00,0x00,0x0c,0x00,0x00,0x04,0x00,0x80,0x01,0x41,0x40,
 0x00,0x00,0x09,0x00,0x00,0x06,0xc2,0x40,0x02,0x12,0xc4,0xc0,0x00,0x00,0x30,
 0x00,0x00,0x00,0x00,0x00,0x00,0x00,0x00,0x04,0xf0,0x03,0xfe,0xff,0x81,0x80,
 0x41,0x60,0xe0,0xff,0x09,0x1c,0xf8,0x07,0x82,0x40,0x06,0x16,0x84,0x80,0x03,
 0x00,0x20,0x00,0x00,0x00,0x00,0x00,0x00,0x00,0x00,0x06,0x18,0x02,0x02,0x00,
 0x81,0x80,0x40,0x20,0x20,0x00,0x08,0x14,0x18,0x04,0x86,0xc0,0x04,0x34,0x8c,
 0x80,0xfe,0x3f,0x60,0x00,0x00,0x00,0x00,0x00,0x00,0x00,0x00,0x03,0x08,0x03,
 0x03,0x80,0xc1,0x80,0x60,0x20,0x20,0x00,0x08,0x34,0x30,0x04,0x84,0x80,0x04,
 0x24,0x88,0x80,0x01,0x60,0xc0,0x00,0x00,0x00,0x00,0x00,0x00,0x00,0x80,0x01,
 0x0c,0x01,0x01,0x80,0x40,0x80,0x20,0x30,0x30,0x00,0x08,0x64,0x60,0x04,0x84,
 0x80,0x0c,0x24,0x98,0x01,0x01,0xc0,0x80,0x00,0x00,0x00,0x00,0x00,0x00,0x00,
 0xc0,0x00,0x84,0x01,0xff,0xc3,0x40,0xc0,0x20,0x10,0x10,0xf0,0x0f,0xc4,0xc0,
 0x04,0x84,0x80,0x08,0x2c,0x10,0x01,0x01,0x80,0x80,0x01,0x00,0x00,0x00,0x00,
 0x00,0x00,0x40,0x00,0x86,0x80,0x01,0x41,0x60,0x40,0x20,0x10,0x10,0x18,0x0c,
 0x84,0x81,0x05,0x84,0x80,0x09,0x68,0x30,0x01,0xff,0x8f,0x01,0x03,0x00,0x00,
 0x00,0x00,0x00,0x00,0x60,0x00,0xc3,0x80,0x80,0x61,0x20,0x40,0x20,0x10,0x10,
 0x08,0x0c,0x04,0x01,0x05,0x84,0x00,0x09,0x48,0x20,0x01,0x02,0x08,0x03,0x02,
 0x00,0x00,0x00,0x00,0x00,0x00,0x30,0x00,0x61,0xc0,0x80,0x20,0x20,0x70,0x30,
 0x18,0xf0,0x0f,0x0c,0x1c,0x01,0x07,0xfc,0x00,0x0f,0x78,0xe0,0x01,0x02,0xf8,
 0x03,0x06,0x00,0x00,0x00,0x00,0x00,0x00,0x18,0x80,0x21,0x40,0x80,0x3f,0x30,
 0x18,0x10,0x08,0x00,0x00,0x0c,0x10,0x01,0x06,0x00,0x00,0x01,0x10,0x00,0x00,
 0x06,0x00,0x00,0x04,0x00,0x00,0x00,0x00,0x00,0x00,0x0f,0x80,0x3c,0x60,0x00,
 0x00,0x10,0x08,0x10,0x08,0x00,0x00,0x0c,0x10,0x01,0x06,0x00,0x00,0x03,0x10,
 0x00,0x00,0x06,0x00,0x00,0x0c,0x00,0x00,0x00,0x00,0x00,0x00,0x01,0xc0,0x06,
 0x20,0x00,0x00,0x10,0x08,0x10,0x0c,0x00,0x00,0x0c,0x10,0x01,0x04,0x00,0x00,
 0x02,0x30,0x00,0x00,0x1c,0x00,0x00,0x18,0x00,0x00,0x00,0x00,0x00,0x80,0x01,
 0x60,0x02,0x30,0x00,0x00,0x18,0x0c,0x10,0x04,0x00,0x00,0x0c,0x10,0x01,0x04,
 0x00,0x00,0x06,0x20,0x00,0x00,0x14,0x00,0x00,0x10,0x00,0x00,0x00,0x00,0x00,
 0x80,0x00,0x20,0x03,0x10,0x00,0x00,0x08,0x04,0x18,0x04,0x00,0x00,0x0c,0x10,
 0x01,0x04,0x00,0x00,0x06,0x20,0x00,0x00,0x34,0x00,0x00,0x30,0x00,0x00,0x00,
 0x00,0x00,0x80,0x00,0x30,0x01,0x10,0x00,0x00,0x08,0x04,0x08,0x04,0x00,0x00,
 0x0c,0x10,0x01,0x04,0x00,0x00,0x04,0x60,0x00,0x00,0x24,0x00,0x00,0x60,0x00,
 0x00,0x00,0x00,0x00,0xc0,0x00,0x90,0x01,0x18,0x00,0x00,0x0c,0x06,0x08,0x06,
 0x00,0x00,0x0c,0x10,0x01,0x04,0x00,0x00,0x04,0x40,0x00,0x00,0x64,0x00,0x00,
 0x40,0x00,0x00,0x00,0x00,0x00,0x40,0x00,0x98,0x00,0x08,0x00,0x00,0x04,0x02,
 0x08,0x02,0x00,0x00,0x0c,0x10,0x01,0x04,0x00,0x00,0x0c,0x40,0x00,0x00,0x46,
 0x00,0x00,0xc0,0x00,0x00,0x00,0x00,0x00,0x40,0x00,0xcc,0x00,0x0c,0x00,0x00,
 0x04,0x02,0x0c,0x02,0x00,0x00,0x0c,0x10,0x01,0x0c,0x00,0x00,0x0c,0xc0,0x00,
 0x00,0xc2,0x00,0x00,0x80,0x00,0x00,0x00,0x00,0x00,0x40,0x00,0x64,0x00,0x04,
 0x00,0x00,0x06,0x03,0x04,0x03,0x00,0x00,0x0c,0x10,0x01,0x08,0x00,0x00,0x08,
 0x80,0x00,0x00,0x82,0x00,0x00,0x80,0x01,0x00,0x00,0x00,0x00,0x40,0x00,0x26,
 0x00,0x06,0x00,0x00,0x02,0x01,0x04,0x01,0x00,0x00,0x0c,0x10,0x01,0x08,0x00,
 0x00,0x08,0x80,0x00,0x00,0x83,0x01,0x00,0x00,0x03,0x00,0x00,0x00,0x00,0x40,
 0x00,0x32,0x00,0x02,0x00,0x00,0x02,0x01,0x04,0x01,0x00,0x00,0x0c,0x10,0x01,
 0x08,0x00,0x00,0x08,0x80,0x00,0x00,0x01,0x01,0x00,0x00,0x02,0x00,0x00,0x00,
 0x00,0xc0,0xff,0xf3,0xff,0xff,0xff,0xff,0x03,0xff,0x07,0xff,0xff,0xff,0xff,
 0x1f,0xff,0xff,0xff,0xff,0xff,0xff,0xff,0xff,0x01,0xff,0xff,0xff,0x03,0x00,
 0x00,0x00,0x00,0x00,0x00,0x00,0x00,0x00,0x00,0x00,0x00,0x00,0x00,0x00,0x00,
 0x00,0x00,0x00,0x00,0x00,0x00,0x00,0x00,0x00,0x00,0x00,0x00,0x00,0x00,0x00,
 0x00,0x00,0x00,0x00,0x00,0x00,0x00,0x00,0x00,0x00,0x00,0x00,0x00,0x00,0x00,
 0x00,0x00,0x00,0x00,0x00,0x00,0x00,0x00,0x00,0x00,0x00,0x00,0x00,0x00,0x00,
 0x00,0x00,0x00,0x00,0x00,0x00,0x00,0x00,0x00,0x00,0x00,0x00,0x00,0x00,0x00,
 0xc0,0xff,0x0f,0x00,0xfc,0x01,0x7f,0xfc,0x3f,0xfe,0xff,0x0f,0x00,0x00,0x00,
 0x00,0x00,0x00,0x00,0x00,0x00,0x00,0x00,0x00,0x00,0x00,0x00,0x00,0x00,0x00,
 0x00,0x00,0x40,0x00,0x08,0x00,0x04,0x01,0x41,0x04,0x21,0xc2,0x00,0x18,0x00,
 0x00,0x00,0x00,0x00,0x00,0x00,0x00,0x00,0x00,0x00,0x00,0x00,0x00,0x00,0x00,
 0x00,0x00,0x00,0x00,0x40,0x00,0x18,0x00,0x04,0x01,0x41,0x04,0x21,0xc2,0x00,
 0x10,0x00,0x00,0x00,0x00,0x00,0x00,0x00,0x00,0x00,0x00,0x00,0x00,0x00,0x00,
 0x00,0x00,0x00,0x00,0x00,0x00,0x40,0x00,0x10,0x00,0x04,0x01,0x41,0x04,0x21,
 0xc2,0x00,0x30,0x00,0x00,0x00,0x00,0x00,0x00,0x00,0x00,0x00,0x00,0x00,0x00,
 0x00,0x00,0x00,0x00,0x00,0x00,0x00,0x00,0x40,0x78,0xd0,0xff,0x0c,0x01,0x43,
 0x0c,0x21,0xc2,0xe0,0x21,0x00,0x00,0x00,0x00,0x00,0x00,0x00,0x00,0x00,0x00,
 0x00,0x00,0x00,0x00,0x00,0x00,0x00,0x00,0x00,0x00,0x40,0x88,0x70,0x80,0x09,
 0x01,0x42,0x08,0x61,0x43,0x20,0x63,0x00,0x00,0x00,0x00,0x00,0x00,0x00,0x00,
 0x00,0x00,0x00,0x00,0x00,0x00,0x00,0x00,0x00,0x00,0x00,0x00,0x60,0x88,0x30,
 0x00,0x09,0x01,0x42,0x08,0x41,0x41,0x20,0x42,0x00,0x00,0x00,0x00,0x00,0x00,
 0x00,0x00,0x00,0x00,0x00,0x00,0x00,0x00,0x00,0x00,0x00,0x00,0x00,0x00,0x20,
 0x88,0x30,0x3e,0x09,0x01,0x42,0x08,0xc3,0x61,0x20,0x42,0x00,0x00,0x00,0x00,
 0x00,0x00,0x00,0x00,0x00,0x00,0x00,0x00,0x00,0x00,0x00,0x00,0x00,0x00,0x00,
 0x00,0x20,0x88,0x10,0x23,0x09,0x01,0x42,0x08,0x87,0x70,0xe0,0x7f,0x00,0x00,
 0x00,0x00,0x00,0x00,0x00,0x00,0x00,0x00,0x00,0x00,0x00,0x00,0x00,0x00,0x00,
 0x00,0x00,0x00,0x30,0x8c,0x90,0x21,0x09,0x01,0x42,0x08,0x0d,0x58,0x00,0x10,
 0x00,0x00,0x00,0x00,0x00,0x00,0x00,0x00,0x00,0x00,0x00,0x00,0x00,0x00,0x00,
 0x00,0x00,0x00,0x00,0x00,0x10,0xc4,0x90,0x30,0x09,0x01,0x42,0x08,0x07,0x70,
 0x00,0x10,0x00,0x00,0x00,0x00,0x00,0x00,0x00,0x00,0x00,0x00,0x00,0x00,0x00,
 0x00,0x00,0x00,0x00,0x00,0x00,0x00,0x10,0x44,0x98,0x9f,0x09,0xf1,0x43,0x08,
 0x83,0x60,0x00,0x10,0x00,0x00,0x00,0x00,0x00,0x00,0x00,0x00,0x00,0x00,0x00,
 0x00,0x00,0x00,0x00,0x00,0x00,0x00,0x00,0x00,0x10,0x44,0x08,0x80,0x08,0x11,
 0x42,0x08,0xc1,0x41,0xe0,0xff,0x00,0x00,0x00,0x00,0x00,0x00,0x00,0x00,0x00,
 0x00,0x00,0x00,0x00,0x00,0x00,0x00,0x00,0x00,0x00,0x00,0x18,0x44,0x08,0x80,
 0x08,0x11,0x42,0x08,0x41,0x41,0x20,0x84,0x00,0x00,0x00,0x00,0x00,0x00,0x00,
 0x00,0x00,0x00,0x00,0x00,0x00,0x00,0x00,0x00,0x00,0x00,0x00,0x00,0x08,0x44,
 0x08,0xff,0x09,0x11,0x42,0x08,0x61,0x43,0x20,0x84,0x01,0x00,0x00,0x00,0x00,
 0x00,0x00,0x00,0x00,0x00,0x00,0x00,0x00,0x00,0x00,0x00,0x00,0x00,0x00,0x00,
 0x0c,0x3c,0x08,0x09,0x0f,0x1f,0xc2,0x0f,0x21,0x42,0x20,0x04,0x01,0x00,0x00,
 0x00,0x00,0x00,0x00,0x00,0x00,0x00,0x00,0x00,0x00,0x00,0x00,0x00,0x00,0x00,
 0x00,0x00,0x04,0x00,0x8c,0x09,0x03,0x00,0x02,0x00,0x21,0x42,0xe0,0x07,0x01,
 0x00,0x00,0x00,0x00,0x00,0x00,0x00,0x00,0x00,0x00,0x00,0x00,0x00,0x00,0x00,
 0x00,0x00,0x00,0x00,0x04,0x00,0x84,0x08,0x03,0x00,0x02,0x00,0x21,0x42,0x00,
 0x00,0x01,0x00,0x00,0x00,0x00,0x00,0x00,0x00,0x00,0x00,0x00,0x00,0x00,0x00,
 0x00,0x00,0x00,0x00,0x00,0x00,0x06,0x00,0x84,0x08,0x03,0x00,0x02,0x00,0x21,
 0x42,0x00,0x00,0x03,0x00,0x00,0x00,0x00,0x00,0x00,0x00,0x00,0x00,0x00,0x00,
 0x00,0x00,0x00,0x00,0x00,0x00,0x00,0x00,0x02,0x00,0x84,0x0f,0x03,0x00,0x02,
 0x00,0x61,0x43,0x00,0x00,0x02,0x00,0x00,0x00,0x00,0x00,0x00,0x00,0x00,0x00,
 0x00,0x00,0x00,0x00,0x00,0x00,0x00,0x00,0x00,0x00,0x02,0x00,0x06,0x00,0x03,
 0x00,0x06,0x80,0x41,0x41,0x00,0x00,0x02,0x00,0x00,0x00,0x00,0x00,0x00,0x00,
 0x00,0x00,0x00,0x00,0x00,0x00,0x00,0x00,0x00,0x00,0x00,0x00,0x02,0x00,0x06,
 0x00,0x03,0x00,0x06,0x80,0x41,0x41,0x00,0x00,0x02,0x00,0x00,0x00,0x00,0x00,
 0x00,0x00,0x00,0x00,0x00,0x00,0x00,0x00,0x00,0x00,0x00,0x00,0x00,0x00,0x02,
 0x00,0x06,0x00,0x03,0x00,0x06,0x80,0x41,0x41,0x00,0x00,0x02,0x00,0x00,0x00,
 0x00,0x00,0x00,0x00,0x00,0x00,0x00,0x00,0x00,0x00,0x00,0x00,0x00,0x00,0x00,
 0x00,0xfe,0xff,0xff,0xff,0xff,0xff,0xff,0xff,0xff,0xff,0xff,0xff,0x03,0x00,
 0x00,0x00,0x00,0x00,0x00,0x00,0x00,0x00 };
