#define _width 256
#define _height 64
static char _bits[] = {
 0x00,0x00,0x00,0x00,0x00,0x00,0x00,0x00,0x00,0x00,0x00,0x00,0x00,0x00,0x00,
 0x00,0x00,0x00,0x00,0x00,0x00,0x00,0x00,0x00,0x00,0x00,0x00,0x00,0x00,0x00,
 0x00,0x00,0x00,0x00,0x00,0x00,0x00,0x00,0x00,0x00,0x00,0x00,0x00,0x00,0x00,
 0x00,0x00,0x00,0x00,0x00,0x00,0x00,0x00,0x00,0x00,0x00,0x00,0x00,0x00,0x00,
 0x00,0x00,0x00,0x00,0x00,0x00,0x00,0x00,0x00,0x00,0x00,0x00,0x00,0x00,0x00,
 0x00,0x00,0x00,0x00,0x00,0x00,0x00,0x00,0x00,0x00,0x00,0x00,0x00,0x00,0x00,
 0x00,0x00,0x00,0x00,0x00,0x00,0x00,0x00,0x00,0x00,0x00,0x00,0x00,0x00,0x00,
 0x00,0x00,0x00,0x00,0x00,0x00,0x00,0x00,0x00,0x00,0x00,0x00,0x00,0x00,0x00,
 0x00,0x00,0x00,0x00,0x00,0x00,0x00,0x00,0x00,0x00,0x00,0x00,0x00,0x00,0x00,
 0x00,0x00,0x00,0x00,0x00,0x00,0x00,0x00,0x00,0x00,0x00,0x00,0x00,0x00,0x00,
 0x00,0x00,0x00,0x00,0x00,0x00,0x00,0x00,0x00,0x00,0x00,0x00,0x00,0x00,0x00,
 0x00,0x00,0x00,0x00,0x00,0x00,0x00,0x00,0x00,0x00,0x00,0x00,0x00,0x00,0x00,
 0x00,0x00,0x00,0x00,0x00,0x00,0x00,0x00,0x00,0x00,0x00,0x00,0x00,0x00,0x00,
 0x00,0x00,0x00,0x00,0x00,0x00,0x00,0x00,0x00,0x00,0x00,0x00,0x00,0x00,0x00,
 0x00,0x00,0x00,0x00,0x00,0x00,0x00,0x00,0x00,0x00,0x00,0x00,0x00,0x00,0x00,
 0x00,0x00,0x00,0x00,0x00,0x00,0x00,0x00,0x00,0x00,0x00,0x00,0x00,0x00,0x00,
 0x00,0x00,0x00,0x00,0x00,0x00,0x00,0x00,0x00,0x00,0x00,0x00,0x00,0x00,0x00,
 0x00,0x00,0x00,0x00,0x00,0x00,0x00,0x00,0x00,0x00,0x00,0x00,0x00,0x00,0x00,
 0x00,0x00,0x00,0x00,0x00,0x00,0x00,0x00,0x00,0x00,0x00,0x00,0x00,0x00,0x00,
 0x00,0x00,0x00,0x00,0x00,0x00,0x00,0x00,0x00,0x00,0x00,0x00,0x00,0x00,0x00,
 0x00,0x00,0x00,0x00,0x00,0x00,0x00,0x00,0x00,0x00,0x00,0x00,0x00,0x00,0x00,
 0x00,0x00,0x00,0x00,0x00,0x00,0x00,0x00,0x00,0x00,0x00,0x00,0x00,0x00,0x00,
 0x00,0x00,0x00,0x00,0x00,0x00,0x00,0x00,0x00,0x00,0x00,0x00,0x00,0x00,0x00,
 0x00,0x00,0x00,0x00,0x00,0x00,0x00,0x00,0x00,0x00,0x00,0x00,0x00,0x00,0x00,
 0x00,0x00,0x00,0x00,0x00,0x00,0x00,0x00,0x00,0x00,0x00,0x00,0x00,0x00,0x00,
 0x00,0x00,0x00,0x00,0x00,0x00,0x00,0x00,0x00,0x00,0x00,0x00,0x00,0x00,0x00,
 0x00,0x00,0x00,0x00,0x00,0x00,0x00,0x00,0x00,0x00,0x00,0x00,0x00,0x00,0x00,
 0x00,0x00,0x00,0x00,0x00,0x00,0x00,0x00,0x00,0x00,0x00,0x00,0x00,0x00,0x00,
 0x00,0x00,0x00,0x00,0x00,0x00,0x00,0x00,0x00,0x00,0x00,0x00,0x00,0x00,0x00,
 0x00,0x00,0x00,0x00,0x00,0x00,0x00,0x00,0x00,0x00,0x00,0x00,0x00,0x00,0x00,
 0x1e,0x00,0x00,0x00,0x00,0x80,0x01,0x00,0x00,0x00,0x00,0x00,0x00,0x00,0x00,
 0x00,0xf0,0x00,0x00,0x00,0x00,0x00,0x00,0x00,0x00,0x00,0x00,0x00,0x00,0x00,
 0x00,0x80,0x7f,0x00,0xc0,0xff,0x00,0xf8,0x07,0xff,0x07,0xff,0x07,0x7f,0x00,
 0x3f,0x00,0x00,0xfe,0x01,0xf8,0xff,0xff,0x3f,0xfc,0xff,0xff,0x07,0xc0,0xcf,
 0x3f,0x00,0x00,0xf0,0xe1,0x00,0xe0,0xff,0x01,0x1e,0xc6,0x81,0xff,0x0f,0xc6,
 0xff,0xff,0xff,0x00,0x00,0x0f,0x03,0x3c,0xfc,0xff,0x70,0x0e,0xff,0x0f,0x1f,
 0xf8,0xfc,0xff,0x00,0x00,0x0e,0xc0,0x00,0x38,0x00,0x07,0x03,0xec,0x00,0x00,
 0x40,0xd8,0x00,0x00,0x80,0x01,0x60,0x00,0x07,0x06,0x00,0x00,0xc0,0x03,0x00,
 0x00,0x9c,0x0f,0x10,0x80,0x03,0x00,0x06,0xc8,0x00,0x38,0x00,0x06,0x83,0x68,
 0x7c,0x00,0xc0,0x79,0x00,0x00,0x80,0x03,0x30,0x20,0x06,0x06,0x00,0x00,0x86,
 0x03,0x00,0x00,0xb8,0x03,0x00,0x00,0x03,0x00,0x03,0x9e,0x01,0x18,0x3c,0x8e,
 0x81,0x39,0x0e,0x00,0x80,0x79,0x00,0x00,0x10,0x03,0x18,0x78,0x06,0xc3,0x00,
 0x00,0x8c,0x03,0x00,0x80,0xf0,0x01,0x00,0x18,0x06,0x00,0x03,0x18,0x03,0x18,
 0x80,0xb8,0x01,0x39,0x00,0x00,0x00,0x70,0x00,0x00,0x60,0x06,0x18,0xc0,0x8c,
 0x61,0x00,0x00,0x18,0x03,0x00,0x00,0xe3,0x00,0x00,0x40,0x0c,0x00,0x03,0x38,
 0x03,0x18,0x80,0xb8,0x01,0x39,0x00,0x00,0x01,0x70,0x00,0x00,0x20,0x06,0x18,
 0x80,0x9c,0x21,0x00,0x00,0x00,0x03,0x20,0x00,0xe3,0x00,0x04,0xc0,0x0c,0x00,
 0x06,0x20,0x02,0x38,0x00,0x72,0x03,0x18,0x00,0x00,0x00,0xf0,0x00,0x06,0x00,
 0x06,0x18,0x00,0x99,0x01,0x00,0x00,0x00,0x07,0x90,0x07,0xe0,0x00,0x03,0xc0,
 0x18,0x00,0x0c,0x40,0x06,0x38,0x00,0xe6,0x03,0x38,0xc0,0x00,0x0c,0xf0,0x01,
 0xf2,0x01,0x06,0x30,0x00,0x91,0x01,0x04,0xc0,0x00,0x0f,0x80,0x0f,0xa0,0x01,
 0x61,0xc0,0x18,0x00,0x1c,0xc0,0x0c,0xe0,0x00,0xc4,0x0c,0x38,0xe0,0x00,0x1c,
 0x30,0x03,0x78,0x02,0x06,0x60,0x00,0x23,0x01,0x0f,0xe0,0x81,0x19,0x80,0x21,
 0xb8,0x03,0xf0,0x01,0x18,0x00,0x0c,0x80,0x0c,0xc0,0x00,0x80,0x0d,0x38,0xe0,
 0x00,0x3c,0x38,0x03,0x38,0x0c,0x07,0x60,0x00,0x62,0x03,0x0f,0xe0,0x81,0x19,
 0x80,0xc1,0x1c,0x03,0xb0,0x01,0x18,0x00,0x0c,0x80,0x1c,0x80,0x01,0x00,0x0f,
 0x78,0xf0,0x00,0x74,0x38,0x03,0x38,0xfc,0x03,0x20,0x00,0x62,0x06,0x0d,0x60,
 0x83,0x19,0x80,0xc0,0x1f,0x02,0xb0,0x01,0x1c,0x00,0x06,0x00,0x18,0x80,0x01,
 0x00,0x1e,0xc8,0xdf,0x00,0xe4,0x0f,0x03,0x00,0xf9,0x01,0x30,0x00,0x40,0xfc,
 0x0c,0x60,0x7e,0x18,0x00,0xc8,0x02,0x06,0x60,0x00,0x0c,0x00,0x03,0x00,0x10,
 0x80,0x01,0x00,0x1e,0xc8,0xcf,0x00,0xc4,0x07,0x03,0x00,0x19,0x00,0x18,0x00,
 0xc0,0xf8,0x0c,0x60,0x7c,0x18,0x00,0xc8,0x00,0x06,0x00,0x00,0x0c,0x00,0x03,
 0x00,0x20,0x80,0x01,0x00,0x0c,0x08,0xc0,0x00,0x04,0x00,0x03,0x00,0x19,0x00,
 0x1c,0x00,0x80,0x01,0x0c,0x60,0x00,0x18,0x00,0xc8,0x00,0x06,0x00,0x00,0x03,
 0x00,0x03,0x02,0x60,0x80,0x01,0x00,0x18,0x08,0xc0,0x00,0x04,0x00,0x03,0x00,
 0x18,0x00,0x1c,0x18,0x80,0x01,0x0c,0x60,0x00,0x18,0x00,0xc8,0x00,0x06,0x00,
 0x00,0x03,0x80,0x01,0x07,0x60,0x80,0x01,0x00,0x00,0x08,0xc0,0x00,0x04,0x00,
 0x03,0x00,0x18,0x00,0x0c,0x38,0x00,0x01,0x0c,0x60,0x00,0x18,0x00,0xc0,0x00,
 0x06,0x00,0xc0,0x00,0xc0,0x00,0x00,0x40,0x80,0x81,0x01,0x00,0x08,0xc0,0x00,
 0x04,0x00,0x03,0x00,0x18,0x00,0x06,0x00,0x00,0x03,0x0c,0x60,0x00,0x18,0x00,
 0xc0,0x00,0x06,0x00,0xf0,0x00,0xc0,0x00,0x00,0xc0,0x80,0x01,0x01,0x00,0x08,
 0xc0,0x00,0x04,0x00,0x03,0x18,0x18,0x00,0x02,0x00,0x00,0x02,0x0c,0x60,0x00,
 0x18,0x80,0xc0,0x06,0x06,0x00,0xe0,0x00,0xc0,0x00,0x00,0x80,0x81,0x01,0x03,
 0x00,0x08,0xc0,0x00,0x04,0x00,0x03,0x38,0xfc,0x07,0x03,0x00,0x00,0x06,0x0c,
 0x60,0x00,0x18,0x80,0xc1,0x3f,0x06,0x10,0xc0,0x1f,0x60,0x00,0x00,0x80,0x81,
 0x01,0x07,0x00,0x08,0xc0,0x00,0x04,0x00,0x03,0x38,0x3c,0x07,0x03,0x00,0x00,
 0x06,0x0c,0x60,0x00,0x18,0x80,0xf3,0x70,0x02,0x30,0x00,0x3f,0x30,0x00,0x00,
 0x80,0x81,0x01,0x0d,0x00,0x08,0x80,0x00,0x04,0x00,0x03,0xd8,0x07,0x8c,0x01,
 0x00,0x00,0x0c,0x0c,0x60,0x00,0x18,0x80,0x3e,0x60,0x02,0x70,0x00,0x60,0x30,
 0xc0,0x1f,0x00,0x83,0x01,0x19,0x00,0x08,0xc0,0x00,0x04,0x00,0x03,0x18,0x03,
 0xc8,0x00,0x00,0x00,0x08,0x0c,0x60,0x00,0x18,0x80,0x3c,0x40,0x02,0x70,0x00,
 0x60,0x1c,0xe0,0x3f,0x00,0x86,0x01,0x39,0x00,0x18,0xc0,0x00,0x0c,0x80,0x01,
 0xf8,0x83,0xf8,0x80,0xff,0x00,0x38,0x0c,0xc0,0x00,0x0c,0x80,0x0f,0xc6,0x03,
 0xf0,0x00,0xc4,0x0e,0x60,0x30,0x00,0xc6,0x01,0x73,0x00,0x18,0x60,0x00,0x1c,
 0x80,0x01,0xf0,0x81,0x78,0x80,0x81,0x01,0x30,0x06,0xc0,0x00,0x06,0x80,0x07,
 0xc6,0x03,0xe2,0x00,0xcc,0x06,0x60,0x30,0x00,0xcc,0x40,0xe6,0x00,0x18,0x60,
 0x00,0x18,0xc0,0x00,0xe0,0x80,0x38,0x80,0x81,0x00,0x60,0x03,0xc0,0x01,0x06,
 0x00,0x00,0xe6,0x01,0xe0,0x01,0xcc,0x03,0x60,0x18,0x00,0xc9,0x80,0xc6,0x00,
 0x18,0x20,0x00,0x33,0x40,0x00,0x00,0x00,0x1c,0x20,0xc3,0x00,0xc6,0x03,0x00,
 0x01,0x03,0x00,0x00,0xe3,0x00,0xc2,0x01,0xc4,0x03,0xcc,0x18,0x80,0x79,0x80,
 0x8c,0x01,0x19,0x10,0x00,0x33,0x60,0x00,0x00,0x00,0x1c,0x60,0xc2,0x00,0xc6,
 0x01,0x0c,0x81,0x01,0x00,0x00,0xe1,0x00,0xc2,0x03,0x43,0x03,0x80,0x19,0x00,
 0x78,0x00,0x0c,0x03,0x09,0x30,0x00,0x30,0x60,0x00,0x00,0x00,0x1e,0x20,0x46,
 0x00,0xc0,0x01,0x80,0x81,0x01,0x00,0x00,0xf0,0x00,0xc0,0x06,0x60,0x02,0xc0,
 0x18,0x00,0x78,0x00,0x0c,0x06,0x0c,0x20,0x00,0x38,0x60,0x00,0x00,0x00,0x1e,
 0x00,0x46,0x00,0xc0,0x03,0x80,0x01,0x03,0x00,0x00,0xf8,0x01,0x60,0x06,0x60,
 0x06,0xe0,0x38,0x00,0xce,0x00,0x06,0x1c,0x06,0x60,0x00,0x1c,0xc0,0x00,0x00,
 0x80,0x3b,0x00,0xc7,0x00,0x70,0x07,0xc0,0x00,0x06,0x00,0x00,0x9f,0x03,0x60,
 0x1c,0x78,0xfe,0x7f,0xf8,0xff,0xc7,0xbb,0x07,0x3c,0x07,0xe0,0xff,0x0f,0xc0,
 0xc3,0xff,0xe0,0xf9,0xff,0xc3,0xff,0x3b,0xfe,0xff,0x00,0xfe,0xff,0xff,0x8f,
 0xff,0x7f,0x38,0x3c,0xf8,0x7f,0xe0,0xff,0x87,0xff,0x07,0xf0,0x07,0x80,0xff,
 0x07,0xc0,0xff,0xff,0xff,0xf0,0xff,0x83,0xff,0x3f,0xfc,0x7f,0x00,0xfc,0xff,
 0xff,0x07,0xff,0x7f,0xf8,0x1f,0x00,0x00,0x00,0x00,0x00,0x00,0x00,0x00,0x00,
 0x00,0x00,0x00,0x00,0x00,0x00,0x00,0x00,0x00,0x00,0x00,0x00,0x00,0x00,0x00,
 0x00,0x00,0x00,0x00,0x00,0x00,0x80,0x03,0x00,0x00,0x00,0x00,0x00,0x00,0x00,
 0x00,0x00,0x00,0x00,0x00,0x00,0x00,0x00,0x00,0x00,0x00,0x00,0x00,0x00,0x00,
 0x00,0x00,0x00,0x00,0x00,0x00,0x00,0x00,0x00,0x00,0x00,0x00,0x00,0x00,0x00,
 0x00,0x00,0x00,0x00,0x00,0x00,0x00,0x00,0x00,0x00,0x00,0x00,0x00,0x00,0x00,
 0x00,0x00,0x00,0x00,0x00,0x00,0x00,0x00,0x00,0x00,0x00,0x00,0x00,0x00,0x00,
 0x00,0x00,0x00,0x00,0x00,0x00,0x00,0x00,0x00,0x00,0x00,0x00,0x00,0x00,0x00,
 0x00,0x00,0x00,0x00,0x00,0x00,0x00,0x00,0x00,0x00,0x00,0x00,0x00,0x00,0x00,
 0x00,0x00,0x00,0x00,0x00,0x00,0x00,0x00,0x00,0x00,0x00,0x00,0x00,0x00,0x00,
 0x00,0x00,0x00,0x00,0x00,0x00,0x00,0x00,0x00,0x00,0x00,0x00,0x00,0x00,0x00,
 0x00,0x00,0x00,0x00,0x00,0x00,0x00,0x00,0x00,0x00,0x00,0x00,0x00,0x00,0x00,
 0x00,0x00,0x00,0x00,0x00,0x00,0x00,0x00,0x00,0x00,0x00,0x00,0x00,0x00,0x00,
 0x00,0x00,0x00,0x00,0x00,0x00,0x00,0x00,0x00,0x00,0x00,0x00,0x00,0x00,0x00,
 0x00,0x00,0x00,0x00,0x00,0x00,0x00,0x00,0x00,0x00,0x00,0x00,0x00,0x00,0x00,
 0x00,0x00,0x00,0x00,0x00,0x00,0x00,0x00,0x00,0x00,0x00,0x00,0x00,0x00,0x00,
 0x00,0x00,0x00,0x00,0x00,0x00,0x00,0x00,0x00,0x00,0x00,0x00,0x00,0x00,0x00,
 0x00,0x00,0x00,0x00,0x00,0x00,0x00,0x00,0x00,0x00,0x00,0x00,0x00,0x00,0x00,
 0x00,0x00,0x00,0x00,0x00,0x00,0x00,0x00,0x00,0x00,0x00,0x00,0x00,0x00,0x00,
 0x00,0x00,0x00,0x00,0x00,0x00,0x00,0x00,0x00,0x00,0x00,0x00,0x00,0x00,0x00,
 0x00,0x00,0x00,0x00,0x00,0x00,0x00,0x00,0x00,0x00,0x00,0x00,0x00,0x00,0x00,
 0x00,0x00,0x00,0x00,0x00,0x00,0x00,0x00,0x00,0x00,0x00,0x00,0x00,0x00,0x00,
 0x00,0x00,0x00,0x00,0x00,0x00,0x00,0x00,0x00,0x00,0x00,0x00,0x00,0x00,0x00,
 0x00,0x00,0x00,0x00,0x00,0x00,0x00,0x00,0x00,0x00,0x00,0x00,0x00,0x00,0x00,
 0x00,0x00,0x00,0x00,0x00,0x00,0x00,0x00,0x00,0x00,0x00,0x00,0x00,0x00,0x00,
 0x00,0x00,0x00,0x00,0x00,0x00,0x00,0x00,0x00,0x00,0x00,0x00,0x00,0x00,0x00,
 0x00,0x00,0x00,0x00,0x00,0x00,0x00,0x00,0x00,0x00,0x00,0x00,0x00,0x00,0x00,
 0x00,0x00,0x00,0x00,0x00,0x00,0x00,0x00,0x00,0x00,0x00,0x00,0x00,0x00,0x00,
 0x00,0x00,0x00,0x00,0x00,0x00,0x00,0x00,0x00,0x00,0x00,0x00,0x00,0x00,0x00,
 0x00,0x00,0x00,0x00,0x00,0x00,0x00,0x00,0x00,0x00,0x00,0x00,0x00,0x00,0x00,
 0x00,0x00,0x00,0x00,0x00,0x00,0x00,0x00,0x00,0x00,0x00,0x00,0x00,0x00,0x00,
 0x00,0x00,0x00,0x00,0x00,0x00,0x00,0x00,0x00,0x00,0x00,0x00,0x00,0x00,0x00,
 0x00,0x00,0x00,0x00,0x00,0x00,0x00,0x00,0x00,0x00,0x00,0x00,0x00,0x00,0x00,
 0x00,0x00,0x00,0x00,0x00,0x00,0x00,0x00,0x00,0x00,0x00,0x00,0x00,0x00,0x00,
 0x00,0x00,0x00,0x00,0x00,0x00,0x00,0x00 };
