#define _width 256
#define _height 64
static char _bits[] = {
 0x00,0x00,0x00,0x00,0x00,0x00,0x00,0x00,0x00,0x00,0x00,0x00,0x00,0x00,0xc0,
 0x1f,0x00,0x00,0x00,0x00,0x00,0x00,0x00,0x00,0x00,0x00,0x00,0x00,0x00,0x00,
 0x00,0x00,0x00,0x00,0x00,0x00,0x00,0x00,0x00,0x00,0x00,0x00,0x00,0x00,0x00,
 0x00,0x3c,0xe0,0x00,0xc0,0x01,0x00,0x00,0x00,0x00,0x00,0x00,0x00,0x00,0x00,
 0x00,0x00,0x00,0x00,0x00,0x00,0x00,0x00,0x00,0x00,0x00,0x00,0x00,0x00,0x00,
 0x00,0x00,0x00,0x0e,0xc0,0x01,0xe0,0x01,0x00,0x00,0x00,0x00,0x00,0x00,0x00,
 0x00,0x00,0x00,0x00,0x00,0x00,0x00,0x00,0x00,0x00,0x00,0x00,0x00,0x00,0x00,
 0x00,0x00,0x00,0x00,0xc0,0xc7,0xc3,0x01,0xb0,0x01,0x00,0x00,0x00,0x00,0x00,
 0x00,0x00,0x00,0x00,0x00,0x00,0x00,0x00,0x00,0x00,0x00,0x00,0x00,0x00,0x00,
 0x00,0x00,0x00,0x00,0x00,0x00,0xc0,0xc3,0xc3,0x01,0xb8,0x31,0x00,0x00,0x00,
 0x00,0x00,0x00,0x00,0x00,0x00,0x00,0x00,0x00,0x00,0x00,0x00,0x00,0x00,0x00,
 0x00,0x00,0x00,0x00,0x00,0x00,0x00,0x00,0xf0,0xc0,0xc0,0x01,0xcc,0x3c,0x00,
 0x00,0x00,0x00,0x00,0x00,0x00,0x00,0x00,0x00,0x00,0x00,0x00,0x00,0x00,0x00,
 0x00,0x00,0x00,0x00,0x00,0x00,0x00,0x00,0x00,0x00,0xf8,0x60,0xc0,0x01,0xcc,
 0x3c,0x00,0x00,0x00,0x00,0x00,0x00,0x00,0x00,0x00,0x00,0x00,0x00,0x00,0x00,
 0x00,0x00,0x00,0x00,0x00,0x00,0x00,0x00,0x00,0x00,0x00,0x00,0x3c,0x30,0xe0,
 0x01,0xce,0x36,0x00,0x00,0x00,0x00,0x00,0x00,0x00,0x00,0x00,0x00,0x00,0x00,
 0x00,0x00,0x00,0x00,0x00,0x00,0x00,0x00,0x00,0x00,0x00,0x00,0x00,0x00,0x3c,
 0x30,0xf0,0x00,0x67,0x33,0x00,0x00,0x00,0x00,0x00,0x00,0x00,0x00,0x00,0x00,
 0x00,0x00,0x00,0x00,0x00,0x00,0x00,0x00,0x00,0x00,0x00,0x00,0x00,0x00,0x00,
 0x00,0x1e,0x38,0x78,0x00,0x67,0x13,0x00,0x00,0x00,0x00,0x00,0x00,0x00,0x00,
 0x00,0x00,0x00,0x00,0x00,0x00,0x00,0x00,0x00,0x00,0x00,0x00,0x00,0x00,0x00,
 0x00,0x00,0x00,0x0f,0x9c,0x0f,0x9f,0xf3,0xd9,0x38,0x00,0x00,0x00,0x00,0x00,
 0x00,0x00,0x00,0x00,0x00,0x00,0x00,0x00,0x00,0x00,0x00,0x00,0x00,0x00,0x00,
 0x00,0x00,0x00,0x00,0x80,0x0f,0xdc,0xc3,0x9f,0xf3,0xcc,0x18,0x00,0x00,0x00,
 0x00,0x00,0x00,0x00,0x00,0x00,0x00,0x00,0x00,0x00,0x00,0x00,0x00,0x00,0x00,
 0x00,0x00,0x00,0x00,0x00,0x00,0x80,0x07,0xcc,0xc1,0x90,0xdb,0xec,0x18,0x00,
 0x00,0x00,0x00,0x00,0x00,0x00,0x00,0x00,0x00,0x00,0x00,0x00,0x00,0x00,0x00,
 0x00,0x00,0x00,0x00,0x00,0x00,0x00,0x00,0x80,0x03,0x8e,0x63,0xd8,0xcd,0x76,
 0x1c,0x00,0x00,0x00,0x00,0x00,0x00,0x00,0x00,0x00,0x00,0x00,0x00,0x00,0x00,
 0x00,0x00,0x00,0x00,0x00,0x00,0x00,0x00,0x00,0x00,0xc0,0x03,0x07,0x77,0xcc,
 0xef,0x33,0x0e,0x00,0x00,0x00,0x00,0x00,0x00,0x00,0x00,0x00,0x00,0x00,0x00,
 0x00,0x00,0x00,0x00,0x00,0x00,0x00,0x00,0x00,0x00,0x00,0x00,0xc0,0x03,0x07,
 0x37,0xce,0xe7,0x33,0x07,0x00,0x00,0x00,0x00,0x00,0x00,0x00,0x00,0x00,0x00,
 0x00,0x00,0x00,0x00,0x00,0x00,0x00,0x00,0x00,0x00,0x00,0x00,0x00,0x00,0xc0,
 0x01,0x03,0x1f,0xc6,0xe3,0x38,0x07,0x00,0x00,0x00,0x00,0x00,0x00,0x00,0x00,
 0x00,0x00,0x00,0x00,0x00,0x00,0x00,0x00,0x00,0x00,0x00,0x00,0x00,0x00,0x00,
 0x00,0xc0,0x01,0x03,0x1f,0xc7,0xf1,0x9c,0x07,0x00,0x00,0x00,0x00,0x00,0x00,
 0x00,0x00,0x00,0x00,0x00,0x00,0x00,0x00,0x00,0x00,0x00,0x00,0x00,0x00,0x00,
 0x00,0x00,0x00,0xc0,0xc1,0xcd,0x9b,0xf7,0xfb,0xff,0x03,0x00,0x00,0x00,0x00,
 0x00,0x00,0x00,0x00,0x00,0x00,0x00,0x00,0x00,0x00,0x00,0x00,0x00,0x00,0x00,
 0x00,0x00,0x00,0x00,0x00,0xc0,0xc1,0xfd,0xf9,0xff,0xff,0xfb,0x01,0x00,0x00,
 0x00,0x00,0x00,0x00,0x00,0x00,0x00,0x00,0x00,0x00,0x00,0x00,0x00,0x00,0x00,
 0x00,0x00,0x00,0x00,0x00,0x00,0x00,0x80,0xe3,0x30,0x20,0x8e,0x83,0xc0,0x00,
 0x00,0x00,0x00,0x00,0x00,0x00,0x00,0x00,0x00,0x00,0x00,0x00,0x00,0x00,0x00,
 0x00,0x00,0x00,0x00,0x00,0x00,0x00,0x00,0x00,0x80,0x7f,0x00,0x00,0x00,0x00,
 0xc0,0x00,0x00,0x00,0x00,0x00,0x00,0x00,0x00,0x00,0x00,0x00,0x00,0x00,0x00,
 0x00,0x00,0x00,0x00,0x00,0x00,0x00,0x00,0x00,0x00,0x00,0x00,0x0c,0x00,0x00,
 0x00,0x00,0xe0,0x00,0x00,0x00,0x00,0x00,0x00,0x00,0x00,0x00,0x00,0x00,0x00,
 0x00,0x00,0x00,0x00,0x00,0x00,0x00,0x00,0x00,0x00,0x00,0x00,0x00,0x00,0x00,
 0x00,0x00,0x00,0x00,0x60,0x00,0x00,0x00,0x00,0x00,0x00,0x00,0xfc,0x03,0x00,
 0x00,0x00,0x00,0x00,0x00,0x00,0x00,0x00,0x00,0x00,0x00,0x00,0x00,0x00,0x00,
 0x00,0x00,0x00,0x00,0x00,0x00,0x70,0x00,0x00,0x00,0x00,0x00,0x00,0x00,0xfc,
 0x03,0x00,0x00,0x00,0x00,0x00,0x00,0x00,0x00,0x00,0x00,0x00,0x00,0x00,0x00,
 0x00,0x00,0x00,0x00,0x00,0x00,0x00,0x00,0x30,0x00,0x00,0x00,0x00,0x00,0x00,
 0x00,0xfc,0x07,0x00,0x00,0x00,0x00,0x00,0x00,0x00,0x00,0x00,0x00,0x00,0x00,
 0x00,0x00,0x00,0x00,0x00,0x00,0x00,0x00,0x00,0x00,0x30,0x00,0x00,0x00,0x00,
 0x00,0x00,0x00,0xfc,0x07,0x00,0x00,0x00,0x00,0x00,0x00,0x00,0x00,0x00,0x00,
 0x00,0x00,0x00,0xf0,0x07,0x00,0x00,0x00,0x00,0x00,0x00,0x00,0x00,0x00,0x00,
 0x00,0x00,0x00,0x00,0x00,0xfc,0x07,0x00,0x00,0x00,0x00,0x00,0x00,0x00,0x00,
 0x00,0x00,0x00,0x00,0x00,0xf0,0x07,0x00,0x00,0x00,0x00,0x00,0x00,0x00,0x00,
 0x00,0x00,0x00,0x00,0x00,0x00,0x00,0xfc,0x07,0x00,0x00,0x00,0x00,0x00,0x00,
 0x00,0x00,0x00,0x00,0x00,0x00,0x00,0xf8,0x0f,0x00,0x00,0x00,0x00,0x00,0x00,
 0x00,0x00,0x00,0x00,0x00,0x00,0x00,0x00,0x00,0xfc,0x07,0x00,0x00,0x00,0x00,
 0x00,0x00,0x00,0x00,0x00,0x00,0xc0,0x07,0x00,0xf8,0x0f,0x00,0x80,0x01,0x00,
 0x00,0x00,0x00,0x00,0xe0,0x07,0x80,0x3f,0x00,0x00,0xfc,0xfd,0x07,0xc0,0x3f,
 0x00,0x00,0x00,0x00,0x00,0xf8,0x03,0x00,0xfc,0x7f,0x00,0xf8,0x0f,0x00,0xf0,
 0x0f,0x00,0xe0,0xff,0x00,0x00,0xf8,0x0f,0xf0,0xff,0x00,0x00,0xff,0xfd,0x07,
 0xf0,0x3f,0x00,0x00,0x00,0x00,0x00,0xff,0x0f,0x00,0xfe,0xff,0x00,0xf8,0x0f,
 0x00,0xf8,0x3f,0x00,0xf0,0xff,0x01,0x00,0xfe,0x0f,0xf8,0xff,0x03,0x80,0xff,
 0xfd,0x07,0xf8,0x3f,0x00,0x00,0x00,0x00,0x80,0xff,0x3f,0x00,0xff,0xff,0x01,
 0xfc,0x1f,0x00,0xfe,0x7f,0x00,0xf8,0xff,0x03,0x80,0xff,0x0f,0xfe,0xff,0x07,
 0xe0,0xff,0xfd,0x07,0xfe,0x3f,0x00,0x00,0x00,0x00,0xe0,0xff,0x7f,0x80,0xff,
 0xff,0x03,0xfe,0x3f,0x00,0xfe,0xff,0x00,0xfe,0xff,0x0f,0x80,0xff,0x0f,0xfe,
 0xff,0x07,0xe0,0xff,0xfd,0x07,0xfe,0x3f,0x00,0x00,0x00,0x00,0xe0,0xff,0x7f,
 0xc0,0xff,0xff,0x07,0xff,0x7f,0x80,0xff,0xff,0x01,0xff,0xff,0x1f,0xc0,0xff,
 0x8f,0xff,0xff,0x1f,0xf8,0xff,0xfd,0x87,0xff,0x3f,0x00,0x00,0x00,0x00,0xf8,
 0xff,0xff,0xc1,0xff,0xff,0x87,0xff,0xff,0x81,0xff,0xff,0x03,0xff,0xff,0x1f,
 0xc0,0xff,0x8f,0xff,0xff,0x1f,0xf8,0xff,0xfd,0x87,0xff,0x3f,0x00,0x00,0x00,
 0x00,0xf8,0xff,0xff,0xf1,0xff,0xff,0xdf,0xff,0xff,0xe1,0xff,0xff,0xc3,0xff,
 0xff,0x7f,0xf0,0xff,0x8f,0xff,0xff,0x7f,0xfe,0xff,0xfd,0xe7,0xff,0x3f,0x00,
 0x00,0x00,0x00,0xf8,0xff,0xff,0xf7,0xff,0xff,0xdf,0xff,0xff,0xe1,0xff,0xff,
 0xc7,0xff,0xff,0x7f,0xf0,0xff,0xcf,0xff,0xff,0x7f,0xfe,0xff,0xfd,0xe7,0xff,
 0x3f,0x00,0x00,0x00,0x00,0xfc,0xff,0xff,0xf7,0x3f,0xf8,0x1f,0xf8,0x0f,0xe0,
 0x1f,0xf8,0xe7,0xff,0xf1,0xff,0xfc,0x7f,0xf0,0xff,0xf1,0x7f,0xff,0x1f,0xfc,
 0xf7,0xff,0x01,0x00,0x00,0x00,0x00,0xff,0x1f,0xff,0xf7,0x3f,0xf8,0x1f,0xf8,
 0x0f,0xe0,0x1f,0xf8,0xf7,0xff,0xe0,0xff,0xfd,0x7f,0xf0,0xff,0xf1,0x7f,0xff,
 0x1f,0xfc,0xf7,0xff,0x00,0x00,0x00,0x00,0x00,0xff,0x1f,0xff,0xf7,0x1f,0xe0,
 0x1f,0xf8,0x0f,0xe0,0x1f,0xf8,0xf7,0x7f,0xc0,0xff,0xfd,0x1f,0xf0,0x7f,0xc0,
 0x7f,0xff,0x07,0xfc,0xf7,0x7f,0x00,0x00,0x00,0x00,0x00,0xff,0x07,0xfc,0xf7,
 0x1f,0xe0,0x1f,0xf8,0x0f,0xe0,0x1f,0xf8,0xf7,0x3f,0x80,0xff,0xfd,0x1f,0xf0,
 0x7f,0xc0,0x7f,0xff,0x07,0xfc,0xf7,0xff,0x3f,0x00,0x00,0x00,0x00,0xff,0x07,
 0xfc,0xf7,0x3f,0x00,0x00,0xf8,0x0f,0xe0,0x1f,0xf8,0xf7,0x1f,0x00,0xff,0xfd,
 0x07,0xf0,0x1f,0xc0,0x7f,0xff,0x01,0xfc,0xf7,0xff,0x3f,0x00,0x00,0x00,0x00,
 0xff,0x01,0xfc,0xf7,0xff,0xff,0x01,0xf8,0x0f,0xe0,0x1f,0xfc,0xf3,0x1f,0x00,
 0xff,0xfd,0x07,0xf0,0x1f,0xc0,0x7f,0xff,0x01,0xfc,0xf7,0xff,0x3f,0x00,0x00,
 0x00,0x00,0xff,0x01,0xfc,0xf7,0xff,0xff,0x01,0xf8,0x0f,0xe0,0x1f,0xff,0xf3,
 0x1f,0x00,0xff,0xfd,0x07,0xf0,0x1f,0xc0,0x7f,0xff,0x01,0xfc,0xf7,0xff,0x3f,
 0x00,0x00,0x00,0x00,0xff,0x01,0xfc,0xc7,0xff,0xff,0x07,0xf8,0x0f,0xe0,0x9f,
 0xff,0xf3,0x1f,0x00,0xff,0xfd,0x07,0xf0,0x1f,0xc0,0x7f,0xff,0x01,0xfc,0xf7,
 0xff,0x3f,0x00,0x00,0x00,0x00,0xff,0x01,0xfc,0xc7,0xff,0xff,0x07,0xf8,0x0f,
 0xe0,0x9f,0xff,0xf1,0x1f,0x00,0xff,0xfd,0x07,0xf0,0x1f,0xc0,0x7f,0xff,0x01,
 0xfc,0xf7,0xff,0x3f,0x00,0x00,0x00,0x00,0xff,0x01,0xfc,0x87,0xff,0xff,0x1f,
 0xf8,0x0f,0xe0,0x9f,0xff,0xf0,0x1f,0x00,0xff,0xfd,0x07,0xf0,0x1f,0xc0,0x7f,
 0xff,0x01,0xfc,0xf7,0xff,0x3f,0x00,0x00,0x00,0x00,0xff,0x01,0xfc,0x07,0xff,
 0xff,0x1f,0xf8,0x0f,0xe0,0x9f,0x7f,0xf0,0x1f,0x00,0xff,0xfd,0x07,0xf0,0x1f,
 0xc0,0x7f,0xff,0x01,0xfc,0xf7,0xff,0x3f,0x00,0x00,0x00,0x00,0xff,0x01,0xfc,
 0x07,0x00,0xf8,0x1f,0xf8,0x0f,0xe0,0x9f,0x7f,0xf0,0x1f,0x00,0xff,0xfd,0x07,
 0xf0,0x1f,0xc0,0x7f,0xff,0x01,0xfc,0xf7,0xff,0x3f,0x00,0x00,0x00,0x00,0xff,
 0x01,0xfc,0xf7,0x0f,0xe0,0x1f,0xf8,0x0f,0xe0,0x9f,0x7f,0xf0,0x3f,0x80,0xff,
 0xfd,0x1f,0xf0,0x7f,0xc0,0x7f,0xff,0x07,0xfc,0xf7,0x1f,0x00,0x00,0x00,0x00,
 0x00,0xff,0x07,0xfc,0xf7,0x1f,0xe0,0x1f,0xf0,0x3f,0xe0,0x9f,0xff,0xf0,0x7f,
 0xc0,0xff,0xfd,0x1f,0xf0,0x7f,0xc0,0x7f,0xff,0x07,0xfc,0xf7,0x7f,0x00,0x00,
 0x00,0x00,0x00,0xff,0x07,0xfc,0xf7,0x3f,0xf8,0x1f,0xf0,0x3f,0xe0,0x9f,0xff,
 0xf0,0xff,0xe0,0xff,0xfd,0x7f,0xf0,0xff,0xc1,0x7f,0xff,0x1f,0xfe,0xf7,0xff,
 0x01,0x00,0x00,0x00,0x00,0xff,0x1f,0xfc,0xf7,0xff,0xff,0x1f,0xe0,0xff,0xe0,
 0x1f,0xff,0xc1,0xff,0xf1,0x7f,0xf0,0xff,0xc7,0xff,0xdf,0x7f,0xfe,0xff,0xff,
 0xc7,0xff,0x3f,0x00,0x00,0x00,0x00,0xfc,0xff,0xfd,0xf7,0xff,0xff,0x1f,0xe0,
 0xff,0xe7,0x1f,0xff,0xc1,0xff,0xff,0x7f,0xf0,0xff,0xcf,0xff,0xdf,0x7f,0xfc,
 0xff,0xff,0xc7,0xff,0x3f,0x00,0x00,0x00,0x00,0xfc,0xff,0xfd,0xc7,0xff,0xff,
 0x07,0xc0,0xff,0xef,0x1f,0xfe,0x03,0xff,0xff,0x1f,0xc0,0xff,0x8f,0xff,0xdf,
 0x7f,0xf8,0xff,0xff,0x83,0xff,0x3f,0x00,0x00,0x00,0x00,0xf8,0xff,0xfd,0xc7,
 0xff,0xff,0x07,0xc0,0xff,0xef,0x1f,0xfc,0x03,0xff,0xff,0x1f,0xc0,0xff,0x8f,
 0xff,0xdf,0x7f,0xf8,0xff,0xff,0x83,0xff,0x3f,0x00,0x00,0x00,0x00,0xf8,0xff,
 0xfd,0xc7,0xff,0xff,0x07,0x80,0xff,0xef,0x1f,0xfc,0x03,0xff,0xff,0x1f,0xc0,
 0xff,0x8f,0xff,0xdf,0x7f,0xf8,0xff,0xff,0x81,0xff,0x3f,0x00,0x00,0x00,0x00,
 0xf8,0xff,0xfd,0x07,0xff,0xff,0x03,0x00,0xff,0xef,0x1f,0xfc,0x07,0xfe,0xff,
 0x0f,0x80,0xff,0x0f,0xfe,0xdf,0x7f,0xe0,0xff,0xff,0x00,0xfe,0x3f,0x00,0x00,
 0x00,0x00,0xe0,0xff,0xfd,0x07,0xff,0xff,0x01,0x00,0xfe,0xef,0x1f,0xf8,0x07,
 0xf8,0xff,0x03,0x00,0xff,0x0f,0xfe,0xdf,0x7f,0xe0,0xff,0xff,0x00,0xfe,0x3f,
 0x00,0x00,0x00,0x00,0xe0,0xff,0xfd,0x07,0xfc,0x7f,0x00,0x00,0xfc,0xef,0x1f,
 0xf0,0x0f,0xf0,0xff,0x01,0x00,0xfe,0x0f,0xf8,0xdf,0x7f,0x80,0xff,0x3f,0x00,
 0xf8,0x3f,0x00,0x00,0x00,0x00,0x80,0xff,0xfd,0x07,0xf8,0x7f,0x00,0x00,0xf8,
 0xef,0x1f,0xf0,0x0f,0xe0,0xff,0x00,0x00,0xf8,0x0f,0xf0,0xdf,0x7f,0x00,0xff,
 0x0f,0x00,0xf0,0x3f,0x00,0x00,0x00,0x00,0x00,0xff,0xfd,0x07,0xc0,0x07,0x00,
 0x00,0xc0,0xe7,0x0f,0xe0,0x07,0x00,0x1f,0x00,0x00,0xe0,0x07,0x80,0xdf,0x7f,
 0x00,0xf8,0x03,0x00,0x80,0x3f,0x00,0x00 };
