#define _width 256
#define _height 64
static char _bits[] = {
 0x00,0x00,0x00,0x00,0x00,0x00,0x00,0x00,0x00,0x00,0x00,0x00,
 0x00,0x00,0x00,0x00,0x00,0x00,0x00,0x00,0x00,0x00,0x00,0x00,
 0x00,0x00,0x00,0x00,0x00,0x00,0x00,0x00,0x00,0x00,0x00,0x00,
 0x00,0x00,0x00,0x00,0x00,0x00,0x00,0x00,0x00,0x00,0x00,0x00,
 0x00,0x00,0x00,0x00,0x00,0x00,0x00,0x00,0x00,0x00,0x00,0x00,
 0x00,0x00,0x00,0x00,0x00,0x00,0x00,0x00,0x00,0x00,0x00,0x00,
 0x00,0x00,0x00,0x00,0x00,0x00,0x00,0x00,0x00,0x00,0x00,0x00,
 0x00,0x00,0x00,0x00,0x00,0x00,0x00,0x00,0x00,0x00,0x00,0x00,
 0x00,0x00,0x00,0x00,0x00,0x00,0x00,0x00,0x00,0x00,0x00,0x00,
 0x00,0x00,0x00,0x00,0x00,0x00,0x00,0x00,0x00,0x00,0x00,0x00,
 0x00,0x00,0x00,0x00,0x00,0x00,0x00,0x00,0x00,0x00,0x00,0x00,
 0x00,0x00,0x00,0x00,0x00,0x00,0x00,0x00,0x00,0x00,0x00,0x00,
 0x00,0x00,0x00,0x00,0x00,0x00,0x00,0x00,0x00,0x00,0x00,0x00,
 0x00,0x00,0x00,0x00,0x00,0x00,0x00,0x00,0x00,0x00,0x00,0x00,
 0x00,0x00,0x00,0x00,0x00,0x00,0x00,0x00,0x00,0x00,0x00,0x00,
 0x00,0x00,0x00,0x00,0x00,0x00,0x00,0x00,0x00,0x00,0x00,0x00,
 0x00,0x00,0x00,0x00,0x00,0x00,0x00,0x00,0x00,0x00,0x00,0x00,
 0x00,0x00,0x00,0x00,0x00,0x00,0x00,0x00,0x00,0x00,0x00,0x00,
 0x00,0x00,0x00,0x00,0x00,0x00,0x00,0x00,0x00,0xf0,0x1f,0x00,
 0x00,0x00,0x00,0x00,0x00,0x00,0x00,0x00,0x00,0x00,0x00,0x00,
 0x00,0x00,0x00,0x00,0x00,0x00,0x00,0x00,0x00,0x00,0x00,0x00,
 0x00,0x00,0x00,0x00,0x00,0x50,0x15,0x00,0x00,0x00,0x00,0x00,
 0x00,0x00,0x00,0x00,0x00,0x00,0x00,0x00,0x00,0x00,0x00,0x00,
 0x00,0x00,0x00,0x00,0x00,0x00,0x00,0x00,0x00,0x00,0x00,0x00,
 0x00,0xb0,0x1a,0x00,0x00,0x00,0x00,0x00,0x00,0x00,0x00,0x00,
 0x00,0x00,0x00,0x00,0x00,0x00,0x00,0x00,0x00,0x00,0x00,0x00,
 0x00,0x00,0x00,0x00,0x00,0x00,0x00,0x00,0x00,0x50,0x15,0x00,
 0x00,0x00,0x00,0x00,0x00,0x00,0x00,0x00,0x00,0x00,0x00,0x00,
 0x00,0x00,0x00,0x00,0x00,0x00,0x00,0x00,0x00,0x00,0x00,0x00,
 0x00,0x00,0x00,0x00,0x00,0xb0,0x1a,0x00,0x00,0x00,0x00,0x00,
 0x00,0x00,0x00,0x00,0x00,0x00,0x00,0x00,0x00,0x00,0x00,0x00,
 0x00,0x00,0x00,0x00,0x00,0x00,0x00,0x00,0x00,0x00,0x00,0x00,
 0x00,0x50,0x15,0x00,0x00,0x00,0x00,0x00,0x00,0x00,0x00,0x00,
 0x00,0x00,0x00,0x00,0x00,0x00,0x00,0x00,0x00,0x00,0x00,0x00,
 0x00,0x00,0x00,0x00,0x00,0x00,0x00,0x00,0x00,0xb0,0x1a,0x00,
 0x00,0x00,0x00,0x00,0x00,0x00,0x00,0x00,0x00,0x00,0x00,0x00,
 0x00,0x00,0x00,0x00,0x00,0x00,0x00,0x00,0x00,0x00,0x00,0x00,
 0x00,0x00,0x00,0x00,0x00,0x50,0x15,0x00,0x00,0x00,0x00,0x00,
 0x00,0x00,0x00,0x00,0x00,0x00,0x00,0x00,0x00,0x00,0x00,0x00,
 0x00,0x00,0x00,0x00,0x00,0x00,0x00,0x00,0x00,0x00,0x00,0x00,
 0x00,0xf0,0x1f,0x00,0x00,0x00,0x00,0x00,0x00,0x00,0x00,0x00,
 0x00,0x00,0x00,0x00,0x00,0x00,0x00,0x00,0x00,0x00,0x00,0x00,
 0x00,0x00,0x00,0x00,0x00,0x00,0x00,0x00,0x00,0x00,0x00,0x00,
 0x00,0x00,0x00,0x00,0x00,0x00,0x00,0x00,0x00,0x00,0x00,0x00,
 0x00,0x00,0x00,0x00,0x00,0x00,0x00,0x00,0x00,0x00,0x00,0xe0,
 0x1f,0x00,0x00,0x00,0x00,0x00,0x00,0x00,0x00,0x00,0x00,0x00,
 0x00,0xf0,0xff,0xff,0x3f,0xfc,0xff,0xff,0x83,0xff,0xff,0xff,
 0x01,0xf0,0xff,0xff,0xe0,0xff,0x00,0xf8,0xff,0x03,0x00,0x00,
 0x00,0xf0,0x1f,0x00,0x00,0x00,0x00,0x00,0x00,0xf0,0xff,0xff,
 0x3f,0xe0,0xff,0xff,0x83,0xff,0xff,0xff,0x01,0xf8,0x01,0x1e,
 0x00,0x0f,0x00,0x1e,0xe0,0x07,0x00,0x00,0x00,0x50,0x15,0x00,
 0x00,0x00,0x00,0x00,0x00,0x30,0x80,0x07,0x30,0xc0,0x01,0x00,
 0x83,0x01,0x3c,0x80,0x01,0x3c,0x00,0x0e,0x00,0x0e,0x00,0x0f,
 0x80,0x07,0x00,0x00,0x00,0xb0,0x1a,0x00,0x00,0x00,0x00,0x00,
 0x00,0x30,0x80,0x07,0x30,0xc0,0x01,0x00,0x83,0x01,0x3c,0x80,
 0x01,0x1e,0x00,0x0e,0x00,0x0e,0x00,0x07,0x00,0x07,0x00,0x00,
 0x00,0x50,0x15,0x00,0x00,0x00,0x00,0x00,0x00,0x30,0x80,0x07,
 0x30,0xc0,0x01,0x00,0x83,0x01,0x3c,0x80,0x01,0x1e,0x00,0x0e,
 0x00,0x0e,0x80,0x07,0x00,0x07,0x00,0x00,0x00,0xb0,0x1a,0x00,
 0x00,0x00,0x00,0x00,0x00,0x30,0x80,0x07,0x30,0xc0,0x01,0x00,
 0x83,0x01,0x3c,0x80,0x01,0x0f,0x00,0x0e,0x00,0x0e,0x80,0x03,
 0x00,0x06,0x00,0x00,0x00,0x50,0x15,0x00,0x00,0x00,0x00,0x00,
 0x00,0x00,0x80,0x07,0x00,0xc0,0x01,0x00,0x00,0x00,0x3c,0x00,
 0x00,0x0f,0x00,0x0e,0x00,0x0e,0x80,0x03,0x00,0x06,0x00,0x00,
 0x00,0xb0,0x1a,0x00,0x00,0x00,0x00,0x00,0x00,0x00,0x80,0x07,
 0x00,0xc0,0x01,0x00,0x00,0x00,0x3c,0x00,0x00,0x0f,0x00,0x0e,
 0x00,0x0e,0x80,0x03,0x00,0x00,0x00,0x00,0x00,0x50,0x15,0x00,
 0x00,0x00,0x00,0x00,0x00,0x00,0x80,0x07,0x00,0xc0,0x01,0x00,
 0x00,0x00,0x3c,0x00,0x00,0x0f,0x00,0x0e,0x00,0x0e,0x80,0x07,
 0x00,0x00,0x00,0x00,0x00,0xf0,0x1f,0x00,0x00,0x00,0x00,0x00,
 0x00,0x00,0x80,0x07,0x00,0xc0,0x01,0x30,0x00,0x00,0x3c,0x00,
 0x00,0x0f,0x00,0x0e,0x00,0x0e,0x80,0x07,0x00,0x00,0x00,0x00,
 0x00,0x00,0x00,0x00,0x00,0x00,0x00,0x00,0x00,0x00,0x80,0x07,
 0x00,0xc0,0x01,0x30,0x00,0x00,0x3c,0x00,0x00,0x1e,0x00,0x0e,
 0x00,0x0e,0x80,0x1f,0x00,0x00,0x00,0x00,0x00,0x00,0x00,0x00,
 0x00,0x00,0xc0,0xff,0x00,0x00,0x80,0x07,0x00,0xc0,0x01,0x30,
 0x00,0x00,0x3c,0x00,0x00,0x1e,0x00,0x0e,0x00,0x0e,0x00,0x7f,
 0x00,0x00,0x00,0x00,0x00,0xf0,0xdf,0x7f,0x00,0x00,0x40,0x80,
 0x00,0x00,0x80,0x07,0x00,0xc0,0xff,0x3f,0x00,0x00,0x3c,0x00,
 0x00,0x3c,0x00,0x0e,0x00,0x0e,0x00,0xfe,0x03,0x00,0x00,0x00,
 0x00,0xb0,0x54,0x41,0x00,0x00,0x40,0x80,0x00,0x00,0x80,0x07,
 0x00,0xc0,0xff,0x3f,0x00,0x00,0x3c,0x00,0x00,0xf8,0x00,0x0e,
 0x00,0x0e,0x00,0xfc,0x1f,0x00,0x00,0x00,0x00,0x50,0x5b,0x5d,
 0x00,0x00,0x40,0x80,0x00,0x00,0x80,0x07,0x00,0xc0,0x03,0x38,
 0x00,0x00,0x3c,0x00,0x00,0xc0,0xff,0x0f,0x00,0x0e,0x00,0xf0,
 0xff,0x00,0x00,0x00,0x00,0x50,0xd2,0x52,0x00,0x00,0x40,0x80,
 0x00,0x00,0x80,0x07,0x00,0xc0,0x01,0x30,0x00,0x00,0x3c,0x00,
 0x00,0xc0,0x0f,0x0f,0x00,0x0e,0x00,0xc0,0xff,0x01,0x00,0x00,
 0x00,0xb0,0x55,0x2d,0x00,0x00,0x40,0x80,0x00,0x00,0x80,0x07,
 0x00,0xc0,0x01,0x30,0x00,0x00,0x3c,0x00,0x00,0xf0,0x01,0x0e,
 0x00,0x0e,0x00,0x00,0xfc,0x07,0x00,0x00,0x00,0x30,0xd5,0x2a,
 0x00,0x00,0x40,0x80,0x00,0x00,0x80,0x07,0x00,0xc0,0x01,0x30,
 0x00,0x00,0x3c,0x00,0x00,0xf0,0x00,0x0e,0x00,0x0e,0x00,0x00,
 0xe0,0x07,0x00,0x00,0x00,0xd0,0xca,0x2a,0x00,0x00,0x40,0x80,
 0x00,0x00,0x80,0x07,0x00,0xc0,0x01,0x00,0x00,0x00,0x3c,0x00,
 0x00,0x78,0x00,0x0e,0x00,0x0e,0x00,0x00,0x80,0x0f,0x00,0x00,
 0x00,0xf0,0xdf,0x7f,0x00,0x00,0x40,0xd5,0x00,0x00,0x80,0x07,
 0x00,0xc0,0x01,0x00,0x00,0x00,0x3c,0x00,0x00,0x3c,0x00,0x0e,
 0x00,0x0e,0x00,0x00,0x00,0x0f,0x00,0x00,0x00,0x90,0xc4,0x2a,
 0x00,0x00,0xc0,0xff,0x00,0x00,0x80,0x07,0x00,0xc0,0x01,0x00,
 0x00,0x00,0x3c,0x00,0x00,0x3c,0x00,0x0e,0x00,0x0e,0x00,0x00,
 0x00,0x0f,0x00,0x00,0x00,0x00,0x00,0x00,0x00,0x00,0x00,0x00,
 0x00,0x00,0x80,0x07,0x00,0xc0,0x01,0x00,0x00,0x00,0x3c,0x00,
 0x00,0x1e,0x00,0x0e,0x00,0x0e,0x00,0x00,0x00,0x0e,0x00,0x00,
 0x00,0xf0,0xdf,0xff,0xfe,0xfb,0xdf,0xff,0x00,0x00,0x80,0x07,
 0x00,0xc0,0x01,0x00,0x00,0x00,0x3c,0x00,0x00,0x1e,0x00,0x0e,
 0x00,0x0e,0x80,0x01,0x00,0x0e,0x00,0x00,0x00,0x50,0xd5,0xaa,
 0xaa,0xaa,0x52,0x80,0x00,0x00,0x80,0x07,0x00,0xc0,0x01,0x00,
 0x03,0x00,0x3c,0x00,0x00,0x1e,0x00,0x0e,0x00,0x0e,0x80,0x01,
 0x00,0x0e,0x00,0x00,0x00,0x50,0x55,0xd5,0xaa,0xaa,0x5a,0x80,
 0x00,0x00,0x80,0x07,0x00,0xc0,0x01,0x00,0x03,0x00,0x3c,0x00,
 0x00,0x0f,0x00,0x0e,0x00,0x0e,0x80,0x03,0x00,0x0e,0x00,0x00,
 0x00,0x50,0xd5,0xaa,0x54,0xa9,0x52,0x80,0x00,0x00,0x80,0x07,
 0x00,0xc0,0x01,0x00,0x03,0x00,0x3c,0x00,0x00,0x0f,0x00,0x0e,
 0x00,0x0e,0x80,0x03,0x00,0x0f,0x00,0x00,0x00,0xb0,0xca,0xaa,
 0xaa,0x5a,0x55,0x80,0x00,0x00,0x80,0x07,0x00,0xc0,0x01,0x00,
 0x03,0x00,0x3c,0x00,0x80,0x07,0x00,0x0e,0x00,0x0e,0x80,0x07,
 0x00,0x07,0x00,0x00,0x00,0xb0,0xca,0xaa,0xaa,0x5a,0x55,0x80,
 0x00,0x00,0x80,0x07,0x00,0xe0,0x01,0x00,0x03,0x00,0x3c,0x00,
 0x80,0x07,0x00,0x1e,0x00,0x0f,0x80,0x0f,0xc0,0x03,0x00,0x00,
 0x00,0xb0,0x5a,0xd5,0xaa,0xaa,0x5a,0x80,0x00,0x00,0xf8,0x7f,
 0x00,0xfc,0xff,0xff,0x03,0xc0,0xff,0x03,0xf8,0x03,0xe0,0xff,
 0xe0,0xff,0x00,0x7f,0xf8,0x01,0x00,0x00,0x00,0x50,0xd5,0xaa,
 0xaa,0xaa,0x52,0x80,0x00,0x00,0xf8,0x7f,0x00,0xfc,0xff,0xff,
 0x03,0xc0,0xff,0x03,0xf8,0x03,0xe0,0xff,0xe0,0xff,0x00,0xf8,
 0x7f,0x00,0x00,0x00,0x00,0xf0,0xdf,0xff,0xfe,0xfb,0xdf,0xff,
 0x00,0x00,0x00,0x00,0x00,0x00,0x00,0x00,0x00,0x00,0x00,0x00,
 0x00,0x00,0x00,0x00,0x00,0x00,0x00,0x00,0x00,0x00,0x00,0x00,
 0x00,0x00,0x00,0x00,0x00,0x00,0x00,0x00,0x00,0x00,0x00,0x00,
 0x00,0x00,0x00,0x00,0x00,0x00,0x00,0x00,0x00,0x00,0x00,0x00,
 0x00,0x00,0x00,0x00,0x00,0x00,0x00,0x00,0x00,0x00,0x00,0x00,
 0x00,0x00,0x00,0x00,0x00,0x00,0x00,0x00,0x00,0x00,0x00,0x00,
 0x00,0x00,0x00,0x00,0x00,0x00,0x00,0x00,0x00,0x00,0x00,0x00,
 0x00,0x00,0x00,0x00,0x00,0xf0,0xdf,0xff,0xfe,0xfb,0xdf,0xff,
 0x00,0x00,0x00,0x00,0x00,0x00,0x00,0x00,0x00,0x00,0x00,0x00,
 0x00,0x00,0x00,0x00,0x00,0x00,0x00,0x00,0x00,0x00,0x00,0x00,
 0x00,0x50,0x49,0xa8,0x2a,0x99,0x54,0x50,0x00,0x00,0x00,0x00,
 0x00,0x00,0x00,0x00,0x00,0x00,0x00,0x00,0x00,0x00,0x00,0x00,
 0x00,0x00,0x00,0x00,0x00,0x00,0x00,0x00,0x00,0x50,0xd5,0xab,
 0x54,0xa9,0xca,0xd7,0x00,0x00,0x00,0x00,0x00,0x00,0x00,0x00,
 0x00,0x00,0x00,0x00,0x00,0x00,0x00,0x00,0x00,0x00,0x00,0x00,
 0x00,0x00,0x00,0x00,0x00,0xa0,0x5a,0xaa,0x54,0x59,0x55,0xaa,
 0x00,0x00,0x00,0x00,0x00,0x00,0x00,0x00,0x00,0x00,0x00,0x00,
 0x00,0x00,0x00,0x00,0x00,0x00,0x00,0x00,0x00,0x00,0x00,0x00,
 0x00,0xa0,0x92,0xaa,0x54,0x59,0x55,0xd5,0x00,0x00,0x00,0x00,
 0x00,0x00,0x00,0x00,0x00,0x00,0x00,0x00,0x00,0x00,0x00,0x00,
 0x00,0x00,0x00,0x00,0x00,0x00,0x00,0x00,0x00,0x50,0x8d,0xaa,
 0x54,0xa9,0x5a,0x55,0x00,0x00,0x00,0x00,0x00,0x00,0x00,0x00,
 0x00,0x00,0x00,0x00,0x00,0x00,0x00,0x00,0x00,0x00,0x00,0x00,
 0x00,0x00,0x00,0x00,0x00,0x50,0x95,0xaa,0x54,0xa9,0x52,0xd5,
 0x00,0x00,0x00,0x00,0x00,0x00,0x00,0x00,0x00,0x00,0x00,0x00,
 0x00,0x00,0x00,0x00,0x00,0x00,0x00,0x00,0x00,0x00,0x00,0x00,
 0x00,0xb0,0xdb,0xff,0x6a,0x5b,0xdf,0x7f,0x00,0x00,0x00,0x00,
 0x00,0x00,0x00,0x00,0x00,0x00,0x00,0x00,0x00,0x00,0x00,0x00,
 0x00,0x00,0x00,0x00,0x00,0x00,0x00,0x00,0x00,0xf0,0xdf,0xff,
 0xfe,0xfb,0xdf,0xff,0x00,0x00,0x00,0x00,0x00,0x00,0x00,0x00,
 0x00,0x00,0x00,0x00,0x00,0x00,0x00,0x00,0x00,0x00,0x00,0x00,
 0x00,0x00,0x00,0x00,0x00,0x00,0x00,0x00,0x00,0x00,0x00,0x00,
 0x00,0x00,0x00,0x00,0x00,0x00,0x00,0x00,0x00,0x00,0x00,0x00,
 0x00,0x00,0x00,0x00,0x00,0x00,0x00,0x00,0x00,0x00,0x00,0x00,
 0x00,0x00,0x00,0x00,0x00,0x00,0x00,0x00,0x00,0x00,0x00,0x00,
 0x00,0x00,0x00,0x00,0x00,0x00,0x00,0x00,0x00,0x00,0x00,0x00,
 0x00,0x00,0x00,0x00,0x00,0x00,0x00,0x00,0x00,0x00,0x00,0x00,
 0x00,0x00,0x00,0x00,0x00,0x00,0x00,0x00,0x00,0x00,0x00,0x00,
 0x00,0x00,0x00,0x00,0x00,0x00,0x00,0x00,0x00,0x00,0x00,0x00,
 0x00,0x00,0x00,0x00,0x00,0x00,0x00,0x00,0x00,0x00,0x00,0x00,
 0x00,0x00,0x00,0x00,0x00,0x00,0x00,0x00,0x00,0x00,0x00,0x00,
 0x00,0x00,0x00,0x00,0x00,0x00,0x00,0x00,0x00,0x00,0x00,0x00,
 0x00,0x00,0x00,0x00,0x00,0x00,0x00,0x00,0x00,0x00,0x00,0x00,
 0x00,0x00,0x00,0x00,0x00,0x00,0x00,0x00,0x00,0x00,0x00,0x00,
 0x00,0x00,0x00,0x00,0x00,0x00,0x00,0x00 };
