#define _width 256
#define _height 64
static char _bits[] = {
 0x00,0x00,0x00,0x00,0x00,0x00,0x00,0x00,0x00,0x00,0x00,0x00,0x00,0xf8,0xff,
 0x00,0x00,0x00,0x00,0x00,0x00,0x00,0x00,0x00,0x00,0x00,0x00,0x00,0x00,0x00,
 0x00,0x00,0x00,0x00,0x00,0x00,0x00,0x00,0x00,0x00,0x00,0x00,0x00,0x00,0x00,
 0x3e,0xc0,0x01,0x00,0x00,0x00,0x00,0x00,0x00,0x00,0x00,0x00,0x00,0x00,0x00,
 0x00,0x00,0x00,0x00,0x00,0x00,0x00,0x00,0x00,0x00,0x00,0x00,0x00,0x00,0x00,
 0x00,0xfe,0x8f,0x9f,0x03,0x00,0x00,0x00,0x00,0x00,0x00,0x00,0x00,0x00,0x00,
 0x00,0x00,0x00,0x00,0x00,0x00,0x00,0x00,0x00,0x00,0x00,0x00,0x00,0x00,0x00,
 0x00,0x00,0xc0,0xff,0xf3,0x3f,0x03,0x00,0x00,0x00,0x00,0x00,0x00,0x00,0x00,
 0x00,0x00,0x00,0x00,0x00,0x00,0x00,0x00,0x00,0x00,0x00,0x00,0x00,0x00,0x00,
 0x00,0x00,0x00,0x00,0xf0,0x03,0xfc,0x7f,0x07,0x00,0x00,0x00,0x00,0x00,0x00,
 0x00,0x00,0x00,0x00,0x00,0x00,0x00,0x00,0x00,0x00,0x00,0x00,0x00,0x00,0x00,
 0x00,0x00,0x00,0x00,0x00,0x00,0x78,0xf8,0xff,0xff,0x0e,0x00,0x00,0x00,0x00,
 0x00,0x00,0x00,0x00,0x00,0x00,0x00,0x00,0x00,0x00,0x00,0x00,0x00,0x00,0x00,
 0x00,0x00,0x00,0x00,0x00,0x00,0x00,0x00,0x9c,0xff,0xff,0xff,0x1e,0x00,0x00,
 0x00,0x00,0x00,0x00,0x00,0x00,0x00,0x00,0x00,0x00,0x00,0x00,0x00,0x00,0x00,
 0x00,0x00,0x00,0x00,0x00,0x00,0x00,0x00,0x00,0x00,0xce,0xff,0xff,0x3f,0x39,
 0x00,0x00,0x00,0x00,0x00,0x00,0x00,0x00,0x00,0x00,0x00,0x00,0x00,0x00,0x00,
 0x00,0x00,0x00,0x00,0x00,0x00,0x00,0x00,0x00,0x00,0x00,0x00,0xf7,0xff,0xff,
 0x39,0x30,0x00,0x00,0x00,0x00,0x00,0x00,0x00,0x00,0x00,0x00,0x00,0x00,0x00,
 0x00,0x00,0x00,0x00,0x00,0x00,0x00,0x00,0x00,0x00,0x00,0x00,0x00,0x80,0xf3,
 0xfd,0x3f,0xf8,0x33,0x00,0x00,0x00,0x00,0x00,0x00,0x00,0x00,0x00,0x00,0x00,
 0x00,0x00,0x00,0x00,0x00,0x00,0x00,0x00,0x00,0x00,0x00,0x00,0x00,0x00,0x00,
 0x80,0xf9,0xff,0x3f,0xfc,0x77,0x00,0x00,0x00,0x00,0x00,0x00,0x00,0x00,0x00,
 0x00,0x00,0x00,0x00,0x00,0x00,0x00,0x00,0x00,0x00,0x00,0x00,0x00,0x00,0x00,
 0x00,0x00,0x80,0xf9,0xff,0x3f,0xfe,0x6f,0x00,0x00,0x00,0x00,0x00,0x00,0x00,
 0x00,0x00,0x00,0x00,0x00,0x00,0x00,0x00,0x00,0x00,0x00,0x00,0x00,0x00,0x00,
 0x00,0x00,0x00,0x00,0x80,0xf9,0xff,0x8f,0xff,0x6e,0x00,0x00,0x00,0x00,0x00,
 0x00,0x00,0x00,0x00,0x00,0x00,0x00,0x00,0x00,0x00,0x00,0x00,0x00,0x00,0x00,
 0x00,0x00,0x00,0x00,0x00,0x00,0x80,0x79,0xff,0xff,0x7f,0x7d,0x00,0x00,0x00,
 0x00,0x00,0x00,0x00,0x00,0x00,0x00,0x00,0x00,0x00,0x00,0x00,0x00,0x00,0x00,
 0x00,0x00,0x00,0x00,0x00,0x00,0x00,0x00,0x80,0xe9,0xff,0x7f,0xff,0xf6,0x00,
 0x00,0x00,0x00,0x00,0x00,0x00,0x00,0x00,0x00,0x00,0x00,0x00,0x00,0x00,0x00,
 0x00,0x00,0x00,0x00,0x00,0x00,0x00,0x00,0x00,0x00,0x80,0xf3,0xff,0xff,0xfc,
 0xf5,0x01,0x00,0x00,0x00,0x00,0x00,0x00,0x00,0x00,0x00,0x00,0x00,0x00,0x00,
 0x00,0x00,0x00,0x00,0x00,0x00,0x00,0x00,0x00,0x00,0x00,0x00,0x00,0xe7,0xff,
 0xff,0xfb,0xdb,0x03,0x00,0x00,0x00,0x00,0x00,0x00,0x00,0x00,0x00,0x00,0x00,
 0x00,0x00,0x00,0x00,0x00,0x00,0x00,0x00,0x00,0x00,0x00,0x00,0x00,0x00,0x00,
 0xc6,0xff,0xff,0xff,0x37,0x07,0x00,0x00,0x00,0x00,0x00,0x00,0x00,0x00,0x00,
 0x00,0x00,0x00,0x00,0x00,0x00,0x00,0x00,0x00,0x00,0x00,0x00,0x00,0x00,0x00,
 0x00,0x00,0x8e,0xff,0xff,0xff,0xf3,0x0e,0x00,0x00,0x00,0x00,0x00,0x00,0x00,
 0x00,0x00,0x00,0x00,0x00,0x00,0x00,0x00,0x00,0x00,0x00,0x00,0x00,0x00,0x00,
 0x00,0x00,0x00,0x00,0x9e,0xff,0xc7,0xc7,0xf3,0x0c,0x00,0x00,0x00,0x00,0x00,
 0x00,0x00,0x00,0x00,0x00,0x00,0x00,0x00,0x00,0x00,0x00,0x00,0x00,0x00,0x00,
 0x00,0x00,0x00,0x00,0x00,0x00,0x47,0xff,0xfc,0xfb,0xf3,0x0d,0x00,0x00,0x00,
 0x00,0x00,0x00,0x00,0x00,0x00,0x00,0x00,0x00,0x00,0x00,0x00,0x00,0x00,0x00,
 0x00,0x00,0x00,0x00,0x00,0x00,0x00,0xe0,0xf3,0x37,0x8f,0xfb,0xc7,0x0d,0x00,
 0x00,0x00,0x00,0x00,0x00,0x00,0x00,0x00,0x00,0x00,0x00,0x00,0x00,0x00,0x00,
 0x00,0x00,0x00,0x00,0x00,0x00,0x00,0x00,0x00,0xfc,0x73,0xdc,0x7b,0xf2,0xcf,
 0x19,0x00,0x00,0x00,0x00,0x00,0x00,0x00,0x00,0x00,0x00,0x00,0x00,0x00,0x00,
 0x00,0x00,0x00,0x00,0x00,0x00,0x00,0x00,0x00,0x00,0x00,0x3f,0xe0,0xfd,0xd9,
 0xe0,0x9f,0xfd,0x03,0x00,0x00,0x00,0x00,0x00,0x00,0x00,0x00,0x00,0x00,0x00,
 0x00,0x00,0x00,0x00,0x00,0x00,0x00,0x00,0x00,0x00,0x00,0x00,0x80,0x07,0xc0,
 0xef,0x62,0xef,0x9f,0xf0,0x1f,0x00,0x00,0x00,0x00,0x00,0x00,0x00,0x00,0x00,
 0x00,0x00,0x00,0x00,0x00,0x00,0x00,0x00,0x00,0x00,0x00,0x00,0x00,0x00,0xc0,
 0x01,0x00,0xf7,0x06,0xef,0xc1,0x00,0x3e,0x00,0x00,0x00,0x00,0x00,0x00,0x00,
 0x00,0x00,0x00,0x00,0x00,0x00,0x00,0x00,0x00,0x00,0x00,0x00,0x00,0x00,0x00,
 0x00,0xe0,0xf8,0x8f,0xef,0x12,0x07,0x60,0x3e,0xf8,0xff,0x00,0x00,0x00,0x00,
 0x00,0x00,0x00,0x00,0x00,0x00,0x00,0x00,0x00,0x00,0x00,0x00,0x00,0x00,0x00,
 0x00,0x00,0x00,0x70,0x3e,0x80,0xf7,0x1a,0x78,0x7f,0xe0,0xe1,0xff,0x0f,0x00,
 0x00,0x00,0x00,0x00,0x00,0x00,0x00,0x00,0x00,0x00,0x00,0x00,0x00,0x00,0x00,
 0x00,0x00,0x00,0x00,0x00,0x38,0x03,0x00,0xff,0xfc,0xb0,0x1b,0x00,0x07,0x88,
 0x1f,0x00,0x00,0x00,0x00,0x00,0x00,0x00,0x00,0x00,0x00,0x00,0x00,0x00,0x00,
 0x00,0x00,0x00,0x00,0x00,0x00,0x00,0x18,0x00,0x30,0xf4,0x68,0xc7,0x2d,0x00,
 0x84,0x77,0x38,0x00,0x00,0x00,0x00,0x00,0x00,0x00,0x00,0x00,0x00,0x00,0x00,
 0x00,0x00,0x00,0x00,0x00,0x00,0x00,0x00,0x00,0x1c,0x00,0xf9,0xeb,0x02,0xe0,
 0x37,0x00,0xf8,0xff,0x77,0x00,0x00,0x00,0x00,0x00,0x00,0x00,0x00,0x00,0x00,
 0x00,0x00,0x00,0x00,0x00,0x00,0x00,0x00,0x00,0x00,0x00,0x0c,0xb8,0xff,0xf7,
 0xaf,0xb7,0x5f,0x00,0xf8,0xff,0xef,0x00,0x00,0x00,0x00,0x00,0x00,0x00,0x00,
 0x00,0x00,0x00,0x00,0x00,0x00,0x00,0x00,0x00,0x00,0x00,0x00,0x00,0x0c,0xfc,
 0xff,0xc7,0xfe,0xdf,0xfe,0x18,0xf8,0xff,0xcd,0xff,0xbf,0x3f,0x00,0x00,0x00,
 0x00,0x00,0x00,0x00,0x00,0x00,0x00,0x00,0x00,0x00,0x00,0x00,0x00,0x00,0x00,
 0x0e,0xfe,0xf7,0xe7,0xfd,0x7f,0xff,0x79,0xfc,0xf7,0xdb,0xff,0xff,0x7f,0x00,
 0x00,0x00,0x00,0x00,0x00,0x00,0x00,0x00,0x00,0x00,0x00,0x00,0x00,0x00,0x00,
 0x00,0x00,0x0f,0xfc,0xfe,0xcf,0xfe,0xfe,0x7f,0xe1,0x0d,0xff,0x3f,0x04,0xe0,
 0xe0,0x00,0x00,0x00,0x00,0x00,0x00,0x00,0x00,0x00,0x00,0x00,0x00,0x00,0x00,
 0x00,0x00,0x00,0x80,0x03,0xf8,0xff,0x8f,0x7f,0xff,0xff,0x01,0x04,0x77,0x37,
 0x00,0x40,0xc0,0x01,0x00,0x00,0x00,0x00,0x00,0x00,0x00,0x00,0x00,0x00,0x00,
 0x00,0x00,0x00,0x00,0x00,0xc0,0x01,0xf0,0xdf,0x0f,0x7e,0x58,0xdb,0xc0,0x47,
 0xf7,0xb7,0xc0,0x07,0x8e,0x01,0x00,0x00,0x00,0x00,0x00,0x00,0x00,0x00,0x00,
 0x00,0x00,0x00,0x00,0x00,0x00,0x00,0xc0,0xf8,0xff,0xdd,0x2d,0x80,0xf3,0xed,
 0x8c,0x63,0x7f,0xb7,0xe0,0x0f,0x9f,0x01,0x00,0x00,0x00,0x00,0x00,0x00,0x00,
 0x00,0x00,0x00,0x00,0x00,0x00,0x00,0x00,0x00,0xc0,0xf8,0xff,0xdd,0x6d,0xfc,
 0xe7,0x3f,0x9c,0xe3,0x77,0xcb,0xe1,0x0f,0x9f,0x01,0x00,0x00,0x00,0x00,0x00,
 0x00,0x00,0x00,0x00,0x00,0x00,0x00,0x00,0x00,0x00,0x00,0xc0,0xf8,0xef,0xdf,
 0x77,0xfc,0xcf,0x1f,0x1f,0xf0,0x20,0xfe,0xe1,0x1f,0x9f,0x01,0x00,0x00,0x00,
 0x00,0x00,0x00,0x00,0x00,0x00,0x00,0x00,0x00,0x00,0x00,0x00,0x00,0xc0,0xf8,
 0x19,0xdd,0x78,0xfc,0x33,0xc0,0x3f,0xf1,0x1f,0xfe,0xe1,0x1f,0x9f,0x01,0x00,
 0x00,0x00,0x00,0x00,0x00,0x00,0x00,0x00,0x00,0x00,0x00,0x00,0x00,0x00,0x00,
 0xc0,0xf8,0xf9,0x03,0x7f,0xfc,0xe3,0xf0,0x3f,0xf9,0x3f,0xfe,0xe3,0x3f,0x9f,
 0x01,0x00,0x00,0x00,0x00,0x00,0x00,0x00,0x00,0x00,0x00,0x00,0x00,0x00,0x00,
 0x00,0x00,0xc0,0xf8,0xf1,0x83,0x7f,0xfc,0xe1,0xf7,0x3f,0xf8,0x3f,0xfe,0xe3,
 0x3f,0x9f,0x01,0x00,0x00,0x00,0x00,0x00,0x00,0x00,0x00,0x00,0x00,0x00,0x00,
 0x00,0x00,0x00,0x00,0xc0,0xf8,0xf1,0xc3,0xff,0xfc,0xc1,0xfb,0x7f,0xf8,0x3f,
 0xff,0xe3,0x3f,0x9f,0x01,0x00,0x00,0x00,0x00,0x00,0x00,0x00,0x00,0x00,0x00,
 0x00,0x00,0x00,0x00,0x00,0x00,0xc0,0xf8,0xf9,0xc3,0xff,0xfc,0x81,0xf9,0x7f,
 0xfc,0x3f,0xff,0xe3,0x3f,0x9f,0x01,0x00,0x00,0x00,0x00,0x00,0x00,0x00,0x00,
 0x00,0x00,0x00,0x00,0x00,0x00,0x00,0x00,0xc0,0xf8,0xf9,0xc0,0xff,0xfc,0x01,
 0xf8,0x7f,0xfc,0x3f,0xff,0xe3,0x7f,0x9f,0x01,0x00,0x00,0x00,0x00,0x00,0x00,
 0x00,0x00,0x00,0x00,0x00,0x00,0x00,0x00,0x00,0x00,0xc0,0xf8,0xff,0xcf,0xff,
 0xfc,0x01,0xf0,0xff,0xfe,0x3f,0xff,0xe7,0x7f,0x9f,0x01,0x00,0x00,0x00,0x00,
 0x00,0x00,0x00,0x00,0x00,0x00,0x00,0x00,0x00,0x00,0x00,0x00,0xc0,0xf8,0xff,
 0xcf,0xff,0xfc,0xf9,0xf7,0xff,0xfe,0x3f,0xff,0xe7,0x7f,0x9f,0x01,0x00,0x00,
 0x00,0x00,0x00,0x00,0x00,0x00,0x00,0x00,0x00,0x00,0x00,0x00,0x00,0x00,0xc0,
 0xf8,0xff,0xef,0xff,0xfd,0xf1,0xf7,0xff,0xff,0xbf,0xff,0xe7,0xef,0x9f,0x01,
 0x00,0x00,0x00,0x00,0x00,0x00,0x00,0x00,0x00,0x00,0x00,0x00,0x00,0x00,0x00,
 0x00,0xc0,0xf9,0xf1,0xef,0xff,0xfd,0xe3,0xf7,0xff,0x7f,0xbf,0xff,0xe7,0xef,
 0x9f,0x01,0x00,0x00,0x00,0x00,0x00,0x00,0x00,0x00,0x00,0x00,0x00,0x00,0x00,
 0x00,0x00,0x00,0x80,0xf9,0xe1,0xef,0xff,0xfd,0xe3,0xf7,0xfb,0x7f,0xbf,0xdf,
 0xef,0xef,0x9f,0x01,0x00,0x00,0x00,0x00,0x00,0x00,0x00,0x00,0x00,0x00,0x00,
 0x00,0x00,0x00,0x00,0x00,0x80,0xf9,0xc1,0xef,0xfb,0xf9,0xe1,0xf7,0xfb,0x3f,
 0xbf,0xdf,0xef,0xef,0x9f,0x01,0x00,0x00,0x00,0x00,0x00,0x00,0x00,0x00,0x00,
 0x00,0x00,0x00,0x00,0x00,0x00,0x00,0x80,0xf9,0xc1,0xef,0xf3,0xf9,0xe1,0xf7,
 0xf3,0x3f,0xbf,0xdf,0xef,0xcf,0xbf,0x01,0x00,0x00,0x00,0x00,0x00,0x00,0x00,
 0x00,0x00,0x00,0x00,0x00,0x00,0x00,0x00,0x00,0x80,0xf9,0xc1,0xf7,0xf3,0xfb,
 0xe1,0xf7,0xf3,0x1f,0xbf,0x8f,0xef,0xcf,0xbf,0x03,0x00,0x00,0x00,0x00,0x00,
 0x00,0x00,0x00,0x00,0x00,0x00,0x00,0x00,0x00,0x00,0x00,0x80,0xf9,0xc1,0xf7,
 0xf1,0xfb,0xe3,0xf7,0xf3,0x1f,0xbf,0x8f,0xef,0xcf,0x3f,0x03,0x00,0x00,0x00,
 0x00,0x00,0x00,0x00,0x00,0x00,0x00,0x00,0x00,0x00,0x00,0x00,0x00,0x80,0xf9,
 0xc1,0xf7,0xff,0xfb,0xe3,0xf7,0xe3,0x1f,0xbf,0xff,0xdf,0x8f,0x3f,0x03,0x00,
 0x00,0x00,0x00,0x00,0x00,0x00,0x00,0x00,0x00,0x00,0x00,0x00,0x00,0x00,0x00,
 0x80,0xf9,0xf1,0xf7,0xff,0xfb,0xf7,0xf7,0xe3,0x0f,0xbf,0xff,0xdf,0x8f,0x3f,
 0x03,0x00,0x00,0x00,0x00,0x00,0x00,0x00,0x00,0x00,0x00,0x00,0x00,0x00,0x00,
 0x00,0x00,0x80,0xf9,0xfb,0xf7,0xe1,0xfb,0xff,0xf7,0xc3,0x0f,0xbf,0x87,0xdf,
 0x8f,0xbf,0x03,0x00,0x00,0x00,0x00,0x00,0x00,0x00,0x00,0x00,0x00,0x00,0x00,
 0x00,0x00,0x00,0x00,0x80,0xf9,0xff,0xf7,0xe1,0xfb,0xff,0xf7,0xc1,0x07,0xbf,
 0x07,0xdf,0x07,0x9f,0x01,0x00,0x00,0x00,0x00,0x00,0x00,0x00,0x00,0x00,0x00,
 0x00,0x00,0x00,0x00,0x00,0x00,0x80,0xf9,0xff,0xf7,0xc0,0xfb,0xff,0xf7,0x81,
 0x03,0x9e,0x03,0xce,0x03,0x8e,0x01,0x00,0x00,0x00,0x00,0x00,0x00,0x00,0x00,
 0x00,0x00,0x00,0x00,0x00,0x00,0x00,0x00,0x80,0x01,0x00,0x40,0x80,0x00,0x00,
 0x00,0x08,0x20,0x00,0x00,0x00,0x20,0x80,0x01,0x00,0x00,0x00,0x00,0x00,0x00,
 0x00,0x00,0x00,0x00,0x00,0x00,0x00,0x00,0x00,0x00,0x80,0x01,0x00,0x00,0x00,
 0x00,0x00,0x00,0x3c,0xf0,0x00,0x30,0x00,0x78,0xc0,0x01,0x00,0x00,0x00,0x00,
 0x00,0x00,0x00,0x00,0x00,0x00,0x00,0x00,0x00,0x00,0x00,0x00,0x80,0x03,0x00,
 0x00,0x0c,0x00,0x00,0x10,0xff,0xfc,0x73,0xfc,0x70,0xff,0xfb,0x00,0x00,0x00,
 0x00,0x00,0x00,0x00,0x00,0x00,0x00,0x00,0x00,0x00,0x00,0x00,0x00,0x00,0x00,
 0xff,0xff,0x0f,0x7f,0xff,0xff,0xff,0xe7,0x9f,0xff,0xff,0xff,0xcf,0x7f,0x00,
 0x00,0x00,0x00,0x00,0x00,0x00,0x00,0x00 };
