#define _width 256
#define _height 64
static char _bits[] = {
 0x00,0x00,0x00,0x00,0x00,0x00,0x00,0x00,0x00,0x00,0x00,0x00,0x00,0x00,0x00,
 0x00,0x00,0x00,0x00,0x00,0x00,0x00,0x06,0x00,0x00,0x00,0x00,0x00,0x00,0x00,
 0x00,0x00,0x00,0x00,0x00,0x00,0x00,0x00,0x00,0x00,0x00,0x00,0x00,0x00,0x00,
 0x00,0x00,0x00,0x00,0x00,0x00,0x00,0x00,0x80,0x03,0x00,0x00,0x00,0x00,0x00,
 0x00,0x00,0x00,0x00,0x00,0x00,0x00,0x00,0x00,0x00,0x00,0x00,0x00,0x00,0x00,
 0x00,0x00,0x00,0x00,0x00,0x00,0x00,0x00,0x00,0x00,0xe0,0x01,0x00,0x00,0x00,
 0x00,0x00,0x00,0x00,0x00,0x00,0x00,0x00,0x00,0x00,0x00,0x00,0x00,0x00,0x00,
 0x00,0x00,0x00,0x00,0x00,0x00,0x00,0x00,0x00,0x00,0x00,0x00,0xfc,0x00,0x00,
 0x00,0x00,0x00,0x00,0x00,0x00,0x00,0x00,0x00,0x00,0x00,0x00,0x00,0x00,0x00,
 0x00,0x00,0x00,0x00,0x00,0x00,0x00,0x00,0x00,0x00,0x00,0x00,0x00,0x00,0x3f,
 0x00,0x00,0x00,0x00,0x00,0x00,0x00,0x00,0x00,0x00,0x00,0x00,0x00,0x00,0x00,
 0x00,0x00,0x00,0x00,0x00,0x00,0x00,0x00,0x00,0x00,0x00,0x00,0x00,0x70,0x00,
 0xe0,0x1f,0x00,0x00,0x00,0x00,0x00,0x00,0x00,0x00,0x00,0x00,0x00,0x00,0x00,
 0x00,0x00,0x00,0x00,0x00,0x00,0x00,0x00,0x00,0x00,0x00,0x00,0x00,0x00,0x00,
 0x38,0x00,0xfe,0x07,0x00,0x00,0x00,0x00,0x00,0x00,0x00,0x00,0x00,0x00,0x00,
 0x00,0x00,0x00,0x00,0x00,0x00,0x00,0x00,0x00,0x00,0x00,0x00,0x00,0x00,0x00,
 0x00,0x00,0x3c,0xf0,0xff,0x03,0x00,0x00,0x00,0x00,0x00,0x00,0x00,0x00,0x00,
 0x00,0x00,0x00,0x00,0x00,0x00,0x00,0x00,0x00,0x00,0x00,0x00,0x00,0x00,0x00,
 0x00,0x00,0x00,0x00,0xff,0xff,0xff,0x00,0x00,0x00,0x00,0x00,0x00,0x00,0x00,
 0x00,0x00,0x00,0x00,0x00,0x00,0x00,0x00,0x00,0x00,0x00,0x00,0x00,0x00,0x00,
 0x00,0x00,0x00,0x00,0x00,0xf0,0xff,0xff,0x3f,0x00,0x00,0x00,0x00,0x00,0x00,
 0x00,0x00,0x00,0x00,0x00,0x00,0x00,0x00,0x00,0x00,0x00,0xc0,0x00,0x00,0x00,
 0x00,0x00,0x00,0x00,0x00,0x00,0xf8,0xff,0xff,0xff,0x07,0x00,0x00,0x00,0x00,
 0x00,0x00,0x00,0x00,0x00,0x00,0x00,0x00,0x00,0x00,0x00,0x00,0x00,0x80,0x03,
 0x80,0x00,0x00,0x00,0x00,0x00,0x00,0x00,0xfc,0xff,0xff,0xff,0x01,0x00,0x00,
 0x00,0x00,0x00,0x00,0x00,0x00,0x00,0x00,0x00,0x00,0x00,0x00,0x00,0x00,0x00,
 0x00,0x1e,0x80,0x01,0x00,0x08,0x00,0x00,0x00,0x00,0xfe,0xff,0xff,0x1f,0x00,
 0xf8,0x47,0x00,0x00,0x00,0x00,0x00,0x00,0x00,0x00,0x00,0x00,0x00,0x00,0x00,
 0x00,0x00,0x00,0xfc,0x80,0x03,0x00,0x0c,0x00,0x00,0x00,0x00,0xfe,0xff,0xff,
 0x01,0x3e,0xfc,0xe7,0x18,0x00,0x00,0x00,0x00,0x00,0x00,0x00,0x00,0x00,0x00,
 0x00,0x00,0x00,0x00,0x00,0xf0,0xff,0x0f,0x00,0x06,0x3e,0xe0,0x01,0x04,0xfc,
 0xff,0x1f,0x90,0x7f,0xff,0xf7,0x3c,0x00,0x00,0x00,0x00,0x00,0x00,0x00,0x00,
 0x00,0x00,0x00,0x00,0x00,0x00,0x00,0x80,0xff,0x3f,0x00,0x07,0x7f,0xf8,0x07,
 0x87,0xfc,0xff,0x07,0xdf,0xbf,0xff,0xff,0x7f,0x00,0x00,0x00,0x00,0x00,0x00,
 0x00,0x00,0x00,0x00,0x00,0x00,0x00,0x00,0x00,0x00,0xfc,0x7f,0xc0,0x87,0x7f,
 0xf8,0x8f,0xc7,0xfd,0xff,0xc3,0xcf,0x3f,0x1f,0xf7,0xff,0x00,0x00,0x00,0x00,
 0x00,0x00,0x00,0x00,0x00,0x00,0x00,0x00,0x00,0x00,0x00,0x00,0xe0,0xff,0xe1,
 0x87,0x7f,0xfc,0xcf,0xe7,0x79,0xfe,0xe1,0xe7,0x1f,0x1f,0xf6,0xff,0x01,0x00,
 0x00,0x00,0x00,0x00,0x00,0x00,0x00,0x00,0x00,0x00,0x00,0x00,0x00,0x00,0x00,
 0xff,0xf3,0x87,0xf8,0xfc,0xc0,0xff,0x71,0xfe,0xf1,0xe7,0x0d,0x0e,0xf4,0xff,
 0x01,0x00,0x00,0x00,0x00,0x00,0x00,0x00,0x00,0x00,0x00,0x00,0x00,0x00,0x00,
 0x00,0x00,0xe0,0xef,0x07,0xf8,0xfc,0xc0,0x7f,0x70,0xfc,0xf0,0xf3,0x04,0x0e,
 0xf0,0xfd,0x07,0x00,0x00,0x00,0x00,0x00,0x00,0x00,0x00,0x00,0x00,0x00,0x00,
 0x00,0x00,0x00,0x38,0xc0,0xcf,0x07,0xfc,0xfc,0xc0,0x7f,0x60,0xfc,0x78,0xf0,
 0x04,0x0f,0xf0,0xf9,0x07,0x00,0x00,0x00,0x00,0x00,0x00,0x00,0x00,0x00,0x00,
 0x00,0x00,0x00,0x00,0x00,0x1e,0xc0,0x9f,0x07,0xfc,0xfc,0xc0,0xff,0xc0,0xf8,
 0x88,0xf3,0x60,0x0f,0xf0,0xf1,0x0f,0x00,0x00,0x00,0x00,0x00,0x00,0x00,0x00,
 0x00,0x00,0x00,0x00,0x00,0x00,0x3f,0x1f,0x80,0x9f,0x07,0xfe,0xfc,0xc0,0xff,
 0x80,0xf8,0xe0,0x7b,0x70,0x8f,0xe0,0xe1,0x0f,0x00,0x00,0x00,0x00,0x00,0x00,
 0x00,0x00,0x00,0x00,0x00,0x00,0x00,0xc0,0xff,0x0f,0x80,0x9f,0x07,0xfe,0xfd,
 0xc0,0xff,0x00,0xf8,0xf0,0x7b,0x3c,0xef,0xe0,0xc1,0x07,0x00,0x00,0x00,0x00,
 0x00,0x00,0x00,0x00,0x00,0x00,0x00,0x00,0x00,0x00,0xff,0x0f,0x80,0x9f,0x07,
 0xef,0xfd,0xc0,0xf7,0x00,0xf8,0xf8,0x7b,0x3e,0xff,0xe0,0xf1,0x03,0x00,0x00,
 0x00,0x00,0x00,0x00,0x00,0x00,0x00,0x00,0x00,0x00,0x00,0x00,0xfc,0x0f,0xc2,
 0xcf,0x07,0xef,0xfd,0xc0,0xf7,0x00,0xf0,0xf8,0x7b,0x3c,0xff,0xe0,0xf9,0x00,
 0x00,0x00,0x00,0x00,0x00,0x00,0x00,0x00,0x00,0x00,0x00,0x00,0x00,0x00,0xf0,
 0x07,0xe3,0xc7,0x87,0xe7,0xfd,0xc0,0xf7,0x00,0xf0,0xf8,0x7b,0x38,0xff,0xe0,
 0xfd,0x00,0x00,0x00,0x00,0x00,0x00,0x00,0x00,0x00,0x00,0x00,0x00,0x00,0x00,
 0x00,0xe0,0x07,0xf1,0x8f,0x87,0xff,0xff,0xc0,0xf7,0x0c,0xf0,0xf8,0x7b,0x38,
 0xef,0xe0,0xff,0x01,0x00,0x00,0x00,0x00,0x00,0x00,0x00,0x00,0x00,0x00,0x00,
 0x00,0x00,0x00,0xe0,0x07,0xf1,0x3f,0xc7,0xff,0xff,0xd0,0xff,0x8f,0xf0,0xf8,
 0x7b,0x3c,0x8f,0xe0,0xff,0x03,0x00,0x00,0x00,0x00,0x00,0x00,0x00,0x00,0x00,
 0x00,0x00,0x00,0x00,0x00,0xe0,0x0f,0xc1,0x7f,0xc6,0xc3,0xff,0xd8,0xff,0xcf,
 0xf8,0xf9,0xfb,0x1f,0x8f,0xe0,0xef,0x03,0x00,0x00,0x00,0x00,0x00,0x00,0x00,
 0x00,0x00,0x00,0x00,0x00,0x00,0x00,0xe0,0x0f,0x01,0xfe,0xe6,0xc9,0xff,0xff,
 0xff,0xe7,0xf9,0xff,0xfb,0x1f,0x0f,0xe0,0xe3,0x03,0x00,0x00,0x00,0x00,0x00,
 0x00,0x00,0x00,0x00,0x00,0x00,0x00,0x00,0x00,0xe0,0x1f,0x01,0xfe,0xe6,0x8d,
 0xff,0xff,0xff,0xf3,0xff,0xff,0xff,0x1f,0x0f,0xe0,0xe1,0x03,0x00,0x00,0x00,
 0x00,0x00,0x00,0x00,0x00,0x00,0x00,0x00,0x00,0x00,0x00,0xf8,0x1f,0x01,0x7e,
 0xfe,0x87,0xff,0xff,0xf7,0xf8,0xff,0x8f,0xff,0x3f,0x0f,0xe0,0xe1,0x03,0x00,
 0x00,0x00,0x00,0x00,0x00,0x00,0x00,0x00,0x00,0x00,0x00,0x00,0x00,0xfc,0x1f,
 0x01,0x7e,0xff,0x07,0xff,0x1f,0x77,0xf0,0xff,0x8f,0xff,0x3f,0x0f,0xe0,0xe1,
 0x03,0x00,0x00,0x00,0x00,0x00,0x00,0x00,0x00,0x00,0x00,0x00,0x00,0x00,0x00,
 0xfc,0x3f,0x01,0x7e,0xff,0x07,0xff,0x0f,0x04,0xe0,0xff,0x87,0xff,0x3f,0x0f,
 0xe8,0xe1,0x03,0x00,0x00,0x00,0x00,0x00,0x00,0x00,0x00,0x00,0x00,0x00,0x00,
 0x00,0x00,0xc0,0x3f,0x01,0xbe,0xff,0x03,0xfe,0x07,0x00,0x80,0xff,0xc3,0x87,
 0x3f,0x1f,0xec,0xe1,0x03,0x00,0x00,0x00,0x00,0x00,0x00,0x00,0x00,0x00,0x00,
 0x00,0x00,0x00,0x00,0x80,0x3f,0x01,0xbf,0xff,0x03,0xfc,0x07,0x00,0x00,0xff,
 0xf0,0x01,0x3e,0x3f,0xfe,0xe1,0x03,0x00,0x00,0x00,0x00,0x00,0x00,0x00,0x00,
 0x00,0x00,0x00,0x00,0x00,0x00,0x80,0x9f,0x01,0xdf,0x1f,0x00,0xb0,0x07,0x00,
 0xfe,0x01,0xfe,0x00,0xbc,0xff,0xff,0xe3,0x03,0x00,0x00,0x00,0x00,0x00,0x00,
 0x00,0x00,0x00,0x00,0x00,0x00,0x00,0x00,0x80,0x9f,0xe0,0xdf,0x07,0x00,0x00,
 0x0f,0x80,0xff,0xff,0x3f,0x00,0x78,0xfe,0xff,0xe3,0x03,0x00,0x00,0x00,0x00,
 0x00,0x00,0x00,0x00,0x00,0x00,0x00,0x00,0x00,0x00,0xc0,0xcf,0xf8,0xef,0x01,
 0x00,0x00,0x0f,0xc0,0xbf,0xff,0x07,0x00,0x78,0xf8,0xff,0xe3,0x03,0x00,0x00,
 0x00,0x00,0x00,0x00,0x00,0x00,0x00,0x00,0x00,0x00,0x00,0xe0,0xff,0x77,0xfe,
 0xf7,0x00,0x00,0x00,0x1e,0xe0,0x07,0x00,0x00,0x00,0xf0,0xe0,0xff,0xe3,0x03,
 0x00,0x00,0x00,0x00,0x00,0x00,0x00,0x00,0x00,0x00,0x00,0x00,0x00,0xf8,0xff,
 0x1f,0xff,0x7b,0x00,0x00,0x00,0x1e,0xe0,0x07,0x00,0x00,0x00,0xf0,0xc0,0xbf,
 0xe3,0x07,0x00,0x00,0x00,0x00,0x00,0x00,0x00,0x00,0x00,0x00,0x00,0x00,0x00,
 0xfc,0xff,0xc0,0xff,0x3d,0x00,0x00,0x00,0x38,0xf0,0x03,0x00,0x00,0x00,0xe0,
 0xe1,0x07,0xe2,0x07,0x00,0x00,0x00,0x00,0x00,0x00,0x00,0x00,0x00,0x00,0x00,
 0x00,0x00,0xfe,0x07,0xe0,0x3f,0x1e,0x00,0x00,0x00,0x70,0xf0,0x03,0x00,0x00,
 0x00,0xe0,0xe1,0x07,0xe2,0x07,0x00,0x00,0x00,0x00,0x00,0x00,0x00,0x00,0x00,
 0x00,0x00,0x00,0x00,0xfe,0x01,0xf8,0x0f,0x1f,0x00,0x00,0x00,0x00,0xf0,0x03,
 0x00,0x00,0x00,0xc0,0xe3,0x03,0xe0,0x0f,0x00,0x00,0x00,0x00,0x00,0x00,0x00,
 0x00,0x00,0x00,0x00,0x00,0x00,0x7f,0x00,0xfc,0x83,0x0f,0x00,0x00,0x00,0x00,
 0xf0,0x03,0x00,0x00,0x00,0x80,0xc3,0x03,0xc0,0x0f,0x00,0x00,0x00,0x00,0x00,
 0x00,0x00,0x00,0x00,0x00,0x00,0x00,0x00,0x3f,0x00,0xfe,0xc0,0x07,0x00,0x00,
 0x00,0x00,0xf0,0x03,0x00,0x00,0x00,0x80,0xc7,0x03,0xc0,0x3f,0x00,0x00,0x00,
 0x00,0x00,0x00,0x00,0x00,0x00,0x00,0x00,0x00,0x80,0x3f,0x00,0x3f,0xf0,0x03,
 0x00,0x00,0x00,0x00,0xe0,0x07,0x00,0x00,0x00,0x00,0x8f,0x07,0x80,0x7f,0x00,
 0x00,0x00,0x00,0x00,0x00,0x00,0x00,0x00,0x00,0x00,0x00,0x80,0x1f,0x80,0x0f,
 0xf8,0x01,0x00,0x00,0x00,0x00,0xe0,0x1f,0x20,0x00,0x00,0x00,0x9e,0x0f,0x00,
 0xfe,0x01,0x00,0x00,0x00,0x00,0x00,0x00,0x00,0x00,0x00,0x00,0x00,0x80,0x1f,
 0xc0,0x07,0xfe,0x00,0x00,0x00,0x00,0x00,0xc0,0xff,0x3f,0x00,0x00,0x00,0x3e,
 0x1e,0x00,0xf0,0x07,0x00,0x00,0x00,0x00,0x00,0x00,0x00,0x00,0x00,0x00,0x00,
 0x80,0x1f,0xe0,0x01,0x3f,0x00,0x00,0x00,0x00,0x00,0x80,0xff,0x1f,0x00,0x00,
 0x00,0x7c,0x10,0x00,0xc0,0x0f,0x00,0x00,0x00,0x00,0x00,0x00,0x00,0x00,0x00,
 0x00,0x00,0x00,0x3f,0xf0,0xc0,0x1f,0x00,0x00,0x00,0x00,0x00,0x00,0xfe,0x0f,
 0x00,0x00,0x00,0xf8,0x00,0x00,0x80,0x3f,0x00,0x00,0x00,0x00,0x00,0x00,0x00,
 0x00,0x00,0x00,0x00,0x00,0x7f,0x70,0xf0,0x0f,0x00,0x00,0x00,0x00,0x00,0x00,
 0xf8,0x03,0x00,0x00,0x00,0xf0,0x01,0x00,0x00,0x3f,0x00,0x00,0x00,0x00,0x00,
 0x00,0x00,0x00,0x00,0x00,0x00,0x00,0xfe,0x39,0xfe,0x03,0x00,0x00,0x00,0x00,
 0x00,0x00,0x00,0x00,0x00,0x00,0x00,0xe0,0x03,0x00,0x00,0x7e,0x00,0x00,0x00,
 0x00,0x00,0x00,0x00,0x00,0x00,0x00,0x00,0x00,0xfc,0xff,0xff,0x01,0x00,0x00,
 0x00,0x00,0x00,0x00,0x00,0x00,0x00,0x00,0x00,0xc0,0x0f,0x00,0x00,0x7c,0x00,
 0x00,0x00,0x00,0x00,0x00,0x00,0x00,0x00,0x00,0x00,0x00,0xf8,0xff,0x7f,0x00,
 0x00,0x00,0x00,0x00,0x00,0x00,0x00,0x00,0x00,0x00,0x00,0x80,0x1f,0x00,0x00,
 0xfc,0x00,0x00,0x00,0x00,0x00,0x00,0x00,0x00,0x00,0x00,0x00,0x00,0xf0,0xff,
 0x1f,0x00,0x00,0x00,0x00,0x00,0x00,0x00,0x00,0x00,0x00,0x00,0x00,0x00,0x7f,
 0x00,0x00,0xfc,0x00,0x00,0x00,0x00,0x00,0x00,0x00,0x00,0x00,0x00,0x00,0x00,
 0xe0,0xff,0x07,0x00,0x00,0x00,0x00,0x00,0x00,0x00,0x00,0x00,0x00,0x00,0x00,
 0x00,0xfe,0x01,0x00,0xfe,0x00,0x00,0x00,0x00,0x00,0x00,0x00,0x00,0x00,0x00,
 0x00,0x00,0x00,0xff,0x00,0x00,0x00,0x00,0x00,0x00,0x00,0x00,0x00,0x00,0x00,
 0x00,0x00,0x00,0xf8,0x07,0x00,0x7e,0x00,0x00,0x00,0x00,0x00,0x00,0x00,0x00,
 0x00,0x00,0x00,0x00,0x00,0x00,0x00,0x00,0x00,0x00,0x00,0x00,0x00,0x00,0x00,
 0x00,0x00,0x00,0x00,0x00,0xf0,0x3f,0x80,0x7f,0x00,0x00,0x00,0x00,0x00,0x00,
 0x00,0x00,0x00,0x00,0x00,0x00,0x00,0x00,0x00,0x00,0x00,0x00,0x00,0x00,0x00,
 0x00,0x00,0x00,0x00,0x00,0x00,0x00,0xc0,0xff,0xff,0x3f,0x00,0x00,0x00,0x00,
 0x00,0x00,0x00,0x00,0x00,0x00,0x00,0x00,0x00,0x00,0x00,0x00,0x00,0x00,0x00,
 0x00,0x00,0x00,0x00,0x00,0x00,0x00,0x00,0x00,0x00,0xfe,0xff,0x3f,0x00,0x00,
 0x00,0x00,0x00,0x00,0x00,0x00,0x00,0x00,0x00,0x00,0x00,0x00,0x00,0x00,0x00,
 0x00,0x00,0x00,0x00,0x00,0x00,0x00,0x00,0x00,0x00,0x00,0x00,0xf0,0xff,0x0f,
 0x00,0x00,0x00,0x00,0x00,0x00,0x00,0x00,0x00,0x00,0x00,0x00,0x00,0x00,0x00,
 0x00,0x00,0x00,0x00,0x00,0x00,0x00,0x00,0x00,0x00,0x00,0x00,0x00,0x00,0x00,
 0xfe,0x00,0x00,0x00,0x00,0x00,0x00,0x00 };
