#define _width 256
#define _height 64
static char _bits[] = {
 0x00,0x00,0x00,0x00,0xf8,0x07,0x00,0x00,0x07,0x00,0x00,0x00,0x00,0x00,0x00,
 0x00,0x00,0x00,0x00,0x00,0x00,0x00,0x00,0x00,0x00,0x00,0x00,0x00,0x00,0x00,
 0x00,0x00,0x00,0x00,0x00,0xc0,0xff,0x7f,0x00,0xe0,0x1f,0x00,0x00,0x00,0x00,
 0x00,0x00,0x00,0x00,0x00,0x00,0x00,0x00,0x00,0x00,0x00,0x00,0x00,0x00,0xc0,
 0x03,0x00,0x00,0x00,0x00,0x00,0x00,0xf0,0xff,0xff,0x01,0xf8,0x3f,0x00,0x00,
 0x00,0x00,0x00,0x00,0x0c,0x00,0x00,0x00,0x00,0x00,0x00,0x00,0x00,0x00,0x00,
 0x00,0xf0,0x0f,0x00,0x00,0x00,0x00,0x00,0x00,0xf8,0x07,0xf8,0x03,0xf8,0x38,
 0x00,0x00,0x00,0x00,0x00,0x00,0x3f,0x00,0x00,0x00,0x00,0x00,0x80,0x07,0x00,
 0x00,0x00,0x00,0xf8,0x1f,0x00,0x00,0x00,0x00,0x00,0x00,0x3e,0x00,0x80,0x0f,
 0x3c,0x70,0x00,0x00,0x00,0x00,0x00,0xc0,0x7f,0x00,0x00,0x00,0x00,0x00,0xe0,
 0x1f,0x00,0x00,0x00,0x00,0x7c,0x1c,0x00,0x00,0x00,0x00,0x00,0x80,0x0f,0x00,
 0x00,0x0e,0x1f,0x70,0x00,0x00,0x00,0x00,0x00,0xc0,0xf1,0x01,0x00,0x00,0x00,
 0x00,0xfc,0x7f,0x00,0x00,0x00,0x00,0x1e,0x18,0x00,0x00,0x00,0x00,0x00,0x80,
 0x07,0x00,0x00,0x1e,0x07,0xe0,0x00,0x00,0x00,0x00,0x00,0xc0,0xc1,0x01,0x00,
 0x00,0x00,0x00,0x7e,0xf8,0x01,0x00,0x00,0x00,0x0e,0x38,0x00,0x00,0x00,0x00,
 0x00,0xe0,0x03,0x00,0x00,0x1c,0x07,0xe0,0x00,0x00,0x00,0x00,0x00,0xe0,0x80,
 0x03,0x00,0x00,0x00,0x00,0x1f,0xc0,0x07,0x00,0x00,0x00,0x0e,0x38,0x00,0x00,
 0x00,0x00,0x00,0xf0,0x00,0x00,0x00,0xb8,0x03,0xe0,0x00,0x00,0x00,0x00,0x00,
 0xe0,0x80,0x07,0x00,0x00,0x00,0x80,0x07,0x00,0x0f,0x00,0x00,0x00,0x07,0x38,
 0x00,0x00,0x00,0x00,0x00,0x70,0x00,0x00,0x00,0xb8,0x03,0xe0,0x00,0x00,0x00,
 0x00,0x00,0x60,0x80,0x07,0x00,0x00,0x00,0xc0,0x03,0x00,0x1e,0x00,0x00,0x00,
 0x03,0x38,0x00,0x00,0x00,0x00,0x00,0x3c,0x00,0x00,0x00,0xf0,0x03,0x70,0x00,
 0x00,0x00,0xff,0x03,0x70,0x00,0xc7,0x01,0x00,0x00,0xe0,0x00,0x00,0x38,0x00,
 0x00,0x80,0x03,0x38,0x00,0x00,0x00,0x00,0x00,0x1e,0x00,0x00,0x00,0xf0,0x01,
 0x70,0x00,0x00,0xc0,0xff,0x0f,0x30,0x00,0xf3,0x07,0x00,0x00,0xf0,0x00,0x00,
 0x30,0x00,0x00,0x80,0x03,0x38,0x00,0x00,0x00,0x00,0x00,0x0e,0x00,0x00,0x00,
 0xf0,0x01,0x78,0x00,0x00,0xe0,0x83,0x0f,0x30,0x80,0xff,0x0f,0x00,0x00,0x70,
 0x00,0x00,0x70,0x00,0x3c,0x80,0x03,0x18,0x00,0x00,0x00,0x00,0x00,0x0f,0x00,
 0xf8,0x07,0xf0,0x00,0xb8,0x01,0x0f,0xf0,0x00,0x1c,0x38,0x80,0x1f,0x0e,0x00,
 0x00,0x3c,0x00,0x00,0x60,0x80,0xff,0x80,0x03,0x1c,0x00,0x00,0x00,0x00,0x80,
 0x03,0x00,0xff,0x0f,0xf0,0x00,0xfc,0xc3,0x7f,0x38,0x00,0x78,0x38,0x80,0x0f,
 0x1c,0x00,0x00,0x1c,0x00,0x1f,0xe0,0xe0,0xff,0x81,0x03,0x1c,0x00,0x00,0x00,
 0x00,0x80,0x03,0x80,0x0f,0x3c,0xf0,0x00,0xfe,0xef,0xff,0x3c,0x00,0x70,0x38,
 0x80,0x07,0x1c,0x00,0x00,0x1c,0x80,0x1f,0xe0,0xe0,0xc3,0x83,0x03,0x1c,0x00,
 0x00,0x00,0x00,0xc0,0x01,0xe0,0x01,0x1c,0xf0,0x00,0x7e,0xfe,0xf0,0x1f,0x00,
 0x70,0x38,0x80,0x03,0x1c,0x00,0x00,0x0e,0xc0,0x39,0xe0,0x70,0x00,0x87,0x01,
 0x1c,0x00,0x00,0x00,0x00,0xc0,0x01,0x60,0x00,0x0c,0x70,0x00,0x3e,0x7e,0xe0,
 0x1f,0x00,0x70,0x18,0x80,0x01,0x1c,0x00,0x00,0x0e,0x60,0x30,0xe0,0x78,0x00,
 0xcf,0x01,0x1c,0x00,0x00,0x00,0x00,0xe0,0x00,0x38,0x00,0x0e,0x70,0x00,0x0f,
 0x1c,0x80,0x07,0x00,0x60,0x1c,0xc0,0x00,0x1c,0x00,0x80,0x07,0x60,0x30,0xe0,
 0x1c,0x00,0xce,0x01,0x1c,0x00,0x00,0x00,0x00,0xe0,0x00,0x1c,0x00,0x07,0x78,
 0x80,0x07,0x00,0x00,0x07,0x00,0x60,0x1c,0x60,0x00,0x1c,0x00,0x80,0x03,0x78,
 0x30,0xe0,0x1e,0x00,0xdc,0x01,0x0e,0x00,0x00,0x00,0x00,0xe0,0x00,0x0c,0x80,
 0x03,0x7c,0x80,0x07,0x00,0x00,0x02,0x00,0xe0,0x1c,0x30,0x00,0x1c,0x00,0x80,
 0x03,0x18,0x30,0x60,0x0e,0x00,0xfc,0x00,0x0e,0x00,0x00,0x00,0x00,0xe0,0x00,
 0x0e,0xe0,0x01,0x7c,0xc0,0x03,0x00,0x00,0x00,0x20,0xe0,0x0e,0x10,0x00,0x1e,
 0x00,0xc0,0x01,0x1c,0x70,0x70,0x0f,0x00,0xf8,0x00,0x0e,0x00,0x00,0x00,0x00,
 0xe0,0x00,0x06,0x78,0x00,0x3e,0xc0,0x01,0x00,0x00,0x00,0x38,0xe0,0x07,0x00,
 0x00,0x0e,0x00,0xc0,0x01,0x0c,0xe0,0xf9,0x03,0x00,0x78,0x00,0x0e,0x7e,0x00,
 0x00,0x00,0xe0,0x00,0x07,0x3e,0x00,0x3e,0xc0,0x01,0x00,0x00,0x00,0x3c,0xe0,
 0x07,0x00,0x00,0x0f,0x00,0xc0,0x01,0x0c,0xf8,0xbf,0x03,0x00,0x70,0x00,0x0f,
 0xff,0x00,0x00,0x00,0xe0,0x00,0x03,0x0f,0x00,0x3e,0xe0,0x01,0x00,0x00,0x00,
 0x3e,0x70,0x07,0x00,0xc0,0x07,0x00,0xe0,0x00,0x0f,0x1e,0xf8,0x01,0x1c,0x70,
 0x00,0x87,0xe7,0x01,0x00,0x00,0xe0,0x00,0xf3,0x03,0x00,0x18,0xe0,0x00,0x00,
 0x06,0x00,0x1b,0x30,0x03,0x00,0xf0,0x01,0x00,0x70,0x00,0x03,0x07,0xf0,0x01,
 0x0f,0x70,0x80,0xe3,0xc1,0x01,0x00,0x00,0xe0,0x00,0xff,0x01,0x00,0x10,0xe0,
 0x80,0x03,0x0f,0x00,0x1b,0x30,0x03,0x00,0xf8,0x01,0x00,0x70,0x00,0xc3,0x03,
 0xf0,0x01,0x07,0x70,0x80,0xe3,0xc1,0x03,0x00,0x00,0xe0,0x00,0x3f,0x00,0x00,
 0x00,0xf0,0x80,0x03,0x1f,0x80,0x19,0xb0,0x03,0x00,0x7c,0x00,0x00,0x70,0x80,
 0xe3,0x00,0xe0,0x00,0x00,0x30,0xc0,0xf3,0x80,0x03,0x00,0x00,0xe0,0x00,0x00,
 0x00,0x00,0x00,0xf0,0xc0,0x03,0x1b,0xc0,0x19,0xb0,0x01,0x00,0x1f,0x00,0x00,
 0x38,0x80,0x61,0x00,0x40,0x00,0x00,0x30,0xc0,0x79,0x80,0x03,0x00,0x00,0xe0,
 0x00,0x00,0x00,0x00,0x00,0xf8,0xc0,0x03,0x1b,0xc0,0x30,0xd8,0x00,0x80,0x0f,
 0x00,0x00,0x38,0x80,0x61,0x00,0x40,0x00,0x00,0x30,0xc0,0x3d,0x80,0x03,0x00,
 0x00,0xe0,0x00,0x00,0x00,0x00,0x00,0xd8,0xe0,0x01,0x1b,0xc0,0x70,0xcc,0x00,
 0xc0,0x07,0x00,0x00,0x3c,0x80,0x61,0x00,0x40,0x00,0x00,0x30,0xe0,0x1e,0x80,
 0x03,0x00,0x00,0xe0,0x00,0x00,0xc0,0x1f,0x00,0xd8,0x70,0x00,0x1f,0x60,0xf8,
 0x6f,0x00,0xf0,0x01,0x00,0x00,0x3c,0xc0,0x61,0x00,0x40,0x00,0x00,0x10,0xf0,
 0x0f,0xc0,0x01,0x00,0x00,0xe0,0x00,0x00,0xf0,0x3f,0x00,0xd8,0x30,0x00,0x0f,
 0x60,0x1c,0x66,0x00,0xf0,0x01,0x00,0x00,0x1c,0xc0,0x60,0x00,0x40,0x00,0x06,
 0x10,0xf0,0x07,0xc0,0x01,0x00,0x00,0xe0,0x00,0x00,0x7e,0x70,0x00,0xd8,0x00,
 0x00,0x0f,0x60,0x0e,0x6c,0x00,0xc0,0x03,0x00,0x00,0x1c,0xc0,0x60,0x00,0x40,
 0x00,0x07,0x18,0xf8,0x03,0xe0,0x00,0x00,0x00,0xe0,0x00,0x80,0x1f,0x60,0x00,
 0xd8,0x00,0x80,0x03,0xc0,0x06,0x3c,0x00,0x80,0x0f,0x00,0x00,0x1c,0xc0,0x60,
 0xc0,0x60,0x80,0x03,0x08,0xfc,0x00,0xf0,0x00,0x00,0x00,0xe0,0x00,0xc0,0x03,
 0x60,0x00,0xd8,0x01,0xc0,0x03,0xc0,0x06,0x1c,0x00,0x00,0x0f,0x00,0x00,0x1c,
 0xc0,0x60,0x40,0x20,0x80,0x01,0x08,0x7c,0x00,0x78,0x00,0x00,0x00,0xe0,0x00,
 0xf0,0x00,0x30,0x00,0xd8,0x01,0xe0,0x00,0xc0,0x07,0x0e,0x00,0x00,0x3e,0x00,
 0x00,0x1c,0xc0,0xe1,0x3f,0x20,0xc0,0x01,0x08,0x00,0x00,0x3c,0x00,0x00,0x00,
 0xe0,0x00,0x38,0x00,0x3c,0x00,0xf8,0x00,0xf0,0x00,0xc0,0x03,0x04,0x00,0x00,
 0x78,0x00,0x00,0x1c,0x80,0xc1,0x3f,0x20,0xe0,0x01,0x0c,0x00,0x00,0x1e,0x00,
 0x00,0x00,0xe0,0x00,0x1c,0x00,0x1e,0x00,0x78,0x00,0x78,0x00,0x80,0x01,0x06,
 0x00,0x00,0xf0,0x00,0x00,0x3c,0x80,0x03,0x18,0x20,0xe0,0x01,0x04,0x00,0x00,
 0x0f,0x00,0x00,0x00,0xe0,0x00,0x0c,0x00,0x07,0x00,0x38,0x00,0x1c,0x00,0x00,
 0x00,0x02,0x60,0x00,0xe0,0x01,0x00,0x3c,0x00,0x03,0x0c,0x70,0xf0,0x01,0x04,
 0x00,0x80,0x07,0x00,0x00,0x00,0xe0,0x00,0x06,0x80,0x03,0x00,0x18,0x00,0x0c,
 0x00,0x00,0x00,0x01,0xe0,0x00,0xc0,0x03,0x00,0x38,0x00,0x0f,0x07,0xf8,0xff,
 0x03,0x06,0x00,0xe0,0x03,0x00,0x00,0x00,0xe0,0x00,0x07,0xe0,0x01,0x00,0x08,
 0x00,0x0c,0x00,0x00,0x00,0x01,0xe0,0x01,0x80,0x0f,0x00,0x38,0x00,0xfe,0x03,
 0xf8,0x9f,0x03,0x06,0x00,0xe0,0x01,0x00,0x00,0x00,0xe0,0x00,0x03,0xf0,0x00,
 0x00,0x00,0x00,0x00,0x60,0x00,0x80,0x00,0xf0,0x03,0x00,0x1e,0x00,0x38,0x00,
 0xf8,0x00,0x3e,0x87,0x0f,0x07,0x00,0xf8,0x00,0x00,0x00,0x00,0xe0,0x00,0x03,
 0x38,0x00,0x00,0x00,0x00,0x00,0x70,0x00,0x40,0x00,0xb8,0x07,0x00,0x3c,0x00,
 0x70,0x00,0x00,0x00,0x0f,0x00,0xff,0x0f,0x00,0x3c,0x00,0x00,0x00,0x00,0xe0,
 0x00,0x07,0x1e,0x00,0x00,0x00,0x00,0x00,0x78,0x00,0x40,0x00,0x38,0x0f,0x00,
 0x3c,0x00,0x70,0x00,0x00,0x00,0x0f,0x00,0xfc,0x0f,0x00,0x1e,0x00,0x00,0x00,
 0x00,0xe0,0x00,0x8e,0x07,0x00,0x00,0x00,0x18,0x00,0xfc,0x00,0x30,0x00,0x38,
 0x1e,0x00,0x70,0x00,0xf0,0x00,0x00,0xc0,0x07,0x00,0xe0,0x3e,0xc0,0x0f,0x00,
 0x00,0x00,0x00,0xe0,0x00,0xfc,0x01,0x00,0x00,0x00,0x3c,0x00,0xff,0x03,0x38,
 0x00,0x3c,0x3c,0x00,0x60,0x00,0xe0,0x01,0x00,0xe0,0x01,0x00,0x00,0xf8,0xff,
 0x03,0x00,0x00,0x00,0x00,0xe0,0x00,0xf8,0x00,0x00,0x02,0x00,0x3e,0x00,0xcf,
 0x07,0x38,0x00,0x1c,0x78,0x00,0xe0,0x00,0xc0,0x01,0x00,0xe0,0x01,0x00,0x00,
 0xf0,0xff,0x01,0x00,0x00,0x00,0x00,0xe0,0x00,0x00,0x00,0x00,0x07,0x00,0x7f,
 0x80,0x83,0x1f,0x3f,0x00,0x1c,0xf0,0x00,0xe0,0x00,0x80,0x03,0x00,0xf8,0x00,
 0x00,0x00,0xc0,0x3f,0x00,0x00,0x00,0x00,0x00,0xe0,0x00,0x00,0x00,0x80,0x07,
 0x00,0x7f,0xc0,0x03,0xff,0x3f,0x00,0x1c,0xe0,0x01,0xe0,0x00,0x80,0x07,0x00,
 0x78,0x00,0x00,0x00,0x80,0x0f,0x00,0x00,0x00,0x00,0x00,0xe0,0x00,0x00,0x00,
 0xc0,0x07,0xc0,0xe3,0xe1,0x01,0xfc,0x3f,0x00,0x1c,0xc0,0x03,0xe0,0x00,0x00,
 0x0f,0x00,0x3c,0x00,0x00,0x00,0x00,0x00,0x00,0x00,0x00,0x00,0x00,0xc0,0x01,
 0x00,0x00,0xf0,0x07,0xe0,0xc1,0x73,0x00,0xe0,0x38,0x00,0x0e,0x80,0x07,0xe0,
 0x00,0x00,0x3e,0x00,0x1f,0x00,0x00,0x00,0x00,0x00,0x00,0x00,0x00,0x00,0x00,
 0xc0,0x01,0x00,0x00,0xf8,0x06,0xf0,0xc1,0x7f,0x00,0x00,0x38,0x00,0x0f,0x00,
 0x0f,0xe0,0x00,0x00,0x7c,0x00,0x0f,0x00,0x00,0x00,0x00,0x00,0x00,0x00,0x00,
 0x00,0x00,0xc0,0x01,0x00,0x00,0x3c,0x0e,0x78,0x00,0x1f,0x00,0x00,0x70,0x80,
 0x07,0x00,0x1c,0xf0,0x00,0x00,0xf0,0xc3,0x07,0x00,0x00,0x00,0x00,0x00,0x00,
 0x00,0x00,0x00,0x00,0x80,0x03,0x00,0x00,0x1f,0x1e,0x3c,0x00,0x0c,0x00,0x00,
 0xf0,0xe1,0x03,0x00,0xf8,0x7c,0x00,0x00,0xe0,0xff,0x03,0x00,0x00,0x00,0x00,
 0x00,0x00,0x00,0x00,0x00,0x00,0x80,0x03,0x00,0x00,0x0f,0x1c,0x1e,0x00,0x00,
 0x00,0x00,0xe0,0xff,0x03,0x00,0xe0,0x7f,0x00,0x00,0x80,0xff,0x00,0x00,0x00,
 0x00,0x00,0x00,0x00,0x00,0x00,0x00,0x00,0x80,0x07,0x00,0xc0,0x07,0xfc,0x1f,
 0x00,0x00,0x00,0x00,0xc0,0xff,0x00,0x00,0x80,0x1f,0x00,0x00,0x00,0x1c,0x00,
 0x00,0x00,0x00,0x00,0x00,0x00,0x00,0x00,0x00,0x00,0x00,0x0f,0x00,0xf0,0x01,
 0xf0,0x07,0x00,0x00,0x00,0x00,0x00,0x1e,0x00,0x00,0x00,0x00,0x00,0x00,0x00,
 0x00,0x00,0x00,0x00,0x00,0x00,0x00,0x00,0x00,0x00,0x00,0x00,0x00,0x0e,0x00,
 0xf8,0x00,0xf0,0x03,0x00,0x00,0x00,0x00,0x00,0x00,0x00,0x00,0x00,0x00,0x00,
 0x00,0x00,0x00,0x00,0x00,0x00,0x00,0x00,0x00,0x00,0x00,0x00,0x00,0x00,0x00,
 0x3c,0x00,0x3f,0x00,0x00,0x00,0x00,0x00,0x00,0x00,0x00,0x00,0x00,0x00,0x00,
 0x00,0x00,0x00,0x00,0x00,0x00,0x00,0x00,0x00,0x00,0x00,0x00,0x00,0x00,0x00,
 0x00,0x00,0xf8,0xe0,0x1f,0x00,0x00,0x00,0x00,0x00,0x00,0x00,0x00,0x00,0x00,
 0x00,0x00,0x00,0x00,0x00,0x00,0x00,0x00,0x00,0x00,0x00,0x00,0x00,0x00,0x00,
 0x00,0x00,0x00,0x00,0xf0,0xff,0x07,0x00,0x00,0x00,0x00,0x00,0x00,0x00,0x00,
 0x00,0x00,0x00,0x00,0x00,0x00,0x00,0x00,0x00,0x00,0x00,0x00,0x00,0x00,0x00,
 0x00,0x00,0x00,0x00,0x00,0x00,0xe0,0xff,0x01,0x00,0x00,0x00,0x00,0x00,0x00,
 0x00,0x00,0x00,0x00,0x00,0x00,0x00,0x00,0x00,0x00,0x00,0x00,0x00,0x00,0x00,
 0x00,0x00,0x00,0x00,0x00,0x00,0x00,0x00,0x80,0x1f,0x00,0x00,0x00,0x00,0x00,
 0x00,0x00,0x00,0x00,0x00,0x00,0x00,0x00,0x00,0x00,0x00,0x00,0x00,0x00,0x00,
 0x00,0x00,0x00,0x00,0x00,0x00,0x00,0x00 };
