#define _width 256
#define _height 64
static char _bits[] = {
 0x00,0x00,0x00,0x00,0x00,0x00,0xf8,0xff,0xff,0xff,0xff,0xff,0xff,0xff,0xff,
 0xff,0xff,0xff,0xff,0xff,0xff,0xff,0xff,0xff,0xff,0x1f,0x00,0x00,0x00,0x00,
 0x00,0x00,0x00,0x00,0x00,0x00,0x00,0x00,0x0c,0x00,0x00,0x00,0x00,0x02,0x00,
 0x00,0x00,0x00,0x00,0x00,0x00,0x00,0x00,0x00,0x00,0x00,0x00,0x30,0x00,0x00,
 0x00,0x00,0x00,0x00,0x00,0x00,0x00,0x00,0x00,0x00,0x06,0x00,0x00,0x00,0x00,
 0x06,0x01,0x00,0x00,0x00,0x00,0x00,0x00,0x00,0x00,0x00,0x00,0x00,0x00,0x60,
 0x00,0x00,0x00,0x00,0x00,0x00,0x00,0x00,0x00,0x00,0x00,0x00,0x02,0x00,0x00,
 0x00,0x00,0xd3,0x03,0x00,0x00,0x00,0x00,0x00,0x00,0x00,0x00,0x00,0x00,0x00,
 0x00,0x40,0x00,0x00,0x00,0x00,0x00,0x00,0x00,0x00,0x00,0x00,0x00,0x00,0x02,
 0x00,0x00,0x00,0x80,0x7b,0x0e,0x00,0x00,0x00,0x00,0x00,0x00,0x00,0x00,0x00,
 0x00,0x00,0x00,0x40,0x00,0x00,0x00,0x00,0x00,0x00,0x00,0x00,0x00,0x00,0x00,
 0x00,0x02,0x00,0x00,0x00,0x20,0xbc,0x03,0x00,0x00,0x00,0x00,0x00,0x00,0x00,
 0x00,0x00,0x00,0x00,0x00,0x40,0x00,0x00,0x00,0x00,0x00,0x00,0x00,0x00,0x00,
 0x00,0x00,0x00,0x02,0x00,0x00,0x00,0xe0,0xea,0x01,0x00,0x00,0x00,0x00,0x00,
 0x00,0x00,0x00,0x00,0x00,0x00,0x00,0x40,0x00,0x00,0x00,0x00,0x00,0x00,0x00,
 0x00,0x00,0x00,0x00,0x00,0x02,0xe0,0x1f,0x00,0x28,0x7e,0x00,0x00,0x00,0x00,
 0x00,0x00,0x00,0x00,0x00,0x00,0x00,0x00,0x00,0x40,0x00,0x00,0x00,0x00,0x00,
 0x00,0x00,0x00,0x00,0x00,0x00,0x00,0x02,0x78,0xf8,0x00,0x3f,0x3c,0x00,0x00,
 0x00,0xf8,0x1f,0x00,0x00,0x00,0x00,0x00,0x00,0x00,0x00,0x40,0x00,0x00,0x00,
 0x00,0x00,0x00,0x00,0x00,0x00,0x00,0x00,0x00,0x02,0x1c,0x80,0x07,0x0a,0x1e,
 0x7f,0xc0,0x7f,0x1e,0xf0,0x00,0x00,0x00,0x00,0x00,0x00,0x00,0x00,0x40,0x00,
 0x00,0x00,0x00,0x00,0x00,0x00,0x00,0x00,0x00,0x00,0x00,0x02,0x06,0x00,0x1e,
 0xfc,0x3f,0xc1,0xc0,0x60,0x03,0xc0,0x01,0x00,0x00,0x00,0x00,0x00,0x00,0x00,
 0x40,0x00,0x00,0x00,0x00,0x00,0x00,0x00,0x00,0x00,0x00,0x00,0x00,0x02,0x02,
 0x00,0x70,0xb8,0x0f,0x81,0x61,0xc0,0x03,0x00,0x03,0x00,0x00,0x00,0x00,0x00,
 0x00,0x00,0x40,0x00,0x00,0x00,0x00,0x00,0x00,0x00,0x00,0x00,0x00,0x00,0x00,
 0x02,0x03,0x00,0xc0,0x66,0x8f,0x81,0x21,0xc0,0x01,0x00,0x06,0x00,0x00,0x00,
 0x00,0x00,0x00,0x00,0x40,0x00,0x00,0x00,0x00,0x00,0x00,0x00,0x00,0x00,0x00,
 0x00,0x00,0x02,0x01,0x00,0xc0,0xf2,0xb8,0x81,0x33,0xc0,0x01,0x00,0x0c,0x00,
 0x00,0x00,0x00,0x00,0x00,0x00,0x40,0x00,0x00,0x00,0x00,0x00,0x00,0x00,0x00,
 0x00,0x00,0x00,0x00,0x82,0x01,0x00,0x80,0x99,0xf7,0x00,0x13,0xe0,0x00,0x00,
 0x18,0x00,0x00,0x00,0x00,0x00,0x00,0x00,0x40,0x00,0x00,0x00,0x00,0x00,0x00,
 0x00,0x00,0x00,0x00,0x00,0x00,0xc2,0x00,0x00,0x80,0x89,0xfb,0x00,0x1b,0xe0,
 0x00,0x00,0x38,0x00,0x00,0x00,0x00,0x00,0x00,0x00,0x40,0x00,0x00,0x00,0x00,
 0x00,0x00,0x00,0x00,0x00,0x00,0x00,0x00,0xc2,0x00,0x00,0x00,0x03,0x7b,0x00,
 0x0f,0x60,0x00,0x00,0x38,0x00,0x00,0x00,0x00,0x00,0x00,0x00,0x40,0x00,0x00,
 0x00,0x00,0x00,0x00,0x00,0x00,0x00,0x00,0x00,0x00,0x42,0xe0,0x3f,0x00,0x83,
 0x7c,0x00,0x0f,0x60,0xfe,0x1f,0x3c,0x00,0x00,0x00,0x00,0x00,0x00,0x00,0x40,
 0x00,0x00,0x00,0x00,0x00,0x00,0x00,0x00,0x00,0x00,0x00,0x00,0xc2,0xff,0x7f,
 0x80,0xfb,0x7d,0x00,0x07,0xf0,0xff,0x1f,0x3c,0x00,0x00,0x00,0x00,0x00,0x00,
 0x00,0x40,0x00,0x00,0x00,0x00,0x00,0x00,0x00,0x00,0x00,0x00,0x00,0x00,0x02,
 0x0f,0x58,0xc0,0xff,0x4f,0x00,0x07,0xf0,0x07,0x1f,0x1e,0x00,0x00,0x00,0x00,
 0x00,0x00,0x00,0x40,0x00,0x00,0x00,0x00,0x00,0x00,0x00,0x00,0x00,0x00,0x00,
 0x00,0x02,0x0f,0x78,0xc0,0xff,0x3f,0x00,0x03,0x70,0x83,0x0f,0x1e,0x00,0x00,
 0x00,0x00,0x00,0x00,0x00,0x40,0x00,0x00,0x00,0x00,0x00,0x00,0x00,0x00,0x00,
 0x00,0x00,0x00,0x02,0x0c,0x78,0xe0,0xff,0x3f,0x00,0x03,0x70,0x82,0x07,0x0f,
 0x00,0x00,0x00,0x00,0x00,0x00,0x00,0x40,0x00,0x00,0x00,0x00,0x00,0x00,0x00,
 0x00,0x00,0x00,0x00,0x00,0x02,0x0c,0x1c,0xf0,0xfb,0x7f,0x00,0x01,0x70,0xc3,
 0x81,0x0f,0x00,0x00,0x00,0x00,0x00,0x00,0x00,0x40,0x00,0x00,0x00,0x00,0x00,
 0x00,0x00,0x00,0x00,0x00,0x00,0x00,0x02,0x0e,0x1c,0xf0,0xf9,0x7f,0x00,0x00,
 0x70,0xc1,0x00,0x07,0x00,0x00,0x00,0x00,0x00,0x00,0x00,0x40,0x00,0x00,0x00,
 0x00,0x00,0x00,0x00,0x00,0x00,0x00,0x00,0x00,0x02,0x06,0x06,0xf0,0xfc,0x7f,
 0x00,0x00,0xf0,0x41,0x00,0x06,0x00,0x00,0x00,0x00,0x00,0x00,0x00,0x40,0x00,
 0x00,0x00,0x00,0x00,0x00,0x00,0x00,0x00,0x00,0x00,0x00,0x02,0x02,0x02,0xe0,
 0xff,0x7f,0x08,0x30,0xf0,0x80,0x03,0x0c,0x00,0x00,0x00,0x00,0x00,0x00,0x00,
 0x40,0x00,0x00,0x00,0x00,0x00,0x00,0x00,0x00,0x00,0x00,0x00,0x00,0x02,0x02,
 0x1e,0xe0,0xfe,0x7f,0x0c,0x30,0xf0,0xe0,0x03,0x1c,0x00,0x00,0x00,0x00,0x00,
 0x00,0x00,0x40,0x00,0x00,0x00,0x00,0x00,0x00,0x00,0x00,0x00,0x00,0x00,0x00,
 0x02,0x03,0x3f,0x70,0xfe,0x7f,0x0c,0x10,0xf0,0xe0,0x07,0x18,0x00,0x00,0x00,
 0x00,0x00,0x00,0x00,0x40,0x00,0x00,0x00,0x00,0x00,0x00,0x00,0x00,0x00,0x00,
 0x00,0x00,0x02,0x03,0x27,0x70,0xff,0x7f,0x0c,0x18,0xf8,0xe0,0x06,0x18,0x00,
 0x00,0x00,0x00,0x00,0x00,0x00,0x40,0x00,0x00,0x00,0x00,0x00,0x00,0x00,0x00,
 0x00,0x00,0x00,0x00,0x02,0x01,0x37,0x70,0xff,0x7f,0x0c,0x0c,0x78,0xe0,0x03,
 0x38,0x00,0x00,0x00,0x00,0x00,0x00,0x00,0x40,0x00,0x00,0x00,0x00,0x00,0x00,
 0x00,0x00,0x00,0x00,0x00,0x00,0x82,0x01,0x37,0xb0,0xff,0x7f,0x1c,0x0c,0x78,
 0xf0,0x03,0x38,0x00,0x00,0x00,0x00,0x00,0x00,0x00,0x40,0x00,0x00,0x00,0x00,
 0x00,0x00,0x00,0x00,0x00,0x00,0x00,0x00,0x82,0x81,0x0f,0x70,0xff,0x7f,0x1e,
 0x0c,0x38,0xf0,0xf0,0xff,0x1f,0x00,0x00,0x00,0x00,0x00,0x00,0x40,0x00,0x00,
 0x00,0x00,0x00,0x00,0x00,0x00,0x00,0x00,0x00,0x00,0x82,0x80,0x0f,0xf0,0xff,
 0x7f,0x1e,0x0e,0x38,0x70,0x10,0x00,0x30,0x00,0x00,0xf8,0xfd,0x0f,0xfe,0x47,
 0x00,0x00,0x00,0x00,0x00,0x00,0x00,0x00,0x00,0x00,0x00,0x00,0xc2,0x80,0x03,
 0xf0,0xff,0x7f,0x1e,0x0f,0x3c,0x10,0x18,0x00,0xf0,0xff,0x01,0x9e,0x07,0x08,
 0x02,0x46,0x00,0x00,0x00,0x00,0x00,0x00,0x00,0x00,0x00,0x00,0x00,0x00,0xc2,
 0xc0,0x03,0xf0,0xff,0x7f,0x36,0x07,0x1c,0x00,0x0c,0x00,0x70,0x00,0x83,0x07,
 0x06,0x1c,0x03,0x4e,0x00,0x00,0x00,0x00,0x00,0x00,0x00,0x00,0x00,0x00,0x00,
 0x00,0x42,0x00,0x00,0xf0,0xff,0x7f,0x36,0x07,0x1c,0x00,0x0c,0x00,0x78,0x00,
 0x86,0x01,0x0c,0x9c,0x01,0x4f,0x00,0x00,0x00,0x00,0x00,0x00,0x00,0x00,0x00,
 0x00,0x00,0x00,0x62,0x00,0x00,0xe0,0xff,0x3f,0xb7,0x07,0x1c,0x00,0x04,0x00,
 0x38,0x00,0x6e,0x00,0x0e,0xfc,0x80,0x4f,0x00,0x00,0x00,0x00,0x00,0x00,0x00,
 0x00,0x00,0x00,0x00,0x00,0x62,0x00,0x00,0xf0,0xff,0x3f,0xb7,0x07,0x0c,0xf8,
 0x07,0x00,0x38,0x04,0x3e,0x00,0x07,0x7c,0xc0,0x47,0x00,0x00,0x00,0x00,0x00,
 0x00,0x00,0x00,0x00,0x00,0x00,0x00,0x22,0x00,0x00,0xfe,0xff,0x0f,0xf7,0x1f,
 0xff,0xff,0x03,0x80,0x1f,0x04,0x1e,0x00,0x07,0x3e,0xe0,0x43,0x00,0x00,0x00,
 0x00,0x00,0x00,0x00,0x00,0x00,0x00,0x00,0x00,0x32,0x00,0x80,0xff,0xff,0x0f,
 0xf7,0xf9,0xef,0xff,0x01,0x80,0x1f,0x06,0x0e,0x00,0x03,0x3e,0xf0,0x41,0x00,
 0x00,0x00,0x00,0x00,0x00,0x00,0x00,0x00,0x00,0x00,0x00,0x32,0x00,0xf8,0xe7,
 0xff,0xff,0xe7,0xf0,0x07,0x00,0x3d,0xc0,0x1f,0x46,0x0e,0x9e,0x03,0x1e,0xf8,
 0x40,0x00,0x00,0x00,0x00,0x00,0x00,0x00,0x00,0x00,0x00,0x00,0x00,0x1a,0xc0,
 0xff,0x01,0xff,0xff,0x07,0x00,0x00,0x00,0x3f,0xc0,0x0d,0xe7,0x06,0xbe,0x03,
 0x0e,0x7c,0x40,0x00,0x00,0x00,0x00,0x00,0x00,0x00,0x00,0x00,0x00,0x00,0x00,
 0x1a,0xfe,0x3f,0x00,0xfc,0x01,0x00,0x00,0x00,0x00,0x3c,0xc0,0xa5,0x7f,0x02,
 0xfe,0x03,0x06,0x3e,0x40,0x00,0x00,0x00,0x00,0x00,0x00,0x00,0x00,0x00,0x00,
 0x00,0x00,0xf2,0xff,0x01,0x00,0x00,0x00,0x00,0x00,0x00,0x00,0x30,0xe0,0xe6,
 0x37,0x03,0xef,0x03,0x03,0x1e,0x40,0x00,0x00,0x00,0x00,0x00,0x00,0x00,0x00,
 0x00,0x00,0x00,0x00,0xe2,0x07,0x00,0x00,0x00,0x00,0x00,0x00,0x00,0x00,0x10,
 0xe0,0xc2,0x1b,0x03,0x8f,0x01,0x03,0x1f,0x40,0x00,0x00,0x00,0x00,0x00,0x00,
 0x00,0x00,0x00,0x00,0x00,0x00,0x02,0x00,0x00,0x00,0x00,0x00,0x00,0xe0,0xff,
 0x01,0x10,0x70,0xdb,0x9b,0x81,0x07,0x01,0x81,0x0f,0x40,0x00,0x00,0x00,0x00,
 0x00,0x00,0x00,0x00,0x00,0x00,0x00,0x00,0x02,0x00,0x00,0x00,0x00,0x00,0x00,
 0x30,0x80,0x01,0x10,0x70,0xfb,0x92,0x81,0x07,0x01,0xc1,0x07,0x40,0x00,0x00,
 0x00,0x00,0x00,0x00,0x00,0x00,0x00,0x00,0x00,0x00,0x02,0x00,0x00,0x00,0x00,
 0x00,0x00,0x10,0x00,0x03,0x10,0xb0,0xe1,0x30,0x81,0x83,0x01,0xe0,0x03,0x40,
 0x00,0x00,0x00,0x00,0x00,0x00,0x00,0x00,0x00,0x00,0x00,0x00,0x02,0x00,0x00,
 0x00,0x00,0x00,0x00,0x10,0x00,0x03,0x08,0xb8,0x70,0xbc,0xc0,0x83,0x00,0xe0,
 0x01,0x40,0x00,0x00,0x00,0x00,0x00,0x00,0x00,0x00,0x00,0x00,0x00,0x00,0x02,
 0x00,0x00,0x00,0x00,0x00,0x00,0x10,0x00,0x07,0x08,0xf8,0xf8,0x8f,0xc0,0x9b,
 0x00,0xe0,0x00,0x40,0x00,0x00,0x00,0x00,0x00,0x00,0x00,0x00,0x00,0x00,0x00,
 0x00,0x02,0x00,0x00,0x00,0x00,0x00,0x00,0x10,0x00,0x06,0x0c,0x7c,0x78,0x99,
 0xc0,0x99,0x80,0xc0,0x01,0x40,0x00,0x00,0x00,0x00,0x00,0x00,0x00,0x00,0x00,
 0x00,0x00,0x00,0x02,0x00,0x00,0x00,0x00,0x00,0x00,0x30,0x00,0x06,0x06,0x7c,
 0xbc,0xbb,0xc0,0xad,0x80,0x80,0x03,0x40,0x00,0x00,0x00,0x00,0x00,0x00,0x00,
 0x00,0x00,0x00,0x00,0x00,0x02,0x00,0x00,0x00,0x00,0x00,0x00,0x30,0x00,0x9c,
 0x03,0x7c,0x8e,0x80,0xc0,0xe7,0xc0,0x01,0x03,0x40,0x00,0x00,0x00,0x00,0x00,
 0x00,0x00,0x00,0x00,0x00,0x00,0x00,0x02,0x00,0x00,0x00,0x00,0x00,0x00,0x60,
 0x00,0xf0,0x00,0x3e,0xc0,0x80,0x80,0xc3,0xc0,0x03,0x06,0x40,0x00,0x00,0x00,
 0x00,0x00,0x00,0x00,0x00,0x00,0x00,0x00,0x00,0x02,0x00,0x00,0x00,0x00,0x00,
 0x00,0x40,0x00,0x00,0x00,0x1e,0x00,0x80,0x81,0xc1,0xc0,0x03,0x06,0x40,0x00,
 0x00,0x00,0x00,0x00,0x00,0x00,0x00,0x00,0x00,0x00,0x00,0x02,0x00,0x00,0x00,
 0x00,0x00,0x00,0xc0,0x00,0x00,0x00,0x1f,0x00,0x80,0x81,0x81,0xe1,0x06,0x0c,
 0x40,0x00,0x00,0x00,0x00,0x00,0x00,0x00,0x00,0x00,0x00,0x00,0x00,0x02,0x00,
 0x00,0x00,0x00,0x00,0x00,0x80,0x01,0x00,0x80,0x1f,0x60,0x00,0x03,0x80,0xe1,
 0x04,0x0c,0x40,0x00,0x00,0x00,0x00,0x00,0x00,0x00,0x00,0x00,0x00,0x00,0x00,
 0x02,0x00,0x00,0x00,0x00,0x00,0x00,0x00,0x03,0x00,0xc0,0x0f,0xf0,0x03,0x03,
 0xc0,0xe1,0x0c,0x18,0x40,0x00,0x00,0x00,0x00,0x00,0x00,0x00,0x00,0x00,0x00,
 0x00,0x00,0x02,0x00,0x00,0x00,0x00,0x00,0x00,0x00,0x06,0x00,0xc0,0x07,0xf0,
 0x03,0x02,0xc0,0xe1,0x0c,0x30,0x40,0x00,0x00,0x00,0x00,0x00,0x00,0x00,0x00,
 0x00,0x00,0x00,0x00,0x02,0x00,0x00,0x00,0x00,0x00,0x00,0x00,0x0c,0x00,0xf0,
 0x07,0x78,0x06,0x0e,0xf8,0xf0,0x18,0x70,0x40,0x00,0x00,0x00,0x00,0x00,0x00,
 0x00,0x00,0x00,0x00,0x00,0x00,0x02,0x00,0x00,0x00,0x00,0x00,0x00,0x00,0x38,
 0x00,0xfc,0xfc,0x7f,0xfe,0x1f,0x7e,0xf0,0x18,0x60,0x40,0x00,0x00,0x00,0x00,
 0x00,0x00,0x00,0x00,0x00,0x00,0x00,0x00,0x06,0x00,0x00,0x00,0x00,0x00,0x00,
 0x00,0xf8,0x01,0x7e,0xf8,0x3f,0xf8,0xff,0xff,0x7f,0xf0,0x7f,0x60,0x00,0x00,
 0x00,0x00,0x00,0x00,0x00,0x00,0x00,0x00,0x00,0x00,0x0c,0x00,0x00,0x00,0x00,
 0x00,0x00,0x00,0xe0,0xff,0x3f,0x00,0x00,0x00,0x00,0x00,0x00,0x00,0x00,0x30,
 0x00,0x00,0x00,0x00,0x00,0x00,0x00,0x00,0x00,0x00,0x00,0x00,0xf8,0xff,0xff,
 0xff,0xff,0xff,0xff,0xff,0xff,0xff,0xff,0xff,0xff,0xff,0xff,0xff,0xff,0xff,
 0xff,0x1f,0x00,0x00,0x00,0x00,0x00,0x00 };
