#define _width 256
#define _height 64
static char _bits[] = {
 0x00,0x00,0x00,0x00,0x00,0x00,0x00,0x00,0x00,0x00,0x00,0x00,0x00,0x00,0x00,
 0x00,0x00,0x00,0x00,0x00,0x00,0x00,0x00,0x00,0x00,0x00,0x00,0x00,0x00,0x00,
 0x00,0x00,0x00,0x00,0x00,0x00,0x00,0x00,0x00,0x00,0x00,0x00,0x00,0x00,0x00,
 0x00,0x00,0x00,0x00,0x00,0x00,0x00,0x00,0x00,0x00,0x00,0x00,0x00,0x00,0x00,
 0x00,0x00,0x00,0x00,0x00,0x00,0x00,0x00,0x00,0x00,0x00,0x00,0x00,0x00,0x00,
 0x00,0x00,0x00,0x00,0x00,0x00,0x00,0x00,0x00,0x00,0x00,0x00,0x00,0x00,0x00,
 0x00,0x00,0x00,0x00,0x00,0x00,0x00,0x00,0x00,0x00,0x00,0x00,0x00,0x00,0x00,
 0x00,0x00,0x00,0x00,0x00,0x00,0x00,0x00,0x00,0x00,0x00,0x00,0x00,0x00,0x00,
 0x00,0x00,0x00,0x00,0x00,0x00,0x00,0x00,0x00,0x00,0x00,0x00,0x00,0x00,0x00,
 0x00,0x00,0x00,0x00,0x00,0x00,0x00,0x00,0x00,0x00,0x00,0x00,0x00,0x00,0x00,
 0x00,0x00,0x00,0x00,0x00,0x00,0x00,0x00,0x00,0x00,0x00,0x00,0x00,0x00,0x00,
 0x00,0x00,0x00,0x00,0x00,0x00,0x00,0x00,0x00,0x00,0x00,0x00,0x00,0x00,0x00,
 0x00,0x00,0x00,0x00,0x00,0x00,0x00,0x00,0x00,0x00,0x00,0x00,0x00,0x00,0x00,
 0x00,0x00,0x00,0x00,0x00,0x00,0x00,0x00,0x00,0x00,0x00,0x00,0x00,0x00,0x00,
 0x00,0x00,0x00,0x00,0x00,0x00,0x00,0x00,0x00,0x00,0x00,0x00,0x00,0x00,0x00,
 0x00,0x00,0x00,0x00,0x00,0x00,0x00,0x00,0x00,0x00,0x00,0x00,0x00,0x00,0x00,
 0x00,0x00,0x00,0x00,0x00,0x00,0x00,0x00,0x00,0x00,0x00,0x00,0x00,0x00,0x00,
 0x00,0x00,0x00,0x00,0x00,0x00,0x00,0x00,0x00,0x00,0x00,0x00,0x00,0x00,0x00,
 0x00,0x00,0x00,0x00,0x00,0x00,0x00,0x00,0x00,0x00,0x00,0x00,0x00,0x00,0x00,
 0x00,0x00,0x00,0x00,0x00,0x00,0x00,0x00,0x00,0x00,0x00,0x00,0x00,0x00,0x00,
 0x00,0x00,0x00,0x00,0x00,0x00,0x00,0x00,0x00,0x00,0x00,0x00,0x00,0x00,0x00,
 0x00,0x00,0x00,0x00,0x00,0x00,0x00,0x00,0x00,0x00,0x00,0x00,0x00,0x00,0x00,
 0x00,0x00,0x00,0x00,0x00,0x00,0x00,0x00,0x00,0x00,0x00,0x00,0x00,0x00,0x00,
 0x00,0x00,0x00,0x00,0x00,0x00,0x00,0x00,0x00,0x00,0x00,0x00,0x00,0x00,0x00,
 0x00,0x00,0x00,0x00,0x00,0x00,0x00,0x00,0x00,0x00,0x00,0x00,0x00,0x00,0x00,
 0x00,0x00,0x00,0x00,0x00,0x00,0x00,0x00,0x00,0x00,0x00,0x00,0x00,0x00,0x00,
 0x00,0x00,0x00,0x00,0x00,0x00,0x00,0x00,0x00,0x00,0x00,0x00,0x00,0x00,0x00,
 0x00,0x00,0x00,0x00,0x00,0x00,0x00,0x00,0x00,0x00,0x00,0x00,0x00,0x00,0x00,
 0x00,0x00,0x00,0x00,0x00,0x00,0x00,0x00,0x00,0x00,0x00,0x00,0x00,0x00,0x00,
 0x00,0x00,0x00,0x00,0x00,0x00,0x00,0x00,0x00,0x00,0x00,0x00,0x00,0x00,0x00,
 0x00,0x00,0x00,0x00,0x00,0x00,0x00,0x00,0x00,0x00,0x00,0x00,0x00,0x00,0x00,
 0x00,0x00,0x00,0x00,0x00,0x00,0x00,0x00,0x00,0x00,0x00,0x00,0x00,0x00,0x00,
 0x00,0x00,0x00,0x00,0x00,0x00,0x00,0x00,0x00,0x00,0x00,0x00,0x00,0x00,0x00,
 0x00,0x00,0x00,0x00,0x00,0x00,0x00,0x00,0x00,0x00,0x00,0x00,0x00,0x00,0x00,
 0x00,0x00,0x00,0x00,0x00,0x00,0x00,0x00,0x00,0x00,0x00,0xe0,0x01,0x00,0x00,
 0x00,0x00,0x00,0x00,0x00,0x00,0x00,0x00,0x00,0x00,0x00,0x00,0x00,0x00,0x00,
 0x00,0x00,0x00,0x00,0x00,0x00,0x00,0x00,0x00,0x00,0x00,0x00,0x00,0x18,0x06,
 0x00,0x00,0x00,0x00,0xff,0x00,0x00,0x00,0x00,0xc0,0xff,0xff,0x01,0xfc,0xff,
 0x07,0xe0,0xff,0xff,0x00,0x00,0x00,0x00,0x00,0xe0,0xff,0x87,0xff,0xff,0x3f,
 0x04,0x0c,0x00,0xfe,0xff,0xc1,0x00,0xf7,0xe1,0xff,0x7f,0x30,0x00,0x00,0x06,
 0x03,0x00,0x38,0x18,0x00,0x00,0x03,0x00,0x00,0x00,0x00,0x10,0x00,0x48,0x00,
 0x00,0x60,0x02,0x18,0x00,0x03,0x00,0x36,0x00,0x0c,0x33,0x00,0x80,0x19,0x00,
 0x00,0x88,0x00,0x00,0x60,0x04,0x00,0x00,0x02,0x00,0x00,0x00,0x00,0x08,0x00,
 0x38,0x00,0x00,0x40,0x03,0x10,0x00,0x01,0x00,0x1c,0x00,0x08,0x1a,0x00,0x00,
 0x09,0x00,0x00,0xc8,0x00,0x00,0xc0,0x06,0x00,0x00,0x02,0x00,0x00,0x00,0x00,
 0x04,0x00,0x38,0x00,0x00,0x40,0x01,0x20,0x80,0x00,0x00,0x18,0x00,0x00,0x0a,
 0x00,0x00,0x06,0x00,0x00,0x48,0x00,0x00,0x80,0x03,0x00,0x00,0x02,0x00,0x00,
 0x00,0x00,0x02,0x00,0x18,0x00,0x00,0x40,0x01,0x20,0x80,0x00,0x00,0x08,0x00,
 0x00,0x0e,0x00,0x00,0x06,0x00,0x00,0x28,0x00,0x00,0x00,0x03,0x00,0x00,0x02,
 0x00,0x00,0x00,0x00,0x01,0x00,0x18,0x00,0x00,0x20,0x01,0x40,0x80,0x00,0x00,
 0x08,0x00,0x04,0x0e,0x00,0x00,0x04,0x00,0x00,0x2c,0x00,0x00,0x00,0x03,0x00,
 0x00,0x03,0x00,0x00,0x00,0x80,0x00,0xfe,0x17,0xf8,0xff,0x3f,0x81,0x40,0x80,
 0xc0,0x3f,0x08,0xfc,0x0f,0x0e,0xfe,0x0f,0x04,0xff,0xff,0x27,0xf0,0xff,0x03,
 0x02,0xff,0xff,0x01,0x00,0x00,0x00,0x40,0x00,0x01,0x10,0xf8,0xff,0x0f,0x81,
 0x80,0x80,0x40,0x20,0x08,0x04,0x08,0x0e,0x02,0x06,0x06,0xff,0xff,0x20,0x10,
 0x00,0x04,0x82,0xff,0x3f,0x00,0x00,0x00,0x00,0x20,0x80,0x00,0x10,0xf8,0xff,
 0x1f,0x81,0x81,0x81,0x40,0x20,0x08,0x04,0x08,0x0e,0x02,0x02,0x06,0xfe,0xff,
 0x21,0x10,0x00,0x04,0x02,0xff,0xff,0x00,0x00,0x00,0x00,0x10,0x40,0x00,0x20,
 0x00,0x00,0x30,0x81,0x01,0x81,0x40,0x20,0x08,0x04,0x08,0x0e,0x02,0x01,0x06,
 0x00,0x00,0x26,0x10,0x00,0x02,0x02,0x00,0x80,0x01,0x00,0x00,0x00,0x08,0x20,
 0x00,0x20,0x00,0x00,0x60,0x81,0x02,0x82,0x40,0x20,0x08,0x04,0x08,0x0e,0x82,
 0x00,0x07,0x00,0x00,0x2c,0x10,0x00,0x01,0x03,0x00,0x00,0x02,0x00,0x00,0x00,
 0x04,0x10,0x00,0x20,0x00,0x00,0x40,0x81,0x02,0x82,0x40,0x20,0x08,0x04,0x08,
 0x0e,0x42,0x80,0x0d,0x00,0x00,0x28,0x10,0x80,0x00,0x03,0x00,0x00,0x02,0x00,
 0x00,0x00,0x02,0x08,0x00,0x60,0x00,0x00,0xc0,0x81,0x04,0x84,0x40,0x20,0x08,
 0x04,0x08,0x0e,0x22,0xc0,0x08,0x00,0x00,0x38,0x10,0x40,0x00,0x05,0x00,0x00,
 0x06,0x00,0x00,0x00,0x01,0x04,0x00,0xc0,0x00,0x00,0x80,0x81,0x0c,0x8c,0x40,
 0x20,0x08,0x04,0x08,0x0e,0x12,0x60,0x30,0x00,0x00,0x38,0x10,0x20,0x80,0x0c,
 0x00,0x00,0x04,0x00,0x00,0x80,0x00,0x02,0x00,0x80,0xff,0xff,0x81,0x81,0x08,
 0x88,0x40,0x20,0x08,0x04,0x08,0x0e,0x0e,0x30,0xf0,0xff,0x3f,0x30,0x10,0x10,
 0x40,0xf8,0xff,0x1f,0x04,0x00,0x00,0xc0,0x00,0x01,0x00,0x80,0x01,0x00,0x80,
 0x81,0x10,0x98,0x40,0x20,0x08,0x04,0x08,0x0e,0x06,0x18,0x18,0x00,0x00,0x38,
 0x10,0x08,0x20,0x0c,0x00,0x00,0x04,0x00,0x00,0x40,0x80,0x00,0x00,0x40,0x00,
 0x00,0xc0,0x81,0x10,0x90,0x40,0x20,0x08,0x04,0x08,0x0e,0x02,0x0c,0x0c,0x00,
 0x00,0x28,0x10,0x04,0x10,0x04,0x00,0x00,0x06,0x00,0x00,0x40,0x40,0x00,0x00,
 0x60,0x00,0x00,0x40,0x81,0x20,0xa0,0x40,0x20,0x08,0x04,0x08,0x0e,0x02,0x06,
 0x04,0x00,0x00,0x28,0x10,0x02,0x08,0x02,0x00,0x00,0x02,0x00,0x00,0x20,0x20,
 0x00,0x00,0x20,0x00,0x00,0x40,0x81,0x60,0xe0,0x40,0x20,0x08,0x04,0x08,0x0e,
 0x00,0x03,0x04,0x00,0x00,0x2c,0x10,0x01,0x04,0x02,0x00,0x00,0x02,0x00,0x00,
 0x20,0x30,0x00,0x00,0x20,0x00,0x00,0x20,0x81,0x40,0xc0,0x40,0x20,0x08,0x04,
 0x08,0x0e,0x80,0x01,0x04,0x00,0x00,0x26,0x90,0x00,0x02,0x02,0x00,0x00,0x01,
 0x00,0x00,0x60,0x10,0x00,0x00,0x20,0xf0,0xff,0x1f,0x81,0xc0,0xc0,0x40,0x20,
 0x00,0x04,0x08,0x0e,0xc2,0x00,0x04,0xfe,0xff,0x21,0x50,0x00,0x01,0x02,0xff,
 0xff,0x00,0x00,0x00,0x40,0x20,0x00,0x00,0x20,0xf0,0xff,0x0f,0x81,0x80,0x80,
 0x40,0x20,0x00,0x04,0x08,0x0e,0x66,0x00,0x04,0xfe,0xff,0x33,0x30,0x80,0x00,
 0x82,0xff,0x7f,0x00,0x00,0x00,0x40,0xc0,0xff,0xff,0x27,0xf0,0xff,0xff,0x81,
 0x00,0x01,0x40,0x20,0x00,0x04,0x08,0x0e,0x3e,0x00,0x04,0x00,0x00,0x00,0x10,
 0x40,0x00,0x02,0xfe,0xff,0x01,0x00,0x00,0x40,0x00,0x00,0x00,0x28,0x00,0x00,
 0x00,0x80,0x00,0x01,0x40,0x20,0x00,0x04,0x08,0x0e,0x02,0x00,0x04,0x00,0x00,
 0x00,0x10,0x20,0x00,0x02,0x00,0x00,0x02,0x00,0x00,0x80,0x00,0x00,0x00,0x38,
 0x00,0x00,0x00,0x80,0x00,0x02,0x40,0x20,0x00,0x04,0x08,0x0e,0x02,0x00,0x04,
 0x00,0x00,0x00,0x00,0x10,0x00,0x02,0x00,0x00,0x02,0x00,0x00,0x80,0x01,0x00,
 0x00,0x50,0x00,0x00,0x00,0x40,0x00,0x06,0x20,0x40,0x00,0x04,0x08,0x0e,0x02,
 0x00,0x04,0x00,0x00,0x00,0x08,0x08,0x00,0x02,0x00,0x00,0x02,0x00,0x00,0x00,
 0x03,0x00,0x00,0xd0,0x00,0x00,0x00,0x40,0x00,0x04,0x20,0x40,0x00,0x02,0x08,
 0x0e,0x02,0x00,0x08,0x00,0x00,0x00,0x1c,0x04,0x00,0x04,0x00,0x00,0x02,0x00,
 0x00,0x00,0x06,0x00,0x00,0x88,0x01,0x00,0x00,0x30,0x00,0x08,0x10,0xc0,0x00,
 0x03,0x18,0x0a,0x03,0x00,0x18,0x00,0x00,0x00,0x36,0x03,0x00,0x08,0x00,0x00,
 0x03,0x00,0x00,0x00,0xf8,0xff,0xff,0x0f,0xff,0xff,0xff,0x1f,0x00,0x30,0x0c,
 0x80,0x81,0x01,0xf0,0xf1,0x01,0x00,0xe0,0xff,0xff,0xff,0xe1,0x01,0x00,0xf0,
 0xff,0xff,0x01,0x00,0x00,0x00,0x00,0x00,0x00,0x00,0x00,0x00,0x00,0x00,0x00,
 0xc0,0x03,0x00,0x7e,0x00,0x00,0x00,0x00,0x00,0x00,0x00,0x00,0x00,0x00,0x00,
 0x00,0x00,0x00,0x00,0x00,0x00,0x00,0x00,0x00,0x00,0x00,0x00,0x00,0x00,0x00,
 0x00,0x00,0x00,0x00,0x00,0x00,0x00,0x00,0x00,0x00,0x00,0x00,0x00,0x00,0x00,
 0x00,0x00,0x00,0x00,0x00,0x00,0x00,0x00,0x00,0x00,0x00,0x00,0x00,0x00,0x00,
 0x00,0x00,0x00,0x00,0x00,0x00,0x00,0x00,0x00,0x00,0x00,0x00,0x00,0x00,0x00,
 0x00,0x00,0x00,0x00,0x00,0x00,0x00,0x00,0x00,0x00,0x00,0x00,0x00,0x00,0x00,
 0x00,0x00,0x00,0x00,0x00,0x00,0x00,0x00,0x00,0x00,0x00,0x00,0x00,0x00,0x00,
 0x00,0x00,0x00,0x00,0x00,0x00,0x00,0x00,0x00,0x00,0x00,0x00,0x00,0x00,0x00,
 0x00,0x00,0x00,0x00,0x00,0x00,0x00,0x00,0x00,0x00,0x00,0x00,0x00,0x00,0x00,
 0x00,0x00,0x00,0x00,0x00,0x00,0x80,0xfc,0x00,0x00,0x00,0x4c,0x00,0x00,0x00,
 0x00,0x00,0x00,0x00,0x00,0x00,0x00,0x00,0x00,0x00,0x00,0x00,0x00,0x00,0x00,
 0x00,0x00,0x00,0x00,0x00,0x00,0x00,0x00,0xc0,0x8c,0x01,0x00,0x00,0xce,0x00,
 0x00,0x00,0x00,0x00,0x00,0x00,0x00,0x00,0x00,0x00,0x00,0x00,0x00,0x00,0x00,
 0x00,0x00,0x00,0x00,0x00,0x00,0x00,0x00,0x00,0x00,0x40,0x8c,0x01,0x00,0x00,
 0x8f,0x00,0x00,0x00,0x00,0x00,0x00,0x00,0x00,0x00,0x00,0x00,0x00,0x00,0x00,
 0x00,0x00,0x00,0x00,0x00,0x00,0x00,0x00,0x00,0x00,0x00,0x00,0x60,0x8c,0x79,
 0x46,0x00,0x8d,0x01,0x00,0x00,0x00,0x00,0x00,0x00,0x00,0x00,0x00,0x00,0x00,
 0x00,0x00,0x00,0x00,0x00,0x00,0x00,0x00,0x00,0x00,0x00,0x00,0x00,0x00,0x60,
 0xfc,0x8c,0x66,0x80,0x8c,0x01,0x00,0x00,0x00,0x00,0x00,0x00,0x00,0x00,0x00,
 0x00,0x00,0x00,0x00,0x00,0x00,0x00,0x00,0x00,0x00,0x00,0x00,0x00,0x00,0x00,
 0x00,0x60,0x4c,0xfc,0x24,0xc0,0x8c,0x01,0x00,0x00,0x00,0x00,0x00,0x00,0x00,
 0x00,0x00,0x00,0x00,0x00,0x00,0x00,0x00,0x00,0x00,0x00,0x00,0x00,0x00,0x00,
 0x00,0x00,0x00,0x60,0xcc,0x0c,0x3c,0xc0,0x9f,0x01,0x00,0x00,0x00,0x00,0x00,
 0x00,0x00,0x00,0x00,0x00,0x00,0x00,0x00,0x00,0x00,0x00,0x00,0x00,0x00,0x00,
 0x00,0x00,0x00,0x00,0x00,0x60,0x8c,0x8d,0x18,0x03,0x8c,0x01,0x00,0x00,0x00,
 0x00,0x00,0x00,0x00,0x00,0x00,0x00,0x00,0x00,0x00,0x00,0x00,0x00,0x00,0x00,
 0x00,0x00,0x00,0x00,0x00,0x00,0x00,0x40,0x8c,0x71,0x18,0x03,0x8c,0x00,0x00,
 0x00,0x00,0x00,0x00,0x00,0x00,0x00,0x00,0x00,0x00,0x00,0x00,0x00,0x00,0x00,
 0x00,0x00,0x00,0x00,0x00,0x00,0x00,0x00,0x00,0xc0,0x00,0x00,0x00,0x00,0xc0,
 0x00,0x00,0x00,0x00,0x00,0x00,0x00,0x00,0x00,0x00,0x00,0x00,0x00,0x00,0x00,
 0x00,0x00,0x00,0x00,0x00,0x00,0x00,0x00,0x00,0x00,0x00,0x80,0x00,0x00,0x00,
 0x00,0x40,0x00,0x00,0x00,0x00,0x00,0x00,0x00,0x00,0x00,0x00,0x00,0x00,0x00,
 0x00,0x00,0x00,0x00,0x00,0x00,0x00,0x00,0x00,0x00,0x00,0x00,0x00,0x00,0x00,
 0x00,0x00,0x00,0x00,0x00,0x00,0x00,0x00,0x00,0x00,0x00,0x00,0x00,0x00,0x00,
 0x00,0x00,0x00,0x00,0x00,0x00,0x00,0x00,0x00,0x00,0x00,0x00,0x00,0x00,0x00,
 0x00,0x00,0x00,0x00,0x00,0x00,0x00,0x00 };
