#define _width 256
#define _height 64
static char _bits[] = {
 0x00,0x00,0x00,0x00,0x00,0x00,0x00,0x00,0x00,0x00,0x00,0x00,0x00,0x00,0x00,
 0x00,0x00,0x00,0x00,0x00,0x00,0x00,0x00,0x00,0x00,0x00,0x1e,0x00,0x00,0x00,
 0x00,0x00,0x00,0xc0,0x7f,0x00,0x00,0x00,0x00,0x00,0x00,0x00,0x00,0x00,0x00,
 0x00,0x00,0x00,0x00,0x00,0x00,0x00,0x00,0x00,0x00,0x00,0x00,0xe0,0x13,0x00,
 0x00,0xff,0x07,0x00,0x00,0xe0,0xff,0x00,0x00,0x00,0x00,0x00,0x00,0x00,0x00,
 0x00,0x00,0x00,0x00,0x00,0x00,0x00,0x00,0x00,0x00,0x00,0x00,0x00,0x00,0x38,
 0x30,0x00,0x80,0xff,0x0f,0x00,0x00,0xf0,0xff,0x01,0x00,0x00,0x00,0x00,0x00,
 0x00,0x00,0x00,0x00,0x00,0x00,0x00,0x00,0x00,0x00,0x00,0x00,0x00,0x00,0x00,
 0x00,0x08,0x20,0x00,0xc0,0xff,0x1f,0x00,0x00,0xf8,0xff,0x03,0x00,0x00,0x00,
 0x00,0x00,0x00,0x00,0x00,0x00,0x00,0x00,0x00,0x00,0x00,0x00,0x00,0x00,0x00,
 0x00,0x00,0x00,0x08,0x20,0x00,0xe0,0xff,0x3f,0x00,0x00,0x3c,0x1e,0x07,0x00,
 0x00,0x00,0x00,0x00,0x00,0x00,0x00,0x00,0x00,0x00,0x00,0x00,0x00,0x00,0x00,
 0x00,0x00,0x00,0x80,0x00,0x08,0x20,0x00,0xe0,0x78,0x3c,0x00,0x00,0x1c,0x0c,
 0x06,0x00,0x00,0x00,0x00,0x00,0x00,0x00,0x00,0x00,0x00,0x00,0x00,0x00,0x00,
 0x00,0x00,0x00,0x00,0x00,0x80,0x01,0x18,0x60,0x00,0x60,0x30,0x38,0x00,0x00,
 0x1c,0x0c,0x06,0x00,0x00,0x00,0x00,0x00,0x00,0x00,0x00,0x00,0x00,0x00,0x00,
 0x00,0x00,0x00,0x00,0x00,0x00,0x00,0x80,0x07,0x10,0x40,0x00,0x60,0x30,0x38,
 0x00,0x00,0x1c,0x8f,0x07,0x00,0x00,0x00,0x00,0x00,0x00,0x00,0x00,0x00,0x00,
 0x00,0x00,0x00,0x00,0x00,0x00,0x00,0x30,0x00,0x80,0x0c,0x10,0x40,0x00,0xe0,
 0xf1,0x38,0x00,0x00,0x1c,0x8f,0x07,0x00,0x00,0x00,0x00,0x00,0x00,0x00,0x00,
 0x00,0x00,0x00,0x00,0x00,0x00,0x00,0x00,0x00,0x70,0x00,0x80,0x19,0x10,0x40,
 0x00,0xe0,0xf1,0x38,0x00,0x00,0x1c,0x8f,0x07,0x00,0x00,0x00,0x00,0x00,0x00,
 0x00,0x00,0x00,0x00,0x00,0x00,0x00,0x00,0x00,0x00,0x00,0xf0,0x00,0x00,0x31,
 0x30,0x40,0x00,0xe0,0x71,0x38,0x00,0x00,0x3c,0x1e,0x07,0x00,0x00,0x00,0x00,
 0x00,0x00,0x00,0x00,0x00,0x00,0x00,0x00,0x00,0x00,0x00,0x00,0x00,0x90,0x00,
 0x00,0xe1,0x20,0x40,0x00,0xe0,0x78,0x3c,0x00,0x00,0x7c,0x3e,0x07,0x00,0x00,
 0x00,0x00,0x00,0x00,0x00,0x00,0x00,0x00,0x00,0x00,0x00,0x00,0x00,0x0c,0x00,
 0x98,0x01,0x00,0x81,0x21,0x40,0x00,0xe0,0x7c,0x3e,0x00,0x00,0xfc,0xff,0x07,
 0x00,0x00,0x00,0x00,0x00,0x00,0x00,0x00,0x00,0x00,0x00,0x00,0x00,0x00,0x00,
 0x0c,0x00,0x18,0x03,0x00,0x01,0x23,0x40,0x00,0xe0,0xff,0x3f,0x00,0x00,0xfc,
 0xff,0x07,0x00,0x00,0x00,0x00,0x00,0x00,0x00,0x00,0x00,0x00,0x00,0x00,0x00,
 0x00,0x00,0x0e,0x00,0x08,0x06,0x00,0x03,0x66,0xc0,0x00,0xe0,0xff,0x3f,0x00,
 0x00,0xfc,0xff,0x07,0x00,0x00,0x00,0x00,0x00,0x00,0x00,0x00,0x00,0x00,0x00,
 0x00,0x00,0x00,0x00,0x0a,0x00,0x08,0x0c,0x00,0x03,0x4c,0x80,0x00,0xe0,0xff,
 0x3f,0x00,0x00,0xfc,0xff,0x07,0x00,0x00,0x00,0x00,0x00,0x00,0x00,0x00,0x00,
 0x00,0x00,0x00,0x00,0x00,0x00,0x1b,0x00,0x0c,0x18,0x00,0x02,0x58,0x80,0x00,
 0xe0,0xff,0x3f,0x00,0x00,0xfc,0xff,0x07,0x00,0x00,0x00,0x00,0x00,0x00,0x00,
 0x00,0x00,0x00,0x00,0x00,0x04,0x00,0x80,0x19,0x00,0x04,0x30,0x00,0x02,0x70,
 0xa0,0x00,0xe0,0xff,0x3f,0x00,0x00,0xfc,0xff,0x07,0x00,0x00,0x00,0x00,0x00,
 0x00,0x00,0x00,0x00,0x00,0x00,0x00,0x1c,0x00,0x80,0x19,0x00,0x06,0x20,0x00,
 0x06,0x60,0xa0,0x01,0xe0,0xff,0x3f,0x00,0x00,0xfc,0xff,0x07,0x00,0x00,0x00,
 0x00,0x00,0x00,0x00,0x00,0x00,0x00,0x00,0x00,0x3c,0x00,0xc0,0x10,0x00,0x06,
 0x60,0x00,0x06,0x40,0x20,0x01,0xe0,0xff,0x3f,0x00,0x00,0xfc,0xff,0x07,0x00,
 0x00,0x00,0x00,0x00,0x00,0x00,0x00,0x00,0x00,0x00,0x00,0x68,0x00,0x40,0x10,
 0x00,0x06,0xc0,0x00,0x04,0x00,0x60,0x01,0xe0,0xff,0x3f,0x00,0x00,0xfc,0xff,
 0x07,0x00,0x00,0x00,0x00,0x00,0x00,0x00,0x00,0xf0,0x01,0x00,0x00,0xc8,0x01,
 0x60,0x10,0x00,0x02,0x80,0x01,0x04,0x00,0x40,0x01,0xe0,0xff,0x3f,0x00,0x00,
 0xfc,0xff,0x07,0x00,0x00,0x00,0x00,0x00,0x00,0x00,0x00,0xbe,0x0f,0x00,0x00,
 0x08,0x03,0x20,0x30,0x00,0x03,0x00,0x03,0x04,0x00,0x40,0x01,0xe0,0xff,0x3f,
 0x00,0x00,0xec,0xfb,0x06,0x00,0x00,0x00,0x00,0x00,0x00,0x00,0x80,0x07,0x18,
 0x00,0x00,0x18,0x06,0x30,0x20,0x00,0x81,0x43,0x06,0x04,0x00,0x40,0x01,0x60,
 0xdf,0x37,0x00,0x00,0xc4,0x71,0x04,0x00,0x00,0x00,0x00,0x00,0x00,0x00,0xe0,
 0x00,0x70,0x00,0x00,0x18,0x1c,0x18,0x20,0x80,0x81,0x83,0x0c,0x0c,0x00,0x70,
 0x01,0x20,0x8e,0x23,0x00,0x00,0x80,0x20,0x00,0x00,0x00,0x00,0x00,0x00,0x00,
 0x00,0x30,0x00,0xc0,0x00,0x00,0x18,0x30,0x18,0x20,0x80,0x01,0x01,0x09,0x0c,
 0xc0,0x1f,0x01,0x00,0x04,0x01,0x00,0x00,0x00,0x00,0x00,0x00,0x00,0x00,0x00,
 0x00,0x00,0x00,0x18,0x00,0x80,0x01,0x00,0x10,0xe0,0x0c,0x20,0x80,0x01,0x00,
 0x1a,0x08,0x70,0xc0,0x01,0x00,0x00,0x00,0x00,0x00,0x00,0x00,0x00,0x00,0x00,
 0x00,0x00,0x00,0x00,0x00,0x0c,0x00,0xc0,0x00,0x00,0x10,0x80,0x05,0x60,0x80,
 0x00,0x00,0x34,0x08,0x00,0x7f,0x00,0x00,0x00,0x00,0x00,0x00,0x00,0x00,0x00,
 0x00,0x00,0x00,0x00,0x00,0x01,0x00,0x04,0x00,0x60,0x00,0x3c,0x10,0x00,0x07,
 0x68,0xc0,0x00,0x00,0x68,0x08,0xf0,0x01,0x00,0x00,0x00,0x00,0x00,0x00,0x00,
 0x00,0x00,0x00,0x00,0x00,0x00,0x00,0x03,0x00,0x06,0x00,0x30,0xc0,0x27,0x30,
 0x00,0x02,0x68,0xc0,0x00,0x00,0x4e,0xc8,0x1f,0x00,0x00,0x00,0x00,0x00,0x00,
 0x00,0x00,0x00,0x00,0x00,0x00,0x00,0x00,0x80,0x07,0x00,0x03,0x00,0x18,0x70,
 0x60,0x30,0x00,0x00,0x48,0x40,0x00,0xe0,0xc3,0x79,0x00,0x00,0x00,0x00,0x00,
 0x00,0x00,0x00,0x00,0x00,0x00,0x00,0x00,0x00,0x00,0x80,0x0d,0x00,0x01,0x00,
 0x0c,0x30,0x40,0x30,0x00,0x00,0x48,0x60,0x00,0x00,0xf8,0x01,0x00,0x00,0x00,
 0x00,0x00,0x00,0x00,0x00,0x00,0x00,0x00,0x00,0x00,0xfe,0x03,0x80,0x08,0x00,
 0x01,0x00,0x06,0x20,0x70,0x20,0x00,0x00,0x58,0x60,0x00,0xf0,0x1f,0x00,0x00,
 0x00,0x00,0x00,0x00,0x00,0x00,0x00,0x00,0x00,0x00,0x00,0xe0,0x8f,0x07,0x80,
 0x18,0x80,0x01,0x00,0x03,0x20,0x1f,0x60,0x00,0x00,0x50,0x20,0x80,0x7f,0x00,
 0x00,0x00,0x00,0x00,0x00,0x00,0x00,0x00,0x00,0x00,0x00,0x00,0x00,0x7f,0x00,
 0x1c,0xc0,0x30,0x80,0x01,0x80,0x01,0xe0,0x01,0x60,0x00,0x00,0xd0,0x30,0xfc,
 0x00,0x00,0x00,0x00,0x00,0x00,0x00,0x00,0x00,0x00,0x00,0x00,0x00,0x00,0xe0,
 0x07,0x00,0x18,0xc0,0x60,0x80,0x00,0xc0,0x00,0x00,0x00,0x60,0x00,0x00,0xde,
 0xf0,0x1f,0x00,0x00,0x00,0x00,0x00,0x00,0x00,0x00,0x00,0x00,0x00,0x00,0x00,
 0x00,0x70,0x00,0x00,0x30,0x60,0xc0,0x80,0x00,0x40,0x00,0x00,0x00,0x40,0x00,
 0x80,0x83,0xf0,0x00,0x00,0x00,0x00,0x00,0x00,0x00,0x00,0x00,0x00,0x00,0x00,
 0x00,0x00,0x00,0x30,0x00,0x00,0x60,0x60,0x80,0x81,0x00,0xc0,0xff,0x1f,0x00,
 0x40,0x00,0x00,0x80,0x00,0x00,0x00,0x00,0x00,0x00,0x00,0x00,0x00,0x00,0x00,
 0x00,0xe0,0x3f,0x00,0x00,0x20,0x00,0x00,0x40,0x20,0x00,0x81,0x01,0x00,0x00,
 0x18,0x00,0xc0,0x00,0x80,0xff,0x0f,0x00,0x00,0x00,0x00,0x00,0x00,0x00,0x00,
 0x00,0xfe,0x0f,0xf0,0x7f,0x00,0x00,0x20,0x00,0x00,0x58,0x20,0x00,0x83,0x01,
 0x00,0xfe,0x1b,0x00,0xc0,0x00,0xfe,0xe0,0x38,0x1e,0x00,0x00,0x3e,0x00,0x00,
 0x00,0x00,0x00,0xff,0x1f,0xf8,0xff,0x00,0x00,0x60,0x00,0x0c,0x50,0x30,0x00,
 0x06,0x01,0x00,0x00,0x0a,0x00,0xc0,0xf0,0x07,0x38,0xc0,0xf2,0x00,0xef,0x23,
 0xf8,0x07,0x00,0x00,0x80,0xff,0x3f,0xfc,0xff,0x01,0x00,0x60,0x00,0x1c,0x48,
 0x30,0x00,0x0c,0x03,0x00,0x00,0x0d,0x00,0x80,0x1f,0x00,0x0e,0x80,0x82,0xff,
 0x19,0xe0,0x0f,0x1c,0x00,0x00,0xc0,0xff,0x7f,0x1e,0x8f,0x03,0x00,0x40,0x00,
 0x0c,0x68,0x10,0x00,0x18,0x02,0x00,0x80,0x04,0x00,0x80,0x01,0x00,0x06,0x80,
 0x03,0x0c,0x10,0x60,0x00,0x30,0x00,0x00,0xc0,0xf1,0x78,0x0e,0x06,0x03,0x00,
 0x40,0x00,0x00,0x68,0x18,0x1c,0x30,0x06,0x00,0x80,0x06,0x00,0x00,0x00,0x00,
 0x03,0x80,0x01,0x0c,0x10,0x60,0x00,0x20,0x00,0x00,0xc0,0x60,0x70,0x0e,0x06,
 0x03,0x00,0xc0,0x00,0x00,0x24,0x18,0x1c,0x24,0x04,0x00,0x40,0x03,0x00,0x00,
 0x00,0x00,0x01,0x00,0x01,0x0a,0x10,0x60,0x00,0x60,0x00,0x00,0xc0,0x60,0x70,
 0x8e,0xc7,0x03,0x00,0xc0,0x00,0x00,0x32,0x08,0x10,0x4c,0x0c,0x00,0x20,0x01,
 0x00,0x00,0x00,0x80,0x01,0x00,0x01,0x0a,0x10,0x60,0x60,0xd0,0x00,0x00,0xc0,
 0xe3,0x71,0x8e,0xc7,0x03,0x00,0xc0,0x00,0xe0,0x19,0x0c,0x00,0x98,0x18,0x00,
 0xc0,0x00,0x00,0x00,0x00,0x80,0x80,0x83,0x01,0x1b,0x10,0x60,0xe0,0x90,0x00,
 0x00,0xc0,0xe3,0x71,0x8e,0xc7,0x03,0x00,0x80,0x00,0x18,0x0c,0x0c,0x00,0x30,
 0x71,0x00,0x60,0x00,0x00,0x00,0x00,0xc0,0x80,0xbf,0x00,0x19,0x10,0x60,0x60,
 0xd8,0x00,0x00,0xc0,0xe3,0x70,0x1e,0x8f,0x03,0x00,0x80,0x00,0xc4,0x07,0x04,
 0x00,0x60,0xc2,0x01,0x3c,0x00,0x00,0x00,0x00,0x40,0xc0,0xff,0x80,0x10,0x30,
 0xc0,0x00,0x4e,0x00,0x00,0xc0,0xf1,0x78,0x3e,0x9f,0x03,0x00,0x80,0x01,0x74,
 0x00,0x06,0x00,0xc0,0x86,0xff,0x07,0x00,0x00,0x00,0x00,0x40,0xe0,0xc7,0x80,
 0x11,0x20,0xc0,0x00,0x70,0x00,0x00,0xc0,0xf9,0x7c,0xfe,0xff,0x03,0x00,0x80,
 0x01,0x34,0x00,0x06,0x00,0x7f,0x04,0xfc,0x01,0x00,0x00,0x00,0x00,0x40,0xc0,
 0x40,0x00,0x17,0x20,0xc0,0x00,0x1e,0x00,0x00,0xc0,0xff,0x7f,0xfe,0xff,0x03,
 0x00,0x00,0x01,0x24,0x00,0x02,0x80,0x01,0x0f,0x00,0x00,0x00,0x00,0x00,0x00,
 0x40,0x00,0x60,0x00,0x7c,0x20,0xc0,0x00,0x73,0x00,0x00,0xc0,0xff,0x7f,0xfe,
 0xff,0x03,0x00,0x00,0x01,0x28,0x00,0x02,0x00,0xfc,0x03,0x00,0x00,0x00,0x00,
 0x00,0x00,0x40,0x00,0x60,0x00,0x70,0x20,0xc0,0x00,0xc0,0x00,0x00,0xc0,0xff,
 0x7f,0xfe,0xff,0x03,0x00,0x00,0x01,0x28,0x00,0x03,0xe0,0x07,0x00,0x00,0x00,
 0x00,0x00,0x00,0x00,0x80,0x00,0x24,0x00,0x20,0x20,0xd0,0x00,0x80,0x01,0x00,
 0xc0,0xff,0x7f,0xfe,0xff,0x03,0x00,0x00,0x03,0x28,0x00,0x81,0x7f,0x00,0x00,
 0x00,0x00,0x00,0x00,0x00,0x00,0x80,0x00,0x27,0x00,0x20,0x00,0xc8,0xc0,0x00,
 0x01,0x00,0xc0,0xff,0x7f,0xfe,0xff,0x03,0x00,0x00,0x03,0x68,0x80,0xf9,0x03,
 0x00,0x00,0x00,0x00,0x00,0x00,0x00,0x00,0x80,0x81,0x31,0x00,0x28,0x00,0xe8,
 0xc1,0x21,0x01,0x00,0xc0,0xff,0x7f,0xfe,0xff,0x03,0x00,0x00,0x03,0x68,0x80,
 0x0e,0x00,0x00,0x00,0x00,0x00,0x00,0x00,0x00,0x00,0x00,0xe1,0x3c,0x00,0x34,
 0x00,0x28,0xc1,0x90,0x01,0x00,0xc0,0xff,0x7f,0xfe,0xff,0x03,0x00,0x00,0xc2,
 0x47,0xc0,0x03,0x00,0x00,0x00,0x00,0x00,0x00,0x00,0x00,0x00,0x00,0x03,0x16,
 0x0c,0x74,0x00,0x26,0x01,0xd0,0x00,0x00,0xc0,0xff,0x7f,0xfe,0xff,0x03,0x00,
 0x00,0x32,0x70,0x00,0x00,0x00,0x00,0x00,0x00,0x00,0x00,0x00,0x00,0x00,0x00,
 0x9e,0x73,0x78,0x56,0xc0,0x13,0x01,0x4c,0x00,0x00,0xc0,0xff,0x7f,0xfe,0xff,
 0x03,0x00,0x00,0x86,0x3f,0x00,0x00,0x00,0x00,0x00,0x00,0x00,0x00,0x00,0x00,
 0x00,0x00,0xf0,0xc0,0xc3,0xdb,0x61,0x18,0xc1,0x63,0x00,0x00,0xc0,0xff,0x7f,
 0xf6,0x7d,0x03,0x00,0x00,0x7e,0x00,0x00,0x00,0x00,0x00,0x00,0x00,0x00,0x00,
 0x00,0x00,0x00,0x00,0x00,0x00,0x1e,0x0a,0x87,0x0f,0x03,0x38,0x00,0x00,0xc0,
 0xbe,0x6f,0xe2,0x38,0x02,0x00,0x00,0x00,0x00,0x00,0x00,0x00,0x00,0x00,0x00,
 0x00,0x00,0x00,0x00,0x00,0x00,0x00,0x00,0xf0,0x09,0x7c,0x00,0x02,0x0e,0x00,
 0x00,0x40,0x1c,0x47,0x40,0x10,0x00,0x00,0x00,0x00,0x00,0x00,0x00,0x00,0x00,
 0x00,0x00,0x00,0x00,0x00,0x00,0x00,0x00,0x00,0x00,0x00,0x0f,0x00,0x00,0xfe,
 0x03,0x00,0x00,0x00,0x08,0x02,0x00,0x00,0x00,0x00,0x00,0x00,0x00,0x00,0x00,
 0x00,0x00,0x00,0x00,0x00,0x00,0x00,0x00,0x00,0x00,0x00,0x00,0x00,0x00,0x00,
 0x00,0x00,0x00,0x00,0x00,0x00,0x00,0x00 };
