#define _width 256
#define _height 64
static char _bits[] = {
 0xff,0x1f,0x00,0x00,0x00,0x00,0x07,0x00,0x00,0xf0,0x03,0x00,0xe0,0x00,0x00,
 0x00,0x00,0xf0,0x03,0x00,0x00,0x00,0x00,0x00,0x00,0x00,0x70,0x00,0x00,0x00,
 0x00,0x1f,0xff,0x1f,0x00,0x00,0x00,0x00,0x07,0x00,0x00,0xf8,0x0f,0x00,0xe0,
 0x00,0x00,0x00,0x00,0xf8,0x0f,0x00,0x00,0x00,0x00,0x00,0x00,0x00,0x70,0x00,
 0x00,0x00,0x80,0x7f,0xe0,0x00,0x00,0x00,0x00,0x00,0x07,0x00,0x00,0x1c,0x1e,
 0x00,0xe0,0x00,0x00,0x00,0x00,0x1c,0x1e,0x00,0x00,0x00,0x00,0x00,0x00,0x00,
 0x70,0x00,0x00,0x00,0xc0,0x71,0xe0,0x00,0x00,0x00,0x00,0x00,0x07,0x00,0x00,
 0x0e,0x3c,0x00,0xe0,0x00,0x00,0x00,0x00,0x0e,0x3c,0x00,0x00,0x00,0x00,0x00,
 0x00,0x00,0x70,0x00,0x00,0x00,0xe0,0xe0,0xe0,0x00,0x00,0x00,0x00,0x00,0x07,
 0x00,0x00,0x0e,0x38,0x00,0xe0,0x00,0x00,0x00,0x00,0x0e,0x38,0x00,0x00,0x00,
 0x00,0x00,0x00,0x00,0x70,0x00,0x00,0x00,0xe0,0xe0,0xe0,0x00,0x7f,0xb8,0x0f,
 0x7c,0xe7,0xc0,0x00,0x07,0x18,0xf8,0xe1,0xc0,0x0f,0xf7,0x00,0x07,0x18,0xf8,
 0xe1,0x3e,0x0f,0xe7,0xc1,0xc1,0xfd,0xc1,0x07,0xf7,0x40,0xe0,0xe0,0x80,0xff,
 0xf8,0x1f,0xfe,0xe7,0xe0,0x00,0x07,0x00,0xfc,0xe3,0xe0,0x1f,0xff,0x00,0x07,
 0x00,0xfc,0xe3,0xff,0x3f,0xff,0xc7,0xc1,0xfd,0xe1,0x1f,0xff,0x00,0xf0,0xe0,
 0x80,0xc1,0x79,0x3c,0x8e,0xe7,0xe0,0x00,0x07,0x00,0x0e,0xe7,0x70,0x38,0x0f,
 0x00,0x07,0x00,0x0e,0xe7,0xf1,0x38,0x0f,0xc7,0xc1,0x71,0x70,0x3c,0x0f,0x00,
 0x70,0xe0,0x00,0xf0,0x39,0x38,0x87,0xc7,0x71,0x00,0x07,0x00,0x07,0xee,0x38,
 0x70,0x07,0x00,0x07,0x00,0x07,0xee,0x70,0x38,0x0f,0xce,0xc1,0x71,0x38,0x38,
 0x07,0x00,0x38,0xe0,0x00,0xff,0x39,0x38,0x07,0xc7,0x71,0x00,0x07,0x00,0x07,
 0xee,0x38,0x70,0x07,0x00,0x07,0x00,0x07,0xee,0x70,0x38,0x07,0xce,0xc1,0x71,
 0xf8,0x3f,0x07,0x00,0x1e,0xe0,0x80,0xcf,0x39,0x38,0x07,0x87,0x33,0x00,0x07,
 0x38,0x07,0xee,0x38,0x70,0x07,0x00,0x07,0x38,0x07,0xee,0x70,0x38,0x07,0xce,
 0xc1,0x71,0xf8,0x3f,0x07,0x00,0x0f,0xe0,0xc0,0xc1,0x39,0x38,0x07,0x87,0x3b,
 0x00,0x0f,0x38,0x07,0xee,0x38,0x70,0x07,0x00,0x0f,0x38,0x07,0xee,0x70,0x38,
 0x07,0xce,0xc1,0x71,0x38,0x00,0x07,0x80,0x07,0xe0,0xc0,0xc1,0x39,0x38,0x07,
 0x07,0x1b,0x00,0x0e,0x1c,0x07,0xee,0x38,0x70,0x07,0x00,0x0e,0x1c,0x07,0xee,
 0x70,0x38,0x0f,0xce,0xc1,0x71,0x38,0x30,0x07,0xc0,0x03,0xe0,0xc0,0xe1,0x39,
 0x38,0x8e,0x07,0x1f,0x00,0x1e,0x1e,0x0e,0xe7,0x70,0x38,0x07,0x00,0x1e,0x1e,
 0x0e,0xe7,0x70,0x38,0x0f,0xc7,0xe3,0x71,0x70,0x38,0x07,0xc0,0x01,0xe0,0x80,
 0xff,0x3b,0x38,0xfe,0x07,0x1f,0x00,0xfc,0x0f,0xfc,0xe3,0xe0,0x1f,0x07,0x00,
 0xfc,0x0f,0xfc,0xe3,0x70,0x38,0xff,0x87,0xff,0xf1,0xe3,0x1f,0x07,0xe0,0xff,
 0xe0,0x00,0x8f,0x39,0x38,0x78,0x07,0x0e,0x00,0xf0,0x03,0xf8,0xe1,0xc0,0x0f,
 0x07,0x00,0xf0,0x03,0xf8,0xe1,0x70,0x38,0xe7,0x01,0xcf,0xe1,0xc3,0x0f,0x07,
 0xc0,0xff,0x00,0x00,0x00,0x00,0x00,0x00,0x00,0x0e,0x00,0x00,0x00,0x00,0x00,
 0x00,0x00,0x00,0x00,0x00,0x00,0x00,0x00,0x00,0x00,0x07,0x00,0x00,0x00,0x00,
 0x00,0x00,0x00,0x00,0x00,0x00,0x00,0x00,0x00,0x00,0x00,0x07,0x00,0x00,0x00,
 0x00,0x00,0x00,0x00,0x00,0x00,0x00,0x00,0x00,0x00,0x00,0x00,0x07,0x00,0x00,
 0x00,0x00,0x00,0x00,0x00,0x00,0x00,0x00,0x00,0x00,0x00,0x00,0xe0,0x07,0x00,
 0x00,0x00,0x00,0x00,0x00,0x00,0x00,0x00,0x00,0x00,0x00,0x00,0x00,0x00,0x07,
 0x00,0x00,0x00,0x00,0x00,0x00,0x00,0x00,0x00,0x00,0x00,0x00,0x00,0x00,0xe0,
 0x03,0x00,0x00,0x00,0x00,0x00,0x00,0x00,0x00,0x00,0x00,0x00,0x00,0x00,0x00,
 0x00,0x07,0x00,0x00,0x00,0x00,0x00,0x00,0x00,0x00,0x00,0x00,0x00,0x00,0x00,
 0x00,0x00,0x00,0x00,0x00,0x00,0x00,0x00,0x00,0x00,0x00,0x00,0x00,0x00,0x00,
 0x00,0x00,0x00,0x00,0x00,0x00,0x00,0x00,0x00,0x00,0x00,0x00,0x00,0x00,0x00,
 0x00,0x00,0x00,0x00,0x00,0x00,0x00,0x00,0x00,0x00,0x00,0x00,0x00,0x00,0x00,
 0x00,0x00,0x00,0x00,0x00,0x00,0x00,0x00,0x00,0x00,0x00,0x00,0x00,0x00,0x00,
 0x00,0x00,0x00,0x00,0x00,0x00,0x00,0x00,0x00,0x00,0x00,0x00,0x00,0x00,0x00,
 0x00,0x00,0x00,0x00,0x00,0x80,0x81,0x1f,0x00,0x00,0xf0,0x03,0x00,0x00,0x1f,
 0x0c,0x00,0x00,0x00,0x00,0x00,0x00,0x00,0x00,0x00,0x00,0x00,0x00,0x00,0x00,
 0x00,0x00,0x00,0x00,0x00,0x00,0x00,0xc0,0xc0,0x7f,0x00,0x00,0xf8,0x0f,0x00,
 0x80,0x7f,0x18,0x00,0x00,0x00,0x1f,0x00,0x00,0x00,0x00,0x00,0x00,0x00,0x00,
 0x00,0x00,0x00,0x00,0x00,0x00,0x00,0x00,0x00,0xe0,0xe0,0xf0,0x00,0x00,0x1c,
 0x1e,0x00,0xc0,0x71,0x38,0x00,0x00,0x80,0x3f,0x00,0x00,0x00,0x00,0x00,0x00,
 0x00,0x00,0x00,0x00,0x00,0x00,0x00,0x00,0x00,0x00,0x00,0x60,0x70,0xe0,0x01,
 0x00,0x0e,0x3c,0x00,0xe0,0xe0,0x30,0x00,0x00,0xc0,0x71,0x00,0x00,0x00,0x00,
 0x00,0x00,0x00,0x00,0x00,0x00,0x00,0x00,0x00,0x00,0x00,0x00,0x00,0x70,0x70,
 0xc0,0x01,0x00,0x0e,0x38,0x00,0xe0,0xe0,0x70,0x00,0x00,0xc0,0x71,0x00,0x00,
 0x00,0x00,0x00,0x00,0x00,0x00,0x00,0x00,0x00,0x00,0x00,0x00,0x00,0x00,0x00,
 0x70,0x38,0xc0,0xc0,0x0f,0x07,0x18,0xf8,0x41,0xe0,0x70,0x00,0x00,0xc0,0x71,
 0x00,0x00,0x00,0x00,0x00,0x00,0x00,0x00,0x00,0x00,0x00,0x00,0x00,0x00,0x00,
 0x00,0x00,0x38,0x38,0x00,0xe0,0x1f,0x07,0x00,0xfc,0x03,0xf0,0xe0,0x00,0x00,
 0x80,0x3b,0x00,0x00,0x00,0x00,0x00,0x00,0x00,0x00,0x00,0x00,0x00,0x00,0x00,
 0x00,0x00,0x00,0x00,0x38,0x38,0x00,0x70,0x38,0x07,0x00,0x0e,0x07,0x70,0xe0,
 0x00,0x00,0x80,0x1f,0x00,0x00,0x00,0x00,0x00,0x00,0x00,0x00,0x00,0x00,0x00,
 0x00,0x00,0x00,0x00,0x00,0x00,0x38,0x38,0x00,0x38,0x70,0x07,0x00,0x07,0x0e,
 0x38,0xe0,0x00,0x00,0x80,0x07,0x00,0x00,0x00,0x00,0x00,0x00,0x00,0x00,0x00,
 0x00,0x00,0x00,0x00,0x00,0x00,0x00,0x00,0x38,0x38,0x00,0x38,0x70,0x07,0x00,
 0x07,0x0e,0x1e,0xe0,0x00,0x00,0xe0,0x8f,0x03,0x00,0x00,0x00,0x00,0x00,0x00,
 0x00,0x00,0x00,0x00,0x00,0x00,0x00,0x00,0x00,0x00,0x38,0x38,0xc0,0x39,0x70,
 0x07,0x38,0x07,0x0e,0x0f,0xe0,0x00,0x00,0xe0,0x9c,0x03,0x00,0x00,0x00,0x00,
 0x00,0x00,0x00,0x00,0x00,0x00,0x00,0x00,0x00,0x00,0x00,0x00,0x38,0x78,0xc0,
 0x39,0x70,0x0f,0x38,0x07,0x8e,0x07,0xe0,0x00,0x00,0x70,0xfc,0x01,0x00,0x00,
 0x00,0x00,0x00,0x00,0x00,0x00,0x00,0x00,0x00,0x00,0x00,0x00,0x00,0x00,0x38,
 0x70,0xe0,0x38,0x70,0x0e,0x1c,0x07,0xce,0x03,0xe0,0x00,0x00,0x70,0xf8,0x01,
 0x00,0x00,0x00,0x00,0x00,0x00,0x00,0x00,0x00,0x00,0x00,0x00,0x00,0x00,0x00,
 0x00,0x38,0xf0,0xf0,0x70,0x38,0x1e,0x1e,0x0e,0xc7,0x01,0xe0,0x00,0x00,0x70,
 0xf0,0x01,0x00,0x00,0x00,0x00,0x00,0x00,0x00,0x00,0x00,0x00,0x00,0x00,0x00,
 0x00,0x00,0x00,0x70,0xe0,0x7f,0xe0,0x1f,0xfc,0x0f,0xfc,0xe3,0xff,0x70,0x00,
 0x00,0xe0,0xf8,0x03,0x00,0x00,0x00,0x00,0x00,0x00,0x00,0x00,0x00,0x00,0x00,
 0x00,0x00,0x00,0x00,0x00,0x70,0x80,0x1f,0xc0,0x0f,0xf0,0x03,0xf8,0xc1,0xff,
 0x70,0x00,0x00,0xe0,0xbf,0x07,0x00,0x00,0x00,0x00,0x00,0x00,0x00,0x00,0x00,
 0x00,0x00,0x00,0x00,0x00,0x00,0x00,0x60,0x00,0x00,0x00,0x00,0x00,0x00,0x00,
 0x00,0x00,0x30,0x00,0x00,0x80,0x1f,0x07,0x00,0x00,0x00,0x00,0x00,0x00,0x00,
 0x00,0x00,0x00,0x00,0x00,0x00,0x00,0x00,0x00,0xe0,0x00,0x00,0x00,0x00,0x00,
 0x00,0x00,0x00,0x00,0x38,0x00,0x00,0x00,0x00,0x00,0x00,0x00,0x00,0x00,0x00,
 0x00,0x00,0x00,0x00,0x00,0x00,0x00,0x00,0x00,0x00,0x00,0xc0,0x00,0x00,0x00,
 0x00,0x00,0x00,0x00,0x00,0x00,0x18,0x00,0x00,0x00,0x00,0x00,0x00,0x00,0x00,
 0x00,0x00,0x00,0x00,0x00,0x00,0x00,0x00,0x00,0x00,0x00,0x00,0x00,0x80,0x01,
 0x00,0x00,0x00,0x00,0x00,0x00,0x00,0x00,0x0c,0x00,0x00,0x00,0x00,0x00,0x00,
 0x00,0x00,0x00,0x00,0x00,0x00,0x00,0x00,0x00,0x00,0x00,0x00,0x00,0x00,0x00,
 0x00,0x00,0x00,0x00,0x00,0x00,0x00,0x00,0x00,0x00,0x00,0x00,0x00,0x00,0x00,
 0x00,0x00,0x00,0x00,0x00,0x00,0x00,0x00,0x00,0x00,0x00,0x00,0x00,0x00,0x00,
 0x00,0x00,0x00,0x00,0x00,0x00,0x00,0x00,0x00,0x00,0x00,0x00,0x00,0xff,0x03,
 0x00,0x00,0x00,0x00,0x00,0x00,0x00,0x00,0xe0,0x03,0x7c,0x00,0x60,0x00,0x3c,
 0x00,0x1c,0x00,0x00,0x00,0x00,0x00,0x00,0x00,0x00,0x00,0x00,0x00,0x00,0x00,
 0xff,0x07,0x00,0x00,0x00,0x00,0x00,0x00,0x00,0x00,0xf0,0x07,0xfe,0x01,0x70,
 0x00,0x7f,0x00,0x1e,0x00,0x00,0x00,0x00,0x00,0x00,0x00,0x00,0x00,0x00,0x00,
 0x00,0x00,0x07,0x0f,0x00,0x00,0x00,0x00,0x00,0x00,0x00,0x00,0x38,0x0e,0xc7,
 0x01,0x70,0x80,0xe3,0x00,0x1f,0x00,0x00,0x00,0x00,0x00,0x00,0x00,0x00,0x00,
 0x00,0x00,0x00,0x00,0x07,0x0e,0x00,0x00,0x00,0x00,0x00,0x00,0x00,0x00,0x1c,
 0x8e,0x83,0x03,0x30,0x80,0xc3,0x00,0x1f,0x00,0x00,0x00,0x00,0x00,0x00,0x00,
 0x00,0x00,0x00,0x00,0x00,0x00,0x07,0x1c,0x00,0x00,0x00,0x00,0x00,0x00,0x00,
 0x00,0x1c,0x8e,0x83,0x03,0x30,0xc0,0xc1,0x80,0x1f,0x00,0x00,0x00,0x00,0x00,
 0x00,0x00,0x00,0x00,0x00,0x00,0x00,0x00,0x07,0x9c,0x7b,0xfc,0x81,0xef,0xe0,
 0x87,0xfb,0x00,0x08,0x0e,0x81,0x03,0x38,0xc0,0x01,0xc0,0x1d,0x00,0x00,0x00,
 0x00,0x00,0x00,0x00,0x00,0x00,0x00,0x00,0x00,0x00,0x07,0x9c,0x7f,0xfe,0xc3,
 0xff,0xf0,0x8f,0xff,0x01,0x00,0x0f,0xc0,0x03,0x38,0xc0,0x3d,0xe0,0x1c,0x00,
 0x00,0x00,0x00,0x00,0x00,0x00,0x00,0x00,0x00,0x00,0x00,0x00,0x07,0x9c,0x07,
 0x06,0xc7,0xf1,0x38,0x9c,0xc7,0x03,0xe0,0x07,0xc0,0x01,0x18,0xc0,0xff,0x70,
 0x1c,0x00,0x00,0x00,0x00,0x00,0x00,0x00,0x00,0x00,0x00,0x00,0x00,0x00,0x07,
 0x9c,0x03,0xc0,0xe7,0xe0,0x1c,0xb8,0x83,0x03,0xe0,0x07,0xe0,0x00,0x18,0xc0,
 0xe3,0x70,0x1c,0x00,0x00,0x00,0x00,0x00,0x00,0x00,0x00,0x00,0x00,0x00,0x00,
 0x00,0x07,0x9c,0x03,0xfc,0xe7,0xe0,0x1c,0xb8,0x83,0x03,0x00,0x0e,0x78,0x00,
 0x1c,0xc0,0xc1,0x39,0x1c,0x00,0x00,0x00,0x00,0x00,0x00,0x00,0x00,0x00,0x00,
 0x00,0x00,0x00,0x07,0x9c,0x03,0x3e,0xe7,0xe0,0x1c,0xb8,0x83,0x03,0x00,0x1c,
 0x3c,0x00,0x1c,0xc0,0xc1,0xf9,0x7f,0x00,0x00,0x00,0x00,0x00,0x00,0x00,0x00,
 0x00,0x00,0x00,0x00,0x00,0x07,0x9e,0x03,0x07,0xe7,0xe0,0x1c,0xb8,0x83,0x03,
 0x0c,0x1c,0x1e,0x00,0x0c,0xc0,0xc1,0xf9,0x7f,0x00,0x00,0x00,0x00,0x00,0x00,
 0x00,0x00,0x00,0x00,0x00,0x00,0x00,0x07,0x8e,0x03,0x07,0xe7,0xe0,0x1c,0xb8,
 0x83,0x03,0x1c,0x1c,0x0f,0x00,0x0c,0x80,0xc1,0x01,0x1c,0x00,0x00,0x00,0x00,
 0x00,0x00,0x00,0x00,0x00,0x00,0x00,0x00,0x00,0x07,0x8f,0x03,0x87,0xc7,0xf1,
 0x38,0x9c,0x83,0x03,0x3c,0x0e,0x07,0x00,0x0e,0x80,0xe3,0x00,0x1c,0x00,0x00,
 0x00,0x00,0x00,0x00,0x00,0x00,0x00,0x00,0x00,0x00,0x00,0xff,0x87,0x03,0xfe,
 0xcf,0xff,0xf0,0x8f,0x83,0x03,0xf8,0x8f,0xff,0x03,0x06,0x00,0xff,0x00,0x1c,
 0x00,0x00,0x00,0x00,0x00,0x00,0x00,0x00,0x00,0x00,0x00,0x00,0x00,0xff,0x83,
 0x03,0x3c,0x86,0xef,0xe0,0x87,0x83,0x03,0xe0,0x03,0xff,0x03,0x06,0x00,0x3e,
 0x00,0x1c,0x00,0x00,0x00,0x00,0x00,0x00,0x00,0x00,0x00,0x00,0x00,0x00,0x00,
 0x00,0x00,0x00,0x00,0xc0,0xe0,0x00,0x00,0x00,0x00,0x00,0x00,0x00,0x00,0x00,
 0x00,0x00,0x00,0x00,0x00,0x00,0x00,0x00,0x00,0x00,0x00,0x00,0x00,0x00,0x00,
 0x00,0x00,0x00,0x00,0x00,0x00,0xe0,0xf0,0x00,0x00,0x00,0x00,0x00,0x00,0x00,
 0x00,0x00,0x00,0x00,0x00,0x00,0x00,0x00,0x00,0x00,0x00,0x00,0x00,0x00,0x00,
 0x00,0x00,0x00,0x00,0x00,0x00,0x00,0x00,0xc0,0x7f,0x00,0x00,0x00,0x00,0x00,
 0x00,0x00,0x00,0x00,0x00,0x00,0x00,0x00,0x00,0x00,0x00,0x00,0x00,0x00,0x00,
 0x00,0x00,0x00,0x00,0x00,0x00,0x00,0x00,0x00,0x00,0x00,0x3f,0x00,0x00,0x00,
 0x00,0x00,0x00,0x00,0x00,0x00,0x00,0x00,0x00,0x00,0x00,0x00,0x00,0x00,0x00,
 0x00,0x00,0x00,0x00,0x00,0x00,0x00,0x00 };
