#define _width 256
#define _height 64
static char _bits[] = {
 0x00,0x00,0x00,0x00,0x00,0x00,0x00,0x00,0x00,0x00,0x00,0x00,0x00,0x00,0x00,
 0x00,0x00,0x00,0x00,0x00,0x00,0x00,0x00,0x00,0x00,0x00,0x00,0x00,0x00,0x00,
 0x00,0x00,0x00,0x00,0x00,0x00,0x00,0x00,0x00,0x00,0x00,0x00,0x00,0x00,0x00,
 0x00,0x00,0x00,0x00,0x00,0x00,0x00,0x00,0x00,0x00,0x00,0x00,0x00,0x00,0x00,
 0x00,0x00,0x00,0x00,0x00,0x00,0x00,0x00,0x00,0x00,0x00,0x00,0x00,0x00,0x00,
 0x00,0x00,0x00,0x00,0x00,0x00,0x00,0x00,0x00,0x00,0x00,0x00,0x00,0x00,0x00,
 0x00,0x00,0x00,0x00,0x00,0x00,0x00,0x00,0x00,0x00,0x00,0x00,0x00,0x00,0x00,
 0x00,0x00,0x00,0x00,0x00,0x00,0x00,0x00,0x00,0x00,0x00,0x00,0x00,0x00,0x00,
 0x00,0x00,0x00,0x00,0x00,0x00,0x00,0x00,0x00,0x00,0x00,0x00,0x00,0x00,0x00,
 0x00,0x00,0x00,0x00,0x00,0x00,0x00,0x00,0x00,0x00,0x00,0x00,0x00,0x00,0x00,
 0x00,0x00,0x00,0x00,0x00,0x00,0x00,0x00,0x00,0x00,0x00,0x00,0x00,0x00,0xf8,
 0xff,0x1f,0xfc,0xff,0x7f,0xfe,0xff,0x7f,0xfe,0xff,0x7f,0xfe,0xc0,0xbf,0xff,
 0xff,0x8f,0xff,0xff,0xe7,0xff,0xff,0x07,0x00,0x00,0x00,0x00,0x00,0x00,0x00,
 0x00,0x0c,0x00,0x10,0x06,0x00,0x60,0x06,0x00,0x60,0x07,0x00,0x40,0x82,0xc1,
 0xa0,0x01,0x00,0xdc,0x00,0x00,0xec,0x00,0x00,0x0c,0x00,0x00,0x00,0x00,0x00,
 0x00,0x00,0x00,0x06,0x00,0x30,0x03,0x00,0xe0,0x03,0x00,0x40,0x03,0x00,0x40,
 0x02,0xc3,0xe0,0x01,0x00,0xf0,0x00,0x00,0xf8,0x00,0x00,0x18,0x00,0x00,0x00,
 0x00,0x00,0x00,0x00,0x00,0x03,0x00,0x30,0x01,0x00,0xe0,0x03,0x00,0x40,0x03,
 0x00,0x40,0x02,0xc6,0xc0,0x01,0x00,0xe0,0x00,0x00,0xe0,0x00,0x00,0x30,0x00,
 0x00,0x00,0x00,0x00,0x00,0x00,0x80,0x01,0x00,0xb0,0x01,0x00,0xe0,0x01,0x00,
 0x60,0x03,0x00,0x40,0x02,0xc4,0x81,0x01,0x00,0xe0,0x01,0x00,0xc0,0x01,0x00,
 0x60,0x00,0x00,0x00,0x00,0x00,0x00,0x00,0xc0,0x00,0x00,0xb0,0x00,0x00,0xf0,
 0x01,0x00,0x60,0x01,0x00,0x40,0x02,0xcc,0x81,0x01,0x00,0xc0,0x01,0x00,0xc0,
 0x03,0x00,0xc0,0x00,0x00,0x00,0x00,0x00,0x00,0x00,0x60,0x00,0x00,0xf8,0x00,
 0x00,0xf0,0x00,0x00,0x60,0x01,0x00,0x40,0x02,0xd8,0x81,0x03,0x00,0x80,0x03,
 0x00,0x00,0x07,0x00,0x80,0x01,0x00,0x00,0x00,0x00,0x00,0x00,0x30,0x00,0x00,
 0x38,0x00,0x00,0xf0,0x00,0x00,0x60,0x01,0x00,0x40,0x02,0xd0,0x81,0x03,0x00,
 0x80,0x07,0x00,0x00,0x0f,0x00,0x00,0x03,0x00,0x00,0x00,0x00,0x00,0x00,0x18,
 0xf0,0x03,0x3c,0x00,0x00,0xf8,0x00,0x00,0x70,0x01,0x00,0x40,0x02,0xd0,0x81,
 0x03,0x00,0x00,0x07,0xfc,0xff,0x0f,0x00,0x00,0x06,0x00,0x00,0x00,0x00,0x00,
 0x00,0x0c,0xfc,0x03,0x1e,0xf0,0xff,0x7f,0xc0,0xff,0x7f,0x81,0xff,0x7f,0x02,
 0xf0,0x81,0x07,0x7e,0x00,0x0f,0xfc,0xff,0x1f,0xf8,0x1f,0x0c,0x00,0x00,0x00,
 0x00,0x00,0x00,0x06,0xfe,0x01,0x0f,0xf8,0xff,0x7f,0xe0,0xff,0xff,0x81,0xff,
 0x7f,0x02,0xe0,0x01,0x07,0xfe,0x01,0x0f,0xf8,0xff,0x3f,0xf0,0x3f,0x18,0x00,
 0x00,0x00,0x00,0x00,0x00,0x03,0xfe,0x01,0x0f,0xfc,0xff,0x7f,0xe0,0xff,0xff,
 0x80,0xff,0x7f,0x02,0xc0,0x01,0x07,0xfc,0x03,0x0e,0xf8,0xff,0x7f,0xe0,0x3f,
 0x30,0x00,0x00,0x00,0x00,0x00,0x80,0x01,0xff,0x81,0x07,0xfe,0xff,0x3f,0xe0,
 0xff,0xff,0x80,0xff,0x7f,0x02,0xc0,0x03,0x0f,0xfc,0x07,0x1c,0xf0,0xff,0x7f,
 0xc0,0x3f,0x60,0x00,0x00,0x00,0x00,0x00,0xc0,0x80,0xff,0xc0,0x03,0x00,0xc0,
 0x3f,0x00,0x80,0x7f,0x00,0x00,0xfc,0x02,0x80,0x03,0x0e,0xfc,0x0f,0x38,0x00,
 0x00,0xff,0x00,0x00,0xc0,0x00,0x00,0x00,0x00,0x00,0x60,0xc0,0x7f,0xc0,0x03,
 0x00,0xe0,0x1f,0x00,0x80,0x7f,0x00,0x00,0xfc,0x02,0x00,0x03,0x1e,0xf8,0x0f,
 0x38,0x00,0x00,0xfe,0x01,0x00,0x80,0x01,0x00,0x00,0x00,0x00,0x30,0xe0,0x3f,
 0xe0,0x01,0x00,0xe0,0x13,0x00,0x80,0x41,0x00,0x00,0xfc,0x02,0x00,0x02,0x1e,
 0xf8,0x1f,0x78,0x00,0x00,0xfc,0x03,0x00,0x00,0x03,0x00,0x00,0x00,0x00,0x18,
 0xf0,0x3f,0xe0,0x01,0x00,0xf0,0x19,0x00,0x80,0x41,0x00,0x00,0x7c,0x02,0x00,
 0x02,0x1e,0xf0,0x1f,0x70,0x00,0x00,0xf8,0x03,0x00,0x00,0x06,0x00,0x00,0x00,
 0x00,0x0c,0xf8,0x1f,0xf0,0x00,0x00,0xf0,0x0c,0x00,0x80,0x41,0x00,0x00,0x0c,
 0x02,0x00,0x00,0x1e,0xf0,0x1f,0xf0,0x00,0x00,0xf0,0x07,0x00,0x00,0x04,0x00,
 0x00,0x00,0x00,0x06,0xfc,0x0f,0xf8,0x00,0x00,0xf0,0x04,0x00,0x80,0x41,0x00,
 0x00,0x0c,0x02,0x04,0x00,0x1e,0xf0,0x3f,0xf0,0x00,0x00,0xf0,0x07,0x00,0x00,
 0x04,0x00,0x00,0x00,0x00,0x02,0xfc,0x07,0x78,0x00,0x00,0xf8,0x06,0x00,0x80,
 0x61,0x00,0x00,0x0c,0x02,0x0c,0x00,0x1c,0xe0,0x3f,0xe0,0x01,0x00,0xe0,0x0f,
 0x00,0x00,0x04,0x00,0x00,0x00,0x00,0x03,0xfe,0x07,0x3c,0x00,0x00,0xf8,0x02,
 0x00,0xc0,0x61,0x00,0x00,0x0c,0x02,0x0c,0x00,0x1c,0xe0,0x3f,0xe0,0x01,0x00,
 0xc0,0x1f,0x00,0x00,0x06,0x00,0x00,0x00,0x80,0x01,0xff,0x03,0x1e,0x00,0x00,
 0xfc,0x03,0x00,0xc0,0x21,0x00,0x00,0x0c,0x02,0x1c,0x00,0x3c,0xe0,0x7f,0xc0,
 0x03,0x00,0x80,0x3f,0x00,0x00,0x03,0x00,0x00,0x00,0xc0,0x80,0xff,0x01,0x1e,
 0xe0,0xff,0xff,0x03,0xf8,0xff,0x21,0xc0,0xff,0x0f,0x02,0x3c,0x00,0x3c,0xc0,
 0xff,0x80,0x03,0xfc,0xff,0x7f,0x40,0x00,0x06,0x00,0x00,0x00,0x60,0xc0,0xff,
 0x01,0x0f,0xf0,0xff,0xff,0x01,0xfc,0xff,0x21,0xe0,0xff,0x0f,0x02,0x3c,0x00,
 0x78,0xc0,0xff,0x80,0x07,0xfc,0xff,0x7f,0xc0,0x01,0x0c,0x00,0x00,0x00,0x30,
 0xc0,0xff,0x80,0x0f,0xf0,0xff,0x7f,0x01,0xfe,0xff,0x31,0xe0,0xff,0x07,0x02,
 0x3c,0x00,0x78,0xc0,0xff,0x00,0x07,0xf8,0xff,0xff,0x80,0x03,0x18,0x00,0x00,
 0x00,0x10,0xe0,0x7f,0xc0,0x07,0xf8,0xff,0xbf,0x01,0xfe,0xff,0x10,0xe0,0xff,
 0x07,0x02,0x7c,0x00,0x70,0x80,0xff,0x00,0x0f,0xf0,0xff,0xff,0x01,0x0f,0x70,
 0x00,0x00,0x00,0x18,0xe0,0x3f,0xe0,0x03,0xfc,0xff,0xbf,0x00,0xff,0xff,0x10,
 0xe0,0xff,0x0f,0x02,0xfc,0x00,0xf0,0x80,0xff,0x00,0x0f,0xf0,0xff,0xff,0x03,
 0x1e,0xc0,0x00,0x00,0x00,0x0c,0xf0,0x1f,0xe0,0x01,0xfe,0xff,0xdf,0x00,0xff,
 0xff,0x18,0xc0,0xff,0xff,0x02,0xfc,0x00,0xf0,0x00,0x7f,0x00,0x1e,0xe0,0xff,
 0xff,0x03,0x3c,0x80,0x03,0x00,0x00,0x06,0x00,0x00,0xe0,0x01,0x00,0x00,0x58,
 0x80,0xff,0x7f,0x18,0x00,0x00,0x80,0x06,0xfc,0x01,0xe0,0x01,0x00,0x00,0x1c,
 0x00,0x00,0x80,0x07,0xf8,0x00,0x06,0x00,0x00,0x03,0x00,0x00,0xf0,0x00,0x00,
 0x00,0x6c,0x80,0xff,0x7f,0x18,0x00,0x00,0x80,0x04,0xf8,0x01,0xe0,0x01,0x00,
 0x00,0x3c,0x00,0x00,0x00,0x0f,0xf8,0x01,0x0c,0x00,0x80,0x01,0x00,0x00,0xf8,
 0x00,0x00,0x00,0x2c,0x80,0xff,0x7f,0x08,0x00,0x00,0xc0,0x04,0xf8,0x03,0xe0,
 0x01,0x00,0x00,0x38,0x00,0x00,0x00,0x0f,0xf0,0x03,0x18,0x00,0xc0,0x00,0x00,
 0x00,0x7c,0x00,0x00,0x00,0x3e,0xc0,0xff,0x7f,0x08,0x00,0x00,0xc0,0x04,0xf8,
 0x03,0xe0,0x01,0x00,0x00,0x78,0x00,0x00,0x00,0x1e,0xe0,0x07,0x30,0x00,0x60,
 0x00,0x00,0x00,0x3e,0x00,0x00,0x00,0x1f,0xc0,0xff,0x7f,0x08,0x00,0x00,0xc0,
 0x04,0xf8,0x07,0xe0,0x01,0x00,0x00,0x78,0x00,0x00,0x00,0x3c,0xc0,0x1f,0xe0,
 0x00,0x20,0x00,0x00,0x00,0x1e,0x00,0x00,0x00,0x0f,0xe0,0xff,0x7f,0x08,0x00,
 0x00,0xc0,0x04,0xf8,0x0f,0xe0,0x01,0x00,0x00,0xf8,0x00,0x00,0x00,0x78,0x80,
 0x7f,0x80,0x01,0x30,0x00,0x00,0x00,0x1e,0x00,0x00,0x00,0x0f,0xe0,0xff,0x7f,
 0x08,0x00,0x00,0xc0,0x04,0xf8,0x1f,0xc0,0x01,0x00,0x00,0xf8,0x00,0x00,0x00,
 0x78,0x80,0x7f,0x00,0x03,0x1c,0x00,0x00,0x00,0x1f,0x00,0x00,0x00,0x0f,0xe0,
 0x03,0x00,0x08,0x00,0x00,0xc0,0x04,0xf8,0x1f,0xc0,0x03,0x00,0x00,0xfc,0x01,
 0x00,0x00,0xf8,0x00,0xff,0x00,0x06,0x06,0x00,0x00,0xc0,0x0f,0x00,0x00,0x80,
 0x0f,0xf0,0x03,0x00,0x08,0x00,0x00,0xc0,0x04,0xf8,0x1f,0xc0,0x03,0x00,0x00,
 0xfe,0x03,0x00,0x00,0xf0,0x01,0xfe,0x03,0x1c,0x02,0x00,0x00,0xe0,0x07,0x00,
 0x00,0x80,0x07,0xf0,0x01,0x00,0x08,0x00,0x00,0xc0,0x0c,0xd8,0x3f,0xc0,0x03,
 0x00,0x00,0xff,0x07,0x00,0x00,0xf8,0x03,0xfc,0x0f,0x30,0x03,0x00,0x00,0xff,
 0x07,0x00,0x00,0xc0,0xff,0xf0,0x01,0x00,0x08,0x00,0x00,0xc0,0x0c,0xd8,0xff,
 0xff,0x0f,0x00,0xc0,0xff,0x0f,0x00,0x00,0xfc,0x07,0xfc,0x1f,0x60,0xff,0xff,
 0xff,0xff,0xff,0xff,0xff,0xff,0xff,0xff,0x01,0x00,0xfc,0xff,0xff,0xff,0xfc,
 0xdf,0xff,0xff,0xff,0xff,0xff,0xff,0xff,0xff,0xff,0xff,0xff,0xff,0xff,0xff,
 0xff,0xff,0xff,0xff,0xff,0xff,0xff,0xff,0xff,0xff,0x00,0x00,0xfc,0xff,0xff,
 0xff,0xfc,0x9f,0xff,0xff,0xff,0xff,0xff,0xff,0xff,0xff,0xff,0xff,0xff,0xff,
 0xff,0xff,0xff,0xff,0xff,0xff,0xff,0xff,0xff,0xff,0xff,0xff,0x00,0x00,0xfc,
 0xff,0xff,0xff,0xfc,0x9f,0xff,0xff,0xff,0xff,0xff,0xff,0xff,0xff,0xff,0xff,
 0xff,0xff,0xff,0xff,0xff,0xff,0xff,0xff,0xff,0xff,0xff,0xff,0xff,0xff,0x00,
 0x00,0xfc,0xff,0xff,0xff,0xfc,0x1f,0xff,0xff,0xff,0xff,0xff,0xff,0xff,0xff,
 0xff,0xff,0xff,0xff,0xff,0xff,0xff,0xff,0xff,0xff,0xff,0xff,0xff,0xff,0xff,
 0xff,0x00,0x00,0xfc,0xff,0xff,0xff,0xfc,0x1f,0xfe,0xff,0xff,0xff,0xff,0xef,
 0xff,0xff,0xff,0xff,0xff,0xff,0xff,0xff,0xff,0xff,0xff,0xff,0xff,0xff,0xff,
 0xff,0xff,0xff,0x00,0x00,0xfc,0xff,0xff,0xff,0xfc,0x1f,0xfe,0xff,0xff,0xff,
 0xff,0xef,0xff,0xff,0xff,0xff,0xff,0xff,0xff,0xff,0xff,0xff,0xff,0xff,0xff,
 0xff,0xff,0xff,0xfd,0x7f,0x00,0x00,0xfc,0xff,0xff,0xff,0xfc,0x1f,0xfe,0xff,
 0xff,0xff,0xff,0xcf,0xff,0xff,0xff,0xff,0xff,0xff,0xff,0xff,0xff,0xff,0xff,
 0xff,0xff,0xff,0xff,0xff,0xfd,0x7f,0x00,0x00,0xfc,0xff,0xff,0xff,0xfc,0x1f,
 0xfc,0xff,0xff,0xff,0xff,0xcf,0xff,0xff,0xff,0xff,0xff,0xff,0xff,0xff,0xff,
 0xff,0xff,0xff,0xff,0xff,0xff,0xff,0xfc,0x3f,0x00,0x00,0xfc,0xff,0xff,0xff,
 0xfc,0x1f,0xf8,0xff,0xfe,0xff,0xff,0x8f,0xff,0xff,0xff,0xdf,0xff,0x9f,0xff,
 0xff,0xff,0xff,0xff,0xff,0xff,0xff,0xff,0xff,0xfc,0x3f,0x00,0x00,0xfc,0xff,
 0xff,0xff,0xfc,0x1f,0xf0,0xff,0xfe,0xff,0xff,0x0f,0xff,0xff,0xff,0x9f,0xff,
 0x1f,0xff,0xff,0xff,0xff,0xff,0xff,0xfe,0xff,0xff,0xff,0xfc,0x3f,0x00,0x00,
 0xfc,0xff,0xff,0xff,0xfc,0x1f,0xf0,0xff,0xfe,0xff,0xff,0x07,0xff,0xff,0xff,
 0x9f,0xff,0x1f,0xfe,0xff,0xff,0xff,0xff,0xff,0xfe,0xff,0xff,0xff,0xfc,0x3f,
 0x00,0x00,0xfc,0xff,0xff,0xff,0xfc,0x1f,0xe0,0xff,0xfe,0xff,0xff,0x03,0xff,
 0xff,0xff,0x0f,0xff,0x0f,0xfc,0xff,0xff,0xff,0xff,0x1f,0xfe,0xff,0xff,0x7f,
 0xfc,0x1f,0x00,0x00,0xfc,0xff,0xff,0x7f,0xfc,0x1f,0xe0,0x7f,0xfe,0xff,0xff,
 0x00,0xfe,0xff,0xff,0x07,0xfe,0x0f,0xf0,0xff,0xff,0xff,0xff,0x07,0xfe,0xff,
 0xff,0x3f,0x00,0x00,0x00,0x00,0xf8,0xff,0xff,0x3f,0x00,0x00,0x00,0x00,0x00,
 0x00,0x00,0x00,0xfc,0xff,0xff,0x01,0xfc,0x0f,0xe0,0x7f,0x00,0x00,0x00,0x00,
 0x00,0x00,0x00,0x00,0x00,0x00,0x00,0x00,0x00,0x00,0x00,0x00,0x00,0x00,0x00,
 0x00,0x00,0x00,0x00,0x00,0x00,0x00,0x00,0x00,0x00,0x00,0x00,0x00,0x00,0x00,
 0x00,0x00,0x00,0x00,0x00,0x00,0x00,0x00,0x00,0x00,0x00,0x00,0x00,0x00,0x00,
 0x00,0x00,0x00,0x00,0x00,0x00,0x00,0x00,0x00,0x00,0x00,0x00,0x00,0x00,0x00,
 0x00,0x00,0x00,0x00,0x00,0x00,0x00,0x00,0x00,0x00,0x00,0x00,0x00,0x00,0x00,
 0x00,0x00,0x00,0x00,0x00,0x00,0x00,0x00,0x00,0x00,0x00,0x00,0x00,0x00,0x00,
 0x00,0x00,0x00,0x00,0x00,0x00,0x00,0x00,0x00,0x00,0x00,0x00,0x00,0x00,0x00,
 0x00,0x00,0x00,0x00,0x00,0x00,0x00,0x00,0x00,0x00,0x00,0x00,0x00,0x00,0x00,
 0x00,0x00,0x00,0x00,0x00,0x00,0x00,0x00,0x00,0x00,0x00,0x00,0x00,0x00,0x00,
 0x00,0x00,0x00,0x00,0x00,0x00,0x00,0x00,0x00,0x00,0x00,0x00,0x00,0x00,0x00,
 0x00,0x00,0x00,0x00,0x00,0x00,0x00,0x00,0x00,0x00,0x00,0x00,0x00,0x00,0x00,
 0x00,0x00,0x00,0x00,0x00,0x00,0x00,0x00,0x00,0x00,0x00,0x00,0x00,0x00,0x00,
 0x00,0x00,0x00,0x00,0x00,0x00,0x00,0x00 };
