#define _width 256
#define _height 64
static char _bits[] = {
 0x00,0x00,0x00,0x00,0x00,0x00,0x00,0x00,0x00,0x00,0x00,0x00,0x00,0x00,0x00,
 0x00,0x00,0x00,0x00,0x00,0x00,0x00,0x00,0x00,0x00,0x00,0x00,0x00,0x00,0x00,
 0x00,0x00,0x00,0x00,0x00,0x00,0x00,0x00,0x00,0x00,0x00,0x00,0x00,0x00,0x00,
 0x00,0x00,0x00,0x00,0x00,0x00,0x00,0x00,0x00,0x00,0x00,0x00,0x00,0x00,0x00,
 0x00,0x00,0x00,0x00,0x00,0x00,0x00,0x00,0x00,0x00,0x00,0x00,0x00,0x00,0x00,
 0x00,0x00,0x00,0x00,0x00,0x00,0x00,0x00,0x00,0x00,0x00,0x00,0x00,0x00,0x00,
 0x00,0xf8,0x07,0x00,0x00,0x00,0xfe,0xff,0x07,0x00,0xfc,0x7f,0xf8,0xff,0xf9,
 0x7f,0xff,0x07,0xfe,0xff,0xff,0xff,0x07,0xfc,0x03,0xfc,0x0f,0xfe,0xc7,0xff,
 0x07,0xff,0xff,0x0c,0xdc,0xff,0xff,0x07,0x07,0x00,0x3c,0x80,0x0f,0xc0,0x1f,
 0x00,0x1b,0xe0,0x03,0x8c,0xc3,0x0f,0x00,0x18,0x0c,0x06,0x0c,0x07,0x18,0x03,
 0xfc,0x00,0x7c,0x03,0xc0,0x0f,0x7c,0x00,0x00,0x1c,0x03,0x00,0xe0,0xe0,0x00,
 0x00,0x1e,0x00,0x1e,0xe0,0x03,0xcc,0x00,0x0e,0x00,0x18,0x1c,0x03,0x0e,0x06,
 0x38,0x03,0x0e,0x00,0xe0,0x03,0x80,0x0f,0x1c,0x00,0x00,0x70,0x07,0x00,0x80,
 0x3b,0x00,0x00,0x78,0x00,0x3c,0xe0,0x03,0x7e,0x00,0x07,0x00,0x18,0xb8,0x03,
 0x07,0x06,0xf8,0x01,0x07,0x00,0x00,0x07,0x00,0x0f,0x1c,0x00,0x00,0x60,0x07,
 0x00,0x00,0x1f,0x80,0x03,0xe0,0x00,0x38,0xe0,0x03,0x3e,0x80,0x03,0x00,0x18,
 0xf0,0x81,0x03,0x06,0xf8,0x80,0x03,0x70,0x00,0x0e,0x00,0x0e,0x18,0xc0,0x0f,
 0xe0,0x07,0x00,0x00,0x0e,0xc0,0x03,0xc0,0x01,0x38,0xc0,0x01,0x1e,0xc0,0x81,
 0xff,0x1f,0xf0,0xc0,0x01,0x06,0x78,0x80,0x01,0xf8,0x00,0x1c,0x00,0x0c,0x18,
 0xf8,0x7f,0xe0,0x07,0xfc,0x01,0x1c,0xe0,0x0f,0x80,0x03,0x30,0xc0,0x01,0x0e,
 0xf8,0x80,0x01,0x18,0x60,0xe0,0x00,0x06,0x78,0xc0,0x01,0xd8,0x00,0x38,0x00,
 0x08,0x18,0x18,0x60,0xe0,0x06,0x8e,0x03,0x18,0x60,0x0c,0x00,0x03,0x00,0xc0,
 0x00,0x02,0xfc,0x80,0x03,0x30,0x00,0x70,0x00,0x06,0x10,0xe0,0x00,0x9c,0x01,
 0x70,0x00,0x00,0x38,0x18,0xe0,0x73,0x06,0x0c,0x06,0xf8,0x7f,0xfc,0x3f,0x07,
 0x00,0xc0,0x01,0x00,0xde,0x80,0xff,0x7d,0x00,0x30,0x00,0x06,0x00,0x70,0xff,
 0x0f,0xff,0x73,0x00,0x00,0x38,0x18,0xc0,0x7f,0x06,0x1c,0x0e,0xf8,0x03,0x00,
 0x0f,0x07,0x00,0xc0,0x01,0x00,0xc7,0x00,0x00,0xfc,0x01,0x1c,0x00,0x06,0x00,
 0x38,0x3c,0x00,0xe0,0x70,0x00,0x00,0x38,0x1c,0xff,0x3f,0x06,0x1c,0x0e,0x38,
 0x07,0xc0,0x01,0x07,0x00,0xc0,0x00,0x80,0xc3,0x00,0x00,0xdc,0x01,0x0c,0x00,
 0x06,0x00,0x38,0x60,0x00,0x1c,0xe0,0x00,0x00,0x38,0x1c,0x07,0x70,0x06,0x1c,
 0x0c,0x70,0x0c,0xe0,0x00,0x07,0x00,0xc0,0x01,0x80,0xc3,0x00,0x00,0x9c,0x03,
 0x0e,0x00,0x06,0x00,0x38,0xc0,0x03,0x0e,0xe0,0x00,0x00,0x38,0x1c,0x07,0x70,
 0x0e,0x1c,0x0c,0x70,0x0c,0x60,0x00,0x07,0x00,0xc0,0x01,0x00,0xc7,0x01,0xff,
 0x9f,0x03,0x06,0x00,0x06,0x00,0x70,0xc0,0x03,0x0c,0x70,0x00,0x00,0x30,0x0c,
 0x07,0x70,0x0e,0x1c,0x0e,0x38,0xce,0xc3,0x00,0x07,0x00,0xc0,0x01,0x03,0x86,
 0x01,0x03,0x80,0x03,0x06,0x00,0x04,0x00,0xe0,0xc0,0x70,0x0c,0x70,0x00,0x00,
 0x30,0x0c,0x1f,0x70,0x0e,0x7c,0x07,0x38,0x7e,0xbc,0x81,0x03,0x00,0xc0,0x81,
 0x03,0x9c,0x01,0x07,0x80,0x03,0x06,0x00,0x04,0x70,0xc0,0xe1,0x8f,0x1b,0x70,
 0x08,0x00,0x30,0x1c,0x18,0x70,0x0c,0xf8,0x01,0x3c,0x0f,0xe0,0x81,0xc3,0x00,
 0x80,0x81,0x07,0xbc,0x01,0xff,0xff,0x03,0x06,0x00,0x04,0xf0,0x80,0xf3,0x00,
 0x3c,0x38,0x38,0x00,0x30,0xf8,0x0f,0x30,0x0c,0x00,0x00,0x1c,0x00,0x00,0xc0,
 0xc1,0x01,0x80,0x81,0x0f,0xf8,0x01,0x00,0xe0,0x03,0x07,0x00,0x1c,0xf0,0x01,
 0x06,0x00,0x00,0x1c,0x78,0x00,0x30,0x00,0x00,0x30,0x0c,0x00,0x00,0x3f,0x00,
 0x00,0xf0,0xc0,0x01,0x80,0x81,0x1d,0xe0,0x01,0x00,0xe0,0x03,0x07,0x00,0x1c,
 0xf0,0x03,0x0c,0x00,0x00,0x0e,0xf8,0x00,0x70,0x00,0x00,0x30,0x0c,0x00,0x80,
 0xe3,0x00,0x00,0x38,0xc0,0x03,0x80,0xc1,0x19,0xc0,0x01,0x00,0xe0,0x01,0x07,
 0x00,0x1c,0x70,0x06,0x38,0x00,0x80,0x0f,0xf8,0x01,0x70,0x00,0x00,0x30,0x0c,
 0x00,0xf0,0x81,0x07,0x00,0x7f,0xc0,0x07,0x80,0xc1,0x31,0x80,0x03,0x00,0xe0,
 0x01,0x07,0x00,0x1c,0x70,0x0c,0x70,0x00,0xf0,0x0d,0xf0,0x03,0x7e,0x00,0x38,
 0x30,0xf8,0xff,0x3f,0x00,0xfe,0xff,0xe3,0xff,0xff,0xff,0xff,0xe0,0xbf,0xff,
 0xff,0xff,0xff,0x07,0x00,0xfc,0x7f,0xf8,0xff,0xff,0x3f,0xfc,0x7f,0xfe,0xff,
 0xff,0xff,0x3f,0xe0,0x03,0x00,0x00,0xe0,0x3f,0xc0,0x03,0x00,0x00,0x00,0x80,
 0xff,0x01,0x00,0x00,0x00,0x00,0x00,0xe0,0x1f,0x00,0x00,0xfc,0x03,0x00,0x00,
 0x00,0x00,0x00,0xc0,0x1f,0x00,0x00,0x00,0x00,0x00,0x00,0x00,0x00,0x00,0x00,
 0x00,0x00,0x00,0x00,0x00,0x00,0x00,0x00,0x00,0x00,0x00,0x00,0x00,0x00,0x00,
 0x00,0x00,0x00,0x00,0x00,0x00,0x00,0x00,0x00,0x00,0x00,0x00,0x00,0x00,0x00,
 0x00,0x00,0x00,0x00,0x00,0x00,0x00,0x00,0x00,0x00,0x00,0x00,0x00,0x00,0x00,
 0x00,0x00,0x00,0x00,0x00,0x00,0x00,0x00,0x00,0x00,0x00,0x00,0x00,0x00,0x00,
 0x00,0x00,0x00,0x00,0x00,0x00,0x00,0x00,0x00,0x00,0x00,0x00,0xf8,0x07,0x00,
 0x00,0x00,0x00,0x00,0x00,0x00,0x00,0x00,0x00,0x00,0x00,0x00,0x00,0x00,0x00,
 0x00,0x00,0x00,0x00,0x00,0x00,0x00,0xff,0x3f,0xfe,0xff,0xfd,0xf7,0x1f,0xfe,
 0x9f,0xff,0x3f,0x00,0x00,0x00,0x00,0x00,0x00,0x00,0x00,0x00,0x00,0x00,0x00,
 0x00,0x00,0x00,0x00,0x00,0x00,0x00,0x00,0xe0,0xff,0xff,0xff,0xff,0xff,0xff,
 0xbf,0xff,0xff,0xff,0xff,0x00,0x00,0x00,0x00,0x00,0x00,0x00,0x00,0x00,0x00,
 0x00,0x00,0x00,0x00,0x00,0x00,0x00,0x00,0x00,0x00,0xf0,0xff,0xff,0xff,0xff,
 0xff,0xff,0xff,0x07,0xf8,0xff,0xff,0x01,0x00,0x00,0x00,0x00,0x00,0x00,0x00,
 0x00,0x00,0x00,0x00,0x00,0x00,0x00,0x00,0x00,0x00,0x00,0x00,0x70,0xc0,0xc1,
 0x01,0x06,0x06,0x1c,0xf0,0x01,0xf0,0x00,0xc0,0x03,0x00,0x00,0x00,0x00,0x00,
 0x00,0x00,0x00,0x00,0x00,0x00,0x00,0x00,0x00,0x00,0x00,0x00,0x00,0x00,0x30,
 0xc0,0xc1,0x01,0x06,0x06,0x0c,0xf0,0x00,0xe0,0x00,0x00,0x07,0x00,0x00,0x00,
 0x00,0x00,0x00,0x00,0x00,0x00,0x00,0x00,0x00,0x00,0x00,0x00,0x00,0x00,0x00,
 0x00,0x30,0xc0,0xc1,0x01,0x06,0x06,0x0c,0x70,0x00,0xc0,0x01,0x00,0x0e,0x00,
 0x00,0x00,0x00,0x00,0x00,0x00,0x00,0x00,0x00,0x00,0x00,0x00,0x00,0x00,0x00,
 0x00,0x00,0x00,0x30,0xc0,0xc1,0x01,0x06,0x06,0x0c,0x70,0x00,0x80,0x01,0x00,
 0x0e,0x00,0x00,0x00,0x00,0x00,0x00,0x00,0x00,0x00,0x00,0x00,0x00,0x00,0x00,
 0x00,0x00,0x00,0x00,0x00,0x30,0xc0,0xc1,0x01,0x06,0x04,0x0c,0x30,0x00,0x80,
 0x01,0x00,0x0c,0x00,0x00,0x00,0x00,0x00,0x00,0x00,0x00,0x00,0x00,0x00,0x00,
 0x00,0x00,0x00,0x00,0x00,0x00,0x00,0x30,0xc0,0x81,0x01,0x06,0x04,0x0c,0x30,
 0x00,0x80,0x83,0x01,0x0c,0x00,0x00,0x00,0x00,0x00,0x00,0x00,0x00,0x00,0x00,
 0x00,0x00,0x00,0x00,0x00,0x00,0x00,0x00,0x00,0x30,0xc0,0x81,0x01,0x06,0x00,
 0x0c,0x30,0x00,0x00,0x83,0x01,0x0c,0x00,0x00,0x00,0x00,0x00,0x00,0x00,0x00,
 0x00,0x00,0x00,0x00,0x00,0x00,0x00,0x00,0x00,0x00,0x00,0x30,0xc0,0x81,0x01,
 0x06,0x00,0x0c,0x30,0xc0,0x00,0x87,0x01,0x0c,0x00,0x00,0x00,0x00,0x00,0x00,
 0x00,0x00,0x00,0x00,0x00,0x00,0x00,0x00,0x00,0x00,0x00,0x00,0x00,0x30,0xc0,
 0x81,0x01,0x06,0x00,0x0c,0x30,0xe0,0x00,0x07,0x00,0x0c,0x00,0x00,0x00,0x00,
 0x00,0x00,0x00,0x00,0x00,0x00,0x00,0x00,0x00,0x00,0x00,0x00,0x00,0x00,0x00,
 0x30,0xc0,0x81,0x01,0x06,0x00,0x0c,0x30,0xe0,0x01,0x07,0x00,0x0e,0x00,0x00,
 0x00,0x00,0x00,0x00,0x00,0x00,0x00,0x00,0x00,0x00,0x00,0x00,0x00,0x00,0x00,
 0x00,0xff,0x31,0xc0,0x81,0x01,0x06,0x00,0x0c,0x30,0xf0,0x03,0x06,0x00,0x0e,
 0x00,0x00,0x00,0x00,0x00,0x00,0x00,0x00,0x00,0x00,0x00,0x00,0x00,0x00,0x00,
 0x00,0x00,0x80,0xff,0x33,0xc0,0x81,0x01,0x06,0x00,0x0c,0x30,0xff,0x1f,0x06,
 0x00,0x07,0x00,0x00,0x00,0x00,0x00,0x00,0x00,0x00,0x00,0x00,0x00,0x00,0x00,
 0x00,0x00,0x00,0x00,0xc0,0x01,0x33,0xc0,0x81,0x01,0x06,0x00,0x0c,0x30,0xfe,
 0x0f,0x06,0x80,0x03,0x00,0x00,0x00,0x00,0x00,0x00,0x00,0x00,0x00,0x00,0x00,
 0x00,0x00,0x00,0x00,0x00,0x00,0xc0,0x00,0x77,0xc0,0x81,0x01,0x06,0x00,0x0c,
 0x30,0xfc,0x07,0x06,0xe0,0x01,0x00,0x00,0x00,0x00,0x00,0x00,0x00,0x00,0x00,
 0x00,0x00,0x00,0x00,0x00,0x00,0x00,0x00,0xc0,0x00,0x77,0xc0,0x81,0x01,0x06,
 0x00,0x0c,0x30,0xf8,0x07,0x06,0xe0,0x00,0x00,0x00,0x00,0x00,0x00,0x00,0x00,
 0x00,0x00,0x00,0x00,0x00,0x00,0x00,0x00,0x00,0x00,0xc0,0x00,0x77,0xc0,0x81,
 0x01,0x06,0x00,0x0c,0x30,0xf8,0x03,0x06,0xe0,0x00,0x00,0x00,0x00,0x00,0x00,
 0x00,0x00,0x00,0x00,0x00,0x00,0x00,0x00,0x00,0x00,0x00,0x00,0xc0,0x00,0x77,
 0xc0,0x81,0x01,0x06,0x00,0x0c,0x30,0xf8,0x03,0x07,0xe0,0x00,0x00,0x00,0x00,
 0x00,0x00,0x00,0x00,0x00,0x00,0x00,0x00,0x00,0x00,0x00,0x00,0x00,0x00,0xc0,
 0x00,0x76,0xc0,0x81,0x01,0x06,0x00,0x0c,0x30,0xfc,0x07,0x07,0xc0,0x01,0x00,
 0x00,0x00,0x00,0x00,0x00,0x00,0x00,0x00,0x00,0x00,0x00,0x00,0x00,0x00,0x00,
 0x00,0xc0,0x00,0x76,0xc0,0x81,0x01,0x06,0x00,0x0c,0x30,0x0c,0x06,0x07,0xc0,
 0x01,0x00,0x00,0x00,0x00,0x00,0x00,0x00,0x00,0x00,0x00,0x00,0x00,0x00,0x00,
 0x00,0x00,0x00,0xc0,0x01,0x7e,0xc0,0x81,0x01,0x06,0x00,0x0c,0x30,0x00,0x00,
 0x03,0x80,0x03,0x00,0x00,0x00,0x00,0x00,0x00,0x00,0x00,0x00,0x00,0x00,0x00,
 0x00,0x00,0x00,0x00,0x00,0xc0,0x01,0x3e,0xc0,0x81,0x01,0x06,0x00,0x0c,0x30,
 0x00,0x00,0x03,0x80,0x03,0x00,0x00,0x00,0x00,0x00,0x00,0x00,0x00,0x00,0x00,
 0x00,0x00,0x00,0x00,0x00,0x00,0x00,0xc0,0x01,0x1c,0xc0,0x00,0x00,0x06,0x00,
 0x0c,0x30,0x00,0x80,0x03,0x00,0x07,0x00,0x00,0x00,0x00,0x00,0x00,0x00,0x00,
 0x00,0x00,0x00,0x00,0x00,0x00,0x00,0x00,0x00,0x80,0x01,0x00,0xc0,0x00,0x00,
 0x06,0x00,0x0c,0x30,0x00,0x80,0x81,0x00,0x07,0x00,0x00,0x00,0x00,0x00,0x00,
 0x00,0x00,0x00,0x00,0x00,0x00,0x00,0x00,0x00,0x00,0x00,0x80,0x03,0x00,0xe0,
 0x00,0x00,0x07,0x03,0x0c,0x30,0x00,0x80,0x81,0x00,0x0e,0x00,0x00,0x00,0x00,
 0x00,0x00,0x00,0x00,0x00,0x00,0x00,0x00,0x00,0x00,0x00,0x00,0x00,0x00,0x03,
 0x00,0xe0,0x00,0x00,0x03,0x03,0x0c,0x70,0x00,0xc0,0x81,0x01,0x0e,0x00,0x00,
 0x00,0x00,0x00,0x00,0x00,0x00,0x00,0x00,0x00,0x00,0x00,0x00,0x00,0x00,0x00,
 0x00,0x07,0x00,0xf0,0x00,0x80,0x03,0x03,0x0c,0x70,0x00,0xe0,0x80,0x01,0x0c,
 0x00,0x00,0x00,0x00,0x00,0x00,0x00,0x00,0x00,0x00,0x00,0x00,0x00,0x00,0x00,
 0x00,0x00,0x00,0x0e,0x00,0xf8,0x01,0xc0,0x01,0x07,0x0c,0xf0,0x01,0xf0,0x80,
 0x03,0x0c,0x00,0x00,0x00,0x00,0x00,0x00,0x00,0x00,0x00,0x00,0x00,0x00,0x00,
 0x00,0x00,0x00,0x00,0x00,0x1c,0x00,0x9c,0x03,0xe0,0x03,0x87,0x1f,0xf0,0x03,
 0xf8,0xc1,0x07,0x0e,0x00,0x00,0x00,0x00,0x00,0x00,0x00,0x00,0x00,0x00,0x00,
 0x00,0x00,0x00,0x00,0x00,0x00,0x00,0x78,0x00,0x1e,0x0f,0xf0,0xff,0xff,0xff,
 0x9f,0x1f,0xfe,0xff,0xff,0x0f,0x00,0x00,0x00,0x00,0x00,0x00,0x00,0x00,0x00,
 0x00,0x00,0x00,0x00,0x00,0x00,0x00,0x00,0x00,0xf0,0xc1,0x07,0xfe,0x3f,0xff,
 0xfd,0xf7,0x0f,0xff,0x8f,0xff,0xff,0x07,0x00,0x00,0x00,0x00,0x00,0x00,0x00,
 0x00,0x00,0x00,0x00,0x00,0x00,0x00,0x00,0x00,0x00,0x00,0xe0,0xff,0x03,0xf8,
 0x1f,0x00,0x00,0x00,0x00,0xf8,0x07,0x00,0x00,0x00,0x00,0x00,0x00,0x00,0x00,
 0x00,0x00,0x00,0x00,0x00,0x00,0x00,0x00,0x00,0x00,0x00,0x00,0x00,0x00,0x7f,
 0x00,0xc0,0x01,0x00,0x00,0x00,0x00,0x00,0x00,0x00,0x00,0x00,0x00,0x00,0x00,
 0x00,0x00,0x00,0x00,0x00,0x00,0x00,0x00,0x00,0x00,0x00,0x00,0x00,0x00,0x00,
 0x00,0x00,0x00,0x00,0x00,0x00,0x00,0x00,0x00,0x00,0x00,0x00,0x00,0x00,0x00,
 0x00,0x00,0x00,0x00,0x00,0x00,0x00,0x00 };
