#define _width 256
#define _height 64
static char _bits[] = {
 0x00,0x00,0x00,0x00,0x00,0x00,0x00,0x00,0x00,0x00,0x00,0x00,
 0x00,0x00,0x00,0x00,0x00,0x00,0x00,0x00,0x00,0x00,0x00,0x00,
 0x00,0x00,0x00,0x00,0x00,0x00,0x00,0x00,0x00,0x00,0x00,0x00,
 0x00,0x00,0x00,0x00,0x00,0x00,0x00,0x00,0x00,0x00,0x00,0x00,
 0x00,0x00,0x00,0x00,0x00,0x00,0x00,0x00,0x00,0x00,0x00,0x00,
 0x00,0x00,0x00,0x00,0x00,0x00,0x00,0x00,0x00,0x00,0x00,0x00,
 0x00,0x00,0x00,0x00,0x00,0x00,0x00,0x00,0x00,0x00,0x00,0x00,
 0x00,0x00,0x00,0x00,0x00,0x00,0x00,0x00,0x00,0x00,0x00,0x00,
 0x00,0x00,0x00,0x00,0x00,0x00,0x00,0x00,0x00,0x00,0x00,0x00,
 0x00,0x00,0x00,0x00,0x00,0x00,0x00,0x00,0x00,0x00,0x00,0x00,
 0x00,0x00,0x00,0x00,0x00,0x00,0x00,0x00,0x00,0x00,0x00,0x00,
 0x00,0x00,0x00,0x00,0x00,0x00,0x00,0x00,0x00,0x00,0x00,0x00,
 0x00,0x00,0x00,0x00,0x00,0x00,0x00,0x00,0x00,0x00,0x00,0x00,
 0x00,0x00,0x00,0x00,0x00,0x00,0x00,0x00,0x00,0x00,0x00,0x00,
 0x00,0x00,0x00,0x00,0x00,0x00,0x00,0x00,0x00,0x00,0x00,0x00,
 0x00,0x00,0x00,0x00,0x00,0x00,0x00,0x00,0x00,0x00,0x00,0x00,
 0x00,0x00,0x00,0x00,0x00,0x00,0x00,0x00,0x00,0x00,0x00,0x00,
 0x00,0x00,0x00,0x00,0x00,0x00,0x00,0x00,0x00,0x00,0x00,0x00,
 0x00,0x00,0x00,0x00,0x00,0x00,0x00,0x00,0x00,0x00,0x00,0x00,
 0x00,0x00,0x00,0x00,0x00,0x00,0x00,0x00,0x00,0x00,0x00,0x00,
 0x00,0x00,0x00,0x00,0x00,0x00,0x00,0x00,0x00,0x00,0x00,0x00,
 0x00,0x00,0x00,0x00,0x00,0x00,0x00,0x00,0x00,0x00,0x00,0x00,
 0x00,0x00,0x00,0x00,0x00,0x00,0x00,0x00,0x00,0x00,0x00,0x00,
 0x00,0x00,0x00,0x00,0x00,0x00,0x00,0x00,0x00,0x00,0x00,0x00,
 0x00,0x00,0x00,0x00,0x00,0x00,0x00,0x00,0x00,0x00,0x00,0x00,
 0x00,0x00,0x00,0x00,0x00,0x00,0x00,0x00,0x00,0x00,0x00,0x00,
 0x00,0x00,0x80,0x7f,0x00,0x00,0x00,0x00,0x00,0xff,0x07,0x00,
 0x00,0x1e,0x00,0x00,0xc0,0xff,0xfc,0x03,0x00,0x00,0xff,0x8f,
 0x01,0x00,0x00,0x00,0x00,0x00,0x00,0x0f,0x00,0xfc,0xc7,0xff,
 0xf8,0xff,0x07,0x00,0xe0,0xff,0x3f,0x00,0xe0,0xff,0xe1,0xff,
 0xe7,0xff,0xfe,0x0f,0xfc,0xff,0xff,0xff,0x03,0xfe,0x01,0xfe,
 0x83,0xff,0xf1,0xff,0xe0,0xff,0xcf,0xc0,0xfd,0xff,0x3f,0x00,
 0xf0,0xff,0xff,0x00,0xf8,0xff,0xe7,0xff,0x6f,0xc0,0x07,0x1c,
 0xfe,0xff,0x01,0x1c,0x07,0xff,0x87,0xff,0x87,0xff,0xfb,0xff,
 0xe3,0x03,0xcc,0xc0,0x0f,0x00,0x7e,0x00,0x70,0x00,0xe0,0x01,
 0x7c,0x00,0x7f,0x00,0x6c,0xc0,0x07,0x18,0xc7,0x0f,0x00,0x18,
 0x06,0x03,0x86,0x03,0xc6,0x00,0x3f,0x80,0x6f,0x00,0xfc,0xc0,
 0x07,0x00,0xe0,0x00,0x30,0x00,0x80,0x03,0x1e,0x00,0x7c,0x00,
 0x7c,0xc0,0x07,0x18,0x03,0x0c,0x00,0x18,0x0e,0x03,0x86,0x01,
 0xce,0x80,0x0f,0x00,0x7e,0x00,0xf8,0xc0,0x03,0x00,0xc0,0x01,
 0x30,0x00,0x00,0x07,0x07,0x00,0x78,0x00,0x78,0xc0,0x07,0x98,
 0x01,0x0e,0x00,0x18,0x8e,0x01,0x07,0x03,0xce,0x80,0x03,0x00,
 0x7c,0x00,0xf8,0xc0,0x01,0x00,0x80,0x03,0x70,0x00,0x00,0x8e,
 0x03,0x00,0xf0,0x00,0xf8,0xc0,0x07,0xdc,0x01,0x06,0x00,0x18,
 0x8c,0x01,0x03,0x03,0x6e,0x80,0x03,0x00,0x70,0x00,0xf0,0xc0,
 0x01,0x00,0x00,0x03,0x70,0x00,0x00,0xdc,0x01,0x00,0xe0,0x01,
 0xf0,0xc0,0x07,0xfc,0x00,0x07,0x00,0x18,0xdc,0x81,0x03,0x03,
 0x7e,0xc0,0x01,0x00,0xe0,0x00,0xf0,0xc0,0x01,0x00,0x00,0x03,
 0x70,0x00,0x00,0xf8,0x00,0x0c,0xc0,0x01,0xf0,0xc0,0x07,0xfc,
 0x00,0x03,0x00,0x18,0xdc,0x80,0x01,0x03,0x7e,0xc0,0x01,0x0e,
 0xe0,0x01,0xf0,0xc0,0x01,0x00,0x00,0x03,0x70,0x00,0x00,0xf8,
 0x00,0x1c,0x80,0x03,0xe0,0xc0,0x07,0x7c,0x80,0x03,0x00,0x18,
 0xf8,0xc0,0x01,0x03,0x3e,0xe0,0x00,0x0e,0xc0,0x01,0xe0,0x80,
 0x01,0x7c,0x00,0x07,0x70,0x00,0x00,0x70,0x00,0x1e,0x00,0x07,
 0xe0,0xc0,0x03,0x3c,0xc0,0x81,0xff,0x1f,0x78,0xc0,0x00,0x03,
 0x3e,0xe0,0x00,0x0e,0x80,0x03,0xc0,0x80,0x01,0xff,0x01,0x07,
 0x70,0x00,0x00,0x70,0x00,0x1e,0x00,0x07,0xe0,0x80,0x03,0x3c,
 0xc0,0x81,0xff,0x1f,0x78,0xe0,0x00,0x03,0x1e,0x60,0x00,0x1f,
 0x80,0x03,0xc0,0x80,0x81,0xff,0x03,0x07,0x70,0x80,0x03,0xe0,
 0x00,0x3e,0x00,0x06,0xc0,0x80,0x03,0x1c,0xe0,0x80,0x0f,0x00,
 0x70,0xe0,0x00,0x03,0x1e,0x70,0x00,0x1f,0x00,0x07,0xc0,0x80,
 0x81,0x03,0x03,0x07,0x70,0xc0,0x0f,0xe0,0x00,0x3f,0x00,0x0e,
 0xc0,0x80,0x03,0x1c,0xf0,0x80,0x01,0x18,0x30,0x70,0x00,0x03,
 0x1e,0x70,0x00,0x1b,0x00,0x07,0x80,0x80,0x81,0x01,0x03,0x07,
 0x60,0xe0,0x1f,0xe0,0x00,0x37,0x00,0x0e,0x00,0x80,0x01,0x0c,
 0x70,0x80,0x01,0x30,0x30,0x70,0x00,0x03,0x0c,0x38,0x00,0x1b,
 0x00,0x06,0x00,0x80,0x83,0x01,0x03,0x03,0x60,0xe0,0x1c,0xc0,
 0x00,0x23,0x00,0x0c,0x00,0x80,0x01,0x04,0xf8,0x80,0x03,0x30,
 0x00,0x38,0x00,0x03,0x04,0x38,0x80,0x33,0x00,0x0e,0x00,0x80,
 0x83,0x01,0x9f,0x03,0x60,0xe0,0x38,0xc0,0xff,0xe3,0x7f,0x1c,
 0x00,0x80,0x01,0x00,0xf8,0x80,0xff,0x3f,0x00,0x38,0x00,0x03,
 0x00,0xdc,0xff,0xf1,0x7f,0x0e,0x00,0x80,0x83,0x01,0xff,0x03,
 0x60,0xc0,0x30,0xc0,0xff,0xe3,0xff,0x1c,0x00,0x80,0x03,0x00,
 0xdc,0x80,0xff,0x7d,0x00,0x18,0x00,0x03,0x00,0xdc,0xff,0xe1,
 0x7f,0x0e,0x00,0x80,0x83,0x01,0xfe,0x03,0x60,0xc0,0x70,0xc0,
 0xff,0x81,0x7f,0x1c,0x00,0x80,0x03,0x00,0xcc,0x00,0x00,0x7c,
 0x00,0x1c,0x00,0x03,0x00,0x8c,0xff,0xc0,0x3f,0x0e,0x00,0x80,
 0x83,0xe1,0xff,0x01,0x60,0xc0,0x71,0xc0,0x1f,0x00,0x3c,0x1c,
 0x00,0x80,0x03,0x00,0xce,0x00,0x00,0xfc,0x00,0x0e,0x00,0x03,
 0x00,0x0e,0x0f,0x00,0x1c,0x0e,0x00,0x80,0xc3,0xf1,0xff,0x01,
 0x60,0xc0,0x71,0xc0,0x1d,0x00,0x0e,0x1c,0x00,0x80,0x01,0x00,
 0xc7,0x00,0x00,0xfc,0x00,0x0e,0x00,0x03,0x00,0x0e,0x0e,0x00,
 0x0e,0x0c,0x00,0x80,0xc3,0x31,0xf0,0x03,0x60,0xc0,0x71,0xc0,
 0x39,0x00,0x07,0x1c,0x00,0x80,0x01,0x00,0xc7,0x00,0x00,0xdc,
 0x00,0x06,0x00,0x03,0x00,0x0e,0x18,0x80,0x03,0x1c,0x00,0x80,
 0xc3,0x31,0x80,0x03,0x60,0xc0,0x61,0x80,0x63,0x80,0x03,0x1c,
 0x00,0x80,0x03,0x00,0xc7,0x00,0x00,0x9c,0x01,0x07,0x00,0x03,
 0x00,0x0e,0x70,0xc0,0x01,0x1c,0x00,0x80,0xc3,0x31,0x80,0x03,
 0x60,0xc0,0x61,0x80,0xe3,0x80,0x01,0x1c,0x00,0x80,0x03,0x00,
 0xc6,0x00,0x00,0x9c,0x01,0x03,0x00,0x03,0x00,0x0c,0x60,0xc0,
 0x00,0x0e,0x00,0x00,0xc3,0x31,0x80,0x03,0xe0,0xc0,0x61,0x80,
 0x63,0x80,0x01,0x1c,0x00,0x80,0x03,0x00,0xce,0x01,0xff,0x9f,
 0x01,0x03,0x00,0x03,0x00,0x1c,0x70,0x80,0x01,0x0e,0x00,0x00,
 0xc3,0x30,0x80,0x03,0xe0,0xc0,0x71,0x80,0x61,0x08,0x03,0x1c,
 0x00,0x80,0x03,0x00,0x8e,0x01,0xff,0x8f,0x01,0x03,0x00,0x02,
 0x00,0x18,0x30,0x84,0x01,0x0e,0x00,0x00,0xc3,0xf0,0x80,0x03,
 0xe0,0xc0,0x71,0xc0,0x71,0x1e,0x03,0x1c,0x00,0x80,0x03,0x06,
 0x8c,0x01,0x03,0x80,0x01,0x03,0x00,0x02,0x00,0x38,0x30,0x8e,
 0x01,0x0e,0x00,0x00,0xc3,0xf0,0x80,0x03,0xe0,0xc0,0x31,0xc0,
 0xb1,0x3f,0x03,0x1c,0x00,0x80,0x03,0x07,0x9c,0x01,0x07,0x80,
 0x01,0x03,0x00,0x02,0x0c,0x30,0xf8,0x3f,0x03,0x0e,0x00,0x00,
 0xc3,0xc0,0x80,0x03,0xe0,0xc0,0x3b,0xc0,0xf1,0xe3,0x06,0x0e,
 0x00,0x80,0x03,0x07,0x98,0x01,0x07,0x80,0x01,0x03,0x00,0x02,
 0x1c,0x70,0xf8,0x71,0x03,0x0e,0x01,0x00,0xc3,0xc1,0x80,0x03,
 0xc0,0xc0,0x1f,0xc0,0xf9,0xc0,0x07,0x0e,0x01,0x80,0x03,0x0f,
 0xb8,0x01,0xff,0xbf,0x01,0x03,0x00,0x02,0x1c,0xe0,0xf8,0xe0,
 0x03,0x07,0x03,0x00,0xc3,0xc1,0x80,0x03,0xc0,0x80,0x0f,0xe0,
 0x79,0x80,0x07,0x0e,0x03,0x00,0x03,0x0f,0xb8,0x01,0xff,0xff,
 0x01,0x03,0x00,0x02,0x3c,0xe0,0x3c,0x80,0x07,0x07,0x03,0x00,
 0x83,0x7f,0x80,0x01,0xc0,0x00,0x00,0xe0,0x38,0x00,0x06,0x07,
 0x03,0x00,0x03,0x1f,0xb0,0x01,0x00,0xe0,0x01,0x03,0x00,0x06,
 0x3c,0xc0,0x1d,0x00,0x87,0x07,0x07,0x00,0x03,0x3f,0x80,0x01,
 0xc0,0x00,0x00,0xe0,0x00,0x00,0x00,0x07,0x07,0x00,0x03,0x1f,
 0xf0,0x01,0x00,0xe0,0x81,0x03,0x00,0x06,0x7c,0x80,0x01,0x00,
 0x80,0x03,0x07,0x00,0x03,0x00,0x80,0x01,0xc0,0x00,0x00,0xf0,
 0x00,0x00,0x80,0x03,0x07,0x00,0x03,0x1b,0xe0,0x01,0x00,0xe0,
 0x81,0x03,0x00,0x06,0x7c,0x80,0x03,0x00,0xc0,0x03,0x0f,0x00,
 0x03,0x00,0x80,0x01,0xc0,0x00,0x00,0xf8,0x01,0x00,0xc0,0x03,
 0x07,0x00,0x03,0x3b,0xe0,0x01,0x00,0xe0,0x81,0x03,0x00,0x06,
 0xfc,0x00,0x03,0x00,0xc0,0x01,0x0f,0x00,0x07,0x00,0x80,0x01,
 0xc0,0x00,0x00,0xb8,0x03,0x00,0xe0,0x01,0x0f,0x00,0x83,0x33,
 0xe0,0x01,0x00,0xe0,0x80,0x03,0x00,0x06,0xdc,0x01,0x07,0x00,
 0xe0,0x00,0x0f,0x00,0x07,0x00,0x80,0x01,0xc0,0x00,0x00,0x1c,
 0x07,0x00,0xe0,0x00,0x0f,0x00,0x83,0x33,0xc0,0x01,0x00,0xe0,
 0x80,0x03,0x00,0x06,0x9c,0x01,0x0e,0x00,0xf0,0x01,0x1f,0x00,
 0x07,0x00,0x80,0x01,0xc0,0x00,0x00,0x1e,0x0e,0x00,0xf8,0x00,
 0x1f,0x00,0x83,0x63,0xc0,0x03,0x00,0xe0,0x80,0x03,0x00,0x06,
 0x9c,0x03,0x0e,0x00,0xf8,0x01,0x1f,0x00,0x07,0x80,0x80,0x01,
 0xc0,0x00,0x80,0x0f,0x3c,0x00,0xfc,0x01,0x1f,0x00,0x83,0x63,
 0x80,0x03,0x00,0xe0,0x80,0x03,0x00,0x06,0x1c,0x03,0x1c,0x00,
 0xbe,0x01,0x3e,0xe0,0x07,0xc0,0x81,0x01,0xc0,0x01,0xf8,0x03,
 0x78,0x00,0xdf,0x01,0xff,0xff,0xff,0x61,0x80,0x81,0xff,0xff,
 0x9f,0x03,0x00,0x06,0x1c,0x07,0x7c,0x80,0x9f,0xf9,0xf7,0xff,
 0xff,0xf9,0x80,0x01,0x80,0xff,0xff,0x01,0xf0,0xff,0x8f,0xff,
 0xff,0xff,0xff,0xc1,0xbf,0xff,0xff,0xff,0xff,0x03,0x00,0xfe,
 0x1f,0xfe,0xff,0xff,0x87,0xff,0xe7,0xff,0xff,0xff,0xff,0x01,
 0x00,0xff,0x7f,0x00,0xe0,0xff,0x83,0xff,0xe3,0x0f,0xf8,0xc0,
 0xff,0xff,0xff,0x00,0xff,0x01,0x00,0xfe,0x0f,0xfc,0xef,0xff,
 0x03,0xff,0x01,0x00,0xf8,0xdf,0xff,0x01,0x00,0x3e,0x00,0x00,
 0x00,0xff,0x00,0x0f,0x00,0x00,0x00,0x00,0xff,0x01,0x00,0x00,
 0x00,0x00,0x00,0xf8,0x07,0x00,0x80,0x7f,0x00,0x00,0x00,0x00,
 0x00,0x00,0xfe,0x00,0x00,0x00,0x00,0x00,0x00,0x00,0x00,0x00,
 0x00,0x00,0x00,0x00,0x00,0x00,0x00,0x00,0x00,0x00,0x00,0x00,
 0x00,0x00,0x00,0x00,0x00,0x00,0x00,0x00,0x00,0x00,0x00,0x00,
 0x00,0x00,0x00,0x00,0x00,0x00,0x00,0x00,0x00,0x00,0x00,0x00,
 0x00,0x00,0x00,0x00,0x00,0x00,0x00,0x00,0x00,0x00,0x00,0x00,
 0x00,0x00,0x00,0x00,0x00,0x00,0x00,0x00,0x00,0x00,0x00,0x00,
 0x00,0x00,0x00,0x00,0x00,0x00,0x00,0x00,0x00,0x00,0x00,0x00,
 0x00,0x00,0x00,0x00,0x00,0x00,0x00,0x00,0x00,0x00,0x00,0x00,
 0x00,0x00,0x00,0x00,0x00,0x00,0x00,0x00,0x00,0x00,0x00,0x00,
 0x00,0x00,0x00,0x00,0x00,0x00,0x00,0x00,0x00,0x00,0x00,0x00,
 0x00,0x00,0x00,0x00,0x00,0x00,0x00,0x00,0x00,0x00,0x00,0x00,
 0x00,0x00,0x00,0x00,0x00,0x00,0x00,0x00,0x00,0x00,0x00,0x00,
 0x00,0x00,0x00,0x00,0x00,0x00,0x00,0x00,0x00,0x00,0x00,0x00,
 0x00,0x00,0x00,0x00,0x00,0x00,0x00,0x00,0x00,0x00,0x00,0x00,
 0x00,0x00,0x00,0x00,0x00,0x00,0x00,0x00,0x00,0x00,0x00,0x00,
 0x00,0x00,0x00,0x00,0x00,0x00,0x00,0x00,0x00,0x00,0x00,0x00,
 0x00,0x00,0x00,0x00,0x00,0x00,0x00,0x00,0x00,0x00,0x00,0x00,
 0x00,0x00,0x00,0x00,0x00,0x00,0x00,0x00,0x00,0x00,0x00,0x00,
 0x00,0x00,0x00,0x00,0x00,0x00,0x00,0x00,0x00,0x00,0x00,0x00,
 0x00,0x00,0x00,0x00,0x00,0x00,0x00,0x00,0x00,0x00,0x00,0x00,
 0x00,0x00,0x00,0x00,0x00,0x00,0x00,0x00,0x00,0x00,0x00,0x00,
 0x00,0x00,0x00,0x00,0x00,0x00,0x00,0x00,0x00,0x00,0x00,0x00,
 0x00,0x00,0x00,0x00,0x00,0x00,0x00,0x00,0x00,0x00,0x00,0x00,
 0x00,0x00,0x00,0x00,0x00,0x00,0x00,0x00,0x00,0x00,0x00,0x00,
 0x00,0x00,0x00,0x00,0x00,0x00,0x00,0x00,0x00,0x00,0x00,0x00,
 0x00,0x00,0x00,0x00,0x00,0x00,0x00,0x00,0x00,0x00,0x00,0x00,
 0x00,0x00,0x00,0x00,0x00,0x00,0x00,0x00,0x00,0x00,0x00,0x00,
 0x00,0x00,0x00,0x00,0x00,0x00,0x00,0x00,0x00,0x00,0x00,0x00,
 0x00,0x00,0x00,0x00,0x00,0x00,0x00,0x00,0x00,0x00,0x00,0x00,
 0x00,0x00,0x00,0x00,0x00,0x00,0x00,0x00 };
