#define _width 256
#define _height 64
static char _bits[] = {
 0x00,0x00,0x00,0x00,0x00,0x00,0x00,0x00,0x00,0x00,0x00,0x00,
 0x00,0x00,0x00,0x00,0x00,0x00,0x00,0x00,0x00,0x00,0x00,0x00,
 0x00,0x00,0x00,0x00,0x00,0x00,0x00,0x00,0x00,0x00,0x00,0x00,
 0x00,0x00,0x00,0x00,0x00,0x00,0x00,0x00,0x00,0x00,0x00,0x00,
 0x00,0x00,0x00,0x00,0x00,0x00,0x00,0x00,0x00,0x00,0x00,0x00,
 0x00,0x00,0x00,0x00,0x00,0x00,0x00,0x00,0x00,0x00,0x00,0x00,
 0x00,0x00,0x00,0x00,0x00,0x00,0x00,0x00,0x00,0x00,0x00,0x00,
 0x00,0x00,0x00,0x00,0x00,0x00,0x00,0x00,0x00,0x00,0x00,0x00,
 0x00,0x00,0x00,0x00,0x00,0x00,0x00,0x00,0x00,0x00,0x00,0x00,
 0x00,0x00,0x00,0x00,0x00,0x00,0x00,0x00,0x00,0x00,0x00,0x00,
 0x00,0x00,0x00,0x00,0x00,0x00,0x00,0x00,0x00,0x00,0x00,0x00,
 0x00,0x00,0x00,0x00,0x00,0x00,0x00,0x00,0x00,0x00,0x00,0x00,
 0x00,0x00,0x00,0x00,0x00,0x00,0x00,0x00,0x00,0x00,0x00,0x00,
 0x00,0x00,0x00,0x00,0x00,0x00,0x00,0x00,0x00,0x00,0x00,0x00,
 0x00,0x00,0x00,0x00,0x00,0x00,0x00,0x00,0x00,0x00,0x00,0x00,
 0x00,0x00,0x00,0x00,0x00,0x00,0x00,0x00,0x00,0x00,0x00,0x00,
 0x00,0x00,0x00,0x00,0x00,0x00,0x00,0x00,0x00,0x00,0x00,0x00,
 0x00,0x00,0x00,0x00,0x00,0x00,0x00,0x00,0x00,0x00,0x00,0x00,
 0x00,0x00,0x00,0x00,0x00,0x00,0x00,0x00,0x00,0x00,0x28,0x00,
 0x2a,0xd5,0x0a,0x00,0x05,0x00,0x00,0x00,0x00,0x00,0x00,0x00,
 0x00,0x00,0x00,0x00,0x00,0x00,0x00,0x00,0x00,0x00,0x00,0x00,
 0x00,0x00,0x00,0x00,0x00,0x00,0x50,0x00,0x7e,0xfa,0x1f,0x00,
 0x05,0x00,0x00,0x00,0x00,0x00,0x00,0x00,0x00,0x00,0x00,0x00,
 0x00,0x00,0x00,0x00,0x00,0x00,0x00,0x00,0x00,0x00,0x00,0x00,
 0x00,0x00,0x14,0x00,0xbe,0xfa,0x0f,0x40,0x05,0x00,0x00,0x00,
 0x00,0x00,0x00,0x00,0x00,0x00,0x00,0x00,0x00,0x00,0x00,0x00,
 0x00,0x00,0x00,0x00,0x00,0x00,0x00,0x00,0x00,0x00,0x54,0x00,
 0x7e,0xfa,0x1f,0x00,0x05,0x00,0x00,0x00,0x00,0x00,0x00,0x00,
 0x00,0x00,0x00,0x00,0x00,0x00,0x00,0x00,0x00,0x00,0x00,0x00,
 0x00,0x00,0x00,0x00,0x00,0x00,0x28,0x00,0xbe,0xfc,0x0f,0x80,
 0x0a,0x00,0x00,0x00,0x00,0x00,0x00,0x00,0x00,0x00,0x00,0x00,
 0x00,0x00,0x00,0x00,0x00,0x00,0x00,0x00,0x00,0x00,0x00,0x00,
 0x00,0x40,0x55,0x00,0xc0,0xff,0x14,0x80,0x52,0x01,0x00,0x00,
 0x00,0x00,0x00,0x00,0x00,0x00,0x00,0x00,0x00,0x00,0x00,0x00,
 0x00,0x00,0x00,0x00,0x00,0x00,0x00,0x00,0x00,0xa0,0x2a,0x00,
 0xea,0x7f,0x15,0x80,0xaa,0x00,0xe0,0xf3,0xff,0x00,0x00,0x00,
 0x00,0x00,0x00,0x00,0x00,0x00,0x00,0x00,0x00,0x00,0x00,0x00,
 0x00,0x00,0x00,0x00,0x00,0xa0,0x52,0x00,0xca,0xff,0x15,0x80,
 0x4a,0x01,0xe0,0xf3,0xff,0x01,0x00,0x00,0x00,0x00,0x00,0x00,
 0x00,0x00,0x00,0x00,0x00,0x00,0x00,0x00,0x00,0x00,0x00,0x00,
 0x00,0x40,0x15,0x00,0xd4,0x7f,0x12,0x80,0xaa,0x00,0xe0,0xf3,
 0xff,0x03,0x00,0x00,0x00,0x00,0x00,0x00,0x00,0x00,0x00,0x00,
 0x00,0x00,0x00,0x00,0x00,0x00,0x00,0x00,0x00,0x40,0x55,0x20,
 0xd5,0xff,0x2a,0x81,0xaa,0x00,0xe0,0x03,0xf0,0x03,0x00,0x00,
 0x00,0x00,0x00,0x00,0x00,0x00,0x00,0x00,0x00,0x00,0x00,0x00,
 0x00,0x00,0x00,0x00,0x00,0x00,0x28,0x50,0xea,0xff,0x4a,0x81,
 0x04,0x00,0xe0,0x03,0xe0,0x03,0x00,0x00,0x00,0x00,0x00,0x00,
 0x00,0x00,0x00,0x00,0x00,0x00,0x00,0x00,0x00,0x00,0x00,0x00,
 0x00,0x00,0x50,0xa0,0xca,0xff,0xaa,0x02,0x05,0x00,0xe0,0x03,
 0xe0,0x03,0x00,0x00,0x00,0x00,0x00,0x00,0x00,0x00,0x00,0x00,
 0x00,0x00,0x00,0x00,0x00,0x00,0x00,0x00,0x00,0x00,0x14,0x50,
 0xd5,0x7f,0x55,0x41,0x05,0x00,0xe0,0x03,0xe0,0xf3,0xf9,0x7f,
 0xf8,0xfc,0x3f,0x7c,0xfe,0x1f,0x3e,0xff,0x0f,0x9f,0xff,0x87,
 0xcf,0xff,0x03,0x00,0x00,0x00,0x54,0x50,0xd5,0xff,0x54,0x01,
 0x05,0x00,0xe0,0x03,0x00,0xf0,0xf9,0xff,0xf8,0xfc,0x7f,0x7c,
 0xfe,0x3f,0x3e,0xff,0x1f,0x9f,0xff,0x8f,0xcf,0xff,0x07,0x00,
 0x00,0x00,0x28,0x20,0xe9,0xff,0xaa,0x82,0x0a,0x00,0xe0,0x03,
 0x00,0xf0,0xf9,0xff,0xf9,0xfc,0xff,0x7c,0xfe,0x7f,0x3e,0xff,
 0x3f,0x9f,0xff,0x9f,0xcf,0xff,0x0f,0x00,0x00,0x00,0x50,0xa0,
 0xca,0xff,0x92,0x80,0x04,0x00,0xe0,0x03,0x00,0xf0,0x01,0xf8,
 0xf9,0x00,0xfc,0x7c,0x00,0x7e,0x3e,0x00,0x3f,0x1f,0x80,0x9f,
 0x0f,0xc0,0x0f,0x00,0x00,0x00,0x54,0xda,0xf6,0xff,0x6d,0x53,
 0x05,0x00,0xe0,0x03,0x00,0xf0,0x01,0xf0,0xf9,0x00,0xf8,0x7c,
 0x00,0x7c,0x3e,0x00,0x3e,0x1f,0x00,0x9f,0x0f,0x80,0x0f,0x00,
 0x00,0x00,0xa8,0xf2,0xff,0xff,0xff,0xab,0x0a,0x00,0xe0,0x03,
 0x00,0xf0,0x01,0xf0,0xf9,0x00,0xf8,0x7c,0x00,0x7c,0x3e,0x00,
 0x3e,0x1f,0x00,0x9f,0x0f,0x80,0x0f,0x00,0x00,0x00,0x54,0xf5,
 0xff,0xff,0xff,0x55,0x05,0x00,0xe0,0x03,0x00,0xf0,0x01,0xf0,
 0xf9,0x00,0xf8,0x7c,0x00,0x7c,0x3e,0x00,0x3e,0x1f,0x00,0x9f,
 0x0f,0x80,0x0f,0x00,0x00,0x00,0x54,0xf5,0xff,0xff,0xff,0x57,
 0x05,0x00,0xe0,0x03,0x00,0xf0,0x01,0x00,0xf8,0x00,0xf8,0x7c,
 0x00,0x7c,0x3e,0x00,0x3e,0x1f,0x00,0x9f,0x0f,0x00,0x00,0x00,
 0x00,0x00,0xa8,0xfa,0xff,0xff,0xff,0xab,0x0a,0x00,0xe0,0xff,
 0x0f,0xf0,0x01,0x00,0xf8,0x00,0xf8,0x7c,0x00,0x7c,0x3e,0x00,
 0x3e,0x1f,0x00,0x9f,0x0f,0x00,0x00,0x00,0x00,0x00,0x00,0xf0,
 0xc1,0xff,0xff,0x03,0x00,0x00,0xe0,0xff,0x1f,0xf0,0x01,0x00,
 0xf8,0x00,0xf8,0x7c,0x00,0x7c,0x3e,0x00,0x3e,0x1f,0x00,0x9f,
 0x0f,0x00,0x00,0x00,0x00,0x00,0x00,0xf0,0xd5,0xff,0xff,0x01,
 0x00,0x00,0xe0,0xff,0x1f,0xf0,0x01,0x00,0xf8,0x00,0xf8,0x7c,
 0x00,0x7c,0x3e,0x00,0x3e,0x1f,0x00,0x9f,0x0f,0x00,0x00,0x00,
 0x00,0x00,0x00,0xf0,0xd5,0xff,0xff,0x03,0x00,0x00,0xe0,0x03,
 0x00,0xf0,0x01,0x00,0xf8,0x00,0xf8,0x7c,0x00,0x7c,0x3e,0x00,
 0x3e,0x1f,0x00,0x9f,0x0f,0x00,0x00,0x00,0x00,0x00,0x00,0xf0,
 0xe5,0xff,0xff,0x01,0x00,0x00,0xe0,0x03,0x00,0xf0,0x01,0x00,
 0xf8,0x00,0xf8,0x7c,0x00,0x7c,0x3e,0x00,0x3e,0x1f,0x80,0x9f,
 0x0f,0x00,0x00,0x00,0x00,0x00,0x48,0xf0,0xcb,0xff,0xff,0x43,
 0x04,0x00,0xe0,0x03,0x00,0xf0,0x01,0x00,0xf8,0x00,0xf8,0x7c,
 0x00,0x7c,0x3e,0x00,0x3e,0xff,0xff,0x9f,0x0f,0x00,0x00,0x00,
 0x00,0x00,0x54,0xfb,0xd5,0xff,0xff,0x5b,0x05,0x00,0xe0,0x03,
 0x00,0xf0,0x01,0x00,0xf8,0x00,0xf8,0x7c,0x00,0x7c,0x3e,0x00,
 0x3e,0xff,0xff,0x8f,0x0f,0x00,0x00,0x00,0x00,0x00,0x54,0xf2,
 0xd5,0xff,0xff,0xa3,0x0a,0x00,0xe0,0x03,0x00,0xf0,0x01,0x00,
 0xf8,0x00,0xf8,0x7c,0x00,0x7c,0x3e,0x00,0x3e,0xff,0xff,0x87,
 0x0f,0x00,0x00,0x00,0x00,0x00,0xa8,0xfa,0xe9,0xff,0xff,0xad,
 0x02,0x00,0xe0,0x03,0x00,0xf0,0x01,0x00,0xf8,0x00,0xf8,0x7c,
 0x00,0x7c,0x3e,0x00,0x3e,0x1f,0x00,0x80,0x0f,0x00,0x00,0x00,
 0x00,0x00,0xa8,0xf2,0xcb,0xff,0xff,0x2b,0x05,0x00,0xe0,0x03,
 0x00,0xf0,0x01,0x00,0xf8,0x00,0xf8,0x7c,0x00,0x7c,0x3e,0x00,
 0x3e,0x1f,0x00,0x80,0x0f,0x00,0x00,0x00,0x00,0x00,0x54,0xf5,
 0xe9,0xff,0xff,0x55,0x05,0x00,0xe0,0x03,0x00,0xf0,0x01,0x00,
 0xf8,0x00,0xf8,0x7c,0x00,0x7c,0x3e,0x00,0x3e,0x1f,0x00,0x80,
 0x0f,0x00,0x00,0x00,0x00,0x00,0x50,0xf5,0xcb,0xff,0xff,0xab,
 0x0a,0x00,0xe0,0x03,0x00,0xf0,0x01,0x00,0xf8,0x00,0xf8,0x7c,
 0x00,0x7c,0x3e,0x00,0x3e,0x1f,0x00,0x80,0x0f,0x00,0x00,0x00,
 0x00,0x00,0x54,0x10,0x3d,0xfc,0x2f,0x81,0x02,0x00,0xe0,0x03,
 0x00,0xf0,0x01,0x00,0xf8,0x01,0xf8,0xfc,0x00,0x7c,0x7e,0x00,
 0x3e,0x3f,0x00,0x80,0x0f,0x00,0x00,0x00,0x00,0x00,0x54,0xa0,
 0x7e,0xf9,0xbf,0x02,0x05,0x00,0xe0,0x03,0x00,0xf0,0x01,0x00,
 0xf8,0xff,0xf9,0xfc,0xff,0x7f,0xfe,0xff,0x3f,0xff,0xff,0x9f,
 0x0f,0x00,0x00,0x00,0x00,0x00,0x28,0x50,0xbf,0xfa,0x4f,0x81,
 0x0a,0x00,0xe0,0x03,0x00,0xf0,0x01,0x00,0xf0,0xff,0xf9,0xf8,
 0xff,0x7f,0xfc,0xff,0x3f,0xfe,0xff,0x9f,0x0f,0x00,0x00,0x00,
 0x00,0x00,0x50,0x50,0x7e,0xfa,0xbf,0x02,0x05,0x00,0xe0,0x03,
 0x00,0xf0,0x01,0x00,0xe0,0xff,0xf9,0xf0,0xff,0x7f,0xf8,0xff,
 0x3f,0xfc,0xff,0x9f,0x0f,0x00,0x00,0x00,0x00,0x00,0x14,0x40,
 0x5f,0xfd,0x0e,0x81,0x0a,0x00,0x00,0x00,0x00,0x00,0x00,0x00,
 0x00,0x00,0x00,0x00,0x00,0x7c,0x00,0x00,0x3e,0x00,0x00,0x00,
 0x00,0x00,0x00,0x00,0x00,0x60,0x55,0x00,0xd0,0xff,0x14,0x80,
 0x54,0x01,0x00,0x00,0x00,0x00,0x00,0x00,0x00,0x00,0x00,0x00,
 0x00,0x7c,0x00,0x00,0x3e,0x00,0x00,0x00,0x00,0x00,0x00,0x00,
 0x00,0x80,0x2a,0x00,0xea,0x7f,0x15,0x80,0xaa,0x00,0x00,0x00,
 0x00,0x00,0x00,0x00,0x00,0x00,0x00,0x00,0x00,0x7c,0x00,0x00,
 0x3e,0x00,0x00,0x00,0x00,0x00,0x00,0x00,0x00,0x40,0x55,0x00,
 0xca,0xff,0x15,0x00,0x55,0x01,0x00,0x00,0x00,0x00,0x00,0x00,
 0x00,0x00,0x00,0x00,0xfe,0x7f,0x00,0xff,0x3f,0x00,0x00,0x00,
 0x00,0x00,0x00,0x00,0x00,0xa0,0x2a,0x00,0xd4,0xff,0x0a,0x80,
 0xaa,0x00,0x00,0x00,0x00,0x00,0x00,0x00,0x00,0x00,0x00,0x00,
 0xfe,0x7f,0x00,0xff,0x3f,0x00,0x00,0x00,0x00,0x00,0x00,0x00,
 0x00,0x00,0x50,0x00,0x00,0x00,0x00,0x80,0x0a,0x00,0x00,0x00,
 0x00,0x00,0x00,0x00,0x00,0x00,0x00,0x00,0xfe,0x3f,0x00,0xff,
 0x1f,0x00,0x00,0x00,0x00,0x00,0x00,0x00,0x00,0x00,0x14,0x00,
 0x00,0x00,0x00,0x80,0x04,0x00,0x00,0x00,0x00,0x00,0x00,0x00,
 0x00,0x00,0x00,0x00,0x00,0x00,0x00,0x00,0x00,0x00,0x00,0x00,
 0x00,0x00,0x00,0x00,0x00,0x00,0x54,0x00,0x00,0x00,0x00,0x00,
 0x05,0x00,0x00,0x00,0x00,0x00,0x00,0x00,0x00,0x00,0x00,0x00,
 0x00,0x00,0x00,0x00,0x00,0x00,0x00,0x00,0x00,0x00,0x00,0x00,
 0x00,0x00,0x28,0x00,0x00,0x00,0x00,0x80,0x0a,0x00,0x00,0x00,
 0x00,0x00,0x00,0x00,0x00,0x00,0x00,0x00,0x00,0x00,0x00,0x00,
 0x00,0x00,0x00,0x00,0x00,0x00,0x00,0x00,0x00,0x00,0x50,0x00,
 0x00,0x00,0x00,0x00,0x05,0x00,0x00,0x00,0x00,0x00,0x00,0x00,
 0x00,0x00,0x00,0x00,0x00,0x00,0x00,0x00,0x00,0x00,0x00,0x00,
 0x00,0x00,0x00,0x00,0x00,0x00,0x14,0x00,0x00,0x00,0x00,0x40,
 0x05,0x00,0x00,0x00,0x00,0x00,0x00,0x00,0x00,0x00,0x00,0x00,
 0x00,0x00,0x00,0x00,0x00,0x00,0x00,0x00,0x00,0x00,0x00,0x00,
 0x00,0x00,0x54,0x00,0x00,0x00,0x00,0x80,0x0a,0x00,0x00,0x00,
 0x00,0x00,0x00,0x00,0x00,0x00,0x00,0x00,0x00,0x00,0x00,0x00,
 0x00,0x00,0x00,0x00,0x00,0x00,0x00,0x00,0x00,0x00,0x00,0x00,
 0x00,0x00,0x00,0x00,0x00,0x00,0x00,0x00,0x00,0x00,0x00,0x00,
 0x00,0x00,0x00,0x00,0x00,0x00,0x00,0x00,0x00,0x00,0x00,0x00,
 0x00,0x00,0x00,0x00,0x00,0x00,0x00,0x00,0x00,0x00,0x00,0x00,
 0x00,0x00,0x00,0x00,0x00,0x00,0x00,0x00,0x00,0x00,0x00,0x00,
 0x00,0x00,0x00,0x00,0x00,0x00,0x00,0x00,0x00,0x00,0x00,0x00,
 0x00,0x00,0x00,0x00,0x00,0x00,0x00,0x00,0x00,0x00,0x00,0x00,
 0x00,0x00,0x00,0x00,0x00,0x00,0x00,0x00,0x00,0x00,0x00,0x00,
 0x00,0x00,0x00,0x00,0x00,0x00,0x00,0x00,0x00,0x00,0x00,0x00,
 0x00,0x00,0x00,0x00,0x00,0x00,0x00,0x00,0x00,0x00,0x00,0x00,
 0x00,0x00,0x00,0x00,0x00,0x00,0x00,0x00,0x00,0x00,0x00,0x00,
 0x00,0x00,0x00,0x00,0x00,0x00,0x00,0x00,0x00,0x00,0x00,0x00,
 0x00,0x00,0x00,0x00,0x00,0x00,0x00,0x00,0x00,0x00,0x00,0x00,
 0x00,0x00,0x00,0x00,0x00,0x00,0x00,0x00,0x00,0x00,0x00,0x00,
 0x00,0x00,0x00,0x00,0x00,0x00,0x00,0x00,0x00,0x00,0x00,0x00,
 0x00,0x00,0x00,0x00,0x00,0x00,0x00,0x00,0x00,0x00,0x00,0x00,
 0x00,0x00,0x00,0x00,0x00,0x00,0x00,0x00,0x00,0x00,0x00,0x00,
 0x00,0x00,0x00,0x00,0x00,0x00,0x00,0x00,0x00,0x00,0x00,0x00,
 0x00,0x00,0x00,0x00,0x00,0x00,0x00,0x00,0x00,0x00,0x00,0x00,
 0x00,0x00,0x00,0x00,0x00,0x00,0x00,0x00,0x00,0x00,0x00,0x00,
 0x00,0x00,0x00,0x00,0x00,0x00,0x00,0x00,0x00,0x00,0x00,0x00,
 0x00,0x00,0x00,0x00,0x00,0x00,0x00,0x00,0x00,0x00,0x00,0x00,
 0x00,0x00,0x00,0x00,0x00,0x00,0x00,0x00,0x00,0x00,0x00,0x00,
 0x00,0x00,0x00,0x00,0x00,0x00,0x00,0x00,0x00,0x00,0x00,0x00,
 0x00,0x00,0x00,0x00,0x00,0x00,0x00,0x00 };
