#define _width 256
#define _height 64
static char _bits[] = {
 0x00,0x00,0x00,0x00,0x00,0x00,0x00,0x00,0x00,0x00,0x00,0x00,0x00,0x00,0x00,
 0x00,0x00,0x00,0x00,0x00,0x00,0x00,0x00,0x00,0x00,0x00,0x00,0x00,0x00,0x00,
 0x00,0x00,0x00,0x00,0x00,0x00,0x00,0x00,0x00,0xf0,0x03,0x00,0x00,0x00,0x00,
 0x00,0x00,0x00,0x00,0x00,0x00,0x00,0xf8,0x03,0x00,0x00,0x00,0x7f,0x00,0x00,
 0x00,0x00,0x00,0x00,0x00,0x00,0x00,0x00,0x00,0x00,0xc0,0xff,0x3f,0x07,0x00,
 0x00,0x00,0x00,0xff,0xff,0xff,0xff,0xff,0xff,0xff,0x07,0xff,0x07,0xfc,0x7f,
 0x00,0x00,0x00,0x00,0x00,0x00,0x00,0x00,0x00,0x00,0x00,0x00,0xfc,0x07,0xfc,
 0xf7,0xff,0xff,0x01,0x00,0xff,0xff,0xff,0xff,0xff,0xff,0x07,0x86,0x01,0x0e,
 0xfc,0x61,0x00,0x00,0x00,0x00,0x00,0x00,0x00,0x00,0x00,0x00,0x00,0x00,0x1f,
 0x00,0x00,0xfe,0xff,0xff,0x7f,0x00,0x07,0x00,0x00,0xd8,0x01,0x00,0x00,0x03,
 0x03,0x0c,0x0c,0x38,0x00,0x00,0x00,0x00,0x00,0x00,0x00,0x00,0x00,0x00,0x00,
 0xc0,0x03,0xfc,0x03,0x63,0x00,0x00,0xfe,0x03,0x0e,0xf0,0x07,0x8c,0x03,0xfc,
 0x81,0x03,0x07,0x0c,0x18,0x1c,0x00,0x00,0x00,0x00,0x00,0x00,0x00,0x00,0x00,
 0x00,0x00,0xf0,0x00,0x7f,0x87,0xe3,0x01,0xec,0x80,0x07,0x18,0xf0,0x0f,0x06,
 0x03,0xfe,0x83,0x01,0x03,0x0c,0x18,0x07,0x00,0x00,0x00,0x00,0x00,0x00,0x00,
 0x00,0x00,0x00,0x00,0x3c,0xc0,0x07,0x8c,0x81,0x01,0xff,0x03,0x0e,0x18,0x18,
 0x18,0x06,0x03,0x07,0xc6,0x80,0x01,0x0c,0x8c,0x03,0x00,0x00,0x00,0x00,0x00,
 0x00,0x00,0x00,0x00,0x00,0x00,0x0e,0xf0,0x00,0xd8,0x80,0x01,0x03,0x07,0x18,
 0x0c,0x0c,0x30,0x83,0x01,0x03,0xec,0xc0,0x00,0x04,0x86,0x01,0x00,0x00,0x00,
 0x00,0x00,0x00,0x00,0x00,0x00,0x00,0x80,0x07,0x38,0x00,0x78,0xc0,0x80,0x01,
 0x0c,0x30,0x06,0x0c,0x70,0x83,0x81,0x01,0x6c,0x60,0x00,0x06,0xc3,0x00,0x00,
 0x00,0x00,0x00,0x00,0x00,0x00,0x00,0x00,0x00,0xc0,0x01,0x0e,0x00,0x30,0xc0,
 0xc0,0x01,0x0c,0x18,0x07,0x06,0xe0,0xc1,0x80,0x01,0x38,0x60,0x1c,0x0e,0x63,
 0x00,0x00,0x00,0x00,0x00,0x00,0x00,0x00,0x00,0x00,0x00,0xc0,0x00,0x07,0x06,
 0x00,0x60,0xc0,0x80,0x07,0x18,0x03,0x06,0xc7,0x60,0xc0,0xe0,0x31,0x20,0x3e,
 0x1c,0x63,0x00,0x00,0x00,0x00,0x00,0x00,0x00,0x00,0x00,0x00,0x00,0xc0,0x00,
 0x03,0xff,0xff,0x31,0x60,0xf0,0x03,0x0e,0x03,0xff,0x0f,0xc0,0xc0,0xff,0x03,
 0x30,0x3e,0x18,0x63,0x00,0x00,0x00,0x00,0x00,0x00,0x00,0x00,0x00,0x00,0x00,
 0x60,0x80,0x03,0xfb,0xff,0x31,0xe0,0xff,0x00,0x07,0x07,0xfc,0x0c,0xc0,0x00,
 0x1f,0x03,0x38,0x36,0x98,0x31,0x00,0x00,0x00,0x00,0x00,0x00,0x00,0x00,0x00,
 0x00,0x00,0x70,0x80,0x03,0x06,0xf0,0x30,0xc0,0x0f,0x80,0x03,0x03,0x00,0x0c,
 0x60,0x00,0x80,0x01,0x1c,0x33,0xd8,0x38,0x00,0x00,0x00,0x00,0x00,0x00,0x00,
 0x00,0x00,0x00,0x00,0x30,0x80,0x01,0x0c,0x78,0x30,0x00,0x00,0xe0,0x81,0x01,
 0x07,0x06,0x70,0xe0,0xc0,0x01,0x8e,0x31,0x68,0x1c,0x00,0x00,0x00,0x00,0x00,
 0x00,0x00,0x00,0x00,0x00,0x00,0x18,0xc0,0x00,0x06,0x1c,0x30,0xe0,0x07,0x78,
 0xc0,0x80,0x0f,0x07,0x30,0xe0,0xc3,0x00,0xc2,0x31,0x38,0x0e,0x00,0x00,0x00,
 0x00,0x00,0x00,0x00,0x00,0x00,0x00,0x00,0x1c,0x60,0x00,0x07,0x0e,0x18,0xf0,
 0x0f,0x18,0xc0,0xc0,0x1d,0x03,0x18,0x30,0x67,0x00,0xf3,0x30,0x18,0x07,0x00,
 0x00,0x00,0x00,0x00,0x00,0x00,0x00,0x00,0x00,0x00,0x0c,0x70,0x80,0x03,0x07,
 0x1c,0x18,0x08,0x1c,0x70,0xe0,0xf0,0x01,0x1c,0x1c,0x7e,0x80,0x79,0x18,0x88,
 0x03,0x00,0x00,0x00,0x00,0x00,0x00,0x00,0x00,0x00,0x00,0x00,0x06,0x18,0xc0,
 0x81,0x03,0x0e,0x0e,0x0c,0x0c,0x30,0x70,0xe0,0x00,0x0e,0x0c,0x1c,0xe0,0x18,
 0x18,0xc0,0x00,0x00,0x00,0x00,0x00,0x00,0x00,0x00,0x00,0x00,0x00,0x00,0x03,
 0x1c,0xc0,0xc0,0x00,0x07,0x06,0x0c,0x04,0x18,0x30,0x00,0x07,0x03,0x06,0xe0,
 0x61,0x0c,0x0c,0x60,0x00,0x00,0x00,0x00,0x00,0x00,0x00,0x00,0x00,0x00,0x00,
 0x00,0x03,0x0c,0x60,0xe0,0x00,0x03,0x03,0x06,0x06,0x0c,0x18,0xc0,0x87,0x03,
 0x07,0xf8,0x31,0x0e,0x0c,0x30,0x00,0x00,0x00,0x00,0x00,0x00,0x00,0x00,0x00,
 0x00,0x00,0x00,0x03,0x0c,0x30,0x60,0x80,0x81,0x03,0x06,0x06,0x0e,0x1c,0xf0,
 0x87,0x01,0x03,0xdc,0x18,0x06,0x0c,0x38,0x00,0x00,0x00,0x00,0x00,0x00,0x00,
 0x00,0x00,0x00,0x00,0x00,0x03,0x06,0x38,0x30,0xc0,0x80,0x01,0x06,0x06,0x06,
 0x0c,0x3c,0xc3,0x80,0x81,0x67,0x1c,0x03,0x0c,0x1c,0x00,0x00,0x00,0x00,0x00,
 0x00,0x00,0x00,0x00,0x00,0x00,0x00,0x03,0x0e,0x1c,0x18,0xf0,0xc0,0x00,0x06,
 0x06,0x03,0x06,0x8f,0xe1,0x80,0xe1,0x73,0x8e,0x01,0x0c,0x0e,0x00,0x00,0x00,
 0x00,0x00,0x00,0x00,0x00,0x00,0x00,0x00,0x00,0x07,0x0c,0x0f,0x1c,0x3c,0xc0,
 0x00,0x03,0x86,0x03,0xc6,0xc3,0x61,0xc0,0xf8,0x30,0xc7,0x01,0x0c,0x06,0x00,
 0x00,0x00,0x00,0x00,0x00,0x00,0x00,0x00,0x00,0x00,0x00,0x06,0xfc,0x03,0x0f,
 0x1f,0x80,0x81,0x03,0xce,0x01,0xfe,0xc1,0x38,0xc0,0x3f,0xd8,0xc3,0x00,0x0c,
 0x03,0x00,0x00,0x00,0x00,0x00,0x00,0x00,0x00,0x00,0x00,0x00,0x00,0x0c,0xf0,
 0xe1,0x83,0x03,0x00,0xc3,0x01,0xfc,0x00,0x7e,0x60,0x1e,0x80,0x07,0xfc,0xe1,
 0x00,0x8c,0x01,0x00,0x00,0x00,0x00,0x00,0x00,0x00,0x00,0x00,0x00,0x00,0x00,
 0x78,0x00,0xf8,0xc0,0xff,0xff,0xc3,0xff,0x3f,0x00,0x00,0x30,0x07,0x00,0x00,
 0x3e,0xc0,0x00,0xcc,0x00,0x00,0x00,0x00,0x00,0x00,0x00,0x00,0x00,0x00,0x00,
 0x00,0x00,0xf0,0xff,0x3f,0xc0,0xff,0xff,0xc3,0xff,0xff,0xff,0xff,0xbf,0xff,
 0xff,0xff,0xff,0xff,0x01,0xfc,0x00,0x00,0x00,0x00,0x00,0x00,0x00,0x00,0x00,
 0x00,0x00,0x00,0x00,0x80,0xff,0x07,0x00,0x00,0x00,0x00,0x00,0xfc,0xff,0xff,
 0x0f,0xff,0xff,0xff,0xf3,0xff,0x00,0x38,0x00,0x00,0x00,0x00,0x00,0x00,0x00,
 0x00,0x00,0x00,0x00,0x00,0x00,0x00,0x00,0x00,0x00,0x00,0x00,0x00,0x00,0x00,
 0x00,0x00,0x00,0x00,0x00,0x00,0x00,0x00,0x00,0x00,0x00,0x00,0x00,0x00,0x00,
 0x00,0x00,0x00,0x00,0x00,0x00,0x00,0x00,0x00,0x00,0x00,0x00,0x00,0x00,0x00,
 0x00,0x00,0x00,0x00,0x00,0x00,0x00,0x00,0x00,0x00,0x00,0x00,0x00,0x00,0x00,
 0x00,0x00,0x00,0x00,0x00,0x00,0x00,0x00,0x00,0x00,0x00,0x00,0x00,0xc0,0xff,
 0xff,0xff,0x80,0xff,0xff,0xff,0x07,0x00,0x00,0x00,0x00,0xff,0xff,0xff,0xff,
 0xff,0xff,0xff,0x3f,0x00,0x00,0x00,0x00,0x00,0x00,0x00,0x00,0x00,0x00,0x00,
 0xe0,0xff,0xff,0xff,0xe7,0xff,0xff,0xff,0xfe,0xff,0x1f,0x00,0x80,0xff,0xff,
 0xff,0xff,0xff,0xff,0xff,0x7f,0x00,0x00,0x00,0x00,0x00,0x00,0x00,0x00,0x00,
 0x00,0x00,0x60,0x00,0x00,0x00,0xef,0x00,0x00,0x00,0xff,0xff,0xff,0x0f,0x80,
 0x03,0x00,0x00,0x1c,0x00,0x00,0x00,0x60,0x00,0x00,0x00,0x00,0x00,0x00,0x00,
 0x00,0x00,0x00,0x00,0xc0,0x00,0x7c,0x00,0xdc,0x01,0xf8,0x00,0x1b,0x00,0xe0,
 0x7f,0x00,0x07,0xe0,0x03,0x1c,0x7c,0x00,0x0e,0x30,0x00,0x00,0x00,0x00,0x00,
 0x00,0x00,0x00,0x00,0x00,0x00,0x80,0x01,0xff,0x03,0x10,0x03,0xfc,0x83,0x71,
 0x00,0x00,0xf0,0x03,0x0c,0xf8,0x07,0x0e,0xff,0x80,0x1f,0x18,0x00,0x00,0x00,
 0x00,0x00,0x00,0x00,0x00,0x00,0x00,0x00,0x80,0x01,0x83,0x07,0x30,0x07,0x06,
 0x87,0xe1,0x00,0xff,0x81,0x07,0x0c,0x1c,0x0e,0xc7,0xc7,0x80,0x3b,0x1c,0x00,
 0x00,0x00,0x00,0x00,0x00,0x00,0x00,0x00,0x00,0x00,0xc0,0x80,0x01,0x0c,0x18,
 0x03,0x03,0xce,0xc0,0x80,0xff,0x03,0x0e,0x0e,0x0c,0x18,0xf7,0x60,0xc0,0x30,
 0x0c,0x00,0x00,0x00,0x00,0x00,0x00,0x00,0x00,0x00,0x00,0x00,0xe0,0xc0,0x01,
 0x07,0x98,0x01,0x03,0xec,0x60,0xc0,0x00,0x07,0x0c,0x07,0x06,0xb8,0x3f,0x70,
 0x60,0x60,0x06,0x00,0x00,0x00,0x00,0x00,0x00,0x00,0x00,0x00,0x00,0x00,0x60,
 0xc0,0xe0,0x03,0xce,0x80,0x01,0x78,0x30,0xe0,0x00,0x06,0x18,0x03,0x07,0xf0,
 0x0f,0x30,0x70,0x60,0x03,0x00,0x00,0x00,0x00,0x00,0x00,0x00,0x00,0x00,0x00,
 0x00,0x30,0xe0,0xff,0x81,0xc7,0xc0,0x01,0x30,0x30,0x60,0x00,0x03,0x8c,0x01,
 0x03,0xe0,0x00,0x18,0x30,0xe0,0x03,0x00,0x00,0x00,0x00,0x00,0x00,0x00,0x00,
 0x00,0x00,0x00,0x30,0xf0,0x7f,0xe0,0xc3,0xc0,0xfd,0x03,0x18,0x30,0xf0,0x01,
 0x8e,0x01,0xf7,0x07,0x00,0x0c,0x18,0xc0,0x01,0x00,0x00,0x00,0x00,0x00,0x00,
 0x00,0x00,0x00,0x00,0x00,0x38,0x00,0x00,0x70,0xc0,0x80,0xff,0x03,0x0c,0xf0,
 0xff,0x80,0x03,0x03,0xfe,0x0f,0x00,0x1c,0x1c,0x80,0x00,0x00,0x00,0x00,0x00,
 0x00,0x00,0x00,0x00,0x00,0x00,0x00,0x18,0x00,0x00,0x30,0xc0,0x00,0x06,0x03,
 0x1c,0xf0,0x0f,0xc0,0x81,0x01,0x18,0x06,0x00,0x18,0x38,0x00,0x00,0x00,0x00,
 0x00,0x00,0x00,0x00,0x00,0x00,0x00,0x00,0x00,0x18,0xe0,0x0f,0x70,0x60,0x80,
 0x80,0x01,0x18,0x00,0x00,0xe0,0xc0,0x81,0x01,0x07,0x00,0x0c,0x18,0x00,0x00,
 0x00,0x00,0x00,0x00,0x00,0x00,0x00,0x00,0x00,0x00,0x00,0x18,0xe0,0x3f,0xe0,
 0x70,0xe0,0xc1,0x01,0x0c,0x00,0x00,0x78,0xc0,0x80,0x07,0x03,0x00,0x0e,0x1c,
 0x00,0x00,0x00,0x00,0x00,0x00,0x00,0x00,0x00,0x00,0x00,0x00,0x00,0x0c,0x30,
 0x30,0xc0,0x30,0xe0,0xc3,0x00,0x0c,0xf8,0x07,0x1c,0x60,0xc0,0x8e,0x01,0x00,
 0x06,0x0c,0x00,0x00,0x00,0x00,0x00,0x00,0x00,0x00,0x00,0x00,0x00,0x00,0x00,
 0x0c,0x18,0x60,0xc0,0x18,0x30,0x6e,0x00,0x04,0x9c,0x07,0x0c,0x30,0x60,0xdc,
 0x01,0x00,0x03,0x06,0x00,0x00,0x00,0x00,0x00,0x00,0x00,0x00,0x00,0x00,0x00,
 0x00,0x00,0x07,0x0c,0x60,0xc0,0x1c,0x18,0x3c,0x00,0x07,0x07,0x06,0x06,0x38,
 0x70,0xf8,0x00,0x80,0x01,0x03,0x00,0x00,0x00,0x00,0x00,0x00,0x00,0x00,0x00,
 0x00,0x00,0x00,0x00,0x03,0x06,0x70,0xc0,0x06,0x0c,0x98,0x81,0x83,0x03,0x06,
 0x03,0x0c,0x18,0x20,0x03,0xc0,0x80,0x01,0x00,0x00,0x00,0x00,0x00,0x00,0x00,
 0x00,0x00,0x00,0x00,0x00,0x80,0x01,0x07,0x30,0x60,0x03,0x06,0xe0,0xc1,0x81,
 0x01,0x03,0x03,0x0e,0x1c,0xc0,0x03,0xe0,0xc0,0x01,0x00,0x00,0x00,0x00,0x00,
 0x00,0x00,0x00,0x00,0x00,0x00,0x00,0xc0,0x01,0x03,0x30,0x60,0x03,0x06,0xf8,
 0xc1,0xc0,0x01,0x03,0x03,0x06,0x0c,0xf0,0x03,0x70,0xc0,0x00,0x00,0x00,0x00,
 0x00,0x00,0x00,0x00,0x00,0x00,0x00,0x00,0x00,0xc0,0x80,0x01,0x1c,0xb0,0x01,
 0x03,0xde,0x60,0xc0,0x00,0x03,0x03,0x03,0x06,0xbc,0x01,0x38,0x60,0x00,0x00,
 0x00,0x00,0x00,0x00,0x00,0x00,0x00,0x00,0x00,0x00,0x00,0x60,0xc0,0x01,0x0e,
 0xd8,0x81,0x83,0xe7,0x38,0x60,0x00,0x03,0x83,0x03,0x06,0xcf,0x01,0x1e,0x70,
 0x00,0x00,0x00,0x00,0x00,0x00,0x00,0x00,0x00,0x00,0x00,0x00,0x00,0x70,0xc0,
 0xc0,0x07,0xce,0x80,0xe1,0x61,0x3e,0x60,0x80,0x01,0x83,0x01,0xc3,0xc3,0x00,
 0x07,0x60,0x00,0x00,0x00,0x00,0x00,0x00,0x00,0x00,0x00,0x00,0x00,0x00,0x00,
 0x30,0x60,0xf8,0x81,0x67,0xc0,0x79,0xb0,0x07,0x60,0xc0,0x01,0xc3,0x00,0xfb,
 0x60,0x80,0x01,0xc0,0x00,0x00,0x00,0x00,0x00,0x00,0x00,0x00,0x00,0x00,0x00,
 0x00,0x00,0x1c,0xe0,0x3f,0xe0,0x39,0x80,0x1f,0xd8,0x01,0xc0,0xe0,0x00,0x76,
 0x00,0x3f,0x70,0xc0,0xff,0xdf,0x01,0x00,0x00,0x00,0x00,0x00,0x00,0x00,0x00,
 0x00,0x00,0x00,0x00,0x0e,0x80,0x03,0xfc,0x1c,0x00,0x07,0xfc,0xe0,0xff,0x71,
 0xff,0x3f,0x00,0x00,0x30,0xc0,0xff,0xff,0x01,0x00,0x00,0x00,0x00,0x00,0x00,
 0x00,0x00,0x00,0x00,0x00,0x00,0x07,0x00,0xf8,0x1f,0x0f,0x00,0xf8,0xff,0xff,
 0xff,0xe1,0xff,0xef,0xff,0xff,0x1f,0x00,0x00,0xfe,0x01,0x00,0x00,0x00,0x00,
 0x00,0x00,0x00,0x00,0x00,0x00,0x00,0x00,0xff,0xff,0xff,0x03,0xff,0xff,0xff,
 0x07,0x00,0x00,0x00,0x00,0xfe,0xff,0xff,0x0f,0x00,0x00,0x00,0x00,0x00,0x00,
 0x00,0x00,0x00,0x00,0x00,0x00,0x00,0x00,0x00,0x00,0xff,0xff,0x01,0x00,0xfe,
 0xff,0x03,0x00,0x00,0x00,0x00,0x00,0x00,0x00,0x00,0x00,0x00,0x00,0x00,0x00,
 0x00,0x00,0x00,0x00,0x00,0x00,0x00,0x00,0x00,0x00,0x00,0x00,0x00,0x00,0x00,
 0x00,0x00,0x00,0x00,0x00,0x00,0x00,0x00,0x00,0x00,0x00,0x00,0x00,0x00,0x00,
 0x00,0x00,0x00,0x00,0x00,0x00,0x00,0x00 };
