#define _width 256
#define _height 64
static char _bits[] = {
 0x00,0x00,0x00,0x00,0x00,0x00,0x00,0x00,0x00,0x00,0x00,0x00,0x00,0x00,0x00,
 0x00,0x00,0x00,0x00,0x00,0x00,0x00,0x00,0x00,0x00,0x00,0x00,0x00,0x00,0x00,
 0x00,0x00,0x00,0x00,0x00,0x00,0x00,0x00,0x00,0x00,0x00,0x00,0x00,0x00,0x00,
 0x00,0x00,0x00,0x00,0x00,0x00,0x00,0x00,0x00,0x00,0x00,0x00,0x00,0x00,0x00,
 0x00,0x00,0x00,0x00,0x00,0xc0,0xff,0x03,0x00,0x00,0x00,0x00,0x00,0x00,0x00,
 0x00,0x00,0x00,0x00,0x00,0x00,0x00,0x7e,0x80,0xff,0x07,0xfc,0x01,0x00,0x00,
 0x00,0x00,0x00,0xfe,0x0f,0x00,0x00,0xf8,0xff,0x07,0x00,0x00,0x00,0x00,0x00,
 0x00,0x00,0x00,0x00,0x00,0x00,0x00,0x00,0x00,0xfe,0x80,0xff,0x07,0xfc,0x01,
 0x00,0x00,0x00,0x00,0x80,0xff,0x7f,0x00,0x00,0xfe,0xff,0x07,0x00,0x00,0x00,
 0x00,0x00,0x00,0x00,0x00,0x00,0x00,0x00,0x00,0x00,0x00,0xfe,0x80,0xff,0x0f,
 0xfc,0x01,0x00,0x00,0x00,0x00,0xe0,0xff,0xff,0x01,0x80,0xff,0xff,0x07,0x00,
 0x00,0x00,0x00,0x00,0x00,0x00,0x00,0x00,0x00,0x00,0x00,0x00,0x00,0xfc,0x80,
 0xff,0x0f,0xfc,0x01,0x00,0x00,0x00,0x00,0xf0,0xff,0xff,0x03,0xc0,0xff,0xff,
 0x07,0x00,0x00,0x00,0x00,0x00,0x00,0x00,0x00,0x00,0x00,0x00,0x00,0x00,0x00,
 0xfc,0x81,0xff,0x0f,0xfc,0x01,0x00,0x00,0x00,0x00,0xf8,0xff,0xff,0x07,0xe0,
 0xff,0xff,0x0f,0xfc,0xff,0xff,0x0f,0xff,0x3f,0xff,0x0f,0xf0,0xc7,0xff,0xff,
 0x00,0x7f,0xfc,0x81,0xff,0x0f,0xfc,0xf1,0xc7,0xff,0xff,0x01,0xfc,0xff,0xff,
 0x0f,0xf0,0xff,0xff,0x0f,0xfe,0xff,0xff,0x8f,0xff,0xff,0xff,0x1f,0xf0,0xc7,
 0xff,0xff,0x01,0x7f,0xfc,0x81,0xff,0x1f,0xfc,0xf1,0xc7,0xff,0xff,0x03,0xfe,
 0xff,0xff,0x1f,0xf8,0xff,0xff,0x0f,0xff,0xff,0xff,0x8f,0xff,0xff,0xff,0x3f,
 0xf0,0xc7,0xff,0xff,0x03,0x7f,0xf8,0x83,0xff,0x1f,0xfc,0xf1,0xc7,0xff,0xff,
 0x07,0xff,0x0f,0xfc,0x1f,0xfc,0x3f,0x00,0x00,0xff,0xff,0xff,0xcf,0xff,0xff,
 0xff,0x3f,0xf0,0xc7,0xff,0xff,0x03,0x7f,0xf8,0x83,0xff,0x1f,0xfc,0xf1,0xc7,
 0xff,0xff,0x07,0xff,0x03,0xf0,0x3f,0xfc,0x0f,0x00,0x00,0xff,0xff,0xff,0xcf,
 0xff,0xff,0xff,0x3f,0xf0,0xc7,0xff,0xff,0x03,0x7f,0xf8,0x83,0xbf,0x3f,0xfc,
 0xf1,0xc7,0xff,0xff,0x87,0xff,0x00,0xe0,0x3f,0xfe,0x03,0x00,0x00,0xfe,0xff,
 0xff,0xcf,0xff,0xff,0xff,0x7f,0xf0,0xc7,0xff,0xff,0x07,0x7f,0xf8,0x83,0xbf,
 0x3f,0xfc,0xf1,0xc7,0xff,0xff,0x87,0x7f,0x00,0x00,0x00,0xfe,0x01,0x00,0x00,
 0xfe,0x00,0x00,0xc0,0xff,0xff,0xff,0x7f,0xf0,0xc7,0x1f,0xf8,0x07,0x7f,0xf0,
 0x87,0xbf,0x3f,0xfc,0xf1,0xc7,0x1f,0xf0,0x87,0x7f,0x00,0x00,0x00,0xfe,0x01,
 0x00,0x00,0xfe,0x00,0x00,0xc0,0x1f,0xf8,0x03,0x7f,0xf0,0xc7,0x1f,0xf0,0x07,
 0x7f,0xf0,0x87,0xbf,0x3f,0xfc,0xf1,0xc7,0x1f,0xe0,0xcf,0x3f,0x00,0x00,0x00,
 0xff,0x00,0x00,0x00,0xfe,0x00,0x00,0xc0,0x1f,0xf8,0x03,0x7e,0xf0,0xc7,0x1f,
 0xf0,0x07,0x7f,0xf0,0x87,0x3f,0x7f,0xfc,0xf1,0xc7,0x1f,0xe0,0xcf,0x3f,0x00,
 0xff,0x7f,0xff,0x00,0xc0,0xff,0xff,0xff,0xff,0xcf,0x1f,0xf8,0x03,0xfe,0xf0,
 0xc7,0x1f,0xf0,0x0f,0x7f,0xf0,0x8f,0x3f,0x7f,0xfc,0xf1,0xc7,0x1f,0xe0,0xcf,
 0x3f,0x00,0xff,0xff,0x7f,0x00,0x80,0xff,0xff,0xff,0xff,0xcf,0x1f,0xf8,0x03,
 0xfe,0xf0,0xc7,0x1f,0xe0,0x0f,0x7f,0xe0,0x8f,0x3f,0x7f,0xfc,0xf1,0xc7,0x1f,
 0xe0,0xdf,0x1f,0x00,0xff,0xff,0x7f,0x00,0x80,0xff,0xff,0xff,0xff,0xcf,0x1f,
 0xf8,0x03,0xfe,0xf0,0xc7,0x1f,0xe0,0x0f,0x7f,0xe0,0x8f,0x3f,0x7e,0xfc,0xf1,
 0xc7,0x1f,0xe0,0xdf,0x1f,0x00,0xff,0xff,0x7f,0x00,0x80,0xff,0xff,0xff,0xff,
 0xcf,0x1f,0xf8,0x03,0xfc,0xf1,0xc7,0x1f,0xe0,0x1f,0x7f,0xe0,0x8f,0x3f,0xfe,
 0xfc,0xf1,0xc7,0x1f,0xc0,0xdf,0x1f,0x00,0xff,0xff,0x7f,0x00,0x00,0xff,0xff,
 0xff,0xff,0xcf,0x1f,0xf8,0x03,0xfc,0xf1,0xc7,0x1f,0xe0,0x1f,0x7f,0xe0,0x9f,
 0x3f,0xfe,0xfc,0xf1,0xc7,0x1f,0xc0,0xdf,0x1f,0x00,0xff,0xff,0x7f,0x00,0x00,
 0xff,0xff,0xff,0xff,0xcf,0x1f,0xf8,0x03,0xfc,0xf1,0xc7,0x1f,0xc0,0x1f,0x7f,
 0xc0,0x9f,0x3f,0xfc,0xfc,0xf1,0xc7,0x1f,0xc0,0xbf,0x3f,0x00,0xff,0xff,0xff,
 0x00,0x00,0xff,0xf8,0x03,0x00,0xc0,0x1f,0xf8,0x03,0xfc,0xf1,0xc7,0x1f,0xc0,
 0x3f,0x7f,0xc0,0x9f,0x3f,0xfc,0xfd,0xf1,0xc7,0x1f,0xc0,0xbf,0x3f,0x00,0x00,
 0x7f,0xff,0x00,0x00,0xff,0xf8,0x03,0x00,0xc0,0x1f,0xf8,0x03,0xfc,0xf3,0xc7,
 0x1f,0xc0,0x3f,0x7f,0xc0,0x9f,0x3f,0xfc,0xfd,0xf1,0xc7,0x1f,0x80,0xbf,0x7f,
 0x00,0x80,0x7f,0xfe,0x01,0x00,0xfe,0xf0,0x03,0x00,0xc0,0x1f,0xf8,0x03,0xf8,
 0xf3,0xc7,0x1f,0xc0,0x3f,0x7f,0x80,0xff,0x3f,0xfc,0xff,0xf1,0xc7,0x1f,0x80,
 0xbf,0x7f,0x00,0x80,0x7f,0xfe,0x01,0x00,0xfe,0xf0,0xff,0xff,0xcf,0x1f,0xf8,
 0x03,0xf8,0xf7,0xc7,0x1f,0x80,0x7f,0x7f,0x80,0xff,0x3f,0xf8,0xff,0xf1,0xc7,
 0x1f,0x80,0x7f,0xff,0x00,0xe0,0x7f,0xfe,0x03,0x00,0xfe,0xf1,0xff,0xff,0xcf,
 0x1f,0xf8,0x03,0xf8,0xf7,0xc7,0x1f,0x80,0x7f,0x7f,0x80,0xff,0x3f,0xf8,0xff,
 0xf1,0xc7,0x1f,0x00,0x7f,0xff,0x01,0xe0,0x3f,0xfc,0x07,0x00,0xfe,0xe1,0xff,
 0xff,0xcf,0x1f,0xf8,0x03,0xf0,0xf7,0xc7,0x1f,0x80,0x7f,0x7f,0x80,0xff,0x3f,
 0xf8,0xff,0xf1,0xc7,0x1f,0x00,0x7f,0xff,0x07,0xf8,0x3f,0xfc,0x1f,0x00,0xfc,
 0xe1,0xff,0xff,0xcf,0x1f,0xf8,0x03,0xf0,0xf7,0xc7,0x1f,0x00,0x7f,0x7f,0x00,
 0xff,0x3f,0xf0,0xff,0xf1,0xc7,0x1f,0x00,0xff,0xfe,0xff,0xff,0x1f,0xf8,0xff,
 0xff,0xff,0xe1,0xff,0xff,0xcf,0x1f,0xf8,0x03,0xf0,0xf7,0xc7,0x1f,0x00,0x7f,
 0x7f,0x00,0xff,0x3f,0xf0,0xff,0xf1,0xc7,0x1f,0x00,0xff,0xfc,0xff,0xff,0x0f,
 0xf0,0xff,0xff,0xff,0xc3,0xff,0xff,0xcf,0x1f,0xf8,0x03,0xf0,0xf7,0xc7,0x1f,
 0x00,0x7f,0x7f,0x00,0xff,0x3f,0xf0,0xff,0xf1,0xc7,0x1f,0x00,0xfe,0xfc,0xff,
 0xff,0x07,0xe0,0xff,0xff,0xff,0x03,0xff,0xff,0xcf,0x1f,0xf8,0x03,0xe0,0xf7,
 0xc7,0x1f,0x00,0x7f,0x7f,0x00,0x00,0x00,0x00,0x00,0x00,0x00,0x00,0x00,0x00,
 0xf8,0xff,0xff,0x03,0xc0,0xff,0xff,0xff,0x03,0x00,0x00,0x00,0x00,0x00,0x00,
 0x00,0x00,0x00,0x00,0x00,0x00,0x00,0x00,0x00,0x00,0x00,0x00,0x00,0x00,0x00,
 0x00,0x00,0xf0,0xff,0xff,0x01,0x80,0xff,0xff,0xff,0x07,0x00,0x00,0x00,0x00,
 0x00,0x00,0x00,0x00,0x00,0x00,0x00,0x00,0x00,0x00,0x00,0x00,0x00,0x00,0x00,
 0x00,0x00,0x00,0x00,0xc0,0xff,0xff,0x00,0x00,0xff,0xff,0xff,0x87,0xff,0xff,
 0xff,0xff,0xff,0xff,0xff,0xff,0xff,0xff,0x0f,0x00,0xfc,0xff,0xff,0xff,0xff,
 0xff,0xff,0xff,0xff,0xff,0x7f,0x00,0xff,0x3f,0x00,0x00,0xfc,0xff,0xff,0x87,
 0xff,0xff,0xff,0xff,0xff,0xff,0xff,0xff,0xff,0xff,0x07,0x00,0xf8,0xff,0xff,
 0xff,0xff,0xff,0xff,0xff,0xff,0xff,0x7f,0x00,0xfc,0x07,0x00,0x00,0x00,0x00,
 0x00,0x00,0xff,0xff,0xff,0xff,0xff,0xff,0xff,0xff,0xff,0xff,0x07,0x0c,0xf8,
 0xff,0xff,0xff,0xff,0xff,0xff,0xff,0xff,0xff,0x3f,0x00,0x00,0x00,0x00,0x00,
 0x00,0x00,0x00,0x00,0xff,0xff,0xff,0xff,0xff,0xff,0xff,0xff,0xff,0xff,0x03,
 0x0c,0xf0,0xff,0xff,0xff,0xff,0xff,0xff,0xff,0xff,0xff,0x3f,0x00,0x00,0x00,
 0x00,0x00,0x00,0x00,0x00,0x00,0x00,0x00,0x00,0x00,0x00,0x00,0x00,0x00,0x00,
 0xc0,0x01,0x1e,0xe0,0x00,0x00,0x00,0x00,0x00,0x00,0x00,0x00,0x00,0x00,0x00,
 0x00,0x00,0x00,0x00,0x00,0x00,0x00,0x00,0xfc,0xff,0xff,0xff,0xff,0xff,0xff,
 0xff,0xff,0xef,0x01,0x3f,0xe0,0xfd,0xff,0xff,0xff,0xff,0xff,0xff,0xff,0xff,
 0x0f,0x00,0x00,0x00,0x00,0x00,0x00,0x00,0x00,0x00,0xfc,0xff,0xff,0xff,0xff,
 0xff,0xff,0xff,0xff,0xf7,0x00,0x3f,0xc0,0xfb,0xff,0xff,0xff,0xff,0xff,0xff,
 0xff,0xff,0x0f,0x00,0x00,0x00,0x00,0x00,0x00,0x00,0x00,0x00,0xf8,0xff,0xff,
 0xff,0xff,0xff,0xff,0xff,0xff,0xfb,0xbf,0x73,0xff,0xf7,0xff,0xff,0xff,0xff,
 0xff,0xff,0xff,0xff,0x07,0x00,0x00,0x00,0x00,0x00,0x00,0x00,0x00,0x00,0xf8,
 0xff,0xff,0xff,0xff,0xff,0xff,0xff,0xff,0xfb,0xbf,0x73,0xff,0xf7,0xff,0xff,
 0xff,0xff,0xff,0xff,0xff,0xff,0x07,0x00,0x00,0x00,0x00,0x00,0x00,0x00,0x00,
 0x00,0x00,0x00,0x00,0x00,0x00,0x00,0x00,0x00,0xc0,0xfd,0xdf,0xed,0xfe,0xef,
 0x00,0x00,0x00,0x00,0x00,0x00,0x00,0x00,0x00,0x00,0x00,0x00,0x00,0x00,0x00,
 0x00,0x00,0x00,0xe0,0xff,0xff,0xff,0xff,0xff,0xff,0xff,0xef,0xfe,0xef,0xde,
 0xfd,0xdf,0xfd,0xff,0xff,0xff,0xff,0xff,0xff,0xff,0x01,0x00,0x00,0x00,0x00,
 0x00,0x00,0x00,0x00,0x00,0xe0,0xff,0xff,0xff,0xff,0xff,0xff,0xff,0x77,0x00,
 0xe0,0xde,0x01,0x80,0xfb,0xff,0xff,0xff,0xff,0xff,0xff,0xff,0x01,0x00,0x00,
 0x00,0x00,0x00,0x00,0x00,0x00,0x00,0xc0,0xff,0xff,0xff,0xff,0xff,0xff,0xff,
 0xfb,0xff,0x77,0xb3,0xfb,0xff,0xf7,0xff,0xff,0xff,0xff,0xff,0xff,0xff,0x00,
 0x00,0x00,0x00,0x00,0x00,0x00,0x00,0x00,0x00,0xc0,0xff,0xff,0xff,0xff,0xff,
 0xff,0xff,0xfb,0xff,0x77,0xb3,0xfb,0xff,0xf7,0xff,0xff,0xff,0xff,0xff,0xff,
 0xff,0x00,0x00,0x00,0x00,0x00,0x00,0x00,0x00,0x00,0x00,0x00,0x00,0x00,0x00,
 0x00,0x00,0x00,0xe0,0xfd,0xff,0xbb,0x6d,0xf7,0xff,0xef,0x01,0x00,0x00,0x00,
 0x00,0x00,0x00,0x00,0x00,0x00,0x00,0x00,0x00,0x00,0x00,0x00,0x00,0x00,0x00,
 0x00,0x00,0x00,0x00,0x00,0xf0,0xfe,0xff,0xbb,0x6d,0xf7,0xff,0xdf,0x03,0x00,
 0x00,0x00,0x00,0x00,0x00,0x00,0x00,0x00,0x00,0x00,0x00,0x00,0x00,0x00,0x00,
 0x00,0x00,0x00,0x00,0x00,0x00,0x00,0x70,0x00,0x00,0xdc,0xde,0x0e,0x00,0x80,
 0x03,0x00,0x00,0x00,0x00,0x00,0x00,0x00,0x00,0x00,0x00,0x00,0x00,0x00,0x00,
 0x00,0x00,0x00,0x00,0x00,0x00,0x00,0x00,0x00,0xf8,0xff,0xff,0x6e,0xbf,0xdd,
 0xff,0xff,0x07,0x00,0x00,0x00,0x00,0x00,0x00,0x00,0x00,0x00,0x00,0x00,0x00,
 0x00,0x00,0x00,0x00,0x00,0x00,0x00,0x00,0x00,0x00,0x00,0xfc,0xff,0xff,0x6e,
 0xbf,0xdd,0xff,0xff,0x0f,0x00,0x00,0x00,0x00,0x00,0x00,0x00,0x00,0x00,0x00,
 0x00,0x00,0x00,0x00,0x00,0x00,0x00,0x00,0x00,0x00,0x00,0x00,0x00,0xfc,0xff,
 0x7f,0xb7,0x7f,0xbb,0xff,0xff,0x0f,0x00,0x00,0x00,0x00,0x00,0x00,0x00,0x00,
 0x00,0x00,0x00,0x00,0x00,0x00,0x00,0x00,0x00,0x00,0x00,0x00,0x00,0x00,0x00,
 0xfe,0xff,0x7f,0xb7,0x7f,0xbb,0xff,0xff,0x1f,0x00,0x00,0x00,0x00,0x00,0x00,
 0x00,0x00,0x00,0x00,0x00,0x00,0x00,0x00,0x00,0x00,0x00,0x00,0x00,0x00,0x00,
 0x00,0x00,0x00,0x00,0x80,0x1b,0x00,0x76,0x00,0x00,0x00,0x00,0x00,0x00,0x00,
 0x00,0x00,0x00,0x00,0x00,0x00,0x00,0x00,0x00,0x00,0x00,0x00,0x00,0x00,0x00,
 0x00,0x00,0x00,0x00,0x00,0x00,0xc0,0xfd,0xff,0xef,0x00,0x00,0x00,0x00,0x00,
 0x00,0x00,0x00,0x00,0x00,0x00,0x00,0x00,0x00,0x00,0x00,0x00,0x00,0x00,0x00,
 0x00,0x00,0x00,0x00,0x00,0x00,0x00,0x00,0xc0,0xfd,0xff,0xef,0x00,0x00,0x00,
 0x00,0x00,0x00,0x00,0x00,0x00,0x00,0x00,0x00,0x00,0x00,0x00,0x00,0x00,0x00,
 0x00,0x00,0x00,0x00,0x00,0x00,0x00,0x00,0x00,0x00,0xe0,0x00,0x00,0xc0,0x01,
 0x00,0x00,0x00,0x00,0x00,0x00,0x00,0x00,0x00,0x00,0x00,0x00,0x00,0x00,0x00,
 0x00,0x00,0x00,0x00,0x00,0x00,0x00,0x00,0x00,0x00,0x00,0x00,0xe0,0xff,0xff,
 0xff,0x01,0x00,0x00,0x00,0x00,0x00,0x00,0x00,0x00,0x00,0x00,0x00,0x00,0x00,
 0x00,0x00,0x00,0x00,0x00,0x00,0x00,0x00,0x00,0x00,0x00,0x00,0x00,0x00,0xf0,
 0xff,0xff,0xff,0x03,0x00,0x00,0x00,0x00,0x00,0x00,0x00,0x00,0x00,0x00,0x00,
 0x00,0x00,0x00,0x00,0x00,0x00,0x00,0x00,0x00,0x00,0x00,0x00,0x00,0x00,0x00,
 0x00,0x00,0x00,0x00,0x00,0x00,0x00,0x00,0x00,0x00,0x00,0x00,0x00,0x00,0x00,
 0x00,0x00,0x00,0x00,0x00,0x00,0x00,0x00,0x00,0x00,0x00,0x00,0x00,0x00,0x00,
 0x00,0x00,0x00,0x00,0x00,0x00,0x00,0x00,0x00,0x00,0x00,0x00,0x00,0x00,0x00,
 0x00,0x00,0x00,0x00,0x00,0x00,0x00,0x00,0x00,0x00,0x00,0x00,0x00,0x00,0x00,
 0x00,0x00,0x00,0x00,0x00,0x00,0x00,0x00,0x00,0x00,0x00,0x00,0x00,0x00,0x00,
 0x00,0x00,0x00,0x00,0x00,0x00,0x00,0x00 };
