#define _width 256
#define _height 64
static char _bits[] = {
 0xc0,0x03,0x00,0x00,0x00,0x00,0x00,0x00,0x00,0x00,0x00,0x00,0x00,0x00,0x00,
 0x00,0x00,0x00,0x00,0x00,0x00,0x00,0x00,0x00,0x00,0x00,0x00,0x00,0x00,0x00,
 0x00,0x00,0x40,0x3e,0x00,0x00,0x00,0xf0,0x01,0x00,0x00,0x00,0x00,0x00,0x00,
 0x00,0x00,0x00,0x00,0x00,0x00,0x00,0x00,0x00,0x00,0x00,0x00,0x00,0x00,0x00,
 0x00,0x00,0x00,0x00,0x60,0xe0,0x03,0x00,0xf0,0xdf,0x01,0x00,0x00,0x00,0x00,
 0x00,0x00,0x00,0x00,0x00,0x00,0x00,0x00,0x00,0x00,0x00,0x00,0x00,0x00,0x00,
 0x00,0x00,0x00,0x03,0x00,0x00,0x20,0x00,0x1e,0xc0,0x1f,0xc0,0x01,0x00,0x00,
 0x00,0x00,0x00,0x00,0x00,0x00,0x00,0x00,0x00,0x00,0x00,0x00,0x00,0x00,0x00,
 0x00,0x00,0x00,0x00,0xf0,0x03,0x00,0x00,0x20,0x00,0xf0,0x70,0x00,0xc0,0x01,
 0x00,0x00,0x00,0x00,0x00,0x00,0x00,0x00,0x00,0xc0,0x01,0x00,0x00,0x00,0x00,
 0x00,0x00,0x00,0x00,0x00,0x00,0x9f,0x03,0x00,0x00,0x20,0x00,0x80,0x17,0x00,
 0xc0,0x01,0x00,0x00,0x00,0xfe,0x07,0x00,0x00,0x00,0x00,0xfe,0x01,0x00,0xfe,
 0xff,0x03,0x00,0x00,0x00,0x00,0x00,0xf8,0x81,0x03,0x00,0x00,0x20,0x00,0x00,
 0x17,0x00,0xc0,0x01,0x00,0x00,0xe0,0x07,0x3e,0x00,0x00,0x00,0xf0,0xc3,0x03,
 0x00,0x03,0x00,0x03,0x00,0x00,0x00,0x00,0x80,0x0f,0x80,0x03,0x38,0x00,0x20,
 0x00,0x00,0x17,0x00,0xc0,0x01,0x00,0x00,0x38,0x00,0xe0,0x00,0x00,0x00,0x1c,
 0x80,0x03,0x00,0x01,0x00,0x03,0x00,0x00,0x00,0x00,0xc0,0x00,0x80,0x03,0x6c,
 0x00,0x20,0x00,0x00,0x17,0x00,0xc0,0x01,0x00,0x00,0x0e,0x00,0x80,0x01,0x00,
 0x00,0x06,0x80,0x03,0x80,0x01,0x00,0x03,0x00,0x00,0x00,0x00,0x40,0x00,0x80,
 0x03,0xc7,0x00,0x30,0x00,0x00,0x17,0x00,0xc0,0x01,0x00,0x00,0x07,0x00,0x00,
 0x03,0x00,0x00,0x02,0x80,0x07,0xc0,0x00,0x00,0x03,0x00,0x00,0x00,0x00,0x40,
 0x00,0x80,0x83,0x81,0x00,0x10,0x00,0x80,0x13,0x00,0xc0,0x03,0x00,0x80,0x01,
 0x00,0x00,0x06,0x00,0x00,0x02,0x00,0x07,0x40,0x00,0x00,0x03,0x00,0x00,0x00,
 0x00,0x40,0x00,0x80,0xc3,0x80,0x01,0x30,0x00,0x80,0x13,0x00,0x80,0x03,0x00,
 0xc0,0x00,0x00,0x00,0x0c,0x00,0x00,0x02,0x00,0x07,0x60,0x00,0x00,0x03,0x00,
 0x00,0x00,0x00,0x40,0x00,0x80,0x63,0x00,0x03,0xf0,0x00,0x80,0x33,0x00,0x80,
 0x03,0x00,0x60,0x00,0x00,0x00,0x1c,0x00,0x00,0x02,0x00,0x0f,0x20,0x00,0x00,
 0x03,0x00,0x00,0x00,0x00,0x40,0x00,0x80,0x33,0x00,0x06,0xf0,0x00,0x80,0x33,
 0x00,0x80,0x03,0x00,0x30,0x00,0x00,0x00,0xfa,0x0f,0x00,0x02,0x00,0x0e,0x30,
 0x00,0x00,0x03,0x00,0x38,0xfe,0x1f,0x40,0x00,0x80,0x1b,0x00,0x04,0xc0,0x00,
 0x80,0xe3,0x01,0xf8,0x03,0x00,0x38,0x00,0x00,0x00,0x03,0xf8,0x07,0x02,0x00,
 0x0e,0x10,0x00,0x00,0x03,0x80,0x3f,0x06,0xf0,0x41,0x00,0x80,0x0f,0x00,0x0e,
 0x80,0x00,0x80,0xe3,0x01,0xf8,0x03,0x00,0x18,0x00,0x00,0x00,0x03,0x00,0xfc,
 0x0f,0x00,0x1e,0x18,0x00,0x00,0x03,0xfe,0x18,0x02,0x00,0x5f,0x00,0xf0,0x07,
 0x00,0x0f,0x80,0x00,0xf8,0x03,0x01,0x18,0x80,0xff,0x07,0x00,0x00,0x80,0x03,
 0x00,0x00,0xf8,0x01,0x1c,0x08,0x00,0x00,0xf3,0x03,0x38,0x03,0x00,0xf0,0x0f,
 0xf8,0x00,0xc0,0x03,0x80,0x00,0xf8,0x01,0x01,0x18,0xff,0x00,0x07,0x00,0xfe,
 0x81,0x03,0x00,0x00,0x80,0x01,0x3c,0x0c,0x00,0x80,0x13,0x00,0x38,0x01,0x00,
 0x80,0x0f,0xb8,0x01,0x80,0x01,0x80,0x00,0xcc,0x01,0x01,0xf8,0x01,0x00,0x02,
 0x00,0xff,0xc7,0x01,0x00,0x00,0x80,0x01,0x38,0x04,0x00,0xfc,0x1b,0x00,0xb8,
 0x01,0x00,0x00,0x0f,0x18,0x03,0x80,0x01,0xc0,0x00,0x0c,0x00,0x01,0x08,0x00,
 0x00,0x02,0xc0,0x07,0xdc,0x01,0x00,0x00,0x80,0x01,0x38,0x06,0x00,0xfc,0x0f,
 0x00,0xb8,0x00,0x00,0x00,0x06,0x1c,0x02,0x00,0x01,0xc0,0x00,0x0c,0x00,0x01,
 0x08,0x00,0x00,0x02,0xe0,0x03,0xf8,0x01,0x00,0x00,0x80,0x01,0x78,0x02,0x00,
 0xfc,0x0f,0x00,0xf8,0x00,0x00,0x00,0x04,0x1c,0x06,0x00,0x03,0x40,0x00,0x06,
 0x00,0x01,0x08,0x00,0x00,0x02,0xe0,0x01,0xe0,0x01,0x00,0x00,0x80,0x01,0x70,
 0x03,0x00,0x1c,0x04,0x00,0x78,0x00,0x00,0x00,0x0c,0x1c,0x0c,0x00,0x02,0x40,
 0x00,0x06,0xf0,0x01,0x08,0x00,0x00,0x02,0xf0,0x00,0x00,0x01,0x00,0xfe,0x81,
 0x01,0xf0,0x01,0x00,0x1c,0x04,0x00,0x78,0x00,0x00,0x00,0x08,0x1c,0x48,0x00,
 0x02,0x40,0x00,0xff,0x3f,0x00,0x08,0x00,0x00,0x02,0x70,0x00,0x00,0x39,0xe0,
 0xff,0x81,0x01,0xf0,0x00,0x00,0x1c,0x02,0x00,0xf8,0x03,0x00,0x00,0x18,0x1c,
 0xf8,0x00,0x06,0x40,0x00,0x00,0x00,0x00,0x08,0x00,0x00,0x02,0x38,0x00,0x00,
 0x1f,0xe0,0xff,0x81,0x01,0xe0,0x00,0x00,0x1c,0x02,0x00,0xf8,0x0f,0x00,0x00,
 0x10,0x1c,0xf0,0x00,0x04,0x40,0x00,0x00,0x00,0x00,0x08,0x00,0x00,0x02,0x38,
 0x00,0x00,0x1f,0xc0,0x81,0x81,0x01,0x60,0x00,0x00,0x1c,0x03,0x08,0xb8,0x0f,
 0xe0,0x00,0x10,0x1c,0xe0,0x01,0x04,0x40,0x00,0x00,0x00,0x00,0x08,0x00,0xc0,
 0x03,0x1c,0x00,0xc0,0x1f,0xc0,0x81,0x81,0x01,0x60,0x00,0x00,0x1c,0x01,0x0c,
 0x38,0x0c,0xe0,0x03,0x10,0x1c,0x20,0x01,0x0c,0x40,0x00,0x00,0x00,0x00,0x08,
 0x00,0xf8,0x00,0x1c,0x00,0x78,0x1c,0xc0,0x81,0xff,0x01,0x00,0x00,0x00,0x1c,
 0x01,0x04,0x38,0x04,0xe0,0x07,0x10,0x1c,0x00,0x01,0x08,0x40,0x00,0x00,0x00,
 0x00,0x08,0x00,0x78,0x00,0x1c,0x00,0x0f,0x18,0x80,0x83,0xff,0x00,0x00,0x00,
 0x00,0x9c,0x01,0x0e,0x38,0x04,0xe0,0x07,0x10,0x1c,0x00,0x01,0x18,0x40,0x00,
 0x00,0x00,0x00,0x08,0x00,0x78,0x00,0x0c,0xe0,0x01,0x18,0x80,0xff,0xff,0x00,
 0x00,0x00,0x00,0x9c,0x00,0x06,0x38,0x06,0xe0,0x04,0x10,0x1c,0x00,0x03,0x18,
 0x40,0x00,0x00,0x00,0x00,0x18,0x00,0x78,0x00,0x0c,0x3c,0x00,0x18,0x80,0x07,
 0xf8,0x00,0x00,0x00,0x00,0xdc,0x00,0x07,0x38,0x02,0xe0,0x04,0x10,0x1c,0x00,
 0x02,0x10,0x60,0x00,0x00,0x00,0x00,0x98,0x03,0x78,0x00,0x8e,0x07,0x00,0x18,
 0x00,0x00,0x78,0x00,0x00,0x00,0x00,0x5c,0x00,0x07,0x38,0x02,0x70,0x04,0x10,
 0x18,0x00,0x02,0x30,0x20,0x00,0x00,0x00,0x00,0xf8,0x03,0x78,0x00,0x8e,0x00,
 0x00,0x10,0x00,0x00,0x78,0x00,0x00,0x00,0x00,0x4c,0x80,0x07,0x38,0x03,0xf0,
 0x07,0x18,0x38,0x00,0x02,0x30,0x20,0x00,0x00,0x00,0x00,0xfc,0x03,0x78,0x00,
 0x8e,0x00,0x00,0x10,0x00,0x00,0x78,0x00,0x00,0x00,0x00,0x3e,0xc0,0x07,0x38,
 0x01,0xf0,0x01,0x08,0x38,0x00,0x02,0x20,0x20,0x00,0x00,0x70,0x00,0xfc,0x02,
 0x78,0x00,0x8e,0x00,0x00,0x10,0x00,0x00,0x78,0x00,0x00,0x40,0x00,0x3e,0xc0,
 0x07,0x38,0x01,0x00,0x00,0x0c,0x38,0x00,0x02,0x60,0x20,0x00,0x00,0x7e,0x00,
 0x1c,0x02,0x78,0x00,0x8e,0x00,0x00,0x10,0x00,0x00,0x58,0x00,0x00,0x40,0x00,
 0x3e,0xe0,0x00,0xb8,0x00,0x00,0x00,0x04,0x70,0x00,0x02,0x60,0x20,0x00,0xe0,
 0x7f,0x00,0x1c,0x06,0x78,0x00,0x8c,0x00,0x00,0x20,0x00,0x00,0x58,0x40,0x00,
 0x60,0x00,0x1e,0x00,0x00,0xb8,0x00,0x00,0x00,0x06,0x70,0x00,0x02,0x60,0x20,
 0x00,0xfc,0x7f,0x00,0x1c,0x06,0x78,0x00,0x8c,0x00,0x00,0x20,0x00,0x00,0x5c,
 0xc0,0x00,0x70,0x00,0x1e,0x00,0x00,0xf8,0x00,0x00,0x00,0x07,0xe0,0x00,0x02,
 0x60,0x20,0x00,0xff,0x21,0x00,0x1c,0x04,0x78,0x00,0x8c,0x00,0x00,0x20,0x00,
 0x00,0x5c,0x80,0x00,0x70,0x00,0x0e,0x00,0x00,0xf8,0x00,0x00,0x80,0x07,0xe0,
 0x00,0x02,0x60,0x20,0x00,0x1f,0x20,0x00,0x1c,0x04,0x78,0x00,0x8c,0x00,0x00,
 0x3f,0x00,0x00,0x5c,0x80,0x01,0x78,0x00,0x0e,0x00,0x00,0x78,0x00,0x00,0xe0,
 0x03,0xc0,0x01,0x03,0xe0,0x20,0x00,0x06,0x20,0x00,0x1c,0x04,0x78,0x00,0x98,
 0x30,0x00,0x3f,0xc0,0xff,0xdf,0x83,0x03,0x78,0x00,0x06,0x00,0x00,0x78,0x00,
 0x00,0xf8,0x01,0x80,0x83,0x01,0xe0,0x20,0x00,0x06,0x20,0x00,0x1c,0x04,0x78,
 0x00,0x98,0x1d,0x00,0x1e,0xc0,0xff,0xff,0x83,0x03,0x78,0x00,0x06,0x00,0x00,
 0x38,0x00,0x1c,0xf8,0x01,0x00,0xcf,0x00,0xe0,0x30,0x00,0x06,0x3f,0x00,0x1c,
 0x04,0xf8,0x00,0x38,0x1f,0x00,0x16,0xc0,0xff,0x07,0x82,0x07,0x38,0x00,0x06,
 0x00,0x00,0x38,0x00,0x1c,0xe0,0x07,0x00,0x7e,0x00,0x60,0x30,0x00,0x06,0x1f,
 0x00,0x1c,0x04,0xf8,0x00,0x30,0x0f,0x00,0x14,0xc0,0x41,0x00,0x82,0x07,0x3c,
 0x00,0x02,0x00,0x00,0x38,0x00,0x3c,0x00,0x0c,0x00,0x00,0x00,0x60,0x10,0x00,
 0x0e,0x01,0x00,0x1c,0x0c,0xf8,0x00,0xe0,0x07,0x00,0x1c,0xc0,0x41,0x00,0x82,
 0x0f,0x2c,0x00,0x02,0xe0,0x03,0x38,0x00,0x3c,0x00,0x18,0x00,0x00,0x00,0x60,
 0x10,0x00,0x0c,0x01,0x00,0x3c,0x0c,0xf8,0x03,0xc0,0x07,0x00,0x18,0xc0,0x41,
 0x00,0x82,0x0b,0x26,0x00,0x02,0xfc,0x03,0xf8,0x00,0x7c,0x00,0x30,0x00,0x00,
 0x00,0x70,0x10,0x00,0x0c,0x01,0x00,0xe0,0x0f,0x38,0x02,0x00,0x00,0x00,0x10,
 0x80,0x41,0x00,0x83,0x1f,0x3f,0x00,0x06,0xfc,0x03,0xc0,0x00,0x7c,0x00,0x60,
 0x00,0x00,0x00,0x70,0x1f,0x00,0x3c,0x01,0x00,0xe0,0x03,0x00,0x02,0x00,0x00,
 0x00,0x30,0x80,0x7f,0x00,0x03,0x1c,0x07,0x00,0xfc,0xfc,0x03,0xc0,0x00,0x7c,
 0x00,0x30,0x00,0x00,0x00,0x70,0x01,0x00,0x38,0x01,0x00,0x20,0x00,0x00,0x02,
 0x00,0x00,0x00,0xe0,0x00,0x00,0x00,0x01,0xfc,0x07,0x00,0xc0,0x60,0x00,0xc0,
 0x00,0xe0,0x00,0x10,0x00,0x00,0x00,0x38,0x01,0x00,0x38,0x01,0x00,0x20,0x00,
 0x00,0x06,0x00,0x00,0x00,0x80,0x00,0x00,0x00,0x01,0xfc,0x07,0x00,0x40,0x60,
 0x00,0xc0,0x00,0xe0,0x01,0x18,0x00,0x00,0x00,0x1c,0x01,0x00,0x30,0x01,0x00,
 0x20,0x00,0x00,0x0e,0x00,0x00,0x00,0xc0,0x00,0x00,0x00,0x01,0xd8,0x05,0x00,
 0x40,0x70,0x00,0xc0,0x00,0xe0,0x01,0x3c,0x00,0x00,0x00,0x1c,0x03,0x00,0x70,
 0x01,0x00,0x20,0x00,0x00,0x0e,0x00,0x00,0x00,0x60,0x00,0x00,0x00,0x01,0x98,
 0x05,0x00,0x40,0x70,0x00,0xc0,0x00,0xe0,0x00,0x7c,0x00,0x00,0x00,0x1c,0x02,
 0x00,0x70,0x01,0x00,0x20,0x00,0x00,0x1e,0x00,0x00,0x00,0x30,0x00,0x00,0x00,
 0x01,0x38,0x04,0x00,0x40,0x70,0x00,0xc0,0x00,0x60,0x00,0x7e,0x00,0x00,0x00,
 0x0e,0x02,0x00,0x70,0x01,0x00,0x20,0x00,0x00,0x3e,0x00,0x00,0x0c,0x18,0x00,
 0x00,0x00,0x01,0x38,0x04,0x00,0x60,0x78,0x00,0xc0,0x00,0x60,0x00,0xcf,0x00,
 0x00,0x00,0x07,0x02,0x00,0x70,0x01,0x00,0x20,0x00,0x00,0x2e,0x00,0x00,0x1f,
 0x0e,0x00,0x00,0x00,0x01,0x38,0x04,0x00,0x20,0x78,0x00,0xc0,0x00,0xe0,0x00,
 0x87,0x01,0x00,0x80,0x03,0x02,0x00,0x70,0x03,0x00,0x20,0x00,0x00,0xee,0x00,
 0xc0,0x1f,0xff,0x0f,0x00,0x00,0x01,0x38,0x04,0x00,0x20,0x58,0x00,0xc0,0x00,
 0xe0,0x81,0x07,0x03,0x00,0xe0,0x03,0x02,0x00,0x70,0x03,0x00,0x20,0x00,0x00,
 0xce,0x01,0xf0,0x37,0xff,0xff,0x1f,0x00,0x01,0x38,0x04,0x00,0x20,0x5c,0x00,
 0xfc,0x00,0xe0,0x83,0x03,0x0f,0x00,0xf0,0x03,0x06,0x00,0x7e,0xff,0xff,0xff,
 0x1f,0x00,0x8e,0x0f,0xfe,0xe1,0xff,0xff,0xff,0x3f,0xff,0x3f,0x7c,0x00,0x30,
 0x5c,0xf0,0xff,0xff,0xe1,0xc6,0x03,0x3e,0x00,0xfe,0x00,0x04,0xf8,0x7f,0xfe,
 0xff,0xff,0xff,0xff,0x0f,0xff,0x7f,0xc0,0x01,0xc0,0xff,0xff,0xff,0x3f,0xfc,
 0x07,0xf0,0xdd,0xff,0xff,0xff,0xff,0xec,0x01,0xf8,0xe7,0x7f,0x00,0xc4,0xff,
 0x1f,0xfe,0xff,0xff,0xff,0xff,0x0f,0xfc,0x1f,0xc0,0x00,0x00,0x80,0xff,0xff,
 0x3f,0xf8,0x7f,0xf0,0xdf,0xff,0xf9,0xff,0xff,0xf8,0x00,0xe0,0xff,0x1f,0x00,
 0xfc,0xff,0x01,0x00,0x00,0x00,0xc0,0xff,0x0f,0xc0,0x01,0x00,0x00,0x00,0x00,
 0x00,0x00,0x00,0x80,0xff,0xf3,0xdf,0x0f,0x00,0x80,0xff,0xf0,0x00,0x80,0xff,
 0x07,0x00,0xfc,0x07,0x00,0x00,0x00,0x00,0x00,0x00,0x06,0x00,0x00,0x00,0x00,
 0x00,0x00,0x00,0x00,0x00,0x00,0xf8,0x7f,0x0f,0x00,0x00,0x00,0x00,0x60,0x00,
 0x00,0x78,0x00,0x00,0x3c,0x00,0x00,0x00,0x00,0x00,0x00,0x00,0x00,0x00,0x00,
 0x00,0x00,0x00,0x00,0x00,0x00,0x00,0x00,0x80,0x3f,0x00,0x00,0x00,0x00,0x00,
 0x00,0x00,0x00,0x00,0x00,0x00,0x00,0x00,0x00,0x00,0x00,0x00,0x00,0x00,0x00,
 0x00,0x00,0x00,0x00,0x00,0x00,0x00,0x00,0x00,0x00,0x00,0x3e,0x00,0x00,0x00,
 0x00,0x00,0x00,0x00,0x00,0x00,0x00,0x00 };
