#define _width 256
#define _height 64
static char _bits[] = {
 0x00,0x00,0x00,0x00,0x00,0x00,0x00,0x00,0xf8,0xff,0x7f,0xe0,0xff,0xff,0x00,
 0x00,0x00,0x00,0x00,0x00,0x00,0x00,0x00,0x00,0x00,0x00,0x00,0x00,0x00,0x00,
 0x00,0x00,0x00,0x00,0x00,0x00,0x00,0x00,0x00,0x00,0xf0,0xff,0x7f,0xe0,0xff,
 0xff,0x01,0x00,0x00,0x00,0x00,0x00,0x00,0x00,0x00,0x00,0x00,0x00,0x00,0x00,
 0x00,0x00,0x00,0x00,0x00,0x00,0x00,0x00,0x00,0x00,0x00,0x00,0xf0,0xff,0x3f,
 0xe0,0xff,0xff,0x01,0x00,0x00,0x00,0x00,0x00,0x00,0x00,0x00,0x00,0x00,0x00,
 0x00,0x00,0x00,0x00,0x00,0x00,0x00,0x00,0x00,0x00,0x00,0x00,0x00,0x00,0xc0,
 0xff,0x1f,0xe0,0xff,0xff,0x00,0x00,0x00,0x00,0x00,0x00,0x00,0x00,0x00,0x00,
 0x00,0x00,0x00,0x00,0x00,0x00,0x00,0x00,0x00,0x00,0x00,0x00,0x00,0x00,0x00,
 0x00,0x80,0xff,0x07,0x00,0xfc,0x00,0x00,0x00,0x00,0x00,0x00,0x00,0x00,0x00,
 0x00,0x00,0x00,0x00,0x00,0x00,0x00,0x00,0x00,0x00,0x00,0x00,0x00,0x00,0x00,
 0x00,0x00,0x00,0x80,0xff,0x07,0x00,0x3f,0x00,0x00,0x00,0x00,0x00,0x00,0x00,
 0x00,0x00,0x00,0x00,0x00,0x00,0x00,0x00,0x00,0x00,0x00,0x00,0x00,0x00,0x00,
 0x00,0x00,0x00,0x00,0x00,0x80,0xff,0x07,0xc0,0x1f,0x00,0x80,0x07,0x00,0x00,
 0x00,0x00,0x00,0x00,0x00,0x00,0x00,0x00,0x00,0x00,0x00,0x00,0x00,0x00,0x00,
 0x00,0x00,0x00,0x00,0x00,0x00,0x00,0x80,0xff,0x07,0xf0,0x07,0x00,0xe0,0x0f,
 0x00,0x00,0x00,0x00,0x00,0x00,0x00,0x00,0x00,0x00,0x00,0x00,0x00,0x00,0x00,
 0x00,0x00,0x00,0x00,0x00,0x00,0x00,0x00,0x00,0x80,0xff,0x07,0xfe,0x00,0x00,
 0xf0,0x0f,0x00,0x00,0x00,0x00,0x00,0x00,0x00,0x00,0x00,0x00,0x00,0x00,0x00,
 0x00,0x00,0x00,0x00,0x00,0x00,0x00,0x00,0x00,0x00,0x00,0x80,0xff,0x87,0x3f,
 0x00,0x00,0xf0,0x0f,0x00,0x00,0x00,0x00,0x00,0x00,0x00,0x00,0x00,0x00,0x00,
 0x00,0x00,0x00,0x00,0x00,0x00,0x00,0x00,0x00,0x00,0x00,0x00,0x00,0x80,0xff,
 0xe7,0xff,0x01,0x00,0xf8,0x0f,0x00,0x00,0x00,0x00,0x03,0x00,0x00,0x00,0x00,
 0x00,0x00,0x00,0x00,0x00,0x00,0x00,0x00,0x00,0x00,0x00,0x00,0x00,0x00,0x00,
 0x80,0xff,0xff,0xff,0x07,0x00,0xf8,0x07,0x00,0x00,0x00,0xc0,0x07,0x00,0x00,
 0x00,0x00,0x00,0x00,0x00,0x00,0x00,0x00,0x00,0x00,0x00,0x00,0x00,0x00,0x00,
 0x00,0x00,0x80,0xff,0xff,0xff,0x0f,0x00,0xf8,0x03,0x00,0x00,0x80,0xff,0x0f,
 0x00,0x00,0x00,0x00,0x00,0x00,0x00,0x00,0x00,0x00,0x00,0x00,0x00,0x00,0x00,
 0x00,0x00,0x00,0x00,0x80,0xff,0xff,0xff,0x1f,0x00,0xf0,0x00,0x00,0x00,0xe0,
 0xff,0x07,0x00,0x00,0x00,0x00,0x00,0x00,0x00,0x00,0x00,0x00,0x00,0x00,0x00,
 0x00,0x00,0x00,0x00,0x00,0x00,0x80,0xff,0xdf,0xff,0x3f,0x00,0x00,0x1f,0x3f,
 0x0e,0xf0,0xff,0x03,0x00,0x00,0x00,0x00,0x00,0x00,0x00,0x00,0x00,0x00,0x00,
 0x00,0x00,0x00,0x00,0x00,0x00,0x00,0x00,0x80,0xff,0x0f,0xfe,0x7f,0x00,0xf0,
 0xef,0xff,0x3f,0xf8,0xf0,0x03,0x00,0x00,0x00,0x00,0x00,0x00,0x00,0x00,0x00,
 0x00,0x00,0x00,0x00,0x00,0x00,0x00,0x00,0x00,0x00,0x80,0xff,0x07,0xfe,0x7f,
 0x00,0xf8,0xef,0xff,0x7f,0xfc,0xf0,0x03,0x00,0x00,0x00,0x00,0x00,0x00,0x00,
 0x00,0x00,0x00,0x00,0x00,0x00,0x00,0x00,0x00,0x00,0x00,0x00,0x80,0xff,0x07,
 0xfc,0xff,0x00,0xf3,0x87,0xff,0x7f,0x7c,0xf0,0x07,0x00,0x00,0x00,0x00,0x00,
 0x00,0x00,0x00,0x00,0x00,0x00,0x00,0x00,0x00,0x00,0x00,0x00,0x00,0x00,0x80,
 0xff,0x0f,0xfc,0xff,0x80,0xe3,0x07,0xff,0x7f,0x7e,0xe0,0x07,0x00,0x00,0x00,
 0x00,0x00,0x00,0x00,0x00,0x00,0x00,0x00,0x00,0x00,0x00,0x00,0x00,0x00,0x00,
 0x00,0x80,0xff,0x07,0xf8,0xff,0x81,0xe3,0x07,0xbf,0x7f,0x7e,0xe0,0x07,0x00,
 0x00,0x00,0x00,0x00,0x00,0x00,0x00,0x00,0x00,0x00,0x00,0x00,0x00,0x00,0x00,
 0x00,0x00,0x00,0x80,0xff,0x07,0xf8,0xff,0x81,0xe3,0x07,0x3f,0x7f,0x7f,0xe0,
 0x0f,0x00,0x00,0x00,0x00,0x00,0x00,0x00,0x00,0x00,0x00,0x00,0x00,0x00,0x00,
 0x00,0x00,0x00,0x00,0x00,0x80,0xff,0x0f,0xf8,0xff,0xc1,0xf3,0x87,0x3f,0x7f,
 0x7f,0xe0,0x0f,0x00,0x00,0x00,0x00,0x00,0x00,0x00,0x00,0x00,0x00,0x00,0x00,
 0x00,0x00,0x00,0x00,0x00,0x00,0x00,0x80,0xff,0x0f,0xf8,0xff,0xc3,0xf1,0x87,
 0x3f,0x7f,0x7f,0xe0,0x0f,0x00,0x00,0x00,0x00,0x00,0x00,0x00,0x00,0x00,0x00,
 0x00,0x00,0x00,0x00,0x00,0x00,0x00,0x00,0x00,0x80,0xff,0x0f,0xf0,0xff,0xff,
 0xf1,0x87,0x3f,0x7f,0x7f,0xe0,0x0f,0x00,0x00,0x00,0x00,0x00,0x00,0x00,0x00,
 0x00,0x00,0x00,0x00,0x00,0x00,0x00,0x00,0x00,0x00,0x00,0x80,0xff,0x1f,0xf0,
 0xff,0xff,0xf1,0x87,0x3f,0x7f,0x7e,0xe0,0x07,0x00,0x00,0x00,0x00,0x00,0x00,
 0x00,0x00,0x00,0x00,0x00,0x00,0x00,0x00,0x00,0x00,0x00,0x00,0x00,0xf0,0xff,
 0xff,0xe0,0xff,0xff,0xf0,0x8f,0x3f,0x7f,0x7e,0xe0,0x07,0x00,0x00,0x00,0x00,
 0x00,0x00,0x00,0x00,0x00,0x00,0x00,0x00,0x00,0x00,0x00,0x00,0x00,0x00,0x00,
 0xf8,0xff,0xff,0xe1,0xff,0xff,0xfc,0xff,0x7f,0xff,0xff,0xf0,0x07,0x00,0x00,
 0x00,0x00,0x00,0x00,0x00,0x00,0x00,0x00,0x00,0x00,0x00,0x00,0x00,0x00,0x00,
 0x00,0x00,0xf0,0xff,0xff,0xc0,0xff,0x7f,0xfc,0xff,0x7f,0xff,0xfd,0xf0,0x03,
 0x00,0x00,0x00,0x00,0x00,0x00,0x00,0x00,0x00,0x00,0x00,0x00,0x00,0x00,0x00,
 0x00,0x00,0x00,0x00,0x00,0x00,0x00,0x80,0xff,0x3f,0x00,0x00,0x00,0xfe,0xf8,
 0xf9,0x03,0x00,0x00,0x00,0x00,0x00,0x00,0x00,0x00,0x00,0x00,0x00,0x00,0x00,
 0x00,0x00,0x00,0x00,0x00,0x0f,0x00,0x00,0x00,0x00,0xff,0x1f,0x00,0x00,0x00,
 0x7e,0xf0,0xff,0x01,0x00,0x00,0x00,0x00,0x00,0x00,0x00,0x00,0x00,0x00,0x00,
 0x00,0x00,0x00,0x00,0x00,0x00,0xc0,0x3f,0x00,0x00,0x00,0x00,0xfe,0x07,0x00,
 0x00,0x00,0x00,0xc0,0xff,0x07,0x00,0x00,0x00,0x00,0x00,0x00,0x00,0x00,0x00,
 0x00,0x00,0x00,0x00,0x00,0x00,0x00,0x00,0xe0,0x3f,0x00,0xf0,0xff,0xff,0xe3,
 0x00,0x00,0x00,0x0c,0xc0,0x00,0xff,0x0f,0x00,0x00,0x00,0x00,0x00,0x00,0x00,
 0x00,0x00,0x00,0x00,0x00,0x00,0x00,0x00,0x00,0x00,0xf0,0x7f,0x00,0xfe,0xff,
 0xff,0x0f,0x00,0x00,0x00,0x1f,0xf0,0x01,0xc0,0x0f,0x00,0x00,0x00,0x00,0x00,
 0x00,0x00,0x00,0x00,0x00,0x00,0x00,0x00,0x00,0x00,0x00,0x00,0xf0,0x71,0x00,
 0xfe,0xff,0xff,0x1f,0x00,0x00,0xc0,0x1f,0xfc,0x31,0xc0,0x1f,0x00,0x00,0x00,
 0x00,0x00,0x00,0x00,0x00,0x00,0x00,0x00,0x00,0x00,0x00,0x00,0x00,0x00,0xf0,
 0xf1,0x00,0xfc,0xff,0xff,0x1f,0x00,0x00,0xf8,0x9f,0xff,0x3f,0xc0,0x1f,0x00,
 0x00,0x00,0x00,0x00,0x00,0x00,0x00,0x00,0x00,0x00,0x00,0x00,0x00,0x00,0x00,
 0x00,0xf0,0xf9,0x00,0xf0,0xff,0xff,0x3f,0x00,0x00,0xf8,0x9f,0xff,0x1f,0xc0,
 0x1f,0x00,0x00,0x00,0x00,0x00,0x00,0x00,0x00,0x00,0x00,0x00,0x00,0x00,0x00,
 0x00,0x00,0x00,0xf0,0xff,0x00,0xf0,0xff,0xfd,0x3f,0x00,0x00,0xc0,0x1f,0xfc,
 0x0f,0xe0,0x1f,0x00,0x00,0x00,0x00,0x00,0x00,0x00,0x00,0x00,0x00,0x00,0x00,
 0x00,0x00,0x00,0x00,0x00,0xe0,0x7f,0x00,0xe0,0xff,0xf9,0x3f,0x00,0x00,0xc0,
 0x1f,0xfc,0x0f,0xe0,0x1f,0x00,0x00,0x00,0x00,0x00,0x00,0x00,0x00,0x00,0x00,
 0x00,0x00,0x00,0x00,0x00,0x00,0x00,0xc0,0x3f,0x00,0xe0,0xff,0xf1,0x3f,0x00,
 0x00,0xc0,0x1f,0xfc,0x0f,0xf8,0x0f,0x00,0x00,0x00,0x00,0x00,0x00,0x00,0x00,
 0x00,0x00,0x00,0x00,0x00,0x00,0x00,0x00,0x00,0xe0,0x1f,0x0f,0xe0,0xff,0xf9,
 0x3f,0x00,0x00,0xc0,0x1f,0xfc,0x3f,0xfc,0x0f,0x00,0x00,0x00,0x00,0x00,0x00,
 0x00,0x00,0x00,0x00,0x00,0x00,0x00,0x00,0x00,0x00,0x00,0xf0,0x1f,0x3e,0xe0,
 0xff,0xfd,0x1f,0x00,0x00,0xc0,0x1f,0xfc,0xfd,0xff,0x07,0x00,0x00,0x00,0x00,
 0x00,0x00,0x00,0x00,0x00,0x00,0x00,0x00,0x00,0x00,0x00,0x00,0x00,0xf8,0x3f,
 0x0f,0xe0,0xff,0xff,0x1f,0xe0,0x0f,0xc0,0x1f,0xfc,0xf9,0xff,0x03,0xf8,0x01,
 0x00,0x00,0x00,0x00,0x00,0x00,0x00,0x00,0x00,0x00,0x00,0x00,0x00,0x00,0x00,
 0x7c,0x3e,0x07,0xe0,0xff,0xff,0x0f,0xf8,0x3f,0xc0,0x1f,0xfc,0xf1,0xff,0x00,
 0xfe,0x07,0x00,0x00,0x00,0x00,0x00,0x00,0x00,0x00,0x00,0x00,0x00,0x00,0x00,
 0x00,0x00,0x3c,0xfc,0x07,0xe0,0xff,0xff,0x07,0xfe,0x7f,0xc0,0x1f,0xfc,0xf1,
 0xff,0x01,0xff,0x0f,0x00,0x00,0x00,0x00,0x00,0x00,0x00,0x00,0x00,0x00,0x00,
 0x00,0x00,0x00,0x00,0x3c,0xfc,0x03,0xe0,0xff,0xff,0x1f,0xfe,0xff,0xc0,0x1f,
 0xfc,0xf9,0xf3,0x83,0x9f,0x1f,0x00,0x00,0x00,0x00,0x00,0x00,0x00,0x00,0x00,
 0x00,0x00,0x00,0x00,0x00,0x00,0x7c,0xf0,0x07,0xe0,0xff,0xff,0x3f,0x3f,0xfc,
 0xc1,0x1f,0xfc,0xf9,0xe1,0xc7,0x0f,0x3f,0x00,0x00,0x00,0x00,0x00,0x00,0x00,
 0x00,0x00,0x00,0x00,0x00,0x00,0x00,0x00,0xfc,0xff,0x0f,0xe0,0xff,0xf9,0x7f,
 0x3e,0xfc,0xc3,0x1f,0xfc,0xfd,0xe1,0xef,0x0f,0x7f,0x00,0x00,0x00,0x00,0x00,
 0x00,0x00,0x00,0x00,0x00,0x00,0x00,0x00,0x00,0x00,0xf8,0xbf,0x7f,0xe0,0xff,
 0xe1,0x7f,0x1e,0xfc,0xc3,0x1f,0xfc,0xfd,0xc0,0xef,0x07,0x7e,0xe0,0x00,0x00,
 0x00,0x00,0x00,0x00,0x00,0x00,0x00,0x00,0x00,0x00,0x00,0x00,0xf0,0x1f,0x7e,
 0xe0,0xff,0xe1,0xff,0xe0,0xfd,0xc3,0x1f,0xfc,0xff,0xc0,0xef,0x07,0x7e,0xfe,
 0xf9,0x00,0x00,0x00,0x00,0x00,0x00,0x00,0x00,0x00,0x00,0x00,0x00,0x00,0x00,
 0x00,0x00,0xe0,0xff,0xc1,0xff,0xfc,0xff,0xc3,0x1f,0xfc,0xff,0xc0,0xff,0x07,
 0xfe,0xff,0xff,0x01,0x00,0x00,0x00,0x00,0x00,0x00,0x00,0x00,0x00,0x00,0x00,
 0x00,0x00,0x00,0x00,0xe0,0xff,0xc1,0xff,0xfe,0xff,0xc3,0x1f,0xfc,0xff,0xc0,
 0xff,0x07,0xfe,0xfe,0xff,0x01,0x00,0x00,0x00,0x00,0x00,0x00,0x00,0x00,0x00,
 0x00,0x00,0x00,0x00,0x00,0x00,0xe0,0xff,0xc1,0xff,0xff,0xfc,0xc3,0x1f,0xfc,
 0xff,0xc0,0xff,0x07,0xfe,0xfc,0xff,0x01,0x00,0x00,0x00,0x00,0x00,0x00,0x00,
 0x00,0x00,0x00,0x00,0x00,0x00,0x00,0x00,0xe0,0xff,0xc1,0xff,0x7f,0xfc,0xc3,
 0x1f,0xfc,0xff,0xc0,0xff,0x07,0xfe,0xfc,0xfd,0x01,0x00,0x00,0x00,0x00,0x00,
 0x00,0x00,0x00,0x00,0x00,0x00,0x00,0x00,0x00,0x00,0xe0,0xff,0xe1,0xff,0x3f,
 0xfc,0xc3,0x1f,0xfc,0xfd,0xc0,0xef,0x07,0x7e,0xfc,0xf9,0x01,0x00,0x00,0x00,
 0x00,0x00,0x00,0x00,0x00,0x00,0x00,0x00,0x00,0x00,0x00,0x00,0xe0,0xff,0xe1,
 0xff,0x3f,0xfc,0xe3,0x1f,0xfc,0xfd,0xc0,0xef,0x07,0x7e,0xfc,0xf9,0x03,0x00,
 0x00,0x00,0x00,0x00,0x00,0x00,0x00,0x00,0x00,0x00,0x00,0x00,0x00,0x00,0xe0,
 0xff,0xf9,0x7f,0x3f,0xfc,0xe3,0x1f,0xfe,0xfd,0xe1,0xe7,0x0f,0x7f,0xfc,0xf9,
 0x03,0x00,0x00,0x00,0x00,0x00,0x00,0x00,0x00,0x00,0x00,0x00,0x00,0x00,0x00,
 0x00,0xf0,0xff,0xff,0x3f,0x3f,0xfe,0xf7,0x1f,0xfe,0xf9,0xe1,0xc7,0x0f,0x3f,
 0xfc,0xf9,0x23,0x00,0x00,0x00,0x00,0x00,0x00,0x00,0x00,0x00,0x00,0x00,0x00,
 0x00,0x00,0x00,0xfc,0xff,0xff,0x3f,0x7e,0xff,0xff,0x3f,0xff,0xf9,0xf3,0x83,
 0x9f,0x3f,0xfc,0xf9,0x23,0x00,0x00,0x00,0x00,0x00,0x00,0x00,0x00,0x00,0x00,
 0x00,0x00,0x00,0x00,0x00,0xfc,0xff,0xff,0x1f,0xfe,0xff,0xff,0x7f,0xff,0xe3,
 0xff,0x81,0xff,0x1f,0xfe,0xf9,0x33,0x00,0x00,0x00,0x00,0x00,0x00,0x00,0x00,
 0x00,0x00,0x00,0x00,0x00,0x00,0x00,0xfc,0xff,0xff,0x0f,0xfe,0xf7,0xff,0xff,
 0xff,0xc7,0xff,0x00,0xff,0x0f,0xff,0xfb,0x1f,0x00,0x00,0x00,0x00,0x00,0x00,
 0x00,0x00,0x00,0x00,0x00,0x00,0x00,0x00,0x00,0x00,0x00,0x00,0x00,0xf8,0xc0,
 0xf3,0xff,0xff,0x0f,0x1f,0x00,0xf8,0x01,0xff,0xfb,0x0f,0x00,0x00,0x00,0x00,
 0x00,0x00,0x00,0x00,0x00,0x00,0x00,0x00,0x00,0x00,0x00,0x00,0x00,0x00,0x00,
 0x00,0x00,0x00,0x00,0x00,0x00,0x00,0x00,0x00,0x00,0x00,0xf0,0x0f,0x00,0x00,
 0x00,0x00,0x00,0x00,0x00,0x00,0x00,0x00,0x00,0x00,0x00,0x00,0x00,0x00,0x00,
 0x00,0x00,0x00,0x00,0x00,0x00,0x00,0x00,0x00,0x00,0x00,0x00,0x00,0xf0,0x07,
 0x00,0x00,0x00,0x00,0x00,0x00,0x00,0x00,0x00,0x00,0x00,0x00,0x00,0x00,0x00,
 0x00,0x00,0x00,0x00,0x00,0x00,0x00,0x00,0x00,0x00,0x00,0x00,0x00,0x00,0x00,
 0xc0,0x01,0x00,0x00,0x00,0x00,0x00,0x00 };
