#define _width 256
#define _height 64
static unsigned char _bits[] = {
   0x00, 0x00, 0x00, 0x00, 0x00, 0x00, 0x00, 0x00, 0x00, 0x00, 0x00, 0x00,
   0x00, 0x00, 0x00, 0x00, 0x00, 0x00, 0x00, 0x00, 0x00, 0x00, 0x00, 0x00,
   0x00, 0x00, 0x00, 0x00, 0x00, 0x00, 0x00, 0x00, 0x00, 0x00, 0x00, 0x00,
   0x00, 0x00, 0x00, 0x00, 0x00, 0x00, 0x00, 0x00, 0x00, 0x00, 0x00, 0x00,
   0x00, 0x00, 0x00, 0x00, 0x00, 0x00, 0x00, 0x00, 0x00, 0x00, 0x00, 0x00,
   0x00, 0x00, 0x00, 0x00, 0x00, 0x00, 0x00, 0x00, 0x00, 0x00, 0x00, 0x00,
   0x00, 0x00, 0x00, 0x00, 0x00, 0x00, 0x00, 0x00, 0x00, 0x00, 0x00, 0x00,
   0x00, 0x00, 0x00, 0x00, 0x00, 0x00, 0x00, 0x00, 0x00, 0x00, 0x00, 0x00,
   0x00, 0x00, 0x00, 0x00, 0x00, 0x00, 0x00, 0x00, 0x00, 0x00, 0x00, 0x00,
   0x00, 0x00, 0x00, 0x00, 0x00, 0x00, 0x00, 0x00, 0x00, 0x00, 0x00, 0x00,
   0x00, 0x00, 0x00, 0x00, 0x00, 0x00, 0x00, 0x00, 0x00, 0x00, 0x00, 0x00,
   0x00, 0x00, 0x00, 0x00, 0x00, 0x00, 0x00, 0x00, 0x00, 0x00, 0x00, 0x00,
   0x00, 0x00, 0x00, 0x00, 0x00, 0x00, 0x00, 0x00, 0x00, 0x00, 0x00, 0x00,
   0x00, 0x00, 0x00, 0x00, 0x00, 0x00, 0x00, 0x00, 0x00, 0x00, 0x00, 0x00,
   0x00, 0x00, 0x00, 0x00, 0x00, 0x00, 0x00, 0x00, 0x00, 0x00, 0x00, 0x00,
   0x00, 0x00, 0x00, 0x00, 0x00, 0x00, 0x00, 0x00, 0x00, 0x00, 0x00, 0x00,
   0x00, 0x00, 0x00, 0x00, 0x00, 0x00, 0x00, 0x00, 0x00, 0x00, 0x00, 0x00,
   0x00, 0x00, 0x00, 0x00, 0x00, 0x00, 0x00, 0x00, 0x00, 0x00, 0x00, 0x00,
   0x00, 0x00, 0x00, 0x00, 0x00, 0x00, 0x00, 0x00, 0x00, 0x00, 0x00, 0x00,
   0x00, 0x00, 0x00, 0x00, 0x00, 0x00, 0x00, 0x00, 0x00, 0x00, 0x00, 0x00,
   0x00, 0x00, 0x00, 0x00, 0x00, 0x00, 0x00, 0x00, 0x00, 0x00, 0x00, 0x00,
   0x00, 0x00, 0x00, 0x00, 0x00, 0x00, 0x00, 0x00, 0x00, 0x00, 0x00, 0x00,
   0x00, 0x00, 0x00, 0x00, 0x00, 0x00, 0x00, 0x00, 0x00, 0x00, 0x00, 0x00,
   0x00, 0x00, 0x00, 0x00, 0x00, 0x00, 0x00, 0x00, 0x00, 0x00, 0x00, 0x00,
   0x00, 0x00, 0x00, 0x00, 0x00, 0x00, 0x00, 0x00, 0x00, 0x00, 0x00, 0x00,
   0x00, 0x00, 0x00, 0x00, 0x00, 0x00, 0x00, 0x00, 0x00, 0x00, 0x00, 0x00,
   0x00, 0x00, 0x00, 0x00, 0x00, 0x00, 0x00, 0x00, 0x00, 0x00, 0x00, 0x00,
   0x00, 0x00, 0x00, 0x00, 0x00, 0x00, 0x00, 0x00, 0x00, 0x00, 0x00, 0x00,
   0x00, 0x00, 0x00, 0x00, 0x00, 0x00, 0x00, 0x00, 0x00, 0x00, 0x00, 0x00,
   0x00, 0x00, 0x00, 0x00, 0x00, 0x00, 0x00, 0x00, 0x00, 0x00, 0x00, 0x00,
   0x00, 0x00, 0x00, 0x00, 0x00, 0x00, 0x00, 0x00, 0x00, 0x00, 0x00, 0x00,
   0x00, 0x00, 0x00, 0x00, 0x00, 0x00, 0x00, 0x00, 0x00, 0x00, 0x00, 0x00,
   0x00, 0x00, 0x00, 0x00, 0x00, 0x00, 0x00, 0x00, 0x00, 0x00, 0x00, 0x00,
   0x00, 0x00, 0x00, 0x00, 0x00, 0x00, 0x00, 0x00, 0x00, 0x00, 0x00, 0x00,
   0x00, 0x00, 0x00, 0x00, 0x00, 0x00, 0x00, 0x00, 0x00, 0x00, 0x00, 0x00,
   0x00, 0x00, 0x00, 0x00, 0x00, 0x00, 0x00, 0x00, 0x00, 0x00, 0x00, 0x00,
   0x00, 0x00, 0x00, 0x00, 0x00, 0x00, 0x00, 0x00, 0x00, 0x00, 0x00, 0x00,
   0x00, 0x00, 0x00, 0x00, 0x00, 0x00, 0x00, 0x00, 0x00, 0x00, 0x00, 0x00,
   0x00, 0x00, 0x00, 0x00, 0x00, 0x00, 0x00, 0x00, 0x00, 0x00, 0x00, 0x00,
   0x00, 0x00, 0x00, 0x00, 0x00, 0x00, 0x00, 0x00, 0x00, 0x00, 0x00, 0x00,
   0x00, 0x00, 0x00, 0x00, 0x00, 0x00, 0x00, 0x00, 0x00, 0x00, 0x00, 0x00,
   0x00, 0x00, 0x00, 0x00, 0x00, 0x00, 0x00, 0x00, 0x00, 0x00, 0x00, 0x00,
   0x00, 0x00, 0x00, 0x00, 0x00, 0x00, 0x00, 0x00, 0x00, 0x00, 0x00, 0x00,
   0x00, 0x00, 0x00, 0x00, 0x00, 0x00, 0x00, 0x00, 0x00, 0x00, 0x00, 0x00,
   0x00, 0x00, 0x00, 0x00, 0x00, 0x00, 0x00, 0x00, 0x00, 0x00, 0x00, 0x00,
   0x00, 0x00, 0x00, 0x00, 0x00, 0x00, 0x00, 0x00, 0x00, 0x00, 0x00, 0x00,
   0x00, 0x00, 0x00, 0x00, 0x00, 0x00, 0x00, 0x00, 0x00, 0x00, 0x00, 0x00,
   0x00, 0x00, 0x00, 0x00, 0x00, 0x00, 0x00, 0x00, 0x00, 0x00, 0x00, 0x00,
   0x00, 0x00, 0x00, 0x00, 0x00, 0x00, 0x00, 0x00, 0x00, 0x00, 0x00, 0x00,
   0x00, 0x00, 0x00, 0x00, 0x00, 0x00, 0x00, 0x00, 0x00, 0x00, 0x00, 0x00,
   0x00, 0x00, 0x00, 0x00, 0x00, 0x00, 0x00, 0x00, 0x00, 0x00, 0x00, 0x00,
   0x00, 0x00, 0x00, 0x00, 0x00, 0x00, 0x00, 0x00, 0x00, 0x00, 0x00, 0x00,
   0x00, 0x00, 0x00, 0x00, 0x00, 0x00, 0x00, 0x00, 0x00, 0x00, 0x00, 0x00,
   0x00, 0x00, 0x00, 0x00, 0x40, 0x00, 0x00, 0x08, 0x00, 0x90, 0x00, 0x00,
   0x01, 0x30, 0x00, 0xff, 0xff, 0x03, 0x00, 0x00, 0x02, 0x00, 0x00, 0xc0,
   0x00, 0x08, 0x00, 0x90, 0xff, 0x01, 0xf0, 0xff, 0x3f, 0xff, 0xff, 0x03,
   0x40, 0x00, 0x00, 0x08, 0x00, 0x90, 0x00, 0x00, 0x01, 0x7c, 0x00, 0x01,
   0x00, 0x02, 0x00, 0x00, 0x02, 0x00, 0x00, 0xe0, 0x03, 0x08, 0x00, 0x90,
   0x00, 0x03, 0x10, 0x00, 0x00, 0x01, 0x00, 0x02, 0x40, 0x00, 0x00, 0x08,
   0x00, 0x90, 0x01, 0x00, 0x01, 0xc6, 0x01, 0x01, 0x00, 0x02, 0x00, 0x00,
   0x02, 0x00, 0x00, 0x38, 0x06, 0x18, 0x00, 0x90, 0x00, 0x06, 0x10, 0x00,
   0x00, 0x01, 0x00, 0x02, 0x40, 0x00, 0x00, 0x08, 0x00, 0x90, 0x03, 0x00,
   0x81, 0x01, 0x03, 0x01, 0x00, 0x02, 0x00, 0x00, 0x02, 0x00, 0x00, 0x0c,
   0x18, 0x18, 0x00, 0x90, 0x00, 0x0c, 0x10, 0x00, 0x00, 0x01, 0x00, 0x02,
   0x40, 0x00, 0x00, 0x08, 0x00, 0x90, 0x06, 0x00, 0xc1, 0x00, 0x06, 0x01,
   0x00, 0x02, 0x00, 0x00, 0x02, 0x00, 0x00, 0x03, 0x30, 0x28, 0x00, 0x90,
   0x00, 0x18, 0x10, 0x00, 0x00, 0x01, 0x00, 0x02, 0x40, 0x00, 0x00, 0x08,
   0x00, 0x90, 0x0c, 0x00, 0x31, 0x00, 0x18, 0x01, 0x00, 0x02, 0x00, 0x00,
   0x02, 0x00, 0x80, 0x01, 0xe0, 0x68, 0x00, 0x90, 0x00, 0x30, 0x10, 0x00,
   0x00, 0x01, 0x00, 0x02, 0x40, 0x00, 0x00, 0x08, 0x00, 0x90, 0x08, 0x00,
   0x11, 0x00, 0x30, 0x01, 0x00, 0x02, 0x00, 0x00, 0x02, 0x00, 0x40, 0x00,
   0x80, 0xc8, 0x00, 0x90, 0x00, 0x60, 0x10, 0x00, 0x00, 0x01, 0x00, 0x02,
   0x40, 0x00, 0x00, 0x08, 0x00, 0x90, 0x10, 0x00, 0x11, 0x00, 0x20, 0x01,
   0x00, 0x02, 0x00, 0x00, 0x02, 0x00, 0x40, 0x00, 0x80, 0x88, 0x00, 0x90,
   0x00, 0xc0, 0x10, 0x00, 0x00, 0x01, 0x00, 0x02, 0x40, 0x00, 0x00, 0x08,
   0x00, 0x90, 0x30, 0x00, 0x11, 0x00, 0x20, 0x01, 0x00, 0x02, 0x00, 0x00,
   0x02, 0x00, 0x40, 0x00, 0x80, 0x08, 0x01, 0x90, 0x00, 0x80, 0x11, 0x00,
   0x00, 0x01, 0x00, 0x02, 0x40, 0x00, 0x00, 0x08, 0x00, 0x90, 0x60, 0x00,
   0x11, 0x00, 0x20, 0x01, 0x00, 0x02, 0x00, 0x00, 0x02, 0x00, 0x40, 0x00,
   0x80, 0x08, 0x03, 0x90, 0x00, 0x00, 0x11, 0x00, 0x00, 0x01, 0x00, 0x02,
   0x40, 0x00, 0x00, 0x08, 0x00, 0x90, 0xc0, 0x00, 0x11, 0x00, 0x20, 0x01,
   0x00, 0x02, 0x00, 0x00, 0x02, 0x00, 0x40, 0x00, 0x80, 0x08, 0x06, 0x90,
   0x00, 0x00, 0x11, 0x00, 0x00, 0x01, 0x00, 0x02, 0x40, 0x00, 0x00, 0x08,
   0x00, 0x90, 0x80, 0x00, 0xf1, 0xff, 0x3f, 0xff, 0xff, 0x03, 0x00, 0x00,
   0x02, 0x00, 0xc0, 0xff, 0xff, 0x08, 0x0c, 0x90, 0x00, 0x00, 0xf1, 0xff,
   0x3f, 0xff, 0xff, 0x03, 0x40, 0x00, 0x00, 0x08, 0x00, 0x90, 0x80, 0x01,
   0x11, 0x00, 0x20, 0x07, 0x00, 0x00, 0x00, 0x00, 0x02, 0x00, 0x40, 0x00,
   0x80, 0x08, 0x08, 0x90, 0x00, 0x00, 0x11, 0x00, 0x00, 0x07, 0x00, 0x00,
   0x40, 0x00, 0x00, 0x08, 0x00, 0x90, 0x00, 0x03, 0x11, 0x00, 0x20, 0x0d,
   0x00, 0x00, 0x00, 0x00, 0x02, 0x00, 0x40, 0x00, 0x80, 0x08, 0x10, 0x90,
   0x00, 0x00, 0x11, 0x00, 0x00, 0x0d, 0x00, 0x00, 0x40, 0x00, 0x00, 0x08,
   0x00, 0x90, 0x00, 0x06, 0x11, 0x00, 0x20, 0x31, 0x00, 0x00, 0x00, 0x00,
   0x02, 0x00, 0x40, 0x00, 0x80, 0x08, 0x30, 0x90, 0x00, 0x00, 0x11, 0x00,
   0x00, 0x31, 0x00, 0x00, 0x40, 0x00, 0x00, 0x08, 0x00, 0x90, 0x00, 0x04,
   0x11, 0x00, 0x20, 0x61, 0x00, 0x00, 0x00, 0x00, 0x02, 0x00, 0x40, 0x00,
   0x80, 0x08, 0x60, 0x90, 0x00, 0x00, 0x11, 0x00, 0x00, 0x61, 0x00, 0x00,
   0x40, 0x00, 0x00, 0x08, 0x00, 0x90, 0x00, 0x08, 0x11, 0x00, 0x20, 0xc1,
   0x00, 0x00, 0x00, 0x00, 0x02, 0x00, 0x40, 0x00, 0x80, 0x08, 0xc0, 0x90,
   0x00, 0x00, 0x11, 0x00, 0x00, 0xc1, 0x00, 0x00, 0x40, 0x00, 0x00, 0x08,
   0x00, 0x90, 0x00, 0x18, 0x11, 0x00, 0x20, 0x01, 0x01, 0x00, 0x00, 0x00,
   0x02, 0x00, 0x40, 0x00, 0x80, 0x08, 0x80, 0x90, 0x00, 0x80, 0x10, 0x00,
   0x00, 0x01, 0x01, 0x00, 0x40, 0x00, 0x00, 0x08, 0x00, 0x90, 0x00, 0x30,
   0x11, 0x00, 0x20, 0x01, 0x06, 0x00, 0x00, 0x00, 0x02, 0x00, 0x40, 0x00,
   0x80, 0x08, 0x00, 0x91, 0x00, 0x40, 0x10, 0x00, 0x00, 0x01, 0x06, 0x00,
   0x40, 0x00, 0x00, 0x08, 0x00, 0x90, 0x00, 0x60, 0x11, 0x00, 0x20, 0x01,
   0x0c, 0x00, 0x00, 0x00, 0x02, 0x00, 0x40, 0x00, 0x80, 0x08, 0x00, 0x93,
   0x00, 0x20, 0x10, 0x00, 0x00, 0x01, 0x0c, 0x00, 0x40, 0x00, 0x00, 0x08,
   0x00, 0x90, 0x00, 0x40, 0x11, 0x00, 0x20, 0x01, 0x18, 0x00, 0x00, 0x00,
   0x02, 0x00, 0x40, 0x00, 0x80, 0x08, 0x00, 0x96, 0x00, 0x18, 0x10, 0x00,
   0x00, 0x01, 0x18, 0x00, 0x40, 0x00, 0x00, 0x08, 0x00, 0x90, 0x00, 0x80,
   0x11, 0x00, 0x20, 0x01, 0x60, 0x00, 0x00, 0x00, 0x02, 0x00, 0x40, 0x00,
   0x80, 0x08, 0x00, 0x9c, 0x00, 0x0c, 0x10, 0x00, 0x00, 0x01, 0x60, 0x00,
   0x40, 0x00, 0x00, 0x08, 0x00, 0x90, 0x00, 0x80, 0x11, 0x00, 0x20, 0x01,
   0xc0, 0x00, 0x00, 0x00, 0x02, 0x00, 0x40, 0x00, 0x80, 0x08, 0x00, 0x98,
   0x00, 0x06, 0x10, 0x00, 0x00, 0x01, 0xc0, 0x00, 0x40, 0x00, 0x00, 0x08,
   0x00, 0x90, 0x00, 0x00, 0x11, 0x00, 0x20, 0x01, 0x80, 0x01, 0x00, 0x00,
   0x02, 0x00, 0x40, 0x00, 0x80, 0x08, 0x00, 0x98, 0x00, 0x03, 0x10, 0x00,
   0x00, 0x01, 0x80, 0x01, 0xc0, 0xff, 0xff, 0xf8, 0xff, 0x9f, 0x00, 0x00,
   0x11, 0x00, 0x20, 0x01, 0x00, 0x02, 0x00, 0x00, 0xfe, 0xff, 0x47, 0x00,
   0x80, 0x08, 0x00, 0x90, 0xff, 0x01, 0xf0, 0xff, 0x3f, 0x01, 0x00, 0x02,
   0x00, 0x00, 0x00, 0x00, 0x00, 0x00, 0x00, 0x00, 0x00, 0x00, 0x00, 0x00,
   0x00, 0x00, 0x00, 0x00, 0x00, 0x00, 0x00, 0x00, 0x00, 0x00, 0x00, 0x00,
   0x00, 0x00, 0x00, 0x00, 0x00, 0x00, 0x00, 0x00, 0x00, 0x00, 0x00, 0x00,
   0x00, 0x00, 0x00, 0x00, 0x00, 0x00, 0x00, 0x00, 0x00, 0x00, 0x00, 0x00,
   0x00, 0x00, 0x00, 0x00, 0x00, 0x00, 0x00, 0x00, 0x00, 0x00, 0x00, 0x00,
   0x00, 0x00, 0x00, 0x00, 0x00, 0x00, 0x00, 0x00, 0x00, 0x00, 0x00, 0x00,
   0x00, 0x00, 0x00, 0x00, 0x00, 0x00, 0x00, 0x00, 0x00, 0x00, 0x00, 0x00,
   0x00, 0x00, 0x00, 0x00, 0x00, 0x00, 0x00, 0x00, 0x00, 0x00, 0x00, 0x00,
   0x00, 0x00, 0x00, 0x00, 0x00, 0x00, 0x00, 0x00, 0x00, 0x00, 0x00, 0x00,
   0x00, 0x00, 0x00, 0x00, 0x00, 0x00, 0x00, 0x00, 0x00, 0x00, 0x00, 0x00,
   0x00, 0x00, 0x00, 0x00, 0x00, 0x00, 0x00, 0x00, 0x00, 0x00, 0x00, 0x00,
   0x00, 0x00, 0x00, 0x00, 0x00, 0x00, 0x00, 0x00, 0x00, 0x00, 0x00, 0x00,
   0x00, 0x00, 0x00, 0x00, 0x00, 0x00, 0x00, 0x00, 0x00, 0x00, 0x00, 0x00,
   0x00, 0x00, 0x00, 0x00, 0x00, 0x00, 0x00, 0x00, 0x00, 0x00, 0x00, 0x00,
   0x00, 0x00, 0x00, 0x00, 0x00, 0x00, 0x00, 0x00, 0x00, 0x00, 0x00, 0x00,
   0x00, 0x00, 0x00, 0x00, 0x00, 0x00, 0x00, 0x00, 0x00, 0x00, 0x00, 0x00,
   0x00, 0x00, 0x00, 0x00, 0x00, 0x00, 0x00, 0x00, 0x00, 0x00, 0x00, 0x00,
   0x00, 0x00, 0x00, 0x00, 0x00, 0x00, 0x00, 0x00, 0x00, 0x00, 0x00, 0x00,
   0x00, 0x00, 0x00, 0x00, 0x00, 0x00, 0x00, 0x00, 0x00, 0x00, 0x00, 0x00,
   0x00, 0x00, 0x00, 0x00, 0x00, 0x00, 0x00, 0x00, 0x00, 0x00, 0x00, 0x00,
   0x00, 0x00, 0x00, 0x00, 0x00, 0x00, 0x00, 0x00, 0x00, 0x00, 0x00, 0x00,
   0x00, 0x00, 0x00, 0x00, 0x00, 0x00, 0x00, 0x00, 0x00, 0x00, 0x00, 0x00,
   0x00, 0x00, 0x00, 0x00, 0x00, 0x00, 0x00, 0x00, 0x00, 0x00, 0x00, 0x00,
   0x00, 0x00, 0x00, 0x00, 0x00, 0x00, 0x00, 0x00, 0x00, 0x00, 0x00, 0x00,
   0x00, 0x00, 0x00, 0x00, 0x00, 0x00, 0x00, 0x00, 0x00, 0x00, 0x00, 0x00,
   0x00, 0x00, 0x00, 0x00, 0x00, 0x00, 0x00, 0x00, 0x00, 0x00, 0x00, 0x00,
   0x00, 0x00, 0x00, 0x00, 0x00, 0x00, 0x00, 0x00, 0x00, 0x00, 0x00, 0x00,
   0x00, 0x00, 0x00, 0x00, 0x00, 0x00, 0x00, 0x00, 0x00, 0x00, 0x00, 0x00,
   0x00, 0x00, 0x00, 0x00, 0x00, 0x00, 0x00, 0x00, 0x00, 0x00, 0x00, 0x00,
   0x00, 0x00, 0x00, 0x00, 0x00, 0x00, 0x00, 0x00, 0x00, 0x00, 0x00, 0x00,
   0x00, 0x00, 0x00, 0x00, 0x00, 0x00, 0x00, 0x00, 0x00, 0x00, 0x00, 0x00,
   0x00, 0x00, 0x00, 0x00, 0x00, 0x00, 0x00, 0x00, 0x00, 0x00, 0x00, 0x00,
   0x00, 0x00, 0x00, 0x00, 0x00, 0x00, 0x00, 0x00, 0x00, 0x00, 0x00, 0x00,
   0x00, 0x00, 0x00, 0x00, 0x00, 0x00, 0x00, 0x00, 0x00, 0x00, 0x00, 0x00,
   0x00, 0x00, 0x00, 0x00, 0x00, 0x00, 0x00, 0x00, 0x00, 0x00, 0x00, 0x00,
   0x00, 0x00, 0x00, 0x00, 0x00, 0x00, 0x00, 0x00, 0x00, 0x00, 0x00, 0x00,
   0x00, 0x00, 0x00, 0x00, 0x00, 0x00, 0x00, 0x00, 0x00, 0x00, 0x00, 0x00,
   0x00, 0x00, 0x00, 0x00, 0x00, 0x00, 0x00, 0x00, 0x00, 0x00, 0x00, 0x00,
   0x00, 0x00, 0x00, 0x00, 0x00, 0x00, 0x00, 0x00, 0x00, 0x00, 0x00, 0x00,
   0x00, 0x00, 0x00, 0x00, 0x00, 0x00, 0x00, 0x00, 0x00, 0x00, 0x00, 0x00,
   0x00, 0x00, 0x00, 0x00, 0x00, 0x00, 0x00, 0x00, 0x00, 0x00, 0x00, 0x00,
   0x00, 0x00, 0x00, 0x00, 0x00, 0x00, 0x00, 0x00, 0x00, 0x00, 0x00, 0x00,
   0x00, 0x00, 0x00, 0x00, 0x00, 0x00, 0x00, 0x00, 0x00, 0x00, 0x00, 0x00,
   0x00, 0x00, 0x00, 0x00, 0x00, 0x00, 0x00, 0x00, 0x00, 0x00, 0x00, 0x00,
   0x00, 0x00, 0x00, 0x00, 0x00, 0x00, 0x00, 0x00, 0x00, 0x00, 0x00, 0x00,
   0x00, 0x00, 0x00, 0x00, 0x00, 0x00, 0x00, 0x00, 0x00, 0x00, 0x00, 0x00,
   0x00, 0x00, 0x00, 0x00, 0x00, 0x00, 0x00, 0x00, 0x00, 0x00, 0x00, 0x00,
   0x00, 0x00, 0x00, 0x00, 0x00, 0x00, 0x00, 0x00, 0x00, 0x00, 0x00, 0x00,
   0x00, 0x00, 0x00, 0x00, 0x00, 0x00, 0x00, 0x00, 0x00, 0x00, 0x00, 0x00,
   0x00, 0x00, 0x00, 0x00, 0x00, 0x00, 0x00, 0x00, 0x00, 0x00, 0x00, 0x00,
   0x00, 0x00, 0x00, 0x00, 0x00, 0x00, 0x00, 0x00 };
