#define _width 256
#define _height 64
static char _bits[] = {
 0x00,0x00,0x00,0x00,0x00,0x00,0x00,0x00,0x00,0x00,0x00,0x00,0x00,0x00,0x00,
 0x00,0x00,0x00,0x00,0x00,0x00,0x00,0x00,0x00,0x00,0x00,0x00,0x00,0x00,0x00,
 0x00,0x00,0x00,0x00,0x00,0x00,0x00,0x00,0x00,0x00,0x00,0x00,0x00,0x00,0x00,
 0x00,0x00,0x00,0x00,0x00,0x00,0x00,0x00,0x00,0x00,0x00,0x00,0x00,0x00,0x00,
 0x00,0x00,0x00,0x00,0x00,0x00,0x00,0x00,0x00,0x00,0x00,0x00,0x00,0x00,0x00,
 0x00,0x00,0x00,0x00,0x00,0x00,0x00,0x00,0x00,0x00,0x00,0x00,0x00,0x00,0x00,
 0x00,0x00,0x00,0x00,0x00,0x00,0x00,0x00,0x00,0x00,0x00,0x00,0x00,0x00,0x00,
 0x00,0x00,0x00,0x00,0x00,0x00,0x00,0x00,0x00,0x00,0x00,0x00,0x00,0x00,0x00,
 0x00,0x00,0x00,0x00,0x00,0x00,0x00,0x00,0x00,0x00,0x00,0x00,0x00,0x00,0x00,
 0x00,0x00,0x00,0x00,0x00,0x00,0x00,0x00,0x00,0x00,0x00,0x00,0x00,0x00,0x00,
 0x00,0x00,0x00,0x00,0x00,0x00,0x00,0x00,0x00,0x00,0x00,0x00,0x00,0x00,0x00,
 0x00,0x00,0x00,0x00,0x00,0x00,0x00,0x00,0x00,0x00,0x00,0x00,0x00,0x00,0x00,
 0x00,0x00,0x00,0x00,0x00,0x00,0x00,0x00,0x00,0x00,0x00,0x00,0x00,0x00,0x00,
 0x00,0x00,0x00,0x00,0x00,0x00,0x00,0x00,0x00,0x00,0x00,0x00,0x00,0x00,0x00,
 0x00,0x00,0x00,0x00,0x00,0x00,0x00,0x00,0x00,0x00,0x00,0x00,0x00,0x00,0x00,
 0x00,0x00,0x00,0x00,0x00,0x00,0x00,0x00,0x00,0x00,0x00,0x00,0xc0,0x01,0x00,
 0x00,0x00,0x00,0x00,0x00,0x00,0x00,0x00,0x00,0x00,0x00,0x00,0x00,0x00,0x00,
 0x00,0x00,0x00,0x00,0x00,0x00,0x00,0x00,0x00,0x00,0x00,0x00,0x00,0x00,0xc0,
 0x01,0x00,0x00,0x00,0x00,0x00,0x00,0x00,0x00,0x00,0x00,0x00,0x00,0x00,0x00,
 0x00,0x00,0x00,0x00,0x00,0x00,0x00,0x00,0x00,0x00,0x00,0x00,0x00,0x00,0x00,
 0x00,0xc0,0x01,0x00,0x00,0x00,0x00,0x00,0x00,0x00,0x00,0x00,0x00,0x00,0x00,
 0x00,0x00,0x00,0x00,0x00,0x00,0x00,0x00,0x00,0x00,0x00,0x00,0x00,0x00,0x00,
 0x00,0x00,0x00,0xc0,0x01,0x00,0x00,0x00,0x00,0x00,0x00,0x00,0x00,0x00,0x00,
 0x00,0x00,0x00,0x00,0x00,0x00,0x00,0x00,0x00,0x00,0x03,0x03,0x00,0x00,0x00,
 0x00,0x00,0x00,0x00,0x00,0xc0,0x01,0x00,0x00,0x00,0x00,0x00,0x00,0x00,0x80,
 0x1f,0x00,0x00,0x00,0x00,0x00,0x60,0x00,0x00,0x00,0x00,0x80,0x83,0x03,0x00,
 0x00,0x00,0x00,0x00,0x00,0x00,0x00,0xc0,0x01,0x00,0x00,0x00,0x00,0x00,0x00,
 0x00,0x80,0x3f,0x00,0x00,0x00,0x00,0x00,0xe0,0x00,0x00,0x00,0x00,0x80,0x83,
 0x03,0x00,0x00,0x00,0x00,0x00,0x00,0x00,0x00,0xc0,0x01,0x00,0x00,0x00,0x00,
 0x00,0x00,0x00,0xc0,0x7f,0x00,0x80,0x01,0x00,0x00,0x60,0x00,0x00,0x00,0x00,
 0xc0,0xc3,0x03,0x00,0x00,0x00,0x00,0x00,0x00,0x00,0x00,0xc0,0x01,0x00,0x00,
 0x00,0x00,0x00,0x00,0x00,0xc0,0x71,0x00,0x80,0x03,0x00,0x00,0x60,0x00,0x00,
 0x00,0x00,0xc0,0xc3,0x03,0x00,0x00,0x00,0x00,0x00,0x00,0x00,0x00,0xf0,0x07,
 0x00,0x00,0x00,0x00,0x00,0x00,0x00,0xc0,0x61,0x00,0x80,0x03,0x00,0x00,0x70,
 0x00,0x00,0x00,0x00,0xe0,0xe3,0x03,0x1e,0xf0,0x60,0x0e,0x00,0x00,0x00,0x00,
 0xf0,0x07,0x00,0x00,0x00,0x00,0x00,0x00,0x00,0xc0,0x60,0xf8,0xf0,0x8f,0x39,
 0x78,0x70,0x00,0x00,0x00,0x00,0xe0,0xe3,0x03,0x3f,0xf8,0xf1,0x1f,0x00,0x00,
 0x00,0x00,0xf0,0x07,0x00,0xe0,0xff,0x01,0x00,0x00,0x00,0xe0,0x70,0xfe,0xf1,
 0xcf,0x7f,0xfc,0x70,0x00,0x00,0x00,0x00,0x60,0x63,0x83,0x7f,0xfc,0xf3,0x1f,
 0x00,0x00,0x00,0x00,0xf0,0x07,0x00,0xfe,0xff,0x03,0x00,0x00,0x00,0xe0,0x38,
 0xdf,0xf1,0xcf,0x7f,0xfe,0x71,0x00,0x00,0x00,0x00,0x70,0x73,0xc3,0x71,0x8e,
 0xf3,0x18,0x00,0x00,0x00,0x00,0xf0,0x07,0xe0,0x7f,0x80,0x0f,0x00,0x00,0x00,
 0xe0,0x3f,0xc7,0xc1,0xc1,0x73,0xc7,0x31,0x00,0x00,0x00,0x00,0x70,0x37,0xe3,
 0x70,0x87,0x73,0x1c,0x00,0x00,0x00,0x00,0xf0,0x07,0xf8,0xe1,0x3f,0x3e,0x00,
 0x00,0x00,0xe0,0x8f,0xc3,0xc0,0xc0,0xb1,0xc3,0x31,0x00,0x00,0x00,0x00,0x38,
 0x3f,0xe7,0x70,0x87,0x73,0x1c,0x00,0x00,0x00,0x00,0xc0,0x01,0x3f,0xe0,0xff,
 0x7d,0x00,0x00,0x00,0xe0,0x83,0xc1,0xc0,0xc0,0x80,0xc3,0x39,0x00,0x00,0x00,
 0x00,0x38,0x1f,0xe7,0x70,0x87,0x3b,0x1c,0x00,0x00,0x00,0x00,0xf0,0xc7,0x07,
 0xff,0xff,0xe7,0x01,0x00,0x00,0x70,0x80,0xc1,0xe0,0xc0,0x80,0xc3,0x39,0x00,
 0x00,0x00,0x00,0x1c,0x1f,0xe7,0x38,0xc7,0x39,0x1c,0x00,0x00,0x00,0x00,0xf0,
 0xe7,0x01,0xff,0xff,0xe7,0x03,0x00,0x00,0x70,0x80,0xe1,0xe0,0xe4,0x80,0xe3,
 0x38,0x00,0x00,0x00,0x00,0x1c,0x0f,0xe7,0x3f,0xff,0x39,0x1c,0x00,0x00,0x00,
 0x00,0xf0,0x77,0xc0,0xff,0xff,0x9f,0x07,0x00,0x00,0x70,0x80,0xf3,0xe0,0xef,
 0x80,0xff,0x38,0x00,0x00,0x00,0x00,0x1c,0x0e,0xc7,0x1f,0xfe,0x38,0x1c,0x00,
 0x00,0x00,0x00,0xff,0x3f,0xc0,0xff,0xff,0x3f,0x0e,0x00,0x00,0x70,0x80,0xff,
 0xc1,0xe7,0x00,0x7f,0x18,0x00,0x00,0x00,0x00,0x0c,0x06,0x86,0x07,0x3c,0x18,
 0x0c,0x00,0x00,0x00,0xc0,0xff,0x1f,0xc0,0xff,0x03,0x00,0x78,0x00,0x00,0x30,
 0x00,0xdf,0xc0,0x63,0x00,0x1e,0x18,0x00,0x00,0x00,0x00,0x00,0x00,0x00,0x00,
 0x00,0x00,0x00,0x00,0x00,0xc0,0xff,0xff,0x1f,0x00,0x00,0xf0,0xff,0xff,0x0f,
 0x00,0x00,0x00,0x00,0x00,0x00,0x00,0x00,0x00,0x00,0x00,0x00,0x00,0x00,0x00,
 0x00,0x00,0x00,0x00,0x00,0x00,0x00,0xe0,0xff,0xff,0x07,0x00,0x00,0xf0,0xff,
 0xff,0x0f,0x00,0x00,0x00,0x00,0x00,0x00,0x00,0x00,0x00,0x00,0x00,0x00,0x00,
 0x00,0x00,0x00,0x00,0x00,0x00,0x00,0x00,0x00,0xf0,0x00,0x00,0x00,0x00,0x00,
 0xf0,0xff,0xff,0x0f,0x00,0x00,0x00,0x00,0x00,0x00,0x00,0x00,0x00,0x00,0x00,
 0x00,0x00,0x00,0x00,0x00,0x00,0x00,0x00,0x00,0x00,0x00,0x3c,0x00,0x00,0x00,
 0x00,0x00,0x00,0x80,0xff,0x0f,0x00,0x00,0x00,0x00,0x00,0x00,0x00,0x00,0x00,
 0x00,0x00,0x00,0x00,0x00,0x00,0x00,0x00,0x00,0x00,0x00,0x00,0x00,0x1c,0x00,
 0x00,0x00,0x00,0x00,0x00,0x80,0xff,0x0f,0x00,0x00,0x00,0x00,0x00,0x00,0x00,
 0x00,0x00,0x00,0x00,0x00,0x00,0x00,0x00,0x00,0x00,0x00,0x00,0x00,0x00,0x00,
 0x0c,0x00,0x00,0x00,0x00,0x00,0x00,0x00,0xc0,0x00,0x00,0x00,0x00,0x00,0x00,
 0x00,0x00,0x00,0x00,0x00,0x00,0x00,0x00,0x00,0x00,0x00,0x00,0x00,0x00,0x00,
 0x00,0x00,0x04,0xf8,0x01,0x00,0x00,0x00,0x00,0x00,0xc0,0x00,0x00,0x00,0x00,
 0x00,0x00,0x00,0x00,0x00,0x00,0x00,0x00,0x00,0x00,0x00,0x00,0x00,0x00,0x00,
 0x00,0x00,0x00,0x00,0x84,0xff,0x03,0x00,0x00,0x00,0x00,0x00,0xc0,0x00,0x00,
 0x00,0x00,0x00,0x00,0x00,0x00,0x00,0x00,0x00,0x00,0x00,0x00,0x00,0x00,0x00,
 0x00,0x00,0x00,0x00,0x00,0x00,0xe4,0xff,0x0f,0xf8,0x3f,0x00,0x00,0x00,0x40,
 0x00,0x00,0x00,0x00,0x00,0x00,0x00,0x00,0x00,0x00,0x00,0x00,0x00,0x00,0x00,
 0x00,0x00,0x00,0x00,0x00,0x00,0x00,0x00,0xf4,0xff,0x1f,0xfc,0xff,0x00,0x00,
 0x00,0x60,0x00,0x00,0x00,0x00,0x00,0x00,0x00,0x00,0x00,0x00,0x00,0x00,0x00,
 0x00,0x00,0x00,0x00,0x00,0x00,0x00,0x00,0x00,0x00,0xf4,0xff,0x3f,0xfc,0xff,
 0x01,0x00,0x1e,0x60,0x00,0x00,0x00,0x00,0x00,0x00,0x00,0x00,0x00,0x00,0x00,
 0x00,0x00,0x00,0x00,0x00,0x00,0x00,0x00,0x00,0x00,0x00,0x00,0xf4,0x0f,0x3f,
 0xfe,0xff,0x03,0x80,0xff,0x7f,0x00,0x00,0x00,0x00,0x00,0x00,0x00,0x00,0x00,
 0x00,0x00,0x00,0x00,0x00,0x00,0x00,0x00,0x00,0x00,0x00,0x00,0x00,0x00,0xfc,
 0x07,0x7f,0xff,0xff,0x07,0xc0,0xff,0x3f,0x00,0x00,0x00,0x00,0x00,0x00,0x00,
 0x00,0x00,0x00,0x00,0x00,0x00,0x00,0x00,0x00,0x00,0x00,0x00,0x00,0x00,0x00,
 0x00,0xf8,0x07,0xff,0x7f,0xf0,0x0f,0xe0,0xff,0x1f,0x00,0x00,0x00,0x00,0x00,
 0x00,0x00,0x00,0x00,0x00,0x00,0x00,0x00,0x00,0x00,0x00,0x00,0x00,0x00,0x00,
 0x00,0x00,0x00,0xf8,0x07,0xff,0x7f,0xf0,0x8f,0xff,0xff,0x3f,0x00,0x00,0x00,
 0x00,0x00,0x00,0x00,0x00,0x00,0x00,0xfe,0x01,0x00,0x00,0x00,0x00,0x00,0x00,
 0x00,0x00,0x00,0x00,0x00,0xf8,0x07,0x73,0x7e,0xf0,0xff,0xff,0xff,0x3f,0x00,
 0x00,0x00,0x00,0x00,0x00,0x00,0x00,0x00,0xc0,0xff,0x0f,0x00,0x00,0x00,0x00,
 0x00,0x00,0x00,0x00,0x00,0x00,0x00,0xf0,0x07,0x71,0x7e,0xf0,0x07,0xf0,0x83,
 0x7f,0x00,0x00,0x00,0x00,0x00,0x00,0x00,0x00,0x00,0xf0,0xff,0x1f,0x00,0x00,
 0x00,0x00,0x00,0x00,0x00,0x00,0x00,0x00,0x00,0xf0,0xff,0x31,0x7e,0x30,0x07,
 0xf0,0x83,0x73,0x00,0x00,0x00,0x00,0x00,0x00,0x00,0x00,0x00,0xfc,0xff,0xff,
 0x00,0x00,0x00,0x00,0x00,0x00,0x00,0x00,0x00,0x00,0x00,0xf0,0x7f,0x18,0xfe,
 0x1f,0x07,0xf0,0x83,0x73,0x00,0x00,0x00,0x00,0x00,0x00,0x00,0x00,0x80,0xff,
 0xff,0xff,0x00,0x00,0x00,0x00,0x00,0x00,0x00,0x00,0x00,0x00,0x00,0xe0,0x3f,
 0x1c,0xfe,0x0f,0x07,0xf0,0x83,0x71,0x00,0x00,0x00,0x00,0x00,0x00,0x00,0x00,
 0xf0,0xff,0xff,0xff,0x00,0x00,0x00,0x00,0x00,0xff,0x7f,0x00,0x00,0x00,0x00,
 0x80,0x3f,0x0e,0xfe,0x87,0x07,0xf0,0xff,0x79,0x00,0x00,0x00,0xfc,0x7f,0x00,
 0x00,0x80,0xff,0xff,0xff,0xff,0x00,0x00,0x00,0x00,0xf0,0xff,0x7f,0x00,0x00,
 0x00,0x00,0x80,0xff,0xc7,0xfe,0xc7,0x03,0xf0,0x7f,0x38,0x00,0xe0,0xff,0xff,
 0xff,0xff,0x00,0xf8,0xff,0xff,0xff,0xff,0x00,0x00,0x00,0x00,0xff,0xff,0xff,
 0x0f,0x00,0x00,0xf0,0xff,0xff,0xe1,0xff,0xff,0x01,0xf0,0x7f,0x3c,0x00,0xfe,
 0xff,0xff,0xff,0xff,0xff,0xff,0xff,0xff,0xff,0xff,0x00,0x00,0x00,0xf8,0xff,
 0xff,0xff,0x3f,0x00,0x00,0xf8,0xff,0xff,0xff,0xff,0xff,0x01,0xf0,0xff,0x3c,
 0xc0,0xff,0xff,0xff,0xff,0xff,0xff,0xff,0xff,0xff,0xff,0xff,0x00,0x00,0x00,
 0xff,0xff,0xff,0xff,0xff,0xff,0xfc,0xff,0xff,0xff,0xff,0xff,0x7f,0x00,0xe0,
 0xff,0x0f,0xfe,0xff,0xff,0xff,0xff,0xff,0xff,0xff,0xff,0xff,0xff,0xff,0x3f,
 0x00,0xc0,0xff,0xff,0xff,0xff,0xff,0xff,0xff,0xff,0xff,0xff,0xff,0xff,0xff,
 0xff,0xc3,0xff,0xf7,0xff,0xff,0xff,0xff,0xff,0xff,0xff,0xff,0xff,0xff,0xff,
 0xff,0xff,0x00,0xf8,0xff,0xff,0xff,0xff,0xff,0xff,0xff,0xff,0xff,0xff,0xff,
 0xff,0xff,0xff,0x1f,0xfe,0xff,0xff,0xff,0xff,0xff,0xff,0xff,0xff,0xff,0xff,
 0xff,0xff,0xff,0xff,0xff,0xff,0xff,0xff,0xff,0xff,0xff,0xff,0xff,0xff,0xff,
 0xff,0xff,0xff,0xff,0xff,0xff,0xff,0xff,0xff,0xff,0xff,0xff,0xff,0xff,0xff,
 0xff,0xff,0xff,0xff,0xff,0xff,0xff,0xff,0xff,0xff,0xff,0xff,0xff,0xff,0xff,
 0xff,0xff,0xff,0xff,0xff,0xff,0xff,0xff,0xff,0xff,0xff,0xff,0xff,0xff,0xff,
 0xff,0xff,0xff,0xff,0xff,0xff,0xff,0xff,0xff,0xff,0xff,0xff,0xff,0xff,0xff,
 0xff,0xff,0xff,0xff,0xff,0xff,0xff,0xff,0xff,0xff,0xff,0xff,0xff,0xff,0xff,
 0xff,0xff,0xff,0xff,0xff,0xff,0xff,0xff,0xff,0xff,0xff,0xff,0xff,0xff,0xff,
 0xff,0xff,0xff,0xff,0xff,0xff,0xff,0xff,0xff,0xff,0xff,0xff,0xff,0xff,0xff,
 0xff,0xff,0xff,0xff,0xff,0xff,0xff,0xff,0xff,0xff,0xff,0xff,0xff,0xff,0xff,
 0xff,0xff,0xff,0xff,0xff,0xff,0xff,0xff,0xff,0xff,0xff,0xff,0xff,0xff,0xff,
 0xff,0xff,0xff,0xff,0xff,0xff,0xff,0xff,0xff,0xff,0xff,0xff,0xff,0xff,0xff,
 0xff,0xff,0xff,0xff,0xff,0xff,0xff,0xff,0xff,0xff,0xff,0xff,0xff,0xff,0xff,
 0xff,0xff,0xff,0xff,0xff,0xff,0xff,0xff,0xff,0xff,0xff,0xff,0xff,0xff,0xff,
 0xff,0xff,0xff,0xff,0xff,0xff,0xff,0xff,0xff,0xff,0xff,0xff,0xff,0xff,0xff,
 0xff,0xff,0xff,0xff,0xff,0xff,0xff,0xff,0xff,0xff,0xff,0xff,0xff,0xff,0xff,
 0xff,0xff,0xff,0xff,0xff,0xff,0xff,0xff,0xff,0xff,0xff,0xff,0xff,0xff,0xff,
 0xff,0xff,0xff,0xff,0xff,0xff,0xff,0xff,0xff,0xff,0xff,0xff,0xff,0xff,0xff,
 0xff,0xff,0xff,0xff,0xff,0xff,0xff,0xff,0xff,0xff,0xff,0xff,0xff,0xff,0xff,
 0xff,0xff,0xff,0xff,0xff,0xff,0xff,0xff,0xff,0xff,0xff,0xff,0xff,0xff,0xff,
 0xff,0xff,0xff,0xff,0xff,0xff,0xff,0xff,0xff,0xff,0xff,0xff,0xff,0xff,0xff,
 0xff,0xff,0xff,0xff,0xff,0xff,0xff,0xff,0xff,0xff,0xff,0xff,0xff,0xff,0xff,
 0xff,0xff,0xff,0xff,0xff,0xff,0xff,0xff };
