#define _width 256
#define _height 64
static char _bits[] = {
 0x00,0x00,0x00,0x00,0x00,0x00,0x00,0x00,0x00,0x00,0x00,0x00,0x00,0x00,0x00,
 0x00,0x00,0x00,0x00,0x00,0x00,0x00,0x00,0x00,0x00,0x00,0x00,0x00,0x00,0x00,
 0x00,0x00,0x00,0x00,0x00,0x00,0x00,0x00,0x1f,0x00,0x1f,0x00,0x00,0x00,0x00,
 0x00,0x00,0x00,0x00,0x80,0xff,0xff,0x01,0x00,0x00,0x00,0x00,0x00,0x00,0x00,
 0x00,0x00,0x00,0x00,0x00,0x00,0x00,0x00,0x00,0xf0,0x3f,0xf8,0x0f,0x00,0x00,
 0x00,0x00,0x00,0x00,0x00,0x00,0xc0,0xff,0xff,0x01,0x00,0x00,0x00,0x80,0x07,
 0x00,0x00,0x00,0x00,0x00,0x00,0x00,0x00,0x00,0x00,0x00,0xfe,0x3f,0xfc,0x07,
 0x00,0x00,0x00,0x00,0x0e,0x00,0x00,0x00,0xe0,0xff,0xf9,0x01,0xf0,0x01,0x00,
 0x80,0x0f,0x00,0x00,0x00,0x00,0x00,0x00,0x00,0x00,0x00,0x00,0x00,0xfe,0x3f,
 0xfc,0x07,0x00,0x00,0x00,0x80,0x0b,0x10,0x00,0x00,0x70,0xfe,0xf9,0xe0,0xf0,
 0x01,0x00,0x80,0x0f,0x00,0x00,0x00,0x00,0x00,0x00,0x00,0x00,0x00,0x00,0x00,
 0xff,0x3f,0xfe,0x03,0x00,0x00,0x00,0xc0,0x18,0x38,0x00,0x00,0x08,0xff,0xf8,
 0xfc,0xf9,0x00,0x00,0xc0,0x07,0x00,0x00,0x00,0x00,0x00,0x00,0x00,0x1c,0x00,
 0x00,0x80,0x9f,0x7f,0xff,0x01,0x00,0x00,0x73,0x60,0x10,0x7e,0x00,0x00,0x00,
 0xff,0xfc,0xfe,0xf9,0x73,0xee,0xcf,0x07,0x00,0x00,0x00,0x00,0x00,0x00,0x00,
 0x36,0x00,0x00,0xc0,0x83,0x7f,0xff,0xf9,0xf3,0xef,0xfb,0x30,0x36,0xff,0x00,
 0x00,0x00,0x7f,0x7c,0xff,0xf9,0x7b,0xf7,0xcf,0x07,0x00,0x00,0x01,0x00,0x00,
 0x00,0x00,0x63,0x00,0x00,0xe0,0xc0,0xff,0xff,0xfc,0xf3,0xef,0xff,0x0c,0xb3,
 0xff,0x00,0x00,0x80,0x7f,0x7c,0xf9,0xf9,0xfb,0xf7,0xee,0x03,0x00,0xe0,0x0f,
 0x00,0x00,0x00,0x00,0x45,0x00,0x00,0x20,0xc0,0xff,0xff,0x3c,0xf3,0xe6,0xff,
 0x84,0xf1,0xf1,0x01,0x00,0x80,0x7f,0x7e,0xfc,0x7c,0xf8,0xf3,0xe6,0x03,0x00,
 0x90,0x12,0x00,0x00,0x00,0x00,0x63,0x00,0x00,0x10,0xc0,0xff,0x7f,0xbc,0xfb,
 0xe6,0xfd,0x00,0xf0,0xf0,0x03,0x00,0x80,0xff,0x3f,0xfe,0x7c,0xfc,0xfb,0xe6,
 0x03,0x00,0x10,0x10,0x00,0x00,0x00,0x00,0xb6,0x0e,0x00,0x00,0xe0,0xff,0x7f,
 0xbc,0x7b,0xf7,0x7c,0x00,0x60,0xe0,0x03,0x00,0xc0,0xff,0x9f,0xff,0x7c,0x7c,
 0x78,0xf6,0x01,0x00,0x3c,0x78,0x00,0x00,0x00,0x00,0x1c,0x1b,0x00,0x00,0xe0,
 0xff,0x7f,0xbe,0x79,0xf7,0x7e,0x00,0x00,0xe0,0x07,0x00,0xc0,0x3f,0xe0,0x7b,
 0x3e,0x7c,0x78,0xf7,0x01,0x00,0xff,0xff,0x01,0x00,0x00,0x00,0x88,0x35,0x00,
 0x00,0xf0,0xff,0x7d,0xbe,0x7d,0xf3,0x3e,0x00,0x00,0xc0,0x07,0x00,0xe0,0x1f,
 0xf0,0x79,0x3e,0x3e,0x78,0xf3,0x00,0x80,0x23,0x88,0x03,0x00,0x00,0x00,0x88,
 0x20,0x00,0x00,0xf0,0xfb,0x7d,0xde,0x7d,0xf3,0x1e,0x00,0x00,0xc0,0x0f,0x00,
 0xe0,0x1f,0xf8,0x7c,0xfe,0x3e,0x7c,0xfb,0x00,0x00,0x1c,0x70,0x00,0x00,0x00,
 0x00,0x88,0x31,0x00,0x00,0xf0,0xf9,0x7c,0xdf,0xbc,0xfb,0x7e,0x00,0x00,0xc0,
 0x0f,0x00,0xe0,0x1f,0x78,0x7c,0x7f,0x7e,0x3c,0xfb,0x0f,0x00,0x00,0x00,0x00,
 0x00,0x00,0x00,0x1c,0x1b,0x00,0x00,0xf8,0xf9,0x7c,0xdf,0xbc,0x79,0x7f,0x00,
 0x00,0xf0,0x1f,0x00,0xf0,0x1f,0xf8,0x7c,0x7f,0x7f,0xfc,0xf9,0x0f,0x00,0x00,
 0x00,0x00,0x00,0xc0,0x00,0xb6,0x0e,0x00,0x00,0xf8,0x79,0x3c,0xff,0xfe,0x79,
 0x7f,0x00,0x00,0x18,0x1f,0x00,0xf0,0x0f,0xf8,0x3f,0x7f,0x3f,0xfe,0xfd,0x0f,
 0x00,0x00,0x00,0x00,0xe0,0x70,0x00,0x63,0x00,0x00,0x00,0xf8,0x78,0x38,0xff,
 0xfe,0x7d,0x3f,0x00,0x00,0x0e,0x3f,0x00,0xf0,0x0f,0xf0,0x0f,0x3e,0x3e,0xfe,
 0xfd,0x07,0x00,0x00,0x00,0x00,0xf8,0x1d,0x00,0x51,0x00,0x00,0x00,0xfc,0x38,
 0x18,0x7f,0xfe,0x7c,0x0f,0x00,0x80,0x03,0x3e,0x00,0xf8,0x07,0xe0,0x03,0x1c,
 0x0c,0xfc,0xfc,0x07,0x00,0x00,0x00,0x00,0xfe,0x07,0x00,0x63,0x00,0x00,0x0e,
 0x7c,0x10,0x18,0x00,0x00,0x00,0x00,0x00,0x00,0x00,0x7e,0x00,0xf8,0x03,0x00,
 0x00,0x00,0x00,0x00,0x00,0x00,0x00,0x00,0x00,0x00,0x8f,0x0f,0x00,0x36,0x00,
 0x80,0x1f,0x3c,0x10,0x08,0x00,0x00,0x00,0x00,0x00,0x00,0x00,0xfc,0x00,0xf8,
 0x00,0x00,0x00,0x00,0x00,0x00,0x00,0x00,0x00,0x00,0x00,0xc0,0x01,0x1f,0x00,
 0x1c,0x00,0x80,0x3c,0x0e,0x00,0x00,0x00,0x00,0x04,0x00,0x00,0x00,0x00,0xfc,
 0x00,0x3c,0x00,0x00,0x00,0x00,0x00,0x00,0xc0,0x01,0x00,0x00,0x00,0x60,0x00,
 0x1e,0x00,0x00,0x00,0xc0,0x78,0x02,0x00,0x00,0x00,0x00,0x06,0x00,0x00,0x10,
 0x00,0xf8,0x01,0x1c,0x00,0x00,0x00,0x00,0x00,0x00,0xf8,0x07,0x00,0x00,0x00,
 0x38,0x00,0x3c,0x00,0x00,0x00,0x60,0xf8,0x00,0x00,0x00,0x00,0x00,0x83,0x00,
 0x00,0x10,0x00,0xf8,0x03,0x06,0x00,0x00,0x00,0x00,0x00,0x00,0xff,0x1f,0x00,
 0x00,0x00,0x0c,0x00,0x7c,0x00,0x00,0x00,0x20,0xf0,0x01,0xe0,0x01,0x00,0xc0,
 0xf0,0x00,0x00,0x10,0x00,0xf0,0x07,0x02,0x00,0x00,0x00,0x00,0x00,0xc0,0x0f,
 0x3f,0x00,0x00,0x00,0x07,0x00,0xfe,0x00,0x00,0x00,0x30,0xe0,0x03,0xa0,0x03,
 0x00,0x60,0x18,0xa0,0x02,0x00,0x00,0xf0,0x07,0x00,0x00,0x00,0x00,0x00,0x00,
 0x70,0x02,0x7e,0x00,0x00,0x80,0x01,0xf0,0xff,0x00,0x00,0x00,0x18,0xe0,0x07,
 0x30,0x0f,0x00,0x30,0x0c,0xc0,0x01,0x00,0x00,0xf8,0x07,0x00,0x00,0x00,0x00,
 0x00,0x00,0x1c,0x00,0xfe,0x00,0x3c,0xe0,0x00,0xfe,0xff,0x00,0x00,0x00,0x0c,
 0xc0,0x1f,0x1c,0x3f,0x00,0x08,0x06,0x40,0x01,0x00,0x00,0xfe,0x1f,0x00,0x00,
 0x00,0x00,0x00,0x00,0x07,0x00,0xfc,0x01,0xe7,0x39,0x80,0xff,0xe0,0x00,0x00,
 0x00,0x04,0x00,0x3f,0x06,0xfe,0x00,0x06,0x02,0x40,0x01,0x00,0x80,0xff,0x7f,
 0x00,0x00,0xff,0x0f,0x00,0xe0,0x01,0x00,0xf8,0xc7,0x01,0x0f,0xe0,0x00,0xe0,
 0x00,0x00,0x00,0x06,0x00,0x7c,0x03,0xfe,0x07,0x03,0x01,0x80,0x00,0x00,0xe0,
 0xc7,0xff,0x01,0xf0,0x01,0x78,0x00,0x3c,0x00,0x00,0xf0,0x7f,0x00,0x00,0x38,
 0x00,0xc0,0x00,0x00,0xc0,0x01,0x00,0x78,0x01,0xf8,0x9f,0x01,0x01,0x80,0x00,
 0x00,0xf0,0x00,0xfc,0x07,0x1f,0x00,0x80,0x83,0x07,0x00,0x00,0xe0,0x07,0x00,
 0x00,0x0e,0x00,0x00,0x00,0x00,0x7e,0x80,0x03,0xf8,0x01,0x70,0xfc,0x00,0x00,
 0x00,0x00,0x10,0x1c,0x00,0x00,0xff,0x01,0x00,0x00,0xfe,0x00,0x00,0x00,0xc0,
 0x01,0x00,0x00,0x00,0x00,0x00,0x00,0xfc,0x03,0xc0,0x00,0xf8,0x00,0xe0,0x38,
 0x00,0x00,0x00,0x00,0x10,0x00,0x00,0x00,0x00,0x00,0xe0,0x00,0x00,0x00,0x00,
 0x00,0xe0,0x01,0x00,0x00,0x00,0x00,0x00,0x00,0x07,0x00,0x00,0x00,0x70,0x00,
 0xc0,0x1d,0x00,0x00,0x00,0x00,0x10,0x00,0x00,0x00,0x00,0x00,0x3c,0x00,0x00,
 0x00,0x38,0x00,0x30,0x00,0x00,0x00,0x00,0x00,0x00,0xc0,0x01,0x00,0x00,0x00,
 0x70,0x00,0x80,0x07,0x00,0x00,0x00,0x00,0x38,0x00,0x00,0x00,0x00,0x00,0x00,
 0x00,0x00,0x00,0x0f,0x00,0x18,0x00,0x00,0x00,0x00,0x00,0x00,0x70,0x00,0x00,
 0x00,0x00,0xe0,0x00,0x00,0x03,0x00,0x00,0x00,0x00,0x28,0x00,0x00,0x00,0x00,
 0x00,0x00,0x00,0x00,0xe0,0x01,0x00,0x0e,0x00,0x00,0x00,0x00,0x00,0x00,0x1c,
 0x00,0x00,0x00,0x00,0xfc,0x01,0x80,0x01,0x00,0x00,0x00,0x00,0x28,0x00,0x00,
 0x00,0x00,0x00,0x00,0x00,0x00,0x38,0x00,0x00,0x03,0x00,0x00,0x00,0x00,0x00,
 0x00,0x07,0xe0,0x00,0x00,0x00,0x8f,0x01,0xc0,0x00,0x00,0x00,0x00,0x00,0x38,
 0xe0,0x3f,0x00,0x00,0x00,0x00,0x00,0x00,0x08,0x00,0x80,0x01,0x00,0x00,0x00,
 0x00,0x10,0x00,0x01,0x30,0x00,0x00,0xc0,0x01,0x03,0x30,0x00,0x00,0x00,0x00,
 0x00,0x10,0x18,0x40,0x00,0x00,0x00,0x00,0x00,0x00,0x00,0x00,0x00,0x00,0x00,
 0x00,0x00,0x80,0x1f,0x00,0x00,0x0e,0x00,0x00,0x70,0x00,0x0e,0x18,0x00,0x00,
 0x00,0x00,0x00,0x38,0x86,0xff,0x00,0x00,0x00,0x00,0x00,0x00,0x00,0x00,0x00,
 0x00,0x00,0x00,0x00,0xfc,0x00,0x00,0x00,0x03,0x00,0x00,0x18,0x00,0x0c,0x00,
 0x00,0x00,0x00,0x00,0x00,0x28,0xe1,0xff,0x03,0x00,0x00,0x00,0x00,0x00,0x00,
 0x00,0x00,0x00,0x00,0x00,0xfc,0x07,0x00,0x00,0xe0,0x00,0x00,0x00,0x0c,0x00,
 0x18,0x00,0x00,0x00,0x00,0x00,0x00,0xa8,0xf1,0xff,0x0f,0x00,0x00,0x00,0x00,
 0x00,0x00,0x00,0x00,0x00,0x00,0xfe,0x07,0x00,0x00,0x00,0x00,0x00,0x00,0x00,
 0x00,0x00,0x30,0x00,0x00,0x58,0x02,0x00,0xc0,0xef,0xf0,0x07,0x30,0x00,0x00,
 0x00,0x00,0x00,0x00,0x00,0x00,0x00,0x00,0x00,0x00,0x00,0x00,0x00,0x00,0x00,
 0x00,0x00,0x00,0x00,0x00,0x00,0x00,0x10,0x22,0x00,0x30,0x7c,0x00,0xe0,0xff,
 0x07,0x00,0x00,0x00,0x00,0x00,0x00,0x00,0x00,0x00,0x00,0x00,0x00,0x00,0x00,
 0x00,0x00,0x00,0x00,0x00,0x00,0x00,0x00,0x00,0x04,0x25,0x00,0x0c,0x10,0x00,
 0xe0,0x1f,0x05,0x07,0x00,0x00,0x00,0x00,0x00,0x00,0x00,0x00,0x00,0x00,0x00,
 0x00,0x00,0x00,0x00,0x00,0x00,0x00,0x00,0x00,0x00,0x80,0x24,0x12,0x00,0x02,
 0x00,0x00,0x00,0xf0,0x07,0x00,0x00,0x00,0x00,0x00,0x00,0x00,0x00,0x00,0x00,
 0x00,0x00,0x00,0x00,0x00,0x00,0x00,0x00,0x00,0x00,0x00,0x00,0x80,0x28,0x01,
 0x00,0x02,0x00,0x00,0x00,0x40,0x00,0x00,0x00,0x00,0x00,0x00,0x00,0x00,0x00,
 0x00,0x00,0x00,0x00,0x00,0x00,0x00,0x00,0x00,0x00,0x00,0x00,0x00,0x00,0x10,
 0x0a,0x88,0x00,0x61,0x00,0x00,0x00,0x40,0x00,0x00,0x00,0x00,0x00,0x00,0x00,
 0x00,0x00,0x00,0x00,0x00,0x00,0x00,0x00,0x00,0x00,0x00,0x00,0x00,0x00,0x00,
 0x00,0xa0,0x60,0x48,0x00,0xf9,0x81,0x01,0x00,0x20,0x00,0x00,0x00,0x00,0x00,
 0x00,0x00,0x00,0x00,0x00,0x00,0x00,0x00,0x00,0x00,0x00,0x00,0x00,0x00,0x00,
 0x00,0x00,0x00,0x80,0x48,0x05,0x00,0xf9,0xe1,0x07,0x00,0x20,0x00,0x00,0x00,
 0x00,0x00,0x00,0x00,0x00,0x00,0x00,0x00,0x00,0x00,0x00,0x00,0x00,0x00,0x00,
 0x00,0x00,0x00,0x00,0x00,0x10,0x10,0x11,0x00,0x9f,0xe2,0x05,0x00,0x10,0x00,
 0x00,0x00,0x00,0x00,0x00,0x00,0x00,0x00,0x00,0x00,0x00,0x00,0x00,0x00,0x00,
 0x00,0x00,0x00,0x00,0x00,0x00,0x00,0x20,0xc2,0x48,0x00,0x9c,0x7e,0xfa,0x7f,
 0x0b,0x00,0x00,0x00,0x00,0x00,0x00,0x00,0x00,0x00,0x00,0x00,0x00,0x00,0x00,
 0x00,0x00,0x00,0x00,0x00,0x00,0x00,0x00,0x00,0x00,0x4c,0x24,0x00,0x78,0x71,
 0x0a,0x80,0x07,0x00,0x00,0x00,0x00,0x00,0x00,0x00,0x00,0x00,0x00,0x00,0x00,
 0x00,0x00,0xf8,0x00,0x00,0x00,0x00,0xc0,0xff,0x03,0x00,0x20,0x01,0x80,0x00,
 0xf8,0xe1,0x07,0xc0,0x0c,0x00,0x00,0x00,0x00,0x00,0x00,0x00,0x00,0x00,0x00,
 0x00,0x00,0x00,0xe0,0xff,0x00,0x00,0x00,0x00,0xfc,0xff,0xff,0xff,0x47,0x98,
 0x45,0x00,0x60,0xe0,0x07,0xc0,0x08,0x00,0x00,0x00,0x80,0xff,0xff,0x1f,0x00,
 0x00,0x00,0x00,0x00,0x00,0xfe,0xff,0x00,0x00,0x00,0xe0,0xff,0xff,0xff,0xff,
 0x7f,0x02,0x28,0x00,0x00,0x80,0x01,0x80,0x07,0x00,0x00,0xc0,0xff,0xff,0xff,
 0xff,0x7f,0x00,0x00,0xff,0xff,0xff,0xff,0xff,0x3f,0x00,0xfc,0xff,0xff,0xff,
 0xff,0xff,0xff,0x24,0xd2,0xff,0xff,0x07,0x38,0x00,0x03,0x00,0xfe,0xff,0xff,
 0xff,0xff,0xff,0xff,0xff,0xff,0xff,0xff,0xff,0xff,0xff,0xff,0xc7,0xff,0xff,
 0xff,0xff,0xff,0xff,0xff,0x13,0xe9,0xff,0xff,0xff,0xff,0x3f,0xc0,0xff,0xff,
 0xff,0xff,0xff,0xff,0xff,0xff,0xff,0xff,0xff,0xff,0xff,0xff,0xff,0xff,0xff,
 0xff,0xff,0xff,0xff,0xff,0xff,0xff,0x05,0xfd,0xff,0xff,0xff,0xff,0xff,0xff,
 0xff,0xff,0xff,0xff,0xff,0xff,0xff,0xff,0xff,0xff,0xff,0xff,0xff,0xff,0xff,
 0xff,0xff,0xff,0xff,0xff,0xff,0xff,0xff,0xff,0xd3,0xfa,0xff,0xff,0xff,0xff,
 0xff,0xff,0xff,0xff,0xff,0xff,0xff,0xff,0xff,0xff,0xff,0xff,0xff,0xff,0xff,
 0xff,0xff,0xff,0xff,0xff,0xff,0xff,0xff,0xff,0xff,0xff,0x6f,0xff,0xff,0xff,
 0xff,0xff,0xff,0xff,0xff,0xff,0xff,0xff,0xff,0xff,0xff,0xff,0xff,0xff,0xff,
 0xff,0xff,0xff,0xff,0xff,0xff,0xff,0xff,0xff,0xff,0xff,0xff,0xff,0xff,0xff,
 0xff,0xff,0xff,0xff,0xff,0xff,0xff,0xff,0xff,0xff,0xff,0xff,0xff,0xff,0xff,
 0xff,0xff,0xff,0xff,0xff,0xff,0xff,0xff,0xff,0xff,0xff,0xff,0xff,0xff,0xff,
 0xff,0xff,0xff,0xff,0xff,0xff,0xff,0xff,0xff,0xff,0xff,0xff,0xff,0xff,0xff,
 0xff,0xff,0xff,0xff,0xff,0xff,0xff,0xff };
