#define _width 256
#define _height 64
static char _bits[] = {
 0x00,0x00,0x00,0x00,0x00,0x00,0x00,0x00,0x00,0x00,0x00,0x00,0x00,0x00,0x00,
 0xe0,0x07,0x00,0x00,0x00,0x00,0x00,0x00,0x00,0x00,0x00,0x00,0x00,0x00,0x00,
 0x00,0x00,0x00,0x00,0x00,0x00,0x00,0x00,0x00,0x00,0x00,0x00,0x00,0x00,0x00,
 0x00,0xe0,0xff,0x3f,0x00,0x00,0x00,0x00,0x00,0x00,0x00,0x00,0x00,0x00,0x00,
 0x00,0x00,0x00,0x00,0x00,0x00,0x00,0x00,0x00,0x00,0x00,0x00,0x00,0x00,0x00,
 0x00,0x00,0x80,0xff,0xff,0x3f,0x00,0x00,0x00,0x00,0x00,0x00,0x00,0x00,0x00,
 0x00,0x00,0x00,0x00,0x00,0x00,0x00,0x00,0x00,0x00,0x00,0x00,0x00,0x00,0x00,
 0x00,0x00,0x00,0xc0,0xff,0xff,0xff,0x7f,0x00,0x00,0x00,0x00,0x00,0x00,0x00,
 0x00,0x00,0x00,0x00,0x00,0x00,0x00,0x00,0x00,0x00,0x00,0x00,0x00,0x00,0x00,
 0x00,0x00,0x00,0x00,0x00,0xff,0xff,0xff,0xff,0x7f,0x00,0x00,0x00,0x00,0x00,
 0x00,0x00,0x00,0x00,0x00,0x00,0x00,0x00,0x00,0x00,0x00,0x00,0x00,0x00,0x00,
 0x00,0x00,0x00,0x00,0x00,0x00,0xfc,0xff,0xff,0xff,0x83,0x7f,0x00,0x00,0x00,
 0x00,0x00,0x00,0x00,0x00,0x00,0x00,0x00,0x00,0x00,0x00,0x00,0x00,0x00,0x00,
 0x00,0x00,0x00,0x00,0x00,0x00,0x00,0xfe,0xff,0xff,0xff,0xf9,0x81,0xff,0x00,
 0x00,0x00,0x00,0x00,0x00,0x00,0x00,0x00,0x00,0x00,0x00,0x00,0x00,0x00,0x00,
 0x00,0x00,0x00,0x00,0x00,0x00,0x00,0x00,0xfc,0xff,0xff,0xff,0x1f,0xf8,0x81,
 0xff,0x00,0x00,0x00,0x00,0x00,0x00,0x00,0x00,0x00,0x00,0x00,0x00,0x00,0x00,
 0x00,0x00,0x00,0x00,0x00,0x00,0x00,0x00,0x00,0xfc,0xff,0xff,0xff,0xc3,0x1f,
 0xf0,0x81,0xff,0x01,0x00,0x00,0x00,0x00,0x00,0x00,0x00,0x00,0x00,0x00,0x00,
 0x00,0x00,0x00,0x00,0x00,0x00,0x00,0x00,0x00,0x00,0xf0,0xff,0xff,0xff,0xff,
 0x80,0x1f,0xe0,0x81,0xff,0x01,0x00,0x00,0x00,0x00,0x00,0x00,0x00,0x00,0x00,
 0x00,0x00,0x00,0x00,0x00,0x00,0x00,0x00,0x00,0x00,0x00,0xf8,0xff,0xff,0xff,
 0x0f,0xe0,0x01,0x1f,0xc0,0x81,0xff,0x01,0x00,0x00,0x00,0x00,0x00,0x00,0x00,
 0x00,0x00,0x00,0x00,0x00,0x00,0x00,0x00,0x00,0x00,0x00,0x00,0xf0,0xff,0xff,
 0xff,0x3f,0x00,0xe0,0x03,0x1e,0xc0,0x81,0xff,0x03,0x00,0x00,0x00,0x00,0x00,
 0x00,0x00,0x00,0x00,0x00,0x00,0x00,0x00,0x00,0x00,0x00,0x00,0x00,0xc0,0xff,
 0xff,0xff,0xff,0x01,0x00,0xe0,0x07,0x1c,0x82,0x81,0xff,0x03,0x00,0x00,0x00,
 0x00,0x00,0x00,0x00,0x00,0x00,0x00,0x00,0x00,0x00,0x00,0x00,0x00,0x00,0x00,
 0xe0,0xff,0xff,0x7f,0xc0,0x01,0x00,0xff,0x0f,0x1c,0x06,0xc1,0xff,0x03,0x00,
 0x00,0x00,0x00,0x00,0x00,0x00,0x00,0x00,0x00,0x00,0x00,0x00,0x00,0x00,0x00,
 0x00,0x00,0xf8,0xff,0x1f,0x7f,0xc0,0x03,0xfe,0xef,0x1f,0x18,0x0e,0xc0,0xff,
 0x07,0x00,0x00,0x00,0x00,0x00,0x00,0x00,0x00,0x00,0x00,0x00,0x00,0x00,0x00,
 0x00,0x00,0x00,0x00,0xfc,0xff,0x00,0x7e,0x80,0x03,0x3e,0xe0,0x3f,0x10,0x0e,
 0xc0,0xff,0x07,0x00,0x00,0x00,0x00,0x00,0x00,0x00,0x00,0x00,0x00,0x00,0x00,
 0x00,0x00,0x00,0x00,0x00,0x00,0xfe,0xff,0x01,0xfc,0x80,0x07,0x00,0xe0,0x3f,
 0x00,0x1e,0xc0,0xff,0x0f,0x00,0x00,0x00,0x00,0x00,0x00,0x00,0x00,0x00,0x00,
 0x00,0x00,0x00,0x00,0x00,0x00,0x00,0x00,0xff,0xff,0x01,0xf0,0x80,0x07,0x00,
 0xc0,0x7f,0x00,0x3e,0xc0,0xff,0x0f,0x00,0x00,0x00,0x00,0x00,0x00,0x00,0x00,
 0x00,0x00,0x00,0x00,0x00,0x00,0x00,0x00,0x00,0x00,0xff,0xe1,0x03,0xc0,0x00,
 0x07,0x00,0xff,0xff,0x00,0x3e,0xc0,0xff,0x0f,0x00,0x00,0x00,0x00,0x00,0x00,
 0x00,0x00,0x00,0x00,0x00,0x00,0x00,0x00,0x00,0x00,0x00,0x00,0xff,0xde,0x03,
 0x00,0x01,0x0f,0xf8,0x7f,0xfe,0x01,0x7e,0xff,0xff,0x0f,0x00,0x00,0x00,0x00,
 0x00,0x00,0x00,0x00,0x00,0x00,0x00,0x00,0x00,0x00,0x00,0x00,0x00,0x00,0x7e,
 0xb3,0x03,0x00,0x00,0x0f,0xf8,0x00,0xfe,0x03,0xfe,0xff,0xff,0x0f,0x00,0x00,
 0x00,0x00,0x00,0x00,0x00,0x00,0x00,0x00,0x00,0x00,0x00,0x00,0x00,0x00,0x00,
 0x00,0x06,0xa1,0x07,0x04,0x00,0x1e,0x00,0x00,0xfc,0xff,0xff,0xff,0xff,0x01,
 0x00,0x00,0x00,0x00,0x00,0x00,0x00,0x00,0x00,0x00,0x00,0x00,0x00,0x00,0x00,
 0x00,0x00,0x00,0x79,0xa1,0x07,0x1c,0x00,0x1e,0x00,0x00,0xfc,0xff,0xff,0xff,
 0x07,0x00,0x00,0x00,0x00,0x00,0x00,0x00,0x00,0x00,0x00,0x00,0x00,0x00,0x00,
 0x00,0x00,0x00,0x00,0x00,0x0d,0xb3,0x0f,0x78,0x00,0x1c,0x00,0xf8,0xff,0xff,
 0xff,0x07,0x00,0x00,0x00,0x00,0x00,0x00,0x00,0x00,0x00,0x00,0x00,0x00,0x00,
 0x00,0x00,0x00,0x00,0x00,0x00,0x80,0xe0,0xde,0x0f,0xf8,0x00,0x3c,0xf0,0xff,
 0xff,0xff,0x1f,0x00,0x00,0x00,0x00,0x00,0x00,0x00,0x00,0x00,0x00,0x00,0x00,
 0x00,0x00,0x00,0x00,0x00,0x00,0x00,0x00,0x40,0xfa,0xe1,0x0f,0xf8,0x03,0xfc,
 0xff,0xff,0xff,0x1f,0x00,0x00,0x00,0x00,0x00,0x00,0x00,0x00,0x00,0x00,0x00,
 0x00,0x00,0x00,0x00,0x00,0x00,0x00,0x00,0x00,0x00,0x20,0xf1,0xff,0x1f,0xf0,
 0xc7,0xff,0xff,0xff,0xff,0xff,0x07,0x80,0xff,0x87,0xff,0x0f,0x00,0xff,0x0f,
 0x00,0xf0,0x1f,0x80,0xff,0x00,0x00,0x00,0x00,0x00,0x00,0x00,0xa0,0xf0,0x1f,
 0x00,0x00,0xf0,0xff,0x00,0xf0,0x60,0x00,0x18,0x40,0x00,0x58,0x00,0x30,0xc0,
 0x00,0x10,0x00,0x0c,0x70,0x60,0x80,0x01,0x00,0x00,0x00,0x00,0x00,0x00,0x90,
 0xe0,0xf7,0xff,0xff,0xcf,0xbf,0xff,0xcf,0x20,0xff,0x33,0x60,0xff,0x77,0xfe,
 0x67,0x20,0xff,0x27,0x00,0xf6,0xdf,0xd8,0x7f,0x03,0x00,0x00,0x00,0x00,0x00,
 0x00,0xd0,0xe0,0xf7,0xff,0xff,0x9f,0xbf,0xff,0x9f,0x21,0xff,0x67,0x60,0xff,
 0x67,0xfe,0xcf,0x90,0xff,0x67,0x00,0xe4,0x9f,0xe8,0x7f,0x02,0x00,0x00,0x00,
 0x00,0x00,0x00,0x50,0xe0,0xfb,0xff,0xff,0x3f,0x96,0xff,0x1f,0xa3,0xff,0xc7,
 0x60,0xff,0xc7,0xfc,0xbf,0xed,0xff,0x41,0x00,0xe4,0x3f,0xf7,0x3f,0x02,0x00,
 0x00,0x00,0x00,0x00,0x00,0x50,0x80,0xfb,0xff,0xff,0x7f,0xdc,0xff,0x1f,0xa6,
 0xff,0x87,0x60,0xff,0xc7,0xf9,0x7f,0xf7,0xff,0x40,0x00,0xcc,0x7f,0xfa,0x1f,
 0x02,0x00,0x00,0x00,0x00,0x00,0x00,0x90,0x00,0xfa,0x7f,0xf8,0x7f,0xd0,0xff,
 0x3f,0xac,0xff,0x07,0x63,0xff,0x87,0xe3,0xff,0xf8,0x7f,0x80,0x00,0x88,0xff,
 0xfc,0x0f,0x02,0x00,0x00,0x00,0x00,0x00,0x00,0x90,0x00,0xfa,0xff,0xff,0x7f,
 0xc0,0xff,0x3f,0xb8,0xff,0x07,0x62,0xff,0x07,0xc3,0xff,0xfd,0x3f,0x80,0x01,
 0x18,0xff,0xfd,0x07,0x06,0x00,0x00,0x00,0x00,0x00,0x00,0xa0,0x00,0xfb,0xff,
 0xff,0x3f,0xe0,0x9f,0x3f,0xa0,0xff,0x07,0x6c,0xff,0x07,0x86,0xff,0xff,0x1f,
 0x00,0x01,0x10,0xfe,0xff,0x03,0x04,0x00,0x00,0x00,0x00,0x00,0x00,0x20,0x01,
 0xfb,0xff,0xff,0x3f,0xe0,0x9f,0x3f,0x80,0xff,0x07,0x68,0xff,0x07,0x0e,0xff,
 0xff,0x07,0x00,0x03,0x10,0xfc,0xff,0x01,0x04,0x00,0x00,0x00,0x00,0x00,0x00,
 0x40,0x01,0xfb,0xff,0xff,0x1f,0xe0,0xff,0x7f,0x80,0xff,0x07,0x70,0xff,0x07,
 0x1c,0xfe,0xff,0x03,0x00,0x3e,0x30,0xf8,0xff,0x00,0x04,0x00,0x00,0x00,0x00,
 0x00,0x00,0x40,0x02,0xfb,0xff,0xff,0x07,0xf0,0xff,0x7f,0x80,0xff,0x07,0x60,
 0xff,0x07,0x10,0xfc,0xff,0x01,0x00,0x60,0x20,0xfc,0xff,0x00,0x0c,0x00,0x00,
 0x00,0x00,0x00,0x00,0x80,0x04,0xfb,0xff,0xff,0x0f,0xf0,0xff,0x7f,0x80,0xff,
 0xff,0x63,0xff,0xff,0x33,0xf8,0xff,0x00,0xfe,0xdf,0x60,0xfc,0xff,0x00,0x04,
 0x00,0x00,0x00,0x00,0x00,0x00,0x00,0x09,0xfb,0xff,0xff,0x1f,0xf0,0xff,0xff,
 0x80,0xff,0xff,0x47,0xff,0xff,0x67,0xf8,0xff,0x00,0xfe,0x9f,0x40,0xfe,0xff,
 0x01,0x06,0x00,0x00,0x00,0x00,0x00,0x00,0x00,0x32,0xfb,0xff,0xff,0x1f,0xf8,
 0xff,0xff,0x80,0xff,0xff,0x47,0xff,0xff,0xc7,0xf8,0xff,0x00,0xfe,0x9f,0x41,
 0xfe,0xff,0x01,0x03,0x00,0x00,0x00,0x00,0x00,0x00,0x00,0x4c,0xfb,0x7f,0xfe,
 0x1f,0xf8,0xff,0xff,0x80,0xff,0xff,0x07,0xff,0xff,0x87,0xf9,0xff,0x00,0xfe,
 0x1f,0x41,0xff,0xff,0x81,0x01,0x00,0x00,0x00,0x00,0x00,0x00,0x00,0x90,0xfb,
 0x7f,0xfe,0x1f,0xf8,0xff,0xff,0x81,0xff,0xff,0x07,0xff,0xff,0x07,0xfb,0xff,
 0x00,0xfe,0x1f,0x43,0xff,0xff,0xc3,0x00,0x00,0x00,0x00,0x00,0x00,0x00,0x00,
 0x60,0xf8,0x7f,0xfe,0x1f,0xfc,0xff,0xff,0x81,0xff,0xff,0x07,0xff,0xff,0x07,
 0xfb,0xff,0x00,0xfc,0x0f,0xa6,0xff,0xff,0x63,0x00,0x00,0x00,0x00,0x00,0x00,
 0x00,0x00,0x80,0xf9,0x7f,0xfe,0x1f,0xfc,0xff,0xff,0x81,0xff,0xff,0x07,0xff,
 0xff,0x07,0xfa,0xff,0x00,0x00,0x00,0xf4,0xff,0xff,0x27,0x00,0x00,0x00,0x00,
 0x00,0x00,0x00,0x00,0x00,0xfb,0x7f,0xfe,0x1f,0xfe,0xff,0xff,0x81,0xff,0xff,
 0x07,0xff,0xff,0x07,0xf8,0xff,0x00,0x00,0x00,0xdc,0xff,0xff,0x27,0x00,0x00,
 0x00,0x00,0x00,0x00,0x00,0x00,0x00,0xfb,0x7f,0xfe,0x1f,0xfe,0xff,0xff,0x83,
 0xff,0xff,0x07,0xff,0xff,0x07,0xf8,0xff,0x00,0x02,0x00,0xfc,0xff,0xff,0x2f,
 0x00,0x00,0x00,0x00,0x00,0x00,0x00,0x00,0x00,0xfb,0x7f,0xfe,0x1f,0xfe,0xff,
 0xff,0x83,0xff,0xff,0x07,0xff,0xff,0x07,0xf8,0xff,0x80,0x03,0x00,0xe8,0xff,
 0xff,0x4f,0x00,0x00,0x00,0x00,0x00,0x00,0x00,0x00,0x00,0xf9,0x7f,0xfe,0x1f,
 0xfe,0xff,0xff,0x83,0xff,0xff,0x07,0xff,0xff,0x07,0xf8,0xff,0x80,0x06,0x00,
 0xf0,0xff,0xfe,0x5f,0x00,0x00,0x00,0x00,0x00,0x00,0x00,0x00,0x00,0xf9,0x7f,
 0xfe,0x1f,0xff,0xff,0xff,0x87,0xff,0xff,0x07,0xff,0xff,0x07,0xf8,0xff,0x80,
 0x04,0x00,0xf0,0xff,0xfe,0xdf,0x00,0x00,0x00,0x00,0x00,0x00,0x00,0x00,0x00,
 0xf9,0x7f,0xfe,0x1f,0xff,0xff,0xff,0x87,0xff,0xff,0x07,0xff,0xff,0x07,0xf8,
 0x7f,0x80,0x0c,0x00,0xf8,0x7f,0xfc,0xbf,0x00,0x00,0x00,0x00,0x00,0x00,0x00,
 0x00,0x00,0xf9,0x7f,0xfe,0x9f,0xff,0xff,0xff,0x87,0xff,0xff,0x07,0xff,0xff,
 0x07,0xf8,0x7f,0x80,0x18,0x00,0xf8,0x7f,0xfc,0xbf,0x01,0x00,0x00,0x00,0x00,
 0x00,0x00,0x00,0x00,0xfb,0x7f,0xfe,0x0f,0xff,0xff,0xff,0x07,0xff,0xff,0x03,
 0xfe,0xff,0x03,0xf0,0x7f,0x80,0x10,0x00,0xf8,0x3f,0xf8,0x3f,0x01,0x00,0x00,
 0x00,0x00,0x00,0x00,0x00,0x00,0x02,0x00,0xf8,0x07,0x00,0x00,0x00,0x00,0xf0,
 0x7f,0x00,0xf8,0xff,0x00,0x00,0x00,0x80,0xe0,0xff,0x03,0x00,0x00,0x00,0x01,
 0x00,0x00,0x00,0x00,0x00,0x00,0x00,0x00,0x0c,0x00,0x00,0x00,0x00,0x00,0x00,
 0x00,0x00,0x00,0x00,0x00,0x00,0x00,0x00,0x00,0x80,0x00,0x00,0x02,0x00,0x00,
 0x00,0x03,0x00,0x00,0x00,0x00,0x00,0x00,0x00,0x00,0x18,0x00,0x00,0x00,0x00,
 0x00,0x00,0x00,0x00,0x00,0x00,0x00,0x00,0x00,0x08,0x00,0x80,0x00,0x00,0x06,
 0x00,0x00,0x00,0x02,0x00,0x00,0x00,0x00,0x00,0x00,0x00,0x00,0x60,0x00,0x00,
 0x00,0x00,0x00,0x00,0x00,0x00,0x00,0x00,0x00,0x00,0x00,0x18,0x00,0x80,0x00,
 0x00,0x04,0x00,0x00,0x00,0x02,0x00,0x00,0x00,0x00,0x00,0x00,0x00,0x00,0x80,
 0x01,0x00,0x00,0x00,0x00,0x00,0x00,0x00,0x00,0x00,0x00,0x00,0x00,0x38,0x00,
 0x80,0x00,0x00,0x08,0x00,0x00,0x00,0x02,0x00,0x00,0x00,0x00,0x00,0x00,0x00,
 0x00,0x00,0x06,0x00,0x00,0x00,0x00,0x00,0x00,0x00,0x00,0x00,0x10,0x00,0x00,
 0x78,0x00,0x80,0x00,0x00,0x08,0x00,0x10,0x00,0x04,0x00,0x00,0x00,0x00,0x00,
 0x00,0x00,0x00,0x00,0x0c,0x00,0x00,0x00,0x00,0x00,0x00,0x00,0x00,0x00,0x30,
 0x00,0x00,0xd8,0x00,0x80,0x00,0x00,0x10,0x00,0x10,0x00,0x04,0x00,0x00,0x00,
 0x00,0x00,0x00,0x00,0x00,0x00,0x30,0x00,0x00,0x00,0x00,0x00,0x00,0x80,0x00,
 0x00,0x70,0x00,0x00,0x98,0x00,0x80,0x00,0x00,0x10,0x00,0x38,0x00,0x04,0x00,
 0x00,0x00,0x00,0x00,0x00,0x00,0x00,0x00,0xe0,0x00,0x00,0x00,0x00,0x00,0x00,
 0x80,0x01,0x00,0x90,0x00,0x00,0x08,0x01,0x80,0x00,0x00,0x30,0x00,0x28,0x00,
 0x0c,0x00,0x00,0x00,0x00,0x00,0x00,0x00,0x00,0x00,0x80,0x01,0x30,0x00,0x1e,
 0x00,0x00,0xc0,0x06,0x00,0x90,0x01,0x00,0x0c,0x02,0xc0,0x00,0x00,0x60,0x00,
 0x6c,0x00,0x04,0x00,0x00,0x00,0x00,0x00,0x00,0x00,0x00,0x00,0x00,0xfe,0xcf,
 0xff,0xe1,0xff,0xff,0x3f,0xf8,0xff,0x0f,0xfe,0xff,0x03,0xfc,0x3f,0x00,0x00,
 0x80,0xff,0x83,0xff,0x03,0x00,0x00,0x00 };
