#define _width 256
#define _height 64
static char _bits[] = {
 0x00,0x00,0x00,0x00,0x00,0x00,0x00,0x00,0x00,0x00,0x00,0x00,
 0x00,0x00,0x00,0x00,0x00,0x00,0x00,0x00,0x00,0x00,0x00,0x00,
 0x00,0x00,0x00,0x00,0x00,0x00,0x00,0x00,0x00,0x00,0x00,0x00,
 0x00,0x00,0x00,0x00,0x00,0x00,0x00,0x00,0x00,0x00,0x00,0x00,
 0x00,0x00,0x00,0x00,0x00,0x00,0x00,0x00,0x00,0x00,0x00,0x00,
 0x00,0x00,0x00,0x00,0x00,0x00,0x00,0x00,0x00,0x00,0x00,0x00,
 0x00,0x00,0x00,0x00,0x00,0x00,0x00,0x00,0x00,0x00,0x00,0x00,
 0x00,0x00,0x00,0x00,0x00,0x00,0x00,0x00,0x00,0x00,0x00,0x00,
 0x00,0x00,0x00,0x00,0x00,0x00,0x00,0x00,0x00,0x00,0x00,0x00,
 0x00,0x00,0x00,0x00,0x00,0x00,0x00,0x0e,0x00,0x00,0x00,0x00,
 0x00,0x00,0x00,0x00,0x00,0x00,0x00,0x00,0x00,0x00,0x00,0x00,
 0x00,0x00,0x00,0x00,0x00,0x00,0x00,0xf0,0xff,0x83,0xff,0x1f,
 0xfc,0x7f,0x80,0x3f,0x00,0x00,0x00,0x00,0x00,0x00,0x00,0x00,
 0x00,0x00,0x00,0x00,0x00,0x00,0x00,0x00,0x00,0x00,0x00,0x00,
 0x00,0x00,0x00,0xf8,0xff,0xc3,0xff,0x1f,0xff,0x7f,0xc0,0x7f,
 0x00,0x00,0x00,0x00,0x00,0x00,0x00,0x00,0x00,0x00,0x00,0x00,
 0x00,0x00,0x00,0x00,0x00,0x00,0x00,0x00,0x00,0x00,0x00,0x3c,
 0x00,0xe0,0x01,0x00,0x0f,0x00,0xc0,0x71,0x00,0x00,0x00,0x00,
 0x00,0x00,0x00,0x00,0x00,0x00,0x00,0x00,0x00,0x00,0x00,0x00,
 0x00,0x00,0x00,0x00,0x00,0x00,0x00,0x1e,0x00,0xf0,0x00,0x80,
 0x03,0x00,0xc0,0xe5,0x00,0x00,0x00,0x00,0x00,0x00,0x00,0x00,
 0x00,0x00,0x00,0x00,0x00,0x00,0x00,0x00,0x00,0x00,0x00,0x00,
 0x00,0x00,0x00,0xce,0xff,0x73,0xff,0x9f,0xfb,0x7f,0xe0,0xec,
 0x00,0x00,0x00,0x00,0x00,0x00,0x00,0x00,0x00,0x00,0x00,0x00,
 0x00,0x00,0x00,0x00,0x00,0x00,0x00,0x00,0x00,0x00,0x00,0xe6,
 0xff,0x73,0xff,0x9f,0xfb,0x7f,0xe0,0xce,0x01,0x00,0x00,0x00,
 0x00,0x00,0x00,0x00,0x00,0x00,0x00,0x00,0x00,0x00,0x00,0x00,
 0x00,0x00,0x00,0x00,0x00,0x00,0x00,0x66,0x00,0x70,0x07,0x80,
 0x39,0x00,0x60,0xde,0x01,0x00,0x00,0x00,0x00,0x00,0x00,0x00,
 0x00,0x00,0x00,0x00,0x00,0x00,0x00,0x00,0x00,0x00,0x00,0x00,
 0x00,0x00,0x00,0xe6,0x00,0x70,0x07,0x80,0x19,0x00,0x70,0xde,
 0x01,0x00,0x00,0x00,0x00,0x00,0x00,0x00,0x00,0x00,0x00,0x00,
 0x00,0x00,0x00,0x00,0x00,0x00,0x00,0x00,0x00,0x00,0x00,0xe6,
 0x3f,0x70,0xff,0x87,0x99,0x7f,0x70,0x9f,0x01,0x00,0x00,0x00,
 0x00,0x00,0x00,0x00,0x00,0x00,0x00,0x00,0x00,0x00,0x00,0x00,
 0x00,0x00,0x00,0x00,0x00,0x00,0x00,0xce,0xff,0x70,0xff,0x87,
 0x99,0x7f,0x70,0xbf,0x03,0x00,0x00,0x00,0x00,0x00,0x00,0x00,
 0x00,0x00,0x00,0x00,0x00,0x00,0x00,0x00,0x00,0x00,0x00,0x00,
 0x00,0x00,0x00,0x1e,0xf0,0x70,0x00,0x80,0x19,0x70,0x38,0xbf,
 0x03,0x00,0x00,0x00,0x00,0x00,0x00,0x00,0x00,0x00,0x00,0x00,
 0x00,0x00,0x00,0x00,0x00,0x00,0x00,0x00,0x00,0x00,0x00,0x7c,
 0xc0,0x71,0x00,0x80,0x19,0x60,0xb8,0x3f,0x03,0x00,0x00,0x00,
 0x00,0x00,0x00,0x00,0x00,0x00,0x00,0x00,0x00,0x00,0x00,0x00,
 0x00,0x00,0x00,0x00,0x00,0x00,0x00,0xf8,0x9f,0x71,0xff,0x87,
 0x99,0x67,0x98,0x7b,0x07,0x00,0x00,0x00,0x00,0x00,0x00,0x00,
 0x00,0x00,0x00,0x00,0x00,0x00,0x00,0x00,0x00,0x00,0x00,0x00,
 0x00,0x00,0x00,0xe0,0xbf,0x73,0xff,0x87,0x99,0x67,0xdc,0x73,
 0x07,0x00,0x00,0x00,0x00,0x00,0x00,0x00,0x00,0x00,0x00,0x00,
 0x00,0x00,0x00,0x00,0x00,0x00,0x00,0x00,0x00,0x00,0x00,0x00,
 0xb8,0x73,0x07,0x80,0x19,0x66,0xdc,0x73,0x06,0x00,0x00,0x00,
 0x00,0x00,0x00,0x00,0x00,0x00,0x00,0x00,0x00,0x00,0x00,0x00,
 0x00,0x00,0x00,0x00,0x00,0x00,0x00,0x00,0xbc,0x73,0x0f,0x80,
 0xf9,0x67,0xcc,0xff,0x0e,0x00,0x00,0x00,0x00,0x00,0x00,0x00,
 0x00,0x00,0x00,0x00,0x00,0x00,0x00,0x00,0x00,0x00,0x00,0x00,
 0x00,0x00,0x00,0xfe,0x9f,0x73,0xff,0x9f,0xfb,0x67,0xce,0xfd,
 0x0e,0x00,0x00,0x00,0x00,0x00,0x00,0x00,0x00,0x00,0x00,0x00,
 0x00,0x00,0x00,0x00,0x00,0x00,0x00,0x00,0x00,0x00,0x00,0xfe,
 0xdf,0x71,0xfe,0x9f,0xfb,0x67,0xee,0xfc,0x1c,0x00,0x00,0x00,
 0x00,0x00,0x00,0x00,0x00,0x00,0x00,0x00,0x00,0x00,0x00,0x00,
 0x00,0x00,0x00,0x00,0x00,0x00,0x00,0x00,0xe0,0xf1,0x00,0x80,
 0x07,0x60,0xe6,0x00,0x1c,0x00,0x00,0x00,0x00,0x00,0x00,0x00,
 0x00,0x00,0x00,0x00,0x00,0x00,0x00,0x00,0x00,0x00,0x00,0x00,
 0x00,0x00,0x00,0xfe,0xff,0xe0,0xff,0x1f,0xff,0x7f,0xe7,0xfc,
 0x1f,0x00,0x00,0x00,0x00,0x00,0x00,0x00,0x00,0x00,0x00,0x00,
 0x00,0x00,0x00,0x00,0x00,0x00,0x00,0x00,0x00,0x00,0x00,0xfe,
 0x7f,0xc0,0xff,0x1f,0xfe,0xff,0x77,0xfc,0x1f,0x00,0x00,0x00,
 0x00,0x00,0x00,0x00,0x00,0x00,0x00,0x00,0x00,0x00,0x00,0x00,
 0x00,0x00,0x00,0x00,0x00,0x00,0x00,0xfe,0x3f,0x80,0xff,0x1f,
 0xfc,0xff,0x73,0xfc,0x3f,0x00,0x00,0x00,0x00,0x00,0x00,0x00,
 0x00,0x00,0x00,0x00,0x00,0x00,0x00,0x00,0x00,0x00,0x00,0x00,
 0x00,0x00,0x00,0x00,0x00,0x00,0x00,0x00,0x00,0x00,0x00,0x00,
 0x00,0x00,0x00,0x00,0x00,0x00,0x00,0x00,0x00,0x00,0x00,0x00,
 0x00,0x00,0x00,0x00,0x00,0x00,0x00,0x00,0x00,0x00,0x00,0x00,
 0x00,0x00,0x00,0x00,0x00,0x00,0x00,0x00,0x00,0x00,0x00,0x00,
 0x00,0x00,0x00,0x00,0x00,0x00,0x00,0x00,0x00,0x00,0x00,0x00,
 0x00,0x00,0x00,0x00,0x00,0x00,0x00,0x00,0x00,0x00,0x00,0x00,
 0x00,0x00,0x00,0x00,0x00,0x00,0x00,0x00,0x00,0x00,0x00,0x00,
 0x00,0x00,0x00,0x00,0x00,0x00,0x00,0x00,0x00,0x00,0x00,0x00,
 0x00,0x00,0x00,0x00,0x00,0x00,0x00,0x00,0x00,0x00,0x00,0x00,
 0x00,0x00,0x00,0x00,0x00,0x00,0x00,0x00,0x00,0x00,0x00,0x00,
 0x00,0x00,0x00,0x00,0x00,0x00,0x00,0x00,0x00,0x00,0x00,0x00,
 0x00,0x00,0x00,0x00,0x00,0x00,0x00,0x00,0x00,0x00,0x00,0x00,
 0x00,0x00,0x00,0x00,0x00,0x00,0x00,0x00,0x00,0x00,0x00,0x00,
 0x00,0x00,0x00,0x00,0x00,0x00,0x00,0x00,0x00,0x00,0x00,0x00,
 0x00,0x00,0x00,0x00,0x00,0x00,0x00,0x00,0x00,0x00,0x00,0x00,
 0x00,0x00,0x00,0x00,0x00,0x00,0x00,0x00,0x00,0x00,0x00,0x00,
 0x00,0x00,0x00,0x00,0x00,0x00,0x00,0x00,0x00,0x00,0x00,0x00,
 0x00,0x00,0x00,0x00,0x00,0x00,0x00,0x00,0x00,0x00,0x00,0x00,
 0x00,0xc0,0xff,0xff,0xff,0x1f,0xf0,0xff,0xff,0xff,0x07,0x00,
 0xf0,0xff,0x1f,0x00,0xe0,0xff,0xff,0xff,0x07,0xf0,0xff,0xff,
 0xff,0x03,0xf8,0xff,0xff,0xff,0x01,0x00,0x00,0xe0,0xff,0xff,
 0xff,0x1f,0xfc,0xff,0xff,0xff,0x07,0x00,0xf0,0xff,0x1f,0x00,
 0xf0,0xff,0xff,0xff,0x0f,0xf8,0xff,0xff,0xff,0x07,0xfc,0xff,
 0xff,0xff,0x03,0x00,0x00,0xf0,0xff,0xff,0xff,0x1f,0xfc,0xff,
 0xff,0xff,0x07,0x00,0xf0,0xff,0x1f,0x00,0xf8,0xff,0xff,0xff,
 0x1f,0xfc,0xff,0xff,0xff,0x0f,0xfe,0xff,0xff,0xff,0x07,0x00,
 0x00,0xf0,0xff,0xff,0xff,0x1f,0xfe,0xff,0xff,0xff,0x07,0x00,
 0xf0,0xff,0x1f,0x00,0xfc,0xff,0xff,0xff,0x1f,0xfc,0xff,0xff,
 0xff,0x0f,0xfe,0xff,0xff,0xff,0x07,0x00,0x00,0xf8,0xff,0xff,
 0xff,0x1f,0xfe,0xff,0xff,0xff,0x07,0x00,0xf0,0xff,0x1f,0x00,
 0xfc,0xff,0xff,0xff,0x1f,0xfe,0xff,0xff,0xff,0x0f,0xfe,0xff,
 0xff,0xff,0x0f,0x00,0x00,0xf8,0x01,0x00,0x00,0x00,0x7e,0x00,
 0x00,0x00,0x00,0x00,0x00,0xc0,0x1f,0x00,0xfc,0x00,0x00,0x80,
 0x1f,0x7e,0x00,0x00,0x80,0x1f,0x3f,0x00,0x00,0xc0,0x0f,0x00,
 0x00,0xf8,0x01,0x00,0x00,0x00,0x7e,0x00,0x00,0x00,0x00,0x00,
 0x00,0xc0,0x1f,0x00,0xfc,0x00,0x00,0x00,0x1f,0x7e,0x00,0x00,
 0x80,0x1f,0x3f,0x00,0x00,0xc0,0x0f,0x00,0x00,0xf8,0x01,0x00,
 0x00,0x00,0x7e,0x00,0x00,0x00,0x00,0x00,0x00,0xc0,0x1f,0x00,
 0xfc,0x00,0x00,0x00,0x1f,0x7e,0x00,0x00,0x80,0x1f,0x3f,0x00,
 0x00,0xc0,0x0f,0x00,0x00,0xf8,0x01,0x00,0x00,0x00,0x7e,0x00,
 0x00,0x00,0x00,0x00,0x00,0xc0,0x1f,0x00,0xfc,0x00,0x00,0x00,
 0x1f,0x7e,0x00,0x00,0x80,0x1f,0x3f,0x00,0x00,0xc0,0x0f,0x00,
 0x00,0xf8,0x01,0x00,0x00,0x00,0x7e,0x00,0x00,0x00,0x00,0x00,
 0x00,0xc0,0x1f,0x00,0xfc,0x00,0x00,0x00,0x1f,0x7e,0x00,0x00,
 0x80,0x1f,0x3f,0x00,0x00,0xc0,0x0f,0x00,0x00,0xf8,0x01,0x00,
 0x00,0x00,0x7e,0x00,0x00,0x00,0x00,0x00,0x00,0xc0,0x1f,0x00,
 0xfc,0x00,0x00,0x00,0x1f,0x7e,0x00,0x00,0x80,0x1f,0x3f,0x00,
 0x00,0xc0,0x0f,0x00,0x00,0xf8,0xff,0xff,0xff,0x07,0x7e,0x00,
 0xfe,0xff,0xc7,0xff,0x01,0xc0,0x1f,0x00,0xfc,0x00,0x00,0x00,
 0x1f,0x7e,0x00,0x00,0x80,0x1f,0x3f,0x00,0x00,0xc0,0x0f,0x00,
 0x00,0xf0,0xff,0xff,0xff,0x0f,0x7e,0x00,0xfe,0xff,0xc7,0xff,
 0x01,0xc0,0x1f,0x00,0xfc,0x00,0x00,0x00,0x1f,0x7e,0x00,0x00,
 0x80,0x1f,0x3f,0x00,0x00,0xc0,0x0f,0x00,0x00,0xf0,0xff,0xff,
 0xff,0x1f,0x7e,0x00,0xfe,0xff,0xc7,0xff,0x01,0xc0,0x1f,0x00,
 0xfc,0x00,0x00,0x00,0x1f,0x7e,0x00,0x00,0x80,0x1f,0x3f,0x00,
 0x00,0xc0,0x0f,0x00,0x00,0xf0,0xff,0xff,0xff,0x1f,0x7e,0x00,
 0xfe,0xff,0xc7,0xff,0x01,0xc0,0x1f,0x00,0xfc,0x00,0x00,0x00,
 0x1f,0x7e,0x00,0x00,0x80,0x1f,0x3f,0x00,0x00,0xc0,0x0f,0x00,
 0x00,0xc0,0xff,0xff,0xff,0x1f,0x7e,0x00,0xfe,0xff,0xc7,0xff,
 0x01,0xc0,0x1f,0x00,0xfc,0x00,0x00,0x00,0x1f,0x7e,0x00,0x00,
 0x80,0x1f,0x3f,0x00,0x00,0xc0,0x0f,0x00,0x00,0x00,0x00,0x00,
 0x80,0x1f,0x7e,0x00,0x00,0xe0,0x07,0x00,0x00,0xc0,0x1f,0x00,
 0xfc,0x00,0x00,0x00,0x1f,0x7e,0x00,0x00,0x80,0x1f,0x3f,0x00,
 0x00,0xc0,0x0f,0x00,0x00,0x00,0x00,0x00,0x00,0x1f,0x7e,0x00,
 0x00,0xe0,0x07,0x00,0x00,0xc0,0x1f,0x00,0xfc,0x00,0x00,0x00,
 0x1f,0x7e,0x00,0x00,0x80,0x1f,0x3f,0x00,0x00,0xc0,0x0f,0x00,
 0x00,0x00,0x00,0x00,0x00,0x1f,0x7e,0x00,0x00,0xe0,0x07,0x00,
 0x00,0xc0,0x1f,0x00,0xfc,0x00,0x00,0x00,0x1f,0x7e,0x00,0x00,
 0x80,0x1f,0x3f,0x00,0x00,0xc0,0x0f,0x00,0x00,0x00,0x00,0x00,
 0x00,0x1f,0x7e,0x00,0x00,0xe0,0x07,0x00,0x00,0xc0,0x1f,0x00,
 0xfc,0x00,0x00,0x00,0x1f,0x7e,0x00,0x00,0x80,0x1f,0x3f,0x00,
 0x00,0xc0,0x0f,0x00,0x00,0x00,0x00,0x00,0x00,0x1f,0x7e,0x00,
 0x00,0xe0,0x07,0x00,0x00,0xc0,0x1f,0x00,0xfc,0x00,0x00,0x00,
 0x1f,0x7e,0x00,0x00,0x80,0x1f,0x3f,0x00,0x00,0xc0,0x0f,0x00,
 0x00,0x00,0x00,0x00,0x80,0x1f,0x7e,0x00,0x00,0xe0,0x07,0x00,
 0x00,0xc0,0x1f,0x00,0xfc,0x00,0x00,0x00,0x1f,0x7e,0x00,0x00,
 0x80,0x1f,0x3f,0x00,0x00,0xc0,0x0f,0x00,0x00,0xf8,0xff,0xff,
 0xff,0x1f,0xfe,0xff,0xff,0xff,0x07,0x00,0xf0,0xff,0xff,0x3f,
 0xfc,0xff,0xff,0xff,0x1f,0xfe,0xff,0xff,0xff,0x0f,0xfe,0xff,
 0xff,0xff,0x0f,0x00,0x00,0xf8,0xff,0xff,0xff,0x1f,0xfe,0xff,
 0xff,0xff,0x07,0x00,0xf0,0xff,0xff,0x3f,0xfc,0xff,0xff,0xff,
 0x1f,0xfc,0xff,0xff,0xff,0x0f,0xfe,0xff,0xff,0xff,0x07,0x00,
 0x00,0xf8,0xff,0xff,0xff,0x1f,0xfc,0xff,0xff,0xff,0x07,0x00,
 0xf0,0xff,0xff,0x3f,0xf8,0xff,0xff,0xff,0x1f,0xfc,0xff,0xff,
 0xff,0x0f,0xfe,0xff,0xff,0xff,0x07,0x00,0x00,0xf8,0xff,0xff,
 0xff,0x0f,0xfc,0xff,0xff,0xff,0x07,0x00,0xf0,0xff,0xff,0x3f,
 0xf8,0xff,0xff,0xff,0x0f,0xf8,0xff,0xff,0xff,0x07,0xfc,0xff,
 0xff,0xff,0x03,0x00,0x00,0xf8,0xff,0xff,0xff,0x07,0xf8,0xff,
 0xff,0xff,0x07,0x00,0xf0,0xff,0xff,0x3f,0xe0,0xff,0xff,0xff,
 0x07,0xf0,0xff,0xff,0xff,0x03,0xf8,0xff,0xff,0xff,0x01,0x00,
 0x00,0x00,0x00,0x00,0x00,0x00,0x00,0x00,0x00,0x00,0x00,0x00,
 0x00,0x00,0x00,0x00,0x00,0x00,0x00,0x00,0x00,0x00,0x00,0x00,
 0x00,0x00,0x00,0x00,0x00,0x00,0x00,0x00,0x00,0x00,0x00,0x00,
 0x00,0x00,0x00,0x00,0x00,0x00,0x00,0x00,0x00,0x00,0x00,0x00,
 0x00,0x00,0x00,0x00,0x00,0x00,0x00,0x00,0x00,0x00,0x00,0x00,
 0x00,0x00,0x00,0x00,0x00,0x00,0x00,0x00,0x00,0x00,0x00,0x00,
 0x00,0x00,0x00,0x00,0x00,0x00,0x00,0x00,0x00,0x00,0x00,0x00,
 0x00,0x00,0x00,0x00,0x00,0x00,0x00,0x00,0x00,0x00,0x00,0x00,
 0x00,0x00,0x00,0x00,0x00,0x00,0x00,0x00,0x00,0x00,0x00,0x00,
 0x00,0x00,0x00,0x00,0x00,0x00,0x00,0x00,0x00,0x00,0x00,0x00,
 0x00,0x00,0x00,0x00,0x00,0x00,0x00,0x00 };
