#define _width 256
#define _height 64
static char _bits[] = {
 0x00,0x00,0x00,0x00,0x00,0x00,0x00,0x00,0x00,0x00,0x00,0x00,0xc0,0xff,0x80,
 0xff,0x03,0xfe,0x0f,0xe0,0x01,0x00,0x00,0x00,0x00,0x00,0x00,0x00,0x00,0x00,
 0x00,0x00,0x00,0x00,0x00,0x00,0x00,0x00,0x00,0x00,0x00,0x00,0x00,0x00,0xf8,
 0xff,0xe0,0xff,0x83,0xff,0x0f,0xf8,0x03,0x00,0x00,0x00,0x00,0x00,0x00,0x00,
 0x00,0x00,0x00,0x00,0x00,0x00,0x00,0x00,0x00,0x00,0x00,0x00,0x00,0x00,0x00,
 0x00,0xfc,0xff,0xf0,0xff,0xc3,0xff,0x0f,0x38,0x07,0x00,0x00,0x00,0x00,0x00,
 0x00,0x00,0x00,0x00,0x00,0x00,0x00,0x00,0x00,0x00,0x00,0x00,0x00,0x00,0x00,
 0x00,0x00,0x00,0x0e,0x00,0x38,0x00,0xf0,0x00,0x00,0x1c,0x06,0x00,0x00,0x00,
 0x00,0x00,0x00,0x00,0x00,0x00,0x00,0x00,0x00,0x00,0x00,0x00,0x00,0x00,0x00,
 0x00,0x00,0x00,0x00,0x00,0xe7,0xff,0x98,0xff,0x73,0xfe,0x0f,0xdc,0x0e,0x00,
 0x00,0x00,0x00,0x00,0x00,0x00,0x00,0x00,0x00,0x00,0x00,0x00,0x00,0x00,0x00,
 0x00,0x00,0x00,0x00,0x00,0x00,0x00,0xf7,0xff,0xdc,0xff,0x73,0xff,0x0f,0xce,
 0x0e,0x00,0x00,0x00,0x00,0x00,0x00,0x00,0x00,0x00,0x00,0x00,0x00,0x00,0x00,
 0x00,0x00,0x00,0x00,0x00,0x00,0x00,0x00,0x00,0xf3,0xff,0xdc,0xff,0x73,0xff,
 0x0f,0xee,0x1c,0x00,0x00,0x00,0x00,0x00,0x00,0x00,0x00,0x00,0x00,0x00,0x00,
 0x00,0x00,0x00,0x00,0x00,0x00,0x00,0x00,0x00,0x00,0x00,0x33,0x00,0xdc,0x01,
 0x70,0x03,0x00,0xee,0x1d,0x00,0x00,0x00,0x00,0x00,0x00,0x00,0x00,0x00,0x00,
 0x00,0x00,0x00,0x00,0x00,0x00,0x00,0x00,0x00,0x00,0x00,0x00,0x00,0xf7,0x0f,
 0xdc,0xff,0x71,0xfb,0x0f,0xe7,0x1d,0x00,0x00,0x00,0x00,0x00,0x00,0x00,0x00,
 0x00,0x00,0x00,0x00,0x00,0x00,0x00,0x00,0x00,0x00,0x00,0x00,0x00,0x00,0x00,
 0xf7,0x1f,0xdc,0xff,0x71,0xfb,0x0f,0xf7,0x19,0x00,0x00,0x00,0x00,0x00,0x00,
 0x00,0x00,0x00,0x00,0x00,0x00,0x00,0x00,0x00,0x00,0x00,0x00,0x00,0x00,0x00,
 0x00,0x00,0x0e,0x78,0x1c,0x00,0x70,0x03,0x8e,0xf3,0x1b,0x00,0x00,0x00,0x00,
 0x00,0x00,0x00,0x00,0x00,0x00,0x00,0x00,0x00,0x00,0x00,0x00,0x00,0x00,0x00,
 0x00,0x00,0x00,0x00,0xfe,0x77,0xdc,0xff,0x71,0xf3,0x8e,0xfb,0x3b,0x00,0x00,
 0x00,0x00,0x00,0x00,0x00,0x00,0x00,0x00,0x00,0x00,0x00,0x00,0x00,0x00,0x00,
 0x00,0x00,0x00,0x00,0x00,0x00,0xfc,0xef,0xdc,0xff,0x71,0xfb,0x8e,0xfb,0x33,
 0x00,0x00,0x00,0x00,0x00,0x00,0x00,0x00,0x00,0x00,0x00,0x00,0x00,0x00,0x00,
 0x00,0x00,0x00,0x00,0x00,0x00,0x00,0x00,0xf0,0xef,0xdc,0xff,0x71,0xfb,0x8e,
 0xb9,0x37,0x00,0x00,0x00,0x00,0x00,0x00,0x00,0x00,0x00,0x00,0x00,0x00,0x00,
 0x00,0x00,0x00,0x00,0x00,0x00,0x00,0x00,0x00,0x00,0x00,0xcc,0xdc,0x01,0x70,
 0xc3,0x8e,0xbd,0x77,0x00,0x00,0x00,0x00,0x00,0x00,0x00,0x00,0x00,0x00,0x00,
 0x00,0x00,0x00,0x00,0x00,0x00,0x00,0x00,0x00,0x00,0x00,0x00,0x00,0xcc,0xdc,
 0x01,0x70,0xc3,0xce,0xfd,0x67,0x00,0x00,0x00,0x00,0x00,0x00,0x00,0x00,0x00,
 0x00,0x00,0x00,0x00,0x00,0x00,0x00,0x00,0x00,0x00,0x00,0x00,0x00,0x00,0xff,
 0xef,0xdc,0xff,0x73,0xff,0xce,0xfc,0x6f,0x00,0x00,0x00,0x00,0x00,0x00,0x00,
 0x00,0x00,0x00,0x00,0x00,0x00,0x00,0x00,0x00,0x00,0x00,0x00,0x00,0x00,0x00,
 0x00,0xff,0xef,0xdc,0xff,0x73,0xfe,0xce,0xfe,0xef,0x00,0x00,0x00,0x00,0x00,
 0x00,0x00,0x00,0x00,0x00,0x00,0x00,0x00,0x00,0x00,0x00,0x00,0x00,0x00,0x00,
 0x00,0x00,0x00,0x00,0x70,0x30,0x00,0xe0,0x00,0x6e,0x0e,0xe0,0x00,0x00,0x00,
 0x00,0x00,0x00,0x00,0x00,0x00,0x00,0x00,0x00,0x00,0x00,0x00,0x00,0x00,0x00,
 0x00,0x00,0x00,0x00,0x00,0xff,0x3f,0xf0,0xff,0xe3,0xff,0x7f,0xcf,0xff,0x01,
 0x00,0x00,0x00,0x00,0x00,0x00,0x00,0x00,0x00,0x00,0x00,0x00,0x00,0x00,0x00,
 0x00,0x00,0x00,0x00,0x00,0x00,0x00,0xff,0x1f,0xf0,0xff,0xc3,0xff,0x7f,0xcf,
 0xff,0x01,0x00,0x00,0x00,0x00,0x00,0x00,0x00,0x00,0x00,0x00,0x00,0x00,0x00,
 0x00,0x00,0x00,0x00,0x00,0x00,0x00,0x00,0x00,0xff,0x1f,0xe0,0xff,0x03,0xff,
 0x7f,0xc7,0xff,0x01,0x00,0x00,0x00,0x00,0x00,0x00,0x00,0x00,0x00,0x00,0x00,
 0x00,0x00,0x00,0x00,0x00,0x00,0x00,0x00,0x00,0x00,0x00,0x00,0x00,0x00,0x00,
 0x00,0x00,0x00,0x00,0x00,0x00,0x00,0x00,0x00,0x00,0x00,0x00,0x00,0x00,0x00,
 0x00,0x00,0x00,0x00,0x00,0x00,0x00,0x00,0x00,0x00,0x00,0x00,0x00,0x00,0x00,
 0x00,0x00,0x00,0x00,0x00,0x00,0x00,0x00,0x00,0x00,0x00,0x00,0x00,0x00,0x00,
 0x00,0x00,0x00,0x00,0x00,0x00,0x00,0x00,0x00,0x00,0x00,0x00,0x00,0x00,0x00,
 0x00,0x00,0x00,0x00,0x00,0x00,0x00,0x00,0x00,0x00,0x00,0x00,0x00,0x00,0x00,
 0x00,0x00,0x00,0x00,0x00,0x00,0x80,0xff,0x01,0x00,0xfc,0x0f,0x00,0x00,0x00,
 0x00,0x00,0x00,0x00,0x00,0x00,0xf8,0x7f,0x03,0x00,0x00,0x00,0x00,0x00,0x00,
 0x00,0x00,0x00,0x00,0x00,0x00,0x00,0x00,0x00,0xfe,0x03,0x00,0xfe,0x01,0x00,
 0x00,0x00,0x00,0x00,0x00,0x00,0x00,0x00,0x7c,0xf8,0x03,0x00,0x00,0x00,0x00,
 0x00,0x00,0x00,0x00,0x00,0x00,0x00,0x00,0x00,0x00,0x00,0xfc,0x03,0x00,0x7e,
 0x00,0x00,0x00,0x00,0x00,0x00,0x00,0x00,0x00,0x00,0x1c,0xe0,0x03,0x00,0x00,
 0x00,0x00,0x00,0x00,0x00,0x00,0x00,0x00,0x00,0x00,0x00,0x00,0x00,0xf8,0x03,
 0x00,0x7e,0x00,0x00,0x00,0x00,0xf0,0x00,0x00,0x00,0x00,0x00,0x0c,0xc0,0x03,
 0x00,0x00,0x00,0x78,0x00,0x00,0x00,0x00,0x00,0x00,0x00,0x00,0x00,0x00,0x00,
 0xb0,0x07,0x00,0x7b,0x00,0x00,0x00,0x00,0xf0,0x00,0x00,0x00,0x00,0x00,0x0e,
 0x80,0x03,0x00,0x00,0x00,0x78,0x00,0x00,0x00,0x00,0x00,0x00,0x00,0x00,0x00,
 0x00,0x00,0xb0,0x07,0x00,0x7b,0x00,0x00,0x00,0x00,0xf0,0x00,0x00,0x00,0x00,
 0x00,0x0e,0x00,0x03,0x00,0x00,0x00,0x78,0x00,0x00,0x00,0x00,0x00,0x00,0x00,
 0x00,0x00,0x00,0x00,0xb0,0x07,0x00,0x7b,0x00,0x00,0x00,0x00,0xf0,0x00,0x00,
 0x00,0x00,0x00,0x0e,0x00,0x03,0x00,0x00,0x00,0x78,0x00,0x00,0x00,0x00,0x00,
 0x00,0x00,0x00,0x00,0x00,0x00,0x30,0x0f,0x80,0x79,0x00,0x00,0x00,0x00,0xf0,
 0x00,0x00,0x00,0x00,0x00,0x0e,0x00,0x03,0x00,0x00,0x00,0x78,0x00,0x00,0x00,
 0x00,0x00,0x00,0x00,0x00,0x00,0x00,0x00,0x30,0x0f,0x80,0x79,0x00,0x1c,0x00,
 0x1e,0xf1,0x00,0x78,0x00,0x00,0x03,0x1e,0x00,0x03,0x00,0x00,0x8f,0x79,0x00,
 0x7c,0x00,0x80,0x07,0x70,0x00,0x00,0x00,0x00,0x00,0x30,0x1e,0x80,0x78,0xc0,
 0xff,0x80,0xff,0xff,0x3f,0xfe,0xf3,0xe7,0x07,0x3e,0x00,0xff,0xc3,0xff,0xff,
 0xff,0x1f,0xfe,0xf9,0xe3,0x1f,0xfc,0x01,0x00,0x00,0x00,0x00,0x30,0x1e,0x80,
 0x78,0xe0,0xe0,0xc1,0xe1,0xff,0xbf,0x87,0xe7,0xf7,0x07,0x7e,0x00,0xfe,0x01,
 0xff,0xf0,0xff,0x9f,0x83,0xfb,0xf3,0x1f,0xff,0x03,0x00,0x00,0x00,0x00,0x30,
 0x3e,0x40,0x78,0xe0,0xc0,0xe3,0x80,0xf1,0x80,0x03,0xcf,0x97,0x07,0xfc,0x01,
 0x78,0x00,0x7e,0xc0,0x79,0xc0,0x01,0xc7,0x1b,0xbe,0xc1,0x07,0x00,0x00,0x00,
 0x00,0x30,0x3e,0x40,0x78,0xf0,0xc0,0x77,0x00,0xf1,0xc0,0x01,0x9e,0x8f,0x07,
 0xfc,0x07,0x70,0x00,0x3c,0x80,0x79,0xe0,0x01,0x87,0x0f,0xfc,0x80,0x07,0x00,
 0x00,0x00,0x00,0x30,0x3e,0x60,0x78,0xf0,0xc0,0x77,0x00,0xf1,0xc0,0x01,0x9e,
 0x8f,0x07,0xfc,0x1f,0x70,0x00,0x3e,0x80,0x79,0xe0,0x00,0x8f,0x07,0x78,0x80,
 0x07,0x00,0x00,0x00,0x00,0x30,0x7c,0x60,0x78,0x60,0xc0,0xf7,0x00,0xf0,0xe0,
 0x00,0x9e,0x07,0x00,0xe0,0xff,0xe0,0x01,0x72,0x00,0x79,0xf0,0x00,0x9f,0x03,
 0x38,0x80,0x07,0x00,0x00,0x00,0x00,0x30,0xf8,0x30,0x78,0x00,0xc0,0xf7,0x01,
 0xf0,0xf0,0x00,0x9e,0x07,0x00,0x80,0xff,0xe1,0x01,0xf3,0x00,0x78,0xf8,0x00,
 0x9f,0x03,0x38,0x80,0x07,0x00,0x00,0x00,0x00,0x30,0xf8,0x30,0x78,0x00,0xc0,
 0xf7,0x03,0xf0,0xf0,0x00,0x9e,0x07,0x00,0x00,0xfe,0xc3,0x01,0xf3,0x03,0x78,
 0xf8,0x00,0x9f,0x03,0x38,0x80,0x07,0x00,0x00,0x00,0x00,0x30,0xf8,0x18,0x78,
 0x00,0xf0,0xe7,0x1f,0xf0,0xf0,0xff,0x9f,0x07,0x00,0x00,0xf0,0xc7,0x83,0xe1,
 0x0f,0x78,0xf8,0xff,0x9f,0x03,0x38,0x80,0x07,0x00,0x00,0x00,0x00,0x30,0xf0,
 0x18,0x78,0x00,0xdc,0xc7,0xff,0xf0,0xf0,0xff,0x9f,0x07,0x00,0x00,0xc0,0xc7,
 0x83,0xe1,0x7f,0x78,0xf8,0xff,0x9f,0x03,0x38,0x80,0x07,0x00,0x00,0x00,0x00,
 0x30,0xf0,0x18,0x78,0x80,0xcf,0x87,0xff,0xf1,0xf0,0x00,0x80,0x07,0x00,0x00,
 0xc0,0x87,0xc3,0xc0,0xff,0x78,0x78,0x00,0x80,0x03,0x38,0x80,0x07,0x00,0x00,
 0x00,0x00,0x30,0xf0,0x0c,0x78,0xe0,0xc3,0x07,0xfe,0xf1,0xf0,0x00,0x80,0x07,
 0x00,0x03,0x80,0x8f,0xc7,0x00,0xff,0x79,0xf8,0x00,0x80,0x03,0x38,0x80,0x07,
 0x00,0x00,0x00,0x00,0x30,0xe0,0x05,0x78,0x70,0xc0,0x07,0xc0,0xf3,0xf0,0x00,
 0x80,0x07,0x00,0x03,0x00,0x8f,0x4f,0x00,0xe0,0x7b,0xf8,0x00,0x80,0x03,0x38,
 0x80,0x07,0x00,0x00,0x00,0x00,0x30,0xe0,0x07,0x78,0x78,0xc0,0x1f,0x80,0xf7,
 0xf0,0x00,0x80,0x07,0x00,0x03,0x00,0x87,0x0f,0x18,0xc0,0x7b,0xf8,0x00,0x80,
 0x03,0x38,0x80,0x07,0x00,0x00,0x00,0x00,0x30,0xc0,0x07,0x78,0x78,0xc0,0x1f,
 0x00,0xf7,0xe0,0x01,0x80,0x07,0x00,0x03,0x00,0x07,0x2f,0x18,0x80,0x7b,0xf0,
 0x00,0x80,0x03,0x38,0x80,0x07,0x00,0x00,0x00,0x00,0x30,0xc0,0x03,0x78,0x78,
 0xc0,0x3f,0x00,0xf7,0xe0,0x01,0x80,0x07,0x00,0x07,0x00,0x07,0x3e,0x18,0x80,
 0x7b,0xf0,0x01,0x98,0x03,0x38,0x80,0x07,0x00,0x00,0x00,0x00,0x38,0xc0,0x03,
 0x78,0x78,0xc0,0x3f,0x00,0xf3,0xe0,0x01,0x90,0x07,0x00,0x07,0x00,0x07,0x3e,
 0x18,0x80,0x7b,0xf0,0x01,0x98,0x03,0x38,0x80,0x07,0x00,0x00,0x00,0x00,0x78,
 0x80,0x03,0x78,0x78,0xe0,0x7f,0x00,0xf3,0xc0,0x03,0x98,0x07,0x00,0x0f,0x80,
 0x03,0x3e,0x38,0x80,0xfb,0xe0,0x01,0x9c,0x03,0x38,0x80,0x07,0x00,0x00,0x00,
 0x00,0xfc,0x00,0x01,0xfc,0xf0,0xb0,0xff,0x80,0xf1,0x81,0x0f,0x9c,0x0f,0x00,
 0x1f,0xc0,0x01,0x1c,0x78,0xc0,0xf9,0xc0,0x03,0x86,0x07,0x38,0x80,0x07,0x00,
 0x00,0x00,0x80,0xff,0x07,0x80,0xff,0xef,0x0f,0xbf,0xff,0xe0,0x3f,0xfe,0xe3,
 0x7f,0x00,0xf3,0x7f,0x00,0x1c,0xd8,0x7f,0xf0,0x0f,0xfe,0xf9,0x1f,0xff,0xf3,
 0x3f,0x00,0x00,0x00,0x00,0x00,0x00,0x00,0x00,0xc0,0x03,0x04,0x1c,0x00,0x03,
 0x70,0x00,0x00,0x00,0x80,0x0f,0x00,0x08,0x00,0x0e,0x80,0x03,0x78,0x00,0x00,
 0x00,0x00,0x00,0x00,0x00,0x00,0x00,0x00,0x00,0x00,0x00,0x00,0x00,0x00,0x00,
 0x00,0x00,0x00,0x00,0x00,0x00,0x00,0x00,0x00,0x0c,0x00,0x00,0x00,0x00,0x00,
 0x00,0x00,0x00,0x00,0x00,0x00,0x00,0x00,0x00,0x00,0x00,0x00,0x00,0x00,0x00,
 0x00,0x00,0x00,0x00,0x00,0x00,0x00,0x00,0x00,0x00,0x00,0x04,0x00,0x00,0x00,
 0x00,0x00,0x00,0x00,0x00,0x00,0x00,0x00,0x00,0x00,0x00,0x00,0x00,0x00,0x00,
 0x00,0x00,0x00,0x00,0x00,0x00,0x00,0x00,0x00,0x00,0x00,0x00,0x00,0x06,0x00,
 0x00,0x00,0x00,0x00,0x00,0x00,0x00,0x00,0x00,0x00,0x00,0x00,0x00,0x00,0x00,
 0x00,0x00,0x00,0x00,0x00,0x00,0x00,0x00,0x00,0x00,0x00,0x00,0x00,0x00,0x00,
 0x02,0x00,0x00,0x00,0x00,0x00,0x00,0x00,0x00,0x00,0x00,0x00,0x00,0x00,0x00,
 0x00,0x00,0x00,0x00,0x00,0x00,0x00,0x00,0x00,0x00,0x00,0x00,0x00,0x00,0x00,
 0x00,0x0c,0x03,0x00,0x00,0x00,0x00,0x00,0x00,0x00,0x00,0x00,0x00,0x00,0x00,
 0x00,0x00,0x00,0x00,0x00,0x00,0x00,0x00,0x00,0x00,0x00,0x00,0x00,0x00,0x00,
 0x00,0x00,0x00,0xbf,0x01,0x00,0x00,0x00,0x00,0x00,0x00,0x00,0x00,0x00,0x00,
 0x00,0x00,0x00,0x00,0x00,0x00,0x00,0x00,0x00,0x00,0x00,0x00,0x00,0x00,0x00,
 0x00,0x00,0x00,0x00,0x00,0xff,0x00,0x00,0x00,0x00,0x00,0x00,0x00,0x00,0x00,
 0x00,0x00,0x00,0x00,0x00,0x00,0x00,0x00,0x00,0x00,0x00,0x00,0x00,0x00,0x00,
 0x00,0x00,0x00,0x00,0x00,0x00,0x00,0x7e,0x00,0x00,0x00,0x00,0x00,0x00,0x00,
 0x00,0x00,0x00,0x00,0x00,0x00,0x00,0x00,0x00,0x00,0x00,0x00,0x00,0x00,0x00,
 0x00,0x00,0x00,0x00,0x00,0x00,0x00,0x00,0x00,0x3c,0x00,0x00,0x00,0x00,0x00,
 0x00,0x00,0x00,0x00,0x00,0x00,0x00,0x00 };
