#define _width 256
#define _height 64
static char _bits[] = {
 0x00,0x00,0x00,0x00,0x00,0x00,0x00,0x00,0x00,0x00,0x00,0x00,
 0x00,0x00,0x00,0x00,0x00,0x00,0x00,0x00,0x00,0x00,0x00,0x00,
 0x00,0x00,0x00,0x00,0x00,0x00,0x00,0x00,0x00,0x00,0x00,0x00,
 0x00,0x00,0x00,0x00,0x00,0x00,0x00,0x00,0x00,0x00,0x00,0x00,
 0x00,0x00,0x00,0x00,0x00,0x00,0x00,0x00,0x00,0x00,0x00,0x00,
 0x00,0x00,0x00,0x00,0x00,0x00,0x00,0x00,0x00,0x00,0x00,0x00,
 0x00,0x00,0x00,0x00,0x00,0x00,0x00,0x00,0x00,0x00,0x00,0x00,
 0x00,0x00,0x00,0x00,0x00,0x00,0x00,0x00,0x00,0x00,0x00,0x00,
 0x00,0x00,0x00,0x00,0x00,0x00,0x00,0x00,0x00,0x00,0x00,0x00,
 0x00,0x00,0x00,0x00,0x00,0x00,0x00,0x00,0x00,0x00,0x00,0x00,
 0x00,0x00,0x00,0x00,0x00,0x00,0x00,0x00,0x00,0x00,0x00,0x00,
 0x00,0xe0,0xf3,0x01,0x3e,0x00,0x3e,0x3c,0x7c,0x00,0x3c,0x7c,
 0x3e,0x00,0x38,0x00,0x00,0x00,0x00,0x00,0x00,0x00,0x00,0x00,
 0x00,0x00,0x00,0x00,0x00,0x00,0x00,0x00,0x00,0xe0,0xf3,0x07,
 0x3e,0x00,0x3e,0x3c,0x7c,0x00,0x3c,0x7c,0xfe,0x00,0xff,0x01,
 0x00,0x00,0x00,0x00,0x00,0x00,0x00,0x00,0x00,0x00,0x00,0x00,
 0x00,0x00,0x00,0x00,0x00,0xe0,0xf3,0x0f,0x3e,0x00,0x3e,0x3c,
 0x7c,0x00,0x3c,0x7c,0xfe,0x81,0xff,0x03,0x00,0x00,0x00,0x00,
 0x00,0x00,0x00,0x00,0x00,0x00,0x00,0x00,0x00,0x00,0x00,0x00,
 0x00,0xe0,0xf3,0x1f,0x3e,0x00,0x3e,0x3c,0x7c,0x00,0x3c,0x7c,
 0xfe,0x83,0xff,0x03,0x00,0x00,0x00,0x00,0x00,0x00,0x00,0x00,
 0x00,0x00,0x00,0x00,0x00,0x00,0x00,0x00,0x00,0xe0,0xf3,0x3f,
 0x3e,0x00,0x3e,0x3c,0x7c,0x00,0x3c,0x7c,0xfe,0xc7,0xff,0x07,
 0x00,0x00,0x00,0x00,0x00,0x00,0x00,0x00,0x00,0x00,0x00,0x00,
 0x00,0x00,0x00,0x00,0x00,0xe0,0x03,0x3e,0x3e,0x00,0x3e,0x3c,
 0x7c,0x00,0x3c,0x7c,0xe0,0xc7,0xc7,0x07,0x00,0x00,0x00,0x00,
 0x00,0x00,0x00,0x00,0x00,0x00,0x00,0x00,0x00,0x00,0x00,0x00,
 0x00,0xe0,0x03,0x3e,0x3e,0x00,0x3e,0x3c,0x7c,0x00,0x3c,0x7c,
 0xc0,0xc7,0xc3,0x07,0x00,0x00,0x00,0x00,0x00,0x00,0x00,0x00,
 0x00,0x00,0x00,0x00,0x00,0x00,0x00,0x00,0x00,0xe0,0x03,0x7c,
 0x3e,0x00,0x3e,0x3c,0x7c,0x00,0x3c,0x7c,0x80,0xcf,0x03,0x00,
 0x00,0x00,0x00,0x00,0x00,0x00,0x00,0x00,0x00,0x00,0x00,0x00,
 0x00,0x00,0x00,0x00,0x00,0xe0,0x03,0x7c,0x3e,0x00,0x3e,0x3c,
 0x7c,0x00,0x3c,0x7c,0x80,0xc7,0x07,0x00,0x00,0x00,0x00,0x00,
 0x00,0x00,0x00,0x00,0x00,0x00,0x00,0x00,0x00,0x00,0x00,0x00,
 0x00,0xe0,0x03,0x3e,0x3e,0x00,0x3e,0x3c,0x7c,0x00,0x3c,0x7c,
 0xc0,0xc7,0x1f,0x00,0x00,0x00,0x00,0x00,0x00,0x00,0x00,0x00,
 0x00,0x00,0x00,0x00,0x00,0x00,0x00,0x00,0x00,0xe0,0xf3,0x3f,
 0x3e,0x3f,0x3e,0x3c,0x7c,0x00,0x3c,0x7c,0xfe,0xc7,0x0f,0x00,
 0x00,0x00,0x00,0x00,0x00,0x00,0x00,0x00,0x00,0x00,0x00,0x00,
 0x00,0x00,0x00,0x00,0x00,0xe0,0xf3,0x3f,0x3e,0x3f,0x3e,0x3c,
 0x7c,0x00,0x3c,0x7c,0xfe,0x83,0x0f,0x03,0x00,0x00,0x00,0x00,
 0x00,0x00,0x00,0x00,0x00,0x00,0x00,0x00,0x00,0x00,0x00,0x00,
 0x00,0xe0,0xf3,0x1f,0x3e,0x3f,0x3e,0x3c,0x7c,0x00,0x3c,0x7c,
 0xfe,0x03,0x87,0x07,0x00,0x00,0x00,0x00,0x00,0x00,0x00,0x00,
 0x00,0x00,0x00,0x00,0x00,0x00,0x00,0x00,0x00,0xe0,0xf3,0x0f,
 0x3e,0x3f,0x3e,0x3c,0x7c,0x00,0x3c,0x7c,0xfe,0x01,0xc0,0x0f,
 0x00,0x00,0x00,0x00,0x00,0x00,0x00,0x00,0x00,0x00,0x00,0x00,
 0x00,0x00,0x00,0x00,0x00,0xe0,0xf3,0x03,0x3e,0x3f,0x3e,0x3c,
 0x7c,0x00,0x3c,0x7c,0x7e,0x00,0xc0,0x0f,0x00,0x00,0x00,0x00,
 0x00,0x00,0x00,0x00,0x00,0x00,0x00,0x00,0x00,0x00,0x00,0x00,
 0x00,0xe0,0x03,0x00,0x3e,0x00,0x3e,0x3c,0x7c,0x00,0x3c,0x7c,
 0x00,0x00,0x80,0x0f,0x00,0x00,0x00,0x00,0x00,0x00,0x00,0x00,
 0x00,0x00,0x00,0x00,0x00,0x00,0x00,0x00,0x00,0xe0,0x03,0x00,
 0x3e,0x00,0x3e,0x3c,0x7c,0x00,0x3c,0x7c,0x00,0x00,0x00,0x0f,
 0x00,0x00,0x00,0x00,0x00,0x00,0x00,0x00,0x00,0x00,0x00,0x00,
 0x00,0x00,0x00,0x00,0x00,0xe0,0x03,0x00,0x3e,0x00,0x3e,0x3c,
 0x7c,0x00,0x3c,0x7c,0x00,0x00,0x00,0x0f,0x00,0x00,0x00,0x00,
 0x00,0x00,0x00,0x00,0x00,0x00,0x00,0x00,0x00,0x00,0x00,0x00,
 0x00,0xe0,0x03,0x00,0x3e,0x00,0x3e,0x3c,0x7c,0x00,0x3c,0x7c,
 0x00,0xe0,0x03,0x0f,0x00,0x00,0x00,0x00,0x00,0x00,0x00,0x00,
 0x00,0x00,0x00,0x00,0x00,0x00,0x00,0x00,0x00,0xe0,0x03,0x00,
 0x3e,0x00,0x3e,0x3c,0x7c,0x00,0x3c,0x7c,0x00,0xe0,0x87,0x0f,
 0x00,0x00,0x00,0x00,0x00,0x00,0x00,0x00,0x00,0x00,0x00,0x00,
 0x00,0x00,0x00,0x00,0x00,0xe0,0x03,0x00,0x3e,0x00,0x3e,0x3c,
 0x7c,0x7e,0x3c,0x7c,0x00,0xc0,0xff,0x0f,0x00,0x00,0x00,0x00,
 0x00,0x00,0x00,0x00,0x00,0x00,0x00,0x00,0x00,0x00,0x00,0x00,
 0x00,0xe0,0x03,0x00,0x3e,0x00,0x3e,0x3c,0x7c,0x7e,0x3c,0x7c,
 0x00,0xc0,0xff,0x07,0x00,0x00,0x00,0x00,0x00,0x00,0x00,0x00,
 0x00,0x00,0x00,0x00,0x00,0x00,0x00,0x00,0x00,0xe0,0x03,0x00,
 0x3e,0x00,0x3e,0x3c,0x7c,0x7e,0x3c,0x7c,0x00,0x80,0xff,0x07,
 0x00,0x00,0x00,0x00,0x00,0x00,0x00,0x00,0x00,0x00,0x00,0x00,
 0x00,0x00,0x00,0x00,0x00,0xe0,0x03,0x00,0x3e,0x00,0x3e,0x3c,
 0x7c,0x7e,0x3c,0x7c,0x00,0x00,0xff,0x01,0x00,0x00,0x00,0x00,
 0x00,0x00,0x00,0x00,0x00,0x00,0x00,0x00,0x00,0x00,0x00,0x00,
 0x00,0xe0,0x03,0x00,0x3e,0x00,0x3e,0x3c,0x7c,0x7e,0x3c,0x7c,
 0x00,0x00,0xfc,0x00,0x00,0x00,0x00,0x00,0x00,0x00,0x00,0x00,
 0x00,0x00,0x00,0x00,0x00,0x00,0x00,0x00,0x00,0x00,0x00,0x00,
 0x00,0x00,0x00,0x00,0x00,0x00,0x00,0x00,0x00,0x00,0x00,0x00,
 0x00,0x00,0x00,0x00,0x00,0x00,0x00,0x00,0x00,0x00,0x00,0x00,
 0x00,0x00,0x00,0x00,0x00,0x00,0x00,0x00,0x00,0x00,0x00,0x00,
 0x00,0x00,0x00,0x00,0x00,0x00,0x00,0x00,0x00,0x00,0x00,0x00,
 0x00,0x00,0x00,0x00,0x00,0x00,0x00,0x00,0x00,0x00,0x00,0x00,
 0x00,0x00,0x00,0x00,0x00,0x00,0x00,0x00,0x00,0x00,0x00,0x00,
 0x80,0x03,0x00,0x00,0x00,0x00,0x00,0x00,0x00,0x00,0x00,0x00,
 0x00,0x00,0x00,0x00,0x00,0x00,0x00,0x00,0x00,0x00,0x00,0x00,
 0x00,0x00,0x00,0x00,0x00,0x00,0x00,0x00,0xf8,0x3f,0x00,0x00,
 0x00,0x80,0x01,0x00,0x3c,0x1e,0x00,0x00,0x00,0x00,0x00,0x00,
 0x00,0x00,0x00,0x00,0x00,0xc0,0x0f,0x00,0xfc,0x3c,0x3e,0x7f,
 0x00,0x3e,0xff,0x03,0xfe,0xff,0x00,0xcf,0x1f,0x80,0x01,0x00,
 0x3f,0x7e,0x00,0x00,0x00,0x00,0x00,0x00,0x00,0x00,0x00,0x00,
 0x00,0xc0,0x0f,0x00,0x7e,0x3c,0x3e,0xff,0x01,0x3e,0xff,0x03,
 0xff,0xff,0x01,0xcf,0x3f,0xc0,0x03,0x80,0x3f,0xfe,0x00,0x00,
 0x00,0x00,0x00,0x00,0x00,0x00,0x00,0x00,0x00,0x80,0x1f,0x00,
 0x7e,0x3c,0x3e,0xff,0x07,0x3e,0xff,0x83,0xff,0xff,0x03,0xcf,
 0x7f,0xc0,0x03,0xc0,0x3f,0xfe,0x01,0x00,0x00,0x00,0x00,0x00,
 0x00,0x00,0x00,0x00,0x00,0x80,0x1f,0x00,0x3f,0x3c,0x3e,0xff,
 0x0f,0x3e,0xff,0xc3,0xff,0xfe,0x07,0xcf,0xff,0xe0,0x07,0xe0,
 0x3f,0xfe,0x01,0x00,0x00,0x00,0x00,0x00,0x00,0x00,0x00,0x00,
 0x00,0x00,0x3f,0x00,0x3f,0x3c,0x3e,0xf0,0x1f,0x3e,0x00,0xe0,
 0x1f,0xe0,0x0f,0x0f,0xfc,0xe0,0x07,0xf0,0x0f,0xf8,0x00,0x00,
 0x00,0x00,0x00,0x00,0x00,0x00,0x00,0x00,0x00,0x00,0x3f,0x80,
 0x1f,0x3c,0x3e,0x80,0x1f,0x3e,0x00,0xe0,0x07,0xc0,0x0f,0x0f,
 0xf0,0xc1,0x0f,0xf0,0x03,0x60,0x00,0x00,0x00,0x00,0x00,0x00,
 0x00,0x00,0x00,0x00,0x00,0x00,0x7e,0x80,0x1f,0x3c,0x3e,0x00,
 0x3f,0x3e,0x00,0xf0,0x03,0x80,0x1f,0x0f,0xf0,0xc1,0x0f,0xf8,
 0x01,0x00,0x00,0x00,0x00,0x00,0x00,0x00,0x00,0x00,0x00,0x00,
 0x00,0x00,0x7e,0xc0,0x0f,0x3c,0x3e,0x00,0x3e,0x3e,0x00,0xf0,
 0x03,0x00,0x1f,0x0f,0xf0,0x99,0x1f,0xf8,0x00,0x00,0x00,0x00,
 0x00,0x00,0x00,0x00,0x00,0x00,0x00,0x00,0x00,0x00,0xfc,0xc0,
 0x0f,0x3c,0x3e,0x00,0x7e,0x3e,0x00,0xf0,0x01,0x00,0x1f,0x0f,
 0xf0,0x99,0x1f,0xf8,0x00,0x00,0x00,0x00,0x00,0x00,0x00,0x00,
 0x00,0x00,0x00,0x00,0x00,0x00,0xfc,0xe0,0x07,0x3c,0x3e,0x00,
 0x7c,0x3e,0x00,0xf0,0x01,0x00,0x3f,0x0f,0xfc,0x3c,0x3f,0xfc,
 0x00,0x00,0x00,0x00,0x00,0x00,0x00,0x00,0x00,0x00,0x00,0x00,
 0x00,0x00,0xf8,0xe1,0x07,0x3c,0x3e,0x00,0x7c,0x3e,0xff,0xfb,
 0x01,0x00,0x3e,0xcf,0xff,0x3c,0x3f,0x7c,0x00,0x00,0x00,0x00,
 0x00,0x00,0x00,0x00,0x00,0x00,0x00,0x00,0x00,0x00,0xf0,0xf1,
 0x03,0x3c,0x3e,0x00,0x7c,0x3e,0xff,0x03,0x00,0x00,0x00,0xcf,
 0x7f,0x7e,0x7e,0x7c,0x00,0x00,0x00,0x00,0x00,0x00,0x00,0x00,
 0x00,0x00,0x00,0x00,0x00,0x00,0xf0,0xf3,0x03,0x3c,0x3e,0x00,
 0x7c,0x3e,0xff,0x03,0x00,0x00,0x00,0xcf,0x3f,0x7e,0x7e,0x7c,
 0x00,0x00,0x00,0x00,0x00,0x00,0x00,0x00,0x00,0x00,0x00,0x00,
 0x00,0x00,0xe0,0xe7,0x01,0x3c,0x3e,0x00,0x7c,0x3e,0xff,0xf3,
 0x01,0x00,0x3e,0xcf,0x1f,0x3f,0xfc,0xfc,0x00,0x00,0x00,0x00,
 0x00,0x00,0x00,0x00,0x00,0x00,0x00,0x00,0x00,0x00,0xe0,0xe7,
 0x01,0x3c,0x3e,0x00,0x7c,0x3e,0x00,0xf0,0x01,0x00,0x3f,0x0f,
 0x00,0x3f,0xfc,0xf8,0x00,0x00,0x00,0x00,0x00,0x00,0x00,0x00,
 0x00,0x00,0x00,0x00,0x00,0x00,0xc0,0xcf,0x00,0x3c,0x3e,0x00,
 0x7e,0x3e,0x00,0xf0,0x01,0x00,0x1f,0x0f,0x80,0x9f,0xff,0xf9,
 0x00,0x00,0x00,0x00,0x00,0x00,0x00,0x00,0x00,0x00,0x00,0x00,
 0x00,0x00,0xc0,0xcf,0x00,0x3c,0x3e,0x00,0x3e,0x3e,0x00,0xf0,
 0x03,0x80,0x1f,0x0f,0x80,0x9f,0xff,0xf9,0x01,0x00,0x00,0x00,
 0x00,0x00,0x00,0x00,0x00,0x00,0x00,0x00,0x00,0x00,0x80,0x1f,
 0x00,0x3c,0x3e,0x00,0x3f,0x3e,0x00,0xe0,0x07,0xc0,0x1f,0x0f,
 0xc0,0xcf,0xff,0xf3,0x03,0x60,0x00,0x00,0x00,0x00,0x00,0x00,
 0x00,0x00,0x00,0x00,0x00,0x00,0x80,0x1f,0x00,0x3c,0x3e,0xc0,
 0x1f,0x3e,0x00,0xe0,0x0f,0xe0,0x0f,0x0f,0xc0,0xcf,0xff,0xf3,
 0x07,0xf0,0x00,0x00,0x00,0x00,0x00,0x00,0x00,0x00,0x00,0x00,
 0x00,0x00,0x00,0x3f,0x00,0x3c,0x3e,0xf8,0x1f,0x3e,0x00,0xc0,
 0x3f,0xf8,0x07,0x0f,0xe0,0xe7,0xff,0xe7,0x1f,0xfc,0x01,0x00,
 0x00,0x00,0x00,0x00,0x00,0x00,0x00,0x00,0x00,0x00,0x00,0x3f,
 0x00,0x3c,0x3e,0xff,0x0f,0x3e,0xff,0x83,0xff,0xff,0x07,0x0f,
 0xe0,0x03,0xe0,0xc7,0x3f,0xfe,0x01,0x00,0x00,0x00,0x00,0x00,
 0x00,0x00,0x00,0x00,0x00,0x00,0x00,0x1e,0x00,0x3c,0x3e,0xff,
 0x07,0x3e,0xff,0x03,0xff,0xff,0x03,0x0f,0xf0,0x03,0xc0,0x8f,
 0x3f,0xfe,0x00,0x00,0x00,0x00,0x00,0x00,0x00,0x00,0x00,0x00,
 0x00,0x00,0x00,0x1e,0x00,0x3c,0x3e,0xff,0x01,0x3e,0xff,0x03,
 0xfe,0xff,0x00,0x0f,0xf8,0x01,0xc0,0x0f,0x3f,0x7e,0x00,0x00,
 0x00,0x00,0x00,0x00,0x00,0x00,0x00,0x00,0x00,0x00,0x00,0x0c,
 0x00,0x3c,0x3e,0x7f,0x00,0x3e,0xff,0x03,0xf8,0x7f,0x00,0x0f,
 0xf8,0x01,0x80,0x1f,0x3e,0x1e,0x00,0x00,0x00,0x00,0x00,0x00,
 0x00,0x00,0x00,0x00,0x00,0x00,0x00,0x0c,0x00,0x00,0x00,0x00,
 0x00,0x00,0x00,0x00,0xe0,0x0f,0x00,0x00,0x00,0x00,0x00,0x00,
 0x30,0x06,0x00,0x00,0x00,0x00,0x00,0x00,0x00,0x00,0x00,0x00,
 0x00,0x00,0x00,0x00,0x00,0x00,0x00,0x00,0x00,0x00,0x00,0x00,
 0x00,0x00,0x00,0x00,0x00,0x00,0x00,0x00,0x00,0x00,0x00,0x00,
 0x00,0x00,0x00,0x00,0x00,0x00,0x00,0x00,0x00,0x00,0x00,0x00,
 0x00,0x00,0x00,0x00,0x00,0x00,0x00,0x00,0x00,0x00,0x00,0x00,
 0x00,0x00,0x00,0x00,0x00,0x00,0x00,0x00,0x00,0x00,0x00,0x00,
 0x00,0x00,0x00,0x00,0x00,0x00,0x00,0x00,0x00,0x00,0x00,0x00,
 0x00,0x00,0x00,0x00,0x00,0x00,0x00,0x00,0x00,0x00,0x00,0x00,
 0x00,0x00,0x00,0x00,0x00,0x00,0x00,0x00,0x00,0x00,0x00,0x00,
 0x00,0x00,0x00,0x00,0x00,0x00,0x00,0x00,0x00,0x00,0x00,0x00,
 0x00,0x00,0x00,0x00,0x00,0x00,0x00,0x00,0x00,0x00,0x00,0x00,
 0x00,0x00,0x00,0x00,0x00,0x00,0x00,0x00,0x00,0x00,0x00,0x00,
 0x00,0x00,0x00,0x00,0x00,0x00,0x00,0x00,0x00,0x00,0x00,0x00,
 0x00,0x00,0x00,0x00,0x00,0x00,0x00,0x00,0x00,0x00,0x00,0x00,
 0x00,0x00,0x00,0x00,0x00,0x00,0x00,0x00,0x00,0x00,0x00,0x00,
 0x00,0x00,0x00,0x00,0x00,0x00,0x00,0x00,0x00,0x00,0x00,0x00,
 0x00,0x00,0x00,0x00,0x00,0x00,0x00,0x00 };
