#define 1943mii_width 256
#define 1943mii_height 64
static unsigned char 1943mii_bits[] = {
   0x00, 0x00, 0x00, 0x00, 0x00, 0x00, 0x00, 0x00, 0x00, 0x00, 0x00, 0x00,
   0x00, 0x00, 0x00, 0x00, 0x00, 0x00, 0x00, 0x00, 0x00, 0x00, 0x00, 0x00,
   0x00, 0x00, 0x00, 0x00, 0x00, 0x00, 0x00, 0x00, 0xc0, 0x3f, 0x00, 0xf0,
   0xff, 0x0f, 0x00, 0x00, 0xff, 0x3f, 0x00, 0xc0, 0xff, 0x3f, 0x00, 0x00,
   0x00, 0x00, 0x00, 0x00, 0x00, 0x00, 0x00, 0x00, 0x00, 0x00, 0x00, 0x00,
   0x00, 0x00, 0x00, 0x00, 0x60, 0x35, 0x00, 0x58, 0x55, 0x0d, 0x00, 0x80,
   0x55, 0x35, 0x00, 0x60, 0x49, 0x72, 0x00, 0x00, 0x00, 0x00, 0x00, 0x00,
   0x00, 0x00, 0x00, 0x00, 0x00, 0x00, 0x00, 0x00, 0x00, 0x00, 0x00, 0x00,
   0x10, 0x20, 0x00, 0x08, 0x00, 0x30, 0x00, 0x40, 0x00, 0x60, 0x00, 0x30,
   0x00, 0xc0, 0x00, 0x00, 0x00, 0x00, 0x00, 0x00, 0x00, 0x00, 0x00, 0x00,
   0x00, 0x00, 0x00, 0x00, 0x00, 0x00, 0x00, 0x00, 0x08, 0x20, 0x00, 0x06,
   0x00, 0x60, 0x00, 0x60, 0x00, 0x20, 0x00, 0x18, 0x00, 0x80, 0x01, 0x00,
   0x00, 0x00, 0x00, 0x00, 0x00, 0x00, 0x00, 0x00, 0x00, 0x00, 0x00, 0x00,
   0x00, 0x00, 0x00, 0x00, 0x04, 0x20, 0x00, 0x02, 0x00, 0xc0, 0x00, 0x20,
   0x00, 0x20, 0x00, 0x0c, 0x00, 0x00, 0x03, 0x00, 0x00, 0x00, 0x00, 0x00,
   0x00, 0x00, 0x00, 0x00, 0x00, 0x00, 0x00, 0x00, 0x00, 0x00, 0x00, 0x00,
   0x02, 0x20, 0x00, 0x01, 0x00, 0x80, 0x00, 0x30, 0x00, 0x60, 0x00, 0x04,
   0x00, 0x00, 0x02, 0x00, 0x00, 0x00, 0x00, 0x00, 0x00, 0x00, 0x00, 0x00,
   0x00, 0x00, 0x00, 0x00, 0x00, 0x00, 0x00, 0x00, 0x02, 0x20, 0x00, 0x01,
   0x00, 0x80, 0x00, 0x10, 0x70, 0x20, 0x00, 0x04, 0x00, 0x00, 0x02, 0x00,
   0x00, 0x00, 0x00, 0x00, 0x00, 0x00, 0x00, 0x00, 0x00, 0x00, 0x00, 0x00,
   0x00, 0x00, 0x00, 0x00, 0xc4, 0x20, 0x00, 0x01, 0xff, 0x80, 0x00, 0x18,
   0x30, 0x60, 0x00, 0x04, 0xfc, 0x03, 0x02, 0x00, 0x00, 0x00, 0x00, 0x00,
   0x00, 0x00, 0x00, 0x00, 0x00, 0x00, 0x00, 0x00, 0x00, 0x00, 0x00, 0x00,
   0xec, 0x20, 0x00, 0x01, 0xd3, 0x80, 0x00, 0x08, 0x68, 0x20, 0x00, 0x04,
   0x7c, 0x03, 0x02, 0x00, 0x00, 0x00, 0x00, 0x00, 0x00, 0x00, 0x00, 0x00,
   0x00, 0x00, 0x00, 0x00, 0x00, 0x00, 0x00, 0x00, 0x90, 0x20, 0x00, 0x01,
   0x81, 0x80, 0x00, 0x0c, 0x6c, 0x60, 0x00, 0x04, 0x04, 0x02, 0x02, 0x00,
   0x00, 0x00, 0x00, 0x00, 0x00, 0x00, 0x00, 0x00, 0x00, 0x00, 0x00, 0x00,
   0x00, 0x00, 0x00, 0x00, 0x80, 0x20, 0x00, 0x01, 0x83, 0x80, 0x00, 0x04,
   0x64, 0x20, 0x00, 0xfc, 0x07, 0x02, 0x02, 0x00, 0x00, 0x00, 0x00, 0x00,
   0x00, 0x00, 0x00, 0x00, 0x00, 0x00, 0x00, 0x00, 0x00, 0x00, 0x00, 0x00,
   0x80, 0x20, 0x00, 0x01, 0xc1, 0x80, 0x00, 0x06, 0x24, 0x60, 0x00, 0x50,
   0x05, 0x02, 0x02, 0x00, 0x00, 0x00, 0x00, 0x00, 0x00, 0x00, 0x00, 0x00,
   0x00, 0x00, 0x00, 0x00, 0x00, 0x00, 0x00, 0x00, 0x80, 0x20, 0x00, 0x01,
   0x83, 0x80, 0x00, 0x02, 0x62, 0x20, 0x00, 0x00, 0x00, 0x02, 0x02, 0x00,
   0x00, 0x00, 0x00, 0x00, 0x00, 0x00, 0x00, 0x00, 0x00, 0x00, 0x00, 0x00,
   0x00, 0x00, 0x00, 0x00, 0x80, 0x20, 0x00, 0x01, 0xc1, 0x80, 0x00, 0x02,
   0x62, 0x60, 0x00, 0x00, 0x00, 0x02, 0x02, 0x00, 0x00, 0x00, 0x00, 0x00,
   0x00, 0x00, 0x00, 0x00, 0x00, 0x00, 0x00, 0x00, 0x00, 0x00, 0x00, 0x00,
   0x80, 0x20, 0x00, 0x01, 0x83, 0x80, 0x00, 0x01, 0x63, 0x20, 0x00, 0x00,
   0x00, 0x02, 0x02, 0x00, 0x00, 0x00, 0x00, 0x00, 0x00, 0x00, 0x00, 0x00,
   0x00, 0x00, 0x00, 0x00, 0x00, 0x00, 0x00, 0x00, 0x80, 0x20, 0x00, 0x01,
   0xff, 0x80, 0x00, 0x01, 0x21, 0x60, 0x00, 0x00, 0xfc, 0x03, 0x02, 0x00,
   0x00, 0x00, 0x00, 0x00, 0x00, 0x00, 0x00, 0x00, 0x00, 0x00, 0x00, 0x00,
   0x00, 0x00, 0x00, 0x00, 0x80, 0x20, 0x00, 0x01, 0x55, 0x80, 0x00, 0x81,
   0x61, 0x20, 0x00, 0x00, 0xac, 0x02, 0x02, 0x00, 0x00, 0x00, 0x00, 0x00,
   0x00, 0x00, 0x00, 0x00, 0x00, 0x00, 0x00, 0x00, 0x00, 0x00, 0x00, 0x00,
   0x80, 0x20, 0x00, 0x03, 0x00, 0x80, 0x00, 0x81, 0x60, 0x60, 0x00, 0x00,
   0x04, 0x00, 0x01, 0x00, 0x00, 0x00, 0x00, 0x00, 0x00, 0x00, 0x00, 0x00,
   0x00, 0x00, 0x00, 0x00, 0x00, 0x00, 0x00, 0x00, 0x80, 0x20, 0x00, 0x06,
   0x00, 0x80, 0x00, 0xc1, 0x7f, 0xe0, 0x01, 0x00, 0x04, 0x80, 0x01, 0x00,
   0x00, 0x00, 0x00, 0x00, 0x00, 0x00, 0x00, 0x00, 0x00, 0x00, 0x00, 0x00,
   0x00, 0x00, 0x00, 0x00, 0x80, 0x20, 0x00, 0x0c, 0x00, 0x80, 0x00, 0x01,
   0x00, 0x40, 0x01, 0x00, 0x04, 0x80, 0x01, 0x00, 0x00, 0x00, 0x00, 0x00,
   0x00, 0x00, 0x00, 0x00, 0x00, 0x00, 0x00, 0x00, 0x00, 0x00, 0x00, 0x00,
   0x80, 0x20, 0x00, 0x18, 0x00, 0x80, 0x00, 0x01, 0x00, 0x00, 0x01, 0x00,
   0x04, 0x00, 0x02, 0x00, 0x00, 0x00, 0x00, 0x00, 0x00, 0x00, 0x00, 0x00,
   0x00, 0x00, 0x00, 0x00, 0x00, 0x00, 0x00, 0x00, 0x80, 0x20, 0x00, 0xf0,
   0xff, 0x80, 0x00, 0x01, 0x00, 0x00, 0x01, 0x00, 0xfc, 0x03, 0x02, 0x00,
   0x00, 0x00, 0x00, 0x00, 0x00, 0x00, 0x00, 0x00, 0x00, 0x00, 0x00, 0x00,
   0x00, 0x00, 0x00, 0x00, 0x80, 0x20, 0x00, 0x00, 0x80, 0x80, 0x00, 0x01,
   0x00, 0x00, 0x01, 0x00, 0x00, 0x02, 0x02, 0x00, 0x00, 0x00, 0x00, 0x00,
   0x00, 0x00, 0x00, 0x00, 0x00, 0x00, 0x00, 0x00, 0x00, 0x00, 0x00, 0x00,
   0x80, 0x20, 0x00, 0x00, 0x80, 0x80, 0x00, 0x25, 0x09, 0x40, 0x01, 0x00,
   0x00, 0x02, 0x02, 0x00, 0x00, 0x00, 0x00, 0x00, 0x00, 0x00, 0x00, 0x00,
   0x00, 0x00, 0x00, 0x00, 0x00, 0x00, 0x00, 0x00, 0x80, 0x20, 0x00, 0x00,
   0x80, 0x80, 0x00, 0xff, 0x7f, 0xe0, 0x00, 0x00, 0x00, 0x02, 0x02, 0x00,
   0x00, 0x00, 0x00, 0x00, 0x00, 0x00, 0x00, 0x00, 0x00, 0x00, 0x00, 0x00,
   0x00, 0x00, 0x00, 0x00, 0x80, 0x20, 0x00, 0xff, 0x81, 0x80, 0x00, 0x00,
   0x60, 0x20, 0x00, 0xfc, 0x07, 0x02, 0x02, 0x00, 0x00, 0x00, 0x00, 0x00,
   0x00, 0x00, 0x00, 0x00, 0x00, 0x00, 0x00, 0x00, 0x00, 0x00, 0x00, 0x00,
   0x80, 0x20, 0x00, 0x55, 0x81, 0x80, 0x00, 0x00, 0x60, 0x20, 0x00, 0xac,
   0x06, 0x02, 0x02, 0x00, 0x00, 0x00, 0x00, 0x00, 0x00, 0x00, 0x00, 0x00,
   0x00, 0x00, 0x00, 0x00, 0x00, 0x00, 0x00, 0x00, 0x80, 0x20, 0x00, 0x01,
   0x81, 0x80, 0x00, 0x00, 0x20, 0x60, 0x00, 0x04, 0x04, 0x02, 0x02, 0x00,
   0x00, 0x00, 0x00, 0x00, 0x00, 0x00, 0x00, 0x00, 0x00, 0x00, 0x00, 0x00,
   0x00, 0x00, 0x00, 0x00, 0x80, 0x20, 0x00, 0x01, 0xff, 0x80, 0x00, 0x00,
   0x3c, 0xe0, 0x01, 0x04, 0x94, 0x02, 0x02, 0x00, 0x00, 0x00, 0x00, 0x00,
   0x00, 0x00, 0x00, 0x00, 0x00, 0x00, 0x00, 0x00, 0x00, 0x00, 0x00, 0x00,
   0xf0, 0xe0, 0x01, 0x01, 0x00, 0x80, 0x00, 0x00, 0x0c, 0x00, 0x01, 0x04,
   0xfc, 0x03, 0x02, 0x00, 0x00, 0x00, 0x00, 0x00, 0x00, 0x00, 0x00, 0x00,
   0x00, 0x00, 0x00, 0x00, 0x00, 0x00, 0x00, 0x00, 0x10, 0x00, 0x01, 0x01,
   0x00, 0x80, 0x00, 0x00, 0x0c, 0x00, 0x01, 0x04, 0x00, 0x00, 0x02, 0x00,
   0x00, 0x00, 0x00, 0x00, 0x00, 0x00, 0x00, 0x00, 0x00, 0x00, 0x00, 0x00,
   0x00, 0x00, 0x00, 0x00, 0x10, 0x00, 0x01, 0x01, 0x00, 0x80, 0x00, 0x00,
   0x04, 0x00, 0x01, 0x0c, 0x00, 0x00, 0x02, 0x00, 0x00, 0x00, 0x00, 0x00,
   0x00, 0x00, 0x00, 0x00, 0x00, 0x00, 0x00, 0x00, 0x00, 0x00, 0x00, 0x00,
   0x10, 0x00, 0x01, 0x01, 0x00, 0x60, 0x00, 0x00, 0x0c, 0x00, 0x01, 0x18,
   0x00, 0x00, 0x01, 0x00, 0x00, 0x00, 0x00, 0x00, 0x00, 0x00, 0x00, 0x00,
   0x00, 0x00, 0x00, 0x00, 0x00, 0x00, 0x00, 0x00, 0x10, 0x00, 0x01, 0x01,
   0x00, 0x20, 0x00, 0x00, 0x0c, 0x00, 0x01, 0x30, 0x00, 0x80, 0x00, 0x00,
   0x00, 0x00, 0x00, 0x00, 0x00, 0x00, 0x00, 0x00, 0x00, 0x00, 0x00, 0x00,
   0x00, 0x00, 0x00, 0x00, 0x10, 0x00, 0x01, 0x01, 0x00, 0x18, 0x00, 0x00,
   0x0c, 0x00, 0x01, 0x60, 0x00, 0x40, 0x00, 0x00, 0x00, 0x00, 0x00, 0x00,
   0x00, 0x00, 0x00, 0x00, 0x00, 0x00, 0x00, 0x00, 0x00, 0x00, 0x00, 0x00,
   0xf0, 0xff, 0x01, 0xff, 0xff, 0x0f, 0x00, 0x00, 0xfc, 0xff, 0x01, 0xc0,
   0xff, 0x3f, 0x00, 0x00, 0x00, 0x00, 0x00, 0x00, 0x00, 0x00, 0x00, 0x00,
   0x00, 0x00, 0x00, 0x00, 0x00, 0x00, 0x00, 0x00, 0x00, 0x00, 0x00, 0x00,
   0x00, 0x00, 0x00, 0x00, 0x00, 0x00, 0x00, 0x00, 0x00, 0x00, 0x00, 0x00,
   0x00, 0x00, 0x00, 0x00, 0x00, 0x00, 0x00, 0x00, 0x00, 0x00, 0x00, 0x00,
   0x00, 0x00, 0x00, 0x00, 0x00, 0x00, 0x00, 0x00, 0x00, 0x00, 0x00, 0x00,
   0x00, 0x00, 0x00, 0xfe, 0x1f, 0xf0, 0x7f, 0x00, 0xf0, 0xff, 0x00, 0xe0,
   0xff, 0x1f, 0x00, 0xfe, 0xe0, 0x1f, 0x00, 0xe0, 0xff, 0xff, 0xff, 0x0f,
   0x00, 0x00, 0x00, 0x00, 0x00, 0x00, 0x00, 0x00, 0x00, 0x00, 0x00, 0xfe,
   0x3f, 0xf0, 0xff, 0x00, 0xf0, 0xff, 0x01, 0xe0, 0xff, 0x3f, 0x00, 0xfe,
   0xe1, 0x1f, 0x00, 0xe0, 0xff, 0xff, 0xff, 0x0f, 0x00, 0x00, 0x00, 0x00,
   0x00, 0x00, 0x00, 0x00, 0x00, 0x00, 0x00, 0xfe, 0x3f, 0xf8, 0xff, 0x00,
   0xf8, 0xff, 0x01, 0xe0, 0xff, 0x7f, 0x00, 0xfe, 0xf0, 0x0f, 0x00, 0xe0,
   0xff, 0xff, 0xff, 0x0f, 0x00, 0x00, 0x00, 0x00, 0x00, 0x00, 0x00, 0x00,
   0x00, 0x00, 0x00, 0xfe, 0x3f, 0xf8, 0xff, 0x00, 0xf8, 0xff, 0x01, 0xe0,
   0xff, 0xff, 0x00, 0xfe, 0xf1, 0x0f, 0x00, 0xe0, 0xff, 0xff, 0xff, 0x0f,
   0x00, 0x00, 0x00, 0x00, 0x00, 0x00, 0x00, 0x00, 0x00, 0x00, 0x00, 0xfe,
   0x3f, 0xf8, 0xff, 0x00, 0xf8, 0xff, 0x01, 0xe0, 0xff, 0xff, 0x00, 0xfe,
   0xf9, 0x07, 0x00, 0xe0, 0xff, 0xff, 0xff, 0x0f, 0x00, 0x00, 0x00, 0x00,
   0x00, 0x00, 0x00, 0x00, 0x00, 0x00, 0x00, 0xfe, 0x3f, 0xfc, 0xff, 0x00,
   0xf8, 0xff, 0x01, 0xe0, 0x0f, 0xff, 0x00, 0xfe, 0xf9, 0x07, 0x00, 0x00,
   0xf8, 0xc7, 0x3f, 0x00, 0x00, 0x00, 0x00, 0x00, 0x00, 0x00, 0x00, 0x00,
   0x00, 0x00, 0x00, 0xfe, 0x7e, 0xfc, 0xfe, 0x00, 0xfc, 0xff, 0x03, 0xe0,
   0x0f, 0xff, 0x00, 0xfe, 0xfc, 0x03, 0x00, 0x00, 0xf8, 0xc7, 0x3f, 0x00,
   0x00, 0x00, 0x00, 0x00, 0x00, 0x00, 0x00, 0x00, 0x00, 0x00, 0x00, 0xfe,
   0x7e, 0x7c, 0xfe, 0x00, 0xfc, 0xff, 0x03, 0xe0, 0x0f, 0xff, 0x00, 0xfe,
   0xfd, 0x03, 0x00, 0x00, 0xf8, 0xc7, 0x3f, 0x00, 0x00, 0x00, 0x00, 0x00,
   0x00, 0x00, 0x00, 0x00, 0x00, 0x00, 0x00, 0xfe, 0x7e, 0xfc, 0xfe, 0x00,
   0xfc, 0xff, 0x03, 0xe0, 0x0f, 0xff, 0x00, 0xfe, 0xfd, 0x01, 0x00, 0x00,
   0xf8, 0xc7, 0x3f, 0x00, 0x00, 0x00, 0x00, 0x00, 0x00, 0x00, 0x00, 0x00,
   0x00, 0x00, 0x00, 0xfe, 0x7e, 0xfe, 0xfe, 0x00, 0xfc, 0xff, 0x03, 0xe0,
   0x0f, 0xff, 0x00, 0xfe, 0xff, 0x01, 0x00, 0x00, 0xf8, 0xc7, 0x3f, 0x00,
   0x00, 0x00, 0x00, 0x00, 0x00, 0x00, 0x00, 0x00, 0x00, 0x00, 0x00, 0xfe,
   0xfc, 0x7e, 0xfe, 0x00, 0xfc, 0xff, 0x07, 0xe0, 0xff, 0x7f, 0x00, 0xfe,
   0xff, 0x00, 0x00, 0x00, 0xf8, 0xc7, 0x3f, 0x00, 0x00, 0x00, 0x00, 0x00,
   0x00, 0x00, 0x00, 0x00, 0x00, 0x00, 0x00, 0xfe, 0xfc, 0x7f, 0xfe, 0x00,
   0xfe, 0xf9, 0x07, 0xe0, 0xff, 0x1f, 0x00, 0xfe, 0xff, 0x00, 0x00, 0x00,
   0xf8, 0xc7, 0x3f, 0x00, 0x00, 0x00, 0x00, 0x00, 0x00, 0x00, 0x00, 0x00,
   0x00, 0x00, 0x00, 0xfe, 0xfc, 0x7f, 0xfe, 0x00, 0xfe, 0xf9, 0x07, 0xe0,
   0xff, 0x1f, 0x00, 0xfe, 0xff, 0x01, 0x00, 0x00, 0xf8, 0xc7, 0x3f, 0x00,
   0x00, 0x00, 0x00, 0x00, 0x00, 0x00, 0x00, 0x00, 0x00, 0x00, 0x00, 0xfe,
   0xfc, 0x7f, 0xfe, 0x00, 0xfe, 0xf9, 0x07, 0xe0, 0xff, 0x3f, 0x00, 0xfe,
   0xff, 0x03, 0x00, 0x00, 0xf8, 0xc7, 0x3f, 0x00, 0x00, 0x00, 0x00, 0x00,
   0x00, 0x00, 0x00, 0x00, 0x00, 0x00, 0x00, 0xfe, 0xfc, 0x7f, 0xfe, 0x00,
   0xfe, 0xf9, 0x07, 0xe0, 0xff, 0x7f, 0x00, 0xfe, 0xff, 0x03, 0x00, 0x00,
   0xf8, 0xc7, 0x3f, 0x00, 0x00, 0x00, 0x00, 0x00, 0x00, 0x00, 0x00, 0x00,
   0x00, 0x00, 0x00, 0xfe, 0xf8, 0x3f, 0xfe, 0x00, 0xfe, 0xff, 0x0f, 0xe0,
   0x0f, 0xff, 0x00, 0xfe, 0xff, 0x03, 0x00, 0x00, 0xf8, 0xc7, 0x3f, 0x00,
   0x00, 0x00, 0x00, 0x00, 0x00, 0x00, 0x00, 0x00, 0x00, 0x00, 0x00, 0xfe,
   0xf8, 0x3f, 0xfe, 0x00, 0xff, 0xff, 0x0f, 0xe0, 0x0f, 0xff, 0x00, 0xfe,
   0xfd, 0x07, 0x00, 0x00, 0xf8, 0xc7, 0x3f, 0x00, 0x00, 0x00, 0x00, 0x00,
   0x00, 0x00, 0x00, 0x00, 0x00, 0x00, 0x00, 0xfe, 0xf8, 0x3f, 0xfe, 0x00,
   0xff, 0xff, 0x0f, 0xe0, 0x0f, 0xff, 0x00, 0xfe, 0xf8, 0x07, 0x00, 0x00,
   0xf8, 0xc7, 0x3f, 0x00, 0x00, 0x00, 0x00, 0x00, 0x00, 0x00, 0x00, 0x00,
   0x00, 0x00, 0x00, 0xfe, 0xf8, 0x3f, 0xfe, 0x00, 0xff, 0xff, 0x0f, 0xe0,
   0x0f, 0xff, 0x00, 0xfe, 0xf9, 0x0f, 0x00, 0x00, 0xf8, 0xc7, 0x3f, 0x00,
   0x00, 0x00, 0x00, 0x00, 0x00, 0x00, 0x00, 0x00, 0x00, 0x00, 0x00, 0xfe,
   0xf8, 0x3f, 0xfe, 0x00, 0xff, 0xff, 0x0f, 0xe0, 0x0f, 0xff, 0x00, 0xfe,
   0xf1, 0x0f, 0x00, 0x00, 0xf8, 0xc7, 0x3f, 0x00, 0x00, 0x00, 0x00, 0x00,
   0x00, 0x00, 0x00, 0x00, 0x00, 0x00, 0x00, 0xfe, 0xf0, 0x1f, 0xfe, 0x80,
   0xff, 0xff, 0x1f, 0xe0, 0x0f, 0xff, 0x00, 0xfe, 0xf0, 0x1f, 0x00, 0xe0,
   0xff, 0xff, 0xff, 0x0f, 0x00, 0x00, 0x00, 0x00, 0x00, 0x00, 0x00, 0x00,
   0x00, 0x00, 0x00, 0xfe, 0xf0, 0x1f, 0xfe, 0x80, 0xff, 0xf0, 0x1f, 0xe0,
   0x0f, 0xff, 0x00, 0xfe, 0xe1, 0x1f, 0x00, 0xe0, 0xff, 0xff, 0xff, 0x0f,
   0x00, 0x00, 0x00, 0x00, 0x00, 0x00, 0x00, 0x00, 0x00, 0x00, 0x00, 0xfe,
   0xf0, 0x1f, 0xfe, 0x80, 0x7f, 0xe0, 0x1f, 0xe0, 0x0f, 0xff, 0x00, 0xfe,
   0xe0, 0x3f, 0x00, 0xe0, 0xff, 0xff, 0xff, 0x0f, 0x00, 0x00, 0x00, 0x00,
   0x00, 0x00, 0x00, 0x00, 0x00, 0x00, 0x00, 0xfe, 0xf0, 0x0f, 0xfe, 0x80,
   0x7f, 0xe0, 0x1f, 0xe0, 0x0f, 0xff, 0x00, 0xfe, 0xe1, 0x7f, 0x00, 0xe0,
   0xff, 0xff, 0xff, 0x0f, 0x00, 0x00, 0x00, 0x00, 0x00, 0x00, 0x00, 0x00,
   0x00, 0x00, 0x00, 0xfe, 0xe0, 0x0f, 0xfe, 0x80, 0x7f, 0xe0, 0x1f, 0xe0,
   0x0f, 0xfe, 0x00, 0xfe, 0xc0, 0x3f, 0x00, 0xe0, 0xff, 0xff, 0xff, 0x0f,
   0x00, 0x00, 0x00, 0x00, 0x00, 0x00, 0x00, 0x00, 0x00, 0x00, 0x00, 0x00,
   0x00, 0x00, 0x00, 0x00, 0x00, 0x00, 0x00, 0x00, 0x00, 0x00, 0x00, 0x00,
   0x00, 0x00, 0x00, 0x00, 0x00, 0x00, 0x00, 0x00 };
