#define _width 256
#define _height 64
static char _bits[] = {
 0x00,0x00,0x00,0x00,0x00,0x00,0x00,0x00,0x00,0x00,0x00,0x00,
 0x00,0x00,0x00,0x00,0x00,0x00,0x00,0x00,0x00,0x00,0x00,0x00,
 0x00,0x00,0x00,0x00,0x00,0x00,0x00,0x00,0x00,0x00,0x00,0x00,
 0x00,0x00,0x00,0x00,0x00,0x00,0x00,0x00,0x00,0x00,0x00,0x00,
 0x00,0x00,0x00,0x00,0x00,0x00,0x00,0x00,0x00,0x00,0x00,0x00,
 0x00,0x00,0x00,0x00,0x00,0x00,0x00,0x00,0x00,0x00,0x00,0x00,
 0x00,0x00,0x00,0x00,0x00,0x00,0x00,0x00,0x00,0x00,0x00,0x00,
 0x00,0x00,0x00,0x00,0x00,0x00,0x00,0x00,0x00,0x00,0x00,0x00,
 0x00,0x00,0x00,0x00,0x00,0x00,0x00,0x00,0x00,0x00,0x00,0x00,
 0x00,0x00,0x00,0x00,0x00,0x00,0x00,0x00,0x00,0x00,0x00,0x00,
 0x00,0x00,0x00,0x00,0x00,0x00,0x00,0x00,0x00,0x00,0x00,0xe0,
 0x1f,0x00,0x00,0x00,0x00,0x00,0x00,0x00,0x00,0x00,0x00,0x00,
 0x00,0x00,0x00,0x00,0x00,0x00,0x00,0x00,0x00,0x00,0x00,0x00,
 0x00,0x00,0x00,0x00,0x00,0x00,0x00,0xf0,0x7f,0x00,0x00,0x00,
 0x00,0x00,0x00,0x00,0x00,0x00,0x00,0x00,0x00,0x00,0x00,0x00,
 0x00,0x00,0x00,0x00,0x00,0x00,0x00,0x00,0x00,0x00,0x00,0x00,
 0x00,0x00,0x00,0xfc,0xff,0x00,0x00,0x00,0x00,0x00,0x00,0x00,
 0x00,0x00,0x00,0x00,0x00,0x00,0x00,0x00,0x00,0x00,0x00,0x00,
 0x00,0x00,0x00,0x00,0x00,0x00,0x00,0x00,0x00,0x00,0x00,0xfe,
 0xff,0x01,0x00,0x00,0x00,0x00,0x00,0x00,0x00,0x00,0x00,0x00,
 0x00,0x00,0x00,0x00,0x00,0x00,0x00,0x00,0x00,0x00,0x00,0x00,
 0x00,0x00,0x00,0x00,0x00,0x00,0x00,0xfe,0xff,0x03,0x00,0x00,
 0x00,0x00,0x00,0x00,0x00,0x00,0x00,0x00,0x00,0x00,0x00,0x00,
 0x00,0x00,0x00,0x00,0x00,0x00,0x00,0x00,0x00,0x00,0x00,0x00,
 0x00,0x00,0x00,0xff,0xff,0x07,0x00,0x00,0x00,0x00,0x00,0x00,
 0x00,0x00,0x00,0x00,0x00,0x00,0x00,0x00,0x00,0x00,0x00,0x00,
 0x00,0x00,0x00,0x00,0x00,0x00,0x00,0x00,0x00,0x00,0x80,0xff,
 0xff,0x07,0x00,0x00,0x00,0x00,0x00,0x00,0x00,0x00,0x00,0x00,
 0x00,0x00,0x00,0x00,0x00,0x00,0x00,0x00,0x00,0x00,0x00,0x00,
 0x00,0x00,0x00,0x00,0x00,0x00,0xc0,0xff,0xff,0x0f,0x00,0x00,
 0x00,0x00,0x00,0x00,0x00,0x00,0x00,0x00,0x00,0x00,0x00,0x00,
 0x00,0x00,0x00,0x00,0x00,0x00,0x00,0x00,0x00,0x00,0x00,0x00,
 0x00,0x00,0xc0,0xff,0xff,0x1f,0x00,0x00,0x00,0x00,0x00,0x00,
 0x00,0x00,0x00,0x00,0x00,0x00,0x00,0x00,0x00,0x00,0x00,0x00,
 0x00,0x00,0x00,0x00,0x00,0x00,0x00,0x00,0x00,0x00,0xe0,0xff,
 0xff,0x3f,0x00,0x00,0x00,0x00,0x00,0x00,0x00,0x00,0x00,0x00,
 0x00,0x00,0x00,0x00,0x00,0x00,0x00,0x00,0x00,0x00,0x00,0x00,
 0x00,0x00,0x00,0x00,0x00,0x00,0xe0,0xff,0xff,0x1f,0x00,0x00,
 0x00,0x00,0x00,0x00,0x00,0x00,0x00,0x00,0x00,0x00,0x00,0x00,
 0x00,0x00,0x00,0x00,0x00,0x00,0x00,0x00,0x00,0x00,0x00,0x00,
 0x00,0x00,0xf0,0xff,0xff,0x3f,0x00,0x00,0x00,0x00,0x00,0x00,
 0x00,0x00,0x00,0x00,0x00,0x00,0x00,0x00,0x00,0x00,0x00,0x00,
 0x00,0x00,0x00,0x00,0x00,0x00,0x00,0x00,0x00,0x00,0xf0,0xff,
 0xff,0x3f,0x00,0x00,0x00,0x01,0x00,0x00,0x00,0x00,0x00,0x00,
 0x00,0x00,0x00,0x00,0x00,0x00,0x00,0x00,0x00,0x00,0x00,0x00,
 0x00,0x00,0x00,0x00,0x00,0x00,0xf0,0xff,0xff,0x7f,0x00,0x00,
 0x80,0x01,0x00,0x00,0x00,0x00,0x00,0x00,0x00,0x00,0x00,0x00,
 0x3f,0xe0,0xff,0x07,0xf8,0x07,0xe0,0x0f,0xe0,0x0f,0x00,0x00,
 0x00,0x00,0xf0,0xff,0xff,0x7f,0x00,0x00,0x80,0x01,0x00,0x00,
 0x00,0x00,0x00,0x00,0x00,0x00,0x00,0x80,0x3f,0xe0,0xff,0x07,
 0xfe,0x1f,0xe0,0x0f,0xe0,0x0f,0x00,0x00,0x00,0x00,0xf8,0xff,
 0xff,0x7f,0x00,0x00,0x80,0x01,0x00,0x00,0x00,0x00,0x00,0x00,
 0x00,0x00,0x00,0x80,0x7f,0xe0,0xff,0x07,0xff,0x3f,0xe0,0x0f,
 0xe0,0x0f,0x00,0x00,0x00,0x00,0xf8,0xff,0xff,0x7f,0x00,0x00,
 0xc0,0x03,0x00,0x00,0x00,0x00,0x00,0x00,0x00,0x00,0x00,0x80,
 0x7f,0xe0,0xff,0x07,0x3f,0x3f,0xe0,0x0f,0xf0,0x0f,0x00,0x00,
 0x00,0x00,0xfc,0xff,0xff,0x7f,0x00,0x00,0xc0,0x03,0x00,0x00,
 0x00,0x00,0x00,0x00,0x00,0x00,0x00,0x80,0x7b,0x00,0x3c,0x80,
 0x0f,0x7c,0xe0,0x1e,0xf0,0x0f,0x00,0x00,0x00,0x00,0xf8,0xff,
 0xff,0xff,0x00,0x00,0xc0,0x07,0x00,0x00,0x00,0x00,0x00,0x00,
 0x00,0x00,0x00,0xc0,0x73,0x00,0x3c,0x80,0x0f,0x7c,0xe0,0x1e,
 0x70,0x0f,0x00,0x00,0x00,0x00,0xfc,0xff,0xff,0xff,0x00,0x00,
 0xe0,0x07,0x00,0x00,0x00,0x00,0x00,0x00,0x00,0x00,0x00,0xc0,
 0xf3,0x00,0x3c,0x80,0x07,0x78,0xe0,0x1d,0x70,0x0f,0x00,0x00,
 0x00,0x00,0xfc,0xff,0xff,0xff,0x01,0x00,0xa0,0x07,0x00,0x00,
 0x00,0x00,0x00,0x00,0x00,0x00,0x00,0xc0,0xf3,0x00,0x3c,0xc0,
 0x07,0xf8,0xe0,0x1d,0x70,0x0f,0x00,0x00,0x00,0x00,0xfc,0xff,
 0xff,0xff,0x00,0x00,0xa0,0x0f,0x00,0x00,0x00,0x00,0x00,0x00,
 0x00,0x00,0x00,0xc0,0xf3,0x00,0x3c,0xc0,0x07,0xf8,0xe0,0x3d,
 0x78,0x0f,0x00,0x00,0x00,0x00,0xfc,0xff,0xff,0xff,0x00,0x00,
 0x10,0x0f,0x00,0x00,0x00,0x00,0x00,0x04,0x00,0x01,0x00,0xe0,
 0xf1,0x00,0x3c,0xc0,0x03,0xf0,0xe0,0x3d,0x78,0x0f,0x00,0x00,
 0x00,0x00,0xfc,0xff,0xff,0xff,0x01,0x00,0x10,0x0f,0xc0,0x1f,
 0xe0,0x87,0x9f,0xef,0xe7,0x07,0x00,0xe0,0xe1,0x01,0x3c,0xc0,
 0x03,0xf0,0xe0,0x39,0x38,0x0f,0x00,0x00,0x00,0x00,0xfc,0xff,
 0xff,0xff,0x01,0x00,0x10,0x1f,0x60,0x20,0x30,0x1c,0x5c,0x8f,
 0x17,0x0e,0x00,0xe0,0xe1,0x01,0x3c,0xc0,0x03,0xf0,0xe0,0x39,
 0x38,0x0f,0x00,0x00,0x00,0x00,0xfc,0xff,0xff,0xff,0x01,0x00,
 0x08,0x1e,0x30,0x70,0x1c,0x38,0x3c,0x8f,0x0f,0x1e,0x00,0xe0,
 0xe1,0x01,0x3c,0xc0,0x03,0xf0,0xe0,0x39,0x38,0x0f,0x00,0x00,
 0x00,0x00,0xfc,0xff,0xff,0xff,0x01,0x00,0x08,0x1e,0x38,0x70,
 0x1c,0x78,0x3c,0x8e,0x07,0x1e,0x00,0xf0,0xe0,0x01,0x3c,0xc0,
 0x03,0xf0,0xe0,0x79,0x3c,0x0f,0x00,0x00,0x00,0x00,0xfc,0xff,
 0xff,0xff,0x00,0x00,0x0c,0x3e,0x38,0x70,0x0e,0x70,0x1c,0x80,
 0x07,0x1e,0x00,0xf0,0xc0,0x03,0x3c,0xc0,0x03,0xf0,0xe0,0x79,
 0x1c,0x0f,0x00,0x00,0x00,0x00,0x00,0x00,0x00,0x00,0x00,0x00,
 0x04,0x3c,0x3c,0x00,0x0e,0xf0,0x1c,0x80,0x07,0x1e,0x00,0xf0,
 0xff,0x03,0x3c,0xc0,0x03,0xf0,0xe0,0x71,0x1c,0x0f,0x00,0x00,
 0x00,0x00,0xf6,0xde,0x7b,0xef,0x01,0x00,0xfc,0x3f,0x3c,0x00,
 0x0f,0xf0,0x1c,0x80,0x07,0x1e,0x00,0xf0,0xff,0x03,0x3c,0xc0,
 0x07,0xf0,0xe0,0x71,0x1c,0x0f,0x00,0x00,0x00,0x00,0xfe,0xff,
 0xff,0xff,0x01,0x00,0x04,0x7c,0x3c,0x00,0x0f,0xf0,0x1c,0x80,
 0x07,0x1e,0x00,0xf8,0xff,0x03,0x3c,0xc0,0x07,0xf8,0xe0,0x71,
 0x1e,0x0f,0x00,0x00,0x00,0x00,0xfe,0xff,0xff,0xff,0x01,0x00,
 0x02,0x78,0x3c,0x00,0x0f,0xf0,0x1c,0x80,0x07,0x1e,0x00,0xf8,
 0xff,0x07,0x3c,0xc0,0x07,0xf8,0xe0,0xf1,0x1e,0x0f,0x00,0x00,
 0x00,0x00,0xfc,0xff,0xff,0xff,0x01,0x00,0x02,0x78,0x3c,0x00,
 0x0e,0xf0,0x1c,0x80,0x07,0x1e,0x00,0x78,0x80,0x07,0x3c,0x80,
 0x07,0x78,0xe0,0xe1,0x0e,0x0f,0x00,0x00,0x00,0x00,0xfc,0xff,
 0xff,0xff,0x01,0x00,0x03,0xf8,0x3c,0x00,0x0e,0x70,0x1c,0x80,
 0x07,0x1e,0x00,0x78,0x80,0x07,0x3c,0x80,0x0f,0x7c,0xe0,0xe1,
 0x0f,0x0f,0x00,0x00,0x00,0x00,0xfc,0xff,0xff,0xff,0x01,0x00,
 0x01,0xf0,0x38,0x80,0x1e,0x70,0x1c,0x80,0x07,0x1e,0x00,0x7c,
 0x80,0x07,0x3c,0x00,0x1f,0x3e,0xe0,0xe1,0x0f,0x0f,0x00,0x00,
 0x00,0x00,0xfc,0xff,0xff,0xff,0x00,0x00,0x01,0xf0,0x38,0x40,
 0x1c,0x38,0x1c,0x80,0x07,0x1e,0x00,0x3c,0x80,0x0f,0x3c,0x00,
 0xff,0x3f,0xe0,0xe1,0x0f,0x0f,0x00,0x00,0x00,0x00,0xfc,0xff,
 0xff,0xff,0x00,0x00,0x01,0xf0,0x71,0x60,0x18,0x38,0x1c,0x80,
 0x07,0x1e,0x00,0x3c,0x00,0x0f,0x3c,0x00,0xfe,0x1f,0xe0,0xe1,
 0x07,0x0f,0x00,0x00,0x00,0x00,0xf8,0xff,0xff,0x7f,0x00,0x80,
 0x00,0xe0,0x61,0x30,0x38,0x1c,0x1c,0x80,0x07,0x1e,0x00,0x3c,
 0x00,0x0f,0x3c,0x00,0xfc,0x0f,0xe0,0xc1,0x07,0x0f,0x00,0x00,
 0x00,0x00,0xf0,0xff,0xff,0x7f,0x00,0xe0,0x07,0xfc,0xc7,0x0f,
 0xe0,0x07,0xff,0xe0,0x1f,0x7f,0x00,0x3e,0x00,0x0f,0x3c,0x00,
 0xf0,0x03,0xe0,0xc1,0x07,0x0f,0x00,0x00,0x00,0x00,0xe0,0xff,
 0xff,0x3f,0x00,0x00,0x00,0x00,0x00,0x00,0x00,0x00,0x00,0x00,
 0x00,0x00,0x00,0x00,0x00,0x00,0x00,0x00,0x00,0x00,0x00,0x00,
 0x00,0x00,0x00,0x00,0x00,0x00,0xc0,0xff,0xff,0x1f,0x00,0x00,
 0x00,0x00,0x00,0x00,0x00,0x00,0x00,0x00,0x00,0x00,0x00,0x00,
 0x00,0x00,0x00,0x00,0x00,0x00,0x00,0x00,0x00,0x00,0x00,0x00,
 0x00,0x00,0x80,0xff,0xff,0x0f,0x00,0x00,0x00,0x00,0x00,0x00,
 0x00,0x00,0x00,0x00,0x00,0x00,0x00,0x00,0x00,0x00,0x00,0x00,
 0x00,0x00,0x00,0x00,0x00,0x00,0x00,0x00,0x00,0x00,0x02,0xfe,
 0xff,0x07,0x00,0x00,0x00,0x00,0x00,0x00,0x00,0x00,0x00,0x00,
 0x00,0x00,0x00,0x00,0x00,0x00,0x00,0x00,0x00,0x00,0x00,0x00,
 0x00,0x00,0x00,0x00,0x00,0x00,0x7e,0xf8,0xff,0x01,0x00,0x00,
 0x00,0x00,0x00,0x00,0x00,0x00,0x00,0x00,0x00,0x00,0x00,0x00,
 0x00,0x00,0x00,0x00,0x00,0x00,0x00,0x00,0x00,0x00,0x00,0x00,
 0x00,0x00,0xfe,0xf3,0x3f,0x00,0x00,0x00,0x00,0x00,0x00,0x00,
 0x00,0x00,0x00,0x00,0x00,0x00,0x00,0x00,0x00,0x00,0x00,0x00,
 0x00,0x00,0x00,0x00,0x00,0x00,0x00,0x00,0x00,0x00,0xc0,0x3f,
 0x07,0x00,0x00,0x00,0x00,0x00,0x00,0x00,0x00,0x00,0x00,0x00,
 0x00,0x00,0x00,0x00,0x00,0x00,0x00,0x00,0x00,0x00,0x00,0x00,
 0x00,0x00,0x00,0x00,0x00,0x00,0x00,0xfe,0x07,0x00,0x00,0x00,
 0x00,0x00,0x00,0x00,0x00,0x00,0x00,0x00,0x00,0x00,0x00,0x00,
 0x00,0x00,0x00,0x00,0x00,0x00,0x00,0x00,0x00,0x00,0x00,0x00,
 0x00,0x00,0x00,0xf0,0x1f,0x00,0x00,0x00,0x00,0x00,0x00,0x00,
 0x00,0x00,0x00,0x00,0x00,0x00,0x00,0x00,0x00,0x00,0x00,0x00,
 0x00,0x00,0x00,0x00,0x00,0x00,0x00,0x00,0x00,0x00,0x00,0x00,
 0xff,0x00,0x00,0x00,0x00,0x00,0x00,0x00,0x00,0x00,0x00,0x00,
 0x00,0x00,0x00,0x00,0x00,0x00,0x00,0x00,0x00,0x00,0x00,0x00,
 0x00,0x00,0x00,0x00,0x00,0x00,0x00,0x00,0xfe,0x03,0x00,0x00,
 0x00,0x00,0x00,0x00,0x00,0x00,0x00,0x00,0x00,0x00,0x00,0x00,
 0x00,0x00,0x00,0x00,0x00,0x00,0x00,0x00,0x00,0x00,0x00,0x00,
 0x00,0x00,0x00,0x00,0xf0,0x1f,0x00,0x00,0x00,0x00,0x00,0x00,
 0x00,0x00,0x00,0x00,0x00,0x00,0x00,0x00,0x00,0x00,0x00,0x00,
 0x00,0x00,0x00,0x00,0x00,0x00,0x00,0x00,0x00,0x00,0x00,0x00,
 0x80,0x7f,0x00,0x00,0x00,0x00,0x00,0x00,0x00,0x00,0x00,0x00,
 0x00,0x00,0x00,0x00,0x00,0x00,0x00,0x00,0x00,0x00,0x00,0x00,
 0x00,0x00,0x00,0x00,0x00,0x00,0x00,0x00,0x00,0xfe,0x03,0x00,
 0x00,0x00,0x00,0x00,0x00,0x00,0x00,0x00,0x00,0x00,0x00,0x00,
 0x00,0x00,0x00,0x00,0x00,0x00,0x00,0x00,0x00,0x00,0x00,0x00,
 0x00,0x00,0x00,0x00,0x00,0xf8,0x07,0x00,0x00,0x00,0x00,0x00,
 0x00,0x00,0x00,0x00,0x00,0x00,0x00,0x00,0x00,0x00,0x00,0x00,
 0x00,0x00,0x00,0x00,0x00,0x00,0x00,0x00,0x00,0x00,0x00,0x00,
 0x00,0xf0,0x0f,0x00,0x00,0x00,0x00,0x00,0x00,0x00,0x00,0x00,
 0x00,0x00,0x00,0x00,0x00,0x00,0x00,0x00,0x00,0x00,0x00,0x00,
 0x00,0x00,0x00,0x00,0x00,0x00,0x00,0x00,0x00,0x80,0x01,0x00,
 0x00,0x00,0x00,0x00,0x00,0x00,0x00,0x00,0x00,0x00,0x00,0x00,
 0x00,0x00,0x00,0x00,0x00,0x00,0x00,0x00,0x00,0x00,0x00,0x00,
 0x00,0x00,0x00,0x00,0x00,0x00,0x00,0x00,0x00,0x00,0x00,0x00,
 0x00,0x00,0x00,0x00,0x00,0x00,0x00,0x00,0x00,0x00,0x00,0x00,
 0x00,0x00,0x00,0x00,0x00,0x00,0x00,0x00,0x00,0x00,0x00,0x00,
 0x00,0x00,0x00,0x00,0x00,0x00,0x00,0x00,0x00,0x00,0x00,0x00,
 0x00,0x00,0x00,0x00,0x00,0x00,0x00,0x00,0x00,0x00,0x00,0x00,
 0x00,0x00,0x00,0x00,0x00,0x00,0x00,0x00,0x00,0x00,0x00,0x00,
 0x00,0x00,0x00,0x00,0x00,0x00,0x00,0x00,0x00,0x00,0x00,0x00,
 0x00,0x00,0x00,0x00,0x00,0x00,0x00,0x00,0x00,0x00,0x00,0x00,
 0x00,0x00,0x00,0x00,0x00,0x00,0x00,0x00,0x00,0x00,0x00,0x00,
 0x00,0x00,0x00,0x00,0x00,0x00,0x00,0x00,0x00,0x00,0x00,0x00,
 0x00,0x00,0x00,0x00,0x00,0x00,0x00,0x00 };
