#define alexkidd_width 256
#define alexkidd_height 64
static unsigned char alexkidd_bits[] = {
   0x00, 0x00, 0x00, 0x00, 0x00, 0x00, 0x00, 0x00, 0x00, 0x00, 0x00, 0x00,
   0x00, 0x00, 0x00, 0x00, 0x00, 0x00, 0x00, 0x00, 0x00, 0x00, 0x00, 0x00,
   0x00, 0x00, 0x00, 0x00, 0x00, 0x00, 0x00, 0x00, 0x00, 0x00, 0x00, 0x00,
   0x00, 0x00, 0x00, 0x00, 0x00, 0x00, 0x00, 0x00, 0x00, 0x00, 0x00, 0x00,
   0x00, 0x00, 0x00, 0x00, 0x00, 0x00, 0x00, 0x00, 0x00, 0x00, 0x00, 0x00,
   0x00, 0x00, 0x00, 0x00, 0x00, 0x00, 0x00, 0x00, 0x00, 0x00, 0x00, 0x00,
   0x00, 0x00, 0x00, 0x00, 0x00, 0x00, 0x00, 0x00, 0x00, 0x00, 0x00, 0x00,
   0x00, 0x00, 0x00, 0x00, 0x00, 0x00, 0x00, 0x00, 0x00, 0x00, 0x00, 0x00,
   0x00, 0x00, 0x00, 0x00, 0x00, 0x00, 0x00, 0x00, 0x00, 0x00, 0x00, 0x00,
   0x00, 0x00, 0x00, 0x00, 0x00, 0x00, 0x00, 0x00, 0x00, 0x00, 0x00, 0x00,
   0x00, 0x00, 0x00, 0x00, 0x00, 0x00, 0x00, 0x00, 0x00, 0x00, 0x00, 0x00,
   0x00, 0x00, 0x00, 0x00, 0x00, 0x00, 0x00, 0x00, 0x00, 0x00, 0x00, 0x00,
   0x00, 0x00, 0x00, 0x00, 0x00, 0x00, 0x00, 0x00, 0x00, 0x00, 0x00, 0x00,
   0x00, 0x00, 0x00, 0x00, 0x00, 0x00, 0x00, 0x00, 0x00, 0x00, 0x00, 0x00,
   0x00, 0x00, 0x00, 0x00, 0x00, 0x00, 0x00, 0x00, 0x00, 0x00, 0x00, 0x00,
   0x00, 0x00, 0x00, 0x00, 0x00, 0x00, 0x00, 0x00, 0x00, 0x00, 0x00, 0x00,
   0x00, 0x00, 0x00, 0x00, 0x00, 0x00, 0x00, 0x00, 0x00, 0x00, 0x40, 0x00,
   0x00, 0x00, 0x00, 0x00, 0x00, 0x00, 0x00, 0x00, 0x00, 0x00, 0x00, 0x00,
   0x00, 0x00, 0x00, 0x00, 0x00, 0x00, 0x00, 0x00, 0x00, 0x00, 0x00, 0x00,
   0x00, 0x00, 0x00, 0x00, 0x00, 0x00, 0x60, 0x00, 0x00, 0x00, 0x00, 0x00,
   0x00, 0x00, 0x00, 0x00, 0x00, 0x00, 0x00, 0x00, 0x00, 0x00, 0x00, 0x00,
   0x00, 0x00, 0x00, 0x00, 0x00, 0x00, 0x00, 0x00, 0x00, 0x00, 0x00, 0x00,
   0x80, 0xf8, 0x70, 0xc0, 0x00, 0x00, 0x00, 0x00, 0x00, 0x00, 0x00, 0x00,
   0x00, 0x00, 0x00, 0x00, 0x00, 0x00, 0x00, 0x00, 0x00, 0x00, 0x00, 0x00,
   0x00, 0x00, 0x00, 0x00, 0x00, 0x00, 0x00, 0x00, 0x00, 0xfe, 0x61, 0xc0,
   0x00, 0x00, 0x00, 0x00, 0x00, 0x00, 0x00, 0x00, 0x00, 0x00, 0x00, 0x00,
   0x00, 0x00, 0x00, 0x00, 0x00, 0x00, 0x00, 0x00, 0x00, 0x00, 0x00, 0x50,
   0x02, 0x00, 0x00, 0x00, 0x00, 0x1f, 0x70, 0xe8, 0x00, 0x00, 0x00, 0x00,
   0x00, 0x00, 0x00, 0x00, 0x00, 0x00, 0x00, 0x00, 0x00, 0x00, 0x00, 0x00,
   0x00, 0x00, 0x00, 0x00, 0x00, 0x00, 0x00, 0x00, 0x06, 0x00, 0x00, 0x00,
   0x90, 0x07, 0x70, 0xe0, 0x00, 0x00, 0x0c, 0x00, 0x00, 0x00, 0x00, 0x00,
   0x00, 0x00, 0x00, 0x00, 0x00, 0x00, 0x00, 0x00, 0x00, 0x00, 0x00, 0x00,
   0x00, 0x00, 0x00, 0x40, 0x86, 0x01, 0x00, 0x00, 0xc0, 0x01, 0x72, 0x60,
   0x00, 0x80, 0x0e, 0x00, 0x00, 0x00, 0x00, 0x00, 0x00, 0x00, 0x00, 0x00,
   0x00, 0x00, 0x00, 0x00, 0x00, 0x00, 0x00, 0x00, 0x00, 0x00, 0x00, 0x32,
   0x8e, 0x01, 0x00, 0x00, 0xc0, 0x01, 0x70, 0x70, 0x00, 0x00, 0x0e, 0x00,
   0x02, 0x00, 0x00, 0x00, 0x00, 0x00, 0x00, 0x00, 0x00, 0x00, 0x00, 0x00,
   0x00, 0x00, 0x00, 0x00, 0x00, 0x00, 0x00, 0x38, 0x8e, 0x01, 0x00, 0x00,
   0xc0, 0x00, 0x30, 0x32, 0x00, 0x00, 0x06, 0x00, 0x06, 0x00, 0x00, 0x00,
   0x00, 0x00, 0x00, 0x00, 0x00, 0x00, 0x00, 0x00, 0x00, 0x00, 0x00, 0x00,
   0x00, 0x00, 0x00, 0x1c, 0x86, 0x01, 0x00, 0x00, 0xc4, 0x00, 0x30, 0x38,
   0x00, 0x00, 0x06, 0x00, 0x07, 0x00, 0x00, 0x00, 0x00, 0x00, 0x00, 0x00,
   0x00, 0x00, 0x00, 0x00, 0x00, 0x00, 0x00, 0x00, 0x00, 0x00, 0x00, 0x1c,
   0xc7, 0x01, 0x00, 0x00, 0xc0, 0x00, 0x3a, 0x38, 0x00, 0x40, 0x07, 0x20,
   0x07, 0x00, 0x00, 0x00, 0x00, 0x00, 0x00, 0x00, 0x00, 0x00, 0x00, 0x00,
   0x00, 0x00, 0x00, 0x00, 0x00, 0x00, 0x00, 0x0e, 0xc7, 0x01, 0x00, 0x00,
   0xc8, 0x00, 0x38, 0x1c, 0x0c, 0x00, 0x07, 0x00, 0x03, 0x00, 0x00, 0x00,
   0x00, 0x00, 0x00, 0x00, 0x00, 0x00, 0x00, 0x00, 0x00, 0x00, 0x00, 0x00,
   0x00, 0x00, 0x40, 0x86, 0xc3, 0x01, 0x00, 0x00, 0xc0, 0x00, 0x18, 0x1c,
   0x0c, 0x00, 0x03, 0x00, 0x03, 0x00, 0x00, 0x00, 0x00, 0x00, 0x00, 0x00,
   0x00, 0x00, 0x00, 0x00, 0x00, 0x00, 0x00, 0x00, 0x00, 0x00, 0x00, 0x87,
   0xc3, 0x00, 0x00, 0x00, 0xc0, 0x71, 0x18, 0x0e, 0x0c, 0x00, 0x03, 0x00,
   0x03, 0x00, 0x00, 0x00, 0x00, 0x00, 0x00, 0x00, 0x00, 0x00, 0x00, 0x00,
   0x00, 0x00, 0x00, 0x00, 0x00, 0x00, 0x00, 0x83, 0xe1, 0x00, 0x00, 0x40,
   0x86, 0x70, 0x1c, 0x8e, 0x0f, 0x00, 0x03, 0xa0, 0x03, 0x00, 0x00, 0x00,
   0x00, 0x00, 0x00, 0x00, 0x00, 0x00, 0x00, 0x00, 0x00, 0x00, 0x00, 0x00,
   0x00, 0x00, 0x80, 0xc3, 0xe1, 0x00, 0x48, 0x34, 0x0e, 0x38, 0x18, 0x87,
   0x07, 0x00, 0x03, 0x80, 0x03, 0x00, 0x00, 0x00, 0x00, 0x00, 0x00, 0x00,
   0x00, 0x00, 0x00, 0x00, 0x00, 0x00, 0x00, 0x00, 0x00, 0x00, 0x90, 0xc3,
   0x60, 0x20, 0x31, 0x78, 0x0c, 0x38, 0x80, 0x03, 0x00, 0x80, 0x03, 0x80,
   0x03, 0x00, 0x00, 0x00, 0x00, 0x00, 0x00, 0x00, 0x00, 0x00, 0x00, 0x00,
   0x00, 0x00, 0x00, 0x00, 0x80, 0x14, 0x82, 0xe1, 0x60, 0x00, 0x71, 0x38,
   0x6e, 0x1e, 0x82, 0x03, 0x00, 0x80, 0x03, 0x80, 0x01, 0x00, 0x00, 0x00,
   0x00, 0x00, 0x00, 0x00, 0x00, 0x00, 0x00, 0x00, 0x00, 0x00, 0x00, 0x00,
   0x00, 0x3e, 0xc0, 0xe1, 0x70, 0x00, 0x38, 0x1c, 0xee, 0x0f, 0xc8, 0x01,
   0x03, 0x80, 0x01, 0x80, 0x01, 0x00, 0x00, 0x00, 0x00, 0x00, 0x00, 0x00,
   0x00, 0x00, 0x00, 0x00, 0x00, 0x00, 0x00, 0x00, 0x20, 0xff, 0xc0, 0x61,
   0x70, 0x38, 0x21, 0x1c, 0xc7, 0x87, 0x80, 0x81, 0x03, 0x84, 0x01, 0x80,
   0x01, 0x00, 0x00, 0x00, 0x00, 0x00, 0x00, 0x00, 0x00, 0x00, 0x00, 0x00,
   0x00, 0x00, 0x00, 0x00, 0x80, 0x47, 0xea, 0x70, 0x30, 0x3c, 0x76, 0x0c,
   0x07, 0x00, 0x86, 0x81, 0x03, 0x80, 0x01, 0xc0, 0x41, 0x1f, 0xc1, 0xfc,
   0x81, 0x01, 0x7e, 0xf8, 0xf5, 0x03, 0x7e, 0xfd, 0xf9, 0xb1, 0x87, 0x3f,
   0x80, 0x03, 0xe0, 0x20, 0x30, 0x1c, 0x7e, 0xcc, 0x03, 0x00, 0x8e, 0x83,
   0x83, 0x81, 0x01, 0xc0, 0xe1, 0xff, 0xe3, 0xbf, 0xc7, 0x01, 0xd7, 0xbc,
   0x7f, 0x07, 0xef, 0xbf, 0x7d, 0xf7, 0xdd, 0x77, 0xc8, 0x01, 0x40, 0x80,
   0x38, 0x0e, 0x3e, 0xee, 0x01, 0x40, 0x8f, 0x81, 0xc1, 0xc7, 0x01, 0xc4,
   0x60, 0xe0, 0x42, 0x03, 0xc6, 0x81, 0x81, 0x07, 0x0e, 0x86, 0x01, 0x83,
   0x0b, 0x1a, 0x78, 0x40, 0xc0, 0x00, 0x04, 0xc8, 0x39, 0x07, 0x06, 0xee,
   0x00, 0x00, 0x03, 0x83, 0xe1, 0xc7, 0x81, 0xc0, 0xe0, 0x79, 0x63, 0xbb,
   0xc6, 0x81, 0x3d, 0xbb, 0x9c, 0x87, 0x6d, 0xcf, 0xb7, 0xdb, 0x66, 0x6b,
   0xc8, 0x00, 0x00, 0xc1, 0x18, 0x07, 0x06, 0x0e, 0x60, 0x00, 0x83, 0x83,
   0xe1, 0xc8, 0xc1, 0xc3, 0x00, 0x8b, 0x7e, 0xfd, 0xc1, 0x81, 0x66, 0xfb,
   0xb3, 0x01, 0xff, 0x6c, 0xfc, 0xe9, 0xa7, 0x3f, 0xe0, 0x00, 0x30, 0xe2,
   0x18, 0x03, 0x06, 0x0e, 0x70, 0x80, 0x83, 0x83, 0x61, 0xc0, 0xe1, 0xc7,
   0x00, 0x85, 0x09, 0x83, 0xc1, 0x81, 0x43, 0x06, 0x43, 0x80, 0x81, 0x29,
   0x0c, 0x1c, 0x70, 0x60, 0xe0, 0x00, 0xfa, 0xf8, 0x1c, 0x43, 0x07, 0x0e,
   0x30, 0x80, 0x81, 0xc3, 0x71, 0xc0, 0x70, 0xe0, 0x00, 0x8d, 0x81, 0x07,
   0xc1, 0x81, 0xc3, 0x06, 0xa6, 0x00, 0x83, 0x09, 0x02, 0x1c, 0xd8, 0x60,
   0x60, 0x00, 0xf8, 0x78, 0x9c, 0x03, 0x07, 0x0e, 0x3b, 0xc0, 0x81, 0xc1,
   0x71, 0xc0, 0x70, 0xe0, 0x00, 0x89, 0x3f, 0xfb, 0xc1, 0x81, 0xc3, 0xfc,
   0xa5, 0x00, 0x7e, 0x51, 0xfe, 0xe9, 0x8b, 0x5f, 0x64, 0x00, 0x1c, 0x18,
   0x8c, 0x83, 0x03, 0x0e, 0x3f, 0xc0, 0xc1, 0xc1, 0x30, 0xc0, 0x30, 0x60,
   0x00, 0x85, 0x66, 0xfd, 0x43, 0x7f, 0x7e, 0xf8, 0x43, 0x00, 0x7e, 0x29,
   0x14, 0x5b, 0x96, 0x3f, 0x60, 0x00, 0x0c, 0x18, 0x8c, 0xc3, 0x09, 0x0e,
   0x3b, 0xe1, 0xe0, 0xc0, 0x30, 0xc0, 0x38, 0x60, 0x00, 0x89, 0x43, 0x03,
   0xc6, 0xe2, 0x08, 0x07, 0xa6, 0x80, 0x01, 0x49, 0x0e, 0x3a, 0x64, 0x40,
   0x60, 0x00, 0x0e, 0x1c, 0x0c, 0xe3, 0x1c, 0x08, 0x33, 0xe0, 0xe0, 0xe0,
   0x30, 0xe0, 0x38, 0x60, 0x00, 0x8f, 0xe3, 0x0f, 0xc6, 0xc0, 0xc3, 0x0f,
   0xe6, 0x80, 0x83, 0x29, 0x1e, 0x7f, 0xfc, 0x60, 0x60, 0x00, 0x0e, 0x1c,
   0x0c, 0xf0, 0x9c, 0x80, 0x13, 0x70, 0x60, 0xe2, 0x30, 0xc0, 0x18, 0x60,
   0x00, 0x06, 0xc3, 0xd8, 0x82, 0x37, 0xd6, 0xb4, 0x63, 0x00, 0xdd, 0x38,
   0x0c, 0x22, 0x08, 0x37, 0x64, 0x00, 0x06, 0x1c, 0x0e, 0x78, 0x18, 0x80,
   0x01, 0x70, 0x70, 0x60, 0x30, 0xe0, 0x18, 0x70, 0x00, 0x00, 0x00, 0x00,
   0x00, 0x00, 0x00, 0x00, 0x00, 0x00, 0x00, 0x00, 0x00, 0x00, 0x00, 0x00,
   0x60, 0x00, 0x06, 0x1c, 0x0e, 0x3c, 0x00, 0xc9, 0x01, 0x39, 0x61, 0x60,
   0x30, 0xe0, 0x18, 0x70, 0x00, 0x00, 0x00, 0x00, 0x00, 0x00, 0x00, 0x00,
   0x00, 0x00, 0x00, 0x00, 0x00, 0x00, 0x00, 0x00, 0x60, 0x00, 0x07, 0x19,
   0x0c, 0x1e, 0x80, 0xe1, 0x20, 0x1c, 0x20, 0x60, 0x60, 0xe0, 0x18, 0x70,
   0x00, 0x00, 0x00, 0x00, 0x00, 0x00, 0x00, 0x00, 0x00, 0x00, 0x00, 0x00,
   0x00, 0x00, 0x00, 0x00, 0xe0, 0x00, 0x03, 0x18, 0x08, 0x0c, 0xc8, 0x71,
   0x00, 0x0e, 0x00, 0x60, 0x60, 0xe0, 0x18, 0x70, 0x00, 0x00, 0x00, 0x00,
   0x00, 0x00, 0x00, 0x00, 0x00, 0x00, 0x00, 0x00, 0x00, 0x00, 0x00, 0x00,
   0xc0, 0x00, 0x03, 0x18, 0x81, 0x01, 0xe3, 0x79, 0xf8, 0x07, 0x08, 0x4c,
   0x40, 0xe0, 0x18, 0x70, 0x00, 0x00, 0x00, 0x00, 0x00, 0x00, 0x00, 0x00,
   0x00, 0x00, 0x00, 0x00, 0x00, 0x00, 0x00, 0x00, 0xc2, 0x88, 0x03, 0x00,
   0x80, 0x81, 0xf3, 0x3c, 0xf0, 0x03, 0x78, 0x0f, 0x00, 0xc0, 0x38, 0x70,
   0x00, 0x00, 0x00, 0x00, 0x00, 0x00, 0x00, 0x00, 0x00, 0x00, 0x00, 0x00,
   0x00, 0x00, 0x00, 0x00, 0x90, 0x80, 0x03, 0x02, 0xe5, 0xc5, 0x7f, 0x18,
   0xe0, 0x00, 0xf0, 0x0f, 0x0e, 0x00, 0x10, 0x70, 0x0c, 0x00, 0x00, 0x00,
   0x00, 0x00, 0x00, 0x00, 0x00, 0x00, 0x00, 0x00, 0x00, 0x00, 0x00, 0x00,
   0x00, 0x80, 0x01, 0x48, 0xf0, 0xfc, 0x1d, 0x00, 0x00, 0x00, 0xe0, 0xe3,
   0x3f, 0x0c, 0x03, 0x70, 0x0c, 0x00, 0x00, 0x00, 0x00, 0x00, 0x00, 0x00,
   0x00, 0x00, 0x00, 0x00, 0x00, 0x00, 0x00, 0x00, 0x20, 0xc0, 0x01, 0xe0,
   0x7f, 0x78, 0x00, 0x00, 0x00, 0x00, 0x00, 0xe0, 0xe7, 0x1f, 0x43, 0x20,
   0x0e, 0x00, 0x00, 0x00, 0x00, 0x00, 0x00, 0x00, 0x00, 0x00, 0x00, 0x00,
   0x00, 0x00, 0x00, 0x00, 0x80, 0xe4, 0x00, 0xf0, 0x3f, 0x20, 0x00, 0x00,
   0x00, 0x00, 0x00, 0x80, 0xe1, 0xcf, 0x03, 0x00, 0x06, 0x00, 0x00, 0x00,
   0x00, 0x00, 0x00, 0x00, 0x00, 0x00, 0x00, 0x00, 0x00, 0x00, 0x00, 0x00,
   0x00, 0xf0, 0x00, 0x3c, 0x0f, 0x00, 0x00, 0x00, 0x00, 0x00, 0x00, 0x00,
   0x80, 0xe7, 0x19, 0x07, 0x07, 0x00, 0x00, 0x00, 0x00, 0x00, 0x00, 0x00,
   0x00, 0x00, 0x00, 0x00, 0x00, 0x00, 0x00, 0x00, 0x60, 0x78, 0x00, 0x3c,
   0x00, 0x00, 0x00, 0x00, 0x00, 0x00, 0x00, 0x00, 0x00, 0xc0, 0xf0, 0x87,
   0x03, 0x00, 0x00, 0x00, 0x00, 0x00, 0x00, 0x00, 0x00, 0x00, 0x00, 0x00,
   0x00, 0x00, 0x00, 0x00, 0xe0, 0x3f, 0x00, 0x00, 0x00, 0x00, 0x00, 0x00,
   0x00, 0x00, 0x00, 0x00, 0x00, 0x00, 0xf0, 0xf3, 0x01, 0x00, 0x00, 0x00,
   0x00, 0x00, 0x00, 0x00, 0x00, 0x00, 0x00, 0x00, 0x00, 0x00, 0x00, 0x00,
   0x80, 0x1f, 0x00, 0x00, 0x00, 0x00, 0x00, 0x00, 0x00, 0x00, 0x00, 0x00,
   0x00, 0x00, 0x80, 0xf0, 0x01, 0x00, 0x00, 0x00, 0x00, 0x00, 0x00, 0x00,
   0x00, 0x00, 0x00, 0x00, 0x00, 0x00, 0x00, 0x00, 0x00, 0x07, 0x00, 0x00,
   0x00, 0x00, 0x00, 0x00, 0x00, 0x00, 0x00, 0x00, 0x00, 0x00, 0x00, 0x60,
   0x00, 0x00, 0x00, 0x00, 0x00, 0x00, 0x00, 0x00, 0x00, 0x00, 0x00, 0x00,
   0x00, 0x00, 0x00, 0x00, 0x00, 0x00, 0x00, 0x00, 0x00, 0x00, 0x00, 0x00,
   0x00, 0x00, 0x00, 0x00, 0x00, 0x00, 0x00, 0x00, 0x00, 0x00, 0x00, 0x00,
   0x00, 0x00, 0x00, 0x00, 0x00, 0x00, 0x00, 0x00, 0x00, 0x00, 0x00, 0x00,
   0x00, 0x00, 0x00, 0x00, 0x00, 0x00, 0x00, 0x00, 0x00, 0x00, 0x00, 0x00,
   0x00, 0x00, 0x00, 0x00, 0x00, 0x00, 0x00, 0x00, 0x00, 0x00, 0x00, 0x00,
   0x00, 0x00, 0x00, 0x00, 0x00, 0x00, 0x00, 0x00, 0x00, 0x00, 0x00, 0x00,
   0x00, 0x00, 0x00, 0x00, 0x00, 0x00, 0x00, 0x00, 0x00, 0x00, 0x00, 0x00,
   0x00, 0x00, 0x00, 0x00, 0x00, 0x00, 0x00, 0x00, 0x00, 0x00, 0x00, 0x00,
   0x00, 0x00, 0x00, 0x00, 0x00, 0x00, 0x00, 0x00, 0x00, 0x00, 0x00, 0x00,
   0x00, 0x00, 0x00, 0x00, 0x00, 0x00, 0x00, 0x00, 0x00, 0x00, 0x00, 0x00,
   0x00, 0x00, 0x00, 0x00, 0x00, 0x00, 0x00, 0x00, 0x00, 0x00, 0x00, 0x00,
   0x00, 0x00, 0x00, 0x00, 0x00, 0x00, 0x00, 0x00, 0x00, 0x00, 0x00, 0x00,
   0x00, 0x00, 0x00, 0x00, 0x00, 0x00, 0x00, 0x00, 0x00, 0x00, 0x00, 0x00,
   0x00, 0x00, 0x00, 0x00, 0x00, 0x00, 0x00, 0x00, 0x00, 0x00, 0x00, 0x00,
   0x00, 0x00, 0x00, 0x00, 0x00, 0x00, 0x00, 0x00, 0x00, 0x00, 0x00, 0x00,
   0x00, 0x00, 0x00, 0x00, 0x00, 0x00, 0x00, 0x00, 0x00, 0x00, 0x00, 0x00,
   0x00, 0x00, 0x00, 0x00, 0x00, 0x00, 0x00, 0x00, 0x00, 0x00, 0x00, 0x00,
   0x00, 0x00, 0x00, 0x00, 0x00, 0x00, 0x00, 0x00, 0x00, 0x00, 0x00, 0x00,
   0x00, 0x00, 0x00, 0x00, 0x00, 0x00, 0x00, 0x00, 0x00, 0x00, 0x00, 0x00,
   0x00, 0x00, 0x00, 0x00, 0x00, 0x00, 0x00, 0x00, 0x00, 0x00, 0x00, 0x00,
   0x00, 0x00, 0x00, 0x00, 0x00, 0x00, 0x00, 0x00, 0x00, 0x00, 0x00, 0x00,
   0x00, 0x00, 0x00, 0x00, 0x00, 0x00, 0x00, 0x00, 0x00, 0x00, 0x00, 0x00,
   0x00, 0x00, 0x00, 0x00, 0x00, 0x00, 0x00, 0x00, 0x00, 0x00, 0x00, 0x00,
   0x00, 0x00, 0x00, 0x00, 0x00, 0x00, 0x00, 0x00, 0x00, 0x00, 0x00, 0x00,
   0x00, 0x00, 0x00, 0x00, 0x00, 0x00, 0x00, 0x00, 0x00, 0x00, 0x00, 0x00,
   0x00, 0x00, 0x00, 0x00, 0x00, 0x00, 0x00, 0x00, 0x00, 0x00, 0x00, 0x00,
   0x00, 0x00, 0x00, 0x00, 0x00, 0x00, 0x00, 0x00, 0x00, 0x00, 0x00, 0x00,
   0x00, 0x00, 0x00, 0x00, 0x00, 0x00, 0x00, 0x00, 0x00, 0x00, 0x00, 0x00,
   0x00, 0x00, 0x00, 0x00, 0x00, 0x00, 0x00, 0x00, 0x00, 0x00, 0x00, 0x00,
   0x00, 0x00, 0x00, 0x00, 0x00, 0x00, 0x00, 0x00 };
