#define _width 256
#define _height 64
static char _bits[] = {
 0x00,0x00,0x00,0x00,0x00,0x00,0x00,0x00,0x00,0x00,0x00,0x00,
 0x00,0x00,0x00,0x00,0x00,0x00,0x00,0x00,0x00,0x00,0x00,0x00,
 0x00,0x00,0x00,0x00,0x00,0x00,0x00,0x00,0x00,0x00,0x00,0x00,
 0x00,0x80,0x0f,0x00,0x00,0x00,0x00,0x00,0x00,0x00,0x00,0x00,
 0x00,0x00,0x00,0x00,0x00,0x00,0x00,0x00,0x00,0x00,0x00,0x00,
 0x00,0x00,0x00,0x00,0x00,0x00,0x00,0x00,0x00,0xc0,0x0f,0x00,
 0x00,0x00,0x00,0x00,0x00,0x00,0x00,0x00,0x00,0x00,0x00,0x00,
 0x00,0x00,0x00,0x00,0x00,0x00,0x00,0x00,0x00,0x00,0x00,0x00,
 0x00,0x00,0x00,0x00,0x00,0xe0,0x0f,0x00,0x00,0x00,0x00,0x00,
 0x00,0x00,0x00,0x00,0x00,0x00,0x00,0x00,0x00,0x00,0x00,0x00,
 0x00,0x00,0x00,0x00,0x00,0x00,0x00,0x00,0x00,0x00,0x00,0x00,
 0x00,0xf0,0x0f,0x00,0x00,0x00,0x00,0x00,0x00,0x00,0x00,0x00,
 0x00,0x00,0x00,0x00,0x00,0x00,0x00,0x00,0x00,0x00,0x00,0x00,
 0x00,0x00,0x00,0x00,0x00,0x00,0x00,0x00,0x00,0xf0,0x0f,0x00,
 0x00,0x00,0x00,0x00,0x00,0x00,0x00,0x00,0x00,0x00,0x00,0x00,
 0x00,0x00,0x00,0x00,0x00,0x00,0x00,0x00,0x00,0x00,0x00,0x00,
 0x00,0x00,0x00,0x00,0x00,0xf8,0x0f,0x00,0x00,0x00,0x00,0x00,
 0x00,0x00,0x00,0x00,0x00,0x00,0x00,0x00,0x00,0x00,0x00,0x00,
 0x00,0x00,0x00,0x00,0x00,0x00,0x00,0x00,0x00,0x00,0x00,0x00,
 0x00,0xfc,0x0f,0x00,0x00,0x00,0x00,0x00,0x00,0x00,0x00,0x00,
 0x00,0x00,0x00,0x00,0x00,0x00,0x00,0x00,0x00,0x00,0x00,0x00,
 0x00,0x00,0x00,0x00,0x00,0x00,0x00,0x00,0x00,0x7e,0x0f,0x00,
 0x00,0x00,0x00,0x00,0x00,0x00,0x00,0x00,0x00,0x00,0x00,0x00,
 0x00,0x00,0x00,0x00,0x00,0x00,0x00,0x00,0x00,0x00,0x00,0x00,
 0x00,0x00,0x00,0x00,0x00,0x3e,0x0f,0x00,0x00,0x00,0x00,0x00,
 0x00,0x00,0x00,0x00,0x00,0x00,0x00,0x00,0x00,0x00,0x00,0x00,
 0x00,0x00,0x00,0x00,0x00,0x00,0x00,0x00,0x00,0x00,0x00,0x00,
 0x00,0x1f,0x0f,0x00,0x00,0x00,0x00,0x00,0x00,0x00,0x00,0x00,
 0x00,0x00,0x00,0x00,0x00,0x00,0x00,0x00,0x00,0x00,0x00,0x00,
 0x00,0x00,0x00,0x00,0x00,0x00,0x00,0x00,0x80,0x0f,0x0f,0x00,
 0x00,0x00,0x00,0x00,0x00,0x00,0x00,0x00,0x00,0x00,0x00,0x00,
 0x00,0x00,0x00,0x00,0x00,0x00,0x00,0x00,0x00,0x00,0x00,0x00,
 0x00,0x00,0x00,0x00,0xc0,0x07,0x0f,0x00,0x00,0x00,0x00,0x00,
 0x00,0x00,0x00,0x00,0x00,0x00,0x00,0x00,0x00,0x00,0x00,0x00,
 0x00,0x00,0x00,0x00,0x00,0x00,0x00,0x00,0x00,0x00,0x00,0x00,
 0xe0,0x07,0x0f,0x00,0x00,0x00,0x00,0x00,0x00,0x00,0x00,0x00,
 0x00,0x00,0x00,0x00,0x00,0x00,0x00,0x00,0x00,0x00,0x00,0x00,
 0x00,0x00,0x00,0x00,0x00,0x00,0x00,0x00,0xe0,0x03,0x0f,0x00,
 0x00,0x00,0x00,0x00,0x00,0x00,0x00,0x00,0x00,0x00,0x00,0x00,
 0x00,0x00,0x00,0x00,0x00,0x00,0x00,0x00,0x00,0x00,0x00,0x00,
 0x00,0x00,0x00,0x00,0xf0,0x01,0x0f,0x00,0x00,0x00,0x00,0x00,
 0x00,0x00,0x00,0x00,0x00,0x00,0x00,0x00,0x00,0x00,0x00,0x00,
 0x00,0x00,0x00,0x00,0x00,0x00,0x00,0x00,0x00,0x00,0x00,0x00,
 0xf8,0x00,0x0f,0x00,0x00,0x00,0x00,0x00,0x00,0x00,0x00,0x00,
 0x00,0x00,0x00,0x00,0x00,0x00,0x00,0x00,0x00,0x00,0x00,0x00,
 0x00,0x00,0x00,0x00,0x00,0x00,0x00,0x00,0xfc,0x00,0x0f,0x00,
 0x00,0x00,0x00,0x00,0xf0,0x01,0x00,0x00,0x00,0x00,0x00,0x00,
 0x00,0x00,0x00,0x00,0x00,0xe0,0x01,0x00,0x00,0x00,0x00,0x00,
 0x00,0x00,0x00,0x00,0x7c,0x00,0x0f,0x00,0x00,0x00,0x00,0x00,
 0xf0,0x01,0x00,0x00,0x00,0x00,0x00,0x00,0x00,0x00,0x00,0x00,
 0x00,0xe0,0x01,0x00,0x00,0x00,0x00,0x00,0x00,0x00,0x00,0x00,
 0x3e,0x00,0x0f,0x00,0x00,0x00,0x00,0x00,0xf0,0x01,0x00,0x00,
 0x00,0x00,0x00,0x00,0x00,0x00,0x00,0x00,0x00,0xe0,0x01,0x00,
 0x00,0x00,0x00,0x00,0x00,0x00,0x00,0x00,0x1f,0x00,0x0f,0x00,
 0x00,0x00,0x00,0x00,0xf0,0x00,0x00,0x00,0x00,0x00,0x00,0x00,
 0x00,0x00,0x00,0x00,0x00,0xf0,0x01,0x00,0x00,0x00,0x00,0x00,
 0x00,0x00,0x00,0x80,0x0f,0x00,0x0f,0x00,0x00,0x00,0x00,0x00,
 0xf0,0x00,0x00,0x10,0x00,0x00,0x00,0x00,0x00,0x00,0x00,0x00,
 0x00,0xf0,0x01,0x00,0x00,0x00,0x00,0x00,0x00,0x00,0x00,0x80,
 0x0f,0x00,0x0f,0x00,0x00,0x00,0x00,0x00,0xf0,0x00,0x00,0x7c,
 0x00,0x00,0x00,0x00,0x00,0x00,0x00,0x00,0x00,0xf0,0x01,0x00,
 0x00,0x00,0x00,0x00,0x00,0x00,0x00,0xc0,0x07,0x00,0x0f,0x00,
 0x00,0x00,0x00,0x00,0xf8,0x00,0x00,0x7c,0x00,0x00,0x00,0x00,
 0x00,0x00,0x00,0x00,0x00,0xf0,0x00,0x00,0x00,0x00,0x00,0x00,
 0x00,0x00,0x00,0xe0,0x03,0x00,0x0f,0x00,0x00,0x00,0x00,0x00,
 0xf8,0x00,0x00,0x7c,0x00,0x00,0x00,0x00,0x00,0x00,0x00,0x00,
 0x00,0xf0,0x00,0x00,0x00,0x00,0x00,0x00,0x00,0x00,0x00,0xf0,
 0x01,0x00,0x0f,0x00,0x00,0x00,0x00,0x00,0xf8,0x00,0x00,0x7c,
 0x00,0x00,0x00,0x00,0x00,0x00,0x00,0x00,0x00,0xf0,0x00,0x00,
 0x00,0x00,0x00,0x00,0x00,0x00,0x00,0xf8,0x01,0x00,0x0f,0x00,
 0x00,0x00,0x00,0x00,0x78,0x00,0x00,0x3c,0x00,0x00,0x00,0x00,
 0x00,0x00,0x00,0x00,0x00,0xf8,0x00,0x00,0x00,0x00,0x00,0x00,
 0x00,0x00,0x00,0xf8,0xff,0x01,0x0f,0x00,0x00,0x00,0x00,0x00,
 0x78,0x00,0x00,0x00,0x00,0x00,0x00,0x00,0x00,0x00,0x00,0x00,
 0x00,0xf8,0x00,0x00,0x00,0x00,0x00,0x00,0x00,0x00,0x00,0xfc,
 0xff,0x1f,0x0f,0x00,0x00,0x00,0x00,0x00,0x78,0x00,0x00,0x00,
 0x00,0x00,0x00,0x00,0x00,0x00,0x00,0x00,0x00,0xf8,0x00,0x00,
 0x00,0x00,0x00,0x00,0x00,0x00,0x00,0xfe,0xff,0xff,0x0f,0x00,
 0x00,0x00,0x00,0x00,0x78,0x00,0x00,0x00,0x00,0x00,0x00,0x00,
 0x00,0x00,0x00,0x00,0x00,0xf8,0x00,0x00,0x00,0x00,0x00,0x00,
 0x00,0x00,0x00,0xff,0xff,0xff,0x0f,0xc0,0xc3,0x07,0xf0,0x3f,
 0x78,0xf0,0x03,0x3e,0x3e,0xfc,0x00,0x3f,0x00,0xfc,0x03,0x00,
 0xf8,0x7f,0x00,0xff,0x00,0xf0,0x0f,0x00,0x00,0x00,0x00,0xff,
 0x00,0xfc,0x0f,0xe0,0xf3,0x07,0xfc,0x3f,0x7c,0xfc,0x07,0x3e,
 0x3e,0xfe,0xc1,0x7f,0x00,0xfe,0x0f,0x00,0xfe,0x7f,0xc0,0xff,
 0x03,0xf8,0x3f,0x00,0x00,0x00,0x80,0x1f,0x00,0xf0,0x0f,0xc0,
 0xfb,0x07,0xfe,0x3f,0x7c,0xff,0x0f,0x3e,0xbe,0xff,0xe3,0xff,
 0x00,0xff,0x1f,0x80,0xff,0x7f,0xe0,0xff,0x07,0xfc,0x7f,0x00,
 0x00,0x00,0xc0,0x07,0x00,0xc0,0x0f,0xe0,0xff,0x87,0xff,0x1f,
 0xfc,0xff,0x0f,0x1e,0xfe,0xff,0xf3,0xff,0x80,0xff,0x1f,0xc0,
 0xff,0x7f,0xe0,0xff,0x07,0xfc,0x7f,0x00,0x00,0x00,0xe0,0x03,
 0x00,0x00,0x0f,0xe0,0x3f,0x87,0x3f,0x00,0xfc,0x83,0x0f,0x1e,
 0xfe,0xe1,0x7f,0xf8,0xc0,0x0f,0x3f,0xe0,0x1f,0x7c,0xf0,0xc3,
 0x0f,0x7e,0x78,0x00,0x00,0x00,0xf0,0x03,0x00,0x00,0x0f,0xe0,
 0x0f,0xc4,0x0f,0x00,0xfc,0x01,0x0f,0x1e,0xfe,0xc0,0x1f,0xf0,
 0xe0,0x07,0x3e,0xf0,0x07,0x7c,0xf8,0x81,0x0f,0x3e,0x60,0x00,
 0x00,0x00,0xf0,0x01,0x00,0x00,0x0f,0xe0,0x07,0xe0,0x07,0x00,
 0xfc,0x00,0x0f,0x1e,0x7e,0xc0,0x0f,0xf0,0xe1,0x03,0x7c,0xf0,
 0x01,0x7c,0xfc,0x00,0x0f,0x3e,0x40,0x00,0x00,0x00,0xf8,0x00,
 0x00,0x00,0x0f,0xe0,0x03,0xe0,0x03,0x00,0x7e,0x00,0x0f,0x1f,
 0x3e,0xc0,0x07,0xf0,0xf0,0x03,0x7c,0xf8,0x00,0x3c,0x7c,0x00,
 0x0f,0x3e,0x00,0x00,0x00,0x00,0x7c,0x00,0x00,0x00,0x0f,0xe0,
 0x03,0xf0,0x03,0x00,0x3e,0x00,0x0f,0x1f,0x1f,0xc0,0x07,0xf0,
 0xf0,0x03,0x7c,0xf8,0x00,0x3c,0x7c,0x00,0x1f,0x7c,0x00,0x00,
 0x00,0x00,0x3e,0x00,0x00,0x00,0x0f,0xf0,0x01,0xf0,0x01,0x00,
 0x3e,0x00,0x0f,0x1f,0x1f,0xc0,0x03,0xf0,0xf0,0xff,0x7f,0x7c,
 0x00,0x3c,0xfe,0xff,0x1f,0xfc,0x00,0x00,0x00,0x00,0x3e,0x00,
 0x00,0x00,0x0f,0xf0,0x01,0xf0,0x01,0x00,0x3e,0x00,0x0f,0x0f,
 0x1f,0xc0,0x03,0xf0,0xf8,0xff,0x7f,0x7c,0x00,0x3e,0xfe,0xff,
 0x1f,0xf8,0x01,0x00,0x00,0x00,0x1f,0x00,0x00,0x00,0x0f,0xf0,
 0x01,0xf8,0x00,0x00,0x1e,0x80,0x0f,0x0f,0x0f,0xc0,0x03,0xf8,
 0xf8,0xff,0x7f,0x7c,0x00,0x3e,0xfe,0xff,0x1f,0xf0,0x03,0x00,
 0x00,0x80,0x0f,0x00,0x00,0x00,0x0f,0xf0,0x01,0xf8,0x00,0x00,
 0x1e,0x80,0x0f,0x0f,0x0f,0xc0,0x03,0xf8,0xf8,0x00,0x00,0x7c,
 0x00,0x3e,0x3e,0x00,0x00,0xe0,0x0f,0x00,0x00,0xc0,0x07,0x00,
 0x00,0x00,0x0f,0xf0,0x00,0xf8,0x00,0x00,0x1e,0x80,0x87,0x0f,
 0x0f,0xe0,0x03,0xf8,0xf8,0x00,0x00,0x3c,0x00,0x3e,0x3e,0x00,
 0x00,0xc0,0x0f,0x00,0x00,0xe0,0x07,0x00,0x00,0x00,0x0f,0xf0,
 0x00,0xf8,0x00,0x00,0x1e,0x80,0x87,0x0f,0x0f,0xe0,0x03,0x78,
 0xf8,0x00,0x00,0x7c,0x00,0x1e,0x3e,0x00,0x00,0x80,0x1f,0x00,
 0x00,0xe0,0x03,0x00,0x00,0x00,0x0f,0xf0,0x00,0xf8,0x00,0x00,
 0x1f,0x80,0x87,0x8f,0x0f,0xe0,0x03,0x78,0xf8,0x00,0x00,0x7c,
 0x00,0x1e,0x3e,0x00,0x00,0x00,0x3f,0x00,0x00,0xf0,0x01,0x00,
 0x00,0x00,0x0f,0xf8,0x00,0xf0,0x01,0x00,0x1f,0x80,0x87,0x8f,
 0x0f,0xe0,0x03,0x78,0xf0,0x00,0x00,0x7c,0x00,0x1e,0x3e,0x00,
 0x00,0x00,0x3e,0x00,0x00,0xf8,0x00,0x00,0x00,0x00,0x0f,0xf8,
 0x00,0xf0,0x01,0x00,0x1f,0xc0,0x87,0x8f,0x0f,0xe0,0x01,0x78,
 0xf0,0x01,0x20,0xfc,0x00,0x1e,0x7c,0x00,0x80,0x01,0x3e,0x00,
 0x00,0x7c,0x00,0x00,0x00,0x00,0x0f,0xf8,0x00,0xf0,0x03,0x10,
 0x0f,0xc0,0x87,0x87,0x0f,0xe0,0x01,0x7c,0xf0,0x01,0x30,0xf8,
 0x00,0x1f,0x7c,0x00,0x86,0x03,0x3c,0x00,0x00,0x7c,0x00,0x00,
 0x00,0x00,0x0f,0xf8,0x00,0xe0,0x07,0x0c,0x0f,0xc0,0x87,0x87,
 0x07,0xe0,0x01,0x7c,0xe0,0x07,0x3e,0xf8,0x03,0x1f,0xfc,0x80,
 0x87,0x0f,0x3e,0x00,0x00,0x3e,0x00,0x00,0x00,0x00,0x0f,0x78,
 0x00,0xe0,0xbf,0x0f,0x0f,0xc0,0x83,0x87,0x07,0xe0,0x01,0x7c,
 0xe0,0xff,0x1f,0xf0,0xff,0x1f,0xf8,0xff,0x87,0xff,0x3f,0x00,
 0x00,0x1f,0x00,0x00,0x00,0x00,0x0f,0x78,0x00,0xc0,0xff,0x0f,
 0x0f,0xc0,0xc3,0x87,0x07,0xf0,0x01,0x7c,0xc0,0xff,0x1f,0xe0,
 0xff,0x1f,0xf0,0xff,0x87,0xff,0x1f,0x00,0x80,0x0f,0x00,0x00,
 0x00,0x00,0x0f,0x78,0x00,0x80,0xff,0x8f,0x0f,0xc0,0xc3,0xc7,
 0x07,0xf0,0x01,0x3c,0x80,0xff,0x1f,0xc0,0xff,0x0f,0xe0,0xff,
 0x03,0xff,0x1f,0x00,0xc0,0x0f,0x00,0x00,0x00,0x00,0x0f,0x7c,
 0x00,0x00,0xfe,0x87,0x0f,0xc0,0xc3,0xc7,0x07,0xf0,0x01,0x3c,
 0x00,0xfe,0x03,0x00,0xff,0x0f,0xc0,0xff,0x00,0xfc,0x0f,0x00,
 0xc0,0x07,0x00,0x00,0x00,0x00,0x0f,0x00,0x00,0x00,0xf0,0x00,
 0x00,0x00,0x00,0x00,0x00,0x00,0x00,0x00,0x00,0x78,0x00,0x00,
 0x00,0x00,0x00,0x1e,0x00,0xe0,0x01,0x00,0xe0,0x03,0x00,0x00,
 0x00,0x00,0x0f,0x00,0x00,0x00,0x00,0x00,0x00,0x00,0x00,0x00,
 0x00,0x00,0x00,0x00,0x00,0x00,0x00,0x00,0x00,0x00,0x00,0x00,
 0x00,0x00,0x00,0x00,0xf0,0x01,0x00,0x00,0x00,0x00,0x0f,0x00,
 0x00,0x00,0x00,0x00,0x00,0x00,0x00,0x00,0x00,0x00,0x00,0x00,
 0x00,0x00,0x00,0x00,0x00,0x00,0x00,0x00,0x00,0x00,0x00,0x00,
 0xf8,0x00,0x00,0x00,0x00,0x00,0x0f,0x00,0x00,0x00,0x00,0x00,
 0x00,0x00,0x00,0x00,0x00,0x00,0x00,0x00,0x00,0x00,0x00,0x00,
 0x00,0x00,0x00,0x00,0x00,0x00,0x00,0x00,0xf8,0x00,0x00,0x00,
 0x00,0x00,0x0f,0x00,0x00,0x00,0x00,0x00,0x00,0x00,0x00,0x00,
 0x00,0x00,0x00,0x00,0x00,0x00,0x00,0x00,0x00,0x00,0x00,0x00,
 0x00,0x00,0x00,0x00,0x7c,0x00,0x00,0x00,0x00,0x00,0x0f,0x00,
 0x00,0x00,0x00,0x00,0x00,0x00,0x00,0x00,0x00,0x00,0x00,0x00,
 0x00,0x00,0x00,0x00,0x00,0x00,0x00,0x00,0x00,0x00,0x00,0x00,
 0x3e,0x00,0x00,0x00,0x00,0x00,0x0f,0x00,0x00,0x00,0x00,0x00,
 0x00,0x00,0x00,0x00,0x00,0x00,0x00,0x00,0x00,0x00,0x00,0x00,
 0x00,0x00,0x00,0x00,0x00,0x00,0x00,0x00,0x1f,0x00,0x00,0x00,
 0x00,0x00,0x0f,0x00,0x00,0x00,0x00,0x00,0x00,0x00,0x00,0x00,
 0x00,0x00,0x00,0x00,0x00,0x00,0x00,0x00,0x00,0x00,0x00,0x00,
 0x00,0x00,0x00,0x00,0x00,0x00,0x00,0x00,0x00,0x00,0x00,0x00,
 0x00,0x00,0x00,0x00,0x00,0x00,0x00,0x00,0x00,0x00,0x00,0x00,
 0x00,0x00,0x00,0x00,0x00,0x00,0x00,0x00,0x00,0x00,0x00,0x00,
 0x00,0x00,0x00,0x00,0x00,0x00,0x00,0x00,0x00,0x00,0x00,0x00,
 0x00,0x00,0x00,0x00,0x00,0x00,0x00,0x00,0x00,0x00,0x00,0x00,
 0x00,0x00,0x00,0x00,0x00,0x00,0x00,0x00 };
