#define Arduboy_width 256
#define Arduboy_height 64
static char Arduboy_bits[] = {
  0x00, 0x00, 0x00, 0x00, 0x00, 0x00, 0x00, 0x00, 0x00, 0x00, 0x00, 0x00, 
  0x00, 0x00, 0x00, 0x00, 0x00, 0x00, 0x00, 0x00, 0x00, 0x00, 0x00, 0x00, 
  0x00, 0x00, 0x00, 0x00, 0x00, 0x00, 0x00, 0x00, 0x00, 0x00, 0x00, 0x00, 
  0x00, 0x00, 0x00, 0x00, 0x00, 0x00, 0x00, 0x00, 0x00, 0x00, 0x00, 0x00, 
  0x00, 0x00, 0x00, 0x00, 0x00, 0x00, 0x00, 0x00, 0x00, 0x00, 0x00, 0x00, 
  0x00, 0x00, 0x00, 0x00, 0x00, 0x00, 0x00, 0x00, 0x00, 0x00, 0x00, 0x00, 
  0x00, 0x00, 0x00, 0x00, 0x00, 0x00, 0x00, 0x00, 0x00, 0x00, 0x00, 0x00, 
  0x00, 0x00, 0x00, 0x00, 0x00, 0x00, 0x00, 0x00, 0x00, 0x00, 0x00, 0x00, 
  0x00, 0x00, 0x00, 0x00, 0x00, 0x00, 0x00, 0x00, 0x00, 0x00, 0x00, 0x00, 
  0x00, 0x00, 0x00, 0x00, 0x00, 0x00, 0x00, 0x00, 0x00, 0x00, 0x00, 0x00, 
  0x00, 0x00, 0x00, 0x00, 0x00, 0x00, 0x00, 0x00, 0x00, 0x00, 0x00, 0x00, 
  0x00, 0x00, 0x00, 0x00, 0x00, 0x00, 0x00, 0x00, 0x00, 0x00, 0x00, 0x00, 
  0x00, 0x00, 0x00, 0x00, 0x00, 0x00, 0x00, 0x00, 0x00, 0x00, 0x00, 0x00, 
  0x00, 0x00, 0x00, 0x00, 0x00, 0x00, 0x00, 0x00, 0x00, 0x00, 0x00, 0x00, 
  0x00, 0x00, 0x00, 0x00, 0x00, 0x00, 0x00, 0x00, 0x00, 0x00, 0x00, 0x00, 
  0x00, 0x00, 0x00, 0x00, 0x00, 0x00, 0x00, 0x00, 0x00, 0x00, 0x00, 0x00, 
  0x00, 0x00, 0x00, 0x00, 0x00, 0x00, 0x00, 0x00, 0x00, 0x00, 0x00, 0x00, 
  0x00, 0x00, 0x00, 0x00, 0x00, 0x00, 0x00, 0x00, 0x00, 0x00, 0x00, 0x00, 
  0x00, 0x00, 0x00, 0x00, 0x00, 0x00, 0x00, 0x00, 0x00, 0x00, 0x00, 0x00, 
  0x00, 0x00, 0x00, 0x00, 0x00, 0x00, 0x00, 0x00, 0x00, 0x00, 0x00, 0x00, 
  0x00, 0x00, 0x00, 0x00, 0x00, 0x00, 0x00, 0x00, 0x00, 0x00, 0x00, 0x00, 
  0x00, 0x00, 0x00, 0x00, 0x00, 0x00, 0x00, 0x00, 0x00, 0x00, 0x00, 0x00, 
  0x00, 0x00, 0x00, 0x00, 0x00, 0x00, 0x00, 0x00, 0x00, 0x00, 0x00, 0x00, 
  0x00, 0x00, 0x00, 0x00, 0x00, 0x00, 0x00, 0x00, 0x00, 0x00, 0x00, 0x00, 
  0x00, 0x00, 0x00, 0x00, 0x00, 0x00, 0x00, 0x00, 0x00, 0x00, 0x00, 0x00, 
  0x00, 0x00, 0x00, 0x00, 0x00, 0x00, 0x00, 0x00, 0x00, 0x00, 0x00, 0x00, 
  0x00, 0x00, 0x00, 0x00, 0x00, 0x00, 0x00, 0x00, 0x00, 0x00, 0x00, 0x00, 
  0x00, 0x00, 0x00, 0x00, 0x00, 0x00, 0x00, 0x00, 0x00, 0x00, 0x00, 0x00, 
  0x00, 0x00, 0x00, 0x00, 0x00, 0x00, 0x00, 0x00, 0x00, 0x00, 0x00, 0x00, 
  0x00, 0x00, 0x00, 0x00, 0x00, 0x00, 0x00, 0x00, 0x00, 0x00, 0x00, 0x00, 
  0x00, 0x00, 0x00, 0x00, 0x00, 0x00, 0x00, 0x00, 0x00, 0x00, 0x00, 0x00, 
  0x00, 0x00, 0x00, 0x00, 0x00, 0x00, 0x00, 0x00, 0x00, 0x00, 0x00, 0x00, 
  0x00, 0x00, 0x80, 0x03, 0x00, 0x80, 0xFF, 0xFF, 0x03, 0x00, 0xFC, 0xFF, 
  0x0F, 0x00, 0x70, 0x00, 0x00, 0x1C, 0x80, 0xFF, 0xFF, 0x03, 0x00, 0x80, 
  0xFF, 0x1F, 0x00, 0x70, 0x00, 0x00, 0x1C, 0x00, 0x00, 0x00, 0xC0, 0x07, 
  0x00, 0xC0, 0xFF, 0xFF, 0x07, 0x00, 0xFE, 0xFF, 0x3F, 0x00, 0xF8, 0x00, 
  0x00, 0x3E, 0xC0, 0xFF, 0xFF, 0x07, 0x00, 0xC0, 0xFF, 0x3F, 0x00, 0xF8, 
  0x00, 0x00, 0x3E, 0x00, 0x00, 0x00, 0xE0, 0x0F, 0x00, 0xC0, 0xFF, 0xFF, 
  0x0F, 0x00, 0xFE, 0xFF, 0x7F, 0x00, 0xF8, 0x00, 0x00, 0x3E, 0xC0, 0xFF, 
  0xFF, 0x0F, 0x00, 0xE0, 0xFF, 0x7F, 0x00, 0xF8, 0x00, 0x00, 0x3E, 0x00, 
  0x00, 0x00, 0xF0, 0x1F, 0x00, 0xC0, 0xFF, 0xFF, 0x1F, 0x00, 0xFE, 0xFF, 
  0xFF, 0x00, 0xF8, 0x00, 0x00, 0x3E, 0xC0, 0xFF, 0xFF, 0x1F, 0x00, 0xF0, 
  0xFF, 0xFF, 0x00, 0xF8, 0x00, 0x00, 0x3E, 0x00, 0x00, 0x00, 0xF8, 0x3F, 
  0x00, 0xC0, 0xFF, 0xFF, 0x3F, 0x00, 0xFE, 0xFF, 0xFF, 0x01, 0xF8, 0x00, 
  0x00, 0x3E, 0xC0, 0xFF, 0xFF, 0x3F, 0x00, 0xF8, 0xFF, 0xFF, 0x01, 0xF8, 
  0x00, 0x00, 0x3E, 0x00, 0x00, 0x00, 0xFC, 0x7F, 0x00, 0xC0, 0x07, 0x00, 
  0x7F, 0x00, 0x3E, 0x00, 0xF8, 0x03, 0xF8, 0x00, 0x00, 0x3E, 0xC0, 0x07, 
  0x00, 0x7F, 0x00, 0xFC, 0x01, 0xF8, 0x03, 0xF8, 0x00, 0x00, 0x3E, 0x00, 
  0x00, 0x00, 0xFE, 0xFE, 0x00, 0xC0, 0x07, 0x00, 0xFE, 0x00, 0x3E, 0x00, 
  0xF8, 0x07, 0xF8, 0x00, 0x00, 0x3E, 0xC0, 0x07, 0x00, 0xFE, 0x00, 0xFE, 
  0x00, 0xF0, 0x07, 0xF8, 0x00, 0x00, 0x3E, 0x00, 0x00, 0x00, 0x7F, 0xFC, 
  0x01, 0xC0, 0x07, 0x00, 0xFC, 0x01, 0x3E, 0x00, 0xE0, 0x07, 0xF8, 0x00, 
  0x00, 0x3E, 0xC0, 0x07, 0x00, 0xFC, 0x01, 0x7E, 0x00, 0xE0, 0x07, 0xF8, 
  0x01, 0x00, 0x3F, 0x00, 0x00, 0x80, 0x3F, 0xF8, 0x03, 0xC0, 0x07, 0x00, 
  0xF8, 0x01, 0x3E, 0x00, 0xC0, 0x07, 0xF8, 0x00, 0x00, 0x3E, 0xC0, 0x07, 
  0x00, 0xF8, 0x01, 0x3E, 0x00, 0xC0, 0x07, 0xF8, 0x03, 0x80, 0x3F, 0x00, 
  0x00, 0xC0, 0x1F, 0xF0, 0x07, 0xC0, 0x07, 0x00, 0xF0, 0x01, 0x3E, 0x00, 
  0xC0, 0x07, 0xF8, 0x00, 0x00, 0x3E, 0xC0, 0x07, 0x00, 0xF0, 0x01, 0x3E, 
  0x00, 0xC0, 0x07, 0xF0, 0x07, 0xC0, 0x1F, 0x00, 0x00, 0xE0, 0x0F, 0xE0, 
  0x0F, 0xC0, 0x07, 0x00, 0xF0, 0x01, 0x3E, 0x00, 0xC0, 0x07, 0xF8, 0x00, 
  0x00, 0x3E, 0xC0, 0x07, 0x00, 0xF0, 0x01, 0x3E, 0x00, 0xC0, 0x07, 0xE0, 
  0x0F, 0xE0, 0x0F, 0x00, 0x00, 0xF0, 0x07, 0xC0, 0x1F, 0xC0, 0x07, 0x00, 
  0xF0, 0x01, 0x3E, 0x00, 0xC0, 0x07, 0xF8, 0x00, 0x00, 0x3E, 0xC0, 0x07, 
  0x00, 0xF0, 0x01, 0x3E, 0x00, 0xC0, 0x07, 0xC0, 0x1F, 0xF0, 0x07, 0x00, 
  0x00, 0xF8, 0x03, 0x80, 0x3F, 0xC0, 0x07, 0x00, 0xF0, 0x01, 0x3E, 0x00, 
  0xC0, 0x07, 0xF8, 0x00, 0x00, 0x3E, 0xC0, 0x07, 0x00, 0xF8, 0x01, 0x3E, 
  0x00, 0xC0, 0x07, 0x80, 0x3F, 0xF8, 0x03, 0x00, 0x00, 0xF8, 0x01, 0x00, 
  0x3F, 0xC0, 0x07, 0x00, 0xF0, 0x01, 0x3E, 0x00, 0xC0, 0x07, 0xF8, 0x00, 
  0x00, 0x3E, 0xC0, 0x07, 0x00, 0xFC, 0x01, 0x3E, 0x00, 0xC0, 0x07, 0x00, 
  0x7F, 0xFC, 0x01, 0x00, 0x00, 0xF8, 0x00, 0x00, 0x3E, 0xC0, 0x07, 0x00, 
  0xF0, 0x01, 0x3E, 0x00, 0xC0, 0x07, 0xF8, 0x00, 0x00, 0x3E, 0xC0, 0x07, 
  0x00, 0xFE, 0x00, 0x3E, 0x00, 0xC0, 0x07, 0x00, 0xFE, 0xFE, 0x00, 0x00, 
  0x00, 0xF8, 0x00, 0x00, 0x3E, 0xC0, 0x07, 0x00, 0xF0, 0x01, 0x3E, 0x00, 
  0xC0, 0x07, 0xF8, 0x00, 0x00, 0x3E, 0xC0, 0x07, 0x00, 0xFF, 0x00, 0x3E, 
  0x00, 0xC0, 0x07, 0x00, 0xFC, 0x7F, 0x00, 0x00, 0x00, 0xF8, 0xFF, 0xFF, 
  0x3F, 0xC0, 0x07, 0x00, 0xF0, 0x01, 0x3E, 0x00, 0xC0, 0x07, 0xF8, 0x00, 
  0x00, 0x3E, 0xC0, 0xFF, 0xFF, 0x7F, 0x00, 0x3E, 0x00, 0xC0, 0x07, 0x00, 
  0xF8, 0x3F, 0x00, 0x00, 0x00, 0xF8, 0xFF, 0xFF, 0x3F, 0xC0, 0x07, 0x00, 
  0xF0, 0x01, 0x3E, 0x00, 0xC0, 0x07, 0xF8, 0x00, 0x00, 0x3E, 0xC0, 0xFF, 
  0xFF, 0x3F, 0x00, 0x3E, 0x00, 0xC0, 0x07, 0x00, 0xF0, 0x1F, 0x00, 0x00, 
  0x00, 0xF8, 0xFF, 0xFF, 0x3F, 0xC0, 0x07, 0x00, 0xF8, 0x01, 0x3E, 0x00, 
  0xC0, 0x07, 0xF8, 0x00, 0x00, 0x3E, 0xC0, 0xFF, 0xFF, 0x0F, 0x00, 0x3E, 
  0x00, 0xC0, 0x07, 0x00, 0xE0, 0x0F, 0x00, 0x00, 0x00, 0xF8, 0xFF, 0xFF, 
  0x3F, 0xC0, 0x07, 0x00, 0xFC, 0x00, 0x3E, 0x00, 0xC0, 0x07, 0xF8, 0x00, 
  0x00, 0x3E, 0xC0, 0xFF, 0xFF, 0x1F, 0x00, 0x3E, 0x00, 0xC0, 0x07, 0x00, 
  0xC0, 0x07, 0x00, 0x00, 0x00, 0xF8, 0xFF, 0xFF, 0x3F, 0xC0, 0x07, 0x00, 
  0xFE, 0x00, 0x3E, 0x00, 0xC0, 0x07, 0xF8, 0x00, 0x00, 0x3E, 0xC0, 0xFF, 
  0xFF, 0x3F, 0x00, 0x3E, 0x00, 0xC0, 0x07, 0x00, 0xC0, 0x07, 0x00, 0x00, 
  0x00, 0xF8, 0x00, 0x00, 0x3E, 0xC0, 0x07, 0x00, 0x7F, 0x00, 0x3E, 0x00, 
  0xC0, 0x07, 0xF8, 0x00, 0x00, 0x3E, 0xC0, 0x07, 0x00, 0x7F, 0x00, 0x3E, 
  0x00, 0xC0, 0x07, 0x00, 0xC0, 0x07, 0x00, 0x00, 0x00, 0xF8, 0x00, 0x00, 
  0x3E, 0xC0, 0xFF, 0xFF, 0x3F, 0x00, 0x3E, 0x00, 0xC0, 0x07, 0xF8, 0x00, 
  0x00, 0x3E, 0xC0, 0x07, 0x00, 0xFE, 0x00, 0x3E, 0x00, 0xC0, 0x07, 0x00, 
  0xC0, 0x07, 0x00, 0x00, 0x00, 0xF8, 0x00, 0x00, 0x3E, 0xC0, 0xFF, 0xFF, 
  0x1F, 0x00, 0x3E, 0x00, 0xC0, 0x07, 0xF8, 0x00, 0x00, 0x3E, 0xC0, 0x07, 
  0x00, 0xFC, 0x01, 0x3E, 0x00, 0xC0, 0x07, 0x00, 0xC0, 0x07, 0x00, 0x00, 
  0x00, 0xF8, 0x00, 0x00, 0x3E, 0xC0, 0xFF, 0xFF, 0x0F, 0x00, 0x3E, 0x00, 
  0xC0, 0x07, 0xF8, 0x00, 0x00, 0x3E, 0xC0, 0x07, 0x00, 0xF8, 0x01, 0x3E, 
  0x00, 0xC0, 0x07, 0x00, 0xC0, 0x07, 0x00, 0x00, 0x00, 0xF8, 0x00, 0x00, 
  0x3E, 0xC0, 0xFF, 0xFF, 0x07, 0x00, 0x3E, 0x00, 0xC0, 0x07, 0xF8, 0x00, 
  0x00, 0x3E, 0xC0, 0x07, 0x00, 0xF8, 0x01, 0x3E, 0x00, 0xC0, 0x07, 0x00, 
  0xC0, 0x07, 0x00, 0x00, 0x00, 0xF8, 0x00, 0x00, 0x3E, 0xC0, 0xFF, 0xFF, 
  0x03, 0x00, 0x3E, 0x00, 0xC0, 0x07, 0xF8, 0x00, 0x00, 0x3E, 0xC0, 0x07, 
  0x00, 0xF0, 0x01, 0x3E, 0x00, 0xC0, 0x07, 0x00, 0xC0, 0x07, 0x00, 0x00, 
  0x00, 0xF8, 0x00, 0x00, 0x3E, 0xC0, 0x07, 0xF8, 0x03, 0x00, 0x3E, 0x00, 
  0xC0, 0x07, 0xF8, 0x00, 0x00, 0x3E, 0xC0, 0x07, 0x00, 0xF0, 0x01, 0x3E, 
  0x00, 0xC0, 0x07, 0x00, 0xC0, 0x07, 0x00, 0x00, 0x00, 0xF8, 0x00, 0x00, 
  0x3E, 0xC0, 0x07, 0xF0, 0x07, 0x00, 0x3E, 0x00, 0xC0, 0x07, 0xF8, 0x00, 
  0x00, 0x3E, 0xC0, 0x07, 0x00, 0xF8, 0x01, 0x3E, 0x00, 0xC0, 0x07, 0x00, 
  0xC0, 0x07, 0x00, 0x00, 0x00, 0xF8, 0x00, 0x00, 0x3E, 0xC0, 0x07, 0xE0, 
  0x0F, 0x00, 0x3E, 0x00, 0xE0, 0x07, 0xF8, 0x01, 0x00, 0x3F, 0xC0, 0x07, 
  0x00, 0xF8, 0x01, 0x7E, 0x00, 0xE0, 0x07, 0x00, 0xC0, 0x07, 0x00, 0x00, 
  0x00, 0xF8, 0x00, 0x00, 0x3E, 0xC0, 0x07, 0xC0, 0x1F, 0x00, 0x3E, 0x00, 
  0xF0, 0x07, 0xF8, 0x03, 0x80, 0x3F, 0xC0, 0x07, 0x00, 0xFC, 0x00, 0x7E, 
  0x00, 0xF0, 0x07, 0x00, 0xC0, 0x07, 0x00, 0x00, 0x00, 0xF8, 0x00, 0x00, 
  0x3E, 0xC0, 0x07, 0x80, 0x3F, 0x00, 0x3E, 0x00, 0xF8, 0x07, 0xF0, 0x07, 
  0xC0, 0x1F, 0xC0, 0x07, 0x00, 0xFE, 0x00, 0xFE, 0x00, 0xF8, 0x03, 0x00, 
  0xC0, 0x07, 0x00, 0x00, 0x00, 0xF8, 0x00, 0x00, 0x3E, 0xC0, 0x07, 0x00, 
  0x7F, 0x00, 0xFE, 0xFF, 0xFF, 0x01, 0xE0, 0xFF, 0xFF, 0x0F, 0xC0, 0xFF, 
  0xFF, 0x7F, 0x00, 0xFC, 0xFF, 0xFF, 0x01, 0x00, 0xC0, 0x07, 0x00, 0x00, 
  0x00, 0xF8, 0x00, 0x00, 0x3E, 0xC0, 0x07, 0x00, 0xFE, 0x00, 0xFE, 0xFF, 
  0xFF, 0x00, 0xC0, 0xFF, 0xFF, 0x07, 0xC0, 0xFF, 0xFF, 0x3F, 0x00, 0xF8, 
  0xFF, 0xFF, 0x00, 0x00, 0xC0, 0x07, 0x00, 0x00, 0x00, 0xF8, 0x00, 0x00, 
  0x3E, 0xC0, 0x07, 0x00, 0xFC, 0x01, 0xFE, 0xFF, 0x7F, 0x00, 0x80, 0xFF, 
  0xFF, 0x03, 0xC0, 0xFF, 0xFF, 0x1F, 0x00, 0xF0, 0xFF, 0x7F, 0x00, 0x00, 
  0xC0, 0x07, 0x00, 0x00, 0x00, 0xF8, 0x00, 0x00, 0x3E, 0xC0, 0x07, 0x00, 
  0xF8, 0x01, 0xFE, 0xFF, 0x3F, 0x00, 0x00, 0xFF, 0xFF, 0x01, 0xC0, 0xFF, 
  0xFF, 0x0F, 0x00, 0xE0, 0xFF, 0x3F, 0x00, 0x00, 0xC0, 0x07, 0x00, 0x00, 
  0x00, 0xF8, 0x00, 0x00, 0x3E, 0xC0, 0x07, 0x00, 0xF0, 0x00, 0xFE, 0xFF, 
  0x1F, 0x00, 0x00, 0xFE, 0xFF, 0x00, 0xC0, 0xFF, 0xFF, 0x07, 0x00, 0xC0, 
  0xFF, 0x1F, 0x00, 0x00, 0xC0, 0x07, 0x00, 0x00, 0x00, 0x70, 0x00, 0x00, 
  0x1C, 0x80, 0x03, 0x00, 0x60, 0x00, 0xFC, 0xFF, 0x0F, 0x00, 0x00, 0xFC, 
  0x7F, 0x00, 0x80, 0xFF, 0xFF, 0x03, 0x00, 0x80, 0xFF, 0x0F, 0x00, 0x00, 
  0x80, 0x03, 0x00, 0x00, 0x00, 0x00, 0x00, 0x00, 0x00, 0x00, 0x00, 0x00, 
  0x00, 0x00, 0x00, 0x00, 0x00, 0x00, 0x00, 0x00, 0x00, 0x00, 0x00, 0x00, 
  0x00, 0x00, 0x00, 0x00, 0x00, 0x00, 0x00, 0x00, 0x00, 0x00, 0x00, 0x00, 
  0x00, 0x00, 0x00, 0x00, 0x00, 0x00, 0x00, 0x00, 0x00, 0x00, 0x00, 0x00, 
  0x00, 0x00, 0x00, 0x00, 0x00, 0x00, 0x00, 0x00, 0x00, 0x00, 0x00, 0x00, 
  0x00, 0x00, 0x00, 0x00, 0x00, 0x00, 0x00, 0x00, 0x00, 0x00, 0x00, 0x00, 
  0x00, 0x00, 0x00, 0x00, 0x00, 0x00, 0x00, 0x00, 0x00, 0x00, 0x00, 0x00, 
  0x00, 0x00, 0x00, 0x00, 0x00, 0x00, 0x00, 0x00, 0x00, 0x00, 0x00, 0x00, 
  0x00, 0x00, 0x00, 0x00, 0x00, 0x00, 0x00, 0x00, 0x00, 0x00, 0x00, 0x00, 
  0x00, 0x00, 0x00, 0x00, 0x00, 0x00, 0x00, 0x00, 0x00, 0x00, 0x00, 0x00, 
  0x00, 0x00, 0x00, 0x00, 0x00, 0x00, 0x00, 0x00, 0x00, 0x00, 0x00, 0x00, 
  0x00, 0x00, 0x00, 0x00, 0x00, 0x00, 0x00, 0x00, 0x00, 0x00, 0x00, 0x00, 
  0x00, 0x00, 0x00, 0x00, 0x00, 0x00, 0x00, 0x00, 0x00, 0x00, 0x00, 0x00, 
  0x00, 0x00, 0x00, 0x00, 0x00, 0x00, 0x00, 0x00, 0x00, 0x00, 0x00, 0x00, 
  0x00, 0x00, 0x00, 0x00, 0x00, 0x00, 0x00, 0x00, 0x00, 0x00, 0x00, 0x00, 
  0x00, 0x00, 0x00, 0x00, 0x00, 0x00, 0x00, 0x00, 0x00, 0x00, 0x00, 0x00, 
  0x00, 0x00, 0x00, 0x00, 0x00, 0x00, 0x00, 0x00, 0x00, 0x00, 0x00, 0x00, 
  0x00, 0x00, 0x00, 0x00, 0x00, 0x00, 0x00, 0x00, 0x00, 0x00, 0x00, 0x00, 
  0x00, 0x00, 0x00, 0x00, 0x00, 0x00, 0x00, 0x00, 0x00, 0x00, 0x00, 0x00, 
  0x00, 0x00, 0x00, 0x00, 0x00, 0x00, 0x00, 0x00, 0x00, 0x00, 0x00, 0x00, 
  0x00, 0x00, 0x00, 0x00, 0x00, 0x00, 0x00, 0x00, 0x00, 0x00, 0x00, 0x00, 
  0x00, 0x00, 0x00, 0x00, 0x00, 0x00, 0x00, 0x00, 0x00, 0x00, 0x00, 0x00, 
  0x00, 0x00, 0x00, 0x00, 0x00, 0x00, 0x00, 0x00, 0x00, 0x00, 0x00, 0x00, 
  0x00, 0x00, 0x00, 0x00, 0x00, 0x00, 0x00, 0x00, 0x00, 0x00, 0x00, 0x00, 
  0x00, 0x00, 0x00, 0x00, 0x00, 0x00, 0x00, 0x00, 0x00, 0x00, 0x00, 0x00, 
  0x00, 0x00, 0x00, 0x00, 0x00, 0x00, 0x00, 0x00, 0x00, 0x00, 0x00, 0x00, 
  0x00, 0x00, 0x00, 0x00, 0x00, 0x00, 0x00, 0x00, 0x00, 0x00, 0x00, 0x00, 
  0x00, 0x00, 0x00, 0x00, 0x00, 0x00, 0x00, 0x00, 0x00, 0x00, 0x00, 0x00, 
  0x00, 0x00, 0x00, 0x00, 0x00, 0x00, 0x00, 0x00, 0x00, 0x00, 0x00, 0x00, 
  0x00, 0x00, 0x00, 0x00, 0x00, 0x00, 0x00, 0x00, 0x00, 0x00, 0x00, 0x00, 
  0x00, 0x00, 0x00, 0x00, 0x00, 0x00, 0x00, 0x00, 0x00, 0x00, 0x00, 0x00, 
  0x00, 0x00, 0x00, 0x00, 0x00, 0x00, 0x00, 0x00, 0x00, 0x00, 0x00, 0x00, 
  0x00, 0x00, 0x00, 0x00, 0x00, 0x00, 0x00, 0x00, 0x00, 0x00, 0x00, 0x00, 
  0x00, 0x00, 0x00, 0x00, 0x00, 0x00, 0x00, 0x00, 0x00, 0x00, 0x00, 0x00, 
  0x00, 0x00, 0x00, 0x00, 0x00, 0x00, 0x00, 0x00, 0x00, 0x00, 0x00, 0x00, 
  0x00, 0x00, 0x00, 0x00, 0x00, 0x00, 0x00, 0x00, 0x00, 0x00, 0x00, 0x00, 
  0x00, 0x00, 0x00, 0x00, 0x00, 0x00, 0x00, 0x00, 0x00, 0x00, 0x00, 0x00, 
  0x00, 0x00, 0x00, 0x00, 0x00, 0x00, 0x00, 0x00, };
