#define _width 256
#define _height 64
static char _bits[] = {
 0x00,0x00,0x00,0x00,0x00,0x00,0x00,0x00,0x00,0x00,0x00,0x00,
 0x00,0x00,0x00,0x00,0x00,0x00,0x00,0x00,0x00,0x00,0x00,0x00,
 0x00,0x00,0x00,0x00,0x00,0x00,0x00,0x00,0x00,0x00,0x00,0x00,
 0x00,0x00,0x00,0x00,0x00,0x00,0x00,0x00,0x00,0x00,0x00,0x00,
 0x00,0x00,0x00,0x00,0x00,0x00,0x00,0x00,0x00,0x00,0x00,0x00,
 0x00,0x00,0x00,0x00,0x00,0x00,0x00,0x00,0x00,0x00,0x00,0x00,
 0x00,0x00,0x00,0x00,0x00,0x00,0x00,0x00,0x00,0x00,0x00,0x00,
 0x00,0x00,0x00,0x00,0x00,0x00,0x00,0x00,0x00,0x00,0x00,0x00,
 0x00,0x00,0x00,0x00,0x00,0x00,0x00,0x00,0x00,0x00,0x00,0x00,
 0x00,0x00,0x00,0x00,0x00,0x00,0x00,0x00,0x00,0x00,0x00,0x00,
 0x00,0x00,0x00,0x00,0x00,0x00,0x00,0x00,0x00,0x00,0x00,0x00,
 0x00,0x00,0x00,0x00,0x00,0x00,0x00,0x00,0x00,0x00,0x00,0x00,
 0x00,0x00,0x00,0x00,0x00,0x00,0x00,0x00,0x00,0x00,0x00,0x00,
 0x00,0x00,0x00,0x00,0x00,0x00,0x00,0x00,0x00,0x00,0x00,0x00,
 0x00,0x00,0x00,0x00,0x00,0x00,0x00,0x00,0x00,0x00,0x00,0x00,
 0x00,0x00,0x00,0x00,0x00,0x00,0x00,0x00,0x00,0x00,0x00,0x00,
 0x00,0x00,0x00,0x00,0x00,0x00,0x00,0x00,0x00,0x00,0x00,0x00,
 0x00,0x00,0x00,0x00,0x00,0x00,0x00,0x00,0x00,0x00,0x00,0x00,
 0x00,0x00,0x00,0x00,0x00,0x00,0x00,0x00,0x00,0x00,0x00,0x00,
 0x00,0x00,0x00,0x00,0x00,0x00,0x00,0x00,0x00,0x00,0x00,0x00,
 0x00,0x00,0x00,0x00,0x00,0x00,0x00,0x00,0x00,0x00,0x00,0x00,
 0x00,0x00,0x00,0x00,0x00,0x00,0x00,0x00,0x00,0x00,0x00,0x00,
 0x00,0x00,0x00,0x00,0x00,0x00,0x00,0x00,0x00,0x00,0x00,0x00,
 0x00,0x00,0x00,0x00,0x00,0x00,0x00,0x00,0x00,0x00,0x00,0x00,
 0x00,0x00,0x00,0x00,0x00,0x00,0x00,0x00,0x00,0x00,0x00,0x00,
 0x00,0x00,0x00,0x00,0x00,0x00,0x00,0x00,0x00,0x00,0x00,0x00,
 0x00,0x00,0x00,0x00,0x00,0x00,0x00,0x00,0x00,0x00,0x10,0x00,
 0x00,0x00,0x00,0x00,0x00,0x00,0x00,0x00,0x00,0x00,0x00,0x00,
 0x00,0x00,0x00,0x00,0x00,0x00,0x00,0x00,0x00,0x00,0x00,0x00,
 0x00,0x00,0x00,0x00,0x00,0x00,0x10,0x00,0x00,0x00,0x00,0x00,
 0x0c,0x80,0xff,0xff,0xf1,0xff,0x3f,0xfe,0xff,0xc7,0xff,0xff,
 0xf8,0xff,0x1f,0xff,0xff,0xe3,0x7f,0x00,0xfc,0xff,0x0f,0x00,
 0x00,0x00,0x3c,0x00,0x00,0x00,0x00,0x00,0x1e,0x80,0xff,0xff,
 0xf1,0xff,0x3f,0xfe,0xff,0xc7,0xff,0xff,0xf8,0xff,0x1f,0xff,
 0xff,0xe3,0xff,0x00,0xfc,0xff,0x0f,0x00,0x00,0x00,0x26,0x00,
 0x00,0x00,0x00,0x00,0x33,0x80,0x01,0x00,0x00,0x30,0x00,0x06,
 0x00,0xc0,0x00,0xc0,0x18,0x00,0x18,0x00,0x03,0x60,0xc0,0x01,
 0x0c,0x00,0x00,0x00,0x00,0x80,0x23,0x00,0x00,0x00,0x00,0x80,
 0x61,0x80,0x01,0x00,0x00,0x30,0x00,0x06,0x00,0xc0,0x00,0xc0,
 0x18,0x00,0x18,0x00,0x03,0x60,0x00,0x03,0x0c,0x00,0x00,0x00,
 0x00,0x00,0x63,0x00,0x00,0x00,0x00,0xc0,0xc0,0x80,0x01,0x00,
 0x00,0x30,0x00,0x06,0x00,0xc0,0x00,0xc0,0x18,0x00,0x18,0x00,
 0x03,0x60,0x00,0x06,0x0c,0x00,0x00,0x00,0x00,0x00,0x4c,0x00,
 0x00,0x00,0x00,0x60,0x80,0x81,0x01,0x00,0x00,0x30,0x00,0x06,
 0x00,0xc0,0x00,0xc0,0x18,0x00,0x18,0x00,0x03,0x60,0x00,0x0c,
 0x0c,0x00,0x00,0x00,0x00,0x00,0x70,0x00,0x00,0x00,0x00,0x38,
 0x00,0x87,0x01,0x00,0x00,0x30,0x00,0x06,0x00,0xc0,0x00,0xc0,
 0x18,0x00,0x18,0x00,0x03,0x60,0x00,0x10,0x0c,0x00,0x00,0x00,
 0x00,0x00,0x40,0x00,0x00,0x00,0x00,0x1c,0x00,0x8e,0x01,0x00,
 0x00,0x30,0x00,0x06,0x00,0xc0,0x00,0xc0,0x18,0x00,0x18,0x00,
 0x03,0x60,0x00,0x60,0x0c,0x00,0x00,0x00,0x00,0x00,0x00,0x00,
 0x00,0x00,0x00,0x0c,0x00,0x8c,0x01,0x00,0x00,0x30,0x00,0x06,
 0x00,0xc0,0x00,0xc0,0x18,0x00,0x18,0x00,0x03,0x60,0x00,0x60,
 0x0c,0x00,0x00,0x00,0x00,0x00,0x00,0x00,0x00,0x00,0x00,0x0c,
 0x00,0x8c,0x01,0x00,0x00,0x30,0x00,0x06,0x00,0xc0,0x00,0xc0,
 0x18,0x00,0x18,0x00,0x03,0x60,0x00,0x60,0x0c,0x00,0x00,0x00,
 0x00,0x00,0x00,0x00,0x00,0x00,0x00,0x0c,0x00,0x8c,0x01,0x00,
 0x00,0x30,0x00,0x06,0x00,0xc0,0x00,0xc0,0x18,0x00,0x18,0x00,
 0x03,0x60,0x00,0x60,0x0c,0x00,0x00,0x00,0x00,0x00,0x00,0x00,
 0x00,0x00,0x00,0x0c,0x00,0x8c,0x01,0x00,0x00,0x30,0x00,0x06,
 0x00,0xc0,0x00,0xc0,0x18,0x00,0x18,0x00,0x03,0x60,0x00,0x60,
 0x0c,0x00,0x00,0x00,0x00,0x00,0x00,0x00,0x00,0x00,0x00,0x0c,
 0x00,0x8c,0xff,0xff,0x01,0x30,0x00,0xfe,0x7f,0xc0,0xff,0xff,
 0x18,0x00,0x18,0x00,0x03,0x60,0x00,0x60,0xfc,0xff,0x0f,0x00,
 0x00,0x00,0x00,0x08,0x00,0x00,0x00,0x0c,0x00,0x8c,0xff,0xff,
 0x01,0x30,0x00,0xfe,0x7f,0xc0,0xff,0xff,0x18,0x00,0x18,0x00,
 0x03,0x60,0x00,0x60,0xfc,0xff,0x0f,0x00,0x00,0x00,0x00,0x1c,
 0x00,0x00,0x00,0x0c,0x00,0x0c,0x00,0x80,0x01,0x30,0x00,0x06,
 0x00,0xc0,0x07,0x00,0x18,0x00,0x18,0x00,0x03,0x60,0x00,0x60,
 0x00,0x00,0x0c,0x00,0x00,0x00,0x00,0x08,0x00,0x00,0x00,0x0c,
 0x00,0x0c,0x00,0x80,0x01,0x30,0x00,0x06,0x00,0xc0,0x0e,0x00,
 0x18,0x00,0x18,0x00,0x03,0x60,0x00,0x60,0x00,0x00,0x0c,0x00,
 0x00,0x00,0x00,0x00,0x00,0x00,0x00,0xfc,0xff,0x0f,0x00,0x80,
 0x01,0x30,0x00,0x06,0x00,0xc0,0x1c,0x00,0x18,0x00,0x18,0x00,
 0x03,0x60,0x00,0x60,0x00,0x00,0x0c,0x00,0x00,0x00,0x00,0x00,
 0x00,0x00,0x00,0xfc,0xff,0x0f,0x00,0x80,0x01,0x30,0x00,0x06,
 0x00,0xc0,0x70,0x00,0x18,0x00,0x18,0x00,0x03,0x60,0x00,0x30,
 0x00,0x00,0x0c,0x00,0x00,0x00,0x00,0x00,0x00,0x00,0x00,0x0c,
 0x00,0x0c,0x00,0x80,0x01,0x30,0x00,0x06,0x00,0xc0,0xe0,0x00,
 0x18,0x00,0x18,0x00,0x03,0x60,0x00,0x18,0x00,0x00,0x0c,0x00,
 0x00,0x00,0x00,0x00,0x00,0x00,0x00,0x0c,0x00,0x0c,0x00,0x80,
 0x01,0x30,0x00,0x06,0x00,0xc0,0xc0,0x01,0x18,0x00,0x18,0x00,
 0x03,0x60,0x00,0x0c,0x00,0x00,0x0c,0x00,0x00,0x00,0x00,0x00,
 0x01,0x00,0x00,0x0c,0x00,0x0c,0x00,0x80,0x01,0x30,0x00,0x06,
 0x00,0xc0,0x00,0x07,0x18,0x00,0x18,0x00,0x03,0x60,0x00,0x06,
 0x00,0x00,0x0c,0x00,0x00,0x00,0x00,0x80,0x03,0x00,0x00,0x0c,
 0x00,0x0c,0x00,0x80,0x01,0x30,0x00,0x06,0x00,0xc0,0x00,0x0e,
 0x18,0x00,0x18,0x00,0x03,0x60,0x00,0x03,0x00,0x00,0x0c,0x00,
 0x00,0x00,0x00,0x00,0x01,0x00,0x00,0x0c,0x00,0x0c,0x00,0x80,
 0x01,0x30,0x00,0x06,0x00,0xc0,0x00,0x1c,0x18,0x00,0x18,0x00,
 0x03,0x60,0x80,0x01,0x00,0x00,0x0c,0x00,0x00,0x00,0x00,0x00,
 0x00,0x00,0x00,0x0c,0x00,0x0c,0x00,0x80,0x01,0x30,0x00,0x06,
 0x00,0xc0,0x00,0x70,0x18,0x00,0x18,0x00,0x03,0x60,0xc0,0x00,
 0x00,0x00,0x0c,0x00,0x00,0x00,0x00,0x00,0x00,0x00,0x00,0x0c,
 0x00,0x8c,0xff,0xff,0x01,0x30,0x00,0xfe,0xff,0xc7,0x00,0xe0,
 0xf8,0xff,0x1f,0xff,0xff,0xe3,0x67,0x00,0xfc,0xff,0x0f,0x00,
 0x00,0x00,0x00,0x00,0x00,0x00,0x00,0x0c,0x00,0x8c,0xff,0xff,
 0x01,0x30,0x00,0xfe,0xff,0xc7,0x00,0xc0,0xf8,0xff,0x1f,0xff,
 0xff,0xe3,0x3f,0x00,0xfc,0xff,0x0f,0x00,0x00,0x00,0x00,0x00,
 0x40,0x00,0x00,0x00,0x00,0x00,0x00,0x00,0x00,0x00,0x00,0x00,
 0x00,0x00,0x00,0x00,0x00,0x00,0x00,0x00,0x00,0x00,0x00,0x00,
 0x00,0x00,0x00,0x00,0x00,0x00,0x00,0x00,0xe0,0x00,0x00,0x00,
 0x00,0x00,0x00,0x00,0x00,0x00,0x00,0x00,0x00,0x00,0x00,0x00,
 0x00,0x00,0x00,0x00,0x00,0x00,0x00,0x00,0x00,0x00,0x00,0x00,
 0x00,0x00,0x00,0x00,0x40,0x00,0x00,0x00,0x00,0x00,0x00,0x00,
 0x00,0x00,0x00,0x00,0x00,0x00,0x00,0x00,0x00,0x00,0x00,0x00,
 0x00,0x00,0x00,0x00,0x00,0x00,0x00,0x00,0x00,0x00,0x00,0x00,
 0x00,0x00,0x00,0x00,0x00,0x00,0x00,0x00,0x00,0x00,0x00,0x00,
 0x00,0x00,0x00,0x00,0x00,0x00,0x00,0x00,0x00,0x00,0x00,0x00,
 0x00,0x00,0x00,0x00,0x00,0x00,0x00,0x00,0x00,0x00,0x00,0x00,
 0x00,0x00,0x00,0x00,0x00,0x00,0x00,0x00,0x00,0x00,0x00,0x00,
 0x00,0x00,0x00,0x00,0x00,0x00,0x00,0x00,0x00,0x00,0x00,0x00,
 0x00,0x00,0x00,0x00,0x00,0x00,0x00,0x00,0x00,0x00,0x00,0x00,
 0x00,0x00,0x00,0x00,0x00,0x00,0x00,0x00,0x00,0x00,0x00,0x00,
 0x00,0x00,0x00,0x00,0x00,0x00,0x00,0x00,0x00,0x00,0x00,0x00,
 0x00,0x00,0x00,0x00,0x00,0x00,0x00,0x00,0x00,0x00,0x00,0x00,
 0x00,0x00,0x00,0x00,0x00,0x00,0x00,0x00,0x00,0x00,0x00,0x00,
 0x00,0x00,0x00,0x00,0x00,0x00,0x00,0x00,0x00,0x00,0x1f,0x00,
 0x00,0x00,0x00,0x00,0x00,0x00,0x00,0x00,0x00,0x00,0x00,0x00,
 0x00,0x00,0x00,0x00,0x00,0x00,0x00,0x00,0x00,0x00,0x00,0x00,
 0x00,0x00,0x00,0x00,0x00,0x80,0x19,0x00,0x00,0x00,0x00,0x00,
 0x00,0x00,0x00,0x00,0x00,0x00,0x00,0x00,0x00,0x00,0x00,0x00,
 0x00,0x00,0x00,0x00,0x00,0x00,0x00,0x00,0x00,0x00,0x00,0x00,
 0x00,0xc0,0x18,0x00,0x00,0x00,0x00,0x00,0x00,0x00,0x00,0x00,
 0x00,0x00,0x00,0x00,0x00,0x00,0x00,0x00,0x00,0x00,0x00,0x00,
 0x00,0x00,0x00,0x00,0x00,0x00,0x00,0x00,0x00,0xe0,0x3f,0x00,
 0x00,0x00,0x00,0x00,0x00,0x00,0x00,0x00,0x00,0x00,0x00,0x00,
 0x00,0x00,0x00,0x00,0x00,0x00,0x00,0x00,0x00,0x00,0x00,0x00,
 0x00,0x00,0x00,0x00,0x00,0x10,0x40,0x00,0x00,0x00,0x00,0x00,
 0x00,0x00,0x00,0x00,0x00,0x00,0x00,0x00,0x00,0x00,0x00,0x00,
 0x00,0x00,0x00,0x00,0x00,0x00,0x00,0x00,0x00,0x00,0x00,0x00,
 0x00,0x1c,0xc0,0x01,0x00,0x00,0x00,0x00,0x00,0x00,0x00,0x00,
 0x00,0x00,0x00,0x00,0x00,0x00,0x00,0x00,0x00,0x00,0x00,0x00,
 0x00,0x00,0x00,0x00,0x00,0x00,0x00,0x00,0x00,0xfe,0xff,0x0f,
 0x00,0x00,0x00,0x00,0x00,0x00,0x00,0x00,0x00,0x00,0x00,0x00,
 0x00,0x00,0x00,0x00,0x00,0x00,0x00,0x00,0x00,0x00,0x00,0x00,
 0x00,0x00,0x00,0x00,0x00,0x1c,0xc0,0x01,0x00,0x00,0x00,0x00,
 0x00,0x00,0x00,0x00,0x00,0x00,0x00,0x00,0x00,0x00,0x00,0x00,
 0x00,0x00,0x00,0x00,0x00,0x00,0x00,0x00,0x00,0x00,0x00,0x00,
 0x00,0x10,0x40,0x00,0x00,0x00,0x00,0x00,0x00,0x00,0x00,0x00,
 0x00,0x00,0x00,0x00,0x00,0x00,0x00,0x00,0x00,0x00,0x00,0x00,
 0x00,0x00,0x00,0x00,0x00,0x00,0x00,0x00,0x00,0xe0,0x3f,0x00,
 0x00,0x00,0x00,0x00,0x00,0x00,0x00,0x00,0x00,0x00,0x00,0x00,
 0x00,0x00,0x00,0x00,0x00,0x00,0x00,0x00,0x00,0x00,0x00,0x00,
 0x00,0x00,0x00,0x00,0x00,0x00,0x00,0x00,0x00,0x00,0x00,0x00,
 0x00,0x00,0x00,0x00,0x00,0x00,0x00,0x00,0x00,0x00,0x00,0x00,
 0x00,0x00,0x00,0x00,0x00,0x00,0x00,0x00,0x00,0x00,0x00,0x00,
 0x00,0x00,0x00,0x00,0x00,0x00,0x00,0x00,0x00,0x00,0x00,0x00,
 0x00,0x00,0x00,0x00,0x00,0x00,0x00,0x00,0x00,0x00,0x00,0x00,
 0x00,0x00,0x00,0x00,0x00,0x00,0x00,0x00,0x00,0x00,0x00,0x00,
 0x00,0x00,0x00,0x00,0x00,0x00,0x00,0x00,0x00,0x00,0x00,0x00,
 0x00,0x00,0x00,0x00,0x00,0x00,0x00,0x00,0x00,0x00,0x00,0x00,
 0x00,0x00,0x00,0x00,0x00,0x00,0x00,0x00,0x00,0x00,0x00,0x00,
 0x00,0x00,0x00,0x00,0x00,0x00,0x00,0x00,0x00,0x00,0x00,0x00,
 0x00,0x00,0x00,0x00,0x00,0x00,0x00,0x00,0x00,0x00,0x00,0x00,
 0x00,0x00,0x00,0x00,0x00,0x00,0x00,0x00,0x00,0x00,0x00,0x00,
 0x00,0x00,0x00,0x00,0x00,0x00,0x00,0x00,0x00,0x00,0x00,0x00,
 0x00,0x00,0x00,0x00,0x00,0x00,0x00,0x00,0x00,0x00,0x00,0x00,
 0x00,0x00,0x00,0x00,0x00,0x00,0x00,0x00,0x00,0x00,0x00,0x00,
 0x00,0x00,0x00,0x00,0x00,0x00,0x00,0x00,0x00,0x00,0x00,0x00,
 0x00,0x00,0x00,0x00,0x00,0x00,0x00,0x00,0x00,0x00,0x00,0x00,
 0x00,0x00,0x00,0x00,0x00,0x00,0x00,0x00,0x00,0x00,0x00,0x00,
 0x00,0x00,0x00,0x00,0x00,0x00,0x00,0x00,0x00,0x00,0x00,0x00,
 0x00,0x00,0x00,0x00,0x00,0x00,0x00,0x00,0x00,0x00,0x00,0x00,
 0x00,0x00,0x00,0x00,0x00,0x00,0x00,0x00,0x00,0x00,0x00,0x00,
 0x00,0x00,0x00,0x00,0x00,0x00,0x00,0x00,0x00,0x00,0x00,0x00,
 0x00,0x00,0x00,0x00,0x00,0x00,0x00,0x00,0x00,0x00,0x00,0x00,
 0x00,0x00,0x00,0x00,0x00,0x00,0x00,0x00,0x00,0x00,0x00,0x00,
 0x00,0x00,0x00,0x00,0x00,0x00,0x00,0x00,0x00,0x00,0x00,0x00,
 0x00,0x00,0x00,0x00,0x00,0x00,0x00,0x00,0x00,0x00,0x00,0x00,
 0x00,0x00,0x00,0x00,0x00,0x00,0x00,0x00 };
