#define e26ec797d9a07f9feecb470829b36ea3d44534ef-o_width 256
#define e26ec797d9a07f9feecb470829b36ea3d44534ef-o_height 64
static char e26ec797d9a07f9feecb470829b36ea3d44534ef-o_bits[] = {
  0x00, 0x00, 0x00, 0x00, 0x00, 0x00, 0x00, 0x00, 0x00, 0x00, 0x00, 0x00, 
  0x00, 0x00, 0x00, 0x00, 0x00, 0x00, 0x00, 0x00, 0x00, 0x00, 0x00, 0x00, 
  0x00, 0x00, 0x00, 0x00, 0x00, 0x00, 0x00, 0x00, 0x00, 0x00, 0x00, 0x00, 
  0x00, 0x00, 0x00, 0x00, 0x00, 0x00, 0x00, 0x00, 0x00, 0x00, 0x00, 0x00, 
  0x00, 0x00, 0x00, 0x00, 0x00, 0x00, 0x00, 0x00, 0x00, 0x00, 0x00, 0x00, 
  0x00, 0x00, 0x00, 0x00, 0x00, 0x00, 0x00, 0x00, 0x00, 0x00, 0x00, 0x00, 
  0x00, 0x00, 0x00, 0x00, 0x00, 0x00, 0x00, 0x00, 0x00, 0x00, 0x00, 0x00, 
  0x00, 0x00, 0x00, 0x00, 0x00, 0x00, 0x00, 0x00, 0x00, 0x00, 0x00, 0x00, 
  0x00, 0x00, 0x00, 0x00, 0x00, 0x00, 0x00, 0x00, 0x00, 0x00, 0x00, 0x00, 
  0x00, 0x00, 0x00, 0x00, 0x00, 0x00, 0x00, 0x00, 0x00, 0x00, 0x00, 0x00, 
  0x00, 0x00, 0x00, 0x00, 0x00, 0x00, 0x00, 0x00, 0x00, 0x00, 0x00, 0x00, 
  0x00, 0x00, 0x00, 0x00, 0x00, 0x00, 0x00, 0x00, 0x00, 0x00, 0x00, 0x00, 
  0x00, 0x00, 0x00, 0x00, 0x00, 0x00, 0x00, 0x00, 0x00, 0x00, 0x00, 0x00, 
  0x00, 0x00, 0x00, 0x00, 0x00, 0x00, 0x00, 0x00, 0x00, 0x00, 0x00, 0x00, 
  0x00, 0x00, 0x00, 0x00, 0x00, 0x00, 0x00, 0x00, 0x00, 0x00, 0x00, 0x00, 
  0x00, 0x00, 0x00, 0x00, 0x00, 0x00, 0x00, 0x00, 0x00, 0x00, 0x00, 0x00, 
  0x00, 0x00, 0x00, 0x00, 0x00, 0x00, 0x00, 0x00, 0x00, 0x00, 0x00, 0x00, 
  0x00, 0x00, 0x00, 0x00, 0x00, 0x00, 0x00, 0x00, 0x00, 0x00, 0x00, 0x00, 
  0x00, 0x00, 0x00, 0x00, 0x00, 0x00, 0x00, 0x00, 0x00, 0x00, 0x00, 0x00, 
  0x00, 0x00, 0x00, 0x00, 0x00, 0x00, 0x00, 0x00, 0x00, 0x00, 0x00, 0x00, 
  0x00, 0x00, 0x00, 0x00, 0x00, 0x00, 0x00, 0x00, 0x00, 0x00, 0x00, 0x00, 
  0x00, 0x00, 0x00, 0x00, 0x00, 0x00, 0x00, 0x00, 0x00, 0x00, 0x00, 0x00, 
  0x00, 0x00, 0x00, 0x00, 0x00, 0x00, 0x00, 0x00, 0x00, 0x00, 0x00, 0x00, 
  0x00, 0x00, 0x00, 0x00, 0x00, 0x00, 0x00, 0x00, 0x00, 0x00, 0x00, 0x00, 
  0x00, 0x00, 0x00, 0x00, 0x00, 0x00, 0x00, 0x00, 0x00, 0x00, 0x00, 0x00, 
  0x00, 0x00, 0x00, 0x00, 0x00, 0x00, 0x00, 0x00, 0x00, 0x00, 0x00, 0x00, 
  0x00, 0x00, 0x00, 0x00, 0x00, 0x00, 0x00, 0x00, 0x00, 0x00, 0x00, 0x00, 
  0x00, 0x00, 0x00, 0x00, 0x00, 0x00, 0x00, 0x00, 0x00, 0x00, 0x00, 0x00, 
  0x00, 0x00, 0x00, 0x00, 0x00, 0x00, 0x00, 0x00, 0x00, 0x00, 0x00, 0x00, 
  0x00, 0x00, 0x00, 0x00, 0x00, 0x00, 0x00, 0x00, 0x00, 0x00, 0x00, 0x00, 
  0x00, 0x00, 0x00, 0x00, 0x00, 0x00, 0x00, 0x00, 0x00, 0x00, 0x00, 0x00, 
  0x00, 0x00, 0x00, 0x00, 0x00, 0x00, 0x00, 0x00, 0x00, 0x00, 0x00, 0x00, 
  0x00, 0x00, 0x00, 0x00, 0x00, 0x00, 0x00, 0x00, 0x00, 0x00, 0x00, 0x00, 
  0x00, 0x00, 0x00, 0x00, 0x00, 0x00, 0x00, 0x00, 0x00, 0x00, 0x00, 0x00, 
  0x00, 0x00, 0x00, 0x00, 0x00, 0x00, 0x00, 0x00, 0x00, 0x00, 0x00, 0x00, 
  0x00, 0x00, 0x00, 0xF8, 0x07, 0x00, 0x00, 0xE0, 0x03, 0xFC, 0x01, 0x00, 
  0x00, 0xF0, 0x3F, 0xE0, 0xEF, 0xDF, 0x8F, 0xFF, 0xF8, 0x00, 0x00, 0x00, 
  0x00, 0x00, 0x00, 0x00, 0x00, 0x00, 0x00, 0x00, 0x00, 0x00, 0x00, 0x0F, 
  0x3C, 0xFC, 0xFF, 0x3F, 0x7E, 0x07, 0x87, 0x3F, 0x00, 0x1E, 0xE0, 0x39, 
  0x38, 0x70, 0xD8, 0x80, 0x8F, 0x01, 0x00, 0x00, 0x00, 0x00, 0x00, 0x00, 
  0x00, 0x00, 0x00, 0x00, 0x00, 0x00, 0xC0, 0x01, 0xE0, 0x87, 0x00, 0x18, 
  0xC0, 0x01, 0xCC, 0x60, 0x00, 0x03, 0x00, 0x0F, 0x00, 0x00, 0x70, 0x00, 
  0x00, 0x01, 0x00, 0x00, 0x00, 0x00, 0x00, 0x00, 0x00, 0x00, 0x00, 0x00, 
  0x00, 0x00, 0x60, 0xE0, 0x81, 0x01, 0x00, 0x90, 0x80, 0x70, 0x78, 0xC0, 
  0xC0, 0xC1, 0x0F, 0x80, 0x83, 0x07, 0x33, 0x3E, 0x20, 0x01, 0x00, 0x00, 
  0x00, 0x00, 0x00, 0x00, 0x00, 0x00, 0x00, 0x00, 0x00, 0x00, 0x30, 0xFC, 
  0x0F, 0x30, 0xFE, 0x93, 0x1F, 0xFC, 0x11, 0x8E, 0x61, 0xF8, 0x7F, 0xE0, 
  0xE1, 0xFF, 0x13, 0xFF, 0x1F, 0x01, 0x00, 0x00, 0x00, 0x00, 0x00, 0x00, 
  0x00, 0x00, 0x00, 0x00, 0x00, 0x00, 0x18, 0xFF, 0x3F, 0x1C, 0xFE, 0x91, 
  0x1F, 0xFE, 0x03, 0x1F, 0x23, 0xFC, 0xFF, 0xF9, 0xE0, 0xFF, 0x81, 0xFF, 
  0x8F, 0x01, 0x00, 0x00, 0x00, 0x00, 0x00, 0x00, 0x00, 0x00, 0x00, 0x00, 
  0x00, 0x00, 0x8C, 0xFF, 0x7F, 0x0F, 0xFF, 0x98, 0x1F, 0xFE, 0xC3, 0x3F, 
  0x32, 0xFF, 0xFF, 0x7F, 0xF0, 0xFF, 0xC8, 0xFE, 0xC7, 0x00, 0x00, 0x00, 
  0x00, 0x00, 0x00, 0x00, 0x00, 0x00, 0x00, 0x00, 0x00, 0x00, 0xC6, 0x07, 
  0xFF, 0x8F, 0x7B, 0x9C, 0x1F, 0xE0, 0xE7, 0x7F, 0x1E, 0x7F, 0xFE, 0x7F, 
  0x08, 0xFF, 0x0C, 0xF0, 0x67, 0x00, 0x00, 0x00, 0x00, 0x00, 0x00, 0x00, 
  0x00, 0x00, 0x00, 0x00, 0x00, 0x00, 0xE2, 0x01, 0xFE, 0x87, 0x70, 0x96, 
  0x9F, 0xE0, 0x7F, 0x7E, 0x8C, 0x0F, 0xF0, 0x3F, 0x00, 0x78, 0x1C, 0x80, 
  0x27, 0x00, 0x00, 0x00, 0x00, 0x00, 0x00, 0x00, 0x00, 0x00, 0x00, 0x00, 
  0x00, 0x00, 0xF3, 0x00, 0xFE, 0x03, 0x38, 0x92, 0x9F, 0xC7, 0x1F, 0xFE, 
  0xCC, 0x03, 0xF8, 0x3F, 0x63, 0x78, 0xF6, 0x87, 0x27, 0x00, 0x00, 0x00, 
  0x00, 0x00, 0x00, 0x00, 0x00, 0x00, 0x00, 0x00, 0x00, 0x00, 0x71, 0x00, 
  0xFB, 0x33, 0x1C, 0x9F, 0x9F, 0xCC, 0x0F, 0xFC, 0xC0, 0x01, 0x1C, 0x3F, 
  0x7F, 0x7C, 0x02, 0xCF, 0x27, 0x00, 0x00, 0x00, 0x00, 0x00, 0x00, 0x00, 
  0x00, 0x00, 0x00, 0x00, 0x00, 0x00, 0x39, 0xF8, 0xF3, 0x33, 0x9E, 0x87, 
  0x8F, 0xC6, 0xC7, 0xF8, 0xE1, 0xE0, 0x0F, 0x3F, 0x41, 0x3E, 0xC2, 0xC1, 
  0x27, 0x00, 0x00, 0x00, 0x00, 0x00, 0x00, 0x00, 0x00, 0x00, 0x00, 0x00, 
  0x00, 0x00, 0x39, 0xFC, 0xF1, 0x13, 0x8F, 0xC1, 0xCF, 0xE3, 0xE7, 0xF1, 
  0xE3, 0xF0, 0x0F, 0x3F, 0x41, 0x7E, 0x62, 0xC0, 0x27, 0x00, 0x00, 0x00, 
  0x00, 0x00, 0x00, 0x00, 0x00, 0x00, 0x00, 0x00, 0x00, 0x00, 0x39, 0xF2, 
  0xF1, 0x93, 0xCF, 0xF0, 0xCF, 0xF1, 0x27, 0xE3, 0x63, 0x80, 0x07, 0x3F, 
  0x71, 0x7E, 0x22, 0xFC, 0x27, 0x00, 0x00, 0x00, 0x00, 0x00, 0x00, 0x00, 
  0x00, 0x00, 0x00, 0x00, 0x00, 0x00, 0x19, 0xE0, 0xE0, 0x83, 0xC7, 0xFC, 
  0x4F, 0xF8, 0xA7, 0xE1, 0x61, 0x86, 0x23, 0x3F, 0x1D, 0x7E, 0x22, 0xFF, 
  0x27, 0x00, 0x00, 0x00, 0x00, 0x00, 0x00, 0x00, 0x00, 0x00, 0x00, 0x00, 
  0x00, 0x00, 0x99, 0x70, 0xE4, 0xC3, 0xE7, 0x80, 0x0F, 0xDC, 0xE7, 0x70, 
  0x60, 0xCE, 0x31, 0x3F, 0x07, 0x7F, 0x22, 0xE0, 0x27, 0x00, 0x00, 0x00, 
  0x00, 0x00, 0x00, 0x00, 0x00, 0x00, 0x00, 0x00, 0x00, 0x00, 0x99, 0x71, 
  0xE6, 0xC3, 0xA7, 0x81, 0x0F, 0xCF, 0x27, 0x3C, 0x44, 0xC4, 0x39, 0x3F, 
  0xC3, 0x7F, 0x62, 0xE0, 0x27, 0x00, 0x00, 0x00, 0x00, 0x00, 0x00, 0x00, 
  0x00, 0x00, 0x00, 0x00, 0x00, 0x00, 0x11, 0x38, 0xE6, 0xC3, 0x27, 0x87, 
  0x0F, 0xCF, 0x07, 0x1E, 0xCF, 0xE0, 0x00, 0x3F, 0xF3, 0x7F, 0xC2, 0xE1, 
  0x27, 0x00, 0x00, 0x00, 0x00, 0x00, 0x00, 0x00, 0x00, 0x00, 0x00, 0x00, 
  0x00, 0x00, 0x33, 0x1C, 0xE0, 0xE3, 0x23, 0xC2, 0x0F, 0xDE, 0x87, 0x8F, 
  0x89, 0x70, 0x00, 0x3F, 0x33, 0x7E, 0x02, 0xF9, 0x27, 0x00, 0x00, 0x00, 
  0x00, 0x00, 0x00, 0x00, 0x00, 0x00, 0x00, 0x00, 0x00, 0x00, 0x22, 0x1E, 
  0xE0, 0xE3, 0x23, 0xF2, 0x4F, 0xFC, 0xC7, 0x87, 0x99, 0xF9, 0xFF, 0x3F, 
  0x03, 0x7E, 0x02, 0xE1, 0x27, 0x00, 0x00, 0x00, 0x00, 0x00, 0x00, 0x00, 
  0x00, 0x00, 0x00, 0x00, 0x00, 0x00, 0x66, 0xFE, 0xFF, 0xE3, 0x27, 0x82, 
  0xCF, 0xF8, 0xE7, 0x0F, 0x13, 0xFD, 0xFF, 0x3F, 0x07, 0x7E, 0x02, 0xE3, 
  0x27, 0x00, 0x00, 0x00, 0x00, 0x00, 0x00, 0x00, 0x00, 0x00, 0x00, 0x00, 
  0x00, 0x00, 0xC4, 0xFF, 0xFF, 0xE3, 0x27, 0x86, 0xCF, 0xF1, 0xFF, 0x3F, 
  0x36, 0xFF, 0xFF, 0x3F, 0x7D, 0x7E, 0x02, 0xE6, 0x27, 0x00, 0x00, 0x00, 
  0x00, 0x00, 0x00, 0x00, 0x00, 0x00, 0x00, 0x00, 0x00, 0x00, 0x8C, 0x3F, 
  0xF0, 0xE3, 0x67, 0x9C, 0x4F, 0xE3, 0x87, 0x7F, 0x2C, 0x0E, 0x00, 0x3F, 
  0x41, 0x7E, 0x02, 0xE6, 0xE7, 0x01, 0x00, 0x00, 0x00, 0x00, 0x00, 0x00, 
  0x00, 0x00, 0x00, 0x00, 0x00, 0x00, 0x8C, 0x03, 0xF0, 0xE3, 0x47, 0x90, 
  0x4F, 0xE6, 0x07, 0xFE, 0x38, 0x0F, 0x00, 0x3E, 0x41, 0x7E, 0x02, 0xE2, 
  0x07, 0xFF, 0x00, 0x00, 0x00, 0x00, 0x00, 0x00, 0x00, 0x00, 0x00, 0x00, 
  0x00, 0x00, 0xC6, 0x81, 0xE3, 0xE3, 0xCF, 0x90, 0x4F, 0xC4, 0x27, 0xF8, 
  0x11, 0x1F, 0x78, 0x3E, 0x71, 0x7E, 0x06, 0xF3, 0x03, 0x80, 0x01, 0x00, 
  0x00, 0x00, 0x00, 0x00, 0x00, 0x00, 0x00, 0x00, 0x00, 0x00, 0xE2, 0x01, 
  0xE7, 0xE3, 0x8F, 0x9D, 0x4F, 0xC4, 0xC7, 0xF0, 0x83, 0x7F, 0x50, 0x3E, 
  0x19, 0x7E, 0xFC, 0xF1, 0x7F, 0x00, 0x01, 0x00, 0x00, 0x00, 0x00, 0x00, 
  0x00, 0x00, 0x00, 0x00, 0x00, 0x00, 0xF3, 0x07, 0xE2, 0xC3, 0x1F, 0x87, 
  0xCF, 0xE6, 0x0F, 0xE2, 0xC7, 0xFF, 0x53, 0x3E, 0x0F, 0x7F, 0xC0, 0xF8, 
  0xFF, 0x27, 0x01, 0x00, 0x00, 0x00, 0x00, 0x00, 0x00, 0x00, 0x00, 0x00, 
  0x00, 0x00, 0xF1, 0x7F, 0xF2, 0xC3, 0x3F, 0xC0, 0x8F, 0xE3, 0x1F, 0xC4, 
  0xCF, 0xFF, 0x53, 0x3E, 0xC6, 0xFF, 0x01, 0xFC, 0xFF, 0x1F, 0x01, 0x00, 
  0x00, 0x00, 0x00, 0x00, 0x00, 0x00, 0x00, 0x00, 0x00, 0x00, 0xF9, 0x3F, 
  0xF2, 0x87, 0x7F, 0xF0, 0x0F, 0xF3, 0xFF, 0xCC, 0xCF, 0xF8, 0x51, 0x7E, 
  0xE4, 0xFF, 0x1F, 0xFE, 0xFF, 0x9F, 0x01, 0x00, 0x00, 0x00, 0x00, 0x00, 
  0x00, 0x00, 0x00, 0x00, 0x00, 0x00, 0x81, 0x1F, 0xF3, 0x0F, 0xFF, 0xFF, 
  0x3F, 0xF2, 0x7F, 0xCC, 0x1F, 0xE0, 0x58, 0xFE, 0x00, 0xFE, 0x0F, 0x01, 
  0xF0, 0x8F, 0x00, 0x00, 0x00, 0x00, 0x00, 0x00, 0x00, 0x00, 0x00, 0x00, 
  0x00, 0x00, 0x03, 0x8E, 0xE3, 0x0F, 0xFE, 0xBF, 0x7F, 0x80, 0x7D, 0xCE, 
  0x0F, 0xC2, 0x4C, 0xFC, 0x09, 0xF0, 0x07, 0x00, 0xC0, 0xC7, 0x00, 0x00, 
  0x00, 0x00, 0x00, 0x00, 0x00, 0x00, 0x00, 0x00, 0x00, 0x00, 0x3E, 0xC4, 
  0xC6, 0x4F, 0xF8, 0x0F, 0xFF, 0x04, 0x38, 0xCA, 0xC3, 0x0F, 0xC4, 0x78, 
  0xF8, 0xC0, 0x63, 0xFC, 0x07, 0x67, 0x00, 0x00, 0x00, 0x00, 0x00, 0x00, 
  0x00, 0x00, 0x00, 0x00, 0x00, 0x00, 0xE0, 0x60, 0x0C, 0xC7, 0xC0, 0x01, 
  0x7C, 0x3C, 0x20, 0xCB, 0x60, 0x18, 0x86, 0x21, 0x8C, 0x07, 0xF1, 0x07, 
  0x1C, 0x20, 0x00, 0x00, 0x00, 0x00, 0x00, 0x00, 0x00, 0x00, 0x00, 0x00, 
  0x00, 0x00, 0x80, 0x31, 0x18, 0xE0, 0x03, 0x60, 0x30, 0xE6, 0x03, 0x09, 
  0x38, 0xF0, 0x03, 0x03, 0x07, 0x1C, 0x18, 0x00, 0x70, 0x30, 0x00, 0x00, 
  0x00, 0x00, 0x00, 0x00, 0x00, 0x00, 0x00, 0x00, 0x00, 0x00, 0x00, 0x1F, 
  0x70, 0x30, 0x1E, 0xFC, 0x01, 0x03, 0x8E, 0x19, 0x0E, 0x00, 0x00, 0x8E, 
  0x01, 0x70, 0x0C, 0x00, 0xC0, 0x1F, 0x00, 0x00, 0x00, 0x00, 0x00, 0x00, 
  0x00, 0x00, 0x00, 0x00, 0x00, 0x00, 0x00, 0x00, 0xC0, 0x1F, 0xF0, 0x07, 
  0x87, 0x01, 0xF8, 0xF0, 0x03, 0x00, 0x00, 0xF8, 0x00, 0xC0, 0x07, 0x00, 
  0x00, 0x00, 0x00, 0x00, 0x00, 0x00, 0x00, 0x00, 0x00, 0x00, 0x00, 0x00, 
  0x00, 0x00, 0x00, 0x00, 0x00, 0x00, 0x00, 0x00, 0xFC, 0x00, 0x00, 0x00, 
  0x00, 0x00, 0x00, 0x00, 0x00, 0x00, 0x00, 0x00, 0x00, 0x00, 0x00, 0x00, 
  0x00, 0x00, 0x00, 0x00, 0x00, 0x00, 0x00, 0x00, 0x00, 0x00, 0x00, 0x00, 
  0x00, 0x00, 0x00, 0x00, 0x00, 0x00, 0x00, 0x00, 0x00, 0x00, 0x00, 0x00, 
  0x00, 0x00, 0x00, 0x00, 0x00, 0x00, 0x00, 0x00, 0x00, 0x00, 0x00, 0x00, 
  0x00, 0x00, 0x00, 0x00, 0x00, 0x00, 0x00, 0x00, 0x00, 0x00, 0x00, 0x00, 
  0x00, 0x00, 0x00, 0x00, 0x00, 0x00, 0x00, 0x00, 0x00, 0x00, 0x00, 0x00, 
  0x00, 0x00, 0x00, 0x00, 0x00, 0x00, 0x00, 0x00, 0x00, 0x00, 0x00, 0x00, 
  0x00, 0x00, 0x00, 0x00, 0x00, 0x00, 0x00, 0x00, 0x00, 0x00, 0x00, 0x00, 
  0x00, 0x00, 0x00, 0x00, 0x00, 0x00, 0x00, 0x00, 0x00, 0x00, 0x00, 0x00, 
  0x00, 0x00, 0x00, 0x00, 0x00, 0x00, 0x00, 0x00, 0x00, 0x00, 0x00, 0x00, 
  0x00, 0x00, 0x00, 0x00, 0x00, 0x00, 0x00, 0x00, 0x00, 0x00, 0x00, 0x00, 
  0x00, 0x00, 0x00, 0x00, 0x00, 0x00, 0x00, 0x00, 0x00, 0x00, 0x00, 0x00, 
  0x00, 0x00, 0x00, 0x00, 0x00, 0x00, 0x00, 0x00, 0x00, 0x00, 0x00, 0x00, 
  0x00, 0x00, 0x00, 0x00, 0x00, 0x00, 0x00, 0x00, 0x00, 0x00, 0x00, 0x00, 
  0x00, 0x00, 0x00, 0x00, 0x00, 0x00, 0x00, 0x00, 0x00, 0x00, 0x00, 0x00, 
  0x00, 0x00, 0x00, 0x00, 0x00, 0x00, 0x00, 0x00, 0x00, 0x00, 0x00, 0x00, 
  0x00, 0x00, 0x00, 0x00, 0x00, 0x00, 0x00, 0x00, 0x00, 0x00, 0x00, 0x00, 
  0x00, 0x00, 0x00, 0x00, 0x00, 0x00, 0x00, 0x00, 0x00, 0x00, 0x00, 0x00, 
  0x00, 0x00, 0x00, 0x00, 0x00, 0x00, 0x00, 0x00, 0x00, 0x00, 0x00, 0x00, 
  0x00, 0x00, 0x00, 0x00, 0x00, 0x00, 0x00, 0x00, 0x00, 0x00, 0x00, 0x00, 
  0x00, 0x00, 0x00, 0x00, 0x00, 0x00, 0x00, 0x00, 0x00, 0x00, 0x00, 0x00, 
  0x00, 0x00, 0x00, 0x00, 0x00, 0x00, 0x00, 0x00, 0x00, 0x00, 0x00, 0x00, 
  0x00, 0x00, 0x00, 0x00, 0x00, 0x00, 0x00, 0x00, 0x00, 0x00, 0x00, 0x00, 
  0x00, 0x00, 0x00, 0x00, 0x00, 0x00, 0x00, 0x00, 0x00, 0x00, 0x00, 0x00, 
  0x00, 0x00, 0x00, 0x00, 0x00, 0x00, 0x00, 0x00, 0x00, 0x00, 0x00, 0x00, 
  0x00, 0x00, 0x00, 0x00, 0x00, 0x00, 0x00, 0x00, 0x00, 0x00, 0x00, 0x00, 
  0x00, 0x00, 0x00, 0x00, 0x00, 0x00, 0x00, 0x00, 0x00, 0x00, 0x00, 0x00, 
  0x00, 0x00, 0x00, 0x00, 0x00, 0x00, 0x00, 0x00, 0x00, 0x00, 0x00, 0x00, 
  0x00, 0x00, 0x00, 0x00, 0x00, 0x00, 0x00, 0x00, 0x00, 0x00, 0x00, 0x00, 
  0x00, 0x00, 0x00, 0x00, 0x00, 0x00, 0x00, 0x00, 0x00, 0x00, 0x00, 0x00, 
  0x00, 0x00, 0x00, 0x00, 0x00, 0x00, 0x00, 0x00, 0x00, 0x00, 0x00, 0x00, 
  0x00, 0x00, 0x00, 0x00, 0x00, 0x00, 0x00, 0x00, 0x00, 0x00, 0x00, 0x00, 
  0x00, 0x00, 0x00, 0x00, 0x00, 0x00, 0x00, 0x00, 0x00, 0x00, 0x00, 0x00, 
  0x00, 0x00, 0x00, 0x00, 0x00, 0x00, 0x00, 0x00, 0x00, 0x00, 0x00, 0x00, 
  0x00, 0x00, 0x00, 0x00, 0x00, 0x00, 0x00, 0x00, 0x00, 0x00, 0x00, 0x00, 
  0x00, 0x00, 0x00, 0x00, 0x00, 0x00, 0x00, 0x00, 0x00, 0x00, 0x00, 0x00, 
  0x00, 0x00, 0x00, 0x00, 0x00, 0x00, 0x00, 0x00, 0x00, 0x00, 0x00, 0x00, 
  0x00, 0x00, 0x00, 0x00, 0x00, 0x00, 0x00, 0x00, 0x00, 0x00, 0x00, 0x00, 
  0x00, 0x00, 0x00, 0x00, 0x00, 0x00, 0x00, 0x00, };
