#define BK0011M_width 256
#define BK0011M_height 64
static char BK0011M_bits[] = {
  0x00, 0x00, 0x00, 0x00, 0x00, 0x00, 0x00, 0x00, 0x00, 0x00, 0x00, 0x00, 
  0x00, 0x00, 0x00, 0x00, 0x00, 0x00, 0x00, 0x00, 0x00, 0x00, 0x00, 0x00, 
  0x00, 0x00, 0x00, 0x00, 0x00, 0x00, 0x00, 0x00, 0x00, 0x00, 0x00, 0x00, 
  0x00, 0xE0, 0x03, 0x00, 0x00, 0x00, 0x00, 0x00, 0x00, 0x00, 0x00, 0x00, 
  0x00, 0x00, 0x00, 0x00, 0x00, 0x00, 0x00, 0x00, 0x00, 0x00, 0x00, 0x00, 
  0x00, 0x00, 0x00, 0x00, 0x00, 0x00, 0x00, 0x00, 0x00, 0xFC, 0x0F, 0x00, 
  0x00, 0x00, 0x00, 0x00, 0x00, 0x00, 0x00, 0x00, 0x00, 0x00, 0x00, 0x00, 
  0x00, 0x00, 0x00, 0x00, 0x00, 0x00, 0x00, 0x00, 0x00, 0x00, 0x00, 0x00, 
  0x00, 0x00, 0x00, 0x00, 0x00, 0xFC, 0x3F, 0x00, 0x00, 0x00, 0x00, 0x00, 
  0x00, 0x00, 0x00, 0x00, 0x00, 0x00, 0x00, 0x00, 0x00, 0x00, 0x00, 0x00, 
  0x00, 0x00, 0x00, 0x00, 0x00, 0x00, 0x00, 0x00, 0x00, 0x00, 0x00, 0x00, 
  0x00, 0x1C, 0x3E, 0x00, 0x00, 0x00, 0x00, 0x00, 0x00, 0x00, 0x00, 0x00, 
  0x00, 0x00, 0x00, 0x00, 0x00, 0x00, 0x00, 0x00, 0x00, 0x00, 0x00, 0x00, 
  0x00, 0x00, 0x00, 0x00, 0x00, 0x00, 0x00, 0x00, 0x00, 0x0C, 0x7C, 0x00, 
  0x00, 0x00, 0x00, 0x00, 0x00, 0x00, 0x00, 0x00, 0x00, 0x00, 0x00, 0x00, 
  0x00, 0x00, 0x00, 0x00, 0x00, 0x00, 0x00, 0x00, 0x00, 0x00, 0x00, 0x00, 
  0x00, 0x00, 0x00, 0x00, 0x00, 0x00, 0x78, 0xF0, 0x7F, 0xE0, 0x0F, 0x1E, 
  0xDC, 0xFF, 0xF3, 0x7E, 0xC0, 0x1F, 0x78, 0x78, 0x38, 0x78, 0x3C, 0x78, 
  0xFC, 0x07, 0x00, 0x00, 0x00, 0x00, 0x00, 0x00, 0x00, 0x00, 0x00, 0x00, 
  0x00, 0x00, 0x78, 0xF0, 0x7F, 0xF8, 0x3F, 0x1E, 0xDF, 0xFF, 0xF3, 0xFF, 
  0xE0, 0x3F, 0x78, 0x78, 0x38, 0x7C, 0x3C, 0x7C, 0xFC, 0x0F, 0x00, 0x00, 
  0x00, 0x00, 0x00, 0x00, 0x00, 0x00, 0x00, 0x00, 0x00, 0xE0, 0x7F, 0xF0, 
  0x7F, 0x78, 0x3C, 0x1E, 0x9F, 0xFF, 0xF3, 0xFF, 0xF0, 0x7F, 0x78, 0x78, 
  0x38, 0x7E, 0x3C, 0x7E, 0x00, 0x1F, 0x00, 0x00, 0x00, 0x00, 0x00, 0x00, 
  0x00, 0x00, 0x00, 0x00, 0x00, 0xE0, 0x7F, 0xF0, 0x78, 0x3C, 0x78, 0x9E, 
  0x07, 0x3C, 0xF0, 0xF0, 0xF9, 0xF8, 0x78, 0x78, 0x38, 0x7E, 0x3C, 0x1E, 
  0x00, 0x1E, 0x00, 0x00, 0x00, 0x00, 0x00, 0x00, 0x00, 0x00, 0x00, 0x00, 
  0x00, 0xE0, 0x7F, 0xF0, 0x78, 0xFC, 0x7F, 0xDE, 0x03, 0x3C, 0xF0, 0xF0, 
  0x79, 0xF0, 0xF8, 0x7F, 0x38, 0x7F, 0x3C, 0x0F, 0xF8, 0x1F, 0x00, 0x00, 
  0x00, 0x00, 0x00, 0x00, 0x00, 0x00, 0x00, 0x00, 0x00, 0x00, 0x78, 0x70, 
  0x78, 0xFC, 0x7F, 0xFE, 0x03, 0x3C, 0xF0, 0xF0, 0x79, 0xF0, 0xF8, 0x7F, 
  0xB8, 0x7F, 0xFC, 0x0F, 0xFC, 0x1F, 0x00, 0x00, 0x00, 0x00, 0x00, 0x00, 
  0x00, 0x00, 0x00, 0x00, 0x00, 0x00, 0x78, 0x70, 0x78, 0xFC, 0x3F, 0xFE, 
  0x03, 0x3C, 0xF0, 0xF0, 0x79, 0xF0, 0xF8, 0x7F, 0xF8, 0x7B, 0xFC, 0x0F, 
  0x3E, 0x1E, 0x00, 0x00, 0x00, 0x00, 0x00, 0x00, 0x00, 0x00, 0x00, 0x00, 
  0x00, 0x00, 0x78, 0x70, 0x78, 0x3C, 0x00, 0xFE, 0x07, 0x3C, 0xF0, 0xF0, 
  0x79, 0xF0, 0xF8, 0x7F, 0xF8, 0x79, 0xFC, 0x1F, 0x1E, 0x1E, 0x00, 0x00, 
  0x00, 0x00, 0x00, 0x00, 0x00, 0x00, 0x00, 0x00, 0x00, 0x0C, 0x3E, 0x78, 
  0x78, 0x7C, 0x30, 0x9E, 0x0F, 0x3C, 0xF0, 0xF0, 0xF0, 0x78, 0x78, 0x78, 
  0xF8, 0x78, 0x3C, 0x1E, 0x1E, 0x1E, 0x00, 0x00, 0x00, 0x00, 0x00, 0x00, 
  0x00, 0x00, 0x00, 0x00, 0x00, 0xFC, 0x3F, 0x7E, 0x78, 0xF8, 0x3F, 0x1E, 
  0x0F, 0x3C, 0xF0, 0x7F, 0xF0, 0x7F, 0x78, 0x78, 0x78, 0x78, 0x3C, 0x3E, 
  0xFE, 0x1F, 0x00, 0x00, 0x00, 0x00, 0x00, 0x00, 0x00, 0x00, 0x00, 0x00, 
  0x00, 0xFC, 0x1F, 0x3E, 0x78, 0xF8, 0x3F, 0x1E, 0x1F, 0x3C, 0xF0, 0x7F, 
  0xE0, 0x3F, 0x78, 0x78, 0x78, 0x78, 0x3C, 0x3C, 0xFE, 0x1F, 0x00, 0x00, 
  0x00, 0x00, 0x00, 0x00, 0x00, 0x00, 0x00, 0x00, 0x00, 0xF0, 0x07, 0x1C, 
  0x30, 0xE0, 0x1F, 0x0C, 0x1C, 0x18, 0xF0, 0x3D, 0x80, 0x0F, 0x38, 0x30, 
  0x30, 0x30, 0x30, 0x78, 0x78, 0x0E, 0x00, 0x00, 0x00, 0x00, 0x00, 0x00, 
  0x00, 0x00, 0x00, 0x00, 0x00, 0x00, 0x00, 0x00, 0x00, 0x00, 0x00, 0x00, 
  0x00, 0x00, 0xF0, 0x00, 0x00, 0x00, 0x00, 0x00, 0x00, 0x00, 0x00, 0x00, 
  0x00, 0x00, 0x00, 0x00, 0x00, 0x00, 0x00, 0x00, 0x00, 0x00, 0x00, 0x00, 
  0x00, 0x00, 0x00, 0x00, 0x00, 0x00, 0x00, 0x00, 0x00, 0x00, 0xF0, 0x00, 
  0x00, 0x00, 0x00, 0x00, 0x00, 0x00, 0x00, 0x00, 0x00, 0x00, 0x00, 0x00, 
  0x00, 0x00, 0x00, 0x00, 0x00, 0x00, 0x00, 0x00, 0x00, 0x00, 0x00, 0x00, 
  0x00, 0x00, 0x00, 0x00, 0x00, 0x00, 0xF0, 0x00, 0x00, 0x00, 0x00, 0x00, 
  0x00, 0x00, 0x00, 0x00, 0x00, 0x00, 0x00, 0x00, 0x00, 0x00, 0x00, 0x00, 
  0x00, 0x00, 0x00, 0x00, 0x00, 0x00, 0x00, 0x00, 0x00, 0x00, 0x00, 0x00, 
  0x00, 0x00, 0xF0, 0x00, 0x00, 0x00, 0x00, 0x00, 0x00, 0x00, 0x00, 0x00, 
  0x00, 0x00, 0x00, 0x00, 0x00, 0x00, 0x00, 0x00, 0x00, 0x00, 0x00, 0x00, 
  0x00, 0x00, 0x00, 0x00, 0x00, 0x00, 0x00, 0x00, 0x00, 0x00, 0x00, 0x00, 
  0x00, 0x00, 0x00, 0x00, 0x00, 0x00, 0x00, 0x00, 0x00, 0x00, 0x00, 0x00, 
  0x00, 0x00, 0x00, 0x00, 0x00, 0x00, 0x00, 0x00, 0x00, 0x00, 0x00, 0x00, 
  0x00, 0x00, 0x00, 0x00, 0x00, 0x00, 0x00, 0x00, 0x00, 0x00, 0x00, 0x00, 
  0x00, 0x00, 0x00, 0x00, 0x00, 0x00, 0x00, 0x00, 0x00, 0x00, 0x00, 0x00, 
  0x00, 0x00, 0x00, 0x00, 0x00, 0x00, 0x00, 0x00, 0x00, 0x00, 0x00, 0x00, 
  0x00, 0x00, 0x00, 0x00, 0x00, 0x00, 0x00, 0x00, 0x00, 0x00, 0x00, 0x00, 
  0x00, 0x00, 0x00, 0x00, 0x00, 0x00, 0x00, 0x00, 0x00, 0x00, 0x00, 0x00, 
  0x00, 0x00, 0x00, 0x00, 0x00, 0x00, 0x00, 0x00, 0x00, 0x00, 0x00, 0x00, 
  0x00, 0x00, 0x00, 0x00, 0x00, 0x00, 0x00, 0x00, 0x00, 0x00, 0x00, 0x00, 
  0x00, 0x00, 0x00, 0x00, 0xFF, 0xFF, 0xFF, 0xFF, 0xFF, 0xFF, 0xFF, 0xFF, 
  0xFF, 0xFF, 0xFF, 0xFF, 0xFF, 0xFF, 0xFF, 0xFF, 0xFF, 0xFF, 0xFF, 0xFF, 
  0xFF, 0xFF, 0xFF, 0xFF, 0xFF, 0xFF, 0xFF, 0xFF, 0xFF, 0xFF, 0xFF, 0xFF, 
  0xFF, 0xFF, 0xFF, 0xFF, 0xFF, 0xFF, 0xFF, 0xFF, 0xFF, 0xFF, 0xFF, 0xFF, 
  0xFF, 0xFF, 0xFF, 0xFF, 0xFF, 0xFF, 0xFF, 0xFF, 0xFF, 0xFF, 0xFF, 0xFF, 
  0xFF, 0xFF, 0xFF, 0xFF, 0xFF, 0xFF, 0xFF, 0xFF, 0xFF, 0xFF, 0xFF, 0xFF, 
  0xFF, 0xFF, 0xFF, 0xFF, 0xFF, 0xFF, 0xFF, 0xFF, 0xFF, 0xFF, 0xFF, 0xFF, 
  0xFF, 0xFF, 0xFF, 0xFF, 0xFF, 0xFF, 0xFF, 0xFF, 0xFF, 0xFF, 0xFF, 0xFF, 
  0xFF, 0xFF, 0xFF, 0xFF, 0x00, 0x00, 0x00, 0x00, 0x00, 0x00, 0x00, 0x00, 
  0x00, 0x00, 0x00, 0x00, 0x00, 0x00, 0x00, 0x00, 0x00, 0x00, 0x00, 0x00, 
  0x00, 0x00, 0x00, 0x00, 0x00, 0x00, 0x00, 0x00, 0x00, 0x00, 0x00, 0x00, 
  0x00, 0x00, 0x00, 0x00, 0x00, 0x00, 0x00, 0x00, 0x00, 0x00, 0x00, 0x00, 
  0x00, 0x00, 0x00, 0x00, 0x00, 0x00, 0x00, 0x00, 0x00, 0x00, 0x00, 0x00, 
  0x00, 0x00, 0x00, 0x00, 0x00, 0x00, 0x00, 0x00, 0x00, 0x00, 0x00, 0x00, 
  0x00, 0x00, 0x00, 0x00, 0x00, 0x00, 0x00, 0x00, 0x00, 0x00, 0x00, 0x00, 
  0x00, 0x00, 0x00, 0x00, 0x00, 0x00, 0x00, 0x00, 0x00, 0x00, 0x00, 0x00, 
  0x00, 0x00, 0x00, 0x00, 0x00, 0x00, 0x00, 0x00, 0x00, 0x00, 0x00, 0x00, 
  0x00, 0x00, 0x00, 0x00, 0x00, 0x00, 0x00, 0x00, 0x00, 0x00, 0x00, 0x00, 
  0x00, 0x00, 0x00, 0x00, 0x00, 0x00, 0x00, 0x00, 0x00, 0x00, 0x00, 0x00, 
  0x00, 0x00, 0x00, 0x00, 0x00, 0x00, 0x00, 0x00, 0x00, 0x00, 0x00, 0x00, 
  0x00, 0x00, 0x00, 0x00, 0x00, 0x00, 0x00, 0x00, 0x00, 0x00, 0x00, 0x00, 
  0x00, 0x00, 0x00, 0x00, 0x00, 0x00, 0x00, 0x00, 0x00, 0x00, 0x00, 0x00, 
  0x00, 0x00, 0x00, 0x00, 0x00, 0x00, 0x00, 0x00, 0x00, 0x00, 0x00, 0x00, 
  0x00, 0x00, 0x00, 0x00, 0x00, 0x00, 0x00, 0x00, 0x00, 0x00, 0x00, 0x00, 
  0x00, 0x00, 0x00, 0x00, 0x00, 0x00, 0x00, 0x00, 0x00, 0x00, 0x00, 0x00, 
  0x00, 0x00, 0xF8, 0x0F, 0x00, 0xE0, 0x3F, 0x00, 0x00, 0x00, 0x00, 0x00, 
  0xFC, 0x03, 0x00, 0x00, 0x00, 0xE0, 0x3F, 0x00, 0x00, 0x00, 0x00, 0x00, 
  0x00, 0xFE, 0xFF, 0x3F, 0xE0, 0x0F, 0xC0, 0x0F, 0x00, 0x00, 0xFE, 0x3F, 
  0x00, 0xF8, 0xFF, 0x00, 0x00, 0xFC, 0x00, 0x80, 0xFF, 0x0F, 0x00, 0x00, 
  0x00, 0xF8, 0xFF, 0x00, 0x00, 0xFC, 0x00, 0x00, 0x00, 0xFE, 0xFF, 0x3F, 
  0xE0, 0x0F, 0xF0, 0x0F, 0x00, 0x00, 0xFF, 0x7F, 0x00, 0xFC, 0xFF, 0x01, 
  0x00, 0xFC, 0x00, 0xC0, 0xFF, 0x3F, 0x00, 0x00, 0x00, 0xFC, 0xFF, 0x01, 
  0x00, 0xFE, 0x00, 0x00, 0x00, 0xFE, 0xFF, 0x3F, 0xE0, 0x0F, 0xF8, 0x0F, 
  0x00, 0x80, 0xFF, 0xFF, 0x00, 0xFE, 0xFF, 0x03, 0x00, 0xFE, 0x00, 0xE0, 
  0xFF, 0x3F, 0x00, 0x00, 0x00, 0xFE, 0xFF, 0x03, 0x00, 0xFE, 0x00, 0x00, 
  0x00, 0xFE, 0xFF, 0x3F, 0xE0, 0x0F, 0xF8, 0x0F, 0x00, 0xC0, 0xFF, 0xFF, 
  0x01, 0xFF, 0xFF, 0x07, 0x80, 0xFF, 0x00, 0xE0, 0xFF, 0x7F, 0x00, 0x00, 
  0x00, 0xFE, 0xFF, 0x07, 0x80, 0xFF, 0x00, 0x00, 0x00, 0xFE, 0xFF, 0x3F, 
  0xE0, 0x0F, 0xFC, 0x0F, 0x00, 0xC0, 0x3F, 0xFC, 0x01, 0xFF, 0xF0, 0x07, 
  0xF0, 0xFF, 0x00, 0xF0, 0x0F, 0xFF, 0x00, 0x00, 0x00, 0xFF, 0xF0, 0x07, 
  0xF0, 0xFF, 0x00, 0x00, 0x00, 0xFE, 0x00, 0x00, 0xE0, 0x0F, 0xFE, 0x0F, 
  0x00, 0xC0, 0x1F, 0xF8, 0x03, 0x7F, 0xE0, 0x0F, 0xF0, 0xFF, 0x00, 0xF0, 
  0x07, 0xFE, 0x00, 0x00, 0x00, 0x7F, 0xE0, 0x0F, 0xF0, 0xFF, 0x00, 0x00, 
  0x00, 0xFE, 0x00, 0x00, 0xE0, 0x0F, 0xFE, 0x00, 0x00, 0xE0, 0x0F, 0xF8, 
  0x83, 0x3F, 0xE0, 0x0F, 0xF0, 0xFF, 0x00, 0xF0, 0x03, 0xFE, 0x00, 0x00, 
  0x80, 0x3F, 0xE0, 0x0F, 0xF0, 0xFF, 0x00, 0x00, 0x00, 0xFE, 0x00, 0x00, 
  0xE0, 0x0F, 0x7F, 0x00, 0x00, 0xE0, 0x0F, 0xF8, 0x83, 0x3F, 0xE0, 0x0F, 
  0xF0, 0xFF, 0x00, 0xF8, 0x03, 0xFC, 0x00, 0x00, 0x80, 0x3F, 0xC0, 0x0F, 
  0xF0, 0xFF, 0x00, 0x00, 0x00, 0xFE, 0x00, 0x00, 0xE0, 0x0F, 0x7F, 0x00, 
  0x00, 0xE0, 0x0F, 0xF0, 0x83, 0x3F, 0xC0, 0x0F, 0x00, 0xFE, 0x00, 0xF8, 
  0x03, 0xFC, 0x01, 0x00, 0x80, 0x3F, 0xC0, 0x1F, 0x00, 0xFE, 0x00, 0x00, 
  0x00, 0xFE, 0x01, 0x00, 0xE0, 0x8F, 0x3F, 0x00, 0x00, 0xE0, 0x0F, 0xF0, 
  0x83, 0x3F, 0xC0, 0x1F, 0x00, 0xFE, 0x00, 0xF8, 0x03, 0xFC, 0x01, 0x00, 
  0x80, 0x3F, 0xC0, 0x1F, 0x00, 0xFE, 0x00, 0x00, 0x00, 0xFE, 0xFF, 0x0F, 
  0xE0, 0xFF, 0x1F, 0x00, 0x00, 0xE0, 0x0F, 0xF0, 0x87, 0x3F, 0xC0, 0x1F, 
  0x00, 0xFE, 0x00, 0xF8, 0x03, 0xFC, 0x01, 0x00, 0x80, 0x3F, 0xC0, 0x1F, 
  0x00, 0xFE, 0x00, 0x00, 0x00, 0xFE, 0xFF, 0x1F, 0xE0, 0xFF, 0x1F, 0x00, 
  0x00, 0xE0, 0x0F, 0xF0, 0x87, 0x3F, 0xC0, 0x1F, 0x00, 0xFE, 0x00, 0xF8, 
  0x03, 0xFC, 0xC1, 0xFF, 0x83, 0x3F, 0xC0, 0x1F, 0x00, 0xFE, 0x00, 0x00, 
  0x00, 0xFE, 0xFF, 0x3F, 0xE0, 0xFF, 0x0F, 0x00, 0x00, 0xE0, 0x0F, 0xF0, 
  0x87, 0x3F, 0xC0, 0x1F, 0x00, 0xFE, 0x00, 0xF8, 0x03, 0xFC, 0xE1, 0xFF, 
  0x87, 0x3F, 0xC0, 0x1F, 0x00, 0xFE, 0x00, 0x00, 0x00, 0xFE, 0xFF, 0x7F, 
  0xE0, 0xFF, 0x0F, 0x00, 0x00, 0xE0, 0x0F, 0xF0, 0x87, 0x3F, 0xC0, 0x1F, 
  0x00, 0xFE, 0x00, 0xF8, 0x03, 0xFC, 0xE1, 0xFF, 0x87, 0x3F, 0xC0, 0x1F, 
  0x00, 0xFE, 0x00, 0x00, 0x00, 0xFE, 0xC1, 0x7F, 0xE0, 0xFF, 0x1F, 0x00, 
  0x00, 0xE0, 0x0F, 0xF0, 0x87, 0x3F, 0xC0, 0x1F, 0x00, 0xFE, 0x00, 0xF8, 
  0x03, 0xFC, 0xE1, 0xFF, 0x87, 0x3F, 0xC0, 0x1F, 0x00, 0xFE, 0x00, 0x00, 
  0x00, 0xFE, 0x00, 0xFF, 0xE0, 0xEF, 0x3F, 0x00, 0x00, 0xE0, 0x0F, 0xF0, 
  0x83, 0x3F, 0xC0, 0x1F, 0x00, 0xFE, 0x00, 0xF8, 0x03, 0xFC, 0xE1, 0xFF, 
  0x87, 0x3F, 0xC0, 0x1F, 0x00, 0xFE, 0x00, 0x00, 0x00, 0xFE, 0x00, 0xFE, 
  0xE0, 0xCF, 0x7F, 0x00, 0x00, 0xE0, 0x0F, 0xF0, 0x83, 0x3F, 0xE0, 0x0F, 
  0x00, 0xFE, 0x00, 0xF8, 0x03, 0xFC, 0x01, 0x00, 0x80, 0x3F, 0xC0, 0x1F, 
  0x00, 0xFE, 0x00, 0x00, 0x00, 0xFE, 0x00, 0xFE, 0xE0, 0x8F, 0x7F, 0x00, 
  0x00, 0xE0, 0x0F, 0xF8, 0x83, 0x3F, 0xE0, 0x0F, 0x00, 0xFE, 0x00, 0xF8, 
  0x03, 0xFC, 0x00, 0x00, 0x80, 0x3F, 0xE0, 0x0F, 0x00, 0xFE, 0x00, 0x00, 
  0x00, 0xFE, 0x00, 0xFE, 0xE0, 0x0F, 0xFF, 0x00, 0x00, 0xE0, 0x0F, 0xF8, 
  0x83, 0x3F, 0xE0, 0x0F, 0x00, 0xFE, 0x00, 0xF0, 0x07, 0xFE, 0x00, 0x00, 
  0x80, 0x3F, 0xE0, 0x0F, 0x00, 0xFE, 0x00, 0x00, 0x00, 0xFE, 0x00, 0xFF, 
  0xE0, 0x0F, 0xFE, 0x01, 0x00, 0xC0, 0x1F, 0xF8, 0x03, 0x7F, 0xE0, 0x0F, 
  0x00, 0xFE, 0x00, 0xF0, 0x07, 0xFE, 0x00, 0x00, 0x00, 0x7F, 0xE0, 0x0F, 
  0x00, 0xFE, 0x00, 0x00, 0x00, 0xFE, 0x80, 0x7F, 0xE0, 0x0F, 0xFE, 0x03, 
  0x00, 0xC0, 0x3F, 0xFC, 0x01, 0xFF, 0xF0, 0x07, 0x00, 0xFE, 0x00, 0xF0, 
  0x0F, 0xFF, 0x00, 0x00, 0x00, 0xFF, 0xF0, 0x07, 0x00, 0xFE, 0x00, 0x00, 
  0x00, 0xFE, 0xFF, 0x7F, 0xE0, 0x0F, 0xFC, 0x03, 0x00, 0x80, 0xFF, 0xFF, 
  0x01, 0xFF, 0xFF, 0x07, 0xF0, 0xFF, 0x1F, 0xE0, 0xFF, 0x7F, 0x00, 0x00, 
  0x00, 0xFE, 0xFF, 0x07, 0xF0, 0xFF, 0x1F, 0x00, 0x00, 0xFE, 0xFF, 0x3F, 
  0xE0, 0x0F, 0xF8, 0x07, 0x00, 0x80, 0xFF, 0xFF, 0x00, 0xFE, 0xFF, 0x03, 
  0xF0, 0xFF, 0x3F, 0xE0, 0xFF, 0x3F, 0x00, 0x00, 0x00, 0xFE, 0xFF, 0x03, 
  0xF0, 0xFF, 0x1F, 0x00, 0x00, 0xFE, 0xFF, 0x3F, 0xE0, 0x0F, 0xF0, 0x0F, 
  0x00, 0x00, 0xFF, 0x7F, 0x00, 0xFC, 0xFF, 0x01, 0xF0, 0xFF, 0x3F, 0xC0, 
  0xFF, 0x3F, 0x00, 0x00, 0x00, 0xFC, 0xFF, 0x01, 0xF0, 0xFF, 0x1F, 0x00, 
  0x00, 0xFE, 0xFF, 0x0F, 0xE0, 0x0F, 0xF0, 0x1F, 0x00, 0x00, 0xFE, 0x3F, 
  0x00, 0xF8, 0xFF, 0x00, 0xF0, 0xFF, 0x3F, 0x80, 0xFF, 0x0F, 0x00, 0x00, 
  0x00, 0xF8, 0xFF, 0x00, 0xF0, 0xFF, 0x1F, 0x00, 0x00, 0xFE, 0xFF, 0x03, 
  0xE0, 0x0F, 0xE0, 0x3F, 0x00, 0x00, 0xF8, 0x0F, 0x00, 0xC0, 0x3F, 0x00, 
  0xF0, 0xFF, 0x3F, 0x00, 0xFC, 0x03, 0x00, 0x00, 0x00, 0xC0, 0x3F, 0x00, 
  0xF8, 0xFF, 0x3F, 0x00, 0x00, 0x00, 0x00, 0x00, 0x00, 0x00, 0x00, 0x00, 
  0x00, 0x00, 0x00, 0x00, 0x00, 0x00, 0x00, 0x00, 0x00, 0x00, 0x00, 0x00, 
  0x00, 0x00, 0x00, 0x00, 0x00, 0x00, 0x00, 0x00, 0x00, 0x00, 0x00, 0x00, 
  0x00, 0x00, 0x00, 0x00, 0x00, 0x00, 0x00, 0x00, 0x00, 0x00, 0x00, 0x00, 
  0x00, 0x00, 0x00, 0x00, 0x00, 0x00, 0x00, 0x00, 0x00, 0x00, 0x00, 0x00, 
  0x00, 0x00, 0x00, 0x00, 0x00, 0x00, 0x00, 0x00, };
