#define calipso_width 256
#define calipso_height 64
static unsigned char calipso_bits[] = {
   0x00, 0x00, 0x00, 0x00, 0x00, 0x00, 0x00, 0x00, 0x00, 0x00, 0x00, 0x00,
   0x00, 0x00, 0x00, 0x00, 0x00, 0x00, 0x00, 0x00, 0x00, 0x00, 0x00, 0x00,
   0x00, 0x00, 0x00, 0x00, 0x00, 0x00, 0x00, 0x00, 0x00, 0x00, 0x00, 0x00,
   0x00, 0x00, 0x00, 0x00, 0x00, 0x00, 0x00, 0xfe, 0xff, 0x0f, 0xfe, 0xff,
   0x07, 0x00, 0x00, 0x00, 0x00, 0x00, 0x00, 0x00, 0x00, 0x00, 0x00, 0x00,
   0x00, 0x00, 0x00, 0x00, 0x00, 0x00, 0x00, 0x00, 0x00, 0x00, 0x00, 0x00,
   0x00, 0x00, 0x80, 0xff, 0xff, 0x3f, 0xff, 0xff, 0x0f, 0x00, 0x00, 0x00,
   0x00, 0x00, 0x00, 0x00, 0x00, 0x00, 0x00, 0x00, 0x00, 0x00, 0x00, 0x00,
   0x00, 0x00, 0x00, 0x00, 0x00, 0x00, 0x00, 0x00, 0x00, 0x00, 0xe0, 0x00,
   0x00, 0xe0, 0x01, 0x00, 0x18, 0x00, 0x00, 0x00, 0x00, 0x00, 0x00, 0x00,
   0x00, 0x00, 0x00, 0x00, 0x00, 0x00, 0x00, 0x00, 0x00, 0x00, 0x00, 0x00,
   0x00, 0x00, 0x00, 0x00, 0x00, 0x00, 0x60, 0x00, 0x00, 0xc0, 0x01, 0x00,
   0x30, 0x00, 0x00, 0x00, 0x00, 0x00, 0x00, 0x00, 0x00, 0x00, 0x00, 0x00,
   0x00, 0x00, 0x00, 0x00, 0x00, 0x00, 0x00, 0x00, 0x00, 0x00, 0x00, 0x00,
   0x00, 0x00, 0x30, 0xf8, 0xff, 0x87, 0xf8, 0xff, 0x21, 0x00, 0x00, 0x00,
   0x00, 0x00, 0x00, 0x00, 0x00, 0x00, 0x00, 0x00, 0x00, 0x00, 0x00, 0x00,
   0x00, 0x00, 0x00, 0x00, 0x00, 0x00, 0x00, 0x00, 0x00, 0x00, 0x30, 0x08,
   0x00, 0x88, 0x08, 0x00, 0x62, 0x00, 0x00, 0x00, 0x00, 0x00, 0x00, 0x00,
   0x00, 0x00, 0x00, 0x00, 0x00, 0x00, 0x00, 0x00, 0x00, 0x00, 0x00, 0x00,
   0x00, 0x00, 0x00, 0x00, 0x00, 0x00, 0x30, 0x18, 0x00, 0x18, 0x08, 0x00,
   0x66, 0x00, 0x00, 0x00, 0x00, 0x00, 0x00, 0x00, 0xe0, 0x00, 0x00, 0x00,
   0x00, 0x00, 0x00, 0x00, 0x00, 0x00, 0x00, 0x00, 0x00, 0x00, 0x00, 0x00,
   0x00, 0x00, 0x60, 0x30, 0x00, 0x00, 0x04, 0x00, 0x22, 0x00, 0x00, 0x00,
   0x00, 0x00, 0x00, 0x00, 0xf8, 0x03, 0xc0, 0xff, 0x0f, 0x00, 0x00, 0x00,
   0x00, 0x00, 0x00, 0xfc, 0xff, 0xff, 0xc3, 0xff, 0xff, 0x7f, 0xc0, 0x30,
   0x00, 0x08, 0x04, 0x10, 0x32, 0x00, 0x00, 0xf8, 0x07, 0x00, 0xff, 0xff,
   0x1f, 0x06, 0xfc, 0xff, 0xff, 0x07, 0x00, 0x00, 0x00, 0x00, 0x00, 0xff,
   0xff, 0xff, 0xe7, 0xff, 0xff, 0xff, 0x83, 0x11, 0x00, 0x08, 0x0c, 0x00,
   0xf2, 0xff, 0x3f, 0xff, 0x3f, 0xc0, 0xff, 0xff, 0x07, 0x06, 0x0f, 0x00,
   0x80, 0x3e, 0x00, 0x00, 0x00, 0x00, 0xc0, 0x01, 0x00, 0x00, 0x36, 0x00,
   0x00, 0x00, 0x8f, 0x11, 0x00, 0x08, 0x58, 0xab, 0xe3, 0xff, 0xff, 0x03,
   0xf0, 0x70, 0x00, 0x00, 0xe0, 0xc6, 0x01, 0x00, 0x00, 0x70, 0x00, 0x00,
   0x00, 0x00, 0xe0, 0xf0, 0xff, 0x7f, 0x36, 0x00, 0x00, 0x00, 0x98, 0x10,
   0x00, 0x0c, 0xf0, 0xff, 0x01, 0x00, 0xc0, 0x00, 0xc0, 0x39, 0x00, 0x00,
   0xf8, 0x76, 0x00, 0x00, 0x00, 0xc0, 0x00, 0x00, 0x00, 0x00, 0x30, 0x1c,
   0x00, 0x48, 0x12, 0xff, 0xff, 0xff, 0xf0, 0x10, 0x00, 0x84, 0x6f, 0x5b,
   0x00, 0x00, 0x00, 0x00, 0x00, 0x0f, 0xfe, 0xff, 0x5f, 0x1e, 0xf8, 0xff,
   0xff, 0xc1, 0x00, 0x00, 0x00, 0x00, 0x18, 0x03, 0x00, 0x40, 0x92, 0x01,
   0x00, 0x80, 0xe1, 0x18, 0x00, 0x84, 0x00, 0xc0, 0xe0, 0xff, 0x1f, 0xfe,
   0x0f, 0x0e, 0xff, 0xf7, 0x55, 0x0e, 0x7e, 0x55, 0xf5, 0x87, 0x01, 0x00,
   0x00, 0x00, 0x9c, 0x01, 0x00, 0x60, 0x9b, 0x00, 0x00, 0x00, 0xc2, 0x08,
   0x00, 0x84, 0x00, 0x80, 0x21, 0x00, 0x20, 0x03, 0x18, 0x84, 0x03, 0x94,
   0x76, 0x06, 0x57, 0x77, 0x97, 0x0e, 0x01, 0x00, 0x00, 0x00, 0xcc, 0x00,
   0x22, 0x20, 0x9b, 0x00, 0x00, 0x00, 0x44, 0x08, 0x00, 0x04, 0x01, 0x00,
   0x20, 0x00, 0xc0, 0x41, 0x32, 0xc0, 0xfc, 0x6b, 0x6d, 0xc3, 0xdb, 0xda,
   0x7a, 0x1d, 0x03, 0x00, 0x00, 0x00, 0x66, 0x00, 0x00, 0x20, 0x89, 0x00,
   0x00, 0x00, 0x44, 0x08, 0x00, 0x06, 0x03, 0x80, 0x40, 0x00, 0xc4, 0x08,
   0x60, 0x60, 0x25, 0xad, 0x6b, 0xc3, 0x5a, 0xab, 0xd6, 0x1b, 0x03, 0x00,
   0x00, 0x00, 0x23, 0x20, 0x00, 0x20, 0x89, 0x00, 0x00, 0x00, 0x44, 0x0c,
   0x00, 0x02, 0x01, 0x80, 0xc0, 0x20, 0x61, 0xa4, 0x4a, 0x60, 0xd5, 0x5a,
   0x2d, 0x61, 0xeb, 0xee, 0x55, 0x35, 0x03, 0x00, 0x00, 0x00, 0x33, 0x00,
   0x40, 0x20, 0x89, 0x00, 0x00, 0x00, 0x4c, 0x04, 0x00, 0x02, 0x01, 0x80,
   0xc0, 0x02, 0x00, 0x00, 0x48, 0xa0, 0x5a, 0xeb, 0xba, 0xb1, 0xae, 0x5a,
   0xbb, 0x1d, 0x03, 0x00, 0x00, 0x00, 0x11, 0x00, 0x04, 0x10, 0x89, 0x00,
   0x00, 0x00, 0x08, 0x04, 0x00, 0x02, 0x01, 0xc0, 0x40, 0x00, 0x92, 0x4a,
   0xd1, 0xb0, 0xaa, 0x56, 0xab, 0xf1, 0xda, 0xd5, 0x56, 0x33, 0x03, 0x00,
   0x00, 0x80, 0x11, 0x02, 0xe0, 0x8e, 0x99, 0xb7, 0x05, 0x00, 0x04, 0x04,
   0x00, 0x82, 0x01, 0xc0, 0x40, 0x20, 0x00, 0x08, 0xc2, 0xb0, 0x6a, 0xb5,
   0x9a, 0x50, 0x5b, 0x57, 0xed, 0x1e, 0x03, 0x00, 0x00, 0x80, 0x09, 0x20,
   0xb8, 0x85, 0x1c, 0xda, 0x0e, 0x00, 0x04, 0x06, 0x00, 0x81, 0x00, 0x40,
   0x60, 0x04, 0x04, 0x20, 0x54, 0x50, 0xd5, 0xaa, 0x9d, 0xb8, 0xb5, 0xba,
   0xb5, 0x35, 0x03, 0x00, 0x00, 0x80, 0x09, 0x00, 0x0c, 0xe0, 0x0e, 0x00,
   0x08, 0x00, 0x04, 0x06, 0x00, 0x81, 0x00, 0x40, 0x60, 0x40, 0xe0, 0x84,
   0x40, 0xb0, 0xad, 0xfe, 0xcf, 0xb8, 0xee, 0x7e, 0x57, 0x1b, 0x03, 0x00,
   0x00, 0x80, 0x0c, 0x00, 0xc4, 0x7a, 0x03, 0xff, 0x0f, 0x00, 0x04, 0x02,
   0x00, 0x81, 0x20, 0x40, 0x20, 0x00, 0xb4, 0x50, 0x4a, 0x58, 0xd5, 0x06,
   0xe1, 0xd8, 0x55, 0x67, 0x6d, 0x1d, 0x03, 0x00, 0x00, 0x80, 0x04, 0x01,
   0xe6, 0x9f, 0xe1, 0xab, 0x02, 0x00, 0x04, 0x02, 0x00, 0x81, 0x00, 0x40,
   0x20, 0x04, 0x90, 0x02, 0x60, 0x98, 0xaa, 0x0e, 0x70, 0x58, 0xdb, 0x66,
   0x5b, 0x1b, 0x03, 0x00, 0x00, 0xc0, 0x04, 0x10, 0x62, 0xc0, 0x38, 0x00,
   0x00, 0x00, 0x06, 0x03, 0x80, 0xc1, 0x00, 0x60, 0x20, 0x20, 0x90, 0x48,
   0x65, 0xb8, 0x5a, 0x3d, 0x7c, 0x6c, 0xad, 0x76, 0xed, 0x1a, 0x01, 0x00,
   0x00, 0xc0, 0x04, 0x00, 0x22, 0xc0, 0x0c, 0x00, 0x00, 0x00, 0x02, 0x03,
   0x80, 0x40, 0x00, 0x20, 0xb0, 0x80, 0xd8, 0x00, 0x64, 0x58, 0xb5, 0x75,
   0x78, 0x6c, 0xbb, 0x77, 0xab, 0x0e, 0x01, 0x00, 0x00, 0xc0, 0x06, 0x00,
   0x32, 0x60, 0x06, 0x00, 0x00, 0x00, 0x02, 0x01, 0x80, 0x40, 0x00, 0x20,
   0x10, 0x00, 0x48, 0xaa, 0x28, 0x58, 0x55, 0xd5, 0x70, 0xdc, 0xd6, 0xb2,
   0xdd, 0x8d, 0x01, 0x00, 0x00, 0x40, 0x82, 0x00, 0x33, 0x3e, 0x02, 0x00,
   0x00, 0x00, 0x02, 0x11, 0x80, 0x60, 0x00, 0x20, 0x10, 0x08, 0x48, 0x00,
   0x21, 0x50, 0x6b, 0xdb, 0x63, 0xac, 0xb5, 0x53, 0x55, 0x8d, 0x01, 0x00,
   0x00, 0x40, 0x02, 0x00, 0x91, 0x3f, 0x03, 0x00, 0x00, 0x00, 0x03, 0x01,
   0x80, 0x40, 0x00, 0x30, 0x10, 0x41, 0x48, 0x24, 0x32, 0xa0, 0x54, 0xb5,
   0x06, 0xb6, 0xae, 0xfa, 0xbe, 0x8d, 0x01, 0x00, 0x00, 0x60, 0x02, 0x04,
   0xd1, 0x21, 0x01, 0x80, 0x03, 0x00, 0x81, 0x01, 0xc0, 0x20, 0x20, 0x30,
   0x10, 0x80, 0x6c, 0x40, 0x32, 0xe0, 0xad, 0xad, 0x0e, 0xee, 0xda, 0x9b,
   0x69, 0x8f, 0x00, 0x00, 0x00, 0x60, 0x03, 0x00, 0xf1, 0x80, 0x01, 0xc0,
   0x02, 0x00, 0x81, 0x00, 0x40, 0x20, 0x00, 0x10, 0x18, 0x00, 0x2c, 0x05,
   0x30, 0x80, 0xb5, 0xea, 0x0d, 0x56, 0x6b, 0x7b, 0xd7, 0x86, 0x00, 0x00,
   0x00, 0x60, 0x11, 0x00, 0x01, 0x84, 0x00, 0x40, 0x12, 0x00, 0x81, 0x00,
   0x40, 0x20, 0x00, 0x10, 0x08, 0x04, 0x24, 0xa8, 0x12, 0x00, 0x57, 0x5b,
   0x1d, 0x76, 0x5d, 0x59, 0xb5, 0xc6, 0x00, 0x00, 0x00, 0x20, 0x01, 0x00,
   0x01, 0x8e, 0x00, 0x40, 0x03, 0x80, 0x81, 0x00, 0x40, 0x30, 0x00, 0x18,
   0x88, 0x00, 0x24, 0x00, 0x14, 0x00, 0x6c, 0x55, 0x1b, 0xae, 0xeb, 0xed,
   0x6e, 0xc7, 0x00, 0x00, 0x00, 0x20, 0x41, 0x04, 0x06, 0x89, 0x00, 0x60,
   0x03, 0x80, 0x80, 0x00, 0x60, 0x30, 0x00, 0x08, 0x08, 0x48, 0x34, 0xa5,
   0x18, 0x0c, 0xb8, 0xd6, 0x1a, 0x6b, 0xad, 0xdd, 0xda, 0x46, 0x00, 0x00,
   0x00, 0xb0, 0x01, 0x00, 0xfc, 0xc8, 0x00, 0x20, 0x01, 0x80, 0xc0, 0x00,
   0x20, 0x10, 0x00, 0x08, 0x0c, 0x00, 0x36, 0x00, 0x09, 0x1e, 0x70, 0xad,
   0x1d, 0xaf, 0xdb, 0xad, 0xb5, 0x43, 0x00, 0x00, 0x00, 0xb0, 0x01, 0x00,
   0x00, 0xcc, 0x00, 0xc0, 0x01, 0x80, 0x40, 0x00, 0x20, 0x10, 0x00, 0x08,
   0x04, 0x00, 0x12, 0x29, 0x08, 0xf2, 0xff, 0x6a, 0x1b, 0xbb, 0xb6, 0x6f,
   0x57, 0x63, 0x00, 0x00, 0x00, 0xb0, 0x00, 0x10, 0x00, 0x44, 0x00, 0xc0,
   0x00, 0x80, 0x40, 0x00, 0x20, 0x10, 0x00, 0x08, 0x44, 0x08, 0x1e, 0x80,
   0x0a, 0xeb, 0x5f, 0x5b, 0x1d, 0x6b, 0x6d, 0xd7, 0xba, 0x63, 0x00, 0x00,
   0x00, 0x90, 0x80, 0x00, 0x00, 0x44, 0x00, 0x00, 0x00, 0x80, 0x60, 0x00,
   0x20, 0x18, 0x01, 0x0c, 0x84, 0x20, 0x44, 0x12, 0x0c, 0x17, 0xa0, 0xd6,
   0x1a, 0x6d, 0xdb, 0x5a, 0xab, 0x21, 0x00, 0x00, 0x00, 0x90, 0x00, 0x00,
   0x00, 0x44, 0x00, 0x00, 0x00, 0x40, 0x40, 0x08, 0x10, 0x08, 0x00, 0x04,
   0x06, 0x00, 0x00, 0xa1, 0x04, 0xe9, 0x5f, 0xb5, 0x0d, 0xdb, 0x6a, 0xb7,
   0xb6, 0x31, 0x00, 0x00, 0x00, 0x90, 0x08, 0x00, 0x00, 0x44, 0x08, 0x00,
   0x20, 0x40, 0x20, 0x00, 0x10, 0x08, 0x00, 0x04, 0x06, 0x80, 0x10, 0x84,
   0x04, 0x15, 0xd2, 0x56, 0x0d, 0x55, 0x5b, 0xed, 0xed, 0x30, 0x00, 0x00,
   0x00, 0x90, 0x00, 0x22, 0x00, 0x66, 0x00, 0x80, 0x00, 0x40, 0x20, 0x00,
   0x10, 0x08, 0x00, 0x04, 0x02, 0x01, 0x44, 0x10, 0x86, 0xd5, 0xae, 0xda,
   0x0d, 0xbb, 0xed, 0x5a, 0xdb, 0x18, 0x00, 0x00, 0x00, 0xb0, 0x01, 0x00,
   0x04, 0x42, 0x00, 0xc0, 0x00, 0x40, 0x20, 0x00, 0x10, 0x08, 0x04, 0x04,
   0x12, 0x10, 0x00, 0x42, 0x82, 0xa9, 0xb4, 0xb5, 0x0e, 0x6b, 0xab, 0xab,
   0x6a, 0x18, 0x00, 0x00, 0x00, 0x30, 0x21, 0x80, 0x00, 0xc1, 0x00, 0x60,
   0x00, 0x40, 0x30, 0x00, 0x18, 0x04, 0x00, 0x04, 0x02, 0x82, 0x48, 0x08,
   0x83, 0x55, 0xab, 0xd6, 0x26, 0xb7, 0x6e, 0xdd, 0x6d, 0x0c, 0x00, 0x00,
   0x00, 0x30, 0x03, 0x00, 0x80, 0x81, 0x40, 0xf0, 0x00, 0x80, 0x30, 0x08,
   0x30, 0x0c, 0x00, 0x08, 0x03, 0x00, 0x00, 0x11, 0x81, 0xa9, 0xaa, 0x55,
   0x23, 0xee, 0x5a, 0x5b, 0x3b, 0x04, 0x00, 0x00, 0x00, 0x60, 0xbe, 0xff,
   0x7f, 0x90, 0x03, 0x98, 0x01, 0x80, 0x21, 0x00, 0x20, 0x08, 0x00, 0x18,
   0x21, 0x10, 0x11, 0xc0, 0x80, 0xa5, 0xaa, 0xaa, 0x31, 0xac, 0x6a, 0x55,
   0x1d, 0x06, 0x00, 0x00, 0x00, 0x60, 0xf0, 0xae, 0x0e, 0x38, 0xfe, 0x07,
   0xff, 0xff, 0xc0, 0xff, 0x3f, 0xf0, 0xff, 0x0f, 0x01, 0x00, 0x20, 0x78,
   0x08, 0xff, 0xff, 0xff, 0x70, 0xf8, 0xff, 0xff, 0x07, 0x03, 0x00, 0x00,
   0x00, 0xc0, 0x00, 0x00, 0x00, 0x7c, 0x00, 0x00, 0x00, 0x00, 0x0c, 0x00,
   0x00, 0x01, 0x00, 0x00, 0x41, 0x82, 0xff, 0x1f, 0x18, 0xfe, 0xff, 0x3f,
   0xd8, 0xe0, 0xff, 0x7f, 0x80, 0x01, 0x00, 0x00, 0x00, 0x80, 0x01, 0x00,
   0x00, 0xee, 0x00, 0x60, 0x00, 0x00, 0x0e, 0x00, 0x00, 0x03, 0x00, 0x80,
   0x05, 0xc0, 0x00, 0x00, 0x1e, 0x00, 0x00, 0x00, 0xce, 0x01, 0x00, 0x00,
   0xc0, 0x01, 0x00, 0x00, 0x00, 0x00, 0xff, 0xff, 0xff, 0x83, 0x07, 0xfe,
   0xab, 0xaa, 0x7f, 0x55, 0xe5, 0x9f, 0x24, 0x89, 0x00, 0xc4, 0x00, 0x80,
   0x77, 0x00, 0x00, 0x80, 0x87, 0x03, 0x00, 0x00, 0x70, 0x00, 0x00, 0x00,
   0x00, 0x00, 0xfc, 0xff, 0xff, 0x00, 0xff, 0x0f, 0xff, 0xff, 0xe1, 0xff,
   0x7f, 0xf8, 0xff, 0x9f, 0x40, 0x40, 0x00, 0xf0, 0xe1, 0xff, 0xff, 0xff,
   0x01, 0xfe, 0x02, 0xd0, 0x3f, 0x00, 0x00, 0x00, 0x00, 0x00, 0x00, 0x00,
   0x00, 0x00, 0x00, 0x00, 0x00, 0x00, 0x00, 0x00, 0x00, 0x00, 0x00, 0x88,
   0x04, 0x40, 0xf8, 0x7f, 0x80, 0xff, 0xff, 0x3f, 0x00, 0xf8, 0xff, 0xff,
   0x07, 0x00, 0x00, 0x00, 0x00, 0x00, 0x00, 0x00, 0x00, 0x00, 0x00, 0x00,
   0x00, 0x00, 0x00, 0x00, 0x00, 0x00, 0x00, 0x88, 0x88, 0x44, 0xf0, 0x03,
   0x00, 0x00, 0x00, 0x00, 0x00, 0x00, 0x00, 0x00, 0x00, 0x00, 0x00, 0x00,
   0x00, 0x00, 0x00, 0x00, 0x00, 0x00, 0x00, 0x00, 0x00, 0x00, 0x00, 0x00,
   0x00, 0x00, 0x00, 0xcc, 0x00, 0xc0, 0x20, 0x00, 0x00, 0x00, 0x00, 0x00,
   0x00, 0x00, 0x00, 0x00, 0x00, 0x00, 0x00, 0x00, 0x00, 0x00, 0x00, 0x00,
   0x00, 0x00, 0x00, 0x00, 0x00, 0x00, 0x00, 0x00, 0x00, 0x00, 0x00, 0x8c,
   0x00, 0x80, 0x61, 0x00, 0x00, 0x00, 0x00, 0x00, 0x00, 0x00, 0x00, 0x00,
   0x00, 0x00, 0x00, 0x00, 0x00, 0x00, 0x00, 0x00, 0x00, 0x00, 0x00, 0x00,
   0x00, 0x00, 0x00, 0x00, 0x00, 0x00, 0x00, 0x88, 0xff, 0xbf, 0x41, 0x00,
   0x00, 0x00, 0x00, 0x00, 0x00, 0x00, 0x00, 0x00, 0x00, 0x00, 0x00, 0x00,
   0x00, 0x00, 0x00, 0x00, 0x00, 0x00, 0x00, 0x00, 0x00, 0x00, 0x00, 0x00,
   0x00, 0x00, 0x00, 0x18, 0x54, 0x6b, 0x60, 0x00, 0x00, 0x00, 0x00, 0x00,
   0x00, 0x00, 0x00, 0x00, 0x00, 0x00, 0x00, 0x00, 0x00, 0x00, 0x00, 0x00,
   0x00, 0x00, 0x00, 0x00, 0x00, 0x00, 0x00, 0x00, 0x00, 0x00, 0x00, 0x18,
   0x00, 0x00, 0x60, 0x00, 0x00, 0x00, 0x00, 0x00, 0x00, 0x00, 0x00, 0x00,
   0x00, 0x00, 0x00, 0x00, 0x00, 0x00, 0x00, 0x00, 0x00, 0x00, 0x00, 0x00,
   0x00, 0x00, 0x00, 0x00, 0x00, 0x00, 0x00, 0x70, 0x00, 0x00, 0x30, 0x00,
   0x00, 0x00, 0x00, 0x00, 0x00, 0x00, 0x00, 0x00, 0x00, 0x00, 0x00, 0x00,
   0x00, 0x00, 0x00, 0x00, 0x00, 0x00, 0x00, 0x00, 0x00, 0x00, 0x00, 0x00,
   0x00, 0x00, 0x00, 0xe0, 0xff, 0xff, 0x1e, 0x00, 0x00, 0x00, 0x00, 0x00,
   0x00, 0x00, 0x00, 0x00, 0x00, 0x00, 0x00, 0x00, 0x00, 0x00, 0x00, 0x00,
   0x00, 0x00, 0x00, 0x00, 0x00, 0x00, 0x00, 0x00, 0x00, 0x00, 0x00, 0x80,
   0xff, 0xff, 0x0f, 0x00, 0x00, 0x00, 0x00, 0x00, 0x00, 0x00, 0x00, 0x00,
   0x00, 0x00, 0x00, 0x00, 0x00, 0x00, 0x00, 0x00, 0x00, 0x00, 0x00, 0x00,
   0x00, 0x00, 0x00, 0x00, 0x00, 0x00, 0x00, 0x00, 0x00, 0x00, 0x00, 0x00,
   0x00, 0x00, 0x00, 0x00, 0x00, 0x00, 0x00, 0x00, 0x00, 0x00, 0x00, 0x00,
   0x00, 0x00, 0x00, 0x00, 0x00, 0x00, 0x00, 0x00, 0x00, 0x00, 0x00, 0x00,
   0x00, 0x00, 0x00, 0x00, 0x00, 0x00, 0x00, 0x00, 0x00, 0x00, 0x00, 0x00,
   0x00, 0x00, 0x00, 0x00, 0x00, 0x00, 0x00, 0x00 };
