#define _width 256
#define _height 64
static char _bits[] = {
 0x00,0x00,0x00,0x00,0x00,0x00,0x00,0x00,0x00,0x00,0x00,0x00,
 0x00,0x00,0x00,0x00,0x00,0x00,0x00,0x00,0x00,0x00,0x00,0x00,
 0x00,0x00,0x00,0x00,0x00,0x00,0x00,0x00,0x00,0x00,0x00,0x00,
 0x00,0x00,0x00,0x00,0x00,0x00,0x00,0x00,0x00,0x00,0x00,0x00,
 0x00,0x00,0x00,0x00,0x00,0x00,0x00,0x00,0x00,0x00,0x00,0x00,
 0x00,0x00,0x00,0x00,0x00,0x00,0x00,0x00,0x00,0x00,0x00,0x00,
 0x00,0x00,0x00,0x00,0x00,0x00,0x00,0x00,0x00,0x00,0x00,0x00,
 0x00,0x00,0x00,0x00,0x00,0x00,0x00,0x00,0x00,0x00,0x00,0x00,
 0x00,0x00,0x00,0x00,0x00,0x00,0x00,0x00,0x00,0x00,0x00,0x00,
 0x00,0x00,0x00,0x00,0x00,0x00,0x00,0x00,0x00,0x00,0x00,0x00,
 0x00,0x00,0x00,0x00,0x00,0x00,0x00,0x00,0x00,0x00,0x00,0x00,
 0x00,0x00,0x00,0x00,0x00,0x00,0xe0,0xff,0xff,0xff,0xff,0xff,
 0xff,0xff,0xff,0xff,0xff,0x00,0x00,0x00,0x00,0x00,0x00,0x00,
 0x00,0x00,0x00,0x00,0x00,0x00,0x00,0x00,0x00,0x00,0x00,0x00,
 0x00,0x00,0xe0,0xff,0xff,0xff,0xff,0xff,0xff,0xff,0xff,0xff,
 0xff,0x00,0x00,0x00,0x00,0x00,0x00,0x00,0x00,0x00,0x00,0x00,
 0x00,0x00,0x00,0x00,0x00,0x00,0x00,0x00,0x00,0x00,0xe0,0xff,
 0xff,0xff,0xff,0xff,0xff,0xff,0xff,0xff,0xff,0x00,0x00,0x00,
 0x00,0x00,0x00,0x00,0x00,0x00,0x00,0x00,0x00,0x00,0x00,0x00,
 0x00,0x00,0x00,0x00,0x00,0x00,0xe0,0xff,0xff,0xff,0xff,0xff,
 0xff,0xff,0xff,0xff,0xff,0x00,0x00,0x00,0x00,0x00,0x00,0x00,
 0x00,0x00,0x00,0x00,0x00,0x00,0x00,0x00,0x00,0x00,0x00,0x00,
 0x00,0x00,0xe0,0xff,0xff,0xff,0xff,0xff,0xff,0xff,0xff,0xff,
 0xff,0x00,0x00,0x00,0x00,0x00,0x00,0x00,0x00,0x00,0x00,0x00,
 0x00,0x00,0x00,0x00,0x00,0x00,0x00,0x00,0x00,0x00,0x00,0x00,
 0x00,0x00,0x00,0x00,0x00,0x00,0x00,0x00,0x00,0x00,0x00,0x00,
 0x00,0x00,0x00,0x00,0x00,0x00,0x00,0x00,0x00,0x00,0x00,0x00,
 0x00,0x00,0x00,0x00,0x00,0x00,0xe0,0x07,0x04,0x04,0x3f,0xe0,
 0x41,0x10,0x82,0x00,0x1f,0x00,0x00,0x00,0x00,0x00,0x00,0x00,
 0x00,0x00,0x00,0x00,0x00,0x00,0x00,0x00,0x00,0x00,0x00,0x00,
 0x00,0x00,0x20,0x00,0x06,0x04,0x41,0x10,0x42,0x10,0x82,0x00,
 0x21,0x00,0x00,0x00,0x00,0x00,0x00,0x00,0x00,0x00,0x00,0x00,
 0x00,0x00,0x00,0x00,0x00,0x00,0x00,0x00,0x00,0x00,0x20,0x00,
 0x0a,0x04,0x41,0x08,0x40,0x10,0x82,0x00,0x41,0x00,0x00,0x00,
 0x00,0x00,0x00,0x00,0x00,0x00,0x00,0x00,0x00,0x00,0x00,0x00,
 0x00,0x00,0x00,0x00,0x00,0x00,0x20,0x00,0x0a,0x04,0x41,0x08,
 0x40,0x10,0x82,0x00,0x81,0x00,0x00,0x00,0x00,0x00,0x00,0x00,
 0x00,0x00,0x00,0x00,0x00,0x00,0x00,0x00,0x00,0x00,0x00,0x00,
 0x00,0x00,0xe0,0x07,0x11,0x04,0x3f,0x08,0xc0,0x1f,0x82,0x00,
 0x81,0x00,0x00,0x00,0x00,0x00,0x00,0x00,0x00,0x00,0x00,0x00,
 0x00,0x00,0x00,0x00,0x00,0x00,0x00,0x00,0x00,0x00,0x20,0x00,
 0x1f,0x04,0x11,0x08,0x40,0x10,0x82,0x00,0x81,0x00,0x00,0x00,
 0x00,0x00,0x00,0x00,0x00,0x00,0x00,0x00,0x00,0x00,0x00,0x00,
 0x00,0x00,0x00,0x00,0x00,0x00,0x20,0x80,0x10,0x04,0x21,0x08,
 0x40,0x10,0x82,0x00,0x41,0x00,0x00,0x00,0x00,0x00,0x00,0x00,
 0x00,0x00,0x00,0x00,0x00,0x00,0x00,0x00,0x00,0x00,0x00,0x00,
 0x00,0x00,0x20,0x80,0x20,0x04,0x21,0x10,0x42,0x10,0x82,0x00,
 0x21,0x00,0x00,0x00,0x00,0x00,0x00,0x00,0x00,0x00,0x00,0x00,
 0x00,0x00,0x00,0x00,0x00,0x00,0x00,0x00,0x00,0x00,0x20,0x40,
 0x20,0x04,0x41,0xe0,0x41,0x10,0x82,0x0f,0x1f,0x00,0x00,0x00,
 0x00,0x00,0x00,0x00,0x00,0x00,0x00,0x00,0x00,0x00,0x00,0x00,
 0x00,0x00,0x00,0x00,0x00,0x00,0x00,0x00,0x00,0x00,0x00,0x00,
 0x00,0x00,0x00,0x00,0x00,0x00,0x00,0x00,0x00,0x00,0x00,0x00,
 0x00,0x00,0x00,0x00,0x00,0x00,0x00,0x00,0x00,0x00,0x00,0x00,
 0x00,0x00,0xe0,0xff,0xff,0xff,0xff,0xff,0xff,0xff,0xff,0xff,
 0xff,0x00,0x00,0x00,0x00,0x00,0x00,0x00,0x00,0x00,0x00,0x00,
 0x00,0x00,0x00,0x00,0x00,0x00,0x00,0x00,0x00,0x00,0xe0,0xff,
 0xff,0xff,0xff,0xff,0xff,0xff,0xff,0xff,0xff,0x00,0x00,0x00,
 0x00,0x00,0x00,0x00,0x00,0x00,0x00,0x00,0x00,0x00,0x00,0x00,
 0x00,0x00,0x00,0x00,0x00,0x00,0xe0,0xff,0xff,0xff,0xff,0xff,
 0xff,0xff,0xff,0xff,0xff,0x00,0x00,0x00,0x00,0x00,0x00,0x00,
 0x00,0x00,0x00,0x00,0x00,0x00,0x00,0x00,0x00,0x00,0x00,0x00,
 0x00,0x00,0xe0,0xff,0xff,0xff,0xff,0xff,0xff,0xff,0xff,0xff,
 0xff,0x00,0x00,0x00,0x00,0x00,0x00,0x00,0x00,0x00,0x00,0x00,
 0x00,0x00,0x00,0x00,0x00,0x00,0x00,0x00,0x00,0x00,0xe0,0xff,
 0xff,0xff,0xff,0xff,0xff,0xff,0xff,0xff,0xff,0x00,0x00,0x00,
 0x00,0x00,0x00,0x00,0x00,0x00,0x00,0x00,0x00,0x00,0x00,0x00,
 0x00,0x00,0x00,0x00,0x00,0x00,0x00,0x00,0x00,0x00,0x00,0x00,
 0x00,0x00,0x00,0x00,0x00,0x00,0x00,0x00,0x00,0x00,0x00,0x00,
 0x00,0x00,0x00,0x00,0x00,0x00,0x00,0x00,0x00,0x00,0x00,0x00,
 0x00,0x00,0x00,0x00,0x00,0x00,0x00,0x00,0x00,0x00,0x00,0x00,
 0x00,0x00,0x00,0x00,0xfc,0xff,0x3f,0x00,0x00,0x00,0x00,0x00,
 0x00,0x00,0x00,0x00,0x00,0x00,0x00,0x00,0x00,0x00,0x00,0x00,
 0x00,0x00,0x00,0x00,0x00,0x00,0x00,0x00,0x00,0x00,0x00,0xfc,
 0xff,0xff,0xff,0x3f,0x00,0x00,0x00,0x00,0x00,0x00,0x00,0x00,
 0x00,0x00,0x00,0x00,0x00,0x00,0x00,0x00,0x00,0x00,0x00,0x00,
 0x00,0x00,0x00,0x00,0x00,0x00,0x00,0xff,0xff,0xff,0xff,0xff,
 0x01,0x00,0x00,0x00,0x00,0x00,0x00,0x00,0x00,0x00,0x00,0x00,
 0x00,0x00,0x00,0x00,0x00,0x00,0x00,0x00,0x00,0x00,0x00,0x00,
 0x00,0x00,0x80,0xff,0x0f,0x00,0xe0,0xff,0x03,0x00,0x00,0x00,
 0x00,0x00,0x00,0x00,0xe0,0x1f,0xfc,0x00,0x3e,0x00,0xf8,0x1f,
 0x3f,0x00,0x3f,0x3f,0x00,0x3f,0xfe,0xff,0xfc,0x00,0xc0,0xff,
 0x0f,0x00,0xe0,0xff,0x03,0x00,0x00,0x00,0x00,0x00,0x00,0x00,
 0xf8,0x3f,0xfc,0x00,0x3e,0x00,0xfc,0x1f,0x3f,0x00,0x3f,0x7f,
 0x00,0x3f,0xfe,0xff,0xfc,0x00,0xc0,0xff,0x0f,0x00,0xe0,0xff,
 0x03,0x00,0x00,0x00,0x00,0x00,0x00,0x00,0xfe,0x3f,0xfc,0x00,
 0x3e,0x00,0xfc,0x1f,0x7f,0x00,0x3f,0xff,0x00,0x3f,0xfe,0xff,
 0xfc,0x00,0xc0,0xff,0x0f,0x00,0xe0,0xff,0x07,0x00,0x00,0x00,
 0x00,0x00,0x00,0x00,0xff,0x3f,0xfc,0x00,0x3e,0x00,0xfe,0x1f,
 0xff,0x00,0x3f,0xff,0x00,0x3f,0xfe,0xff,0xfc,0x00,0xc0,0xff,
 0x0f,0x00,0xe0,0xff,0x07,0x00,0x00,0x00,0x00,0x00,0x00,0x80,
 0xff,0x3f,0xfc,0x00,0x3e,0x00,0xfe,0x1f,0xff,0x01,0x3f,0xff,
 0x01,0x3f,0xfe,0xff,0xfc,0x00,0xc0,0xff,0x0f,0x00,0xe0,0xff,
 0x07,0x00,0x00,0x00,0x00,0x00,0x00,0xc0,0xff,0x3f,0xfc,0x00,
 0x3e,0x00,0xff,0x1f,0xff,0x01,0x3f,0xff,0x03,0x3f,0xfe,0xff,
 0xfc,0x00,0xc0,0xff,0x0f,0xf0,0xff,0xff,0x07,0x00,0x00,0x00,
 0x00,0x00,0x00,0xc0,0x7f,0x38,0xfc,0x00,0x3e,0x00,0xbf,0x1f,
 0xff,0x03,0x3f,0xff,0x07,0x3f,0xfe,0x00,0xfc,0x00,0xc0,0xff,
 0x0f,0xf0,0xff,0xff,0x07,0x00,0x00,0x00,0x00,0x00,0x00,0xe0,
 0x1f,0x20,0xfc,0x00,0x3e,0x80,0xbf,0x1f,0xff,0x07,0x3f,0xff,
 0x07,0x3f,0xfe,0x00,0xfc,0x00,0xe0,0xff,0x0f,0xf0,0xff,0xff,
 0x07,0x00,0x00,0x00,0x00,0x00,0x00,0xe0,0x0f,0x00,0xfc,0x00,
 0x3e,0xc0,0x9f,0x1f,0xff,0x07,0x3f,0xff,0x0f,0x3f,0xfe,0x00,
 0xfc,0x00,0xe0,0xff,0x0f,0xf0,0xff,0xff,0x07,0x00,0x00,0x00,
 0x00,0x00,0x00,0xf0,0x07,0x00,0xfc,0x00,0x3e,0xc0,0x9f,0x1f,
 0xff,0x0f,0x3f,0xff,0x1f,0x3f,0xfe,0x00,0xfc,0x00,0xe0,0xff,
 0x0f,0xf0,0xff,0xff,0x07,0x00,0x00,0x00,0x00,0x00,0x00,0xf0,
 0x03,0x00,0xfc,0xff,0x3f,0xe0,0xff,0x1f,0xff,0x1f,0x3f,0xff,
 0x1f,0x3f,0xfe,0xff,0xfc,0x00,0xe0,0xff,0x0f,0x00,0xe0,0xff,
 0x07,0x00,0x00,0x00,0x00,0x00,0x00,0xf0,0x03,0x00,0xfc,0xff,
 0x3f,0xe0,0xff,0x1f,0xff,0x3f,0x3f,0xff,0x3f,0x3f,0xfe,0xff,
 0xfc,0x00,0xe0,0xff,0x0f,0x00,0xe0,0xff,0x07,0x00,0x00,0x00,
 0x00,0x00,0x00,0xf0,0x03,0x00,0xfc,0xff,0x3f,0xf0,0xff,0x1f,
 0xff,0x3f,0x3f,0xff,0x7f,0x3f,0xfe,0xff,0xfc,0x00,0xe0,0xff,
 0x0f,0x00,0xe0,0xff,0x07,0x00,0x00,0x00,0x00,0x00,0x00,0xf0,
 0x03,0x00,0xfc,0xff,0x3f,0xf0,0xff,0x1f,0xbf,0xff,0x3f,0x7f,
 0xff,0x3f,0xfe,0xff,0xfc,0x00,0xe0,0xff,0x0f,0x00,0xe0,0xff,
 0x07,0x00,0x00,0x00,0x00,0x00,0x00,0xf0,0x03,0x00,0xfc,0xff,
 0x3f,0xf8,0xff,0x1f,0x3f,0xff,0x3f,0x7f,0xfe,0x3f,0xfe,0xff,
 0xfc,0x00,0xe0,0xff,0x0f,0x00,0xe0,0xff,0x07,0x00,0x00,0x00,
 0x00,0x00,0x00,0xf0,0x03,0x00,0xfc,0xff,0x3f,0xf8,0xff,0x1f,
 0x3f,0xfe,0x3f,0x7f,0xfe,0x3f,0xfe,0xff,0xfc,0x00,0xe0,0xff,
 0x0f,0x00,0xe0,0xff,0x07,0x00,0x00,0x00,0x00,0x00,0x00,0xf0,
 0x07,0x00,0xfc,0x00,0x3e,0xfc,0x81,0x1f,0x3f,0xfe,0x3f,0x7f,
 0xfc,0x3f,0xfe,0x00,0xfc,0x00,0xe0,0xff,0x0f,0x00,0xe0,0xff,
 0x07,0x00,0x00,0x00,0x00,0x00,0x00,0xf0,0x07,0x00,0xfc,0x00,
 0x3e,0xfc,0x80,0x1f,0x3f,0xfc,0x3f,0x7f,0xf8,0x3f,0xfe,0x00,
 0xfc,0x00,0xe0,0xff,0x0f,0xf0,0xff,0xff,0x07,0x00,0x00,0x00,
 0x00,0x00,0x00,0xe0,0x0f,0x00,0xfc,0x00,0x3e,0xfe,0x80,0x1f,
 0x3f,0xf8,0x3f,0x7f,0xf8,0x3f,0xfe,0x00,0xfc,0x00,0xc0,0xff,
 0x0f,0xf0,0xff,0xff,0x07,0x00,0x00,0x00,0x00,0x00,0x00,0xe0,
 0x1f,0x30,0xfc,0x00,0x3e,0x7e,0x80,0x1f,0x3f,0xf8,0x3f,0x7f,
 0xf0,0x3f,0xfe,0x00,0xfc,0x00,0xc0,0xff,0x0f,0xf0,0xff,0xff,
 0x07,0x00,0x00,0x00,0x00,0x00,0x00,0xc0,0xff,0x3f,0xfc,0x00,
 0x3e,0x7f,0x80,0x1f,0x3f,0xf0,0x3f,0x7f,0xe0,0x3f,0xfe,0x01,
 0xfc,0x00,0xc0,0xff,0x0f,0xf0,0xff,0xff,0x07,0x00,0x00,0x00,
 0x00,0x00,0x00,0x80,0xff,0x3f,0xfc,0x00,0xbe,0x3f,0x80,0x1f,
 0x3f,0xe0,0x3f,0x7f,0xc0,0x3f,0xfe,0xff,0xfc,0xff,0xc0,0xff,
 0x0f,0xf0,0xff,0xff,0x07,0x00,0x00,0x00,0x00,0x00,0x00,0x00,
 0xff,0x3f,0xfc,0x00,0xfe,0x3f,0x80,0x1f,0x3f,0xc0,0x3f,0x7f,
 0xc0,0x3f,0xfe,0xff,0xfc,0xff,0xc0,0xff,0x0f,0xf0,0xff,0xff,
 0x07,0x00,0x00,0x00,0x00,0x00,0x00,0x00,0xfe,0x3f,0xfc,0x00,
 0xfe,0x1f,0x80,0x1f,0x3f,0xc0,0x3f,0x7f,0x80,0x3f,0xfe,0xff,
 0xfc,0xff,0xc0,0xff,0x0f,0xf0,0xff,0xff,0x07,0x00,0x00,0x00,
 0x00,0x00,0x00,0x00,0xfc,0x3f,0xfc,0x00,0xfe,0x1f,0x80,0x1f,
 0x3f,0x80,0x3f,0x7f,0x00,0x3f,0xfe,0xff,0xfc,0xff,0xc0,0xff,
 0x0f,0xf0,0xff,0xff,0x03,0x00,0x00,0x00,0x00,0x00,0x00,0x00,
 0xf0,0x3f,0xfc,0x00,0xfe,0x0f,0x80,0x1f,0x3f,0x00,0x3f,0x7f,
 0x00,0x3f,0xfe,0xff,0xfc,0xff,0x80,0xff,0x0f,0xf0,0xff,0xff,
 0x03,0x00,0x00,0x00,0x00,0x00,0x00,0x00,0x00,0x00,0x00,0x00,
 0x00,0x00,0x00,0x00,0x00,0x00,0x00,0x00,0x00,0x00,0x00,0x00,
 0x00,0x00,0x80,0xff,0x0f,0xf0,0xff,0xff,0x03,0x00,0x00,0x00,
 0x00,0x00,0x00,0x00,0x00,0x00,0x00,0x00,0x00,0x00,0x00,0x00,
 0x00,0x00,0x00,0x00,0x00,0x00,0x00,0x00,0x00,0x00,0x00,0xff,
 0x1f,0xf8,0xff,0xff,0x01,0x00,0x00,0x00,0x00,0x00,0x00,0x00,
 0x00,0x00,0x00,0x00,0x00,0x00,0x00,0x00,0x00,0x00,0x00,0x00,
 0x00,0x00,0x00,0x00,0x00,0x00,0x00,0xfe,0xff,0xff,0xff,0xff,
 0x00,0x00,0x00,0x00,0x00,0x00,0x00,0x00,0x00,0x00,0x00,0x00,
 0x00,0x00,0x00,0x00,0x00,0x00,0x00,0x00,0x00,0x00,0x00,0x00,
 0x00,0x00,0x00,0xe0,0xff,0xff,0xff,0x1f,0x00,0x00,0x00,0x00,
 0x00,0x00,0x00,0x00,0x00,0x00,0x00,0x00,0x00,0x00,0x00,0x00,
 0x00,0x00,0x00,0x00,0x00,0x00,0x00,0x00,0x00,0x00,0x00,0x00,
 0x00,0xff,0x01,0x00,0x00,0x00,0x00,0x00,0x00,0x00,0x00,0x00,
 0x00,0x00,0x00,0x00,0x00,0x00,0x00,0x00,0x00,0x00,0x00,0x00,
 0x00,0x00,0x00,0x00,0x00,0x00,0x00,0x00,0x00,0x00,0x00,0x00,
 0x00,0x00,0x00,0x00,0x00,0x00,0x00,0x00,0x00,0x00,0x00,0x00,
 0x00,0x00,0x00,0x00,0x00,0x00,0x00,0x00,0x00,0x00,0x00,0x00,
 0x00,0x00,0x00,0x00,0x00,0x00,0x00,0x00,0x00,0x00,0x00,0x00,
 0x00,0x00,0x00,0x00,0x00,0x00,0x00,0x00,0x00,0x00,0x00,0x00,
 0x00,0x00,0x00,0x00,0x00,0x00,0x00,0x00,0x00,0x00,0x00,0x00,
 0x00,0x00,0x00,0x00,0x00,0x00,0x00,0x00 };
