#define _width 256
#define _height 64
static char _bits[] = {
 0x00,0x00,0x00,0x00,0x00,0x00,0x00,0x00,0x00,0x00,0x00,0x00,0x00,0x00,0x00,
 0x00,0x00,0x00,0x00,0x00,0x00,0x00,0x00,0x00,0x00,0x00,0x00,0x00,0x00,0x00,
 0x00,0x00,0x00,0x00,0x00,0x00,0x00,0x00,0x00,0x00,0x00,0x00,0x00,0x00,0x00,
 0x00,0x00,0x00,0x00,0x00,0x00,0x00,0x00,0x00,0x00,0x00,0x00,0x00,0x00,0x00,
 0x00,0x00,0x00,0x00,0x00,0xf8,0xff,0x01,0x00,0x00,0x00,0x00,0x00,0x00,0x00,
 0x00,0x00,0x00,0x00,0x00,0x00,0x00,0xff,0x0f,0x00,0x00,0x00,0x00,0x00,0x00,
 0xfc,0x1f,0x00,0x00,0x00,0x00,0x80,0x0f,0x00,0x1f,0x00,0x00,0x00,0x00,0x00,
 0x00,0x00,0x00,0x00,0x00,0x00,0x00,0x00,0xe0,0x01,0x38,0x00,0x00,0x00,0x00,
 0x00,0x80,0x07,0x70,0x00,0x00,0x00,0x00,0xf0,0x00,0x00,0x70,0x00,0x00,0x00,
 0x00,0x00,0x00,0x00,0x00,0x00,0x00,0x00,0x00,0x00,0x38,0x00,0x60,0x00,0x00,
 0x00,0x00,0x00,0xe0,0x00,0xc0,0x00,0x00,0x00,0x00,0x1c,0x00,0x00,0xc0,0x01,
 0x00,0x00,0x00,0x00,0x00,0x00,0x00,0x00,0x00,0x00,0x00,0x00,0x0c,0x00,0xc0,
 0x00,0x00,0x00,0x00,0x00,0x30,0x00,0x80,0x01,0x00,0x00,0x00,0x06,0x00,0x00,
 0x00,0x03,0x00,0x00,0x00,0x00,0x00,0x00,0x00,0x00,0x00,0x00,0x00,0x00,0x06,
 0x00,0x80,0x01,0x00,0x00,0x00,0x00,0x18,0x00,0x00,0x03,0x00,0x00,0x00,0x03,
 0x00,0x00,0x00,0x06,0x00,0x00,0x00,0x00,0x00,0x00,0x00,0x00,0x00,0x00,0x00,
 0x80,0x03,0x00,0x00,0x03,0x00,0x00,0x00,0x00,0x0c,0x00,0x00,0x06,0x00,0x00,
 0x00,0x01,0x00,0x00,0x00,0x0c,0x00,0x00,0x00,0x00,0x00,0x00,0x00,0x00,0x00,
 0x00,0x00,0x80,0x00,0x00,0x00,0x06,0x00,0x00,0x00,0x00,0x06,0x00,0x00,0x0c,
 0x00,0x00,0x00,0x03,0x00,0x00,0x00,0x38,0x00,0x00,0x00,0x00,0x00,0x00,0x00,
 0x00,0x00,0x00,0x00,0xc0,0x00,0x00,0x00,0x04,0x00,0x00,0x00,0x00,0x03,0x00,
 0x00,0x18,0x00,0x00,0x00,0x02,0x00,0x00,0x00,0x60,0x00,0x00,0x00,0x00,0x00,
 0x00,0x00,0x00,0x00,0x00,0x00,0x60,0x00,0x00,0x00,0x0c,0x00,0x00,0x00,0x00,
 0x01,0x00,0x00,0x30,0x00,0x00,0x00,0x06,0x00,0x00,0x00,0xc0,0x00,0x00,0x00,
 0x00,0x00,0x00,0x00,0x00,0x00,0x00,0x00,0x20,0x00,0x00,0x00,0x0c,0x00,0x00,
 0x00,0x80,0x01,0x00,0x00,0x30,0x00,0x00,0x00,0x04,0x00,0x00,0x00,0x80,0x00,
 0x00,0x00,0x00,0x00,0x00,0x00,0x00,0x00,0x00,0x00,0x30,0x00,0x00,0x00,0x1c,
 0x00,0x00,0x00,0xc0,0x00,0x00,0x00,0x60,0x00,0x00,0x00,0x0c,0x00,0x00,0x00,
 0x80,0x01,0x00,0x00,0x00,0x00,0x00,0x00,0x00,0x00,0x00,0x00,0x10,0x00,0x00,
 0x00,0x1c,0x00,0x00,0x00,0x40,0x00,0x00,0x00,0x60,0x00,0x00,0x00,0x08,0x00,
 0x00,0x00,0x00,0x01,0x00,0x00,0x00,0x00,0x00,0x00,0x00,0x00,0x00,0x00,0x18,
 0x00,0x00,0x00,0x3c,0x00,0x00,0x00,0x60,0x00,0x00,0x00,0x60,0x00,0x00,0x00,
 0x18,0x00,0x00,0x00,0x00,0x03,0x00,0x00,0x00,0x00,0x00,0x00,0x00,0x00,0x00,
 0x00,0x08,0x00,0x00,0x00,0x3c,0x00,0x00,0x00,0x20,0x00,0x00,0x00,0x70,0x00,
 0x00,0x00,0x10,0x00,0x00,0x00,0x00,0x02,0x00,0x00,0x00,0x00,0x00,0x00,0x00,
 0x00,0x00,0x00,0x0c,0x00,0x00,0x00,0x38,0x00,0x00,0x00,0x30,0x00,0x00,0x00,
 0x70,0x00,0x00,0x00,0x30,0x00,0x00,0x00,0x00,0x02,0x00,0x00,0x00,0x00,0x00,
 0x00,0x00,0x00,0x00,0x00,0x04,0x00,0x18,0x00,0x38,0x00,0x00,0x00,0x10,0x00,
 0x00,0x00,0x70,0x00,0x00,0x00,0x60,0x00,0x00,0x00,0x00,0x06,0x00,0x00,0x00,
 0x00,0x00,0x00,0x00,0x00,0x00,0x00,0x04,0x00,0x1e,0x00,0x3c,0x00,0x00,0x00,
 0x18,0x00,0x30,0x00,0x78,0x00,0x00,0x00,0x40,0x00,0x00,0x00,0x00,0x04,0x00,
 0x00,0x00,0x00,0x00,0x00,0x00,0x00,0x00,0x00,0x06,0x00,0x1f,0x00,0x3c,0x00,
 0x00,0x00,0x08,0x00,0x78,0x00,0x78,0x00,0x00,0x00,0xc0,0x00,0x00,0x03,0x00,
 0x0c,0x00,0x00,0x00,0x00,0x00,0x00,0x00,0x00,0x00,0x00,0x02,0x00,0x3f,0x00,
 0x3e,0x00,0x00,0x00,0x0c,0x00,0xfc,0x00,0x78,0x00,0x00,0x00,0x80,0x00,0xc0,
 0x07,0x00,0x08,0x00,0x00,0x00,0x00,0x00,0x00,0x00,0x00,0x00,0x00,0x02,0x00,
 0x7f,0xc0,0x3f,0x80,0x3f,0x00,0x04,0x00,0xfe,0x01,0x7f,0x00,0x7e,0x00,0x80,
 0x00,0xe0,0x0f,0x00,0x08,0x00,0x00,0x00,0x00,0x00,0x00,0x00,0x00,0x00,0x00,
 0x03,0x00,0xff,0xff,0x3f,0xe0,0xe0,0x00,0x04,0x00,0xfe,0xff,0x7f,0xc0,0xc3,
 0x01,0x80,0x00,0xe0,0x1b,0x00,0x08,0x00,0x00,0x00,0x00,0x00,0x00,0x00,0x00,
 0x00,0x00,0x01,0x80,0xff,0xff,0x1f,0x38,0x80,0x01,0x06,0x00,0xff,0xff,0x7f,
 0x70,0x00,0x03,0x80,0x00,0xe0,0x11,0x00,0x08,0xf8,0x0f,0xf8,0xff,0xff,0x01,
 0xff,0xff,0x7f,0x80,0x01,0x80,0xff,0xff,0x0f,0x0c,0x00,0x03,0x02,0x00,0xff,
 0xff,0x7f,0x18,0x00,0x06,0xc0,0x00,0xe0,0x11,0x00,0x18,0x0c,0x18,0x0c,0x00,
 0x00,0x83,0x01,0x00,0xc0,0x81,0x00,0x80,0x1f,0x00,0x06,0x06,0x00,0x06,0x02,
 0x00,0x1f,0x00,0x3c,0x0c,0x00,0x0c,0x40,0x00,0xe0,0x11,0x00,0x18,0x04,0x30,
 0x04,0x00,0x00,0xc6,0x00,0x00,0x80,0x81,0x00,0x80,0x07,0x00,0x0c,0x03,0x00,
 0x04,0x02,0x00,0x0f,0x00,0x60,0x06,0x00,0x18,0x40,0x00,0xe0,0x11,0x00,0x18,
 0x06,0x30,0x06,0x00,0x00,0x4e,0x00,0x00,0x80,0xc1,0x00,0x80,0x03,0x00,0x18,
 0x01,0x00,0x0c,0x03,0x00,0x07,0x00,0xc0,0x02,0x00,0x30,0x40,0x00,0xf0,0x11,
 0x00,0x38,0x02,0x30,0x02,0x00,0x00,0x4e,0x00,0x00,0x80,0x41,0x00,0xc0,0x01,
 0x00,0xb0,0x01,0x00,0x08,0x01,0x00,0x03,0x00,0x80,0x02,0x00,0x20,0x40,0x00,
 0xf0,0x11,0x00,0x38,0x02,0x30,0x03,0x00,0x00,0x4e,0x00,0x00,0x80,0x41,0x00,
 0xc0,0x00,0x00,0xe0,0x00,0x00,0x18,0x01,0x00,0x03,0x00,0x80,0x03,0x00,0x20,
 0x60,0x00,0xf0,0x19,0x00,0x38,0x03,0x78,0x01,0x00,0x00,0x4e,0x00,0x00,0x80,
 0x41,0x00,0xe0,0x00,0x00,0xc0,0x00,0x00,0x10,0x01,0x80,0x03,0x00,0x00,0x01,
 0x00,0x60,0x20,0x00,0xf0,0x08,0x00,0x38,0x01,0x78,0x01,0x00,0x00,0x4e,0x00,
 0x00,0xc0,0x41,0x00,0xe0,0x00,0x00,0x40,0x00,0x01,0x30,0x01,0x80,0x03,0x00,
 0x00,0x01,0x04,0x40,0x20,0x00,0xf8,0x08,0x00,0x38,0x01,0x78,0x01,0x80,0xff,
 0xcf,0x1f,0x80,0xff,0x41,0x00,0xe0,0x00,0x00,0xc0,0x80,0x07,0x20,0x01,0x80,
 0x01,0x00,0x00,0x03,0x1f,0x40,0x30,0x00,0xf8,0x08,0x00,0x38,0x01,0x7c,0x03,
 0xc0,0xff,0x8f,0x1f,0x80,0xff,0x61,0x00,0xf0,0x00,0x00,0xc0,0x81,0x07,0x20,
 0x01,0xc0,0x01,0x00,0x80,0x07,0x1f,0xc0,0x10,0x00,0x78,0x0c,0x00,0x3c,0x01,
 0x7c,0x02,0xc0,0xff,0x8f,0x1f,0x80,0xff,0x21,0x00,0xf0,0x00,0x00,0xc0,0x81,
 0x07,0x20,0x01,0xc0,0x01,0x00,0x80,0x07,0x1f,0xc0,0x10,0x00,0x7c,0x04,0x00,
 0x3c,0x01,0x7c,0x02,0xe0,0xff,0x07,0x1f,0xc0,0xff,0x20,0x00,0xf0,0x01,0x00,
 0xc0,0x81,0x07,0xb0,0x01,0xc0,0x03,0x00,0x80,0x07,0x1f,0xc0,0x10,0x00,0x7c,
 0x06,0x00,0x9c,0x01,0x3c,0x02,0xe0,0xff,0x07,0x08,0xc0,0x03,0x20,0x00,0xf0,
 0x03,0x00,0xf0,0xc1,0x07,0xb0,0x00,0xe0,0x07,0x00,0xc0,0x07,0x1f,0xc0,0x18,
 0x00,0x3c,0x02,0x00,0x9e,0x00,0x3e,0x02,0xe0,0x1f,0x00,0x08,0xc0,0x03,0x30,
 0x00,0xf8,0x03,0x00,0xfc,0xe0,0x07,0xb0,0x00,0xe0,0x0f,0x00,0xe0,0x03,0x1f,
 0xc0,0x08,0x00,0x3e,0x03,0x00,0x9e,0x00,0x3e,0x03,0x00,0x30,0x00,0x0c,0xe0,
 0x03,0x10,0x00,0xf8,0x03,0x00,0xfe,0xe0,0x07,0xb0,0x00,0xe0,0x0f,0x00,0xf8,
 0x83,0x1f,0xc0,0x0c,0x00,0x3e,0x01,0x00,0x9f,0x00,0x3e,0x01,0x00,0xe0,0x00,
 0x04,0xe0,0x03,0x10,0x00,0xf8,0x03,0x00,0x7e,0xe0,0x03,0xb0,0x00,0xe0,0x07,
 0x00,0xf8,0x81,0x0f,0xc0,0x04,0x00,0xbe,0x01,0x00,0x9f,0x00,0x3e,0x01,0x00,
 0xc0,0x01,0x04,0xe0,0x03,0x10,0x00,0xf8,0x01,0x00,0x7e,0xe0,0x03,0xb8,0x00,
 0xe0,0x07,0x00,0xfc,0x80,0x0f,0xe0,0x04,0x00,0xfc,0x00,0x80,0xcf,0x00,0xbe,
 0x01,0x00,0xc0,0x01,0x06,0xf0,0x03,0x10,0x00,0xf8,0x01,0x00,0x1f,0xe0,0x03,
 0xb8,0x00,0xe0,0x03,0x00,0x7c,0xc0,0x0f,0xe0,0x04,0x00,0x00,0x00,0x80,0x4f,
 0x00,0x9e,0x00,0x00,0xc0,0x01,0x02,0xf0,0x01,0x10,0x00,0xf8,0x00,0x00,0x0f,
 0xe0,0x01,0xb8,0x00,0xe0,0x03,0x00,0x3e,0xc0,0x07,0xe0,0x04,0x00,0x00,0x00,
 0x80,0x47,0x00,0x9f,0x00,0x00,0xe0,0x01,0x02,0xf0,0x00,0x30,0x00,0xf0,0x00,
 0x80,0x0f,0xf0,0x01,0xb8,0x00,0xc0,0x01,0x00,0x3e,0xc0,0x07,0xe0,0x04,0x00,
 0x00,0x00,0x80,0x67,0x00,0x9f,0x00,0x00,0xe0,0x01,0x02,0xf0,0x00,0x20,0x00,
 0x60,0x00,0x80,0x07,0xf8,0x01,0xbc,0x00,0x00,0x00,0x00,0x1e,0xe0,0x03,0xf0,
 0x0c,0x00,0x00,0x00,0xc0,0x27,0x00,0xdf,0x00,0xe0,0xff,0x01,0x02,0xf8,0x00,
 0x60,0x00,0x00,0x00,0x80,0x07,0xf8,0x00,0xbc,0x01,0x00,0x00,0x00,0x1e,0xe0,
 0x03,0xf0,0x08,0x00,0x00,0x00,0xe0,0x27,0x00,0x4f,0x00,0xf8,0xff,0x01,0x02,
 0xf8,0x00,0x40,0x00,0x00,0x00,0x80,0x03,0xf0,0x00,0x3c,0x01,0x00,0x00,0x00,
 0x0f,0xe0,0x03,0x78,0x08,0x00,0x00,0x00,0xe0,0x37,0x80,0x4f,0x00,0xf8,0xff,
 0x00,0x02,0xf8,0x00,0xc0,0x00,0x00,0x00,0xc0,0x03,0xf0,0x00,0x3e,0x03,0x00,
 0x00,0x00,0x0f,0xe0,0x01,0x78,0x18,0x00,0x00,0x00,0xf0,0x13,0x80,0x4f,0x00,
 0xfc,0x7f,0x00,0x03,0xf8,0x00,0x80,0x00,0x00,0x00,0xc0,0x03,0xf0,0x00,0x3e,
 0x02,0x00,0x00,0x80,0x0f,0xc0,0x01,0x78,0x30,0x00,0x00,0x00,0xf8,0x13,0x80,
 0x47,0x00,0xfc,0x0f,0x00,0x01,0xf8,0x00,0x80,0x01,0x00,0x00,0xc0,0x03,0x70,
 0x00,0x3e,0x06,0x00,0x00,0x80,0x1f,0xc0,0x00,0x7c,0x20,0x00,0x00,0x00,0xf8,
 0x19,0x80,0x67,0x00,0x00,0x18,0x00,0x01,0x78,0x00,0x00,0x03,0x00,0x00,0xe0,
 0x07,0x00,0x00,0x1e,0x04,0x00,0x00,0xc0,0x17,0x00,0x00,0x3e,0x20,0x00,0x00,
 0x00,0xfc,0x08,0x80,0x27,0x00,0x00,0x30,0x80,0x01,0x7c,0x00,0x00,0x02,0x00,
 0x00,0xf0,0x0f,0x00,0x00,0x1f,0x0c,0x00,0x00,0xc0,0x37,0x00,0x00,0x3e,0x60,
 0x00,0x00,0x00,0x7e,0x08,0xc0,0x27,0x00,0x00,0x20,0x80,0x00,0x7c,0x00,0x00,
 0x06,0x00,0x00,0xf8,0x0b,0x00,0x80,0x0f,0x08,0x00,0x00,0xe0,0x27,0x00,0x00,
 0x3e,0x40,0x00,0x00,0x00,0x7f,0x08,0xc0,0x27,0x00,0x00,0x60,0x80,0x00,0x3c,
 0x00,0x00,0x04,0x00,0x00,0xfc,0x19,0x00,0x80,0x0f,0x18,0x00,0x00,0xf0,0x63,
 0x00,0x00,0x3e,0xc0,0x00,0x00,0x80,0x7f,0x08,0xe0,0x23,0x00,0x00,0x60,0xc0,
 0x00,0x3c,0x00,0x00,0x0c,0x00,0x00,0xfe,0x11,0x00,0xc0,0x0f,0x30,0x00,0x00,
 0xf8,0x43,0x00,0x00,0x3f,0x80,0x07,0x00,0xf0,0x3f,0x08,0xe0,0x23,0x00,0x00,
 0xf0,0x40,0x00,0x3c,0x00,0x00,0x38,0x00,0x80,0xff,0x30,0x00,0xe0,0x07,0xe0,
 0x00,0x00,0xfe,0xc3,0x00,0x80,0x1f,0x80,0x0f,0x00,0xfe,0x1f,0x08,0xe0,0x23,
 0x00,0x00,0xf0,0x40,0x00,0x3e,0x00,0x00,0x70,0x00,0xc0,0x7f,0x60,0x00,0xe0,
 0x03,0xc0,0x01,0x80,0xff,0x81,0x01,0xc0,0x0f,0x00,0x7f,0x80,0xff,0x0f,0x08,
 0xe0,0x23,0x00,0x00,0xf8,0x40,0x00,0x3f,0x00,0x00,0xe0,0x00,0xe0,0x7f,0x40,
 0x00,0xfc,0x03,0x80,0x07,0xc0,0xff,0x81,0x07,0xe0,0x0f,0x00,0x7e,0xfe,0xff,
 0x07,0xe8,0xff,0xe1,0xff,0x00,0x7f,0xe0,0xc3,0x3f,0x00,0x00,0xc0,0x03,0xf8,
 0x3f,0xc0,0x07,0xff,0x01,0x80,0x0f,0xf8,0xff,0x80,0x0f,0xfc,0x07,0x00,0xfc,
 0xff,0xff,0x03,0xf8,0xff,0xe1,0xff,0xff,0x7f,0xe0,0xff,0x3f,0x00,0x00,0x80,
 0xff,0xff,0x3f,0x80,0xff,0xff,0x01,0x00,0xff,0xff,0x7f,0x00,0xff,0xff,0x07,
 0x00,0xf0,0xff,0xff,0x00,0xf0,0xff,0xc1,0xff,0xff,0x7f,0xe0,0xff,0x1f,0x00,
 0x00,0x00,0xfc,0xff,0x03,0x00,0xff,0x7f,0x00,0x00,0xf8,0xff,0x0f,0x00,0xfc,
 0xff,0x01,0x00,0xc0,0xff,0x0f,0x00,0xe0,0xff,0x80,0xff,0xff,0x3f,0xe0,0xff,
 0x0f,0x00,0x00,0x00,0xf8,0x7f,0x00,0x00,0xfc,0x1f,0x00,0x00,0xe0,0xff,0x01,
 0x00,0xf8,0x7f,0x00,0x00,0x00,0x00,0x00,0x00,0x00,0x00,0x00,0x00,0x00,0x00,
 0x00,0x00,0x00,0x00,0x00,0x00,0x00,0x00,0x00,0x00,0x00,0x00,0x00,0x00,0x00,
 0x00,0x00,0x00,0x00,0x00,0x00,0x00,0x00,0x00,0x00,0x00,0x00,0x00,0x00,0x00,
 0x00,0x00,0x00,0x00,0x00,0x00,0x00,0x00,0x00,0x00,0x00,0x00,0x00,0x00,0x00,
 0x00,0x00,0x00,0x00,0x00,0x00,0x00,0x00 };
