#define _width 256
#define _height 64
static char _bits[] = {
 0x10,0x18,0x18,0x00,0x00,0x00,0x00,0x00,0x00,0x00,0x00,0x00,0x00,0x00,0x00,
 0x00,0x00,0x00,0x00,0x00,0x00,0x00,0x00,0x00,0x00,0x00,0x00,0x00,0x00,0x00,
 0x18,0x08,0x10,0x18,0x18,0x00,0x00,0x00,0x00,0x00,0x00,0x00,0x00,0x00,0x00,
 0x00,0x00,0x00,0x00,0x00,0x00,0x00,0x00,0x00,0x00,0x00,0x00,0x00,0x00,0x00,
 0x00,0x00,0x18,0x08,0x10,0x18,0x18,0x18,0xf0,0xff,0xff,0xff,0xff,0xff,0xff,
 0xff,0xff,0xff,0xff,0x1f,0xe0,0xff,0xff,0xff,0xff,0xff,0xff,0xff,0xff,0xff,
 0xff,0x07,0x00,0x18,0x18,0x08,0x10,0x18,0x18,0x18,0xf0,0xff,0xff,0xff,0xff,
 0xff,0xff,0xff,0xff,0xff,0xff,0x1f,0xe0,0xff,0xff,0xff,0xff,0xff,0xff,0xff,
 0xff,0xff,0xff,0x07,0x00,0x18,0x18,0x08,0x10,0x18,0x18,0x18,0x00,0x00,0x00,
 0x00,0x00,0x00,0x00,0x00,0x00,0x00,0x00,0x00,0x00,0x00,0x00,0x00,0x00,0x00,
 0x00,0x00,0x00,0x00,0x00,0x00,0x00,0x18,0x18,0x08,0x10,0x18,0x18,0x18,0x00,
 0x00,0x00,0x00,0x00,0x00,0x00,0x00,0x00,0x00,0x00,0x00,0x00,0x00,0x00,0x00,
 0x00,0x00,0x00,0x00,0x00,0x00,0x00,0x00,0x00,0x18,0x18,0x08,0x90,0x19,0x18,
 0x18,0x80,0x01,0x03,0x06,0x0c,0x18,0x30,0x60,0xc0,0x80,0x01,0x03,0x03,0x03,
 0x03,0x03,0x06,0x0c,0x18,0x30,0x60,0xc0,0x80,0x81,0x01,0x18,0x18,0x08,0x90,
 0x19,0x18,0x18,0x80,0x01,0x03,0x06,0x0c,0x18,0x30,0x60,0xc0,0x80,0x01,0x03,
 0x03,0x03,0x03,0x03,0x06,0x0c,0x18,0x30,0x60,0xc0,0x80,0x81,0x01,0x18,0x18,
 0x08,0x10,0x18,0x18,0x18,0x00,0x00,0x00,0x00,0x00,0x00,0x00,0x00,0x00,0x00,
 0x00,0x00,0x00,0x00,0x00,0x00,0x00,0x00,0x00,0x00,0x00,0x00,0x00,0x00,0x00,
 0x18,0x18,0x08,0x10,0x18,0x18,0x18,0x00,0x00,0x00,0x00,0x00,0x00,0x00,0x00,
 0x00,0x00,0x00,0x00,0x00,0x00,0x00,0x00,0x00,0x00,0x00,0x00,0x00,0x00,0x00,
 0x00,0x00,0x18,0x18,0x08,0x10,0x18,0x18,0x18,0xf0,0xff,0xff,0xff,0xff,0xff,
 0xff,0xff,0xff,0xff,0xff,0x1f,0xe0,0xff,0xff,0xff,0xff,0xff,0xff,0xff,0xff,
 0xff,0xff,0x0f,0x00,0x18,0x18,0x08,0x10,0x18,0x18,0x18,0xf8,0xff,0xff,0xff,
 0xff,0xff,0xff,0xff,0xff,0xff,0xff,0x1f,0xe0,0xff,0xff,0xff,0xff,0xff,0xff,
 0xff,0xff,0xff,0xff,0x1f,0x00,0x18,0x18,0x08,0x10,0x18,0x18,0x18,0x18,0x00,
 0x00,0x00,0x00,0x00,0x00,0x00,0x00,0x00,0x00,0x00,0x00,0x00,0x00,0x00,0x00,
 0x00,0x00,0x00,0x00,0x00,0x00,0x18,0x18,0x18,0x18,0x08,0x10,0x18,0x18,0x18,
 0x18,0x00,0x00,0x00,0x00,0x00,0x00,0x00,0x00,0x00,0x00,0x00,0x00,0x00,0x00,
 0x00,0x00,0x00,0x00,0x00,0x00,0x00,0x00,0x18,0x18,0x18,0x18,0x08,0x90,0x19,
 0x18,0x98,0x99,0x01,0x03,0x06,0x0c,0x18,0x30,0x60,0xc0,0x80,0x01,0x03,0x03,
 0x03,0x03,0x03,0x06,0x0c,0x18,0x30,0x60,0xc0,0x80,0x99,0x19,0x98,0x19,0x08,
 0x90,0x19,0x18,0x98,0x99,0x01,0x03,0x06,0x0c,0x18,0x30,0x60,0xc0,0x80,0x01,
 0x03,0x03,0x03,0x03,0x03,0x06,0x0c,0x18,0x30,0x60,0xc0,0x80,0x99,0x19,0x98,
 0x19,0x08,0x10,0x18,0x18,0x18,0x18,0x00,0x00,0x00,0x00,0x00,0x00,0x00,0x00,
 0x00,0x00,0x00,0x00,0x00,0x00,0x00,0x00,0x00,0x00,0x00,0x00,0x00,0x00,0x18,
 0x18,0x18,0x18,0x08,0x10,0x18,0x18,0x18,0x18,0x00,0x00,0x00,0x00,0x00,0x00,
 0x00,0x00,0x00,0x00,0x00,0x00,0x00,0x00,0x00,0x00,0x00,0x00,0x00,0x00,0x00,
 0x00,0x18,0x18,0x18,0x18,0x08,0x10,0x18,0x18,0x18,0x18,0xf0,0xff,0xff,0xff,
 0xff,0xff,0xff,0xff,0xff,0xff,0xff,0xff,0xff,0xff,0xff,0xff,0xff,0xff,0xff,
 0xff,0xff,0x0f,0x18,0x18,0x18,0x18,0x08,0x10,0x18,0x18,0x18,0x18,0x08,0x00,
 0x00,0x00,0x00,0x00,0x00,0x00,0x00,0x00,0x00,0x00,0x00,0x00,0x00,0x00,0x00,
 0x00,0x00,0x00,0x00,0x10,0x18,0x18,0x18,0x18,0x08,0x10,0x18,0x18,0x18,0x18,
 0x08,0x00,0x00,0x00,0x00,0x00,0x00,0x00,0x00,0x00,0x00,0x00,0x00,0x00,0x00,
 0x00,0x00,0x00,0x00,0x00,0x00,0x10,0x18,0x18,0x18,0x18,0x08,0x10,0x18,0x18,
 0x18,0x18,0x08,0x00,0x00,0x00,0x00,0x00,0x00,0x00,0x00,0x00,0x00,0x00,0x00,
 0x00,0x80,0x01,0x38,0x00,0x00,0x00,0x00,0x10,0x18,0x18,0x18,0x18,0x08,0x10,
 0x18,0x18,0x18,0x18,0x08,0xff,0x0f,0x00,0x00,0x00,0x03,0x18,0x00,0x00,0x00,
 0x00,0x30,0x00,0xc0,0x03,0x7c,0x00,0x00,0x00,0x00,0x10,0x18,0x18,0x18,0x18,
 0x08,0x90,0x19,0x18,0x98,0x99,0x89,0xff,0x3f,0x00,0x00,0x80,0x07,0x3c,0x00,
 0x00,0x00,0x00,0x78,0x00,0xc0,0x03,0x7e,0x00,0x00,0x00,0x00,0x90,0x99,0x19,
 0x18,0x18,0x08,0x90,0x19,0x18,0x98,0x99,0x89,0xff,0x7f,0x00,0x00,0x80,0x07,
 0x3c,0x00,0x00,0x00,0x00,0x78,0x00,0xc0,0x03,0x3f,0x00,0x00,0x00,0x00,0x90,
 0x99,0x19,0x18,0x18,0x08,0x10,0x18,0x18,0x18,0x18,0x88,0x07,0x7c,0x00,0x00,
 0x80,0x07,0x3c,0x00,0x00,0x00,0x00,0x30,0x00,0xc0,0x83,0x1f,0x00,0x00,0x00,
 0x00,0x10,0x18,0x18,0x18,0x18,0x08,0x10,0x18,0x18,0x18,0x18,0x88,0x07,0xf8,
 0x00,0x00,0x80,0x07,0x3c,0x00,0x00,0x00,0x00,0x00,0x00,0xc0,0xc3,0x0f,0x00,
 0x00,0x00,0x00,0x10,0x18,0x18,0x98,0x19,0x08,0x10,0x18,0x18,0x18,0x18,0x88,
 0x07,0xf0,0x00,0x3f,0xe0,0x3f,0xff,0x01,0x3f,0x80,0xf9,0x30,0x00,0xc0,0xe3,
 0x07,0x0c,0x30,0x30,0x3e,0x10,0x18,0x18,0x98,0x19,0x08,0x10,0x18,0x18,0x18,
 0x18,0x88,0x07,0xf0,0xc1,0xff,0xe0,0x3f,0xff,0xc1,0xff,0xc0,0xff,0x79,0x00,
 0xc0,0xf3,0x03,0x1e,0x78,0x78,0xff,0x10,0x18,0x18,0x18,0x18,0x08,0x10,0x18,
 0x18,0x18,0x18,0x88,0x07,0xe0,0xe1,0xff,0xe1,0x3f,0xff,0xe1,0xff,0xc1,0xff,
 0x79,0x00,0xc0,0xfb,0x01,0x1e,0x78,0xf8,0xff,0x10,0x18,0x18,0x18,0x18,0x08,
 0x10,0x18,0x18,0x18,0x18,0x88,0x07,0xe0,0xf1,0xe1,0x83,0x07,0x3c,0xf0,0xe1,
 0xc3,0x87,0x78,0x00,0xc0,0xff,0x01,0x1e,0x78,0xf8,0xf1,0x11,0x18,0x18,0x18,
 0x18,0x08,0x10,0x18,0x18,0x18,0x18,0x88,0x07,0xe0,0xf1,0xc0,0x83,0x07,0x3c,
 0xf0,0xc0,0xc3,0x07,0x78,0x00,0xc0,0xff,0x03,0x1e,0x78,0xf8,0xe0,0x11,0x18,
 0x18,0x18,0x18,0x08,0x90,0x19,0x18,0x98,0x99,0x89,0x07,0xe0,0x79,0x80,0x87,
 0x07,0x3c,0x78,0x80,0xc7,0x03,0x78,0x00,0xc0,0xff,0x07,0x1e,0x78,0x78,0xe0,
 0x91,0x99,0x19,0x18,0x18,0x08,0x90,0x19,0x18,0x98,0x99,0x89,0x07,0xe0,0x79,
 0x80,0x87,0x07,0x3c,0x78,0x80,0xc7,0x03,0x78,0x00,0xc0,0xdf,0x07,0x1e,0x78,
 0x78,0xe0,0x91,0x99,0x19,0x18,0x18,0x08,0x10,0x18,0x18,0x18,0x18,0x88,0x07,
 0xe0,0x79,0x80,0x87,0x07,0x3c,0x78,0x80,0xc7,0x03,0x78,0xfc,0xc7,0x8f,0x0f,
 0x1e,0x78,0x78,0xe0,0x11,0x18,0x18,0x18,0x18,0x08,0x10,0x18,0x18,0x18,0x18,
 0x88,0x07,0xe0,0x79,0x80,0x87,0x07,0x3c,0x78,0x80,0xc7,0x03,0x78,0xfc,0xc7,
 0x87,0x1f,0x1e,0x78,0x78,0xe0,0x11,0x18,0x18,0x18,0x18,0x08,0x10,0x18,0x18,
 0x18,0x18,0x88,0x07,0xf0,0x79,0x80,0x87,0x07,0x3c,0x78,0x80,0xc7,0x03,0x78,
 0xfc,0xc7,0x03,0x1f,0x1e,0x78,0x78,0xe0,0x11,0x18,0x18,0x18,0x18,0x08,0x10,
 0x18,0x18,0x18,0x18,0x88,0x07,0xf0,0x78,0x80,0x87,0x07,0x3c,0x78,0x80,0xc7,
 0x03,0x78,0x00,0xc0,0x03,0x3e,0x1e,0x78,0x78,0xe0,0x11,0x18,0x18,0x18,0x18,
 0x08,0x10,0x18,0x18,0x18,0x18,0x88,0x07,0xf8,0xf0,0xc0,0x83,0x07,0x3c,0xf0,
 0xc0,0xc3,0x03,0x78,0x00,0xc0,0x03,0x7e,0x1e,0x7c,0x78,0xe0,0x11,0x18,0x18,
 0x98,0x19,0x08,0x10,0x18,0x18,0x18,0x18,0x88,0x07,0x7c,0xf0,0xe1,0x83,0x07,
 0x3c,0xf0,0xe1,0xc3,0x03,0x78,0x00,0xc0,0x03,0x7c,0x3e,0x7e,0x78,0xe0,0x11,
 0x18,0x18,0x98,0x19,0x08,0x10,0x18,0x18,0x18,0x18,0x88,0xff,0x7f,0xe0,0xff,
 0x81,0x7f,0xfc,0xe3,0xff,0xc1,0x03,0x78,0x00,0xc0,0x03,0xf8,0xfc,0x7f,0x78,
 0xe0,0x11,0x18,0x18,0x18,0x18,0x08,0x90,0x19,0x18,0x98,0x99,0x89,0xff,0x3f,
 0xc0,0xff,0x00,0xff,0xf8,0xc7,0xff,0xc0,0x03,0x78,0x00,0xc0,0x03,0xf8,0xfc,
 0x7b,0x78,0xe0,0x91,0x99,0x19,0x18,0x18,0x08,0x90,0x19,0x18,0x98,0x99,0x09,
 0xff,0x0f,0x00,0x3f,0x00,0x3e,0xf0,0x01,0x3f,0x80,0x01,0x30,0x00,0x80,0x01,
 0x70,0xf0,0x31,0x30,0xc0,0x90,0x99,0x19,0x18,0x18,0x08,0x10,0x18,0x18,0x18,
 0x18,0x08,0x00,0x00,0x00,0x00,0x00,0x00,0x00,0x00,0x00,0x00,0x00,0x00,0x00,
 0x00,0x00,0x00,0x00,0x00,0x00,0x00,0x10,0x18,0x18,0x18,0x18,0x08,0x10,0x18,
 0x18,0x18,0x18,0x08,0x00,0x00,0x00,0x00,0x00,0x00,0x00,0x00,0x00,0x00,0x00,
 0x00,0x00,0x00,0x00,0x00,0x00,0x00,0x00,0x00,0x10,0x18,0x18,0x18,0x18,0x08,
 0x10,0x18,0x18,0x18,0x18,0x08,0x00,0x00,0x00,0x00,0x00,0x00,0x00,0x00,0x00,
 0x00,0x00,0x00,0x00,0x00,0x00,0x00,0x00,0x00,0x00,0x00,0x10,0x00,0x18,0x18,
 0x18,0x08,0x10,0x18,0x18,0x18,0x00,0xf0,0xff,0xff,0xff,0xff,0xff,0xff,0xff,
 0xff,0xff,0xff,0xff,0xff,0xff,0xff,0xff,0xff,0xff,0xff,0xff,0xff,0x0f,0x00,
 0x18,0x18,0x18,0x08,0x10,0x18,0x18,0x18,0x00,0x00,0x00,0x00,0x00,0x00,0x00,
 0x00,0x00,0x00,0x00,0x00,0x00,0x00,0x00,0x00,0x00,0x00,0x00,0x00,0x00,0x00,
 0x00,0x00,0x18,0x18,0x18,0x08,0x10,0x18,0x18,0x18,0x00,0x00,0x00,0x00,0x00,
 0x00,0x00,0x00,0x00,0x00,0x00,0x00,0x00,0x00,0x00,0x00,0x00,0x00,0x00,0x00,
 0x00,0x00,0x00,0x00,0x18,0x18,0x18,0x08,0x90,0x19,0x18,0x98,0x81,0x01,0x00,
 0x00,0x00,0x00,0x00,0x00,0x00,0x00,0x00,0x00,0x03,0x03,0x03,0x03,0x06,0x0c,
 0x18,0x30,0x60,0xc0,0x80,0x81,0x19,0x98,0x19,0x08,0x90,0x19,0x18,0x98,0x81,
 0x01,0x00,0x00,0x00,0x00,0x00,0x00,0x00,0x00,0x00,0x00,0x03,0x03,0x03,0x03,
 0x06,0x0c,0x18,0x30,0x60,0xc0,0x80,0x81,0x19,0x98,0x19,0x08,0x10,0x18,0x18,
 0x18,0x00,0x00,0x00,0x00,0x00,0x00,0x00,0x00,0x00,0x00,0x00,0x00,0x00,0x00,
 0x00,0x00,0x00,0x00,0x00,0x00,0x00,0x00,0x00,0x00,0x18,0x18,0x18,0x08,0x10,
 0x18,0x18,0x18,0x00,0x00,0x00,0x00,0x00,0x00,0x00,0x00,0x00,0x00,0x00,0x00,
 0x00,0x00,0x00,0x00,0x00,0x00,0x00,0x00,0x00,0x00,0x00,0x00,0x18,0x18,0x18,
 0x08,0x10,0x18,0x18,0xf8,0xff,0x0f,0x00,0x00,0x00,0x00,0x00,0x00,0x00,0x00,
 0x00,0x00,0x00,0x00,0x00,0x00,0x00,0x00,0x00,0x00,0x00,0x00,0xe0,0xff,0x1f,
 0x18,0x18,0x08,0x10,0x18,0x18,0xf0,0xff,0x0f,0x00,0x00,0x00,0x00,0x00,0x00,
 0x00,0x00,0x00,0x00,0x00,0x00,0x00,0x00,0x00,0x00,0x00,0x00,0x00,0x00,0xe0,
 0xff,0x0f,0x18,0x18,0x08,0x10,0x18,0x18,0x00,0x00,0x00,0x00,0x00,0x00,0x00,
 0x00,0x00,0x00,0x00,0x00,0x00,0x00,0x00,0x00,0x00,0x00,0x00,0x00,0x00,0x00,
 0x00,0x00,0x00,0x00,0x18,0x18,0x08,0x10,0x18,0x18,0x00,0x00,0x00,0x00,0x00,
 0x00,0x00,0x00,0x00,0x00,0x00,0x00,0x00,0x00,0x00,0x00,0x00,0x00,0x00,0x00,
 0x00,0x00,0x00,0x00,0x00,0x00,0x18,0x18,0x08,0x90,0x19,0x18,0x00,0x00,0x00,
 0x00,0x00,0x00,0x00,0x00,0x00,0x00,0x00,0x00,0x00,0x00,0x00,0x00,0x00,0x00,
 0x00,0x00,0x00,0x00,0x00,0x00,0x00,0x00,0x98,0x19,0x08,0x90,0x19,0x18,0x00,
 0x00,0x00,0x00,0x00,0x00,0x00,0x00,0x00,0x00,0x00,0x00,0x00,0x00,0x00,0x00,
 0x00,0x00,0x00,0x00,0x00,0x00,0x00,0x00,0x00,0x00,0x98,0x19,0x08,0x10,0x18,
 0x18,0x00,0x00,0x00,0x00,0x00,0x00,0x00,0x00,0x00,0x00,0x00,0x00,0x00,0x00,
 0x00,0x00,0x00,0x00,0x00,0x00,0x00,0x00,0x00,0x00,0x00,0x00,0x18,0x18,0x08,
 0x10,0x18,0x18,0x00,0x00,0x00,0x00,0x00,0x00,0x00,0x00,0x00,0x00,0x00,0x00,
 0x00,0x00,0x00,0x00,0x00,0x00,0x00,0x00,0x00,0x00,0x00,0x00,0x00,0x00,0x18,
 0x18,0x08,0x10,0x18,0xf8,0xff,0xff,0x0f,0x00,0x00,0x00,0x00,0x00,0x00,0x00,
 0x00,0x00,0x00,0x00,0x00,0x00,0x00,0x00,0x00,0x00,0x00,0x00,0x00,0xe0,0xff,
 0xff,0x1f,0x18,0x08,0x10,0x18,0xf0,0xff,0xff,0x0f,0x00,0x00,0x00,0x00,0x00,
 0x00,0x00,0x00,0x00,0x00,0x00,0x00,0x00,0x00,0x00,0x00,0x00,0x00,0x00,0x00,
 0xe0,0xff,0xff,0x0f,0x18,0x08,0x10,0x18,0x00,0x00,0x00,0x00,0x00,0x00,0x00,
 0x00,0x00,0x00,0x00,0x00,0x00,0x00,0x00,0x00,0x00,0x00,0x00,0x00,0x00,0x00,
 0x00,0x00,0x00,0x00,0x00,0x00,0x18,0x08 };
