#define EDSAC_width 256
#define EDSAC_height 64
static char EDSAC_bits[] = {
  0x00, 0x00, 0x00, 0x00, 0x00, 0x00, 0x00, 0x00, 0x00, 0x00, 0x00, 0x00, 
  0x00, 0x00, 0x00, 0x00, 0x00, 0x00, 0x00, 0x00, 0x00, 0x00, 0x00, 0x00, 
  0x00, 0x00, 0x00, 0x00, 0x00, 0x00, 0x00, 0x00, 0x00, 0x00, 0x00, 0x00, 
  0x00, 0x00, 0x00, 0x00, 0x00, 0x00, 0x00, 0x00, 0x00, 0x00, 0x00, 0x00, 
  0x00, 0x00, 0x00, 0x00, 0x00, 0x00, 0x00, 0x00, 0x00, 0x00, 0x00, 0x00, 
  0x00, 0x00, 0x00, 0x00, 0x00, 0x00, 0x00, 0x00, 0x00, 0x00, 0x00, 0x00, 
  0x00, 0x00, 0x00, 0x00, 0x00, 0x00, 0x00, 0x00, 0x00, 0x00, 0x00, 0x00, 
  0x00, 0x00, 0x00, 0x00, 0x00, 0x00, 0x00, 0x00, 0x00, 0x00, 0x00, 0x00, 
  0x00, 0x00, 0x00, 0x00, 0x00, 0x00, 0x00, 0x00, 0x00, 0x00, 0x00, 0x00, 
  0x00, 0x00, 0x00, 0x00, 0x00, 0x00, 0x00, 0x00, 0x00, 0x00, 0x00, 0x00, 
  0x00, 0x00, 0x00, 0x00, 0x00, 0x00, 0x00, 0x00, 0x00, 0x00, 0x00, 0x00, 
  0x00, 0x00, 0x00, 0x00, 0x00, 0x00, 0x00, 0x00, 0x00, 0x00, 0x00, 0x00, 
  0x00, 0x00, 0x00, 0x00, 0x00, 0x00, 0x00, 0x00, 0x00, 0x00, 0x00, 0x00, 
  0x00, 0x00, 0x00, 0x00, 0x00, 0x00, 0x00, 0x00, 0x00, 0x00, 0x00, 0x00, 
  0x00, 0x00, 0x00, 0x00, 0x00, 0x00, 0x00, 0x00, 0x00, 0x00, 0x00, 0x00, 
  0x00, 0x00, 0x00, 0x00, 0x00, 0x00, 0x00, 0x00, 0x00, 0x00, 0x00, 0x00, 
  0x00, 0x00, 0x00, 0x00, 0x00, 0x00, 0x00, 0x00, 0x00, 0x00, 0x00, 0x00, 
  0x00, 0x00, 0x00, 0x00, 0x00, 0x00, 0x00, 0x00, 0x00, 0x00, 0x00, 0x00, 
  0x00, 0x00, 0x00, 0x00, 0x00, 0x00, 0x00, 0x00, 0x00, 0x00, 0x00, 0x00, 
  0x00, 0x00, 0x00, 0x00, 0x00, 0x00, 0x00, 0x00, 0x00, 0x00, 0x00, 0x00, 
  0x00, 0x00, 0x00, 0x00, 0x00, 0x00, 0x00, 0x00, 0x00, 0x00, 0x00, 0x00, 
  0x00, 0x00, 0x00, 0x00, 0x00, 0x00, 0x00, 0x00, 0x00, 0x00, 0x00, 0x00, 
  0x00, 0x00, 0x00, 0x00, 0x00, 0x00, 0x00, 0x00, 0x00, 0x00, 0x00, 0x00, 
  0x00, 0x00, 0x00, 0x00, 0x00, 0x00, 0x00, 0x00, 0x00, 0x00, 0x00, 0x00, 
  0x00, 0x00, 0x00, 0x00, 0x00, 0x00, 0x00, 0xFE, 0xFF, 0x3F, 0xE0, 0xFF, 
  0xFF, 0x0F, 0xE0, 0xFF, 0xFF, 0x07, 0x00, 0xF8, 0x0F, 0x00, 0xF8, 0xFF, 
  0xFF, 0x00, 0x00, 0x00, 0x00, 0x00, 0x00, 0x00, 0x00, 0x00, 0x00, 0x00, 
  0x00, 0x00, 0x80, 0xFF, 0xFF, 0x7F, 0xE0, 0xFF, 0xFF, 0x1F, 0xF0, 0xFF, 
  0xFF, 0x0F, 0x00, 0xF8, 0x1F, 0x00, 0xFE, 0xFF, 0xFF, 0x01, 0x00, 0x00, 
  0x00, 0x00, 0x00, 0x00, 0x00, 0x00, 0x00, 0x00, 0x00, 0x00, 0x80, 0xFF, 
  0xFF, 0x7F, 0xE0, 0xFF, 0xFF, 0x3F, 0xF0, 0xFF, 0xFF, 0x1F, 0x00, 0xF8, 
  0x1F, 0x00, 0xFE, 0xFF, 0xFF, 0x01, 0x00, 0x00, 0x00, 0x00, 0x00, 0x00, 
  0x00, 0x00, 0x00, 0x00, 0x00, 0x00, 0x80, 0xFF, 0xFF, 0x7F, 0xE0, 0xFF, 
  0xFF, 0x3F, 0xF0, 0xFF, 0xFF, 0x1F, 0x00, 0xFC, 0x1F, 0x00, 0xFE, 0xFF, 
  0xFF, 0x03, 0x00, 0x00, 0x00, 0x00, 0x00, 0x00, 0x00, 0x00, 0x00, 0x00, 
  0x00, 0x00, 0x80, 0xFF, 0xFF, 0x3F, 0xE0, 0xFF, 0xFF, 0x3F, 0xF0, 0xFF, 
  0xFF, 0x1F, 0x00, 0xFC, 0x3F, 0x00, 0xFE, 0xFF, 0xFF, 0x03, 0x00, 0x00, 
  0x00, 0x00, 0x00, 0x00, 0x00, 0x00, 0x00, 0x00, 0x00, 0x00, 0x80, 0xFF, 
  0x03, 0x00, 0xE0, 0x00, 0xFC, 0x3F, 0xF0, 0x00, 0x00, 0x1E, 0x00, 0xFC, 
  0x3F, 0x00, 0xFE, 0x0F, 0xC0, 0x03, 0x00, 0x00, 0x00, 0x00, 0x00, 0x00, 
  0x00, 0x00, 0x80, 0x3F, 0x00, 0x00, 0x80, 0xFF, 0x03, 0x00, 0xE0, 0x00, 
  0xF8, 0x3F, 0x70, 0x00, 0x00, 0x1E, 0x00, 0xFC, 0x3F, 0x00, 0xFE, 0x0F, 
  0xC0, 0x03, 0x00, 0x00, 0xF8, 0x03, 0x00, 0x00, 0x00, 0x00, 0xF0, 0xFF, 
  0x01, 0x00, 0x80, 0xFF, 0x03, 0x00, 0xE0, 0x00, 0xF8, 0x3F, 0x70, 0x00, 
  0x00, 0x1E, 0x00, 0xFC, 0x3F, 0x00, 0xFE, 0x0F, 0xC0, 0x03, 0x00, 0x00, 
  0xFF, 0x1F, 0x00, 0x00, 0x00, 0x00, 0xFC, 0xFF, 0x07, 0x00, 0x80, 0xFF, 
  0x03, 0x00, 0xE0, 0x00, 0xF8, 0x3F, 0x70, 0x00, 0x00, 0x1E, 0x00, 0xFE, 
  0x3F, 0x00, 0xFE, 0x0F, 0xC0, 0x03, 0x00, 0xC0, 0xFF, 0x7F, 0x00, 0x00, 
  0x00, 0x00, 0x7F, 0xC0, 0x1F, 0x00, 0x80, 0xFF, 0x03, 0x00, 0xE0, 0x00, 
  0xF8, 0x3F, 0x70, 0x00, 0x00, 0x1E, 0x00, 0xFE, 0x7F, 0x00, 0xFE, 0x0F, 
  0xC0, 0x03, 0x00, 0xF0, 0x07, 0xFC, 0x01, 0x00, 0x00, 0x80, 0x0F, 0x00, 
  0x3E, 0x00, 0x80, 0xFF, 0x03, 0x00, 0xE0, 0x00, 0xF8, 0x3F, 0x70, 0x00, 
  0x00, 0x1E, 0x00, 0xEE, 0x7F, 0x00, 0xFE, 0x0F, 0xC0, 0x03, 0x00, 0xF8, 
  0x00, 0xE0, 0x03, 0x00, 0x00, 0xC0, 0x07, 0x00, 0x78, 0x00, 0x80, 0xFF, 
  0x03, 0x00, 0xE0, 0x00, 0xF8, 0x3F, 0x70, 0x00, 0x00, 0x1E, 0x00, 0xEE, 
  0x7F, 0x00, 0xFE, 0x0F, 0xC0, 0x03, 0x00, 0x7C, 0x90, 0x82, 0x07, 0x00, 
  0x00, 0xE0, 0x01, 0x00, 0xF0, 0x00, 0x80, 0xFF, 0x03, 0x00, 0xE0, 0x00, 
  0xF8, 0x3F, 0x70, 0x00, 0x00, 0x1E, 0x00, 0xEE, 0x7F, 0x00, 0xFE, 0x0F, 
  0xC0, 0x03, 0x00, 0x1E, 0x48, 0x00, 0x0F, 0x00, 0x00, 0xF0, 0x00, 0x00, 
  0xE0, 0x01, 0x80, 0xFF, 0x03, 0x00, 0xE0, 0x00, 0xF8, 0x3F, 0x70, 0x00, 
  0x00, 0x1C, 0x00, 0xE7, 0x7F, 0x00, 0xFE, 0x0F, 0xC0, 0x03, 0x00, 0x0F, 
  0x90, 0x04, 0x1E, 0x00, 0x00, 0x70, 0x00, 0x00, 0xC0, 0x01, 0x80, 0xFF, 
  0xFF, 0x3F, 0xE0, 0x00, 0xF8, 0x3F, 0x70, 0x00, 0x00, 0x00, 0x00, 0xC7, 
  0xFF, 0x00, 0xFE, 0x0F, 0xC0, 0x03, 0x00, 0x07, 0x58, 0x0C, 0x1C, 0x00, 
  0x00, 0x78, 0x00, 0x00, 0x80, 0x03, 0x80, 0xFF, 0xFF, 0x7F, 0xE0, 0x00, 
  0xF8, 0x3F, 0x70, 0x00, 0x00, 0x00, 0x00, 0xC7, 0xFF, 0x00, 0xFE, 0x0F, 
  0x80, 0x01, 0x80, 0x27, 0x00, 0x02, 0x38, 0x00, 0x00, 0x38, 0x00, 0x00, 
  0x80, 0x07, 0x80, 0xFF, 0xFF, 0x7F, 0xE0, 0x00, 0xF8, 0x3F, 0x70, 0x00, 
  0x00, 0x00, 0x00, 0xC7, 0xFF, 0x00, 0xFE, 0x0F, 0x00, 0x00, 0x80, 0x53, 
  0x68, 0x01, 0x78, 0x00, 0x00, 0x1C, 0x00, 0x00, 0x00, 0x07, 0x80, 0xFF, 
  0xFF, 0x7F, 0xE0, 0x00, 0xF8, 0x3F, 0x70, 0x00, 0x00, 0x00, 0x00, 0xC7, 
  0xFF, 0x00, 0xFE, 0x0F, 0x00, 0x00, 0xC0, 0x41, 0x00, 0x88, 0x72, 0x00, 
  0x00, 0x1C, 0x00, 0x00, 0x00, 0x07, 0x80, 0xFF, 0xFF, 0x3F, 0xE0, 0x00, 
  0xF8, 0x3F, 0x70, 0x00, 0x00, 0x00, 0x80, 0xC3, 0xFF, 0x00, 0xFE, 0x0F, 
  0x00, 0x00, 0xC0, 0x11, 0x08, 0x09, 0x73, 0x00, 0x00, 0x1C, 0x00, 0x00, 
  0x00, 0x0F, 0x80, 0xFF, 0x03, 0x00, 0xE0, 0x00, 0xF8, 0x3F, 0xF0, 0x00, 
  0x00, 0x00, 0x80, 0x83, 0xFF, 0x00, 0xFE, 0x0F, 0x00, 0x00, 0xC0, 0x41, 
  0x20, 0x08, 0xF0, 0x00, 0x00, 0x0E, 0x00, 0x00, 0x00, 0x0E, 0x80, 0xFF, 
  0x03, 0x00, 0xE0, 0x00, 0xF8, 0x3F, 0xF0, 0xFF, 0xFF, 0x0F, 0x80, 0x83, 
  0xFF, 0x01, 0xFE, 0x0F, 0x00, 0x00, 0xE0, 0x08, 0x48, 0x02, 0xE5, 0x00, 
  0x00, 0x0E, 0x00, 0x00, 0x00, 0x0E, 0x80, 0xFF, 0x03, 0x00, 0xE0, 0x00, 
  0xF8, 0x3F, 0xF0, 0xFF, 0xFF, 0x0F, 0x80, 0x83, 0xFF, 0x01, 0xFE, 0x0F, 
  0x00, 0x00, 0xE0, 0x20, 0x20, 0x81, 0xE0, 0x00, 0x00, 0x0E, 0x00, 0x00, 
  0x00, 0x0E, 0x80, 0xFF, 0x03, 0x00, 0xE0, 0x00, 0xF8, 0x3F, 0xF0, 0xFF, 
  0xFF, 0x1F, 0x80, 0x83, 0xFF, 0x01, 0xFE, 0x0F, 0x00, 0x00, 0xE0, 0x10, 
  0x00, 0x04, 0xE1, 0x00, 0x00, 0x5E, 0x5A, 0xD2, 0x52, 0x0E, 0x80, 0xFF, 
  0x03, 0x00, 0xE0, 0x00, 0xF8, 0x3F, 0xF0, 0xFF, 0xFF, 0x1F, 0xC0, 0x81, 
  0xFF, 0x01, 0xFE, 0x0F, 0x00, 0x00, 0xE0, 0x40, 0x50, 0x08, 0xE4, 0x00, 
  0x00, 0xAE, 0x54, 0x2D, 0xDB, 0x0F, 0x80, 0xFF, 0x03, 0x00, 0xE0, 0x00, 
  0xF8, 0x3F, 0xE0, 0xFF, 0xFF, 0x1F, 0xC0, 0x81, 0xFF, 0x01, 0xFE, 0x0F, 
  0x00, 0x00, 0xE0, 0x10, 0x80, 0x02, 0xE1, 0x00, 0x00, 0x0E, 0xA9, 0x13, 
  0x25, 0x0E, 0x80, 0xFF, 0x03, 0x00, 0xE0, 0x00, 0xF8, 0x3F, 0x00, 0x00, 
  0xFE, 0x1F, 0xC0, 0x01, 0xFF, 0x03, 0xFE, 0x0F, 0x00, 0x00, 0xE0, 0x18, 
  0x00, 0x02, 0xE2, 0x00, 0x00, 0x0E, 0x00, 0x00, 0x00, 0x0E, 0x80, 0xFF, 
  0x03, 0x00, 0xE0, 0x00, 0xF8, 0x3F, 0x00, 0x00, 0xFC, 0x1F, 0xC0, 0x01, 
  0xFF, 0x03, 0xFE, 0x0F, 0x00, 0x00, 0xE0, 0x40, 0x28, 0x80, 0xE8, 0x00, 
  0x00, 0x1C, 0x00, 0x00, 0x00, 0x0F, 0x80, 0xFF, 0x03, 0x00, 0xE0, 0x00, 
  0xF8, 0x3F, 0x00, 0x00, 0xFC, 0x1F, 0xC0, 0x01, 0xFF, 0x03, 0xFE, 0x0F, 
  0x00, 0x00, 0xC0, 0x19, 0x40, 0x0A, 0xF1, 0x00, 0x00, 0x1C, 0x00, 0x00, 
  0x00, 0x07, 0x80, 0xFF, 0x03, 0x00, 0xE0, 0x00, 0xF8, 0x3F, 0x00, 0x00, 
  0xFC, 0x1F, 0xE0, 0x00, 0xFF, 0x03, 0xFE, 0x0F, 0x00, 0x00, 0xC0, 0x41, 
  0x88, 0x08, 0x72, 0x00, 0x00, 0x1C, 0x00, 0x00, 0x00, 0x07, 0x80, 0xFF, 
  0x03, 0x00, 0xE0, 0x00, 0xF8, 0x3F, 0x00, 0x00, 0xFC, 0x1F, 0xE0, 0xFF, 
  0xFF, 0x03, 0xFE, 0x0F, 0x00, 0x00, 0xC0, 0x29, 0xA0, 0x00, 0x71, 0x00, 
  0x00, 0x3C, 0x00, 0x00, 0x80, 0x07, 0x80, 0xFF, 0x07, 0x00, 0xE0, 0x00, 
  0xF8, 0x3F, 0x00, 0x00, 0xFC, 0x1F, 0xE0, 0xFF, 0xFF, 0x07, 0xFE, 0x0F, 
  0x00, 0x00, 0xC0, 0x43, 0x08, 0x00, 0x78, 0x00, 0x00, 0x38, 0x00, 0x00, 
  0x80, 0x03, 0x80, 0xFF, 0xFF, 0x3F, 0xE0, 0x00, 0xF8, 0x3F, 0x30, 0x00, 
  0xFC, 0x1F, 0xE0, 0xFF, 0xFF, 0x07, 0xFE, 0x0F, 0x00, 0x00, 0x80, 0x13, 
  0x20, 0x82, 0x38, 0x00, 0x00, 0x70, 0x00, 0x00, 0xC0, 0x01, 0x80, 0xFF, 
  0xFF, 0x3F, 0xE0, 0x00, 0xF8, 0x3F, 0x70, 0x00, 0xFC, 0x1F, 0xE0, 0xFF, 
  0xFF, 0x07, 0xFE, 0x0F, 0x00, 0x00, 0x00, 0x47, 0x58, 0x04, 0x1E, 0x00, 
  0x00, 0xF0, 0x00, 0x00, 0xE0, 0x01, 0x80, 0xFF, 0xFF, 0x3F, 0xE0, 0x00, 
  0xF8, 0x3F, 0x70, 0x00, 0xFC, 0x1F, 0xF0, 0xFF, 0xFF, 0x07, 0xFE, 0x0F, 
  0xC0, 0x03, 0x00, 0x2F, 0x00, 0x00, 0x1E, 0x00, 0x00, 0xE0, 0x01, 0x00, 
  0xF0, 0x00, 0x80, 0xFF, 0xFF, 0x3F, 0xE0, 0x00, 0xF8, 0x3F, 0x70, 0x00, 
  0xFC, 0x1F, 0x70, 0x00, 0xFE, 0x07, 0xFE, 0x0F, 0xC0, 0x03, 0x00, 0x1E, 
  0xA0, 0x08, 0x0F, 0x00, 0x00, 0xC0, 0x03, 0x00, 0x78, 0x00, 0x80, 0xFF, 
  0xFF, 0x3F, 0xE0, 0x00, 0xF8, 0x3F, 0x70, 0x00, 0xFC, 0x1F, 0x70, 0x00, 
  0xFE, 0x0F, 0xFE, 0x0F, 0xC0, 0x03, 0x00, 0x3C, 0x30, 0x89, 0x07, 0x00, 
  0x00, 0x80, 0x0F, 0x00, 0x3E, 0x00, 0x80, 0xFF, 0xFF, 0x3F, 0xE0, 0x00, 
  0xF8, 0x3F, 0x70, 0x00, 0xFC, 0x1F, 0x70, 0x00, 0xFE, 0x0F, 0xFE, 0x0F, 
  0xC0, 0x03, 0x00, 0xF8, 0x00, 0xE0, 0x03, 0x00, 0x00, 0x00, 0x7F, 0xC0, 
  0x1F, 0x00, 0x80, 0xFF, 0xFF, 0x3F, 0xE0, 0x00, 0xF8, 0x3F, 0x70, 0x00, 
  0xFC, 0x1F, 0x30, 0x00, 0xFC, 0x0F, 0xFE, 0x0F, 0xC0, 0x03, 0x00, 0xF0, 
  0x27, 0xFC, 0x01, 0x00, 0x00, 0x00, 0xFC, 0xFF, 0x07, 0x00, 0x80, 0xFF, 
  0xFF, 0x3F, 0xE0, 0x00, 0xF8, 0x3F, 0x70, 0x00, 0xFC, 0x1F, 0x38, 0x00, 
  0xFC, 0x0F, 0xFE, 0x0F, 0xC0, 0x03, 0x00, 0xC0, 0xFF, 0x7F, 0x00, 0x00, 
  0x00, 0x00, 0xF8, 0xFF, 0x03, 0x00, 0x80, 0xFF, 0xFF, 0x3F, 0xE0, 0x00, 
  0xF8, 0x3F, 0x70, 0x00, 0xFC, 0x1F, 0x38, 0x00, 0xFC, 0x0F, 0xFE, 0x0F, 
  0xC0, 0x03, 0x00, 0x80, 0xFF, 0x3F, 0x00, 0x00, 0x00, 0x00, 0xC0, 0x7F, 
  0x00, 0x00, 0x80, 0xFF, 0xFF, 0x3F, 0xE0, 0x00, 0xF8, 0x3F, 0x70, 0x00, 
  0xFC, 0x1F, 0x38, 0x00, 0xFC, 0x0F, 0xFE, 0x0F, 0xC0, 0x03, 0x00, 0x00, 
  0xFC, 0x07, 0x00, 0x00, 0x00, 0x00, 0x00, 0x00, 0x00, 0x00, 0x80, 0xFF, 
  0xFF, 0x3F, 0xE0, 0x00, 0xFC, 0x3F, 0xF0, 0x00, 0xFE, 0x1F, 0x38, 0x00, 
  0xFC, 0x1F, 0xFE, 0x0F, 0xC0, 0x03, 0x00, 0x00, 0x00, 0x00, 0x00, 0x00, 
  0x00, 0x00, 0x00, 0x00, 0x00, 0x00, 0x80, 0xFF, 0xFF, 0x3F, 0xE0, 0xFF, 
  0xFF, 0x3F, 0xF0, 0xFF, 0xFF, 0x1F, 0x18, 0x00, 0xFC, 0x1F, 0xFE, 0xFF, 
  0xFF, 0x03, 0x00, 0x00, 0x00, 0x00, 0x00, 0x00, 0x00, 0x00, 0x00, 0x00, 
  0x00, 0x00, 0x80, 0xFF, 0xFF, 0x3F, 0xE0, 0xFF, 0xFF, 0x3F, 0xF0, 0xFF, 
  0xFF, 0x1F, 0x1C, 0x00, 0xF8, 0x1F, 0xFE, 0xFF, 0xFF, 0x03, 0x00, 0x00, 
  0x00, 0x00, 0x00, 0x00, 0x00, 0x00, 0x00, 0x00, 0x00, 0x00, 0x80, 0xFF, 
  0xFF, 0x3F, 0xE0, 0xFF, 0xFF, 0x3F, 0xF0, 0xFF, 0xFF, 0x1F, 0x1C, 0x00, 
  0xF8, 0x1F, 0xFE, 0xFF, 0xFF, 0x01, 0x00, 0x00, 0x00, 0x00, 0x00, 0x00, 
  0x00, 0x00, 0x00, 0x00, 0x00, 0x00, 0x80, 0xFF, 0xFF, 0x3F, 0xE0, 0xFF, 
  0xFF, 0x1F, 0xF0, 0xFF, 0xFF, 0x0F, 0x1C, 0x00, 0xF8, 0x1F, 0xFE, 0xFF, 
  0xFF, 0x01, 0x00, 0x00, 0x00, 0x00, 0x00, 0x00, 0x00, 0x00, 0x00, 0x00, 
  0x00, 0x00, 0x00, 0xFE, 0xFF, 0x3F, 0xE0, 0xFF, 0xFF, 0x0F, 0xC0, 0xFF, 
  0xFF, 0x07, 0x1C, 0x00, 0xF8, 0x3F, 0xF8, 0xFF, 0xFF, 0x00, 0x00, 0x00, 
  0x00, 0x00, 0x00, 0x00, 0x00, 0x00, 0x00, 0x00, 0x00, 0x00, 0x00, 0x00, 
  0x00, 0x00, 0x00, 0x00, 0x00, 0x00, 0x00, 0x00, 0x00, 0x00, 0x00, 0x00, 
  0x00, 0x00, 0x00, 0x00, 0x00, 0x00, 0x00, 0x00, 0x00, 0x00, 0x00, 0x00, 
  0x00, 0x00, 0x00, 0x00, 0x00, 0x00, 0x00, 0x00, 0x00, 0x00, 0x00, 0x00, 
  0x00, 0x00, 0x00, 0x00, 0x00, 0x00, 0x00, 0x00, 0x00, 0x00, 0x00, 0x00, 
  0x00, 0x00, 0x00, 0x00, 0x00, 0x00, 0x00, 0x00, 0x00, 0x00, 0x00, 0x00, 
  0x00, 0x00, 0x00, 0x00, 0x00, 0x00, 0x00, 0x00, 0x00, 0x00, 0x00, 0x00, 
  0x00, 0x00, 0x00, 0x00, 0x00, 0x00, 0x00, 0x00, 0x00, 0x00, 0x00, 0x00, 
  0x00, 0x00, 0x00, 0x00, 0x00, 0x00, 0x00, 0x00, 0x00, 0x00, 0x00, 0x00, 
  0x00, 0x00, 0x00, 0x00, 0x00, 0x00, 0x00, 0x00, 0x00, 0x00, 0x00, 0x00, 
  0x00, 0x00, 0x00, 0x00, 0x00, 0x00, 0x00, 0x00, 0x00, 0x00, 0x00, 0x00, 
  0x00, 0x00, 0x00, 0x00, 0x00, 0x00, 0x00, 0x00, 0x00, 0x00, 0x00, 0x00, 
  0x00, 0x00, 0x00, 0x00, 0x00, 0x00, 0x00, 0x00, 0x00, 0x00, 0x00, 0x00, 
  0x00, 0x00, 0x00, 0x00, 0x00, 0x00, 0x00, 0x00, 0x00, 0x00, 0x00, 0x00, 
  0x00, 0x00, 0x00, 0x00, 0x00, 0x00, 0x00, 0x00, 0x00, 0x00, 0x00, 0x00, 
  0x00, 0x00, 0x00, 0x00, 0x00, 0x00, 0x00, 0x00, 0x00, 0x00, 0x00, 0x00, 
  0x00, 0x00, 0x00, 0x00, 0x00, 0x00, 0x00, 0x00, 0x00, 0x00, 0x00, 0x00, 
  0x00, 0x00, 0x00, 0x00, 0x00, 0x00, 0x00, 0x00, 0x00, 0x00, 0x00, 0x00, 
  0x00, 0x00, 0x00, 0x00, 0x00, 0x00, 0x00, 0x00, 0x00, 0x00, 0x00, 0x00, 
  0x00, 0x00, 0x00, 0x00, 0x00, 0x00, 0x00, 0x00, 0x00, 0x00, 0x00, 0x00, 
  0x00, 0x00, 0x00, 0x00, 0x00, 0x00, 0x00, 0x00, 0x00, 0x00, 0x00, 0x00, 
  0x00, 0x00, 0x00, 0x00, 0x00, 0x00, 0x00, 0x00, };
