#define _width 256
#define _height 64
static char _bits[] = {
 0x00,0x00,0x00,0x00,0x00,0x00,0x00,0x00,0x00,0x00,0x00,0x00,0x00,0x00,0x00,
 0x00,0x00,0x00,0x00,0x00,0x00,0x00,0x00,0x00,0x00,0x00,0x00,0xfe,0x0f,0x00,
 0x00,0x00,0x00,0x00,0x00,0x00,0x00,0x00,0x00,0x00,0x00,0x00,0xe0,0xff,0xff,
 0xff,0x1f,0x7c,0x00,0x00,0x00,0x7e,0xe0,0xff,0xff,0xff,0x3f,0x00,0xc0,0x57,
 0xff,0x00,0x00,0x00,0x00,0x00,0x00,0x00,0x00,0x0a,0x00,0x00,0x00,0x00,0xf8,
 0xff,0xff,0xff,0x7f,0xff,0x03,0x00,0x00,0xff,0xf9,0xff,0xff,0xff,0x7f,0x00,
 0xf0,0x00,0xe0,0x03,0x00,0x00,0x00,0x00,0x00,0x00,0x80,0x31,0x00,0x00,0x00,
 0x00,0x1e,0x00,0x00,0x00,0xf0,0x83,0x03,0x00,0xc0,0x83,0x1f,0x00,0x00,0x00,
 0xe0,0x01,0x3c,0x00,0x00,0x0f,0x00,0x00,0x00,0x00,0x00,0x00,0x80,0x60,0x00,
 0x00,0x00,0x00,0x06,0x00,0x00,0x00,0xc0,0x00,0x0e,0x00,0xc0,0x00,0x0f,0x00,
 0x00,0x00,0x80,0x01,0x0e,0x00,0x00,0x1c,0x00,0x00,0x00,0x00,0x00,0x00,0xc0,
 0x60,0x00,0x00,0x00,0x00,0x03,0x00,0x00,0x00,0x00,0x00,0x0c,0x00,0xe0,0x00,
 0x04,0x00,0x00,0x00,0x00,0x03,0x03,0x00,0x00,0x70,0x00,0x00,0x00,0x00,0x00,
 0x00,0x80,0x7d,0x1f,0x00,0x00,0x80,0x03,0x00,0x00,0x00,0x00,0x00,0x1c,0x00,
 0x70,0x00,0x04,0x00,0x00,0x00,0x00,0x86,0x03,0x00,0x00,0xe0,0x00,0x00,0x00,
 0x00,0x00,0x00,0x00,0xff,0xfa,0x00,0x00,0x80,0x01,0x00,0x00,0x00,0x00,0x00,
 0x18,0x00,0x30,0x00,0x00,0x00,0x00,0x00,0x00,0xc6,0x01,0x00,0x00,0xc0,0x00,
 0x00,0x00,0x00,0x00,0x07,0x00,0x07,0x80,0x01,0x00,0x80,0x01,0x00,0x00,0x00,
 0x00,0x00,0x30,0x00,0x18,0x00,0x00,0x00,0x00,0x00,0x00,0xe6,0x00,0x00,0x00,
 0x80,0x03,0x00,0x00,0x00,0x80,0x1d,0x80,0xe3,0x1f,0x07,0x00,0x80,0x01,0x00,
 0x00,0x00,0x00,0x00,0x60,0x00,0x1c,0x00,0x00,0x00,0x00,0x00,0x00,0x66,0x00,
 0x00,0x00,0x00,0x03,0x00,0x00,0x00,0xc0,0x10,0xc0,0xf8,0xff,0x0c,0x00,0x80,
 0x01,0x00,0x00,0x00,0x00,0x00,0xe0,0x00,0x0c,0x00,0x00,0x00,0x00,0x00,0x00,
 0x36,0x00,0x00,0x00,0x00,0x06,0x00,0x00,0x00,0x60,0x10,0x60,0xfe,0xff,0x19,
 0x00,0x80,0x01,0x00,0x00,0x00,0x00,0x00,0xc0,0x00,0x06,0x00,0x00,0x00,0x00,
 0x00,0x00,0x36,0x00,0x00,0x00,0x00,0x06,0x00,0x00,0x00,0x20,0x38,0x30,0xff,
 0xff,0x33,0x00,0x80,0x01,0x00,0x00,0x00,0x00,0x00,0x80,0x01,0x07,0x00,0x00,
 0x00,0x00,0x00,0x00,0x1b,0x00,0xe0,0x01,0x00,0x06,0x00,0x00,0x00,0x30,0xee,
 0x11,0xdf,0xfe,0xe7,0x00,0x80,0x01,0x00,0x00,0x00,0xc0,0x00,0x80,0x83,0x03,
 0x00,0x02,0x00,0x00,0x00,0x80,0x1b,0x00,0xf0,0x03,0x00,0x0c,0x00,0x00,0x00,
 0x98,0x1b,0x9b,0xb7,0xd5,0xcf,0x00,0x80,0x01,0x00,0x00,0x00,0xe0,0x01,0x00,
 0x83,0x01,0x00,0x03,0x00,0x00,0x00,0xc0,0x09,0x00,0x30,0x03,0x00,0x06,0x00,
 0x00,0x00,0xcc,0xfe,0x8c,0xf9,0xbf,0x9f,0x01,0x80,0x01,0x80,0xff,0xff,0xff,
 0x03,0x00,0xc6,0x00,0x80,0x03,0x00,0xfe,0xff,0xff,0x1c,0x00,0x18,0x06,0x00,
 0x0e,0x00,0x00,0x00,0x64,0xff,0x9d,0xfe,0xff,0x3e,0x01,0x80,0x01,0x80,0xff,
 0xff,0x1f,0x03,0x00,0xec,0x00,0x80,0x03,0x00,0xff,0xff,0x3f,0x0c,0x00,0x18,
 0x0c,0x00,0x06,0x00,0x00,0x00,0xb2,0xff,0xc3,0xff,0xff,0x7d,0x03,0x80,0x01,
 0x80,0x01,0x00,0x00,0x06,0x00,0x7c,0x00,0xc0,0x03,0x00,0x02,0x00,0x00,0x0c,
 0x00,0x18,0x1c,0x00,0x06,0x00,0x00,0x00,0x9b,0xff,0x43,0xff,0xff,0x77,0x06,
 0x80,0x01,0x80,0x01,0x00,0x00,0x0c,0x00,0x38,0x00,0xe0,0x03,0x00,0x03,0x00,
 0x00,0x0c,0x00,0x10,0x38,0x00,0x03,0x00,0x00,0x80,0xe9,0xff,0x87,0xff,0xff,
 0xff,0x04,0x80,0x01,0x80,0x01,0x00,0x00,0x1c,0x00,0x30,0x00,0x70,0x03,0x00,
 0x03,0x00,0x00,0x0c,0x00,0x38,0x70,0x80,0x03,0x00,0x00,0x80,0xec,0xff,0x8f,
 0xff,0xff,0xdf,0x0c,0x80,0x01,0x80,0x01,0x00,0x00,0x18,0x00,0x00,0x00,0x30,
 0x03,0x00,0x02,0x00,0x00,0x0c,0x00,0x70,0xc0,0xe1,0x01,0x00,0x00,0xc0,0xf6,
 0xff,0x8f,0xff,0xff,0xbf,0x09,0x80,0x01,0x00,0xff,0xff,0x0f,0x30,0x00,0x00,
 0x00,0x18,0x03,0x00,0xff,0xff,0x1f,0x08,0x00,0xc0,0xef,0x7f,0x00,0x00,0x00,
 0x40,0xfe,0xff,0x8f,0xff,0xff,0x7f,0x1b,0x80,0x01,0x80,0xff,0xff,0x1f,0x70,
 0x00,0x00,0x00,0x1c,0x03,0x00,0xfe,0xff,0x7f,0x18,0x00,0x80,0xff,0x1f,0x00,
 0x00,0x00,0x20,0xfb,0xff,0x8f,0xff,0xff,0xff,0x12,0x80,0x01,0x00,0x00,0x00,
 0x70,0x60,0x00,0x00,0x00,0x0c,0x03,0x00,0x00,0x00,0x60,0x18,0x00,0x00,0x00,
 0x1f,0x00,0x00,0x00,0xa0,0xfb,0xff,0x9f,0xff,0xff,0xff,0x33,0x80,0x01,0x00,
 0x00,0x00,0x60,0xc0,0x00,0x00,0x00,0x06,0x03,0x00,0x00,0x00,0xc0,0x18,0x00,
 0x00,0x00,0x70,0x00,0x00,0x00,0xb0,0xfd,0xff,0x9f,0xff,0xff,0xff,0x33,0x80,
 0x01,0x00,0x00,0x00,0xc0,0xc0,0x01,0x00,0x00,0x07,0x03,0x00,0x00,0x00,0x80,
 0x31,0x00,0x00,0x00,0xe0,0x01,0x00,0x00,0x90,0xfd,0xff,0x9f,0xff,0xff,0xff,
 0x27,0x80,0x01,0x00,0x00,0x00,0xc0,0x80,0x03,0x00,0x80,0x03,0x03,0x00,0x00,
 0x00,0x80,0x31,0x00,0x00,0x00,0x80,0x03,0x00,0x00,0xd0,0xff,0xff,0x1f,0xff,
 0xff,0xff,0x27,0x80,0x01,0x00,0x00,0x00,0xc0,0x00,0x03,0x00,0x80,0x01,0x03,
 0x00,0x00,0x00,0x00,0x63,0x00,0x00,0x00,0x00,0x07,0x00,0x00,0xd8,0xfe,0xff,
 0x3f,0xff,0xff,0xff,0x67,0x80,0x01,0x00,0x00,0x00,0x80,0x01,0x06,0x00,0xc0,
 0x00,0x03,0x00,0x00,0x00,0x00,0xc1,0x00,0x00,0x00,0x00,0x06,0x00,0x00,0xc8,
 0xfe,0xff,0x1f,0xff,0xff,0xff,0x4f,0x80,0x01,0x00,0x00,0x00,0xc0,0x00,0x0e,
 0x00,0xe0,0x00,0x03,0x00,0x00,0x00,0x80,0xc3,0x00,0x00,0x00,0x00,0x0c,0x00,
 0x00,0xc8,0xff,0xff,0x3f,0xfe,0xff,0xff,0x4f,0x80,0x01,0x00,0x00,0x00,0xc0,
 0x00,0x0c,0x00,0x60,0x00,0x03,0x00,0x00,0x00,0x80,0x81,0x03,0x00,0x00,0x00,
 0x18,0x00,0x00,0x68,0xff,0xff,0x3f,0xfe,0xff,0xff,0x4f,0x80,0x01,0x00,0x00,
 0x00,0xc0,0x00,0x18,0x00,0x30,0x00,0x03,0x00,0x00,0x00,0x80,0x01,0x07,0x00,
 0x00,0x00,0x18,0x00,0x00,0xc8,0xfe,0xff,0x3f,0xfe,0xff,0xff,0x4f,0x80,0x01,
 0x00,0x00,0x00,0x60,0x00,0x18,0x00,0x30,0x00,0x03,0x00,0x00,0x00,0xc0,0x00,
 0x1c,0x00,0x00,0x00,0x30,0x00,0x00,0x48,0xff,0xff,0x7f,0xfc,0xff,0xff,0x4f,
 0x80,0x01,0x00,0x00,0x00,0x78,0x00,0x30,0x00,0x30,0x00,0x03,0x00,0x00,0x00,
 0x60,0xa0,0xf8,0x6a,0x01,0x00,0x30,0x00,0x00,0xd8,0xff,0xff,0x3f,0xf8,0xff,
 0xff,0xcf,0x80,0x01,0x00,0xff,0xff,0x1f,0x00,0x30,0x00,0x10,0x00,0x03,0x00,
 0xfe,0xff,0x3f,0xfc,0xc3,0xff,0x0f,0x00,0x30,0x00,0x00,0x48,0xff,0xff,0x7f,
 0xf9,0xff,0xff,0xcf,0x80,0x01,0x80,0xff,0xff,0x07,0x00,0x18,0x00,0x38,0x00,
 0x03,0x00,0xff,0xff,0x17,0x1e,0x0f,0x00,0x3e,0x00,0x30,0x00,0x00,0x48,0xff,
 0xff,0x3f,0xe3,0xff,0xff,0x4f,0x80,0x01,0x80,0x01,0x00,0x00,0x00,0x30,0x00,
 0x10,0x00,0x03,0x00,0x02,0x00,0x00,0x07,0x18,0x00,0x30,0x00,0x60,0x00,0x00,
 0xc8,0xff,0xff,0x7f,0xe3,0xff,0x0f,0x4f,0x80,0x03,0x80,0x01,0x00,0x00,0x00,
 0x10,0x00,0x30,0x00,0x03,0x00,0x03,0x00,0x80,0x03,0x30,0x00,0x60,0x00,0x20,
 0x00,0x00,0x48,0xff,0xff,0x3f,0xc7,0xff,0x07,0x4c,0x80,0x01,0x80,0x01,0x00,
 0x00,0x00,0x30,0x00,0x30,0x00,0x03,0x00,0x02,0x00,0x80,0x01,0xf0,0x00,0x60,
 0x00,0x70,0x00,0x00,0xc8,0xff,0xff,0x7f,0x4d,0xff,0x03,0x64,0x80,0x01,0x00,
 0x01,0x00,0x00,0x00,0x38,0x00,0x10,0x00,0x03,0x00,0x03,0x00,0xc0,0x00,0xc0,
 0x00,0x60,0x00,0x20,0x00,0x00,0x58,0xff,0xff,0x3f,0x89,0xff,0x01,0x64,0x80,
 0x01,0x80,0xab,0xaa,0x2a,0x00,0x10,0x00,0x38,0x00,0x03,0x00,0x5e,0x55,0xf5,
 0x00,0x80,0x03,0x60,0x00,0x70,0x00,0x00,0xc8,0xff,0xff,0x3f,0x31,0xfd,0x00,
 0x20,0x80,0x01,0x00,0xff,0xff,0xff,0x00,0x30,0x00,0x10,0x00,0x03,0x00,0xfe,
 0xff,0xff,0x00,0x00,0x07,0x30,0x00,0x20,0x00,0x00,0x98,0xfe,0xff,0x3f,0x61,
 0xf4,0x01,0x30,0x80,0x01,0x00,0x55,0x55,0xd5,0x01,0x30,0x00,0x30,0x00,0x03,
 0x00,0x44,0x22,0x42,0x00,0x00,0x1e,0x3c,0x00,0x30,0x00,0x00,0xd8,0xff,0xff,
 0xbf,0xc1,0xe0,0x01,0x18,0x80,0x01,0x00,0x00,0x00,0x80,0x03,0x30,0x00,0x30,
 0x00,0x03,0x00,0x00,0x00,0x00,0x00,0x00,0xf8,0x1f,0x00,0x30,0x00,0x00,0x90,
 0xfe,0xff,0xbf,0x01,0x03,0x03,0x0c,0x80,0x03,0x00,0x00,0x00,0x00,0x03,0x18,
 0x00,0x10,0x00,0x03,0x00,0x00,0x00,0x00,0x00,0x00,0xe0,0x03,0x00,0x18,0x00,
 0x00,0x90,0xff,0xff,0x9f,0x00,0x0e,0x00,0x06,0x80,0x01,0x00,0x00,0x00,0x00,
 0x06,0x30,0x00,0x38,0x00,0x03,0x00,0x00,0x00,0x00,0x00,0x00,0x00,0x00,0x00,
 0x18,0x00,0x00,0x90,0xff,0xff,0x9f,0x00,0x78,0xc0,0x03,0x80,0x01,0x00,0x00,
 0x00,0x00,0x06,0x10,0x00,0x10,0x00,0x03,0x00,0x00,0x00,0x00,0x00,0x00,0x00,
 0x00,0x00,0x0c,0x00,0x00,0x30,0xff,0xff,0x4f,0x00,0xc0,0x7f,0x00,0x80,0x01,
 0x00,0x00,0x00,0x00,0x0c,0x30,0x00,0x30,0x00,0x03,0x00,0x00,0x00,0x00,0x00,
 0x00,0x00,0x00,0x00,0x0c,0x00,0x00,0x20,0xfe,0xff,0x6f,0x00,0x00,0x12,0x00,
 0x80,0x01,0x00,0x00,0x00,0x00,0x0c,0x38,0x00,0x30,0x00,0x03,0x00,0x00,0x00,
 0x00,0x00,0x00,0x00,0x00,0x00,0x06,0x00,0x00,0x20,0xfe,0x0f,0x27,0x00,0x00,
 0x00,0x00,0x80,0x01,0x00,0x00,0x00,0x00,0x0c,0x10,0x00,0x18,0x00,0x03,0x00,
 0x00,0x00,0x00,0x00,0x00,0x00,0x00,0x00,0x03,0x00,0x00,0x20,0xfe,0x03,0x24,
 0x00,0x00,0x00,0x00,0x80,0x01,0x00,0x00,0x00,0x00,0x06,0x30,0x00,0x18,0x00,
 0x03,0x00,0x00,0x00,0x00,0x0c,0x00,0x00,0x00,0x80,0x03,0x00,0x00,0x40,0xfe,
 0x00,0x30,0x00,0x00,0x00,0x00,0x00,0x03,0x00,0x00,0x00,0x00,0x06,0x60,0x00,
 0x0c,0x00,0x07,0x00,0x00,0x00,0x00,0x3c,0x00,0x00,0x00,0xc0,0x00,0x00,0x00,
 0xc0,0xfc,0x00,0x18,0x00,0x00,0x00,0x00,0x00,0x07,0x00,0x00,0x00,0x00,0x03,
 0xe0,0x00,0x0c,0x00,0x06,0x00,0x00,0x00,0x00,0x3e,0x00,0x00,0x00,0x70,0x00,
 0x00,0x00,0xc0,0x7c,0x00,0x08,0x00,0x00,0x00,0x00,0x00,0x0e,0x00,0x00,0x00,
 0x80,0x03,0xc0,0x00,0x07,0x00,0x1c,0x00,0x00,0x00,0x00,0xe7,0x00,0x00,0x00,
 0x3c,0x00,0x00,0x00,0x80,0xfc,0x00,0x08,0x00,0x00,0x00,0x00,0x00,0x5c,0x55,
 0x55,0x49,0xf2,0x00,0x00,0xe7,0x03,0x00,0x38,0x22,0x92,0xaa,0xea,0xc3,0x03,
 0x00,0x00,0x0f,0x00,0x00,0x00,0x80,0x79,0x00,0x04,0x00,0x00,0x00,0x00,0x00,
 0xf0,0xff,0xff,0xff,0x7f,0x00,0x00,0x7a,0x00,0x00,0xe0,0xff,0xff,0xff,0xff,
 0x00,0x3f,0x00,0xf0,0x03,0x00,0x00,0x00,0x00,0xf9,0x00,0x06,0x00,0x00,0x00,
 0x00,0x00,0xa0,0xaa,0xaa,0xaa,0x0a,0x00,0x00,0x00,0x00,0x00,0x00,0x90,0x90,
 0x88,0x08,0x00,0xfc,0xff,0x7f,0x00,0x00,0x00,0x00,0x00,0xf2,0x01,0x02,0x00,
 0x00,0x00,0x00,0x00,0x00,0x00,0x00,0x00,0x00,0x00,0x00,0x00,0x00,0x00,0x00,
 0x00,0x00,0x00,0x00,0x00,0x40,0xff,0x07,0x00,0x00,0x00,0x00,0x00,0xe6,0x81,
 0x01,0x00,0x00,0x00,0x00,0x00,0x00,0x00,0x00,0x00,0x00,0x00,0x00,0x00,0x00,
 0x00,0x00,0x00,0x00,0x00,0x00,0x00,0x00,0x00,0x00,0x00,0x00,0x00,0x00,0x00,
 0x88,0x81,0x00,0x00,0x00,0x00,0x00,0x00,0x00,0x00,0x00,0x00,0x00,0x00,0x00,
 0x00,0x00,0x00,0x00,0x00,0x00,0x00,0x00,0x00,0x00,0x00,0x00,0x00,0x00,0x00,
 0x00,0x00,0x18,0x70,0x00,0x00,0x00,0x00,0x00,0x00,0x00,0x00,0x00,0x00,0x00,
 0x00,0x00,0x00,0x00,0x00,0x00,0x00,0x00,0x00,0x00,0x00,0x00,0x00,0x00,0x00,
 0x00,0x00,0x00,0x00,0xe0,0x1e,0x00,0x00,0x00,0x00,0x00,0x00,0x00,0x00,0x00,
 0x00,0x00,0x00,0x00,0x00,0x00,0x00,0x00,0x00,0x00,0x00,0x00,0x00,0x00,0x00,
 0x00,0x00,0x00,0x00,0x00,0x00,0x80,0x03,0x00,0x00,0x00,0x00,0x00,0x00,0x00,
 0x00,0x00,0x00,0x00,0x00,0x00,0x00,0x00,0x00,0x00,0x00,0x00,0x00,0x00,0x00,
 0x00,0x00,0x00,0x00,0x00,0x00,0x00,0x00,0x00,0x00,0x00,0x00,0x00,0x00,0x00,
 0x00,0x00,0x00,0x00,0x00,0x00,0x00,0x00,0x00,0x00,0x00,0x00,0x00,0x00,0x00,
 0x00,0x00,0x00,0x00,0x00,0x00,0x00,0x00 };
