#define _width 256
#define _height 64
static char _bits[] = {
 0xff,0xff,0xff,0x7f,0x00,0x00,0xf8,0x03,0x00,0x00,0x00,0x00,0x00,0x00,0x00,
 0x00,0x00,0x00,0x00,0x00,0x00,0x00,0x00,0x00,0x00,0x00,0x00,0x00,0x00,0x00,
 0x00,0x00,0x01,0x00,0x00,0xc0,0x00,0x00,0x0c,0x06,0x00,0x00,0x00,0x00,0x00,
 0x00,0x00,0x00,0x00,0x00,0x00,0x00,0x00,0x00,0x00,0x00,0x00,0x00,0x00,0x00,
 0x00,0x00,0x00,0x00,0x01,0x00,0x00,0xc0,0x01,0x00,0x04,0x0e,0x00,0x00,0x00,
 0x00,0x00,0x00,0x00,0x00,0x00,0x00,0x00,0x00,0x00,0x00,0x00,0x00,0x00,0x00,
 0x00,0x00,0x00,0x00,0x00,0x00,0xfd,0xff,0xff,0xdf,0x03,0x00,0xe6,0x0e,0x00,
 0x00,0x00,0x00,0x00,0x00,0x00,0x00,0x00,0x00,0x00,0x00,0x00,0x00,0x00,0x00,
 0x00,0x00,0x00,0x00,0x00,0x00,0x00,0x00,0xfd,0xff,0xff,0xdf,0x03,0x00,0xf3,
 0x1e,0x00,0x00,0x00,0x00,0x00,0x00,0x00,0x00,0x00,0x00,0x00,0x00,0x00,0x00,
 0xfe,0xff,0x03,0x00,0x00,0x00,0x00,0x00,0x00,0x00,0xc1,0x3f,0xe0,0xdf,0x07,
 0x80,0xf9,0x3e,0x00,0x00,0x00,0x00,0x00,0x00,0x00,0x00,0xf8,0x1f,0x00,0x00,
 0x00,0xe0,0x01,0x00,0x3c,0x00,0x00,0x00,0x00,0x00,0x00,0x00,0xdf,0x1f,0x87,
 0xdf,0x0f,0x7c,0xfc,0x3e,0x00,0x00,0x00,0x00,0x00,0x00,0x00,0xe0,0x07,0xf0,
 0x7f,0x00,0x00,0x1f,0x00,0x00,0xc0,0x03,0x00,0x00,0x00,0x00,0xe0,0x0f,0x90,
 0xcf,0x3f,0xdf,0x0f,0x04,0xff,0x7e,0x00,0x00,0x00,0x00,0x00,0x00,0x80,0x1f,
 0x00,0x00,0xc0,0x03,0xe0,0x00,0x00,0x00,0x00,0x1c,0x00,0x00,0x00,0xf0,0x1f,
 0xf8,0xb0,0xcd,0x7f,0xde,0x0f,0xf4,0xff,0x7e,0x00,0x00,0x00,0x00,0x00,0x00,
 0xe0,0x00,0x00,0x00,0x00,0x06,0x18,0x00,0x00,0x00,0x00,0x60,0x00,0x00,0xe0,
 0x0f,0x00,0x00,0xa0,0xed,0xff,0xde,0x0f,0xf4,0xdf,0x7e,0x00,0x00,0x00,0x00,
 0x00,0x00,0x38,0x00,0x00,0x00,0x00,0x08,0x07,0x00,0x00,0x00,0x00,0x80,0x07,
 0x00,0x1e,0x00,0x00,0x00,0xa0,0xed,0xff,0xdc,0x0f,0x04,0xd8,0x7e,0x00,0x00,
 0x00,0x00,0x00,0x00,0x0c,0x00,0x00,0x00,0x00,0xf0,0x00,0x00,0x00,0x00,0x00,
 0x00,0x18,0xc0,0x01,0x00,0x00,0x00,0xa0,0xed,0xff,0xdd,0x0f,0xfc,0xd9,0x7e,
 0x00,0x00,0x00,0x00,0x00,0x00,0x02,0x00,0x00,0x00,0x00,0xc0,0x00,0x00,0x00,
 0x00,0x00,0x00,0x20,0x30,0x00,0x00,0x00,0x00,0xa0,0xed,0x8f,0xdd,0x0f,0xfc,
 0xd9,0x7e,0x00,0x00,0x00,0x00,0x00,0x80,0x01,0x00,0x00,0x00,0x00,0x80,0x00,
 0x00,0x00,0x00,0x00,0x00,0x40,0x0c,0x00,0x00,0x00,0x00,0xa0,0xed,0x07,0xdd,
 0x0f,0xf8,0xd9,0x7e,0x00,0x00,0x00,0x00,0x00,0xc0,0x00,0x00,0x00,0x00,0x00,
 0x00,0x01,0x00,0x00,0x00,0x00,0x00,0x80,0x03,0x00,0x00,0x00,0x00,0xa0,0xed,
 0x07,0xdd,0x0f,0xf0,0xd9,0x7e,0x00,0x00,0xfe,0xff,0x00,0x70,0x00,0x00,0x00,
 0x00,0x00,0x00,0x06,0x00,0x00,0x00,0x00,0x00,0x00,0x03,0x00,0x00,0x00,0x00,
 0xa0,0xe8,0x07,0xc1,0x0f,0xf0,0x89,0x7e,0x00,0x80,0x03,0x80,0x03,0x10,0x00,
 0x00,0x00,0x00,0x00,0x00,0x18,0x00,0x00,0x00,0x00,0x00,0x00,0x04,0x00,0x00,
 0x00,0x00,0xa0,0xe8,0x07,0xff,0x0f,0xe0,0x89,0x7e,0x00,0xf0,0x00,0x00,0x0e,
 0x08,0x00,0x00,0x00,0x00,0x00,0x00,0x30,0x00,0x00,0x00,0x00,0x00,0x00,0x18,
 0x00,0x00,0x00,0x00,0xa0,0xe8,0x0f,0xff,0x0f,0xc0,0x89,0x7e,0x00,0x1c,0x00,
 0x00,0x18,0x04,0x00,0x00,0x00,0x00,0x00,0x00,0x20,0x00,0x00,0x00,0x00,0x00,
 0x00,0x60,0x00,0x00,0x00,0x00,0xa0,0xe8,0x1f,0xfe,0x0f,0xc0,0x89,0x7e,0x00,
 0x06,0x00,0x00,0xe0,0x06,0x00,0x00,0x00,0x00,0x00,0x00,0x00,0x00,0x00,0x00,
 0x00,0x00,0x00,0xc0,0x00,0x00,0x00,0x00,0xa0,0x0d,0x10,0xfc,0x0f,0x00,0xd9,
 0x7e,0x80,0x01,0x00,0x00,0x80,0x03,0x00,0x00,0x00,0x00,0x00,0x00,0x00,0x00,
 0x00,0x00,0x00,0x00,0x00,0x80,0x01,0x00,0x00,0x00,0xa0,0x0d,0x30,0xfc,0x0f,
 0x00,0xd9,0x7e,0x80,0x00,0x00,0x00,0x00,0x03,0x00,0x00,0x00,0x00,0x00,0x00,
 0x00,0x00,0x00,0x00,0x00,0x00,0x00,0x00,0x00,0x00,0x00,0x00,0xa0,0xfd,0x73,
 0xf8,0x0f,0x00,0xd9,0x7e,0x40,0x00,0x00,0x00,0x00,0x02,0x00,0x00,0x00,0x00,
 0x00,0x00,0x00,0x00,0x00,0x00,0x00,0x00,0x00,0x00,0x00,0x00,0x00,0x00,0x20,
 0x02,0xf0,0xf0,0x0f,0x00,0x21,0x7e,0x60,0x00,0x00,0x00,0x00,0x04,0x00,0x00,
 0x00,0x00,0x00,0x00,0x00,0x00,0x00,0x00,0x00,0x00,0x00,0x00,0x00,0x00,0x00,
 0x00,0x20,0x02,0xf0,0x01,0x00,0x00,0x31,0x7e,0x20,0x00,0x00,0x00,0x00,0x00,
 0x00,0x00,0x00,0x00,0x00,0x00,0x00,0x00,0x00,0x00,0x00,0x00,0x00,0x00,0x00,
 0x00,0x00,0x00,0x20,0xe7,0xff,0x01,0x00,0x00,0x71,0x7e,0x10,0x00,0x00,0x00,
 0x00,0x00,0x00,0x00,0x00,0x00,0x00,0x00,0x00,0x00,0x00,0x00,0x00,0x00,0x00,
 0x00,0x00,0x00,0x00,0x00,0xa0,0xef,0xff,0xc3,0xff,0x03,0x79,0x7e,0x10,0x00,
 0x00,0xf8,0xff,0x3f,0x00,0xf0,0xff,0xff,0x00,0xc0,0xff,0xff,0x1f,0x00,0xe0,
 0x0f,0x00,0xf8,0xff,0xc3,0xff,0x0f,0x20,0xe7,0xff,0x43,0x00,0x06,0x79,0x7e,
 0x10,0x00,0x00,0xe8,0xff,0xff,0x01,0xd0,0xff,0xff,0x07,0x40,0xff,0xff,0x37,
 0x00,0xb0,0x1b,0x00,0xe8,0x7f,0xc7,0xff,0x1b,0x20,0xe7,0xff,0x43,0xff,0x06,
 0x79,0x7e,0x10,0x00,0x00,0x88,0xff,0xff,0x03,0x10,0xff,0xff,0x0b,0x40,0xfe,
 0xff,0x77,0x00,0x90,0x3b,0x00,0x88,0x7f,0xc7,0x7f,0x18,0x20,0xe7,0xff,0x43,
 0xff,0x0e,0x31,0x7e,0x18,0x00,0x00,0x88,0x1f,0xe0,0x0d,0x10,0xff,0xff,0x3f,
 0x40,0xfc,0xc1,0x77,0x00,0xd0,0x7f,0x00,0x88,0xff,0xae,0x7f,0x38,0x20,0xe2,
 0xff,0x43,0x00,0x0e,0x31,0x7e,0x08,0x00,0x00,0x30,0xcf,0xcf,0x1b,0x70,0x3e,
 0xc0,0x6f,0x80,0xf9,0x1c,0xf7,0x00,0xd0,0xf7,0x00,0x38,0xff,0xbe,0x3f,0x7e,
 0x20,0xe2,0xff,0xc3,0xff,0x0f,0x31,0x7e,0x08,0x00,0x00,0x40,0xef,0xdf,0x1b,
 0xc0,0x9e,0x3f,0xff,0x00,0x7a,0x7e,0xf7,0x01,0xd8,0xf7,0x01,0x60,0xff,0xbe,
 0x3f,0x7f,0x20,0xe2,0x07,0x80,0xff,0x0f,0x31,0x7e,0x0c,0x00,0x00,0x40,0xef,
 0xbf,0x37,0x80,0xde,0x7f,0xdf,0x00,0x7a,0xff,0xf6,0x01,0xc8,0xf7,0x01,0x40,
 0xfb,0xfe,0x3c,0x7f,0x20,0xe2,0x07,0x00,0xff,0x0f,0x21,0x7e,0x04,0x00,0x00,
 0x40,0xef,0xbf,0x75,0x80,0xde,0x7f,0xde,0x01,0x7a,0xff,0xf6,0x01,0xe8,0xfd,
 0x03,0x40,0xf3,0xde,0xbc,0x7f,0x20,0xe2,0x07,0x00,0x00,0x00,0x21,0x7e,0x04,
 0x00,0x00,0x40,0xef,0xbf,0x6d,0x80,0xde,0xff,0xfe,0x01,0x7a,0xff,0xf7,0x01,
 0x68,0xed,0x03,0x40,0xbb,0xdd,0xbd,0x7f,0x20,0xe2,0x07,0x00,0x00,0x00,0x21,
 0x7e,0x04,0x00,0x00,0x40,0xe9,0x27,0xed,0x80,0xda,0xff,0xfe,0x03,0x7a,0xff,
 0xf7,0x01,0x6c,0xea,0x03,0x40,0xbb,0xdd,0xbd,0x7f,0x20,0xe2,0x07,0x00,0x00,
 0x00,0x21,0x7e,0x03,0x00,0x00,0x40,0xe9,0x43,0xe9,0x80,0xd2,0xff,0xf6,0x03,
 0x4a,0x1f,0xf7,0x01,0x64,0xea,0x07,0x40,0xbb,0x5d,0xa5,0x1f,0x20,0xe2,0x07,
 0x00,0x00,0x00,0x21,0x7e,0x3e,0x00,0x00,0x40,0xe9,0x43,0xe9,0x81,0xd2,0x87,
 0xd2,0x07,0x4a,0x1f,0xf7,0x01,0xb4,0xd2,0x07,0x40,0x2b,0x7d,0xa5,0x0f,0x30,
 0xe0,0x07,0x00,0x00,0x00,0x01,0x7e,0xe0,0x00,0x00,0x40,0xe9,0x43,0xd1,0x81,
 0xd2,0x87,0xd2,0x07,0x4a,0x1f,0xf1,0x01,0xb4,0xd2,0x07,0x40,0x2b,0x6d,0xa5,
 0x0f,0x10,0xc0,0x07,0x00,0x00,0x80,0x00,0x7c,0x00,0x03,0x00,0x40,0xe9,0x43,
 0xd1,0x83,0xd2,0x47,0xf1,0x07,0x4a,0x1f,0xff,0x01,0xf6,0xd2,0x07,0x40,0x2b,
 0x6a,0xa5,0x0f,0x0f,0x80,0x07,0x00,0x00,0xf0,0x00,0xf8,0x00,0x06,0x00,0x40,
 0xe9,0x43,0xd9,0x83,0xd2,0xbf,0xf9,0x07,0x4a,0x3f,0xfe,0x01,0xfa,0xd4,0x0f,
 0x40,0x2b,0xea,0xa5,0x0f,0x01,0x00,0x0c,0x00,0x00,0x10,0x00,0xe0,0x00,0x00,
 0x00,0x40,0xef,0x43,0xdb,0x83,0x1a,0xc0,0xfd,0x07,0x4a,0x60,0xfe,0x01,0xda,
 0xb4,0x0f,0x40,0x7b,0xab,0xa5,0x0f,0x01,0x00,0x1c,0x00,0x80,0x13,0x00,0xe0,
 0x01,0x00,0x00,0x40,0xe7,0x43,0xc7,0x83,0xfe,0xff,0xf7,0x07,0xfa,0xef,0xfc,
 0x01,0xda,0xbc,0x0f,0x40,0x98,0xb9,0x99,0x0f,0x01,0x00,0x3c,0x00,0xe0,0x10,
 0x00,0xe0,0x03,0x00,0x00,0x40,0xe4,0x43,0xc4,0x83,0x04,0x80,0xfc,0x03,0x22,
 0xe0,0xf8,0x01,0xe1,0x91,0x0f,0x40,0x18,0x81,0x99,0x0f,0x01,0x00,0x7c,0x00,
 0x30,0x10,0x00,0xe0,0x07,0x00,0x00,0x40,0xe6,0x43,0xc4,0x87,0x0c,0x80,0xf9,
 0x03,0x32,0xe0,0x01,0x00,0xe1,0x99,0x1f,0x40,0x98,0x83,0x99,0x0f,0xff,0xff,
 0xff,0x00,0x18,0xf0,0xff,0xff,0x07,0x00,0x00,0x40,0xef,0x43,0xcc,0x87,0x1c,
 0x80,0xf3,0x03,0x32,0xff,0x03,0x00,0x01,0x38,0x1f,0x40,0x98,0x83,0xbd,0x0f,
 0xff,0xff,0xff,0x00,0x0c,0xf0,0xff,0xff,0x07,0x00,0x00,0x40,0xe6,0x43,0xce,
 0x87,0xde,0x8f,0xf3,0x01,0x7a,0xff,0x03,0x00,0x01,0x38,0x1f,0x40,0x18,0xc3,
 0x99,0x0f,0xfe,0xff,0xff,0x00,0x03,0xe0,0xff,0xff,0x07,0x00,0x00,0x40,0xe6,
 0x43,0xce,0x87,0xcc,0x1f,0xe7,0x00,0x32,0xff,0x03,0x80,0x00,0x30,0x3f,0x40,
 0x38,0xc3,0x99,0x0f,0xfc,0xff,0xff,0x00,0x01,0xc0,0xff,0xff,0x07,0x00,0x00,
 0x40,0xe6,0x23,0xc6,0x87,0xcc,0x3f,0xe6,0x07,0x32,0xff,0x1f,0x80,0x00,0x30,
 0x3f,0x40,0x38,0xc3,0x99,0x0f,0xf8,0xff,0xff,0x80,0x00,0xc0,0xff,0xff,0x07,
 0x00,0x00,0x40,0xe6,0x23,0xe6,0x87,0xcc,0x3f,0x66,0x08,0x32,0xff,0x31,0x80,
 0x00,0x20,0x3e,0x40,0x38,0xc2,0x99,0x0f,0xf0,0xff,0xff,0x40,0x00,0x80,0xff,
 0xff,0x07,0x00,0x00,0x40,0xe2,0x23,0xe2,0x87,0xcc,0x7f,0x64,0x18,0x32,0xff,
 0x71,0x80,0xf0,0x23,0x3e,0x40,0x38,0xc2,0x91,0x0f,0xe0,0xff,0xff,0x40,0x00,
 0x00,0xff,0xff,0x07,0x00,0x00,0x40,0xe2,0x23,0xe2,0x87,0xc8,0x47,0x64,0x38,
 0x22,0x1f,0x71,0x40,0xf0,0x27,0x7e,0x40,0x38,0xe2,0x91,0x0f,0x00,0x00,0x00,
 0x60,0x00,0x00,0x00,0x00,0x00,0x00,0x00,0x40,0xe2,0x13,0xf1,0x87,0xc8,0xc7,
 0x64,0x38,0x22,0x1f,0xf1,0x40,0xf8,0x27,0x7c,0x40,0x38,0xe2,0x91,0x0f,0x00,
 0x00,0x00,0x30,0x00,0x00,0x00,0x00,0x00,0x00,0x00,0x40,0xe2,0x13,0xf1,0x83,
 0xc4,0xc7,0x64,0x78,0x22,0x1f,0xf1,0x41,0xf8,0x47,0x7c,0x40,0x78,0xe2,0x91,
 0x0f,0x00,0x00,0x00,0x18,0x00,0x00,0x00,0x00,0x00,0x00,0x00,0x40,0xe0,0x1b,
 0xf8,0x83,0xc4,0xc7,0x44,0x78,0x22,0x1f,0xf1,0x21,0xf8,0x47,0x7c,0x40,0x78,
 0xe0,0x81,0x0f,0x00,0x00,0x00,0x08,0x00,0x00,0x00,0x00,0x00,0x00,0x00,0x40,
 0xe0,0x0f,0xf8,0x83,0xc0,0x87,0x00,0x78,0x02,0x9f,0xf0,0x21,0xf8,0x07,0xf8,
 0x40,0x78,0xe0,0x01,0x0f,0x00,0x00,0x00,0x08,0x00,0x00,0x00,0x00,0x00,0x00,
 0x00,0x60,0xc0,0x07,0xfc,0xc3,0x80,0x87,0x00,0x78,0x03,0x7e,0xf0,0x31,0xf0,
 0x07,0xf8,0x60,0x78,0xf0,0x00,0x0f,0x00,0x00,0x00,0x0c,0x00,0x00,0x00,0x00,
 0x00,0x00,0x00,0x38,0x00,0x00,0xfe,0x71,0x80,0x87,0x01,0xfc,0x01,0x3c,0xf0,
 0x1d,0xf0,0x03,0xf0,0x39,0x70,0xf0,0x00,0x0e,0x00,0x00,0x00,0x06,0x00,0x00,
 0x00,0x00,0x00,0x00,0x00,0x08,0x00,0x00,0xff,0x11,0x00,0x8c,0x01,0x7c,0x00,
 0x00,0xf0,0x05,0xc0,0x00,0xc0,0x09,0xc0,0x30,0x00,0x08,0x00,0x00,0x00,0x02,
 0x00,0x00,0x00,0x00,0x00,0x00,0x00,0x08,0x00,0x80,0xff,0x10,0x00,0x1c,0x03,
 0x7e,0x00,0x00,0xf0,0x05,0xc0,0x00,0xc0,0x0b,0xc0,0x30,0x00,0x18,0x00,0x00,
 0x00,0x03,0x00,0x00,0x00,0x00,0x00,0x00,0x00,0x08,0x00,0xe0,0x7f,0x10,0x00,
 0x3c,0x07,0x7f,0x00,0x00,0xf0,0x05,0xc0,0x00,0xc0,0x0f,0xc0,0x30,0x00,0x38,
 0x00,0x00,0x00,0x01,0x00,0x00,0x00,0x00,0x00,0x00,0x00,0xf8,0xff,0xff,0x7f,
 0xf0,0xff,0x3f,0xfe,0xff,0xff,0xff,0xff,0xfd,0xff,0xff,0xff,0xff,0xff,0xff,
 0xff,0x3f,0x00,0x00,0x00,0x01,0x00,0x00,0x00,0x00,0x00,0x00,0x00,0xf8,0xff,
 0xff,0x3f,0xf0,0xff,0x7f,0xfe,0xff,0xff,0xff,0xff,0xfd,0xff,0xff,0xff,0xff,
 0xff,0xff,0xff,0x7f,0x00,0x00,0x00,0x01,0x00,0x00,0x00,0x00,0x00,0x00,0x00,
 0xf0,0xff,0xff,0x1f,0xe0,0xff,0x7f,0xfc,0xbf,0xff,0xff,0xff,0xf9,0xff,0xff,
 0xff,0xf7,0xff,0xff,0xff,0xff,0x00,0x00,0x00,0x01,0x00,0x00,0x00,0x00,0x00,
 0x00,0x00,0xf0,0xff,0xff,0x0f,0xe0,0xff,0x7f,0xf8,0xbf,0xff,0xff,0xff,0xf1,
 0xff,0xff,0xff,0xf7,0xff,0xff,0xff,0xff };
