#define _width 256
#define _height 64
static char _bits[] = {
 0x00,0x00,0x00,0x00,0x00,0x00,0x00,0x00,0x00,0x00,0x00,0x00,
 0x00,0x00,0x00,0x00,0x00,0x00,0x00,0x00,0x00,0x00,0x00,0x00,
 0x00,0x00,0x00,0x00,0x00,0x00,0x00,0x00,0x00,0x00,0x00,0x00,
 0x00,0x00,0x00,0x00,0x00,0x00,0x00,0x00,0x00,0x00,0x00,0x00,
 0x00,0x00,0x00,0x00,0x00,0x00,0x00,0x00,0x00,0x00,0x00,0x00,
 0x00,0x00,0x00,0x00,0x00,0x00,0x00,0x00,0x00,0x00,0x00,0x00,
 0x00,0x00,0x00,0x00,0x00,0x00,0x00,0x00,0x00,0x00,0x00,0x00,
 0x00,0x00,0x00,0x00,0x00,0x00,0x00,0x00,0x00,0x00,0x00,0x00,
 0x00,0x00,0x00,0x00,0x00,0x00,0x00,0x00,0x00,0x00,0x00,0x00,
 0x00,0x00,0x00,0x00,0x00,0x00,0x00,0x00,0x00,0x00,0x00,0x00,
 0x00,0x00,0x00,0x00,0x00,0x00,0x00,0x00,0x00,0x00,0x00,0x00,
 0x00,0x00,0x00,0x00,0x00,0x00,0x00,0x00,0x00,0x00,0x00,0x00,
 0x00,0x00,0x00,0x00,0x00,0x00,0x00,0x00,0x00,0x00,0x00,0x00,
 0x00,0x00,0x00,0x00,0x00,0x00,0x00,0x00,0x00,0x00,0x00,0x00,
 0x00,0x00,0x00,0x00,0x00,0x00,0x00,0x00,0x00,0x00,0x00,0x00,
 0x00,0x00,0x00,0x00,0x00,0x00,0x00,0x00,0x00,0x00,0x00,0x00,
 0x00,0x00,0x00,0x00,0x00,0x00,0x00,0x00,0x00,0x00,0x00,0x00,
 0x00,0x00,0x00,0x00,0x00,0x00,0x00,0x00,0x00,0x00,0x00,0x00,
 0x00,0x00,0x00,0x00,0x00,0x00,0x00,0x00,0x00,0x00,0x00,0x00,
 0x00,0x00,0x00,0x00,0x00,0x00,0x00,0x00,0x00,0x00,0x00,0x00,
 0x00,0x00,0x00,0x00,0x00,0x00,0x00,0x00,0x00,0x00,0x00,0x00,
 0x00,0x00,0x00,0x00,0x00,0x00,0x00,0x00,0x00,0x00,0x00,0x00,
 0x00,0x00,0x00,0x00,0x00,0x00,0x00,0x00,0x00,0x00,0x00,0x00,
 0x00,0x00,0x00,0x00,0x00,0x00,0x00,0x00,0x00,0x00,0x00,0x00,
 0x00,0x00,0x00,0x00,0x00,0x00,0x00,0x00,0x00,0x00,0x00,0x00,
 0x00,0x00,0x00,0x00,0x00,0x00,0x00,0x00,0x00,0x00,0x00,0x00,
 0x00,0x00,0x00,0x00,0x00,0x00,0x00,0x00,0x00,0x00,0x00,0x00,
 0x00,0x00,0x00,0x00,0x00,0x00,0x00,0x00,0x00,0x00,0x00,0x00,
 0x00,0x00,0x00,0x00,0x00,0x00,0x00,0x00,0x00,0x00,0x00,0x00,
 0x00,0x00,0x00,0x00,0x00,0x00,0x00,0x00,0x00,0x00,0x00,0x00,
 0x00,0x00,0x00,0x00,0x00,0x00,0x00,0x00,0x00,0x00,0x00,0x00,
 0x00,0x00,0x00,0x00,0x00,0x00,0x00,0x00,0x00,0x00,0x00,0x00,
 0x00,0x00,0x00,0x00,0x00,0x00,0x00,0x00,0x00,0x00,0x00,0x00,
 0x00,0x00,0x00,0x00,0x00,0x00,0x00,0x00,0x00,0x00,0x00,0x00,
 0x00,0x00,0x00,0x00,0x00,0x00,0x00,0x00,0x00,0x00,0x00,0x00,
 0x00,0x00,0x00,0x00,0x00,0x00,0x00,0x00,0x00,0x00,0x00,0x00,
 0x00,0x00,0x00,0x00,0x00,0x00,0x00,0x00,0x00,0x00,0x00,0x00,
 0x00,0x00,0x00,0x00,0x00,0x00,0x00,0x00,0x00,0x00,0x00,0x00,
 0x00,0x00,0x00,0x00,0x00,0x00,0x00,0x00,0x00,0x00,0x00,0x00,
 0x00,0x00,0x00,0x00,0x00,0x00,0x00,0x00,0x00,0x00,0x00,0x00,
 0x00,0x00,0x00,0x00,0x00,0x00,0x00,0x00,0x00,0x00,0x00,0x00,
 0x00,0x00,0x00,0x00,0x00,0x00,0x00,0x00,0x00,0x00,0x00,0x00,
 0x00,0x00,0x00,0x00,0x00,0x00,0x00,0x00,0x00,0x00,0x00,0x00,
 0x00,0x00,0x00,0x00,0x00,0x00,0x00,0x00,0x00,0x00,0x00,0x00,
 0x00,0x00,0x00,0x00,0x00,0x00,0x00,0x00,0x00,0x00,0x00,0x00,
 0x00,0x00,0x00,0x00,0x00,0x00,0x0e,0x00,0x00,0x00,0x00,0x00,
 0x00,0x00,0x00,0x00,0x00,0x00,0x00,0x00,0x00,0x00,0x00,0x00,
 0x00,0x00,0x00,0x00,0x00,0x00,0x00,0x00,0x00,0x00,0x00,0x00,
 0x00,0xe0,0xff,0xfd,0x9f,0xff,0xf9,0xff,0xff,0xff,0xff,0x07,
 0xf0,0xff,0xcf,0xff,0x0f,0x00,0x00,0x00,0x00,0x00,0x00,0x00,
 0x00,0x00,0x00,0x00,0x00,0x00,0x00,0x00,0x00,0xfc,0xff,0xff,
 0x9f,0xff,0xfd,0xff,0xff,0xff,0xff,0x1f,0xfc,0xff,0xdf,0xff,
 0x07,0x00,0x00,0x00,0x00,0x00,0x00,0x00,0x00,0x00,0x00,0x00,
 0x00,0x00,0x00,0x00,0x00,0xfe,0xff,0xff,0x9f,0xff,0xff,0xff,
 0xff,0xff,0xff,0x3f,0xff,0xff,0xff,0xff,0x03,0x00,0x00,0x00,
 0x00,0x00,0x00,0x00,0x00,0x00,0x00,0x00,0x00,0x00,0x00,0x00,
 0x80,0x3f,0x80,0x1f,0xdc,0xc3,0x1f,0x7c,0x00,0xfc,0x01,0xfe,
 0x3f,0x1e,0xfc,0xe1,0xff,0xef,0xff,0xff,0x7f,0xe0,0xff,0xef,
 0x1f,0xf8,0xff,0xff,0xff,0xff,0xff,0x0f,0xc0,0x0f,0x00,0x0f,
 0xfc,0x81,0x0f,0x3c,0x00,0xfc,0x00,0xf8,0x07,0x18,0xfc,0xe0,
 0xff,0xef,0xff,0xff,0x7f,0xf0,0xff,0xef,0x7f,0xf8,0xff,0xff,
 0xff,0xff,0xff,0x07,0xe0,0x03,0x00,0x0f,0xfc,0x81,0x0f,0x3c,
 0x00,0xfc,0x00,0xf0,0x03,0x20,0x78,0xf0,0xff,0xff,0xff,0xff,
 0xff,0xf0,0xff,0xff,0xff,0xf8,0xff,0xff,0xff,0xff,0xff,0x07,
 0xf0,0x01,0x80,0x07,0xf8,0x81,0x07,0x3c,0x00,0xfc,0x00,0xe0,
 0x01,0x00,0x78,0xf0,0x3f,0xfc,0x01,0xe0,0xe0,0x78,0x38,0xfc,
 0xf1,0x79,0x3c,0x00,0x1c,0x00,0xf0,0x03,0xf0,0x00,0x9e,0x07,
 0xf8,0x80,0x07,0x3c,0x00,0xfc,0x00,0xe0,0x00,0x40,0x30,0xf8,
 0x1f,0xf8,0x01,0x00,0xe0,0x39,0x18,0xfc,0xe1,0x3f,0x0c,0x00,
 0x18,0x00,0xe0,0x03,0x78,0xc0,0xff,0x03,0xf8,0x80,0x07,0x3c,
 0xfc,0xff,0xf0,0x40,0xe0,0x03,0x10,0xf8,0x1f,0xf8,0x01,0x00,
 0xc0,0x3f,0x1c,0xf8,0xc1,0x3f,0x0c,0x00,0x10,0x00,0xe0,0x03,
 0x38,0xf0,0xff,0x03,0xf8,0x80,0x03,0x1c,0xfc,0x7f,0xf0,0x41,
 0xf0,0x83,0x00,0xfc,0x0f,0xf0,0x01,0x00,0xc0,0x1f,0x0c,0xf0,
 0x01,0x3f,0x04,0x00,0x10,0x00,0xe0,0x01,0x3c,0xf8,0xff,0x01,
 0xf8,0x00,0x03,0x18,0xfc,0x7f,0xf0,0x20,0xf8,0x87,0x00,0xfe,
 0x0f,0xf0,0xe1,0x1f,0x80,0x1f,0x06,0xf0,0x01,0x3e,0x04,0xff,
 0x10,0xfc,0xff,0x01,0x1c,0xf8,0xff,0x01,0x78,0x00,0x01,0x18,
 0x00,0x7f,0x00,0x20,0xf8,0x07,0x01,0xfe,0x87,0xe0,0xe1,0x3f,
 0x00,0x0f,0x86,0xe0,0x01,0x3c,0x04,0xff,0x10,0xfc,0xff,0x01,
 0x1c,0xfc,0xff,0x61,0x70,0x00,0x01,0x18,0x00,0x7f,0x00,0x30,
 0xf8,0x07,0x01,0xff,0x83,0xc1,0xe1,0x7f,0x00,0x0f,0x83,0xe1,
 0x01,0x30,0x04,0xff,0x1f,0x00,0xff,0x01,0x1c,0xfc,0xff,0x20,
 0x70,0x00,0x21,0x18,0x00,0x7f,0x00,0x30,0xfc,0x07,0x83,0xff,
 0xc3,0xc1,0xe1,0x7f,0x08,0x06,0xc3,0xc1,0x21,0x20,0x04,0xff,
 0x1f,0x00,0xff,0x01,0x1c,0x3c,0xc0,0x00,0x30,0x08,0x20,0x18,
 0x00,0x7f,0x00,0x30,0xfc,0x07,0x83,0xff,0xc1,0x83,0xe1,0x7f,
 0x08,0x82,0xe1,0x83,0x61,0x00,0x04,0xff,0x1f,0x00,0xff,0x01,
 0x1c,0x3c,0x40,0x00,0x30,0x08,0x30,0x08,0x80,0x3f,0x00,0x20,
 0xfc,0x87,0xc3,0xff,0xe1,0x87,0xe1,0x3f,0x18,0xc0,0xe0,0x83,
 0xe1,0x01,0x04,0xff,0x10,0xfc,0xff,0x01,0x1c,0x3c,0x40,0x00,
 0x30,0x0c,0x30,0x08,0xfe,0x3f,0xf8,0x20,0xfc,0x83,0xc3,0xff,
 0xf0,0x07,0xe1,0x1f,0x38,0xc0,0xf0,0x07,0xe1,0x03,0x04,0xff,
 0x10,0xfc,0xff,0x01,0x1c,0x3c,0x00,0x00,0x10,0x0c,0x30,0x08,
 0xfe,0x3f,0xf8,0x21,0xf8,0x83,0xc1,0x7f,0x00,0x0f,0x00,0x00,
 0x3c,0x60,0x80,0x07,0xe0,0x07,0x04,0x00,0x10,0x00,0xe0,0x01,
 0x3c,0xf8,0x21,0xf8,0x00,0x1c,0x38,0x08,0xfe,0x3f,0xf8,0x20,
 0xf8,0xc1,0xc1,0x7f,0x00,0x0f,0x00,0x00,0x7e,0x60,0x00,0x0f,
 0xe0,0x0f,0x0c,0x00,0x10,0x00,0xe0,0x01,0x3c,0xe0,0x00,0xfc,
 0x00,0x1e,0x38,0x08,0x00,0x3f,0x78,0x60,0xf0,0xc0,0xc1,0x3f,
 0x00,0x1f,0x00,0x00,0x7f,0x30,0x00,0x1f,0xe0,0x3f,0x0c,0x00,
 0x10,0x00,0xe0,0x03,0x78,0x00,0x00,0xfc,0x00,0x1e,0x3c,0x08,
 0x00,0x3f,0x00,0x70,0x00,0xe0,0xe1,0x3f,0x00,0x1f,0x00,0xe0,
 0xff,0x38,0x00,0x1f,0xe0,0x7c,0x1c,0x00,0x1c,0x00,0xe0,0x03,
 0xf8,0x00,0x00,0xfe,0x00,0x1e,0x3c,0x00,0x00,0x3f,0x00,0xf0,
 0x00,0xf0,0xe1,0xff,0xff,0xff,0xff,0xff,0xe7,0xff,0xff,0xff,
 0xff,0xf8,0xff,0xff,0xff,0xff,0xff,0x07,0xf0,0x01,0x00,0xfe,
 0x00,0x1e,0x7e,0x00,0x80,0x1f,0x00,0xfc,0x01,0xf8,0xe1,0xff,
 0xff,0xff,0xff,0xff,0xe3,0xff,0xff,0xff,0xff,0xf0,0xff,0xff,
 0xff,0xff,0xff,0x07,0xe0,0x07,0x0c,0xef,0x01,0x3f,0x7e,0x00,
 0x80,0x1f,0x00,0xfe,0x03,0xfc,0xe1,0xff,0xff,0xff,0xff,0x7f,
 0xc0,0xff,0xff,0xff,0xff,0xc0,0xff,0xff,0xff,0xff,0xff,0x0f,
 0xc0,0xff,0xff,0xef,0xff,0xff,0xff,0xff,0xff,0xff,0xff,0xdf,
 0xff,0xff,0xff,0x00,0x00,0x00,0x00,0x00,0x00,0x00,0x00,0x00,
 0x00,0x00,0x00,0x00,0x00,0x00,0x00,0x00,0x00,0xff,0xff,0xc7,
 0xff,0xff,0xff,0xff,0xff,0xff,0xff,0x0f,0xff,0xff,0xff,0x00,
 0x00,0x00,0x00,0x00,0x00,0x00,0x00,0x00,0x00,0x00,0x00,0x00,
 0x00,0x00,0x00,0x00,0x00,0xfc,0xff,0xc7,0xff,0xff,0xff,0xff,
 0xff,0xff,0xff,0x03,0xfe,0xf7,0xff,0x00,0x00,0x00,0x00,0x00,
 0x00,0x00,0x00,0x00,0x00,0x00,0x00,0x00,0x00,0x00,0x00,0x00,
 0x00,0x00,0x00,0x00,0x00,0x00,0x00,0x00,0x00,0x00,0x00,0x00,
 0xf0,0x00,0x00,0x00,0x00,0x00,0x00,0x00,0x00,0x00,0x00,0x00,
 0x00,0x00,0x00,0x00,0x00,0x00,0x00,0x00,0x00,0x00,0x00,0x00,
 0x00,0x00,0x00,0x00,0x00,0x00,0x00,0x00,0x00,0x00,0x00,0x00,
 0x00,0x00,0x00,0x00,0x00,0x00,0x00,0x00,0x00,0x00,0x00,0x00,
 0x00,0x00,0x00,0x00,0x00,0x00,0x00,0x00,0x00,0x00,0x00,0x00,
 0x00,0x00,0x00,0x00,0x00,0x00,0x00,0x00,0x00,0x00,0x00,0x00,
 0x00,0x00,0x00,0x00,0x00,0x00,0x00,0x00,0x00,0x00,0x00,0x00,
 0x00,0x00,0x00,0x00,0x00,0x00,0x00,0x00,0x00,0x00,0x00,0x00,
 0x00,0x00,0x00,0x00,0x00,0x00,0x00,0x00,0x00,0x00,0x00,0x00,
 0x00,0x00,0x00,0x00,0x00,0x00,0x00,0x00,0x00,0x00,0x00,0x00,
 0x00,0x00,0x00,0x00,0x00,0x00,0x00,0x00,0x00,0x00,0x00,0x00,
 0x00,0x00,0x00,0x00,0x00,0x00,0x00,0x00,0x00,0x00,0x00,0x00,
 0x00,0x00,0x00,0x00,0x00,0x00,0x00,0x00,0x00,0x00,0x00,0x00,
 0x00,0x00,0x00,0x00,0x00,0x00,0x00,0x00,0x00,0x00,0x00,0x00,
 0x00,0x00,0x00,0x00,0x00,0x00,0x00,0x00,0x00,0x00,0x00,0x00,
 0x00,0x00,0x00,0x00,0x00,0x00,0x00,0x00,0x00,0x00,0x00,0x00,
 0x00,0x00,0x00,0x00,0x00,0x00,0x00,0x00,0x00,0x00,0x00,0x00,
 0x00,0x00,0x00,0x00,0x00,0x00,0x00,0x00,0x00,0x00,0x00,0x00,
 0x00,0x00,0x00,0x00,0x00,0x00,0x00,0x00,0x00,0x00,0x00,0x00,
 0x00,0x00,0x00,0x00,0x00,0x00,0x00,0x00,0x00,0x00,0x00,0x00,
 0x00,0x00,0x00,0x00,0x00,0x00,0x00,0x00,0x00,0x00,0x00,0x00,
 0x00,0x00,0x00,0x00,0x00,0x00,0x00,0x00,0x00,0x00,0x00,0x00,
 0x00,0x00,0x00,0x00,0x00,0x00,0x00,0x00,0x00,0x00,0x00,0x00,
 0x00,0x00,0x00,0x00,0x00,0x00,0x00,0x00,0x00,0x00,0x00,0x00,
 0x00,0x00,0x00,0x00,0x00,0x00,0x00,0x00,0x00,0x00,0x00,0x00,
 0x00,0x00,0x00,0x00,0x00,0x00,0x00,0x00,0x00,0x00,0x00,0x00,
 0x00,0x00,0x00,0x00,0x00,0x00,0x00,0x00,0x00,0x00,0x00,0x00,
 0x00,0x00,0x00,0x00,0x00,0x00,0x00,0x00,0x00,0x00,0x00,0x00,
 0x00,0x00,0x00,0x00,0x00,0x00,0x00,0x00,0x00,0x00,0x00,0x00,
 0x00,0x00,0x00,0x00,0x00,0x00,0x00,0x00,0x00,0x00,0x00,0x00,
 0x00,0x00,0x00,0x00,0x00,0x00,0x00,0x00,0x00,0x00,0x00,0x00,
 0x00,0x00,0x00,0x00,0x00,0x00,0x00,0x00,0x00,0x00,0x00,0x00,
 0x00,0x00,0x00,0x00,0x00,0x00,0x00,0x00,0x00,0x00,0x00,0x00,
 0x00,0x00,0x00,0x00,0x00,0x00,0x00,0x00,0x00,0x00,0x00,0x00,
 0x00,0x00,0x00,0x00,0x00,0x00,0x00,0x00,0x00,0x00,0x00,0x00,
 0x00,0x00,0x00,0x00,0x00,0x00,0x00,0x00,0x00,0x00,0x00,0x00,
 0x00,0x00,0x00,0x00,0x00,0x00,0x00,0x00,0x00,0x00,0x00,0x00,
 0x00,0x00,0x00,0x00,0x00,0x00,0x00,0x00,0x00,0x00,0x00,0x00,
 0x00,0x00,0x00,0x00,0x00,0x00,0x00,0x00,0x00,0x00,0x00,0x00,
 0x00,0x00,0x00,0x00,0x00,0x00,0x00,0x00,0x00,0x00,0x00,0x00,
 0x00,0x00,0x00,0x00,0x00,0x00,0x00,0x00,0x00,0x00,0x00,0x00,
 0x00,0x00,0x00,0x00,0x00,0x00,0x00,0x00,0x00,0x00,0x00,0x00,
 0x00,0x00,0x00,0x00,0x00,0x00,0x00,0x00,0x00,0x00,0x00,0x00,
 0x00,0x00,0x00,0x00,0x00,0x00,0x00,0x00,0x00,0x00,0x00,0x00,
 0x00,0x00,0x00,0x00,0x00,0x00,0x00,0x00,0x00,0x00,0x00,0x00,
 0x00,0x00,0x00,0x00,0x00,0x00,0x00,0x00,0x00,0x00,0x00,0x00,
 0x00,0x00,0x00,0x00,0x00,0x00,0x00,0x00,0x00,0x00,0x00,0x00,
 0x00,0x00,0x00,0x00,0x00,0x00,0x00,0x00,0x00,0x00,0x00,0x00,
 0x00,0x00,0x00,0x00,0x00,0x00,0x00,0x00,0x00,0x00,0x00,0x00,
 0x00,0x00,0x00,0x00,0x00,0x00,0x00,0x00 };
