#define _width 256
#define _height 64
static unsigned char gunsmoke_bits[] = {
 0x00,0x00,0x00,0x00,0x00,0x00,0x00,0x00,0x00,0x00,0x00,0x00,
 0x00,0x00,0x00,0x00,0x00,0x00,0x00,0x00,0x00,0x00,0x00,0x00,
 0x00,0x00,0x00,0x00,0x00,0x00,0x00,0x00,0x00,0x00,0x00,0x00,
 0x00,0x00,0x00,0x00,0x00,0x00,0x00,0x00,0x00,0x00,0x00,0x00,
 0x00,0x00,0x00,0x00,0x00,0x00,0x00,0x00,0x00,0x00,0x00,0x00,
 0x00,0x00,0x00,0x00,0x00,0x00,0x00,0x00,0x00,0x00,0x00,0x00,
 0x00,0x00,0x00,0x00,0x00,0x00,0x00,0x00,0x00,0x00,0x00,0x00,
 0x00,0x00,0x00,0x00,0x00,0x00,0x00,0x00,0x00,0x00,0x00,0x00,
 0xfc,0xff,0xff,0xff,0xff,0xff,0xff,0xff,0xff,0xff,0xff,0xff,
 0xff,0xff,0xff,0xff,0xff,0xff,0xff,0xff,0xff,0xff,0xff,0xff,
 0xff,0xff,0xff,0xff,0xff,0xff,0xff,0x07,0x54,0x95,0x24,0x29,
 0x49,0x92,0x24,0x49,0x52,0x49,0x92,0x24,0xa9,0x52,0x49,0x92,
 0xaa,0xaa,0xaa,0xaa,0xaa,0xaa,0xaa,0xaa,0xaa,0xaa,0xaa,0xaa,
 0xaa,0xaa,0xaa,0x0a,0x0c,0x00,0x00,0x00,0x00,0x00,0x00,0x00,
 0x00,0x00,0x00,0x00,0x00,0x00,0x00,0x00,0x00,0x00,0x00,0x00,
 0x00,0x00,0x00,0x00,0x00,0x00,0x00,0x00,0x00,0x00,0x02,0x12,
 0x02,0x00,0x00,0x00,0x00,0x00,0x00,0x00,0x00,0x00,0x00,0x00,
 0x00,0x00,0x00,0x00,0x00,0x00,0x00,0x00,0x00,0x00,0x00,0x00,
 0xaa,0xaa,0x00,0xa8,0xaa,0xaa,0xa8,0x14,0x0a,0x00,0x00,0x00,
 0x00,0x00,0x00,0x00,0x00,0x00,0x00,0x00,0x00,0x00,0x00,0x00,
 0x00,0x00,0x00,0x00,0x00,0x00,0x00,0x00,0x00,0x80,0xaa,0x02,
 0x00,0x00,0x82,0x10,0x02,0x00,0x00,0xa0,0x2f,0x00,0x00,0x00,
 0x00,0x00,0x00,0x00,0x00,0xf8,0x03,0x00,0x00,0x00,0x00,0x00,
 0x00,0x00,0x00,0x00,0xa8,0x2a,0x00,0x48,0x55,0x55,0x29,0x25,
 0x0e,0x00,0x00,0x50,0xa8,0x00,0x00,0x00,0x00,0x00,0x00,0x00,
 0x00,0x02,0x16,0x00,0x00,0x00,0x00,0x00,0x00,0x00,0x00,0x00,
 0x00,0x80,0x12,0x09,0x00,0x00,0x21,0x10,0x04,0x00,0x00,0x54,
 0xab,0x00,0x00,0x00,0x00,0x00,0x00,0x00,0x00,0x6d,0x29,0x00,
 0x00,0x00,0x00,0x00,0x00,0x00,0x00,0x00,0xaa,0x2a,0x88,0xa0,
 0xaa,0x2a,0x44,0x15,0x1c,0x00,0x00,0x54,0x55,0x23,0x00,0x00,
 0x00,0x00,0x00,0x00,0x00,0x49,0x55,0x00,0x00,0x00,0x00,0x00,
 0x00,0x00,0x00,0x00,0x00,0x40,0x11,0x0a,0x00,0xa0,0x08,0x14,
 0x0c,0x00,0x00,0x55,0x55,0x51,0x00,0x00,0x00,0x00,0x00,0x00,
 0x40,0x55,0xa8,0x00,0x00,0x00,0x00,0x00,0x00,0x00,0x00,0x00,
 0x54,0x15,0x04,0xa0,0xaa,0x0a,0x51,0x09,0x38,0x00,0x80,0xaa,
 0xa0,0xe2,0x00,0x00,0x00,0x00,0x00,0x00,0x40,0x15,0xa0,0x00,
 0x00,0x00,0x00,0x00,0x00,0x00,0x00,0x00,0x00,0x00,0x00,0x00,
 0x00,0x20,0x02,0x0d,0x18,0x00,0x80,0x2a,0x84,0x72,0x00,0x00,
 0x00,0x00,0x00,0x00,0x40,0x95,0x47,0x09,0x00,0x00,0x00,0x00,
 0x00,0x00,0x00,0x00,0x50,0x01,0x00,0x50,0x55,0x95,0x28,0x03,
 0x70,0x00,0x80,0x2a,0x0e,0xe5,0x00,0x00,0x00,0x00,0x00,0x00,
 0xa0,0x8a,0x45,0x19,0x00,0x00,0x00,0x00,0x00,0x00,0x00,0x00,
 0x00,0x09,0x00,0x00,0x00,0x00,0x21,0x03,0x20,0x00,0x40,0x95,
 0x07,0x71,0x00,0x00,0x00,0x00,0x00,0x08,0x40,0xc5,0x82,0x08,
 0x00,0x00,0x00,0x00,0x00,0x00,0x00,0x00,0x50,0x04,0x00,0xa8,
 0xaa,0x2a,0xca,0x01,0xe0,0x00,0x40,0x95,0x07,0xe2,0x00,0x00,
 0x00,0x00,0x00,0x08,0xa0,0xca,0x80,0x19,0x00,0x00,0x00,0x00,
 0x00,0x00,0x00,0x00,0x80,0xa8,0xaa,0x00,0x00,0x40,0x88,0x01,
 0x40,0x01,0xa0,0xca,0x01,0x72,0x00,0x00,0x00,0x00,0x00,0x04,
 0x40,0xc5,0x00,0x09,0x00,0x00,0x00,0x00,0x00,0x00,0x00,0x00,
 0x00,0x00,0x00,0x00,0xa4,0x8a,0xf2,0x00,0x80,0x01,0xa0,0xca,
 0x03,0x60,0x00,0x00,0x00,0x00,0x00,0x28,0xa0,0x9a,0x01,0x19,
 0x00,0x00,0x00,0x00,0x00,0x00,0x00,0x00,0x00,0x01,0x00,0x00,
 0x04,0x10,0x60,0x00,0x80,0x02,0x50,0xe5,0x00,0x10,0x00,0x00,
 0x00,0x80,0x00,0x08,0x40,0x85,0x02,0x09,0x00,0x01,0x80,0x00,
 0x00,0x00,0x00,0x00,0x00,0x01,0x00,0x00,0xa8,0x42,0x79,0x00,
 0x80,0x02,0x50,0xe5,0x01,0x14,0xaa,0xa0,0x82,0x8a,0xa9,0x58,
 0x40,0x35,0x06,0x18,0x2a,0x87,0x8a,0x03,0x2c,0x0c,0x54,0x25,
 0x15,0xa3,0xaa,0xaa,0x04,0x14,0x71,0x00,0x80,0x01,0x50,0xe5,
 0x00,0x88,0xaa,0xa4,0x92,0x8a,0xa8,0x0c,0x80,0x4a,0x04,0x0a,
 0x95,0x63,0xc5,0x81,0x55,0x28,0xaa,0x32,0x95,0x51,0x55,0x55,
 0x56,0x41,0x3c,0x00,0x00,0x03,0x50,0xe5,0x00,0x00,0xaa,0xa4,
 0x12,0x15,0xa9,0x5c,0x80,0xaa,0x18,0x1e,0x2a,0x43,0xcd,0x83,
 0xaa,0x31,0xa8,0x32,0x95,0x53,0x05,0x40,0x04,0x8a,0x30,0x00,
 0x80,0x01,0xa8,0x72,0x00,0x00,0x2a,0x46,0x39,0x15,0x53,0x0e,
 0x00,0x55,0x09,0x00,0x2a,0x53,0xe1,0xa0,0x52,0x32,0x54,0x39,
 0xca,0x41,0x05,0x40,0x56,0x10,0x1d,0x00,0x00,0x03,0x50,0xe5,
 0x00,0x00,0x54,0x4e,0x39,0x2a,0x52,0x0e,0x00,0xaa,0x72,0x00,
 0x54,0xa2,0xe6,0x51,0x81,0xe2,0x54,0x39,0xc4,0x45,0xe5,0x1f,
 0x44,0x52,0x18,0x00,0x00,0x01,0xa8,0x72,0x00,0x00,0x2a,0x86,
 0x18,0x55,0x22,0x02,0x00,0xaa,0x82,0x00,0x55,0x52,0x61,0xa0,
 0x54,0x65,0xa8,0x98,0xf1,0xa0,0x62,0x15,0x06,0x81,0x1e,0x00,
 0x00,0x07,0x50,0xe5,0x00,0x40,0x6a,0x46,0x39,0x55,0x54,0x16,
 0x00,0x54,0x8d,0x00,0x55,0xa2,0xe6,0xa8,0x1c,0xc5,0x54,0x19,
 0x73,0x41,0x65,0x00,0x2e,0x2a,0x0e,0x00,0x00,0x01,0xa8,0x32,
 0xa8,0x4a,0x4a,0x46,0x19,0xaa,0x50,0x03,0x00,0xa8,0x92,0x00,
 0x55,0xa8,0xca,0x50,0x9e,0xca,0xa8,0x40,0x38,0xa0,0x22,0x81,
 0x02,0xc1,0x07,0x00,0x00,0x0e,0xa8,0xf2,0xa8,0x4a,0x54,0x46,
 0x39,0xaa,0x20,0x16,0x00,0xa8,0x2a,0x03,0xaa,0xa8,0xca,0x51,
 0x1e,0xca,0xa8,0xc1,0x78,0x44,0x65,0x01,0x2a,0x94,0x07,0x00,
 0x00,0x14,0x50,0x65,0x50,0x65,0x2a,0x86,0x18,0x55,0x51,0x03,
 0x00,0xa0,0x2a,0x85,0xaa,0xa8,0xca,0x14,0x1f,0xc5,0x54,0x50,
 0x1e,0x41,0x25,0x90,0x40,0xe9,0x01,0x00,0x00,0x38,0x50,0xe5,
 0x50,0x65,0x54,0x4e,0x39,0x55,0x21,0x16,0x00,0x40,0x55,0x06,
 0x55,0xa9,0xca,0x28,0x1f,0x8a,0xa8,0x21,0x2e,0x44,0x25,0x90,
 0x02,0xfa,0x03,0x00,0x00,0x20,0x50,0x75,0xa0,0x72,0x2a,0x46,
 0x19,0xaa,0x52,0x02,0x00,0x80,0x2a,0x84,0x52,0x95,0xca,0x14,
 0x0f,0x95,0x54,0x1a,0x07,0xa0,0x02,0x94,0xa9,0xfe,0x0a,0x00,
 0x00,0xc0,0xa0,0xe2,0xa0,0x62,0x54,0x46,0x39,0xaa,0x52,0x06,
 0x00,0x00,0xd5,0x8c,0x52,0x95,0x8a,0x28,0x1f,0x94,0xa8,0x2a,
 0x2b,0x44,0x55,0x95,0x01,0x80,0x2a,0x00,0x00,0x80,0x50,0xe5,
 0x50,0x75,0x2a,0x46,0x19,0x55,0x25,0x03,0x00,0x00,0x55,0x89,
 0x50,0x05,0xd5,0x14,0x0f,0x95,0x54,0x15,0x46,0x40,0x55,0x95,
 0x54,0x25,0x20,0x00,0x00,0xbe,0xa3,0xca,0xa1,0x62,0x6a,0x4e,
 0x39,0x52,0x55,0x06,0x00,0x01,0x54,0x99,0xa1,0x0a,0x8a,0x28,
 0x1f,0x94,0xa8,0x6a,0x4e,0x44,0x05,0x94,0x01,0x44,0x25,0x00,
 0x80,0xff,0xa1,0xca,0xa2,0x72,0x4a,0x86,0x18,0xa5,0x2a,0x02,
 0x80,0x00,0xaa,0x88,0x50,0x05,0x95,0x14,0x07,0x85,0x54,0x95,
 0x14,0xa0,0x02,0xa8,0x54,0x11,0x28,0x00,0x80,0x01,0xa0,0xca,
 0xa3,0x62,0x54,0x4e,0x39,0x45,0x55,0x06,0x20,0x03,0x54,0x19,
 0xa1,0x0a,0x95,0x28,0x1f,0x9a,0x54,0xa9,0xac,0x44,0xe5,0x83,
 0x01,0xa2,0x62,0x00,0x80,0x01,0x40,0x95,0xa1,0x72,0x2a,0x46,
 0x19,0x42,0x55,0x02,0x10,0x01,0xaa,0xca,0x50,0x25,0x95,0x14,
 0x0f,0xc5,0xa8,0xa8,0x18,0x40,0xe5,0x83,0x54,0x08,0x34,0x00,
 0x80,0x03,0x40,0x15,0xa7,0x62,0x54,0x46,0x39,0x45,0x55,0x06,
 0x60,0x06,0xaa,0x48,0x41,0x25,0x2a,0x29,0x1e,0x8a,0xa9,0x51,
 0x51,0x45,0x65,0xc4,0x41,0x51,0x31,0x00,0x80,0x05,0x80,0x2a,
 0xa2,0x72,0x2a,0x46,0x19,0x82,0x2a,0x02,0x10,0x0a,0xaa,0x42,
 0xa4,0x62,0x2a,0x29,0x0f,0xc5,0x54,0xa0,0x32,0xa0,0xa2,0x50,
 0x10,0x04,0x3a,0x00,0x00,0x0f,0x00,0x55,0xa0,0x62,0x54,0x40,
 0x39,0x05,0x55,0x06,0xa0,0x08,0x54,0xc9,0x44,0x65,0x2a,0x51,
 0x1e,0xc5,0xa8,0xa1,0x62,0x45,0xa5,0x02,0x20,0xa8,0x38,0x00,
 0x00,0x17,0x00,0x55,0xa9,0x72,0xaa,0x50,0x18,0x22,0x55,0x02,
 0x50,0x81,0x55,0x49,0xa4,0x72,0x2a,0x51,0x8c,0xe2,0x54,0x41,
 0x65,0xa0,0x62,0x40,0x19,0x00,0x1f,0x00,0x00,0x1c,0x00,0xaa,
 0xaa,0x62,0x54,0xab,0x38,0x26,0x55,0x52,0x52,0x15,0x55,0xa1,
 0x8c,0x72,0x2a,0xa3,0x08,0xc5,0x54,0x49,0xc5,0x40,0x65,0x40,
 0x39,0x10,0x1e,0x00,0x00,0x18,0x00,0x54,0x55,0xf1,0xa8,0x54,
 0x0c,0x21,0x2a,0xa8,0xa0,0x6a,0x55,0x44,0x4e,0x39,0x54,0xa2,
 0xa0,0xe2,0xa8,0x88,0xca,0xa0,0x22,0x50,0x0c,0xc8,0x07,0x00,
 0x00,0x70,0x00,0x54,0x55,0x71,0x50,0x55,0x1e,0x46,0x54,0xa8,
 0xa4,0xaa,0xaa,0x44,0x4c,0x71,0x54,0x46,0xa5,0xf0,0x54,0x19,
 0x15,0x43,0x25,0xa8,0x1c,0x80,0x03,0x00,0x00,0x20,0x00,0x50,
 0x55,0x38,0x50,0x15,0x8e,0x4a,0x2a,0xa8,0xa4,0xaa,0x2a,0xb0,
 0x88,0x38,0xaa,0x84,0xaa,0x78,0xaa,0x92,0x2a,0x52,0x05,0x55,
 0x8c,0xea,0x01,0x00,0x00,0xe0,0x00,0xa0,0x2a,0x3c,0x40,0x15,
 0x0f,0x95,0x68,0xa8,0x84,0xaa,0x2a,0xa2,0x99,0x39,0xaa,0x0c,
 0x55,0x78,0xaa,0x32,0x55,0xa2,0xaa,0xaa,0x1c,0xe0,0x01,0x00,
 0x00,0x40,0x01,0x00,0x09,0x0f,0x00,0xc0,0x83,0x88,0x00,0x52,
 0x06,0xa8,0x82,0x11,0x10,0x1c,0x44,0x18,0x08,0x1e,0x10,0x61,
 0x28,0x10,0x49,0x12,0x46,0xf5,0x00,0x00,0x00,0x80,0x01,0x00,
 0x80,0x0f,0x00,0xd0,0x03,0x80,0x01,0x02,0x06,0x00,0x40,0x01,
 0x18,0x38,0x00,0x18,0x00,0x2e,0x00,0x60,0x00,0x02,0x00,0x00,
 0x0e,0x74,0x00,0x00,0x00,0x80,0x03,0x00,0xf8,0x01,0x80,0x7e,
 0x80,0xea,0xa8,0x87,0x81,0x57,0x3f,0x50,0x9d,0x1e,0x6c,0x0f,
 0xe0,0x07,0x54,0xf5,0xa8,0xa2,0xaa,0xaa,0x66,0xf9,0x02,0x00,
 0x00,0x80,0x05,0x00,0xa4,0x00,0x00,0x24,0x80,0xaa,0x51,0x22,
 0x01,0x54,0x00,0x50,0x15,0x15,0xa8,0x14,0x80,0x00,0x54,0x55,
 0xa8,0xa6,0xaa,0xaa,0xc2,0xff,0x3f,0x00,0x00,0x00,0x07,0x00,
 0x00,0x00,0x00,0x00,0x00,0x00,0x00,0x00,0x00,0x00,0x00,0x00,
 0x00,0x00,0x00,0x00,0x00,0x00,0x00,0x00,0x00,0x00,0x00,0x00,
 0xe0,0xff,0x6a,0x00,0x00,0x00,0x06,0x00,0x00,0x00,0x00,0x00,
 0x00,0x00,0x00,0x00,0x00,0x00,0x00,0x00,0x00,0x00,0x00,0x00,
 0x00,0x00,0x00,0x00,0x00,0x00,0x00,0x00,0x40,0xff,0xd5,0x01,
 0x00,0x00,0x1c,0x00,0x00,0x00,0x00,0x00,0x00,0x00,0x00,0x00,
 0x00,0x00,0x00,0x00,0x00,0x00,0x00,0x00,0x00,0x00,0x00,0x00,
 0x00,0x00,0x00,0x00,0xa0,0xff,0xaa,0x01,0x00,0x00,0x08,0x00,
 0x00,0x00,0x00,0x00,0x00,0x00,0x00,0x00,0x00,0x00,0x00,0x00,
 0x00,0x00,0x00,0x00,0x00,0x00,0x00,0x00,0x00,0x00,0x00,0x00,
 0xa0,0xff,0xab,0x01,0x00,0x00,0x38,0x00,0x00,0x00,0x00,0x00,
 0x00,0x00,0x00,0x00,0x00,0x00,0x00,0x00,0x00,0x00,0x00,0x00,
 0x00,0x00,0x00,0x00,0x00,0x00,0x00,0x00,0xc0,0xff,0x6d,0x00,
 0x00,0x00,0x50,0x00,0x00,0x00,0x00,0x00,0x00,0x00,0x00,0x00,
 0x00,0x00,0x00,0x00,0x00,0x00,0x00,0x00,0x00,0x00,0x00,0x00,
 0x00,0x00,0x00,0x00,0xc0,0xff,0x2f,0x00,0x00,0x00,0x60,0x00,
 0x00,0x00,0x00,0x00,0x00,0x00,0x00,0x00,0x00,0x00,0x00,0x00,
 0x00,0x00,0x00,0x00,0x00,0x00,0x00,0x00,0x00,0x00,0x00,0x00,
 0xf0,0x03,0x00,0x00,0x00,0x00,0x30,0x55,0x55,0x55,0x55,0x55,
 0x55,0x55,0x55,0x55,0x55,0x55,0x55,0x55,0x5b,0x55,0x5b,0xb5,
 0xad,0xb6,0xad,0xb6,0x55,0x75,0xbb,0xdd,0xe7,0x03,0x00,0x00,
 0x00,0x00,0xc0,0xff,0xff,0xff,0xff,0xff,0xff,0xff,0xff,0xff,
 0xff,0xff,0xff,0xff,0xff,0xff,0xff,0xff,0xff,0xff,0xff,0xff,
 0xff,0xff,0xff,0xff,0xff,0x00,0x00,0x00,0x00,0x00,0x00,0xfd,
 0xff,0xff,0xff,0xff,0xff,0xff,0xff,0xff,0xff,0xff,0xff,0xff,
 0xff,0xff,0xff,0xff,0xff,0xff,0xff,0xff,0xff,0xff,0xff,0xff,
 0xff,0x00,0x00,0x00,0x00,0x00,0x00,0xa0,0xaa,0xaa,0xaa,0xaa,
 0xaa,0xaa,0xaa,0xaa,0xaa,0xaa,0xaa,0xaa,0xaa,0xaa,0xaa,0xaa,
 0xaa,0xaa,0xaa,0xaa,0xaa,0xaa,0xaa,0xaa,0x02,0x00,0x00,0x00,
 0x00,0x00,0x00,0x00,0x00,0x00,0x00,0x00,0x00,0x00,0x00,0x00,
 0x00,0x00,0x00,0x00,0x00,0x00,0x00,0x00,0x00,0x00,0x00,0x00,
 0x00,0x00,0x00,0x00,0x00,0x00,0x00,0x00 };
