#define 9fb44968101d4afecdff698b4ee81e63mujzP3fS5176NHI7_width 256
#define 9fb44968101d4afecdff698b4ee81e63mujzP3fS5176NHI7_height 64
static char 9fb44968101d4afecdff698b4ee81e63mujzP3fS5176NHI7_bits[] = {
  0x00, 0x00, 0x00, 0x00, 0x00, 0x00, 0x00, 0x00, 0x00, 0x00, 0x00, 0x00, 
  0x00, 0x00, 0x00, 0x00, 0x00, 0x00, 0x00, 0x00, 0x00, 0x00, 0x00, 0x00, 
  0x00, 0x00, 0x00, 0x00, 0x00, 0x00, 0x00, 0x00, 0x00, 0x00, 0x00, 0x00, 
  0x00, 0x00, 0x00, 0x00, 0x00, 0x00, 0x00, 0x00, 0x00, 0x00, 0x00, 0x00, 
  0x00, 0x00, 0xA0, 0x01, 0xFE, 0x0F, 0xE0, 0x1F, 0x00, 0xFF, 0x83, 0xFF, 
  0x1F, 0x00, 0x00, 0x00, 0x00, 0x00, 0x00, 0x00, 0x00, 0x00, 0x00, 0x00, 
  0x00, 0x00, 0x00, 0x00, 0x00, 0x00, 0x00, 0x00, 0x00, 0x00, 0xF8, 0x07, 
  0xFF, 0x3F, 0xE0, 0x3F, 0x80, 0xFF, 0xC3, 0xFF, 0x1F, 0x00, 0x00, 0x00, 
  0x00, 0x00, 0x00, 0x00, 0x00, 0x00, 0x00, 0x00, 0x00, 0x00, 0x00, 0x00, 
  0x00, 0x00, 0x00, 0x00, 0x00, 0x00, 0xFC, 0x0F, 0xFE, 0x7F, 0xE0, 0x3F, 
  0xC0, 0xFF, 0xC7, 0xFF, 0x1F, 0x00, 0x00, 0x00, 0x00, 0x00, 0x00, 0x00, 
  0x00, 0x00, 0x00, 0x00, 0x00, 0x00, 0x00, 0x00, 0x00, 0x00, 0x00, 0x00, 
  0x00, 0x00, 0xFC, 0x3F, 0xFE, 0xFF, 0xF0, 0x3F, 0xE0, 0xFF, 0xCF, 0xFF, 
  0x1F, 0x00, 0x00, 0x00, 0x00, 0x00, 0x00, 0x00, 0x00, 0x00, 0x00, 0x00, 
  0x00, 0x00, 0x00, 0x00, 0x00, 0x00, 0x00, 0x00, 0x00, 0x00, 0xFE, 0xFF, 
  0xFF, 0xFF, 0xF1, 0x3F, 0xF0, 0xFF, 0xDF, 0xFF, 0xFF, 0x00, 0x00, 0x00, 
  0x00, 0x00, 0x00, 0x00, 0x00, 0x00, 0x00, 0x00, 0x00, 0x00, 0x00, 0x18, 
  0x18, 0x00, 0x00, 0x00, 0x00, 0x00, 0xBF, 0xFF, 0xFF, 0xFB, 0xF0, 0x7F, 
  0xF8, 0xFF, 0xDF, 0xBF, 0x6B, 0x00, 0x00, 0x00, 0x00, 0x00, 0x00, 0x00, 
  0x00, 0x01, 0x10, 0x00, 0x80, 0x04, 0x00, 0x18, 0x0C, 0x00, 0x00, 0x00, 
  0x00, 0x80, 0xFB, 0xFF, 0xB5, 0xFF, 0xD1, 0x75, 0xF8, 0xD7, 0xFB, 0xFB, 
  0x7F, 0x00, 0x00, 0x00, 0x00, 0x80, 0x01, 0x0C, 0x00, 0x03, 0x30, 0x00, 
  0xF0, 0x0F, 0x00, 0x60, 0x06, 0x00, 0x00, 0x00, 0x00, 0x80, 0xFF, 0xFF, 
  0xFF, 0xBF, 0xF9, 0x7F, 0xF8, 0xFE, 0xFF, 0xFF, 0x7F, 0x03, 0x00, 0x00, 
  0x00, 0x80, 0x03, 0x06, 0x30, 0x0E, 0x0C, 0x01, 0xFC, 0x7F, 0x00, 0x70, 
  0x07, 0x00, 0x00, 0x00, 0x00, 0xC0, 0xFF, 0xFF, 0xFB, 0xFE, 0xF9, 0x7D, 
  0xF8, 0xDF, 0xFF, 0xBF, 0xEA, 0x03, 0x00, 0x00, 0x00, 0x00, 0x06, 0x03, 
  0x30, 0x0C, 0x8E, 0x03, 0xFE, 0x7F, 0x00, 0xF8, 0x1F, 0x00, 0x00, 0x00, 
  0x00, 0x20, 0x00, 0x7E, 0x00, 0xE0, 0x09, 0x40, 0xF8, 0x03, 0xF0, 0x03, 
  0x00, 0x03, 0x00, 0x00, 0x00, 0x80, 0xFF, 0x0F, 0x30, 0xFF, 0x9F, 0x01, 
  0xDF, 0xF7, 0x01, 0xFE, 0x1F, 0x00, 0x00, 0x00, 0x00, 0xB0, 0x00, 0xF8, 
  0x02, 0xE0, 0x8B, 0xC0, 0xF8, 0x00, 0xE0, 0x43, 0x00, 0x01, 0x00, 0x00, 
  0x00, 0x80, 0xFF, 0x2F, 0x70, 0xFF, 0xBF, 0x01, 0xDF, 0xF3, 0x01, 0xDE, 
  0x79, 0x00, 0x00, 0x00, 0x00, 0x10, 0x00, 0xD8, 0x00, 0xC0, 0x0F, 0x48, 
  0x78, 0x00, 0x64, 0x03, 0x90, 0x01, 0x00, 0x00, 0x00, 0xE0, 0xF9, 0x3C, 
  0xF0, 0xF3, 0xF3, 0x81, 0xFF, 0xFF, 0x81, 0xFF, 0xFF, 0x00, 0x00, 0x00, 
  0x00, 0x10, 0x00, 0xF0, 0x00, 0x88, 0x09, 0xC0, 0x38, 0x02, 0xE0, 0x03, 
  0x80, 0x01, 0x00, 0x00, 0x00, 0xF8, 0xFF, 0x7F, 0xF0, 0xFF, 0xFF, 0x01, 
  0xFF, 0xFF, 0x81, 0xFF, 0xFF, 0x01, 0x00, 0x00, 0x00, 0x18, 0x68, 0xF0, 
  0x80, 0x82, 0x0F, 0xC0, 0x7C, 0xE0, 0xE0, 0x83, 0xFF, 0x00, 0x00, 0x00, 
  0x00, 0xF8, 0xFF, 0xFF, 0xC0, 0xFF, 0x7F, 0x80, 0xFF, 0xFF, 0xC1, 0xFD, 
  0xDF, 0x01, 0x00, 0x00, 0x00, 0x10, 0x78, 0xE0, 0xC9, 0x03, 0x0B, 0x81, 
  0x3C, 0xF0, 0xE0, 0x81, 0x03, 0x00, 0x00, 0x00, 0x00, 0x98, 0xFF, 0xEF, 
  0x80, 0xFF, 0x3F, 0x00, 0xFD, 0xFE, 0xC0, 0xF9, 0x9F, 0x01, 0x00, 0x00, 
  0x00, 0x30, 0x78, 0xE0, 0xC1, 0x83, 0x07, 0xC3, 0x3C, 0x90, 0xE0, 0x81, 
  0x03, 0x00, 0x00, 0x00, 0x00, 0x98, 0xFF, 0xCF, 0x00, 0xFF, 0x1F, 0x00, 
  0x3C, 0x3C, 0x80, 0xFD, 0xDF, 0x01, 0x00, 0x00, 0x00, 0x20, 0x70, 0xE0, 
  0xC1, 0x13, 0x0F, 0x83, 0x3C, 0xD8, 0xF0, 0xC1, 0x01, 0x00, 0x00, 0x00, 
  0x00, 0x98, 0x01, 0xCC, 0x00, 0x0B, 0x38, 0x00, 0xDE, 0xF3, 0x80, 0xFD, 
  0x9F, 0x00, 0x00, 0x00, 0x00, 0x20, 0xF0, 0xFA, 0x81, 0x03, 0x2F, 0x82, 
  0x3C, 0xD8, 0xF4, 0xC0, 0x07, 0x00, 0x00, 0x00, 0x00, 0x90, 0x85, 0x4D, 
  0x00, 0x03, 0x38, 0x00, 0xDF, 0xF7, 0x00, 0x60, 0x07, 0x00, 0x00, 0x00, 
  0x00, 0x20, 0xF2, 0xFF, 0x91, 0x83, 0x05, 0x87, 0x3C, 0x50, 0xFF, 0xD1, 
  0x0E, 0x00, 0x00, 0x00, 0x00, 0x00, 0xDE, 0x03, 0xC0, 0x03, 0x78, 0x80, 
  0x07, 0xC0, 0x03, 0x70, 0x07, 0x00, 0x00, 0x00, 0x00, 0x60, 0xF0, 0xFF, 
  0x83, 0x03, 0x45, 0xC7, 0x1D, 0x78, 0xFC, 0x20, 0x0C, 0x00, 0x00, 0x00, 
  0x00, 0x00, 0x02, 0x00, 0xC0, 0x03, 0x70, 0x80, 0x03, 0xC0, 0x03, 0x7C, 
  0x1E, 0x00, 0x00, 0x00, 0x00, 0x40, 0xE4, 0xDF, 0x83, 0x07, 0x0F, 0x83, 
  0x3C, 0xF9, 0x7D, 0x00, 0x04, 0x00, 0x00, 0x00, 0x00, 0x00, 0x00, 0x00, 
  0x00, 0x00, 0x00, 0x00, 0x00, 0x00, 0x00, 0x18, 0x06, 0x00, 0x00, 0x00, 
  0x00, 0x40, 0xA0, 0xFE, 0xA3, 0x07, 0x07, 0x87, 0x1D, 0xF8, 0xFF, 0x02, 
  0x04, 0x00, 0x00, 0x00, 0x00, 0x00, 0x00, 0x00, 0x00, 0x00, 0x00, 0x00, 
  0x00, 0x00, 0x00, 0x00, 0x00, 0x00, 0x00, 0x00, 0x00, 0x80, 0x01, 0xE0, 
  0x83, 0x83, 0x07, 0x07, 0x3D, 0xF8, 0x7F, 0x00, 0x06, 0x00, 0x00, 0x00, 
  0x00, 0x00, 0x00, 0x00, 0x00, 0x00, 0x00, 0x00, 0x00, 0x00, 0x00, 0x00, 
  0x00, 0x00, 0x00, 0x00, 0x00, 0x00, 0x03, 0xE0, 0x03, 0x80, 0x05, 0x87, 
  0x1D, 0xFC, 0x7F, 0x30, 0x03, 0x00, 0x00, 0x00, 0x00, 0x00, 0x00, 0x00, 
  0x00, 0x00, 0x00, 0x00, 0x00, 0x00, 0x00, 0xC0, 0x01, 0x00, 0x00, 0x00, 
  0x00, 0x00, 0x0C, 0xC0, 0x03, 0xC2, 0x86, 0x87, 0x99, 0xFC, 0x7F, 0xF0, 
  0x01, 0x00, 0x00, 0x00, 0x00, 0x00, 0x98, 0x00, 0x00, 0x00, 0x00, 0x00, 
  0x40, 0x04, 0x00, 0xE0, 0x01, 0x00, 0x00, 0x00, 0x00, 0x00, 0xF8, 0x81, 
  0x07, 0x40, 0x02, 0x27, 0x19, 0x3C, 0x78, 0xF0, 0x00, 0x00, 0x00, 0x00, 
  0x00, 0x00, 0xFC, 0x00, 0x00, 0x20, 0x01, 0x00, 0x60, 0x06, 0x00, 0xF8, 
  0x07, 0x00, 0x00, 0x00, 0x00, 0x00, 0x40, 0x83, 0x17, 0x60, 0x06, 0x00, 
  0x1D, 0x3C, 0x3C, 0xD8, 0x00, 0x00, 0x00, 0x00, 0x00, 0x00, 0xFE, 0x02, 
  0x00, 0x30, 0x03, 0x00, 0xF0, 0x0E, 0x00, 0xF8, 0x07, 0x00, 0x00, 0x00, 
  0x00, 0x00, 0x4A, 0x82, 0x07, 0x3F, 0x02, 0x10, 0x19, 0x3C, 0x3C, 0xB8, 
  0x00, 0x00, 0x00, 0x00, 0x00, 0x00, 0xFF, 0x03, 0x40, 0xFC, 0x4F, 0x00, 
  0xF8, 0x1F, 0x00, 0xFE, 0x1F, 0x00, 0x00, 0x00, 0x00, 0x00, 0xFE, 0x86, 
  0x07, 0x0F, 0x16, 0x00, 0x11, 0x1C, 0x3C, 0xF8, 0x00, 0x00, 0x00, 0x00, 
  0x00, 0xC0, 0x7D, 0x0D, 0xE0, 0xFE, 0xCF, 0x00, 0xFE, 0x7F, 0x00, 0xFE, 
  0x3F, 0x00, 0x00, 0x00, 0x00, 0x00, 0x82, 0x87, 0x07, 0x07, 0x86, 0x07, 
  0x19, 0x9C, 0x3C, 0xFD, 0x03, 0x00, 0x00, 0x00, 0x00, 0xC0, 0x30, 0x0C, 
  0xE0, 0xEF, 0xFE, 0x00, 0xFE, 0x7F, 0x80, 0xE7, 0x7B, 0x00, 0x00, 0x00, 
  0x00, 0x00, 0x04, 0x07, 0x2F, 0x03, 0x82, 0x0D, 0x1B, 0x06, 0x1F, 0xA0, 
  0x03, 0x00, 0x00, 0x00, 0x00, 0xE0, 0xFF, 0x0F, 0xE0, 0xCF, 0xFC, 0x80, 
  0xAF, 0xE7, 0x81, 0xEF, 0x7B, 0x00, 0x00, 0x00, 0x00, 0x00, 0x04, 0x80, 
  0x09, 0x03, 0x92, 0x44, 0x33, 0x00, 0x1F, 0x00, 0x02, 0x00, 0x15, 0x00, 
  0x00, 0xC0, 0xFF, 0x0F, 0x80, 0xFF, 0x7F, 0x80, 0x87, 0xE1, 0x03, 0xFF, 
  0x7F, 0x00, 0x00, 0x7E, 0x7C, 0xF8, 0x0F, 0xC0, 0x0F, 0xFE, 0x83, 0x0F, 
  0x26, 0xC0, 0x1F, 0x00, 0x1F, 0xC0, 0xFF, 0x00, 0x00, 0x40, 0xFF, 0x07, 
  0x80, 0xFF, 0x3F, 0x80, 0xFF, 0xFF, 0x01, 0xFD, 0x7F, 0x00, 0x00, 0xFE, 
  0xFC, 0xF8, 0x33, 0xE0, 0x0F, 0xFF, 0x83, 0x0E, 0x7F, 0xCA, 0x9F, 0xAA, 
  0x1F, 0xF0, 0xFF, 0x01, 0x00, 0x00, 0xFF, 0x03, 0x00, 0xBB, 0x33, 0x80, 
  0xFF, 0xFF, 0x03, 0x18, 0x06, 0x00, 0x00, 0xFC, 0xFC, 0xF1, 0xF3, 0xFF, 
  0xFF, 0xFF, 0xFF, 0xFE, 0xDF, 0xFF, 0xFF, 0xFF, 0x3F, 0xF8, 0xFF, 0x01, 
  0x00, 0xC0, 0xEE, 0x0D, 0x00, 0x33, 0x33, 0x80, 0xFF, 0xFF, 0x03, 0xEC, 
  0x1B, 0x00, 0x00, 0xFC, 0xF9, 0xF3, 0xE7, 0xF7, 0xBF, 0xFF, 0x17, 0xFF, 
  0x7F, 0xFF, 0xFF, 0xFF, 0xFF, 0xFC, 0xFF, 0x03, 0x00, 0xC0, 0xCC, 0x0C, 
  0xE0, 0x01, 0xF0, 0x80, 0xFF, 0xFF, 0x01, 0xE6, 0x19, 0x00, 0xE0, 0xFF, 
  0xFF, 0xFF, 0xFF, 0xFF, 0x1F, 0xFF, 0x07, 0xFF, 0x7F, 0xFF, 0xEF, 0xFD, 
  0xFF, 0xFC, 0xBF, 0x07, 0x00, 0x30, 0x00, 0x30, 0xE0, 0x03, 0xF0, 0xC0, 
  0xBD, 0xBB, 0x03, 0x1B, 0x66, 0x00, 0xE0, 0xFF, 0xFF, 0xF7, 0xFF, 0x6F, 
  0x3B, 0xFB, 0x0F, 0xB7, 0x3E, 0xEF, 0xBD, 0xDF, 0xBD, 0xFF, 0xDB, 0x0F, 
  0x00, 0x30, 0x00, 0x30, 0x00, 0x00, 0x00, 0x80, 0x99, 0x99, 0x81, 0x19, 
  0x66, 0x00, 0xC0, 0xF6, 0xF7, 0xEF, 0xB7, 0xFF, 0x3F, 0xDF, 0x87, 0xFF, 
  0xFF, 0xFF, 0xFF, 0xFF, 0xF7, 0x7F, 0xFF, 0x1F, 0x00, 0x00, 0x00, 0x00, 
  0x00, 0x00, 0x00, 0x00, 0x00, 0x00, 0x00, 0x00, 0x00, 0x00, 0xFE, 0xFF, 
  0xFF, 0xFF, 0xFF, 0xFF, 0xFF, 0xFF, 0x8F, 0xFF, 0xFF, 0xFF, 0xFF, 0xFF, 
  0xFF, 0xDF, 0xFF, 0x3F, 0x00, 0x00, 0x00, 0x00, 0x00, 0x00, 0x00, 0x00, 
  0x00, 0x00, 0x00, 0x00, 0x00, 0x00, 0x46, 0x7E, 0x7C, 0xF5, 0xE8, 0x2F, 
  0xFE, 0x20, 0x8F, 0x00, 0xF0, 0x0F, 0x00, 0x3C, 0x00, 0xFC, 0x07, 0x60, 
  0x00, 0x00, 0x00, 0x00, 0x00, 0x00, 0x00, 0x00, 0x00, 0x00, 0x00, 0x00, 
  0x00, 0x00, 0x0C, 0x3E, 0x7C, 0xE0, 0xC1, 0x0F, 0x7E, 0x00, 0x8F, 0x01, 
  0xC8, 0x87, 0x20, 0x1C, 0x00, 0xF8, 0x01, 0x40, 0x00, 0x00, 0x00, 0x00, 
  0x00, 0x00, 0x00, 0x00, 0x00, 0x00, 0x00, 0x00, 0x00, 0x00, 0x08, 0x3C, 
  0x70, 0xE0, 0xC1, 0x0D, 0x7C, 0x20, 0x9E, 0x04, 0xC0, 0x0F, 0x00, 0x1E, 
  0x80, 0xF0, 0x04, 0xC0, 0x00, 0x00, 0x00, 0x00, 0x00, 0x00, 0x00, 0x00, 
  0x00, 0x00, 0x00, 0x00, 0x00, 0x00, 0x18, 0x7C, 0xF0, 0xC0, 0x83, 0x0F, 
  0xFC, 0x08, 0x9E, 0xE0, 0xC1, 0x07, 0xFC, 0x1F, 0x2C, 0xF9, 0xE0, 0xC0, 
  0x00, 0x00, 0x00, 0x00, 0x00, 0x00, 0x00, 0x00, 0x00, 0x00, 0x00, 0x00, 
  0x00, 0x00, 0x30, 0xF8, 0xE2, 0xC0, 0x83, 0x8F, 0x7C, 0x00, 0x9E, 0xA4, 
  0xC0, 0x87, 0x86, 0x0F, 0x1E, 0x78, 0xF8, 0x22, 0x00, 0x00, 0x00, 0x00, 
  0x00, 0x00, 0x00, 0x06, 0x00, 0x00, 0x00, 0x00, 0x00, 0x00, 0x60, 0xB0, 
  0xC1, 0x85, 0x07, 0x0F, 0x7C, 0x80, 0x9E, 0xB0, 0xC5, 0x07, 0x9E, 0x0F, 
  0x1C, 0x3C, 0xD8, 0x30, 0x00, 0x00, 0x00, 0x00, 0x00, 0x00, 0x00, 0x02, 
  0x00, 0x00, 0x00, 0x00, 0x00, 0x00, 0x40, 0xE2, 0x81, 0x81, 0x0F, 0x1E, 
  0xFC, 0x00, 0xBC, 0x90, 0xC0, 0x07, 0xFE, 0x0F, 0x1E, 0x3C, 0x68, 0x10, 
  0x00, 0x00, 0x00, 0x00, 0x00, 0x00, 0x00, 0x06, 0x00, 0x00, 0x00, 0x00, 
  0x00, 0x00, 0xC0, 0xE0, 0x23, 0x81, 0x0F, 0x1E, 0x7C, 0x54, 0xBC, 0x91, 
  0xC0, 0x07, 0xFE, 0x07, 0x0F, 0x3E, 0xE4, 0x0E, 0x00, 0x00, 0x00, 0x00, 
  0x00, 0x00, 0x00, 0x00, 0x00, 0x00, 0x00, 0x00, 0x00, 0x00, 0x80, 0xE0, 
  0x03, 0x02, 0x0F, 0x1E, 0xFC, 0x10, 0xBC, 0xF0, 0xC8, 0x03, 0xFF, 0x47, 
  0x2F, 0x1E, 0x76, 0x06, 0x00, 0x00, 0x00, 0x00, 0x00, 0x00, 0x00, 0x00, 
  0x00, 0x00, 0x00, 0x00, 0x00, 0x00, 0x00, 0x81, 0x07, 0x10, 0x1F, 0x1C, 
  0x7D, 0x10, 0xBC, 0xF0, 0xE0, 0x03, 0xE2, 0x03, 0x07, 0x0B, 0x1E, 0x00, 
  0x00, 0x00, 0x00, 0x00, 0x00, 0x00, 0x00, 0x00, 0x00, 0x00, 0x00, 0x00, 
  0x00, 0x00, 0x00, 0x87, 0x07, 0x02, 0x3E, 0x18, 0xF8, 0x30, 0xBC, 0xF1, 
  0xE0, 0x43, 0xE0, 0x83, 0xC6, 0x0D, 0x64, 0x00, 0x00, 0x00, 0x00, 0x00, 
  0x00, 0x00, 0x00, 0x00, 0x00, 0x00, 0x00, 0x00, 0x00, 0x00, 0x00, 0x86, 
  0x1F, 0x10, 0x3E, 0x18, 0xFC, 0x30, 0xF8, 0xF0, 0xE0, 0x83, 0xF2, 0x03, 
  0xF0, 0x0B, 0x40, 0x00, 0x00, 0x00, 0x00, 0x00, 0x00, 0x00, 0x00, 0x06, 
  0x00, 0x00, 0x00, 0x00, 0x00, 0x00, 0x00, 0x04, 0x1E, 0x02, 0x7C, 0x11, 
  0x78, 0x78, 0xF8, 0xF1, 0xE0, 0x83, 0xFF, 0x01, 0xE0, 0x1F, 0xC0, 0x00, 
  0x00, 0x00, 0x00, 0x00, 0x00, 0x00, 0x00, 0x0F, 0x00, 0x00, 0x00, 0x00, 
  0x00, 0x00, 0x00, 0x08, 0x3E, 0x00, 0xFC, 0x10, 0xF8, 0x78, 0xB8, 0xD0, 
  0xE0, 0x81, 0xE7, 0xC1, 0xC1, 0xBF, 0x83, 0x00, 0x00, 0x00, 0x00, 0x00, 
  0x00, 0x00, 0x00, 0x0F, 0x00, 0x00, 0x00, 0x00, 0x00, 0x00, 0x00, 0x18, 
  0x3C, 0x10, 0xEC, 0x00, 0x58, 0x70, 0xB8, 0xF0, 0xA1, 0x81, 0xEF, 0xE1, 
  0xC3, 0xFF, 0x61, 0x00, 0x00, 0x00, 0x00, 0x00, 0x00, 0x00, 0x80, 0x0F, 
  0x00, 0x00, 0x00, 0x00, 0x00, 0x00, 0x00, 0x30, 0x7C, 0x10, 0xF8, 0x81, 
  0x79, 0x28, 0xF2, 0x70, 0xA0, 0xA1, 0xE5, 0xE2, 0xE1, 0xFF, 0x61, 0x00, 
  0x00, 0x00, 0x00, 0x00, 0x00, 0x00, 0xFC, 0xFF, 0x03, 0x00, 0x00, 0x00, 
  0x00, 0x00, 0x00, 0x20, 0x78, 0x70, 0xF8, 0x01, 0x78, 0x00, 0xF0, 0x50, 
  0xE0, 0xC1, 0xE7, 0xF0, 0xF0, 0xF0, 0x20, 0x00, 0x00, 0x00, 0x00, 0x00, 
  0x00, 0x00, 0xFC, 0xFF, 0x07, 0x00, 0x00, 0x00, 0x00, 0x00, 0x00, 0x40, 
  0xF0, 0xE2, 0x10, 0x03, 0x88, 0x20, 0x92, 0x71, 0xB2, 0xC1, 0x45, 0xD0, 
  0xD0, 0xF0, 0x10, 0x00, 0x00, 0x00, 0x00, 0x00, 0x00, 0x00, 0xFE, 0xFF, 
  0x07, 0x00, 0x00, 0x00, 0x00, 0x00, 0x00, 0xC0, 0xA0, 0xE0, 0x31, 0x46, 
  0xC8, 0xF0, 0xB0, 0x00, 0x98, 0x40, 0x5D, 0x50, 0x58, 0x00, 0x0C, 0x00, 
  0x00, 0x00, 0x00, 0x00, 0x00, 0x00, 0xFF, 0xFF, 0x07, 0x00, 0x00, 0x00, 
  0x00, 0x00, 0x00, 0x80, 0x61, 0x61, 0x23, 0x04, 0x48, 0x90, 0xA0, 0x00, 
  0x8C, 0x00, 0x48, 0x68, 0x8C, 0x00, 0x06, 0x00, 0x00, 0x00, 0x00, 0x00, 
  0x00, 0x00, 0xFE, 0xFF, 0x07, 0x00, 0x00, 0x00, 0x00, 0x00, 0x00, 0x00, 
  0x61, 0x43, 0x36, 0x0C, 0x8B, 0x96, 0xB7, 0x67, 0x83, 0xBD, 0xEF, 0x6F, 
  0x87, 0xFF, 0x03, 0x00, 0x00, 0x00, 0x00, 0x00, 0x00, 0x00, 0xFE, 0xFF, 
  0x07, 0x00, 0x00, 0x00, 0x00, 0x00, 0x00, 0x00, 0x7F, 0x7E, 0x3C, 0xF8, 
  0xCF, 0x1F, 0x3B, 0xFB, 0x01, 0xD5, 0xA5, 0xA2, 0x00, 0x69, 0x00, 0x00, 
  0x00, 0x00, 0x00, 0x00, 0x00, 0x00, 0x00, 0x00, 0x00, 0x00, 0x00, 0x00, 
  0x00, 0x00, 0x00, 0x00, 0x00, 0x00, 0x00, 0x00, 0x00, 0x00, 0x00, 0x00, 
  0x00, 0x00, 0x00, 0x00, 0x00, 0x00, 0x00, 0x00, };
