#define _width 256
#define _height 64
static char _bits[] = {
 0x00,0x00,0x00,0x00,0x00,0x00,0x00,0x00,0x00,0x00,0x00,0x00,
 0x00,0x00,0x00,0x00,0x00,0x00,0x00,0x00,0x00,0x00,0x00,0x00,
 0x00,0x00,0x00,0x00,0x00,0x00,0x00,0x00,0x00,0x00,0x00,0x00,
 0x00,0x00,0x00,0x00,0x00,0x00,0x00,0x00,0x00,0x00,0x00,0x00,
 0x00,0x00,0x00,0x00,0x00,0x00,0x00,0x00,0x00,0x00,0x00,0x00,
 0x00,0x00,0x00,0x00,0x00,0x00,0x00,0x00,0x00,0x00,0x00,0x00,
 0x00,0x00,0x00,0x00,0x00,0x00,0x00,0x00,0x00,0x00,0x00,0x00,
 0x00,0x00,0x00,0x00,0x00,0x00,0x00,0x00,0x00,0x00,0x00,0x00,
 0x00,0x00,0x00,0x00,0x00,0x00,0x00,0x00,0x00,0x00,0x00,0x00,
 0x00,0x00,0x00,0x00,0x00,0x00,0x00,0x00,0x00,0x00,0x00,0x00,
 0x00,0x00,0x00,0x00,0x00,0x00,0x00,0x00,0x00,0x00,0x00,0x00,
 0x00,0x00,0x00,0x00,0x00,0x00,0x00,0xff,0x1f,0xc0,0xff,0x0f,
 0xf0,0xff,0x03,0xe0,0x03,0x00,0x00,0x00,0x00,0x00,0x00,0x00,
 0x00,0x00,0x00,0x00,0x00,0x00,0x00,0x00,0x00,0x00,0x00,0x00,
 0x00,0x00,0xe0,0xff,0x1f,0xf8,0xff,0x0f,0xfe,0xff,0x03,0xf8,
 0x0f,0x00,0x00,0x00,0x00,0x00,0x00,0x00,0x00,0x00,0x00,0x00,
 0x00,0x00,0x00,0x00,0x00,0x00,0x00,0x00,0x00,0x00,0xf8,0xff,
 0x1f,0xfc,0xff,0x0f,0xff,0xff,0x03,0xfc,0x1f,0x00,0x00,0x00,
 0x00,0x00,0x00,0x00,0x00,0x00,0x00,0x00,0x00,0x00,0x00,0x00,
 0x00,0x00,0x00,0x00,0x00,0x00,0xfc,0xff,0x1f,0xfe,0xff,0x8f,
 0xff,0xff,0x03,0x3c,0x1e,0x00,0x00,0x00,0x00,0x00,0x00,0x00,
 0x00,0x00,0x00,0x00,0x00,0x00,0x00,0x00,0x00,0x00,0x00,0x00,
 0x00,0x00,0x3c,0x00,0x00,0x1f,0x00,0x80,0x07,0x00,0x00,0x9c,
 0x1c,0x00,0x00,0x00,0x00,0x00,0x00,0x00,0x00,0x00,0x00,0x00,
 0x00,0x00,0x00,0x00,0x00,0x00,0x00,0x00,0x00,0x00,0x1e,0xff,
 0x1f,0xcf,0xff,0xcf,0xf3,0xff,0x03,0xde,0x3d,0x00,0x00,0x00,
 0x00,0x00,0x00,0x00,0x00,0x00,0x00,0x00,0x00,0x00,0x00,0x00,
 0x00,0x00,0x00,0x00,0x00,0x00,0xde,0xff,0x1f,0xe7,0xff,0xcf,
 0xfb,0xff,0x03,0xce,0x3d,0x00,0x00,0x00,0x00,0x00,0x00,0x00,
 0x00,0x00,0x00,0x00,0x00,0x00,0x00,0x00,0x00,0x00,0x00,0x00,
 0x00,0x00,0xce,0xff,0x1f,0xe7,0xff,0xcf,0xf9,0xff,0x03,0xce,
 0x39,0x00,0x00,0x00,0x00,0x00,0x00,0x00,0x00,0x00,0x00,0x00,
 0x00,0x00,0x00,0x00,0x00,0x00,0x00,0x00,0x00,0x00,0xee,0x01,
 0x00,0xe7,0x00,0xc0,0x79,0x00,0x00,0xef,0x7b,0x00,0x00,0x00,
 0x00,0x00,0x00,0x00,0x00,0x00,0x00,0x00,0x00,0x00,0x00,0x00,
 0x00,0x00,0x00,0x00,0x00,0x00,0xee,0x01,0x00,0xe7,0x00,0xc0,
 0x39,0x00,0x00,0xe7,0x73,0x00,0x00,0x00,0x00,0x00,0x00,0x00,
 0x00,0x00,0x00,0x00,0x00,0x00,0x00,0x00,0x00,0x00,0x00,0x00,
 0x00,0x00,0xce,0xff,0x00,0xe7,0xff,0xc1,0x39,0xff,0x03,0xe7,
 0x73,0x00,0x00,0x00,0x00,0x00,0x00,0x00,0x00,0x00,0x00,0x00,
 0x00,0x00,0x00,0x00,0x00,0x00,0x00,0x00,0x00,0x00,0xce,0xff,
 0x03,0xe7,0xff,0xc1,0x39,0xff,0x83,0xf7,0xf7,0x00,0x00,0x00,
 0x00,0x00,0x00,0x00,0x00,0x00,0x00,0x00,0x00,0x00,0x00,0x00,
 0x00,0x00,0x00,0x00,0x00,0x00,0x9e,0xff,0x07,0xe7,0xff,0xc1,
 0x39,0xff,0x83,0xf3,0xe7,0x00,0x00,0x00,0x00,0x00,0x00,0x00,
 0x00,0x00,0x00,0x00,0x00,0x00,0x00,0x00,0x00,0x00,0x00,0x00,
 0x00,0x00,0x3c,0xc0,0x0f,0x07,0x00,0xc0,0x39,0x80,0x83,0xf3,
 0xe7,0x00,0x00,0x00,0x00,0x00,0x00,0x00,0x00,0x00,0x00,0x00,
 0x00,0x00,0x00,0x00,0x00,0x00,0x00,0x00,0x00,0x00,0xfc,0x01,
 0x0f,0x07,0x00,0xc0,0x39,0x80,0xc3,0xfb,0xef,0x01,0x00,0x00,
 0x00,0x00,0x00,0x00,0x00,0x00,0x00,0x00,0x00,0x00,0x00,0x00,
 0x00,0x00,0x00,0x00,0x00,0x00,0xf8,0x7f,0x1e,0xe7,0xff,0xc1,
 0x39,0x9f,0xc3,0x79,0xcf,0x01,0x00,0x00,0x00,0x00,0x00,0x00,
 0x00,0x00,0x00,0x00,0x00,0x00,0x00,0x00,0x00,0x00,0x00,0x00,
 0x00,0x00,0xf0,0xff,0x1c,0xe7,0xff,0xc1,0x39,0x9f,0xc3,0x79,
 0xcf,0x01,0x00,0x00,0x00,0x00,0x00,0x00,0x00,0x00,0x00,0x00,
 0x00,0x00,0x00,0x00,0x00,0x00,0x00,0x00,0x00,0x00,0x80,0xff,
 0x1c,0xe7,0xff,0xc1,0x39,0x9f,0xe3,0x3d,0xde,0x03,0x00,0x00,
 0x00,0x00,0x00,0x00,0x00,0x00,0x00,0x00,0x00,0x00,0x00,0x00,
 0x00,0x00,0x00,0x00,0x00,0x00,0x00,0xe0,0x1d,0xe7,0x00,0xc0,
 0x39,0x9c,0xe3,0x3c,0x9e,0x03,0x00,0x00,0x00,0x00,0x00,0x00,
 0x00,0x00,0x00,0x00,0x00,0x00,0x00,0x00,0x00,0x00,0x00,0x00,
 0x00,0x00,0xff,0xff,0x1d,0xe7,0xff,0xcf,0xf9,0x9f,0xf3,0xfc,
 0x9f,0x03,0x00,0x00,0x00,0x00,0x00,0x00,0x00,0x00,0x00,0x00,
 0x00,0x00,0x00,0x00,0x00,0x00,0x00,0x00,0x00,0x00,0xff,0xff,
 0x1c,0xe7,0xff,0xcf,0xfb,0x9f,0xf3,0xde,0xbf,0x07,0x00,0x00,
 0x00,0x00,0x00,0x00,0x00,0x00,0x00,0x00,0x00,0x00,0x00,0x00,
 0x00,0x00,0x00,0x00,0x00,0x00,0xff,0x7f,0x1e,0xe7,0xff,0xcf,
 0xfb,0x9f,0x73,0xde,0x3f,0x07,0x00,0x00,0x00,0x00,0x00,0x00,
 0x00,0x00,0x00,0x00,0x00,0x00,0x00,0x00,0x00,0x00,0x00,0x00,
 0x00,0x00,0xff,0x3f,0x1f,0xcf,0xff,0x8f,0xe3,0x9f,0x7b,0xde,
 0x3f,0x07,0x00,0x00,0x00,0x00,0x00,0x00,0x00,0x00,0x00,0x00,
 0x00,0x00,0x00,0x00,0x00,0x00,0x00,0x00,0x00,0x00,0x00,0x80,
 0x0f,0x1e,0x00,0x80,0x0f,0x80,0x7b,0x0f,0x00,0x0f,0x00,0x00,
 0x00,0x00,0x00,0x00,0x00,0x00,0x00,0x00,0x00,0x00,0x00,0x00,
 0x00,0x00,0x00,0x00,0x00,0x00,0xff,0xff,0x07,0xfe,0xff,0x0f,
 0xff,0xff,0x3f,0xcf,0xff,0x0f,0x00,0x00,0x00,0x00,0x00,0x00,
 0x00,0x00,0x00,0x00,0x00,0x00,0x00,0x00,0x00,0x00,0x00,0x00,
 0x00,0x00,0xff,0xff,0x03,0xfc,0xff,0x0f,0xfe,0xff,0xbf,0xcf,
 0xff,0x0f,0x00,0x00,0x00,0x00,0x00,0x00,0x00,0x00,0x00,0x00,
 0x00,0x00,0x00,0x00,0x00,0x00,0x00,0x00,0x00,0x00,0xff,0xff,
 0x01,0xf0,0xff,0x0f,0xfc,0xff,0xbf,0xc7,0xff,0x1f,0x00,0x00,
 0x00,0x00,0x00,0x00,0x00,0x00,0x00,0x00,0x00,0x00,0x00,0x00,
 0x00,0x00,0x00,0x00,0x00,0x00,0x00,0x00,0x00,0x00,0x00,0x00,
 0x00,0x00,0x00,0x00,0x00,0x00,0x00,0x00,0x00,0x00,0x00,0x00,
 0x00,0x00,0x00,0x00,0x00,0x00,0x00,0x00,0x00,0x00,0x00,0x00,
 0x00,0x00,0x00,0x00,0x00,0x00,0x00,0x00,0x00,0x00,0x00,0x00,
 0x00,0x00,0x00,0x00,0x00,0x00,0x00,0x00,0x00,0x00,0x00,0x00,
 0x00,0x00,0x00,0x00,0x00,0x00,0x00,0x00,0x00,0x00,0x00,0x00,
 0x00,0x00,0x00,0x00,0x00,0x00,0x00,0x00,0x00,0x00,0x00,0x00,
 0x00,0x00,0x00,0x00,0x00,0x00,0x00,0x00,0x00,0x00,0x00,0x00,
 0x00,0x00,0x00,0x00,0x00,0x00,0x00,0x00,0x00,0x00,0x00,0x00,
 0x00,0x00,0x00,0x00,0x00,0x00,0x00,0x00,0x00,0x00,0x00,0x00,
 0x00,0x00,0x00,0x00,0x00,0x00,0x00,0x00,0x00,0xfc,0x1f,0xfe,
 0x3f,0xe0,0xff,0xff,0x80,0xff,0xff,0x0f,0xfe,0xff,0x00,0x00,
 0x00,0xf8,0xff,0xff,0xf7,0xff,0xff,0x03,0x00,0x00,0x00,0x00,
 0x00,0x00,0x00,0x00,0x00,0x06,0x90,0x01,0x20,0x10,0x00,0x00,
 0x41,0x00,0x00,0x10,0x01,0x80,0x01,0x00,0x00,0x04,0x00,0x00,
 0x14,0x00,0x00,0x0c,0x00,0x00,0x00,0x00,0x00,0x00,0x00,0x00,
 0x00,0x02,0xe0,0x00,0x20,0x08,0x00,0x00,0x41,0x00,0x00,0x10,
 0x01,0x00,0x01,0x00,0x00,0x02,0x00,0x00,0x14,0x00,0x00,0x10,
 0x00,0x00,0x00,0x00,0x00,0x00,0x00,0x00,0x00,0x01,0x20,0x00,
 0x20,0x04,0x00,0x00,0x21,0x00,0x00,0x10,0x01,0x00,0x02,0x00,
 0x00,0x02,0x00,0x00,0x14,0x00,0x00,0x20,0x00,0x00,0x00,0x00,
 0x00,0x00,0x00,0x00,0x80,0x00,0x00,0x00,0x20,0x04,0x00,0x00,
 0x11,0x00,0x00,0x10,0x01,0x00,0x04,0x00,0x00,0x01,0x00,0x00,
 0x14,0x00,0x00,0x40,0x00,0x00,0x00,0x00,0x00,0x00,0x00,0x00,
 0x80,0x00,0x00,0x00,0x20,0x02,0xf8,0xff,0x11,0x00,0x00,0x10,
 0x01,0x00,0x04,0x00,0x00,0x01,0xfc,0xff,0x17,0x00,0x00,0x40,
 0x00,0x00,0x00,0x00,0x00,0x00,0x00,0x00,0x40,0x00,0x00,0x00,
 0x20,0x01,0x04,0x00,0x08,0xe0,0xff,0x1f,0x01,0x07,0x08,0x00,
 0x80,0x00,0x02,0x00,0x10,0xe0,0x7f,0x80,0x00,0x00,0x00,0x00,
 0x00,0x00,0x00,0x00,0x20,0xc0,0x0f,0x10,0xa0,0x00,0x04,0x00,
 0x04,0x10,0x00,0x00,0x01,0x05,0x10,0x00,0x40,0x00,0x01,0x00,
 0x10,0x20,0x80,0x00,0x01,0x00,0x00,0x00,0x00,0x00,0x00,0x00,
 0x20,0x20,0x04,0x28,0xa0,0x00,0x02,0x00,0x04,0x10,0x00,0x00,
 0x01,0x09,0x10,0x00,0x40,0x80,0x00,0x00,0x10,0x20,0x00,0x01,
 0x01,0x00,0x00,0x00,0x00,0x00,0x00,0x00,0x10,0x20,0x02,0x2c,
 0xa0,0x00,0x03,0x00,0x04,0x08,0x00,0x00,0x01,0x09,0x20,0x00,
 0x20,0x80,0x00,0x00,0x10,0x20,0x00,0x02,0x02,0x00,0x00,0x00,
 0x00,0x00,0x00,0x00,0x08,0x10,0x02,0x24,0xa0,0x00,0xff,0xff,
 0x05,0x08,0xf8,0x3f,0x01,0x11,0x40,0xfc,0x27,0x40,0x00,0x00,
 0x10,0x20,0x00,0x02,0x02,0x00,0x00,0x00,0x00,0x00,0x00,0x00,
 0x08,0x08,0x01,0x22,0xa0,0x00,0x00,0x80,0x04,0x04,0x04,0x20,
 0x01,0x21,0x40,0x04,0x14,0x40,0x00,0x00,0x10,0x20,0x00,0x04,
 0x04,0x00,0x00,0x00,0x00,0x00,0x00,0x00,0x04,0x08,0x01,0x23,
 0xa0,0x00,0x00,0x80,0x04,0x04,0x04,0x20,0x01,0x21,0x80,0x04,
 0x14,0x40,0x00,0x00,0x10,0x20,0x00,0x04,0x04,0x00,0x00,0x00,
 0x00,0x00,0x00,0x00,0x04,0x84,0x00,0x21,0xa0,0x00,0x00,0x40,
 0x04,0x04,0x02,0x20,0x01,0x41,0x00,0x05,0x14,0x40,0x00,0x00,
 0x10,0x20,0x00,0x04,0x04,0x00,0x00,0x00,0x00,0x00,0x00,0x00,
 0x02,0x42,0x80,0x20,0xa0,0x00,0x00,0x40,0x04,0x04,0x02,0x20,
 0x01,0xc1,0x00,0x05,0x24,0x80,0x00,0x00,0x10,0x20,0x00,0x02,
 0x04,0x00,0x00,0x00,0x00,0x00,0x00,0x00,0x01,0x42,0xc0,0x20,
 0xa0,0x00,0xff,0x3f,0x04,0x04,0x7e,0x20,0x01,0x81,0x00,0xfa,
 0x27,0x80,0x00,0x00,0x10,0x20,0x00,0x02,0x02,0x00,0x00,0x00,
 0x00,0x00,0x00,0x00,0x01,0x21,0x40,0x20,0xa0,0x00,0x01,0x00,
 0x04,0x04,0x40,0x20,0x01,0xff,0x01,0x04,0x40,0x80,0x00,0x00,
 0x10,0x20,0x00,0x01,0x02,0x00,0x00,0x00,0x00,0x00,0x00,0x80,
 0x00,0x21,0x60,0x20,0xa0,0x00,0x01,0x00,0x04,0x04,0x40,0x20,
 0x01,0x01,0x01,0x04,0x40,0x00,0x01,0x00,0x10,0x20,0x00,0x01,
 0x01,0x00,0x00,0x00,0x00,0x00,0x00,0x40,0x80,0x10,0x20,0x20,
 0xa0,0x00,0x01,0x00,0x04,0x04,0x40,0x20,0x01,0x03,0x02,0x08,
 0x80,0x00,0x02,0x00,0x10,0x20,0x80,0x80,0x00,0x00,0x00,0x00,
 0x00,0x00,0x00,0x40,0x40,0x08,0x10,0x20,0xa0,0x00,0xff,0xff,
 0x05,0xfc,0x7f,0x20,0x01,0xfd,0x07,0x18,0x00,0x01,0xfc,0xff,
 0x17,0xe0,0x7f,0x80,0x00,0x00,0x00,0x00,0x00,0x00,0x00,0x20,
 0x40,0x08,0x18,0x20,0xa0,0x00,0x00,0x00,0x05,0x00,0x00,0x20,
 0x01,0x01,0x04,0x10,0x00,0x01,0x00,0x00,0x14,0x00,0x00,0x40,
 0x00,0x00,0x00,0x00,0x00,0x00,0x00,0x10,0x20,0x04,0x08,0x20,
 0xa0,0x00,0x00,0x00,0x05,0x00,0x00,0x20,0x01,0x01,0x08,0x20,
 0x00,0x02,0x00,0x00,0x14,0x00,0x00,0x20,0x00,0x00,0x00,0x00,
 0x00,0x00,0x00,0x10,0x30,0x04,0x04,0x20,0xa0,0x00,0x00,0x00,
 0x05,0x00,0x00,0x20,0x01,0x01,0x10,0x20,0x00,0x04,0x00,0x00,
 0x14,0x00,0x00,0x20,0x00,0x00,0x00,0x00,0x00,0x00,0x00,0x08,
 0x10,0x02,0x04,0x20,0xa0,0x00,0x00,0x00,0x09,0x00,0x00,0x20,
 0x01,0x01,0x10,0x40,0x00,0x08,0x00,0x00,0x14,0x00,0x00,0x18,
 0x00,0x00,0x00,0x00,0x00,0x00,0x00,0xf8,0x0f,0xfe,0x03,0xe0,
 0xbf,0xff,0xff,0xff,0xf1,0xff,0xff,0x3f,0xff,0x00,0xe0,0x7f,
 0x00,0xf0,0xff,0xff,0xf7,0xff,0xff,0x07,0x00,0x00,0x00,0x00,
 0x00,0x00,0x00,0x00,0x00,0x00,0x00,0x00,0x00,0x00,0x00,0x00,
 0x00,0x00,0x00,0x00,0x00,0x00,0x00,0x00,0x00,0x00,0x00,0x00,
 0x00,0x00,0x00,0x00,0x00,0x00,0x00,0x00,0x00,0x00,0x00,0x00,
 0x00,0x00,0x00,0x00,0x00,0x00,0x00,0x00,0x00,0x00,0x00,0x00,
 0x00,0x00,0x00,0x00,0x00,0x00,0x00,0x00,0x00,0x00,0x00,0x00,
 0x00,0x00,0x00,0x00,0x00,0x00,0x00,0x00,0x00,0x00,0x00,0x00,
 0x00,0x00,0x00,0x00,0x00,0x00,0x00,0x00,0x00,0x00,0x00,0x00,
 0x00,0x00,0x00,0x00,0x00,0x00,0x00,0x00,0x00,0x00,0x00,0x00,
 0x00,0x00,0x00,0x00,0x00,0x00,0x00,0x00,0x00,0x00,0x00,0x00,
 0x00,0x00,0x00,0x00,0x00,0x00,0x00,0x00,0x00,0x00,0x00,0x00,
 0x00,0x00,0x00,0x00,0x00,0x00,0x00,0x00 };
