#define _width 256
#define _height 64
static char _bits[] = {
 0x00,0x00,0x00,0x00,0x00,0x80,0x03,0x00,0x00,0x00,0xc0,0x03,0x00,0x00,0x00,
 0x00,0x1e,0x00,0x00,0x00,0x00,0x00,0x00,0x00,0x00,0x00,0x00,0x00,0x00,0x00,
 0x00,0x00,0x00,0x00,0x00,0x00,0x00,0xc0,0x0f,0x00,0x00,0x00,0xe0,0x07,0x00,
 0x00,0x00,0x00,0x3f,0x00,0xc0,0xff,0xff,0xff,0xff,0xff,0xff,0xff,0xff,0x0f,
 0x00,0x00,0x00,0x00,0x00,0x00,0x00,0x00,0x00,0x60,0x0c,0x00,0x00,0x00,0x70,
 0x0c,0x00,0x00,0x00,0x80,0x71,0x00,0xc0,0x00,0x00,0x00,0x00,0x02,0x00,0x00,
 0x00,0x0c,0x00,0x00,0x00,0x00,0x00,0x00,0x00,0x00,0x00,0x60,0x18,0x00,0x00,
 0x00,0x30,0x18,0x00,0x00,0x00,0xc0,0xe1,0x00,0xc0,0x00,0x00,0x00,0x00,0x02,
 0x00,0x00,0x00,0x08,0x00,0x00,0x00,0x00,0x00,0x00,0x00,0x00,0x00,0x10,0x30,
 0x00,0x00,0x00,0x18,0x38,0x00,0x00,0x00,0xe0,0xc0,0x00,0xc0,0xf0,0xff,0xff,
 0x3f,0xc2,0xff,0xff,0xff,0x0f,0x00,0x00,0x00,0x00,0x00,0x00,0x00,0x00,0x00,
 0x18,0x20,0x00,0x00,0x00,0x08,0x70,0x00,0x00,0x00,0x60,0xc0,0x01,0xc0,0xf0,
 0xff,0xff,0x3f,0xc6,0xff,0xff,0xff,0x07,0x00,0x00,0x00,0x00,0x00,0x00,0x00,
 0x00,0x00,0x08,0xc3,0x00,0x00,0x00,0x0e,0x61,0x00,0x00,0x00,0x30,0x0c,0x03,
 0xc0,0x10,0x00,0x00,0x18,0xc7,0x01,0x00,0x00,0x00,0x00,0x00,0x00,0x00,0x00,
 0x00,0x00,0x00,0x00,0x0c,0xc3,0x00,0x00,0x00,0x86,0xe3,0x00,0x00,0x00,0x30,
 0x0c,0x03,0xc0,0x10,0x00,0x00,0x18,0x87,0x01,0x00,0x00,0x00,0x00,0x00,0x00,
 0x00,0x00,0x00,0x00,0x00,0x00,0x86,0x87,0x01,0x00,0x00,0xc3,0x87,0x01,0x00,
 0x00,0x18,0x36,0x0e,0xc0,0x10,0x00,0x00,0x0c,0x0d,0x03,0x00,0x00,0x00,0x00,
 0x00,0x00,0x00,0x00,0x00,0x00,0x00,0x00,0xc2,0x87,0x01,0x00,0x00,0xc3,0x87,
 0x01,0x00,0x00,0x1c,0x36,0x0c,0xc0,0x10,0x00,0x00,0x86,0x0d,0x07,0x00,0x00,
 0x00,0x00,0x00,0x00,0x00,0x00,0x00,0x00,0x00,0x00,0x63,0x0c,0x03,0x00,0x80,
 0x61,0x84,0x03,0x00,0x00,0x8c,0x61,0x1c,0xc0,0x10,0x00,0x80,0xc3,0x18,0x0e,
 0x00,0x00,0x00,0x00,0x00,0x00,0x00,0x00,0x00,0x00,0x00,0x80,0x61,0x18,0x06,
 0x00,0xc0,0x31,0x0c,0x07,0x00,0x00,0x8e,0xe1,0x18,0xc0,0x10,0x00,0xc0,0xe1,
 0x10,0x1c,0x00,0x00,0x00,0x00,0x00,0x00,0x00,0x00,0x00,0x00,0x00,0xc0,0x30,
 0x30,0x04,0x00,0x60,0x38,0x18,0x06,0x00,0x00,0xc3,0xc0,0x30,0xc0,0x10,0x00,
 0x70,0x20,0x70,0xf0,0x00,0x00,0x00,0x00,0x00,0x00,0x00,0x00,0x00,0x00,0x00,
 0x40,0x18,0x70,0x1c,0x00,0x60,0x08,0x70,0x0c,0x00,0x80,0x63,0x80,0x61,0xc0,
 0x10,0x00,0x1f,0x1c,0xe0,0xc0,0x1f,0x00,0x00,0x00,0x00,0x00,0x00,0x00,0x00,
 0x00,0x00,0x60,0x18,0x60,0x18,0x00,0x30,0x0c,0x70,0x0c,0x00,0xc0,0x61,0x00,
 0x63,0xc0,0x10,0xc0,0x07,0x1e,0xc0,0x01,0xff,0x01,0x00,0x00,0x00,0x00,0x00,
 0x00,0x00,0x00,0x00,0x30,0x0c,0xc0,0x30,0x00,0x18,0x06,0xe0,0x38,0x00,0xc0,
 0x30,0x00,0xc7,0xc0,0x90,0x7f,0x80,0x07,0x80,0x07,0x80,0x7f,0x00,0x00,0x00,
 0x00,0x00,0x00,0x00,0x00,0x00,0x10,0x06,0xc0,0x20,0x00,0x18,0x06,0xe0,0x30,
 0x00,0xe0,0xf0,0xff,0x87,0xc1,0xf0,0x1f,0x80,0x01,0x00,0x0e,0x00,0xf8,0x01,
 0x00,0x00,0x00,0x00,0x00,0x00,0x00,0x00,0x0c,0x03,0x00,0x63,0x00,0x0c,0x03,
 0x80,0x71,0x00,0x70,0x00,0x00,0x80,0xc1,0x00,0x00,0x0c,0x03,0x00,0xf8,0x00,
 0x00,0x1f,0x00,0x00,0x00,0x00,0x00,0x00,0x00,0x00,0x0c,0x03,0x00,0xc3,0x00,
 0x84,0x01,0x80,0xe1,0x00,0x30,0x00,0x00,0x00,0xc3,0x00,0x00,0x1f,0x06,0x00,
 0xf0,0x1f,0x00,0x7c,0x00,0x00,0x00,0x00,0x00,0x00,0x00,0x00,0x86,0x01,0x00,
 0x86,0x01,0x87,0x01,0x00,0xc7,0x00,0x18,0x00,0x00,0x00,0xc6,0x00,0xfe,0x33,
 0x06,0x00,0x00,0xff,0x0f,0xc0,0x03,0x00,0x00,0x00,0x00,0x00,0x00,0x00,0xc3,
 0x00,0x00,0x0c,0x01,0xe3,0x00,0x00,0x86,0x01,0x0c,0xff,0xff,0x3f,0xce,0xf0,
 0x1f,0x60,0x18,0x00,0x00,0x00,0xff,0x00,0x1f,0x00,0x00,0x00,0x00,0x00,0x00,
 0x00,0xc3,0x00,0x00,0x0c,0x83,0x61,0x00,0x00,0x8e,0x03,0x0e,0xff,0xff,0x7f,
 0xcc,0xf0,0x01,0x60,0x18,0x00,0x00,0x00,0xf8,0x03,0x1e,0x00,0x00,0x00,0x00,
 0x00,0x00,0x80,0x61,0x00,0x00,0x18,0xc6,0x30,0x00,0x00,0x08,0x03,0x86,0x03,
 0x00,0x60,0xd8,0x10,0x00,0x80,0x30,0x00,0x00,0x00,0x00,0x1f,0x70,0x00,0x00,
 0x00,0x00,0x00,0x00,0x80,0x31,0x00,0x00,0x38,0xc6,0x38,0x00,0x00,0x18,0x07,
 0xc7,0x01,0x00,0xe0,0xf8,0x10,0x00,0x80,0x21,0x00,0x00,0x00,0x00,0x3c,0xe0,
 0x00,0x00,0x00,0x00,0x00,0x00,0x60,0x38,0x00,0x00,0x20,0x7c,0x18,0x00,0x00,
 0x30,0x84,0xe3,0x00,0x00,0x80,0xf1,0x10,0x00,0x00,0x61,0x00,0x00,0x00,0x00,
 0xf0,0xc1,0x01,0x00,0x00,0x00,0x00,0x00,0x60,0x18,0x00,0x00,0x60,0x38,0x1c,
 0x00,0x00,0x30,0x8c,0xe1,0x00,0x00,0x80,0xe1,0x10,0x00,0x00,0xc3,0x00,0x00,
 0x00,0x00,0xc0,0x83,0x01,0x00,0x00,0x00,0x00,0x00,0x30,0x0c,0x00,0x00,0xc0,
 0x30,0x04,0x00,0x00,0x60,0xd8,0x71,0x00,0x00,0x00,0xc7,0x10,0x00,0x00,0xc6,
 0x00,0x00,0x00,0x00,0x00,0x07,0x03,0x00,0x00,0x00,0x00,0x00,0x38,0x0c,0x00,
 0x00,0xc0,0x10,0x06,0x00,0x00,0xe0,0xf8,0x30,0x00,0x00,0x00,0xc6,0x10,0x00,
 0x00,0x86,0x01,0x00,0x00,0x00,0x00,0x0e,0x03,0x00,0x00,0x00,0x00,0x00,0x18,
 0x02,0x00,0x00,0x80,0x01,0x03,0x00,0x00,0xc0,0x61,0x18,0x00,0x00,0x00,0x86,
 0x10,0x00,0x00,0x08,0x03,0x00,0x00,0x00,0x00,0x18,0x06,0x00,0x00,0x00,0x00,
 0x00,0x0c,0x03,0x00,0x00,0x00,0x83,0x03,0x00,0x00,0x80,0x21,0x0c,0x00,0x00,
 0x00,0x8c,0x10,0x00,0x00,0x18,0x02,0x00,0x00,0x00,0x00,0x30,0x0c,0x00,0x00,
 0x00,0x00,0x00,0x86,0x01,0x00,0x00,0x00,0x82,0x01,0x00,0x00,0x00,0x23,0x0e,
 0x00,0x00,0x00,0x88,0x10,0x00,0x00,0x18,0x02,0x00,0x00,0x00,0x00,0x20,0x0c,
 0x00,0x00,0x00,0x00,0x00,0xff,0xff,0xff,0xff,0xff,0xff,0xff,0xff,0xff,0xff,
 0xff,0xff,0xff,0xff,0xff,0xff,0xff,0xff,0xff,0xff,0xff,0xff,0xff,0xff,0xff,
 0x7f,0x08,0x00,0x00,0x00,0x00,0x00,0x63,0x00,0x00,0x00,0x00,0x00,0x00,0x00,
 0x00,0x00,0x00,0x00,0x00,0x00,0x00,0x00,0x00,0x00,0x00,0x00,0x00,0x00,0x00,
 0x00,0x00,0x00,0x08,0x00,0x00,0x00,0x00,0x80,0x21,0x00,0x00,0x00,0x00,0x00,
 0x00,0x00,0x00,0x00,0x00,0x00,0x00,0x00,0x00,0x00,0x00,0x00,0x00,0x00,0x00,
 0x00,0x00,0x00,0x00,0x00,0x08,0x00,0x00,0x00,0x00,0xc0,0x61,0x00,0x00,0x00,
 0x00,0x00,0x00,0x00,0x00,0x00,0x00,0x00,0x00,0x00,0x00,0x00,0x00,0x00,0x00,
 0x00,0x00,0x00,0x00,0x00,0x00,0x00,0x08,0x00,0x00,0x00,0x00,0xc0,0xc0,0xff,
 0xff,0xff,0x7f,0xc0,0xff,0xff,0xff,0xff,0x03,0xfe,0xff,0xc7,0xff,0xff,0xf0,
 0xff,0xff,0xff,0xff,0xff,0xff,0xff,0xff,0xff,0x0f,0x00,0x00,0x00,0x00,0x60,
 0x00,0xff,0xff,0xff,0x3f,0x84,0xff,0xff,0xff,0xff,0x21,0xfc,0xff,0xc7,0xff,
 0xff,0xf0,0xff,0xff,0x1f,0x11,0xf0,0xff,0xff,0xff,0x0f,0x0e,0x00,0x00,0x00,
 0x00,0x30,0x0c,0x03,0x00,0x00,0x38,0x0c,0x03,0x00,0x00,0xc0,0x71,0x1c,0x00,
 0xc6,0x00,0xc0,0x10,0x00,0x00,0x18,0x31,0xe0,0x01,0x00,0x00,0x07,0x06,0x00,
 0x00,0x00,0x00,0x38,0x1e,0x06,0x00,0x00,0x18,0x0e,0x03,0x00,0x00,0x60,0x78,
 0x38,0x00,0xc6,0x00,0xc0,0x10,0x00,0x00,0x0e,0xe1,0x01,0x0f,0x00,0xc0,0xc1,
 0x03,0x00,0x00,0x00,0x00,0x18,0x3e,0x0c,0x00,0x00,0x1c,0x1f,0x06,0x00,0x00,
 0x70,0xd8,0x38,0x00,0xc6,0x00,0xc0,0x10,0x00,0x00,0x86,0xe1,0x07,0x3c,0x00,
 0xf0,0xc0,0x01,0x00,0x00,0x00,0x00,0x0c,0x73,0x0c,0x00,0x00,0x84,0x31,0x04,
 0x00,0x00,0x30,0x8c,0x71,0x00,0xc6,0x00,0xc0,0x10,0x00,0x80,0xc3,0x61,0x3e,
 0xe0,0x01,0x3c,0x38,0x00,0x00,0x00,0x00,0x00,0x0e,0x61,0x1c,0x00,0x00,0x86,
 0x31,0x0c,0x00,0x00,0x38,0x84,0xe1,0x00,0xc6,0x00,0xc0,0x10,0x00,0xc0,0xe1,
 0x61,0x78,0xc0,0x03,0x0e,0x3c,0x00,0x00,0x00,0x00,0x00,0x86,0xc1,0x30,0x00,
 0x00,0xc3,0xe0,0x18,0x00,0x00,0x18,0x02,0xc7,0x01,0xc6,0x00,0xc0,0x10,0x00,
 0x70,0xb0,0x61,0xc0,0x03,0xde,0x03,0x07,0x00,0x00,0x00,0x00,0x00,0xc3,0xc0,
 0x30,0x00,0x00,0x63,0xc0,0x18,0x00,0x00,0x0c,0x03,0xc6,0x01,0xc6,0x00,0xc0,
 0x10,0x00,0x3c,0xb8,0x61,0x80,0x0f,0xf8,0x81,0x03,0x00,0x00,0x00,0x00,0x80,
 0xe1,0x80,0xe1,0x00,0x80,0x61,0xc0,0x61,0x00,0x00,0x0e,0x01,0x8e,0x03,0xc6,
 0x00,0xc0,0x10,0xe0,0x07,0x9e,0x61,0x00,0x7c,0x40,0xe0,0x00,0x00,0x00,0x00,
 0x00,0x80,0x31,0x00,0xc3,0x00,0xc0,0x30,0x00,0x63,0x00,0x00,0xc7,0x00,0x08,
 0x07,0xc6,0x00,0xc0,0xf0,0xff,0x80,0x87,0x61,0x00,0xe0,0x03,0x38,0x00,0x00,
 0x00,0x00,0x00,0xc0,0x30,0x00,0xc2,0x01,0xc0,0x18,0x00,0xc3,0x00,0x00,0xc7,
 0x00,0x18,0x0f,0xc6,0x00,0xc0,0xf0,0x1f,0x80,0x83,0x61,0x00,0x80,0x07,0x3c,
 0x00,0x00,0x00,0x00,0x00,0x60,0x18,0x00,0x86,0x03,0x30,0x0c,0x00,0x86,0x01,
 0x80,0xe1,0xff,0x3f,0x0c,0xc6,0x00,0xc0,0x00,0x00,0x0c,0x87,0x61,0x00,0x80,
 0x03,0xc0,0x01,0x00,0x00,0x00,0x00,0x60,0x0c,0x00,0x0c,0x03,0x30,0x0c,0x00,
 0x84,0x01,0xc0,0x01,0x00,0x00,0x1c,0xc6,0x00,0xc0,0x00,0x00,0x1f,0x86,0x61,
 0x00,0xc0,0xc1,0x80,0x07,0x00,0x00,0x00,0x00,0x38,0x0c,0x00,0x1c,0x06,0x18,
 0x06,0x00,0x0c,0x07,0xe0,0x00,0x00,0x00,0x18,0xc6,0x00,0xc0,0x00,0xfe,0x33,
 0x8e,0x61,0x00,0x30,0xf0,0x07,0x3c,0x00,0x00,0x00,0x00,0x18,0x06,0x00,0x18,
 0x06,0x08,0x06,0x00,0x18,0x06,0x60,0x00,0x00,0x00,0x30,0xc6,0x00,0xc0,0xf0,
 0xff,0x30,0x9c,0x61,0x00,0x3c,0xb8,0x0f,0x78,0x00,0x00,0x00,0x00,0x0c,0x03,
 0x00,0x30,0x0c,0x0c,0x03,0x00,0x38,0x0e,0x70,0xf8,0xff,0xff,0x71,0xc6,0x00,
 0xc0,0xf0,0x01,0x60,0x98,0x61,0x00,0x07,0x1e,0x7c,0xc0,0x03,0x00,0x00,0x00,
 0x86,0x01,0x00,0x60,0x18,0x86,0x01,0x00,0x60,0x0c,0x38,0xfe,0xff,0xff,0xe3,
 0xc6,0x00,0xc0,0x10,0x00,0xc0,0xb0,0x61,0xc0,0xc1,0x07,0xc0,0x03,0x3e,0x00,
 0x00,0x00,0x86,0x01,0x00,0xc0,0x18,0xc2,0x00,0x00,0x60,0x18,0x18,0x06,0x00,
 0x00,0xe3,0xc6,0x00,0xc0,0x10,0x00,0xc0,0xb1,0x61,0xe0,0xc0,0x01,0x80,0x0f,
 0x78,0x00,0x00,0x00,0xc3,0x00,0x00,0xc0,0x71,0xe3,0x00,0x00,0xc0,0x30,0x1c,
 0x03,0x00,0x00,0xc7,0xc7,0x00,0xc0,0x10,0x00,0x80,0xe1,0x61,0x38,0x78,0x00,
 0x00,0x7c,0xc0,0x03,0x00,0x00,0xe1,0x00,0x00,0x80,0xe1,0x61,0x00,0x00,0xc0,
 0x30,0x8c,0x01,0x00,0x00,0x86,0xc7,0x00,0xc0,0x10,0x00,0x00,0xc3,0x61,0x1c,
 0x3c,0x00,0x00,0xf8,0x00,0x07,0x00,0xc0,0x61,0x00,0x00,0x00,0xc3,0x30,0x00,
 0x00,0x80,0xe1,0x86,0x01,0x00,0x00,0x0c,0xc7,0x00,0xc0,0x10,0x00,0x00,0xc6,
 0xe1,0x07,0x0f,0x00,0x00,0xc0,0x07,0x78,0x00,0xc0,0x30,0x00,0x00,0x00,0xc3,
 0x30,0x00,0x00,0x00,0xe3,0xc7,0x00,0x00,0x00,0x1c,0xc7,0x00,0xc0,0x10,0x00,
 0x00,0x86,0xe1,0x83,0x07,0x00,0x00,0x00,0x1f,0xf0,0x00,0xe0,0x18,0x00,0x00,
 0x00,0x04,0x0c,0x00,0x00,0x00,0xc6,0x63,0x00,0x00,0x00,0x10,0xc6,0x00,0xc0,
 0x10,0x00,0x00,0x1c,0x61,0xe0,0x01,0x00,0x00,0x00,0xf8,0x80,0x03,0x60,0x18,
 0x00,0x00,0x00,0x0c,0x0c,0x00,0x00,0x00,0x86,0x63,0x00,0x00,0x00,0x30,0xc6,
 0x00,0xc0,0x10,0x00,0x00,0x18,0x21,0xf0,0x00,0x00,0x00,0x00,0xf0,0x01,0x07,
 0x20,0x04,0x00,0x00,0x00,0x18,0x06,0x00,0x00,0x00,0x0c,0x31,0x00,0x00,0x00,
 0x60,0xc4,0x00,0xc0,0x10,0x00,0x00,0x38,0x11,0x3c,0x00,0x00,0x00,0x00,0x80,
 0x1f,0x04,0x20,0x06,0x00,0x00,0x00,0x18,0x02,0x00,0x00,0x00,0x18,0x19,0x00,
 0x00,0x00,0xe0,0xe4,0x00,0xc0,0x19,0x00,0x00,0x30,0x93,0x07,0x00,0x00,0x00,
 0x00,0x00,0x78,0x06,0x60,0x03,0x00,0x00,0x00,0xf0,0x03,0x00,0x00,0x00,0xf8,
 0x1f,0x00,0x00,0x00,0xc0,0x7f,0x00,0x80,0x1f,0x00,0x00,0xe0,0xff,0x03,0x00,
 0x00,0x00,0x00,0x00,0xe0,0x07,0xc0,0x01,0x00,0x00,0x00,0xe0,0x01,0x00,0x00,
 0x00,0xe0,0x06,0x00,0x00,0x00,0x80,0x3f,0x00,0x00,0x0f,0x00,0x00,0xc0,0x6f,
 0x00,0x00,0x00,0x00,0x00,0x00,0x80,0x03 };
