#define fe11cacaf23278846ebda7f13abacc7b2c255f0b-o_width 256
#define fe11cacaf23278846ebda7f13abacc7b2c255f0b-o_height 64
static char fe11cacaf23278846ebda7f13abacc7b2c255f0b-o_bits[] = {
  0x00, 0x00, 0x00, 0x00, 0x00, 0x00, 0x00, 0x00, 0x00, 0x00, 0x00, 0x00, 
  0x00, 0x00, 0x00, 0x00, 0x00, 0x00, 0x00, 0x00, 0x00, 0x00, 0x00, 0x00, 
  0x00, 0x00, 0x00, 0x00, 0x00, 0x00, 0x00, 0x00, 0x00, 0x00, 0x00, 0x00, 
  0x00, 0x00, 0x00, 0x00, 0x00, 0xFC, 0xFF, 0xFF, 0xFF, 0xFF, 0xFF, 0xFF, 
  0xFF, 0xFF, 0xFF, 0xFF, 0xFF, 0xFF, 0xFF, 0x00, 0x00, 0x00, 0x00, 0x00, 
  0x00, 0x00, 0x00, 0x00, 0x00, 0x00, 0x00, 0x00, 0x00, 0x00, 0x00, 0x00, 
  0x00, 0xFC, 0xFF, 0xFF, 0xFF, 0xFF, 0xFF, 0xFF, 0xFF, 0xFF, 0xFF, 0xFF, 
  0xFF, 0xFF, 0xFF, 0x00, 0x00, 0x00, 0x00, 0x00, 0x00, 0x00, 0x00, 0x00, 
  0x00, 0x00, 0x00, 0x00, 0x00, 0x00, 0x00, 0x00, 0x00, 0xFC, 0xFF, 0xFF, 
  0xFF, 0xFF, 0xFF, 0xFF, 0xFF, 0xFF, 0xFF, 0xFF, 0xFF, 0xFF, 0xFF, 0x00, 
  0x00, 0x00, 0x00, 0x00, 0x00, 0x00, 0x00, 0x00, 0x00, 0x00, 0x00, 0x00, 
  0x00, 0x00, 0x00, 0x00, 0x00, 0xFC, 0xFF, 0xFF, 0xFF, 0xFF, 0xFF, 0xFF, 
  0xFF, 0xFF, 0xFF, 0xFF, 0xFF, 0xFF, 0xFF, 0x00, 0x00, 0x00, 0x00, 0x00, 
  0x00, 0x00, 0x00, 0x00, 0x00, 0x00, 0x00, 0x00, 0x00, 0x00, 0x00, 0x00, 
  0x00, 0x7C, 0xC0, 0x1F, 0xF0, 0x07, 0xFC, 0xC0, 0xFF, 0xE0, 0x1F, 0x00, 
  0xC0, 0xC0, 0xFF, 0x00, 0x00, 0x00, 0x00, 0x00, 0x00, 0x00, 0x00, 0x00, 
  0x00, 0x00, 0x00, 0x00, 0x00, 0x00, 0x00, 0x00, 0x00, 0x3C, 0xC0, 0x1F, 
  0xF0, 0x03, 0xFC, 0x00, 0xFC, 0xE0, 0x0F, 0x00, 0xC0, 0xC0, 0xFF, 0x00, 
  0x00, 0x00, 0x00, 0x00, 0x00, 0x00, 0x00, 0x00, 0x00, 0x00, 0x00, 0x00, 
  0x00, 0x00, 0x00, 0x00, 0x00, 0x3C, 0xC0, 0x1F, 0xF0, 0x03, 0xFC, 0x00, 
  0xF0, 0xC0, 0x0F, 0x00, 0xC0, 0xC0, 0xFF, 0x00, 0x00, 0x00, 0x00, 0x00, 
  0x00, 0x00, 0x00, 0x00, 0x00, 0x00, 0x00, 0x00, 0x00, 0x00, 0x00, 0x00, 
  0x00, 0x3C, 0xC0, 0x0F, 0xF0, 0x03, 0xF8, 0x00, 0xE0, 0xC0, 0x0F, 0x00, 
  0xC0, 0xC0, 0xFF, 0x00, 0x00, 0x00, 0x00, 0x00, 0x00, 0x00, 0x00, 0x00, 
  0x00, 0x00, 0x00, 0x00, 0x00, 0x00, 0x00, 0x00, 0x00, 0x3C, 0x80, 0x0F, 
  0xF0, 0x03, 0xF8, 0x00, 0xC0, 0xC0, 0x0F, 0x02, 0xC0, 0xC0, 0xFF, 0x00, 
  0x00, 0x00, 0x00, 0x00, 0x00, 0x00, 0x00, 0x00, 0x00, 0x00, 0x00, 0x00, 
  0x00, 0x00, 0x00, 0x00, 0x00, 0x3C, 0x80, 0x0F, 0xF0, 0x03, 0xF8, 0x00, 
  0x80, 0xC0, 0x0F, 0x02, 0xC0, 0xC0, 0xFF, 0x00, 0x00, 0x00, 0x00, 0x00, 
  0x00, 0x00, 0x00, 0x00, 0x00, 0x00, 0x00, 0x00, 0x00, 0x00, 0x00, 0x00, 
  0x00, 0x3C, 0x80, 0x0F, 0xF0, 0x01, 0xF8, 0xC0, 0x00, 0xC0, 0x07, 0x02, 
  0xFF, 0xC0, 0xFF, 0x00, 0x00, 0x00, 0x00, 0x00, 0x00, 0x00, 0x00, 0x00, 
  0x00, 0x00, 0x00, 0x00, 0x00, 0x00, 0x00, 0x00, 0x00, 0x3C, 0x80, 0x0F, 
  0xF0, 0x01, 0xF8, 0xC0, 0x01, 0xC0, 0x07, 0x02, 0xFF, 0xC0, 0xFF, 0x00, 
  0x00, 0x00, 0x00, 0x00, 0x00, 0x00, 0x00, 0x00, 0x00, 0x00, 0x00, 0x00, 
  0x00, 0x00, 0x00, 0x00, 0x00, 0x3C, 0x80, 0x0F, 0xF0, 0x01, 0xF8, 0xC0, 
  0x03, 0xC0, 0x07, 0x02, 0xFF, 0xC0, 0xFF, 0x00, 0x00, 0x00, 0x00, 0x00, 
  0x00, 0x00, 0x00, 0x00, 0x00, 0x00, 0x00, 0x00, 0x00, 0x00, 0x00, 0x00, 
  0x00, 0x3C, 0x80, 0x07, 0xF0, 0x01, 0xF8, 0xC0, 0x07, 0xC0, 0x07, 0x03, 
  0xFF, 0xC0, 0xFF, 0x00, 0x00, 0x00, 0x00, 0x00, 0x00, 0x00, 0x00, 0x00, 
  0x00, 0x00, 0x00, 0x00, 0x00, 0x00, 0x00, 0x00, 0x00, 0x3C, 0x80, 0x07, 
  0xF0, 0x41, 0xF0, 0xC0, 0x07, 0x80, 0x07, 0x03, 0xFF, 0xC0, 0xFF, 0x00, 
  0x00, 0x00, 0x00, 0x00, 0x00, 0x00, 0x00, 0x00, 0x00, 0x00, 0x00, 0x00, 
  0x00, 0x00, 0x00, 0x00, 0x00, 0x3C, 0x00, 0x07, 0xF0, 0x41, 0xF0, 0xC0, 
  0x07, 0x80, 0x07, 0x03, 0xFF, 0xC0, 0xFF, 0x00, 0x00, 0x00, 0x00, 0x00, 
  0x00, 0x00, 0x00, 0x00, 0x00, 0x00, 0x00, 0x00, 0x00, 0x00, 0x00, 0x00, 
  0x00, 0x3C, 0x00, 0x07, 0xF0, 0x60, 0xF0, 0xC0, 0x07, 0x80, 0x07, 0x03, 
  0xFF, 0xC0, 0xFF, 0x00, 0x00, 0x00, 0x00, 0x00, 0x00, 0x00, 0x00, 0x00, 
  0x00, 0x00, 0x00, 0x00, 0x00, 0x00, 0x00, 0x00, 0x00, 0x3C, 0x00, 0x07, 
  0xF0, 0x60, 0xF0, 0xC0, 0x07, 0x80, 0x03, 0x03, 0xFF, 0xC0, 0xFF, 0x00, 
  0x00, 0x00, 0x00, 0x00, 0x00, 0x00, 0x00, 0x00, 0x00, 0x00, 0x00, 0x00, 
  0x00, 0x00, 0x00, 0x00, 0x00, 0x3C, 0x00, 0x07, 0xF0, 0x60, 0xF0, 0xC0, 
  0x07, 0x80, 0x03, 0x03, 0xFF, 0xC0, 0xFF, 0x00, 0x00, 0x00, 0x00, 0x00, 
  0x00, 0x00, 0x00, 0x00, 0x00, 0x00, 0x00, 0x00, 0x00, 0x00, 0x00, 0x00, 
  0x00, 0x3C, 0x00, 0x03, 0xF0, 0x60, 0xF0, 0xC0, 0x03, 0x82, 0x83, 0x03, 
  0xFF, 0xC0, 0xFF, 0x00, 0x00, 0x00, 0x00, 0x00, 0x00, 0x00, 0x00, 0x00, 
  0x00, 0x00, 0x00, 0x00, 0x00, 0x00, 0x00, 0x00, 0x00, 0x3C, 0x00, 0x03, 
  0xF0, 0xE0, 0xE0, 0xC0, 0x03, 0x83, 0x83, 0x03, 0xC0, 0xC0, 0xFF, 0x00, 
  0x00, 0x00, 0x00, 0x00, 0x00, 0x00, 0x00, 0x00, 0x00, 0x00, 0x00, 0x00, 
  0x00, 0x00, 0x00, 0x00, 0x00, 0x3C, 0x00, 0x02, 0xF0, 0xE0, 0xE0, 0xC0, 
  0x01, 0x03, 0x83, 0x03, 0xC0, 0xC0, 0xFF, 0x00, 0x00, 0x00, 0x00, 0x00, 
  0x00, 0x00, 0x00, 0x00, 0x00, 0x00, 0x00, 0x00, 0x00, 0x00, 0x00, 0x00, 
  0x00, 0x3C, 0x00, 0x02, 0xF0, 0xE0, 0xE0, 0xC0, 0x00, 0x03, 0x83, 0x03, 
  0xC0, 0xC0, 0xFF, 0x00, 0x00, 0x00, 0x00, 0x00, 0x00, 0x00, 0x00, 0x00, 
  0x00, 0x00, 0x00, 0x00, 0x00, 0x00, 0x00, 0x00, 0x00, 0x3C, 0x00, 0x00, 
  0x70, 0xE0, 0xE0, 0x00, 0x80, 0x07, 0x83, 0x03, 0xC0, 0xC0, 0xFF, 0x00, 
  0x00, 0x00, 0x00, 0x00, 0x00, 0x00, 0x00, 0x00, 0x00, 0x00, 0x00, 0x00, 
  0x00, 0x00, 0x00, 0x00, 0x00, 0x3C, 0x10, 0x00, 0x70, 0xF0, 0xE0, 0x00, 
  0xC0, 0x07, 0x81, 0x03, 0xC0, 0xC0, 0xFF, 0x00, 0x00, 0x00, 0x00, 0x00, 
  0x00, 0x00, 0x00, 0x00, 0x00, 0x00, 0x00, 0x00, 0x00, 0x00, 0x00, 0x00, 
  0x00, 0x3C, 0x10, 0x60, 0x70, 0xF0, 0xE0, 0x00, 0xC0, 0x07, 0x81, 0x03, 
  0xFF, 0xC0, 0xFF, 0x00, 0x00, 0x00, 0x00, 0x00, 0x00, 0x00, 0x00, 0x00, 
  0x00, 0x00, 0x00, 0x00, 0x00, 0x00, 0x00, 0x00, 0x00, 0x3C, 0x30, 0x60, 
  0x70, 0xF0, 0xE0, 0x00, 0xE0, 0x07, 0xC0, 0x03, 0xFF, 0xC0, 0xFF, 0x00, 
  0x00, 0x00, 0x00, 0x00, 0x00, 0x00, 0x00, 0x00, 0x00, 0x00, 0x00, 0x00, 
  0x00, 0x00, 0x00, 0x00, 0x00, 0x3C, 0x30, 0x60, 0x70, 0xF0, 0xC0, 0x00, 
  0xE0, 0x07, 0xC0, 0x03, 0xFF, 0xC0, 0xFF, 0x00, 0x00, 0x00, 0x00, 0x00, 
  0x00, 0x00, 0x00, 0x00, 0x00, 0x00, 0x00, 0x00, 0x00, 0x00, 0x00, 0x00, 
  0x00, 0x3C, 0x30, 0x60, 0x70, 0xF0, 0xC0, 0xC0, 0xE0, 0x07, 0xC0, 0x03, 
  0xFF, 0xC0, 0xFF, 0x00, 0x00, 0x00, 0x00, 0x00, 0x00, 0x00, 0x00, 0x00, 
  0x00, 0x00, 0x00, 0x00, 0x00, 0x00, 0x00, 0x00, 0x00, 0x3C, 0x30, 0x60, 
  0x70, 0xF0, 0xC0, 0xC0, 0xE0, 0x0F, 0xC0, 0x03, 0xFF, 0xC0, 0xFF, 0x00, 
  0x00, 0x00, 0x00, 0x00, 0x00, 0x00, 0x00, 0x00, 0x00, 0x00, 0x00, 0x00, 
  0x00, 0x00, 0x00, 0x00, 0x00, 0x3C, 0x30, 0x70, 0x30, 0x00, 0xC0, 0xC0, 
  0xC1, 0x0F, 0xC0, 0x03, 0xFF, 0xC0, 0xFF, 0x00, 0x00, 0x00, 0x00, 0x00, 
  0x00, 0x00, 0x00, 0x00, 0x00, 0x00, 0x00, 0x00, 0x00, 0x00, 0x00, 0x00, 
  0x00, 0x3C, 0x70, 0x70, 0x30, 0x00, 0xC0, 0xC0, 0xC1, 0x0F, 0xC0, 0x03, 
  0xFF, 0xC0, 0xFF, 0x00, 0x00, 0x00, 0x00, 0x00, 0x00, 0x00, 0x00, 0x00, 
  0x00, 0x00, 0x00, 0x00, 0x00, 0x00, 0x00, 0x00, 0x00, 0x3C, 0x70, 0x70, 
  0x30, 0x00, 0xC0, 0xC0, 0xC1, 0x0F, 0xE0, 0x03, 0xFF, 0xC0, 0xFF, 0x00, 
  0x00, 0x00, 0x00, 0x00, 0x00, 0x00, 0x00, 0x00, 0x00, 0x00, 0x00, 0x00, 
  0x00, 0x00, 0x00, 0x00, 0x00, 0x3C, 0x70, 0x70, 0x30, 0x00, 0x80, 0xC0, 
  0x81, 0x0F, 0xE0, 0x03, 0xFF, 0xC0, 0xFF, 0x00, 0x00, 0x00, 0x00, 0x00, 
  0x00, 0x00, 0x00, 0x00, 0x00, 0x00, 0x00, 0x00, 0x00, 0x00, 0x00, 0x00, 
  0x00, 0x3C, 0x70, 0x70, 0x30, 0x00, 0x80, 0xC0, 0x83, 0x0F, 0xE0, 0x03, 
  0xFF, 0xC0, 0xFF, 0x00, 0x00, 0x00, 0x00, 0x00, 0x00, 0x00, 0x00, 0x00, 
  0x00, 0x00, 0x00, 0x00, 0x00, 0x00, 0x00, 0x00, 0x00, 0x3C, 0x70, 0x70, 
  0x30, 0xF8, 0x81, 0xC0, 0x83, 0x1F, 0xE0, 0x03, 0xC0, 0x00, 0xF8, 0x00, 
  0x00, 0x00, 0x00, 0x00, 0x00, 0x00, 0x00, 0x00, 0x00, 0x00, 0x00, 0x00, 
  0x00, 0x00, 0x00, 0x00, 0x00, 0x3C, 0x70, 0x78, 0x20, 0xF8, 0x01, 0xC0, 
  0x83, 0x1F, 0xE0, 0x03, 0xC0, 0x00, 0xF8, 0x00, 0x00, 0x00, 0x00, 0x00, 
  0x00, 0x00, 0x00, 0x00, 0x00, 0x00, 0x00, 0x00, 0x00, 0x00, 0x00, 0x00, 
  0x00, 0x3C, 0xF0, 0x78, 0x00, 0xF8, 0x03, 0xC0, 0x03, 0x1F, 0xE0, 0x03, 
  0xC0, 0x00, 0xF8, 0x00, 0x00, 0x00, 0x00, 0x00, 0x00, 0x00, 0x00, 0x00, 
  0x00, 0x00, 0x00, 0x00, 0x00, 0x00, 0x00, 0x00, 0x00, 0x3C, 0xF0, 0x78, 
  0x00, 0xF8, 0x03, 0xC0, 0x07, 0x1F, 0xE0, 0x03, 0xC0, 0x00, 0xF8, 0x00, 
  0x00, 0x00, 0x00, 0x00, 0x00, 0x00, 0x00, 0x00, 0x00, 0x00, 0x00, 0x00, 
  0x00, 0x00, 0x00, 0x00, 0x00, 0x3C, 0xF0, 0x78, 0x00, 0xF8, 0x03, 0xC0, 
  0x07, 0x1F, 0xF0, 0x03, 0xC0, 0x00, 0xF8, 0x00, 0x00, 0x00, 0x00, 0x00, 
  0x00, 0x00, 0x00, 0x00, 0x00, 0x00, 0x00, 0x00, 0x00, 0x00, 0x00, 0x00, 
  0x00, 0x7C, 0xF0, 0x7F, 0x00, 0xFC, 0x03, 0xE0, 0x1F, 0x3F, 0xF0, 0x07, 
  0xE0, 0x00, 0xF8, 0x00, 0x00, 0x00, 0x00, 0x00, 0x00, 0x00, 0x00, 0x00, 
  0x00, 0x00, 0x00, 0x00, 0x00, 0x00, 0x00, 0x00, 0x00, 0xFC, 0xFF, 0xFF, 
  0xFF, 0xFF, 0xFF, 0xFF, 0xFF, 0xFF, 0xFF, 0xFF, 0xFF, 0xFF, 0xFF, 0x00, 
  0x00, 0x00, 0x00, 0x00, 0x00, 0x00, 0x00, 0x00, 0x00, 0x00, 0x00, 0x00, 
  0x00, 0x00, 0x00, 0x00, 0x00, 0xFC, 0xFF, 0xFF, 0xFF, 0xFF, 0xFF, 0xFF, 
  0xFF, 0xFF, 0xFF, 0xFF, 0xFF, 0xFF, 0xFF, 0x00, 0x00, 0x00, 0x00, 0x00, 
  0x00, 0x00, 0x00, 0x00, 0x00, 0x00, 0x00, 0x00, 0x00, 0x00, 0x00, 0x00, 
  0x00, 0xFC, 0xFF, 0xFF, 0xFF, 0xFF, 0xFF, 0xFF, 0xFF, 0xFF, 0xFF, 0xFF, 
  0xFF, 0xFF, 0xFF, 0x00, 0x00, 0x00, 0x00, 0x00, 0x00, 0x00, 0x00, 0x00, 
  0x00, 0x00, 0x00, 0x00, 0x00, 0x00, 0x00, 0x00, 0x00, 0xFC, 0xFF, 0xFF, 
  0xFF, 0xFF, 0xFF, 0xFF, 0xFF, 0xFF, 0xFF, 0xFF, 0xFF, 0xFF, 0xFF, 0x00, 
  0x00, 0x00, 0x00, 0x00, 0x00, 0x00, 0x00, 0x00, 0x00, 0x00, 0x00, 0x00, 
  0x00, 0x00, 0x00, 0x00, 0x00, 0xFC, 0xFF, 0xFF, 0xFF, 0xFF, 0xFF, 0xFF, 
  0xFF, 0xFF, 0xFF, 0xFF, 0xFF, 0xFF, 0xFF, 0x00, 0x00, 0x00, 0x00, 0x00, 
  0x00, 0x00, 0x00, 0x00, 0x00, 0x00, 0x00, 0x00, 0x00, 0x00, 0x00, 0x00, 
  0x00, 0x00, 0x00, 0x00, 0x00, 0x00, 0x00, 0x00, 0x00, 0x00, 0x00, 0x00, 
  0x00, 0x00, 0x00, 0x00, 0x00, 0x00, 0x00, 0x00, 0x00, 0x00, 0x00, 0x00, 
  0x00, 0x00, 0x00, 0x00, 0x00, 0x00, 0x00, 0x00, 0x00, 0x00, 0x00, 0x00, 
  0x00, 0x00, 0x00, 0x00, 0x00, 0x00, 0x00, 0x00, 0x00, 0x00, 0x00, 0x00, 
  0x00, 0x00, 0x00, 0x00, 0x00, 0x00, 0x00, 0x00, 0x00, 0x00, 0x00, 0x00, 
  0x00, 0xE0, 0xFF, 0xE7, 0xE7, 0xF3, 0xFF, 0xF9, 0xFF, 0xFE, 0x7F, 0xE0, 
  0xF3, 0xF9, 0xFF, 0xFC, 0x7F, 0xFC, 0x1F, 0xFF, 0xDF, 0xFF, 0x0F, 0x00, 
  0x00, 0x00, 0x00, 0x00, 0x00, 0x00, 0x00, 0x00, 0x00, 0xE0, 0xFF, 0xE7, 
  0xE7, 0xF3, 0xFF, 0xF9, 0x7F, 0xFE, 0x7F, 0xE0, 0xF3, 0xF9, 0xFF, 0xFC, 
  0x7F, 0xFE, 0x3F, 0xFF, 0xCF, 0xFF, 0x0F, 0x00, 0x00, 0x00, 0x00, 0x00, 
  0x00, 0x00, 0x00, 0x00, 0x00, 0xE0, 0xFF, 0xE3, 0xE7, 0xF3, 0xFF, 0xF9, 
  0x7F, 0xFE, 0x7F, 0xE0, 0xF3, 0xF9, 0x7F, 0xFC, 0x7F, 0xFE, 0x3F, 0xFF, 
  0xCF, 0xFF, 0x07, 0x00, 0x00, 0x00, 0x00, 0x00, 0x00, 0x00, 0x00, 0x00, 
  0x00, 0xE0, 0x07, 0xE0, 0xE7, 0xF3, 0xF9, 0xF9, 0x00, 0x7E, 0x7E, 0xE0, 
  0xF3, 0xF9, 0x01, 0x7C, 0x7E, 0x3F, 0x7E, 0x1F, 0xC0, 0x0F, 0x00, 0x00, 
  0x00, 0x00, 0x00, 0x00, 0x00, 0x00, 0x00, 0x00, 0x00, 0xE0, 0x0F, 0xE0, 
  0xE7, 0xF3, 0xFF, 0xF9, 0x00, 0xFE, 0x7F, 0xE0, 0xF3, 0xF9, 0x01, 0x7C, 
  0x7F, 0x3F, 0x7E, 0x1F, 0xC0, 0x1F, 0x00, 0x00, 0x00, 0x00, 0x00, 0x00, 
  0x00, 0x00, 0x00, 0x00, 0x00, 0xE0, 0x1F, 0xE0, 0xE7, 0xF3, 0xFF, 0xF9, 
  0xFF, 0xFE, 0x7F, 0xE0, 0xFF, 0xF9, 0xFF, 0xFC, 0x7F, 0x3F, 0x7C, 0xFF, 
  0xDF, 0x3F, 0x00, 0x00, 0x00, 0x00, 0x00, 0x00, 0x00, 0x00, 0x00, 0x00, 
  0x00, 0x80, 0x7F, 0xE0, 0xE7, 0xF3, 0x7F, 0xF8, 0xFF, 0xFE, 0x0F, 0xE0, 
  0xFF, 0xF9, 0xFF, 0xFC, 0x1F, 0x3F, 0x7C, 0xFF, 0x1F, 0xFF, 0x00, 0x00, 
  0x00, 0x00, 0x00, 0x00, 0x00, 0x00, 0x00, 0x00, 0x00, 0x00, 0xFE, 0xE1, 
  0xE7, 0xF3, 0x1F, 0xF8, 0xFF, 0xFE, 0x0F, 0xE0, 0xFF, 0xF9, 0xFF, 0xFC, 
  0x1F, 0x1F, 0x7C, 0xFF, 0x1F, 0xFC, 0x03, 0x00, 0x00, 0x00, 0x00, 0x00, 
  0x00, 0x00, 0x00, 0x00, 0x00, 0x00, 0xFC, 0xE3, 0xE7, 0xF3, 0x07, 0xF8, 
  0x00, 0xFE, 0x1F, 0xE0, 0xF3, 0xF9, 0x01, 0xFC, 0x9F, 0x1F, 0xFC, 0x1F, 
  0x00, 0xF8, 0x07, 0x00, 0x00, 0x00, 0x00, 0x00, 0x00, 0x00, 0x00, 0x00, 
  0x00, 0x00, 0xF8, 0xE7, 0xFF, 0xF3, 0x01, 0xF8, 0x00, 0xFE, 0x1F, 0xE0, 
  0xF3, 0xF9, 0x01, 0xFC, 0xBF, 0x1F, 0xF8, 0x1F, 0x00, 0xF0, 0x0F, 0x00, 
  0x00, 0x00, 0x00, 0x00, 0x00, 0x00, 0x00, 0x00, 0x00, 0xF0, 0xFF, 0xC7, 
  0xFF, 0xF3, 0x01, 0xF8, 0xFF, 0xFF, 0x3F, 0xE0, 0xF3, 0xF9, 0xFF, 0x7F, 
  0xBF, 0xFF, 0xFF, 0xFF, 0xFF, 0xFF, 0x0F, 0x00, 0x00, 0x00, 0x00, 0x00, 
  0x00, 0x00, 0x00, 0x00, 0x00, 0xF0, 0xFF, 0x87, 0xFF, 0xF3, 0x01, 0xF8, 
  0xFF, 0xFF, 0x7F, 0xE0, 0xF3, 0xF9, 0xFF, 0x7F, 0xFF, 0xFF, 0xFF, 0xFF, 
  0xFF, 0xFF, 0x0F, 0x00, 0x00, 0x00, 0x00, 0x00, 0x00, 0x00, 0x00, 0x00, 
  0x00, 0xF0, 0xFF, 0x07, 0xFE, 0xF3, 0x01, 0xF8, 0xFF, 0x7F, 0x7F, 0xE0, 
  0xF3, 0xF9, 0xFF, 0x7F, 0xFF, 0xFF, 0xFF, 0xFF, 0xFF, 0xFF, 0x0F, 0x00, 
  0x00, 0x00, 0x00, 0x00, 0x00, 0x00, 0x00, 0x00, 0x00, 0x00, 0x00, 0x00, 
  0x00, 0x00, 0x00, 0x00, 0x00, 0x00, 0x00, 0x00, 0x00, 0x00, 0x00, 0x00, 
  0x00, 0x00, 0x00, 0x00, 0x00, 0x00, 0x00, 0x00, 0x00, 0x00, 0x00, 0x00, 
  0x00, 0x00, 0x00, 0x00, 0x00, 0x00, 0x00, 0x00, 0x00, 0x00, 0x00, 0x00, 
  0x00, 0x00, 0x00, 0x00, 0x00, 0x00, 0x00, 0x00, 0x00, 0x00, 0x00, 0x00, 
  0x00, 0x00, 0x00, 0x00, 0x00, 0x00, 0x00, 0x00, };
