#define 0a223255153345f6bdda6dd133c08257GyjopcXMSf7toJ5g_width 256
#define 0a223255153345f6bdda6dd133c08257GyjopcXMSf7toJ5g_height 64
static char 0a223255153345f6bdda6dd133c08257GyjopcXMSf7toJ5g_bits[] = {
  0x00, 0x00, 0x00, 0x00, 0x00, 0x00, 0x00, 0x00, 0x00, 0x00, 0x00, 0x00, 
  0x00, 0x01, 0x00, 0x00, 0x00, 0x00, 0x00, 0x00, 0x00, 0x00, 0x00, 0x00, 
  0x01, 0x00, 0x00, 0x00, 0x00, 0x00, 0x01, 0x00, 0x00, 0x00, 0x00, 0x00, 
  0x00, 0x00, 0x00, 0x00, 0x00, 0x00, 0x00, 0x00, 0x00, 0x00, 0x00, 0x00, 
  0x00, 0x10, 0x00, 0x00, 0x00, 0x00, 0x00, 0x00, 0x00, 0x00, 0x00, 0x00, 
  0x00, 0x00, 0x00, 0x00, 0x00, 0x00, 0x00, 0x00, 0x00, 0x00, 0x00, 0x00, 
  0x80, 0xFF, 0x8F, 0x00, 0x80, 0x00, 0x00, 0x00, 0x00, 0x00, 0x00, 0x80, 
  0x00, 0x00, 0x00, 0x00, 0x00, 0x00, 0x00, 0x00, 0x00, 0x00, 0x00, 0x00, 
  0x00, 0x00, 0x00, 0x00, 0x00, 0x00, 0x00, 0x00, 0x20, 0xFF, 0x3F, 0x00, 
  0x00, 0x00, 0x40, 0x00, 0x00, 0x00, 0x00, 0x00, 0x00, 0x00, 0x00, 0x00, 
  0x80, 0x07, 0x00, 0x00, 0x00, 0x00, 0x00, 0x40, 0x00, 0x00, 0x00, 0x00, 
  0x00, 0x00, 0x00, 0x00, 0x10, 0xFF, 0xFF, 0x00, 0x00, 0x00, 0x00, 0x00, 
  0x00, 0x00, 0x00, 0x00, 0x00, 0x00, 0x00, 0x00, 0x40, 0x0E, 0x00, 0x00, 
  0x00, 0x00, 0x00, 0x00, 0x00, 0x00, 0x00, 0x00, 0x00, 0x00, 0x00, 0x00, 
  0x88, 0xFF, 0xFF, 0x00, 0x00, 0x00, 0x00, 0x00, 0x00, 0x00, 0x00, 0x00, 
  0x00, 0x00, 0x00, 0x00, 0x00, 0x0F, 0x00, 0x00, 0x00, 0x00, 0x00, 0x00, 
  0x00, 0x00, 0x00, 0x00, 0x00, 0x00, 0x00, 0x00, 0xC8, 0xFF, 0xFF, 0x01, 
  0x10, 0x08, 0x00, 0x00, 0x00, 0x80, 0x00, 0x10, 0x00, 0x00, 0x00, 0x00, 
  0x80, 0x0F, 0x00, 0x00, 0x00, 0x00, 0x00, 0x00, 0x00, 0x00, 0x00, 0x00, 
  0x00, 0x00, 0x00, 0x00, 0xCC, 0x1F, 0xFF, 0x01, 0x00, 0x00, 0x00, 0x00, 
  0x00, 0x00, 0x00, 0x00, 0x00, 0x00, 0x00, 0x00, 0x80, 0x0F, 0x00, 0x00, 
  0x00, 0x00, 0x00, 0x00, 0x00, 0x00, 0x00, 0xA0, 0x3D, 0x00, 0x00, 0x00, 
  0xFC, 0x0F, 0xFE, 0x01, 0x00, 0x00, 0x01, 0x00, 0x00, 0x00, 0x00, 0x00, 
  0x00, 0x00, 0x00, 0x00, 0x80, 0x0F, 0x00, 0x00, 0x00, 0x00, 0x00, 0x00, 
  0x00, 0x00, 0x00, 0x78, 0x3F, 0x00, 0x00, 0x00, 0xFC, 0x07, 0xFC, 0x01, 
  0x00, 0x00, 0x00, 0x00, 0x00, 0x00, 0x00, 0xE0, 0x13, 0x00, 0x00, 0x00, 
  0xC0, 0x0F, 0x00, 0x00, 0x00, 0x00, 0x00, 0x00, 0x00, 0x00, 0xC0, 0xFF, 
  0xFB, 0x07, 0x00, 0x00, 0xFC, 0x07, 0xFC, 0x01, 0x00, 0x00, 0x00, 0x80, 
  0x00, 0x00, 0x00, 0x90, 0x07, 0x00, 0x00, 0x00, 0xC0, 0x0F, 0x70, 0x00, 
  0x00, 0x80, 0x00, 0x00, 0x00, 0x00, 0x60, 0x5A, 0xBD, 0x1F, 0x00, 0x00, 
  0xFC, 0x0F, 0xFE, 0x01, 0x00, 0x00, 0x00, 0x00, 0x00, 0x00, 0x40, 0xD0, 
  0x07, 0x00, 0x00, 0x00, 0xC0, 0x0F, 0xE4, 0x00, 0x00, 0x00, 0x00, 0x00, 
  0x00, 0x00, 0x60, 0xB8, 0xEE, 0x0F, 0x00, 0x00, 0xFC, 0x1F, 0xFF, 0x01, 
  0x00, 0x00, 0x00, 0x00, 0x00, 0x00, 0x00, 0xF0, 0x07, 0x00, 0x00, 0x00, 
  0xC0, 0x0F, 0xFA, 0x00, 0x00, 0x00, 0x00, 0x00, 0x00, 0x00, 0x38, 0xDB, 
  0x77, 0x3F, 0x00, 0x00, 0xFC, 0xFF, 0xFF, 0x00, 0x00, 0x00, 0x00, 0x00, 
  0x00, 0x00, 0x00, 0xF0, 0x07, 0x00, 0x00, 0x00, 0xC0, 0x0F, 0xFD, 0x00, 
  0x00, 0x00, 0x00, 0x00, 0x00, 0x00, 0x98, 0xFF, 0xAA, 0x3F, 0x00, 0x00, 
  0xFC, 0xFF, 0xFF, 0x00, 0x00, 0x00, 0x00, 0x10, 0x00, 0x00, 0x00, 0xE0, 
  0x83, 0x00, 0x00, 0x00, 0xC8, 0x8F, 0xFF, 0x00, 0x00, 0x10, 0x00, 0x08, 
  0x00, 0x00, 0xC8, 0x5A, 0xFF, 0x3E, 0x00, 0x00, 0xFC, 0xFF, 0x7F, 0x00, 
  0x00, 0x00, 0x00, 0x00, 0x00, 0x00, 0x00, 0x00, 0x00, 0x00, 0x00, 0x00, 
  0xC0, 0xDF, 0x7F, 0x00, 0x00, 0x00, 0x00, 0x00, 0x00, 0x00, 0xCA, 0xEB, 
  0x9A, 0xFB, 0x00, 0x00, 0xFC, 0xFF, 0x1F, 0x00, 0x00, 0x00, 0x00, 0x00, 
  0x00, 0x00, 0x00, 0x00, 0x00, 0x00, 0x00, 0x00, 0xC0, 0xFF, 0x3F, 0x00, 
  0x00, 0x00, 0x00, 0x00, 0x00, 0x00, 0xBE, 0x7F, 0xFF, 0xFE, 0x00, 0x00, 
  0xFC, 0xFF, 0x07, 0x00, 0x10, 0x00, 0x10, 0x00, 0x00, 0x00, 0x00, 0x00, 
  0x00, 0x00, 0x00, 0x00, 0xC0, 0xFF, 0x1F, 0x00, 0x00, 0x00, 0x00, 0x00, 
  0x00, 0x00, 0x3E, 0xA8, 0x0F, 0xFE, 0x00, 0x00, 0xFC, 0x1F, 0x00, 0x7F, 
  0x80, 0x03, 0x00, 0x90, 0x03, 0x38, 0x70, 0xE0, 0x83, 0x03, 0x00, 0x00, 
  0xC0, 0xFF, 0x0F, 0xE0, 0xC0, 0x01, 0x07, 0x00, 0x00, 0x00, 0x0A, 0xF0, 
  0x05, 0xF8, 0x01, 0x00, 0xFC, 0x0F, 0x40, 0xFE, 0x41, 0xD6, 0x03, 0xE4, 
  0x0F, 0x64, 0xC8, 0x90, 0x47, 0xD6, 0x03, 0x00, 0xC0, 0xFF, 0x07, 0x90, 
  0x21, 0x83, 0xAC, 0x47, 0x00, 0x80, 0x0F, 0xE0, 0x03, 0xF8, 0x01, 0x00, 
  0xFC, 0x07, 0xA0, 0xE3, 0x41, 0xEF, 0x07, 0xF2, 0x1F, 0x74, 0xE8, 0xD0, 
  0x47, 0xEF, 0x07, 0x00, 0xC0, 0xFF, 0x07, 0xD0, 0xA1, 0x83, 0xDE, 0x0F, 
  0x00, 0x00, 0x1D, 0x07, 0xF0, 0xB8, 0x03, 0x00, 0xFC, 0x07, 0x80, 0xC1, 
  0x43, 0xFF, 0x0F, 0xF2, 0x1F, 0x74, 0xE8, 0xD0, 0x47, 0xFF, 0x0F, 0x00, 
  0xC0, 0xFF, 0x07, 0xD0, 0xA1, 0x83, 0xFE, 0x1F, 0x00, 0x80, 0xC6, 0x07, 
  0xF8, 0xF9, 0x03, 0x00, 0xFC, 0x07, 0x90, 0xC1, 0x43, 0xFF, 0x0F, 0x3F, 
  0x3F, 0x7C, 0xF8, 0xF0, 0x47, 0xFF, 0x0F, 0xFF, 0xC3, 0xFF, 0x0F, 0xF0, 
  0xE1, 0x83, 0xFE, 0x1F, 0x00, 0x00, 0xC7, 0x1F, 0xF8, 0xE1, 0x01, 0x00, 
  0xFC, 0x0F, 0xB0, 0xE3, 0xC3, 0xFF, 0x0F, 0x1F, 0x3E, 0x7C, 0xF8, 0xF0, 
  0xC7, 0xFF, 0x8F, 0xF1, 0xC7, 0xFF, 0x1F, 0xF0, 0xE1, 0x83, 0xFF, 0x1F, 
  0x00, 0x40, 0xC3, 0x44, 0xD0, 0xE3, 0x07, 0x00, 0xFC, 0x0F, 0xF0, 0xFF, 
  0xC1, 0xCF, 0x0F, 0x1F, 0x3E, 0x7C, 0xF8, 0xF0, 0xC7, 0xCF, 0x8F, 0xFE, 
  0xC7, 0xFF, 0x3F, 0xF0, 0xE1, 0x83, 0x9F, 0x1F, 0x00, 0xC0, 0xC6, 0x80, 
  0x01, 0xF1, 0x07, 0x00, 0xFC, 0x0F, 0xF0, 0x7F, 0xC0, 0x87, 0x0F, 0x3F, 
  0x3F, 0x7C, 0xF8, 0xF0, 0xC7, 0x87, 0x8F, 0xFF, 0xD7, 0xFF, 0x7F, 0xF0, 
  0xE1, 0x93, 0x0F, 0x1F, 0x00, 0xC0, 0x01, 0xD8, 0x0B, 0xE0, 0x07, 0x00, 
  0xFC, 0x0F, 0xF0, 0x03, 0xC0, 0x87, 0x0F, 0xFF, 0x3F, 0xFC, 0xFC, 0xF0, 
  0xC7, 0x87, 0x0F, 0xFF, 0xC3, 0xFF, 0x7F, 0xF0, 0xF3, 0x83, 0x0F, 0x1F, 
  0x00, 0x40, 0x07, 0xF8, 0x1F, 0xF0, 0x07, 0x00, 0xF8, 0x0F, 0xF0, 0x01, 
  0xC0, 0x87, 0x0F, 0xFE, 0x3F, 0xFC, 0xFF, 0xF0, 0xC7, 0x87, 0x4F, 0x00, 
  0xC0, 0x9F, 0xFF, 0xF0, 0xFF, 0x83, 0x4F, 0x1F, 0xC0, 0xC1, 0x85, 0xFF, 
  0x7F, 0xE0, 0xC7, 0x03, 0xF8, 0x0F, 0xE0, 0x03, 0xC0, 0x87, 0x0F, 0xFE, 
  0x1F, 0xFC, 0xFF, 0xF0, 0xC7, 0x87, 0x0F, 0x00, 0xC0, 0x0F, 0xFF, 0xF0, 
  0xFF, 0x83, 0x0F, 0x1F, 0xC0, 0x47, 0x0B, 0xFC, 0xDF, 0xF8, 0xFF, 0x01, 
  0xF0, 0x07, 0xE0, 0xFF, 0xC1, 0x87, 0x0F, 0xFC, 0x0F, 0xF8, 0xFF, 0xF0, 
  0xC7, 0x87, 0x0F, 0x00, 0xC0, 0x0F, 0xFE, 0xE0, 0xFF, 0x83, 0x0F, 0x1F, 
  0xC0, 0xCB, 0x0F, 0xFC, 0x7F, 0xF8, 0xFF, 0x01, 0xE0, 0x03, 0xC0, 0xFF, 
  0xC1, 0x87, 0x0F, 0xF0, 0xBF, 0xF8, 0xFF, 0xE0, 0xC3, 0x87, 0x0F, 0x00, 
  0xC0, 0x0F, 0xFC, 0xE0, 0xFF, 0x83, 0x0F, 0x1F, 0x80, 0xFF, 0x7A, 0xF8, 
  0x37, 0xF7, 0xFF, 0x00, 0x00, 0x00, 0x00, 0xFF, 0x80, 0x03, 0x07, 0xF0, 
  0x3F, 0xE0, 0xF7, 0x00, 0x80, 0x03, 0x07, 0x00, 0x80, 0x07, 0x70, 0x80, 
  0xDF, 0x03, 0x07, 0x0E, 0x00, 0x5E, 0x5F, 0xB8, 0x0F, 0xF6, 0x7F, 0x00, 
  0x00, 0x00, 0x00, 0x00, 0x00, 0x00, 0x00, 0xF4, 0x3F, 0x00, 0x00, 0x00, 
  0x00, 0x00, 0x00, 0x00, 0x00, 0x00, 0x00, 0x00, 0x00, 0x00, 0x00, 0x00, 
  0x00, 0xFE, 0x35, 0xDC, 0x1E, 0xFC, 0x3F, 0x00, 0x00, 0x00, 0x00, 0x00, 
  0x00, 0x00, 0x00, 0xF9, 0x1F, 0x00, 0x00, 0x00, 0x00, 0x00, 0x00, 0x00, 
  0x00, 0x00, 0x00, 0x00, 0x00, 0x10, 0x00, 0x00, 0x00, 0xDC, 0x3E, 0xF0, 
  0x07, 0xF6, 0x1F, 0x00, 0x00, 0x00, 0x00, 0x00, 0x00, 0x80, 0x80, 0x8C, 
  0x0F, 0x00, 0x00, 0x00, 0x80, 0x00, 0x00, 0x00, 0x00, 0x00, 0x00, 0x00, 
  0x00, 0x00, 0x00, 0x00, 0x00, 0xB8, 0x0F, 0xE0, 0x07, 0xBC, 0x07, 0x00, 
  0x00, 0x00, 0x00, 0x00, 0x00, 0x00, 0x80, 0x06, 0x1F, 0x00, 0x00, 0x00, 
  0x00, 0x00, 0x00, 0x40, 0x00, 0x00, 0x00, 0x00, 0x00, 0x00, 0x40, 0x00, 
  0x00, 0xF0, 0x06, 0x00, 0x00, 0xF8, 0x07, 0x00, 0x00, 0x00, 0x00, 0x00, 
  0x00, 0x00, 0xC0, 0x07, 0x1F, 0x00, 0x00, 0x00, 0x00, 0x00, 0x00, 0x00, 
  0x00, 0x00, 0x00, 0x00, 0x00, 0x00, 0x00, 0x00, 0x00, 0x80, 0x0F, 0x00, 
  0x00, 0xF8, 0x05, 0x00, 0x00, 0x00, 0x00, 0x00, 0x00, 0x00, 0xC0, 0x8F, 
  0x1F, 0x00, 0x00, 0x00, 0x00, 0x00, 0x00, 0x00, 0x00, 0x00, 0x00, 0x00, 
  0x00, 0x00, 0x00, 0x00, 0x00, 0x80, 0x05, 0x00, 0x00, 0xF8, 0x00, 0x00, 
  0x00, 0x00, 0x00, 0x08, 0x00, 0x10, 0xC0, 0xFF, 0x1F, 0x00, 0x00, 0x00, 
  0x10, 0x00, 0x00, 0x00, 0x00, 0x00, 0x00, 0x00, 0x00, 0x80, 0x00, 0x00, 
  0x00, 0x00, 0x0F, 0x00, 0x00, 0xF0, 0x01, 0x00, 0x00, 0x00, 0x00, 0x00, 
  0x00, 0x00, 0xC0, 0xFF, 0x0F, 0x00, 0x00, 0x00, 0x00, 0x00, 0x00, 0x00, 
  0x00, 0x00, 0x00, 0x00, 0x00, 0x00, 0x00, 0x00, 0x00, 0x80, 0x07, 0x00, 
  0x00, 0xB8, 0x03, 0x00, 0x00, 0x00, 0x00, 0x00, 0x01, 0x00, 0x80, 0xFF, 
  0x0F, 0x00, 0x00, 0x00, 0x00, 0x00, 0x00, 0x00, 0x00, 0x00, 0x00, 0x00, 
  0x00, 0x00, 0x00, 0x00, 0x00, 0x00, 0x0D, 0x00, 0x00, 0xF8, 0x01, 0x00, 
  0x00, 0x00, 0x00, 0x00, 0x00, 0x00, 0x00, 0xFF, 0x07, 0x00, 0x00, 0x00, 
  0x00, 0x00, 0x00, 0x00, 0x00, 0x00, 0x00, 0x00, 0x00, 0x00, 0x00, 0x00, 
  0x00, 0x80, 0x0F, 0x00, 0x00, 0xF8, 0x03, 0x00, 0x00, 0x00, 0x00, 0x00, 
  0x80, 0x00, 0x00, 0xFC, 0x00, 0x00, 0x00, 0x00, 0x00, 0x00, 0x00, 0x00, 
  0x00, 0x00, 0x00, 0x00, 0x00, 0x00, 0x00, 0x00, 0x00, 0x00, 0x05, 0x00, 
  0x00, 0xF8, 0x01, 0x00, 0x00, 0x00, 0x40, 0x00, 0x00, 0x00, 0x00, 0x00, 
  0x00, 0x00, 0x00, 0x00, 0x00, 0x00, 0x00, 0x00, 0x00, 0x40, 0x00, 0x00, 
  0x00, 0x40, 0x00, 0x00, 0x00, 0x00, 0x0C, 0x00, 0x00, 0xD8, 0x00, 0x00, 
  0x00, 0x00, 0x00, 0x00, 0x00, 0x00, 0x00, 0x00, 0x00, 0x00, 0x00, 0x00, 
  0x00, 0x00, 0x00, 0x00, 0x00, 0x00, 0x00, 0x00, 0x00, 0x00, 0x00, 0x00, 
  0x00, 0x00, 0x33, 0x00, 0x00, 0xAE, 0x01, 0x00, 0x00, 0x00, 0x00, 0x00, 
  0x00, 0x00, 0x00, 0x00, 0x00, 0x00, 0x00, 0x00, 0x00, 0x00, 0x00, 0x00, 
  0x00, 0x00, 0x00, 0x00, 0x00, 0x00, 0x00, 0x00, 0x00, 0x00, 0x3A, 0x00, 
  0x00, 0xBE, 0x03, 0x00, 0x08, 0x00, 0x00, 0x00, 0x10, 0x00, 0x08, 0x00, 
  0x00, 0x00, 0x00, 0x00, 0x00, 0x00, 0x00, 0x00, 0x00, 0x00, 0x00, 0x00, 
  0x08, 0x00, 0x00, 0x00, 0x00, 0x40, 0xF5, 0x00, 0x00, 0x67, 0x06, 0x00, 
  0x00, 0x00, 0x00, 0x00, 0x00, 0xC0, 0x03, 0xC0, 0x03, 0xE0, 0x01, 0xE0, 
  0xC1, 0x01, 0xFE, 0x03, 0x00, 0x00, 0x00, 0x00, 0x00, 0x00, 0x00, 0x00, 
  0x00, 0xC0, 0xF5, 0x00, 0x80, 0x55, 0x03, 0x00, 0x00, 0x01, 0x00, 0x00, 
  0x00, 0xA0, 0xC7, 0xE3, 0x07, 0xF8, 0x07, 0xB0, 0xF7, 0x83, 0xFB, 0x0F, 
  0x00, 0x00, 0x00, 0x00, 0x00, 0x01, 0x00, 0x00, 0x00, 0xC0, 0x9A, 0x01, 
  0xC0, 0xAB, 0x03, 0x00, 0x00, 0x00, 0x00, 0x00, 0x00, 0xA0, 0xFF, 0xFF, 
  0x07, 0xE4, 0x0F, 0x90, 0xFF, 0xD3, 0xFC, 0x1F, 0x00, 0x00, 0x00, 0x00, 
  0x00, 0x00, 0x00, 0x00, 0x00, 0x80, 0xA9, 0x01, 0xC0, 0xDA, 0x00, 0x00, 
  0x00, 0x00, 0x00, 0x00, 0x00, 0xD0, 0xFF, 0xFF, 0x07, 0xFA, 0x0F, 0xD0, 
  0xFF, 0xC3, 0xFE, 0x1F, 0x00, 0x00, 0x00, 0x00, 0x00, 0x00, 0x00, 0x00, 
  0x00, 0x80, 0xDF, 0x01, 0xC0, 0xF5, 0x00, 0x00, 0x00, 0x00, 0x00, 0x00, 
  0x00, 0xD0, 0xFF, 0xFF, 0x07, 0xFF, 0x1F, 0xD0, 0xFF, 0xC3, 0xFF, 0x1F, 
  0x00, 0x00, 0x00, 0x00, 0x00, 0x40, 0x40, 0x00, 0x00, 0x00, 0xE6, 0x00, 
  0x00, 0x3B, 0x00, 0x00, 0x00, 0x00, 0x00, 0x00, 0x00, 0xF0, 0xFF, 0xFF, 
  0x03, 0xFD, 0x1F, 0xF0, 0xFF, 0xC3, 0xFF, 0x0C, 0x00, 0x00, 0x00, 0x00, 
  0x00, 0x00, 0x00, 0x00, 0x00, 0x00, 0xFC, 0xAF, 0xF9, 0x1E, 0x00, 0x00, 
  0x00, 0x00, 0x00, 0x00, 0x00, 0xF0, 0xFF, 0xFF, 0x83, 0xE7, 0x1F, 0xF0, 
  0xFF, 0x01, 0xFF, 0x00, 0x00, 0x00, 0x00, 0x00, 0x00, 0x00, 0x00, 0x00, 
  0x00, 0x00, 0xFC, 0xFF, 0xFF, 0x1E, 0x00, 0x00, 0x00, 0x00, 0x00, 0x00, 
  0x08, 0xE0, 0xFF, 0xFF, 0x8B, 0xCB, 0x3F, 0xF0, 0x7F, 0x80, 0xF8, 0x01, 
  0x00, 0x00, 0x00, 0x00, 0x00, 0x00, 0x00, 0x00, 0x00, 0x00, 0x00, 0xFE, 
  0x3F, 0x00, 0x00, 0x00, 0x00, 0x00, 0x00, 0x00, 0x00, 0xE0, 0xFF, 0xFF, 
  0xC1, 0xC3, 0x3F, 0xF0, 0x3F, 0x00, 0xF0, 0x03, 0x00, 0x00, 0x00, 0x00, 
  0x00, 0x00, 0x00, 0x00, 0x00, 0x00, 0x00, 0xFE, 0x3F, 0x00, 0x00, 0x00, 
  0x00, 0x00, 0x00, 0x00, 0x00, 0xC1, 0xFF, 0xFF, 0xC1, 0xE7, 0x3F, 0xF1, 
  0x1F, 0x00, 0xE0, 0x0F, 0x00, 0x00, 0x00, 0x00, 0x00, 0x00, 0x00, 0x00, 
  0x00, 0x00, 0x00, 0xF0, 0x06, 0x00, 0x00, 0x00, 0x00, 0x00, 0x00, 0x00, 
  0x00, 0xC0, 0xFF, 0xFF, 0xC0, 0xFF, 0x7F, 0xF0, 0x0F, 0x80, 0xE7, 0x1F, 
  0x00, 0x00, 0x00, 0x00, 0x00, 0x00, 0x00, 0x00, 0x00, 0x00, 0x00, 0x00, 
  0x00, 0x00, 0x00, 0x00, 0x00, 0x00, 0x00, 0x00, 0x80, 0x80, 0xFF, 0xFF, 
  0xC0, 0xFF, 0x7F, 0xF0, 0x0F, 0xC0, 0xFF, 0x3F, 0x00, 0x00, 0x00, 0x00, 
  0x00, 0x80, 0x00, 0x00, 0x00, 0x00, 0x00, 0x00, 0x00, 0x00, 0x00, 0x00, 
  0x00, 0x00, 0x00, 0x00, 0x00, 0x80, 0xFF, 0x7F, 0x80, 0xFF, 0xFF, 0xF0, 
  0x0F, 0xC0, 0xFF, 0x3F, 0x40, 0x00, 0x00, 0x00, 0x00, 0x00, 0x00, 0x00, 
  0x00, 0x00, 0x00, 0x00, 0x00, 0x00, 0x00, 0x00, 0x00, 0x00, 0x00, 0x00, 
  0x00, 0x00, 0xFF, 0x7F, 0x80, 0xFF, 0xFE, 0xF0, 0x07, 0xC0, 0xFF, 0x3F, 
  0x00, 0x00, 0x00, 0x00, 0x00, 0x00, 0x00, 0x00, 0x00, 0x00, 0x00, 0x00, 
  0x00, 0x00, 0x00, 0x00, 0x00, 0x00, 0x00, 0x00, 0x00, 0x00, 0x3F, 0x3F, 
  0x00, 0x7F, 0xFE, 0xE0, 0x07, 0x80, 0xFF, 0x3F, 0x00, 0x00, 0x00, 0x00, 
  0x00, 0x00, 0x00, 0x00, 0x00, 0x00, 0x00, 0x00, 0x00, 0x00, 0x00, 0x00, 
  0x00, 0x00, 0x08, 0x00, 0x10, 0x00, 0x0E, 0x1C, 0x00, 0x1C, 0x78, 0xC0, 
  0x03, 0x00, 0xFF, 0x1F, 0x00, 0x00, 0x00, 0x08, 0x00, 0x10, 0x00, 0x00, 
  0x00, 0x00, 0x00, 0x00, 0x00, 0x00, 0x00, 0x00, 0x00, 0x00, 0x00, 0x00, 
  0x00, 0x00, 0x00, 0x00, 0x00, 0x00, 0x00, 0x00, 0x00, 0x00, 0xFC, 0x07, 
  0x00, 0x00, 0x00, 0x00, 0x00, 0x00, 0x00, 0x00, };
