#define _width 256
#define _height 64
static char _bits[] = {
 0x00,0x00,0x00,0x00,0x00,0x00,0x00,0x00,0x00,0x00,0x00,0x00,0x00,0x00,0x00,
 0x00,0x00,0x00,0x00,0x00,0x00,0x00,0x00,0x00,0x00,0x00,0x00,0x00,0x00,0x00,
 0x00,0x00,0x00,0x00,0x00,0x00,0x00,0x00,0x00,0x00,0x00,0x00,0x00,0x00,0x00,
 0x00,0x00,0x00,0x00,0x00,0x00,0x00,0x00,0x00,0x00,0x00,0x00,0x00,0x00,0x00,
 0x00,0x00,0x00,0x00,0x00,0x00,0x00,0x00,0x00,0x00,0x00,0x00,0x00,0x00,0x00,
 0x00,0x00,0x00,0x00,0x00,0x00,0x00,0x00,0x00,0x00,0x00,0x00,0x00,0x00,0x00,
 0x00,0x00,0x00,0x00,0x00,0x00,0x00,0x00,0x00,0x00,0x00,0x00,0x00,0x00,0x00,
 0x00,0x00,0x00,0x00,0x00,0x00,0x00,0x00,0x00,0x00,0x00,0x00,0x00,0x00,0x00,
 0x00,0x00,0x00,0x00,0x00,0x00,0x00,0x00,0x00,0x00,0x00,0x00,0x00,0x00,0x00,
 0x00,0x00,0x00,0x00,0x00,0x00,0x00,0x00,0x00,0x00,0x00,0x00,0x00,0x00,0x00,
 0x00,0x00,0x00,0x00,0x00,0x00,0x00,0x00,0x00,0x00,0x00,0x00,0x00,0x00,0x00,
 0x00,0x00,0x00,0x00,0x00,0x00,0x00,0x00,0x00,0x00,0x00,0x00,0x00,0x00,0x00,
 0x00,0x00,0x00,0x00,0x00,0x00,0x00,0x00,0x00,0x00,0x00,0x00,0x00,0x00,0x00,
 0x00,0x00,0x00,0x00,0x00,0x00,0x00,0x00,0x00,0x00,0x00,0x00,0x00,0x00,0x00,
 0x00,0x00,0x00,0x00,0x00,0x00,0x00,0x00,0x00,0x00,0x00,0x00,0x00,0x00,0x00,
 0x00,0x00,0x00,0x00,0x00,0x00,0x00,0x00,0x00,0x00,0x00,0x00,0x00,0x00,0x00,
 0x00,0x00,0x00,0x00,0x00,0x00,0x00,0x00,0x00,0x00,0x00,0x00,0x00,0x00,0x00,
 0x00,0x00,0x00,0x00,0x00,0x00,0x00,0x00,0x00,0x00,0x00,0x00,0x00,0x00,0x00,
 0x00,0x00,0x00,0x00,0x00,0x00,0x00,0x00,0x00,0x00,0x00,0x00,0x00,0x00,0x00,
 0x00,0x00,0x00,0x00,0x00,0x00,0x00,0x00,0x00,0x00,0x00,0x00,0x00,0x00,0x00,
 0x00,0x00,0x00,0x00,0x00,0x00,0x00,0x00,0x00,0x00,0x00,0x00,0x00,0x00,0x00,
 0x00,0x00,0x00,0x00,0x00,0x00,0x00,0x00,0x00,0x00,0x00,0x00,0x00,0x00,0x00,
 0x00,0x00,0x00,0x00,0x00,0x00,0x00,0x00,0x00,0x00,0x00,0x00,0x00,0x00,0x00,
 0x00,0x00,0x00,0x00,0x00,0x00,0x00,0x00,0x00,0x00,0x00,0x00,0x00,0x00,0x00,
 0x00,0x00,0x00,0x00,0x00,0x00,0x00,0x00,0x00,0x00,0x00,0x00,0x00,0x00,0x00,
 0x00,0x00,0x00,0x00,0x00,0x00,0x00,0x00,0x00,0x00,0x00,0x00,0x00,0x00,0x00,
 0x00,0x00,0x00,0x00,0x00,0x00,0x00,0x00,0x00,0x00,0x00,0x00,0x00,0x00,0x00,
 0x00,0x00,0x00,0x00,0x00,0x00,0x00,0x00,0x00,0x00,0x00,0x00,0x00,0x00,0x00,
 0x00,0x00,0x00,0x00,0x00,0x00,0x00,0x00,0x00,0x00,0x00,0x00,0x00,0x00,0x00,
 0x00,0x00,0x00,0x00,0x00,0x00,0x00,0x00,0x00,0x00,0x00,0x00,0x00,0x00,0x00,
 0x00,0x00,0x00,0x00,0x00,0x00,0x00,0x00,0x00,0x00,0x00,0x00,0x00,0x00,0x00,
 0x00,0x00,0x00,0x00,0x00,0x00,0x00,0x00,0x00,0x00,0x00,0x00,0x00,0x00,0x00,
 0xfc,0xff,0xff,0xff,0xff,0xff,0xff,0xff,0xff,0xff,0xff,0xff,0xff,0xff,0xff,
 0xff,0xff,0xff,0xff,0xff,0xff,0xff,0xff,0xff,0xff,0xff,0xff,0xff,0xff,0xff,
 0xff,0x3f,0xfe,0xff,0xff,0xff,0xff,0xff,0xff,0xff,0xff,0xff,0xff,0xff,0xff,
 0xff,0xff,0xff,0xff,0xff,0xff,0xff,0xff,0xff,0xff,0xff,0xff,0xff,0xff,0xff,
 0xff,0xff,0xff,0x7f,0x07,0x00,0x00,0x00,0x00,0x00,0x00,0x00,0x00,0x00,0x00,
 0x00,0x00,0x00,0x00,0x00,0x00,0x00,0x00,0x00,0x00,0x00,0x00,0x00,0x00,0x00,
 0x00,0x00,0x00,0x00,0x00,0xe0,0x03,0x00,0x00,0x00,0x00,0x00,0x00,0x00,0x00,
 0x00,0x00,0x00,0x00,0x00,0x00,0x00,0x00,0x00,0x00,0x00,0x00,0x00,0x00,0x00,
 0x00,0x00,0x00,0x00,0x00,0x00,0x00,0xc0,0x03,0x00,0x00,0x00,0x00,0xf0,0x1f,
 0x00,0x00,0x00,0x00,0x00,0x00,0x00,0x00,0x00,0x00,0x00,0x00,0x00,0x00,0x00,
 0x00,0x00,0x00,0x00,0x00,0x00,0x00,0x00,0x00,0xc0,0x03,0xfc,0xff,0x07,0x00,
 0xfe,0xff,0x00,0x78,0x00,0x00,0x3e,0x00,0xc0,0x07,0x00,0x00,0x80,0xff,0xff,
 0x00,0x1e,0x00,0x00,0x00,0xf8,0xff,0x0f,0x1f,0x00,0xe0,0xc3,0x03,0xfe,0xff,
 0x1f,0x80,0xff,0xff,0x03,0x78,0x00,0x00,0x3e,0x00,0xc0,0x07,0x00,0x00,0xc0,
 0xff,0xff,0x03,0x1e,0x00,0x00,0x00,0xfe,0xff,0x0f,0x1f,0x00,0xe0,0xc3,0x03,
 0xff,0xff,0x3f,0xc0,0xff,0xff,0x07,0x78,0x00,0x00,0x3e,0x00,0xc0,0x07,0x00,
 0x00,0xe0,0xff,0xff,0x07,0x1e,0x00,0x00,0x00,0xff,0xff,0x0f,0x1f,0x00,0xe0,
 0xc3,0x83,0xff,0xff,0x3f,0xe0,0xff,0xff,0x0f,0x78,0x00,0x00,0x3e,0x00,0xc0,
 0x07,0x00,0x00,0xf0,0xff,0xff,0x07,0x1e,0x00,0x00,0x80,0xff,0xff,0x0f,0x1f,
 0x00,0xe0,0xc3,0x83,0x0f,0x00,0x7f,0xf0,0x07,0xc0,0x1f,0x78,0x00,0x00,0x3e,
 0x00,0xc0,0x07,0x00,0x00,0xf0,0x01,0xe0,0x0f,0x1e,0x00,0x00,0xc0,0x3f,0x00,
 0x0f,0x1f,0x00,0xe0,0xc3,0x83,0x07,0x00,0x7c,0xf0,0x01,0x00,0x1f,0x78,0x00,
 0x00,0x3e,0x00,0xc0,0x07,0x00,0x00,0xf0,0x00,0x80,0x0f,0x1e,0x00,0x00,0xe0,
 0x07,0x00,0x0f,0x1f,0x00,0xe0,0xc3,0x83,0x07,0x00,0xf8,0xf8,0x00,0x00,0x3e,
 0x78,0x00,0x00,0x3e,0x00,0xc0,0x07,0x00,0x00,0xf0,0x00,0x00,0x1f,0x1e,0x00,
 0x00,0xe0,0x03,0x00,0x0f,0x1f,0x00,0xe0,0xc3,0x83,0x07,0x00,0xf8,0xf8,0x00,
 0x00,0x3e,0x78,0x00,0x00,0x3e,0x00,0xc0,0x07,0x00,0x00,0xf0,0x00,0x00,0x1f,
 0x1e,0x00,0x00,0xf0,0x01,0x00,0x0f,0x1f,0x00,0xe0,0xc3,0x83,0x07,0x00,0xf8,
 0xf8,0x00,0x00,0x3e,0x78,0x00,0x00,0x3e,0x00,0xc0,0x07,0x00,0x00,0xf0,0x00,
 0x00,0x1f,0x1e,0x00,0x00,0xf0,0x01,0x00,0x0f,0x1f,0x00,0xe0,0xc3,0x83,0x07,
 0x00,0xf8,0x78,0x00,0x00,0x3c,0x78,0x00,0x00,0x3c,0x00,0xc0,0x07,0x00,0x00,
 0xf0,0x00,0x00,0x1f,0x1e,0x00,0x00,0xf8,0x00,0x00,0x0f,0x1e,0x00,0xe0,0xc3,
 0x83,0x07,0x00,0xf8,0x78,0x00,0x00,0x3c,0x78,0x00,0x00,0x7c,0x00,0xc0,0xc3,
 0xff,0x7f,0xf0,0x00,0x00,0x1f,0x1e,0x00,0x00,0xf8,0x00,0x00,0x0f,0x3e,0x00,
 0xe0,0xc1,0x83,0x07,0x00,0xf8,0x78,0x00,0x00,0x3c,0x78,0x00,0x00,0xfc,0x00,
 0xf0,0xc3,0xff,0x7f,0xf0,0x00,0x00,0x1f,0x1e,0x00,0x00,0xf8,0x00,0x00,0x0f,
 0x7e,0x00,0xf8,0xc1,0x83,0x07,0x00,0xf8,0x78,0x00,0x00,0x3c,0x78,0x00,0x00,
 0xfc,0xff,0xff,0xc3,0xff,0x7f,0xf0,0x00,0x00,0x1f,0x1e,0x00,0x00,0xf8,0x00,
 0x00,0x0f,0xfe,0xff,0xff,0xc1,0x83,0x07,0x00,0x7c,0x78,0x00,0x00,0x3c,0x78,
 0x00,0x00,0xf8,0xff,0xff,0xc1,0xff,0x7f,0xf0,0x00,0x80,0x0f,0x1e,0x00,0x00,
 0xf8,0x00,0x00,0x0f,0xfc,0xff,0xff,0xc0,0x83,0xe7,0xff,0x7f,0x78,0x00,0x00,
 0x3c,0x78,0x00,0x00,0xf0,0xff,0xff,0x00,0x00,0x00,0xf0,0xfc,0xff,0x0f,0x1e,
 0x00,0x00,0xf8,0xff,0xff,0x0f,0xf8,0xff,0x7f,0xc0,0x83,0xe7,0xff,0x3f,0x78,
 0x00,0x00,0x3c,0x78,0x00,0x00,0xe0,0xff,0x7f,0x00,0x00,0x00,0xf0,0xfc,0xff,
 0x07,0x1e,0x00,0x00,0xf8,0xff,0xff,0x0f,0xf0,0xff,0x3f,0xc0,0x83,0xe7,0xff,
 0x1f,0xf8,0x00,0x00,0x3e,0x78,0x00,0x00,0x00,0xff,0x0f,0x00,0x00,0x00,0xf0,
 0xfc,0xff,0x03,0x1e,0x00,0x00,0xf8,0xff,0xff,0x0f,0x80,0xff,0x07,0xc0,0x83,
 0xe7,0xff,0x0f,0xf8,0x00,0x00,0x3e,0x78,0x00,0x00,0x00,0xf0,0x00,0x00,0x00,
 0x00,0xf0,0xfc,0xff,0x01,0x1e,0x00,0x00,0xf8,0xff,0xff,0x0f,0x00,0x78,0x00,
 0xc0,0x83,0xe7,0xff,0x03,0xf8,0x01,0x00,0x3f,0x78,0x00,0x00,0x00,0xf0,0x00,
 0x00,0x00,0x00,0xf0,0xfc,0x7f,0x00,0x1e,0x00,0x00,0xf8,0xff,0xff,0x0f,0x00,
 0x78,0x00,0xc0,0x83,0x07,0x00,0x00,0xf0,0x01,0x80,0x1f,0x78,0x00,0x00,0x00,
 0xf0,0x00,0x00,0x00,0x00,0xf0,0x00,0x00,0x00,0x1e,0x00,0x00,0xf8,0x00,0x00,
 0x0f,0x00,0x78,0x00,0xc0,0x83,0x07,0x00,0x00,0xf0,0x07,0xc0,0x1f,0xf8,0xff,
 0xff,0x03,0xf0,0x00,0x00,0x00,0x00,0xf0,0x00,0x00,0x00,0xfe,0xff,0xff,0xf8,
 0x00,0x00,0x0f,0x00,0x78,0x00,0xc0,0x83,0x07,0x00,0x00,0xe0,0xff,0xff,0x0f,
 0xf8,0xff,0xff,0x03,0xf0,0x00,0x00,0x00,0x00,0xf0,0x00,0x00,0x00,0xfe,0xff,
 0xff,0xf8,0x00,0x00,0x0f,0x00,0x78,0x00,0xc0,0x83,0x07,0x00,0x00,0xc0,0xff,
 0xff,0x07,0xf8,0xff,0xff,0x03,0xf0,0x00,0x00,0x00,0x00,0xf0,0x00,0x00,0x00,
 0xfe,0xff,0xff,0xf8,0x00,0x00,0x0f,0x00,0x78,0x00,0xc0,0x83,0x07,0x00,0x00,
 0x80,0xff,0xff,0x03,0xf8,0xff,0xff,0x03,0xf0,0x00,0x00,0x00,0x00,0xf0,0x00,
 0x00,0x00,0xfe,0xff,0xff,0xf8,0x00,0x00,0x0f,0x00,0x78,0x00,0xc0,0x83,0x07,
 0x00,0x00,0x00,0xfe,0xff,0x00,0xf0,0xff,0xff,0x03,0xf0,0x00,0x00,0x00,0x00,
 0xf0,0x00,0x00,0x00,0xfc,0xff,0xff,0xf8,0x00,0x00,0x0f,0x00,0x78,0x00,0xc0,
 0x03,0x00,0x00,0x00,0x00,0x00,0x00,0x00,0x00,0x00,0x00,0x00,0x00,0x00,0x00,
 0x00,0x00,0x00,0x00,0x00,0x00,0x00,0x00,0x00,0x00,0x00,0x00,0x00,0x00,0x00,
 0x00,0xc0,0x03,0x00,0x00,0x00,0x00,0x00,0x00,0x00,0x00,0x00,0x00,0x00,0x00,
 0x00,0x00,0x00,0x00,0x00,0x00,0x00,0x00,0x00,0x00,0x00,0x00,0x00,0x00,0x00,
 0x00,0x00,0x00,0xc0,0x07,0x00,0x00,0x00,0x00,0x00,0x00,0x00,0x00,0x00,0x00,
 0x00,0x00,0x00,0x00,0x00,0x00,0x00,0x00,0x00,0x00,0x00,0x00,0x00,0x00,0x00,
 0x00,0x00,0x00,0x00,0x00,0xe0,0xfe,0xff,0xff,0xff,0xff,0xff,0xff,0xff,0xff,
 0xff,0xff,0xff,0xff,0xff,0xff,0xff,0xff,0xff,0xff,0xff,0xff,0xff,0xff,0xff,
 0xff,0xff,0xff,0xff,0xff,0xff,0xff,0x7f,0xfc,0xff,0xff,0xff,0xff,0xff,0xff,
 0xff,0xff,0xff,0xff,0xff,0xff,0xff,0xff,0xff,0xff,0xff,0xff,0xff,0xff,0xff,
 0xff,0xff,0xff,0xff,0xff,0xff,0xff,0xff,0xff,0x3f,0x00,0x00,0x00,0x00,0x00,
 0x00,0x00,0x00,0x00,0x00,0x00,0x00,0x00,0x00,0x00,0x00,0x00,0x00,0x00,0x00,
 0x00,0x00,0x00,0x00,0x00,0x00,0x00,0x00,0x00,0x00,0x00,0x00,0x00,0x00,0x00,
 0x00,0x00,0x00,0x00,0x00,0x00,0x00,0x00,0x00,0x00,0x00,0x00,0x00,0x00,0x00,
 0x00,0x00,0x00,0x00,0x00,0x00,0x00,0x00,0x00,0x00,0x00,0x00,0x00,0x00,0x00,
 0x00,0x00,0x00,0x00,0x00,0x00,0x00,0x00,0x00,0x00,0x00,0x00,0x00,0x00,0x00,
 0x00,0x00,0x00,0x00,0x00,0x00,0x00,0x00,0x00,0x00,0x00,0x00,0x00,0x00,0x00,
 0x00,0x00,0x00,0x00,0x00,0x00,0x00,0x00,0x00,0x00,0x00,0x00,0x00,0x00,0x00,
 0x00,0x00,0x00,0x00,0x00,0x00,0x00,0x00,0x00,0x00,0x00,0x00,0x00,0x00,0x00,
 0x00,0x00,0x00,0x00,0x00,0x00,0x00,0x00,0x00,0x00,0x00,0x00,0x00,0x00,0x00,
 0x00,0x00,0x00,0x00,0x00,0x00,0x00,0x00,0x00,0x00,0x00,0x00,0x00,0x00,0x00,
 0x00,0x00,0x00,0x00,0x00,0x00,0x00,0x00,0x00,0x00,0x00,0x00,0x00,0x00,0x00,
 0x00,0x00,0x00,0x00,0x00,0x00,0x00,0x00,0x00,0x00,0x00,0x00,0x00,0x00,0x00,
 0x00,0x00,0x00,0x00,0x00,0x00,0x00,0x00,0x00,0x00,0x00,0x00,0x00,0x00,0x00,
 0x00,0x00,0x00,0x00,0x00,0x00,0x00,0x00,0x00,0x00,0x00,0x00,0x00,0x00,0x00,
 0x00,0x00,0x00,0x00,0x00,0x00,0x00,0x00,0x00,0x00,0x00,0x00,0x00,0x00,0x00,
 0x00,0x00,0x00,0x00,0x00,0x00,0x00,0x00,0x00,0x00,0x00,0x00,0x00,0x00,0x00,
 0x00,0x00,0x00,0x00,0x00,0x00,0x00,0x00,0x00,0x00,0x00,0x00,0x00,0x00,0x00,
 0x00,0x00,0x00,0x00,0x00,0x00,0x00,0x00,0x00,0x00,0x00,0x00,0x00,0x00,0x00,
 0x00,0x00,0x00,0x00,0x00,0x00,0x00,0x00,0x00,0x00,0x00,0x00,0x00,0x00,0x00,
 0x00,0x00,0x00,0x00,0x00,0x00,0x00,0x00,0x00,0x00,0x00,0x00,0x00,0x00,0x00,
 0x00,0x00,0x00,0x00,0x00,0x00,0x00,0x00,0x00,0x00,0x00,0x00,0x00,0x00,0x00,
 0x00,0x00,0x00,0x00,0x00,0x00,0x00,0x00,0x00,0x00,0x00,0x00,0x00,0x00,0x00,
 0x00,0x00,0x00,0x00,0x00,0x00,0x00,0x00,0x00,0x00,0x00,0x00,0x00,0x00,0x00,
 0x00,0x00,0x00,0x00,0x00,0x00,0x00,0x00,0x00,0x00,0x00,0x00,0x00,0x00,0x00,
 0x00,0x00,0x00,0x00,0x00,0x00,0x00,0x00,0x00,0x00,0x00,0x00,0x00,0x00,0x00,
 0x00,0x00,0x00,0x00,0x00,0x00,0x00,0x00,0x00,0x00,0x00,0x00,0x00,0x00,0x00,
 0x00,0x00,0x00,0x00,0x00,0x00,0x00,0x00,0x00,0x00,0x00,0x00,0x00,0x00,0x00,
 0x00,0x00,0x00,0x00,0x00,0x00,0x00,0x00,0x00,0x00,0x00,0x00,0x00,0x00,0x00,
 0x00,0x00,0x00,0x00,0x00,0x00,0x00,0x00,0x00,0x00,0x00,0x00,0x00,0x00,0x00,
 0x00,0x00,0x00,0x00,0x00,0x00,0x00,0x00 };
