#define _width 256
#define _height 64
static char _bits[] = {
 0x00,0x00,0x00,0x00,0x00,0x00,0x00,0x00,0x00,0x00,0x00,0xfc,0x07,0x00,0x00,
 0x00,0x00,0x00,0x00,0x00,0x00,0x00,0x00,0x00,0x00,0x00,0x00,0x00,0x00,0x00,
 0x00,0x00,0x00,0x00,0x00,0x00,0x00,0x00,0x00,0x00,0x00,0x00,0x00,0xff,0x7f,
 0x00,0x00,0x00,0x00,0x00,0x00,0x00,0x00,0x00,0x00,0x00,0x00,0x00,0x00,0x00,
 0x00,0x00,0x00,0x00,0x00,0x00,0x00,0x00,0x00,0x00,0x00,0x00,0x00,0x00,0xfc,
 0x0f,0xf8,0x01,0x00,0x00,0x00,0x00,0x00,0x00,0x00,0x00,0x00,0x00,0x00,0x00,
 0x00,0x00,0x00,0x00,0x00,0x00,0x00,0x00,0x00,0x00,0x00,0x00,0x00,0x00,0x00,
 0x00,0xff,0x01,0xc0,0x07,0x00,0x00,0x00,0x00,0x00,0x00,0x00,0x00,0x00,0x7e,
 0x00,0x00,0x00,0x00,0x00,0x00,0x00,0x00,0x00,0x00,0x00,0x00,0x00,0x00,0x00,
 0x00,0x00,0x80,0x07,0x00,0x00,0x0e,0x00,0x00,0x00,0x00,0x00,0x00,0x00,0x00,
 0x80,0xff,0x00,0x00,0x00,0x00,0x00,0x00,0x00,0x00,0x00,0x00,0x00,0x00,0x00,
 0x00,0x00,0xc0,0x1f,0xc0,0x01,0x00,0x00,0x1c,0x00,0x00,0x00,0x00,0x00,0x00,
 0x00,0x00,0xc0,0xc3,0x01,0x00,0x00,0x00,0x00,0x00,0x00,0x00,0x00,0x00,0x00,
 0x00,0x00,0x00,0x00,0xfe,0xff,0xe1,0x00,0x00,0x00,0x30,0x00,0x00,0xfe,0x00,
 0x00,0x00,0x00,0x00,0xf0,0x80,0x03,0x00,0x00,0x00,0x00,0x00,0x00,0x00,0x00,
 0x00,0x00,0x00,0x00,0x00,0x00,0x3f,0xe0,0x77,0x00,0x00,0x00,0xe0,0x7f,0xe0,
 0xff,0x07,0x00,0x00,0x00,0x00,0x38,0x00,0x07,0x00,0x00,0x00,0x00,0x00,0x00,
 0x00,0x00,0x00,0x00,0x00,0x00,0x00,0xe0,0x03,0x00,0x7f,0x00,0x00,0x00,0xc0,
 0xff,0xfd,0xc7,0x3f,0x00,0x00,0x00,0x00,0x18,0x00,0x0e,0x00,0x00,0xfe,0x07,
 0x00,0x00,0x00,0x00,0x00,0x00,0x00,0x00,0x00,0xf0,0x00,0x00,0x3c,0x00,0x00,
 0x00,0xc0,0x81,0x3f,0x00,0xfe,0x00,0x00,0x00,0x00,0x18,0x00,0x1c,0x00,0x80,
 0xff,0x1f,0x00,0x00,0x00,0x00,0x00,0x00,0x00,0xe0,0x3f,0x38,0x00,0x00,0x70,
 0x00,0x00,0x00,0x80,0x03,0x06,0x00,0xf0,0x01,0xf0,0x03,0x00,0x0c,0x00,0x1c,
 0x00,0xf0,0x07,0xfc,0x00,0x00,0x00,0x00,0x00,0x00,0x00,0xfc,0xff,0x1f,0x00,
 0x00,0xe0,0x00,0x00,0x00,0x00,0x03,0x02,0x00,0xc0,0x03,0xfe,0x1f,0x00,0x0c,
 0x00,0x1c,0x00,0x7c,0x00,0xe0,0x01,0x00,0x00,0x00,0x00,0x00,0x00,0x3f,0xc0,
 0x0f,0x00,0x00,0xc0,0x01,0x00,0x00,0x00,0x03,0x00,0x00,0x80,0xc7,0x1f,0xff,
 0x00,0x0e,0x00,0x18,0x00,0x1e,0x00,0x80,0x07,0x00,0x00,0x00,0x00,0x00,0x80,
 0x07,0x00,0x0f,0x00,0x00,0x80,0x01,0x00,0x00,0x00,0x06,0x00,0x00,0x00,0xe7,
 0x03,0xf0,0x01,0x06,0x00,0x18,0x00,0x0f,0x00,0x00,0x0f,0x00,0x00,0x00,0x00,
 0x00,0xe0,0x00,0x00,0x3c,0x00,0x00,0x00,0x03,0x00,0x00,0x00,0x06,0x00,0x00,
 0x00,0x7e,0x00,0x80,0x07,0x06,0x00,0x18,0x80,0x03,0x00,0x00,0x1c,0x00,0x00,
 0x00,0x00,0xfc,0x73,0x00,0x00,0x78,0x00,0x00,0x00,0x07,0x00,0x00,0x00,0x06,
 0x00,0x00,0x00,0x1c,0x00,0x00,0x0e,0x06,0x00,0x18,0xfc,0x03,0x00,0x00,0x38,
 0x00,0x00,0x00,0x00,0xfe,0x3f,0x00,0x00,0xf0,0x00,0x00,0x00,0x06,0x00,0x00,
 0x00,0x0c,0x00,0x00,0x00,0x18,0x00,0x00,0x1c,0x03,0x00,0x1c,0xff,0x01,0x00,
 0x00,0x30,0x00,0x00,0x00,0x00,0x07,0x1c,0x00,0x00,0xc0,0x01,0x00,0x00,0x0e,
 0xc0,0x01,0x00,0x0c,0x00,0x00,0x00,0x38,0x00,0x00,0x38,0x03,0x00,0xdc,0x87,
 0x07,0x00,0x00,0x70,0x00,0x00,0x00,0x80,0x03,0x08,0x00,0x00,0x80,0x01,0x00,
 0x00,0x0c,0xe0,0x07,0x00,0x0c,0x00,0x00,0x00,0x30,0x00,0x00,0xf8,0x03,0x00,
 0xfc,0x00,0x0f,0x00,0x00,0xe0,0x00,0x00,0x00,0xc0,0x00,0x00,0x00,0x00,0x00,
 0x03,0x03,0x00,0x0c,0xf0,0x07,0x00,0x0c,0x00,0x00,0x00,0x70,0x00,0x00,0xe0,
 0x03,0x00,0x7e,0x00,0x1e,0x00,0x00,0xc0,0x01,0x00,0x00,0xc0,0x00,0x00,0x00,
 0x00,0x00,0xc7,0x0f,0x00,0x0c,0x70,0x07,0x00,0x0c,0x00,0x00,0x00,0x70,0x00,
 0x00,0xe0,0x01,0x00,0x1e,0x00,0x1c,0x00,0x00,0xc0,0x01,0x00,0x00,0xe0,0x00,
 0x00,0x00,0x00,0x00,0xe6,0x1f,0x00,0x18,0x30,0x06,0x00,0x0c,0x00,0x7c,0x00,
 0x60,0x00,0x00,0xc0,0x01,0x00,0x06,0x00,0x18,0x00,0x00,0x80,0x01,0x00,0x00,
 0x60,0x00,0x00,0x00,0x00,0x00,0x7c,0x3c,0x00,0x18,0x30,0x06,0x00,0x0c,0x00,
 0xff,0x00,0x60,0x00,0x00,0x80,0x01,0x00,0x00,0x00,0x18,0x00,0x00,0x80,0x01,
 0x00,0x00,0x60,0x00,0x00,0x00,0x00,0x00,0x7c,0x30,0x00,0x18,0x30,0x06,0x00,
 0x0c,0x80,0xff,0x01,0x60,0x00,0x00,0x80,0x01,0x00,0x00,0x00,0x38,0xf8,0x01,
 0x80,0x03,0x00,0x00,0x60,0x00,0x00,0x00,0x07,0x00,0x3c,0x30,0x00,0x18,0x30,
 0x06,0x00,0x0c,0x80,0xc3,0x01,0xe0,0x00,0x00,0x80,0x01,0x00,0x00,0x00,0x30,
 0xfc,0x03,0x80,0x03,0x00,0x00,0x60,0x00,0x00,0xc0,0x1f,0x00,0x7c,0x30,0x00,
 0x18,0x18,0x06,0x00,0x0c,0x80,0xc1,0x01,0xe0,0xf0,0x01,0x00,0x03,0x00,0x00,
 0x00,0x30,0xde,0x03,0x80,0x03,0x00,0x00,0x60,0x00,0x00,0xe0,0x1f,0x00,0x7c,
 0x38,0x00,0x18,0x18,0x06,0x00,0x0c,0x80,0xc1,0x01,0xe0,0xf8,0x07,0x00,0x03,
 0x00,0x00,0x00,0x38,0x0e,0x07,0x00,0x03,0x00,0x00,0x40,0x00,0x00,0xf0,0x3c,
 0x00,0xf8,0x1f,0x00,0x18,0x18,0x06,0x00,0x0c,0x80,0xc3,0x01,0xe0,0x3c,0x07,
 0x00,0x03,0x00,0x00,0x00,0x18,0x0e,0x07,0x00,0x03,0x00,0x00,0xc0,0x00,0x00,
 0x70,0x38,0x00,0xd8,0x1f,0x00,0x1c,0x18,0x06,0x00,0x0c,0x80,0xf7,0x01,0xe0,
 0x0c,0x0e,0x00,0x03,0x00,0x00,0x00,0x18,0x0e,0x07,0x00,0x03,0x00,0x00,0xc0,
 0x00,0x00,0x70,0x30,0x00,0x18,0x07,0x00,0x0c,0x18,0x07,0x00,0x04,0x00,0xff,
 0x00,0xe0,0x0c,0x0e,0x00,0x03,0x00,0x00,0x00,0x1c,0x9e,0x07,0x80,0x03,0x00,
 0x00,0x80,0x00,0x00,0x70,0x30,0x00,0x18,0x00,0x00,0x0c,0x18,0x03,0x00,0x06,
 0x00,0x3c,0x00,0x60,0x0c,0x0e,0x00,0x03,0x00,0x00,0x00,0x0e,0xfc,0x03,0x80,
 0x03,0x00,0x00,0x80,0x01,0x00,0x70,0x38,0x00,0x18,0x00,0x00,0x0c,0x18,0x03,
 0x00,0x06,0x00,0x00,0x00,0x60,0x1c,0x0e,0x00,0x03,0x00,0x00,0x00,0x07,0xf8,
 0x01,0x80,0x03,0x00,0x00,0x80,0x01,0x00,0xe0,0x3f,0x00,0x08,0x00,0x00,0x06,
 0x1c,0x03,0x00,0x06,0x00,0x00,0x00,0x60,0xfc,0x07,0x00,0x03,0x00,0x00,0xc0,
 0x03,0x60,0x00,0x80,0x01,0x00,0x00,0x00,0x03,0x00,0xc0,0x1f,0x00,0x0c,0x00,
 0x00,0x07,0x1c,0x03,0x00,0x06,0x00,0x00,0x00,0x70,0xf8,0x03,0x00,0x03,0x00,
 0x00,0xe0,0x00,0x00,0x00,0xc0,0x01,0x00,0x00,0x00,0x03,0x00,0x00,0x03,0x00,
 0x0c,0x00,0x00,0x03,0x1c,0x03,0x00,0x06,0x00,0x00,0x00,0x70,0xf0,0x01,0x00,
 0x03,0x00,0x00,0x78,0x00,0x00,0x00,0xc0,0x01,0x00,0x00,0x00,0x03,0x00,0x00,
 0x00,0x00,0x0c,0x00,0x80,0x03,0x1c,0x03,0x00,0x06,0x00,0x00,0x00,0x38,0x00,
 0x00,0x80,0x03,0x00,0x00,0x3c,0x00,0x00,0x00,0xe0,0x00,0x00,0x00,0x00,0x02,
 0x00,0x00,0x00,0x00,0x0c,0x00,0xc0,0x01,0x1c,0x03,0x00,0x02,0x00,0x00,0x00,
 0x1c,0x00,0x00,0x80,0x03,0x00,0x00,0x7f,0x00,0x00,0x00,0x60,0x00,0x00,0x00,
 0x00,0x06,0x00,0x00,0x00,0x00,0x06,0x00,0xe0,0x00,0x8c,0x01,0x00,0x03,0x00,
 0x00,0x00,0x1c,0x00,0x00,0x80,0x01,0x00,0xc0,0xe3,0x00,0x00,0x00,0x70,0x00,
 0x00,0x00,0x00,0x06,0x00,0x00,0x00,0x00,0x06,0x00,0x70,0x00,0x8c,0x01,0x00,
 0x03,0x00,0x00,0x00,0x0e,0x00,0x00,0xc0,0x01,0x00,0xc0,0xe3,0x00,0x00,0x00,
 0x70,0x00,0x00,0x00,0x00,0x0c,0x00,0x00,0x00,0x00,0x07,0x00,0x38,0x00,0x8c,
 0x01,0x00,0x03,0x00,0x00,0x00,0x07,0x00,0x00,0xc0,0x00,0x00,0x80,0xc3,0x01,
 0x00,0x00,0x3c,0x00,0x00,0x00,0x00,0x0c,0x00,0x00,0x00,0x00,0x03,0x00,0x1e,
 0x00,0x8e,0x01,0x00,0x03,0x00,0x00,0x80,0x07,0x00,0x00,0xe0,0x00,0x00,0x80,
 0x83,0x03,0x00,0x00,0x1c,0x00,0x00,0x00,0x00,0x0c,0x00,0x00,0x00,0xc0,0x1f,
 0x80,0x1f,0x00,0x0f,0x03,0x00,0x03,0x00,0x00,0xe0,0x03,0x00,0x00,0x70,0x00,
 0x00,0x00,0x07,0x07,0x00,0x00,0x0f,0x00,0x00,0x00,0x00,0x18,0x00,0x00,0x00,
 0xe0,0xff,0xff,0x1f,0x00,0x07,0x03,0x00,0x03,0x00,0x00,0xf8,0x03,0x00,0x00,
 0x38,0x00,0x00,0x00,0x0e,0x1e,0x00,0x80,0x07,0x00,0x00,0x00,0x00,0x18,0x00,
 0x00,0x00,0xf0,0xfc,0xff,0x78,0xc0,0x03,0x06,0x80,0x03,0x00,0x84,0xff,0x0f,
 0x00,0x00,0x1c,0x00,0x00,0x00,0x0c,0x7c,0x00,0xf0,0x03,0x00,0x00,0x00,0x00,
 0x18,0x00,0x00,0x00,0x78,0x00,0x00,0xe0,0xfb,0x03,0x06,0xc0,0x03,0x00,0xfc,
 0x0f,0x1e,0x00,0x00,0x1e,0x00,0x00,0x00,0x1c,0xf0,0x03,0xfc,0x01,0x00,0x00,
 0x00,0x00,0x30,0x00,0x00,0x00,0x1e,0x00,0x00,0x80,0xff,0x00,0x1c,0xe0,0x03,
 0x00,0xfc,0x00,0x7c,0x00,0x80,0x07,0x00,0x00,0x00,0x38,0x80,0xff,0x3f,0x00,
 0x00,0x00,0x00,0x00,0x30,0x00,0x00,0x80,0x0f,0x00,0x00,0x00,0x3f,0x00,0x38,
 0x78,0x07,0x00,0x18,0x00,0xf8,0x01,0xc0,0x03,0x00,0x00,0x00,0x38,0x00,0xfe,
 0x0f,0x00,0x00,0x00,0x00,0x00,0x20,0x00,0xc0,0xff,0x01,0x00,0x00,0x00,0x00,
 0x00,0xf0,0x3f,0x06,0x00,0x18,0x00,0xe0,0xff,0xff,0x03,0x00,0x00,0x00,0x70,
 0x00,0x00,0x00,0x00,0x00,0x00,0x00,0x00,0x60,0x00,0x80,0x7f,0x00,0x00,0x00,
 0x00,0x00,0x00,0xe0,0x0f,0x06,0x00,0x18,0x00,0x80,0xff,0xff,0x03,0x00,0x06,
 0x00,0x60,0x00,0x00,0x00,0x00,0x00,0x00,0x00,0x00,0x60,0x00,0x80,0x01,0x00,
 0x00,0x00,0x00,0x00,0x00,0x00,0x00,0x06,0x00,0x38,0x00,0x00,0xfc,0x9f,0x03,
 0x00,0x06,0x00,0x60,0x00,0x00,0x00,0x00,0x00,0x00,0x00,0x00,0x60,0x00,0x80,
 0x01,0x00,0x00,0x00,0x00,0x00,0x00,0x00,0x00,0x0c,0x00,0x30,0x00,0x00,0x00,
 0x80,0x03,0x00,0x0e,0x00,0x60,0x00,0x00,0x00,0x00,0x00,0x00,0x00,0x00,0xc0,
 0x00,0x00,0x03,0x00,0x00,0x00,0x00,0x00,0x00,0x00,0x00,0x0c,0x00,0x30,0x00,
 0x00,0x00,0x80,0x03,0x00,0x1f,0x00,0x60,0x00,0x00,0x00,0x00,0x00,0x00,0x00,
 0x00,0xc0,0x00,0x00,0x03,0x00,0x00,0x00,0x00,0x00,0x00,0x00,0x00,0x0c,0x00,
 0x38,0x00,0x00,0x00,0x80,0x03,0x00,0x1f,0x00,0x60,0x00,0x00,0x00,0x00,0x00,
 0x00,0x00,0x00,0x80,0x00,0x00,0x03,0x00,0x00,0x00,0x00,0x00,0x00,0x00,0x00,
 0x1c,0x00,0x18,0x00,0x00,0x00,0x80,0x03,0x00,0x3b,0x00,0x60,0x00,0x00,0x00,
 0x00,0x00,0x00,0x00,0x00,0x80,0x01,0x00,0x03,0x00,0x00,0x00,0x00,0x00,0x00,
 0x00,0x00,0x1c,0x00,0x18,0x00,0x00,0x00,0x00,0x07,0x80,0x73,0x00,0x70,0x00,
 0x00,0x00,0x00,0x00,0x00,0x00,0x00,0x80,0x01,0x00,0x03,0x00,0x00,0x00,0x00,
 0x00,0x00,0x00,0x00,0x38,0x00,0x1c,0x00,0x00,0x00,0x00,0x06,0xc0,0x71,0x00,
 0x70,0x00,0x00,0x00,0x00,0x00,0x00,0x00,0x00,0x00,0x01,0x00,0x03,0x00,0x00,
 0x00,0x00,0x00,0x00,0x00,0x00,0x70,0x00,0x0e,0x00,0x00,0x00,0x00,0x0e,0xe0,
 0xe0,0x00,0x30,0x00,0x00,0x00,0x00,0x00,0x00,0x00,0x00,0x00,0x03,0x00,0x03,
 0x00,0x00,0x00,0x00,0x00,0x00,0x00,0x00,0xf0,0x80,0x0f,0x00,0x00,0x00,0x00,
 0x3c,0x70,0xe0,0x01,0x38,0x00,0x00,0x00,0x00,0x00,0x00,0x00,0x00,0x00,0x03,
 0x80,0x03,0x00,0x00,0x00,0x00,0x00,0x00,0x00,0x00,0xe0,0xff,0x03,0x00,0x00,
 0x00,0x00,0xf8,0x3f,0x80,0x03,0x1e,0x00,0x00,0x00,0x00,0x00,0x00,0x00,0x00,
 0x00,0x06,0x80,0x01,0x00,0x00,0x00,0x00,0x00,0x00,0x00,0x00,0x80,0xff,0x01,
 0x00,0x00,0x00,0x00,0xe0,0x0f,0x80,0xff,0x0f,0x00,0x00,0x00,0x00,0x00,0x00,
 0x00,0x00,0x00,0x0e,0xc0,0x01,0x00,0x00,0x00,0x00,0x00,0x00,0x00,0x00,0x00,
 0x7e,0x00,0x00,0x00,0x00,0x00,0x00,0x00,0x00,0xff,0x07,0x00,0x00,0x00,0x00,
 0x00,0x00,0x00,0x00,0x00,0x3c,0xf0,0x00,0x00,0x00,0x00,0x00,0x00,0x00,0x00,
 0x00,0x00,0x00,0x00,0x00,0x00,0x00,0x00,0x00,0x00,0x00,0xf8,0x00,0x00,0x00,
 0x00,0x00,0x00,0x00,0x00,0x00,0x00,0xf8,0x7f,0x00,0x00,0x00,0x00,0x00,0x00,
 0x00,0x00,0x00,0x00,0x00,0x00,0x00,0x00,0x00,0x00,0x00,0x00,0x00,0x00,0x00,
 0x00,0x00,0x00,0x00,0x00,0x00,0x00,0x00,0x00,0xc0,0x0f,0x00,0x00,0x00,0x00,
 0x00,0x00,0x00,0x00,0x00,0x00,0x00,0x00,0x00,0x00,0x00,0x00,0x00,0x00,0x00,
 0x00,0x00,0x00,0x00,0x00,0x00,0x00,0x00 };
