#define _width 256
#define _height 64
static char _bits[] = {
 0x00,0x00,0x00,0x00,0x00,0x00,0x00,0x00,0x00,0x00,0x00,0x00,
 0x00,0x00,0x00,0x00,0x00,0x00,0x00,0x00,0x00,0x00,0x00,0x00,
 0x00,0x00,0x00,0x00,0x00,0x00,0x00,0x00,0x00,0x00,0x00,0x00,
 0x00,0x00,0x00,0x00,0x00,0x00,0x00,0x00,0x00,0x00,0x00,0x00,
 0x00,0x00,0x00,0x00,0x00,0x00,0x00,0x00,0x00,0x00,0x00,0x00,
 0x00,0x00,0x00,0x00,0x00,0x00,0x00,0x00,0x00,0x00,0x00,0x00,
 0x00,0x00,0x00,0x00,0x00,0x00,0x00,0x00,0x00,0x00,0x00,0x00,
 0x00,0x00,0x00,0x00,0x00,0x00,0x00,0x00,0x00,0x00,0x00,0x00,
 0x00,0x00,0x00,0x00,0x00,0x00,0x00,0x00,0xf8,0x00,0x00,0x00,
 0x00,0x00,0x00,0x00,0x00,0x00,0x00,0x00,0x00,0x00,0x00,0x00,
 0x00,0x00,0x00,0x00,0x00,0x00,0x00,0x00,0x00,0x00,0x00,0x00,
 0x00,0x00,0x00,0x00,0x04,0x06,0x00,0x00,0x00,0x00,0x00,0x00,
 0x00,0x00,0x00,0x00,0x00,0x00,0x00,0x00,0x00,0x00,0x00,0x00,
 0x00,0x00,0x00,0x00,0x00,0x00,0x00,0x00,0x00,0x00,0x00,0x00,
 0x20,0x21,0x00,0x00,0x00,0x00,0x00,0x00,0x00,0x00,0x00,0x00,
 0x00,0x00,0x00,0x00,0x00,0x00,0x00,0x00,0x00,0x00,0x00,0x00,
 0x00,0x00,0x00,0x00,0x00,0x00,0x00,0x08,0xa4,0x48,0x00,0x00,
 0x00,0x00,0x00,0x00,0x00,0x00,0x00,0x00,0x00,0x00,0x00,0x00,
 0x00,0x00,0x00,0x00,0x00,0x00,0x00,0x00,0x00,0x00,0x00,0x00,
 0x00,0x00,0x60,0xa6,0x52,0x11,0x01,0x00,0x00,0x00,0x00,0x00,
 0x00,0x00,0x00,0x00,0x00,0x00,0x00,0x00,0x00,0x00,0x00,0x00,
 0x00,0x00,0x00,0x00,0x00,0x00,0x00,0x00,0x00,0x00,0x14,0x09,
 0x25,0x25,0x01,0x00,0x00,0x00,0x00,0x00,0x00,0x00,0x00,0x00,
 0x00,0x00,0x00,0x00,0x00,0x00,0x00,0x00,0x00,0x00,0x00,0x00,
 0x00,0x00,0x00,0x00,0x00,0x00,0xa6,0x00,0xa1,0x48,0x00,0x00,
 0x00,0x00,0x00,0x00,0x00,0x00,0x00,0x00,0x00,0x00,0x00,0x00,
 0x00,0x00,0x00,0x00,0x00,0x00,0x00,0x00,0x00,0x00,0x00,0x00,
 0x00,0x80,0x50,0x00,0x01,0xc9,0x02,0x00,0x00,0x00,0x00,0x00,
 0x00,0x00,0x00,0x00,0x00,0x00,0x00,0x00,0x00,0x00,0x00,0x00,
 0x00,0x00,0x00,0x00,0x00,0x00,0x00,0x00,0x00,0x00,0x01,0x50,
 0x02,0x16,0x03,0x00,0x00,0x00,0x00,0x00,0x00,0x00,0x00,0x00,
 0x00,0x00,0x00,0x00,0x00,0x00,0x00,0x00,0x00,0x00,0x00,0x00,
 0x00,0x00,0x00,0x00,0x00,0x80,0x6c,0x2c,0x35,0xa9,0x04,0x00,
 0x00,0x00,0x00,0x00,0x00,0x00,0x00,0x00,0x00,0x00,0x00,0x00,
 0x00,0x00,0x00,0x00,0x00,0x00,0x00,0x00,0x00,0x00,0x00,0x00,
 0x00,0x80,0x8a,0x2a,0x89,0x56,0x0a,0x00,0x00,0x00,0x00,0x00,
 0x00,0x00,0x00,0x00,0x00,0x00,0x00,0x00,0x00,0x00,0x00,0x00,
 0x00,0x00,0x00,0x00,0x00,0x00,0x00,0x00,0x00,0x00,0x40,0x01,
 0x4a,0x20,0x00,0x00,0x00,0x00,0x00,0x00,0x00,0x00,0x00,0x00,
 0x00,0x00,0x00,0x00,0x00,0x00,0x00,0x00,0x00,0x00,0x00,0x00,
 0x00,0x00,0x00,0x00,0x00,0x80,0xa8,0x42,0xa1,0x90,0x0c,0x00,
 0x00,0x00,0x00,0x00,0x00,0x00,0x00,0x00,0x00,0x00,0x00,0x00,
 0x00,0x00,0x00,0x00,0x00,0x00,0x00,0x00,0x00,0x00,0x00,0x00,
 0x00,0x80,0x55,0x95,0x00,0x41,0x0b,0x00,0x00,0x00,0x00,0x00,
 0x00,0x00,0x00,0x00,0x00,0x00,0x00,0x00,0x00,0x00,0x00,0x00,
 0x00,0x00,0x00,0x00,0x00,0x00,0x00,0x00,0x00,0x80,0x6a,0x68,
 0xa5,0x9a,0x0a,0x00,0x00,0x00,0x00,0x00,0x00,0x00,0x00,0x00,
 0x00,0x00,0x00,0x00,0x00,0x00,0x00,0x00,0x00,0x00,0x00,0x00,
 0x00,0x00,0x00,0x00,0x00,0x80,0x21,0x80,0x2a,0x40,0x0d,0x00,
 0x00,0x00,0x00,0x00,0x00,0x00,0x00,0x00,0x00,0x00,0x00,0x00,
 0x00,0x00,0x00,0x00,0x00,0x00,0x00,0x00,0x00,0x00,0x00,0x00,
 0x00,0x80,0x89,0xaa,0x0a,0x0c,0x09,0x00,0x00,0x00,0x00,0x00,
 0x04,0x00,0x00,0x00,0xa8,0x16,0x00,0x00,0x00,0x00,0x00,0x00,
 0x00,0x00,0x00,0x00,0x00,0x00,0x00,0x00,0x00,0x80,0xae,0x8a,
 0x2a,0xac,0x0a,0x0e,0x00,0x80,0x1f,0x00,0x14,0x00,0x00,0x00,
 0xd0,0x06,0xf0,0x1f,0x80,0x0f,0x00,0x00,0x00,0x00,0x00,0x00,
 0x00,0x00,0x00,0x00,0x00,0x00,0x51,0x55,0x55,0x55,0x89,0x51,
 0x00,0xa0,0x11,0x00,0x2b,0x00,0x00,0x02,0x28,0x18,0x30,0x16,
 0x00,0xa4,0x02,0x00,0x00,0x00,0x00,0x00,0x00,0x00,0x00,0x00,
 0x00,0x00,0xaa,0xaa,0xaa,0x50,0x69,0x9d,0x00,0xa8,0xb1,0x80,
 0x15,0x00,0x00,0x05,0x24,0x2d,0x20,0x29,0x00,0xa4,0x01,0x00,
 0x00,0x00,0x00,0x00,0x00,0x00,0x00,0x00,0x00,0x00,0x82,0x2b,
 0xa4,0x05,0x61,0xc5,0x06,0x10,0x04,0x8a,0x04,0x00,0x00,0x0c,
 0x32,0x40,0x30,0x19,0x00,0x54,0x00,0x00,0x00,0x00,0x00,0x00,
 0x00,0x00,0x00,0x00,0x00,0x00,0x36,0xcb,0x00,0x34,0x05,0x2b,
 0x0f,0x8e,0xd7,0x9a,0xd4,0x00,0x40,0x00,0x5e,0x31,0x70,0x51,
 0x80,0x97,0x01,0x00,0x00,0x00,0x00,0x00,0x00,0x00,0x00,0x00,
 0x00,0x00,0xb4,0xd6,0x00,0xb5,0x50,0xa9,0x05,0x96,0xee,0x1a,
 0x59,0x01,0xb0,0x0a,0x56,0x62,0x90,0xed,0x80,0x93,0x01,0x00,
 0x00,0x00,0x00,0x00,0x00,0x00,0x00,0x00,0x00,0x00,0xea,0x1a,
 0x00,0x4a,0x33,0x46,0x1a,0x8b,0x14,0x1b,0x0a,0x00,0x48,0x06,
 0x96,0x28,0x48,0x17,0x01,0xa8,0x00,0x00,0x00,0x00,0x00,0x00,
 0x00,0x00,0x00,0x00,0x00,0x00,0x76,0x5b,0x00,0xb5,0xd9,0x56,
 0x0b,0x15,0x95,0x45,0x34,0x00,0x48,0x13,0x48,0x2b,0x30,0x15,
 0x41,0x66,0x01,0x00,0x00,0x00,0x00,0x00,0x00,0x00,0x00,0x00,
 0x00,0x00,0xf6,0x93,0x00,0xc5,0x80,0x51,0x16,0x63,0x36,0x39,
 0x4c,0x06,0x62,0x04,0x98,0x60,0x40,0x66,0x03,0x4c,0x01,0x00,
 0x00,0x00,0x00,0x00,0x00,0x00,0x00,0x00,0x00,0x00,0x36,0xff,
 0x00,0x56,0x94,0x46,0x7a,0xac,0xb5,0xae,0xb4,0x87,0x5e,0x5d,
 0x6e,0xea,0xa9,0xbd,0x07,0xdd,0x01,0x00,0x00,0x00,0x00,0x00,
 0x00,0x00,0x00,0x00,0x00,0x00,0xb6,0x6d,0x01,0x4d,0x5a,0x2b,
 0x65,0x96,0xb1,0x82,0x08,0xce,0x26,0xad,0xd8,0xab,0xa4,0x5a,
 0x83,0xad,0x01,0x00,0x00,0x00,0x00,0x00,0x00,0x00,0x00,0x00,
 0x00,0x00,0xfe,0xbb,0xa1,0x36,0x8a,0xf5,0x58,0xec,0xdb,0x6c,
 0x81,0xc0,0xb1,0xfa,0x60,0x77,0xe9,0xfe,0x8c,0xf7,0x01,0x00,
 0x00,0x00,0x00,0x00,0x00,0x00,0x00,0x00,0x00,0x00,0xfe,0x77,
 0x71,0x17,0xad,0x5b,0x31,0xbe,0x7f,0xe7,0x91,0xc4,0x9a,0xfd,
 0x70,0xff,0xb1,0xff,0xdf,0xff,0x01,0x00,0x00,0x00,0x00,0x00,
 0x00,0x00,0x00,0x00,0x00,0x00,0xfc,0x7f,0x7f,0x8a,0xac,0x16,
 0xe3,0xb4,0xf3,0xb9,0x89,0xf6,0x6a,0x15,0xf4,0xfd,0x69,0xff,
 0xff,0xff,0x01,0x00,0x00,0x00,0x00,0x00,0x00,0x00,0x00,0x00,
 0x00,0x00,0xfc,0x9b,0xef,0xcf,0x79,0xd7,0xd7,0xec,0x93,0xee,
 0xbb,0xfd,0xfb,0x33,0x5e,0xfb,0xa3,0xff,0xff,0xff,0x01,0x00,
 0x00,0x00,0x00,0x00,0x00,0x00,0x00,0x00,0x00,0x00,0xfc,0xff,
 0xfd,0x87,0xfe,0xdf,0x7a,0xfc,0xfa,0xff,0xa8,0xff,0x5f,0x0a,
 0x3f,0xff,0xb1,0xff,0xff,0xff,0x01,0x00,0x00,0x00,0x00,0x00,
 0x00,0x00,0x00,0x00,0x00,0x00,0xf8,0xff,0xff,0xf2,0xff,0xbf,
 0x6f,0xfc,0xff,0xef,0xf3,0xfe,0xff,0xe5,0x1e,0xfb,0xf3,0xff,
 0xff,0xff,0x01,0x00,0x00,0x00,0x00,0x00,0x00,0x00,0x00,0x00,
 0x00,0x00,0xf8,0xff,0xff,0xf1,0xff,0xb7,0x71,0x98,0xff,0xdf,
 0xb3,0xfb,0xfb,0xa1,0x1f,0xff,0xf3,0xff,0xff,0xff,0x01,0x00,
 0x00,0x00,0x00,0x00,0x00,0x00,0x00,0x00,0x00,0x00,0xf8,0xff,
 0x7f,0xf8,0xff,0xbe,0xbf,0xfc,0xef,0xfe,0xa3,0xff,0x7f,0xe8,
 0x0f,0xfe,0xf7,0xff,0xff,0xff,0x01,0x00,0x00,0x00,0x00,0x00,
 0x00,0x00,0x00,0x00,0x00,0x00,0xf8,0xff,0x3f,0xf8,0xff,0xf3,
 0xff,0xfc,0xff,0xff,0xc3,0xff,0x7f,0xec,0x0f,0xfe,0xe7,0xff,
 0xff,0xff,0x01,0x00,0x00,0x00,0x00,0x00,0x00,0x00,0x00,0x00,
 0x00,0x00,0xf0,0xff,0x1f,0xf8,0xff,0x80,0x7f,0xf4,0xa1,0xff,
 0x83,0xff,0x1f,0xfe,0x0f,0xfe,0xe7,0xff,0xff,0xff,0x01,0x00,
 0x00,0x00,0x00,0x00,0x00,0x00,0x00,0x00,0x00,0x00,0xf0,0xff,
 0x3f,0xf8,0x7f,0xc0,0x7f,0xfe,0x81,0xff,0x81,0xff,0x0f,0xfe,
 0x07,0xfe,0xe7,0xff,0xff,0xff,0x01,0x00,0x00,0x00,0x00,0x00,
 0x00,0x00,0x00,0x00,0x00,0x00,0xf0,0xff,0x3f,0xf0,0x7f,0x80,
 0x7f,0xfe,0x00,0xfe,0x81,0xff,0x03,0xfe,0x0f,0xfe,0xe7,0xff,
 0xff,0xff,0x01,0x00,0x00,0x00,0x00,0x00,0x00,0x00,0x00,0x00,
 0x00,0x00,0xf0,0xff,0x7f,0xf0,0x7f,0x80,0x7f,0xfe,0x01,0xfe,
 0x81,0xff,0x07,0xfe,0xff,0xff,0xef,0xff,0xff,0xff,0x03,0x00,
 0x00,0x00,0x00,0x00,0x00,0x00,0x00,0x00,0x00,0x00,0xf0,0xff,
 0x7f,0xf0,0x7f,0x80,0x7f,0xff,0x00,0xfe,0x81,0xff,0x07,0xff,
 0xff,0xff,0xcf,0xff,0xff,0xff,0x03,0x00,0x00,0x00,0x00,0x00,
 0x00,0x00,0x00,0x00,0x00,0x00,0xe0,0xff,0xff,0xf0,0x7f,0x80,
 0x3f,0xff,0x00,0xfe,0x80,0xff,0x03,0xff,0xff,0xff,0xcf,0xff,
 0xfe,0xff,0x01,0x00,0x00,0x00,0x00,0x00,0x00,0x00,0x00,0x00,
 0x00,0x00,0xe0,0xff,0xff,0xf0,0x7f,0xc0,0x1f,0xff,0x00,0xff,
 0xc0,0xff,0x03,0xff,0xff,0xff,0xcf,0x7f,0xfc,0xff,0x01,0x00,
 0x00,0x00,0x00,0x00,0x00,0x00,0x00,0x00,0x00,0x00,0xe0,0xff,
 0xff,0xe0,0xff,0xa0,0x1f,0xff,0x01,0x7f,0x80,0xff,0x03,0xff,
 0xff,0xff,0x8f,0x7f,0xf8,0xff,0x03,0x00,0x00,0x00,0x00,0x00,
 0x00,0x00,0x00,0x00,0x00,0x00,0xc0,0xff,0xff,0xc1,0xff,0xff,
 0x9f,0xff,0x87,0x7f,0xc0,0xff,0x83,0xff,0xff,0xff,0x9f,0xff,
 0xf8,0xff,0x03,0x00,0x00,0x00,0x00,0x00,0x00,0x00,0x00,0x00,
 0x00,0x00,0xc0,0xff,0xff,0x80,0xff,0xff,0x8f,0xff,0xff,0x3f,
 0xc0,0xff,0x83,0xff,0xff,0xff,0x9f,0xff,0xf0,0xff,0x01,0x00,
 0x00,0x00,0x00,0x00,0x00,0x00,0x00,0x00,0x00,0x00,0xc0,0xff,
 0xff,0x00,0xff,0xff,0x87,0xff,0xff,0x1f,0xc0,0xff,0x83,0xff,
 0xff,0xff,0x9f,0xff,0xe0,0xff,0x03,0x00,0x00,0x00,0x00,0x00,
 0x00,0x00,0x00,0x00,0x00,0x00,0xc0,0xff,0x7f,0x00,0xfc,0xff,
 0x00,0xff,0xff,0x07,0xc0,0xff,0x83,0xff,0x03,0xfe,0x9f,0xff,
 0xe0,0xff,0x03,0x00,0x00,0x00,0x00,0x00,0x00,0x00,0x00,0x00,
 0x00,0x00,0x80,0xff,0x3f,0x00,0xf0,0x7f,0x00,0xfc,0xff,0x03,
 0xc0,0xff,0x83,0xff,0x01,0xfe,0xbf,0xff,0x80,0xff,0x03,0x00,
 0x00,0x00,0x00,0x00,0x00,0x00,0x00,0x00,0x00,0x00,0x80,0xff,
 0x1f,0x00,0x00,0x07,0x00,0xf8,0x7f,0x00,0x80,0xff,0x03,0xff,
 0x01,0xfc,0x8f,0xff,0x80,0xff,0x03,0x00,0x00,0x00,0x00,0x00,
 0x00,0x00,0x00,0x00,0x00,0x00,0x80,0xff,0x07,0x00,0x00,0x00,
 0x00,0x00,0x00,0x00,0x00,0x3e,0x00,0xe0,0x00,0xf8,0x87,0xff,
 0x00,0xff,0x00,0x00,0x00,0x00,0x00,0x00,0x00,0x00,0x00,0x00,
 0x00,0x00,0x80,0xff,0x03,0x00,0x00,0x00,0x00,0x00,0x00,0x00,
 0x00,0x00,0x00,0x00,0x00,0x78,0xc0,0xff,0x00,0x1c,0x00,0x00,
 0x00,0x00,0x00,0x00,0x00,0x00,0x00,0x00,0x00,0x00,0x00,0x7f,
 0x00,0x00,0x00,0x00,0x00,0x00,0x00,0x00,0x00,0x00,0x00,0x00,
 0x00,0x00,0x00,0x00,0x00,0x00,0x00,0x00,0x00,0x00,0x00,0x00,
 0x00,0x00,0x00,0x00,0x00,0x00,0x00,0x3f,0x00,0x00,0x00,0x00,
 0x00,0x00,0x00,0x00,0x00,0x00,0x00,0x00,0x00,0x00,0x00,0x00,
 0x00,0x00,0x00,0x00,0x00,0x00,0x00,0x00,0x00,0x00,0x00,0x00,
 0x00,0x00,0x00,0x0e,0x00,0x00,0x00,0x00,0x00,0x00,0x00,0x00,
 0x00,0x00,0x00,0x00,0x00,0x00,0x00,0x00,0x00,0x00,0x00,0x00,
 0x00,0x00,0x00,0x00,0x00,0x00,0x00,0x00,0x00,0x00,0x00,0x02,
 0x00,0x00,0x00,0x00,0x00,0x00,0x00,0x00,0x00,0x00,0x00,0x00,
 0x00,0x00,0x00,0x00,0x00,0x00,0x00,0x00,0x00,0x00,0x00,0x00,
 0x00,0x00,0x00,0x00,0x00,0x00,0x00,0x00,0x00,0x00,0x00,0x00,
 0x00,0x00,0x00,0x00,0x00,0x00,0x00,0x00,0x00,0x00,0x00,0x00,
 0x00,0x00,0x00,0x00,0x00,0x00,0x00,0x00,0x00,0x00,0x00,0x00,
 0x00,0x00,0x00,0x00,0x00,0x00,0x00,0x00,0x00,0x00,0x00,0x00,
 0x00,0x00,0x00,0x00,0x00,0x00,0x00,0x00,0x00,0x00,0x00,0x00,
 0x00,0x00,0x00,0x00,0x00,0x00,0x00,0x00,0x00,0x00,0x00,0x00,
 0x00,0x00,0x00,0x00,0x00,0x00,0x00,0x00,0x00,0x00,0x00,0x00,
 0x00,0x00,0x00,0x00,0x00,0x00,0x00,0x00,0x00,0x00,0x00,0x00,
 0x00,0x00,0x00,0x00,0x00,0x00,0x00,0x00,0x00,0x00,0x00,0x00,
 0x00,0x00,0x00,0x00,0x00,0x00,0x00,0x00,0x00,0x00,0x00,0x00,
 0x00,0x00,0x00,0x00,0x00,0x00,0x00,0x00 };
