#define sectionz_width 256
#define sectionz_height 64
static unsigned char sectionz_bits[] = {
 0x00,0x00,0x00,0x00,0x00,0x00,0x00,0x00,0x00,0x00,0x00,0x00,
 0x00,0x00,0x00,0x00,0x00,0x00,0x00,0x00,0x00,0x00,0x00,0x00,
 0x00,0x00,0x00,0x00,0x00,0x00,0x00,0x00,0x00,0x00,0x00,0x00,
 0x00,0x00,0x00,0x00,0x00,0x00,0x00,0x00,0x00,0x00,0x00,0x00,
 0x00,0x00,0x00,0x00,0x00,0x00,0x00,0x00,0x00,0x00,0x00,0x00,
 0x00,0x00,0x00,0x00,0x00,0x00,0x00,0x00,0x00,0x00,0x00,0x00,
 0x00,0x00,0x00,0x00,0x00,0x00,0x00,0x00,0x00,0x00,0x00,0x00,
 0x00,0x00,0x00,0x00,0x00,0x00,0x00,0x00,0x00,0x00,0x00,0x00,
 0x00,0x00,0x00,0x00,0x00,0x00,0x00,0x00,0x00,0x00,0x00,0x00,
 0x00,0x00,0x00,0x00,0x00,0x00,0x00,0x00,0x00,0x00,0x00,0x00,
 0x00,0x00,0x00,0x00,0x00,0x00,0x00,0x00,0x00,0x00,0x00,0x00,
 0x00,0x00,0x00,0x00,0x00,0x00,0x00,0x00,0x00,0x00,0x00,0x00,
 0x00,0x00,0x00,0x00,0x00,0x00,0x00,0x00,0x00,0x00,0x00,0x00,
 0x00,0x00,0x00,0x00,0x00,0x00,0x00,0x00,0x00,0x00,0x00,0x00,
 0x00,0x00,0x00,0x00,0x00,0x00,0x00,0x00,0x00,0x00,0x00,0x00,
 0x00,0x00,0x00,0x00,0x00,0x00,0x00,0x00,0x00,0x00,0x00,0x00,
 0x00,0x00,0x00,0x00,0x00,0x00,0x00,0x00,0x00,0x00,0x00,0x00,
 0x00,0x00,0x00,0x00,0x00,0x00,0x00,0x00,0x00,0x00,0x00,0x00,
 0x00,0x00,0x00,0x00,0x00,0x00,0x00,0x00,0x00,0x00,0x00,0x00,
 0x00,0x00,0x00,0x00,0x00,0x00,0x00,0x00,0x00,0x00,0x00,0x00,
 0x00,0x00,0x00,0x00,0x00,0x00,0x00,0x00,0x00,0x00,0x00,0x00,
 0x00,0x00,0x00,0x00,0x00,0x00,0x00,0x00,0x00,0x00,0x00,0x00,
 0x00,0x00,0x00,0x00,0x00,0x00,0x00,0x00,0x00,0x00,0x00,0x00,
 0x00,0x00,0x00,0x00,0x00,0x00,0x00,0x00,0x00,0x00,0x00,0x00,
 0x00,0x00,0x00,0x00,0x00,0x00,0x00,0x00,0x00,0x00,0x00,0x00,
 0x00,0x00,0x00,0x00,0x00,0x00,0x00,0x00,0x00,0x00,0x00,0x00,
 0x00,0x00,0x00,0x00,0x00,0x00,0x00,0x00,0x00,0x00,0x00,0x00,
 0x00,0x00,0x00,0xe0,0x2f,0x00,0x00,0x00,0x00,0x00,0x00,0x00,
 0x00,0x00,0x00,0x00,0x00,0x54,0x49,0x00,0x00,0x00,0x00,0x00,
 0x00,0x00,0x00,0x00,0x00,0x00,0x00,0x00,0x00,0x00,0x00,0xf0,
 0xfd,0x00,0x00,0x00,0x00,0x00,0x00,0x00,0x00,0x00,0x00,0x00,
 0x00,0xfe,0xff,0xff,0xff,0x03,0x00,0x00,0x00,0x00,0x00,0x00,
 0x00,0x00,0x00,0x00,0x00,0x00,0x00,0x9c,0xaa,0x01,0x18,0x00,
 0x00,0x00,0x00,0x00,0x00,0x00,0x00,0x00,0x00,0xff,0xff,0xff,
 0xff,0x01,0x00,0x00,0x00,0x00,0x00,0x00,0x00,0x00,0x00,0x00,
 0x00,0x00,0x00,0xbe,0xb7,0x01,0xff,0x2f,0x00,0x00,0x00,0x00,
 0x00,0x00,0x00,0x00,0x00,0x03,0xaa,0x02,0xe0,0x01,0x00,0x00,
 0x00,0x00,0x00,0x00,0x00,0x00,0x00,0x00,0x00,0x00,0x00,0x6b,
 0x6d,0x03,0xab,0xfe,0x01,0x00,0x00,0x00,0x00,0x00,0x00,0x00,
 0xc0,0x4b,0x41,0x54,0x75,0x00,0x00,0x00,0x00,0x00,0x00,0x00,
 0x00,0x00,0x00,0x00,0x00,0x00,0x00,0xdb,0xab,0x82,0xbb,0x55,
 0x03,0x14,0x00,0x00,0x00,0x00,0x00,0x00,0xc0,0x29,0x55,0x55,
 0x55,0x00,0x00,0x00,0x00,0x00,0x00,0x00,0x00,0x00,0x00,0x00,
 0x00,0x00,0x80,0xb7,0xfe,0x86,0xd5,0xae,0x03,0xff,0x07,0x00,
 0x00,0x00,0x00,0x00,0xe0,0x04,0x48,0x49,0x2c,0x00,0x00,0x00,
 0x00,0x00,0x00,0x00,0x00,0x00,0x00,0x00,0x00,0x00,0x80,0x75,
 0xf7,0x8f,0x7d,0x69,0x86,0xab,0xee,0x17,0x00,0x00,0x00,0x00,
 0x70,0x09,0xa0,0x52,0x15,0x00,0x00,0x00,0x00,0x00,0x00,0x00,
 0x00,0x00,0x00,0x00,0x00,0x00,0xc0,0xae,0x01,0xa0,0xeb,0xbf,
 0x85,0x6d,0xad,0xfd,0x07,0x00,0x00,0x00,0x78,0xf5,0x5d,0x95,
 0x0e,0x00,0x00,0x00,0x00,0x00,0x00,0x00,0x00,0x00,0x00,0x00,
 0x00,0x00,0xc0,0xba,0x01,0x21,0xaf,0xfb,0x8f,0xad,0xba,0xab,
 0xde,0x07,0x00,0x00,0xf8,0xff,0xff,0x55,0x07,0x00,0x00,0x00,
 0x00,0x00,0x00,0x00,0x00,0x00,0x00,0x00,0x00,0x00,0xd0,0xd7,
 0xa8,0x54,0x7b,0x01,0xa8,0xfd,0x57,0xd5,0x9a,0x0d,0x00,0x00,
 0xfc,0x5f,0xf5,0x92,0x03,0x00,0x00,0x00,0x00,0x00,0x00,0x00,
 0x00,0x00,0x00,0x00,0x00,0x00,0x90,0xbd,0x28,0x51,0xd6,0x4b,
 0x41,0x55,0xbd,0xbe,0x77,0x1b,0xff,0x01,0x00,0x00,0xe0,0xaa,
 0x03,0x00,0x00,0x00,0x00,0x00,0x00,0x00,0x00,0x00,0x00,0x00,
 0x00,0x00,0xc8,0xd6,0xa5,0xa8,0x6e,0x93,0x52,0xdf,0x80,0x68,
 0xbf,0x15,0xab,0xeb,0x02,0x00,0x30,0xd5,0x01,0x00,0x00,0x00,
 0x00,0x00,0x00,0x00,0x00,0x00,0x00,0x00,0x00,0x00,0x98,0xbd,
 0x01,0xa8,0x6c,0x47,0x52,0xb6,0x04,0x61,0x25,0x3b,0x6b,0xed,
 0x7d,0x00,0x38,0xc9,0x00,0x00,0x00,0x00,0x00,0x00,0x00,0x00,
 0x00,0x00,0x00,0x00,0x00,0x00,0xaa,0x6b,0x1f,0x00,0xdb,0x0d,
 0x50,0xed,0x49,0xca,0x8e,0xb6,0xfe,0x4b,0x73,0x00,0x9c,0x72,
 0x00,0x00,0x00,0x00,0x00,0x00,0x00,0x00,0x00,0x00,0x00,0x00,
 0x00,0x00,0x2a,0xef,0xfe,0xff,0xba,0x7b,0x45,0x5d,0x43,0xa8,
 0x9a,0x6c,0x2a,0xda,0xee,0x00,0x5e,0x72,0x00,0x00,0x00,0x00,
 0x00,0x00,0x00,0x00,0x00,0x00,0x00,0x00,0x00,0x00,0x24,0xb7,
 0x55,0xb5,0xb5,0xff,0xbf,0xe8,0x02,0x94,0x57,0xdd,0xb6,0x96,
 0xab,0x00,0x47,0x39,0x00,0x00,0x00,0x00,0x00,0x00,0x00,0x00,
 0x00,0x00,0x00,0x00,0x00,0x00,0x54,0xb6,0xfd,0xaf,0xb5,0xaa,
 0x2a,0xbb,0x07,0x50,0x3d,0xd9,0x6c,0x3d,0xdd,0x01,0x47,0x1d,
 0x00,0x00,0x00,0x00,0x00,0x00,0x00,0x00,0x00,0x00,0x00,0x00,
 0x00,0x00,0x54,0x6e,0x57,0x75,0x6b,0xdf,0x7b,0xd5,0x06,0x28,
 0x6b,0xb5,0xd9,0x76,0x77,0x81,0x53,0x0e,0x00,0x00,0x00,0x00,
 0x00,0x00,0x00,0x00,0x00,0x00,0x00,0x00,0x00,0x00,0xa8,0xdc,
 0xfd,0xef,0xd6,0xba,0xd6,0xb4,0x0d,0x40,0x6e,0xb5,0xb7,0x5a,
 0xde,0xc3,0xa1,0x0e,0x00,0x00,0x00,0x00,0x00,0x00,0x00,0x00,
 0x00,0x00,0x00,0x00,0x00,0x00,0xaa,0x58,0x45,0xba,0xd7,0x6d,
 0xd5,0x6a,0x0b,0xa0,0xd4,0x6a,0xd3,0xf5,0xb6,0xe6,0x8a,0x03,
 0x00,0x00,0x00,0x00,0x00,0x00,0x00,0x00,0x00,0x00,0x00,0x00,
 0x00,0x00,0x54,0xf3,0xff,0xaf,0xad,0xed,0xff,0xc9,0x1e,0x80,
 0xbd,0xca,0xb6,0xb5,0xf4,0x6d,0xaa,0x03,0x00,0x00,0x00,0x00,
 0x00,0x00,0x00,0x00,0x00,0x00,0x00,0x00,0x00,0x00,0xa8,0xf4,
 0xff,0x7d,0xab,0xbb,0x95,0xd4,0x3a,0x40,0xea,0xd5,0x66,0xeb,
 0xad,0x3a,0xd5,0x01,0x00,0x00,0x00,0x00,0x00,0x00,0x00,0x00,
 0x00,0x00,0x00,0x00,0x00,0x00,0x48,0x05,0x00,0x78,0x5f,0xbb,
 0x01,0x94,0x6b,0x80,0x9a,0xa9,0xcd,0x56,0xdb,0x2b,0xc9,0x00,
 0x00,0x00,0x00,0x00,0x00,0x00,0x00,0x00,0x00,0x00,0x00,0x00,
 0x00,0x00,0x50,0x25,0xa9,0xda,0xb5,0xd6,0xab,0x54,0xdd,0x00,
 0x75,0xab,0xdb,0xc5,0x72,0x9f,0x72,0x00,0x00,0x00,0x00,0x00,
 0x00,0x00,0x00,0x00,0x00,0x00,0x00,0x00,0x00,0x00,0xa0,0x4a,
 0x92,0x72,0xbf,0xbe,0x06,0x54,0xb7,0x03,0x65,0x2b,0x9b,0xff,
 0xa7,0x34,0x75,0x00,0x00,0x00,0x00,0x00,0x00,0x00,0x00,0x00,
 0x00,0x00,0x00,0x00,0x00,0x00,0x40,0x91,0x2a,0xb5,0xb5,0xec,
 0x17,0xa8,0x56,0x0f,0xd8,0x55,0x3b,0x55,0xb7,0xbd,0x38,0x00,
 0x00,0x00,0x00,0x00,0x00,0x00,0x00,0x00,0x00,0x00,0x00,0x00,
 0x00,0x00,0x40,0xa5,0xa4,0xb2,0x6f,0x5d,0x0d,0x00,0x6c,0xfd,
 0x57,0x4f,0xaa,0xae,0xd6,0x21,0x1d,0x00,0x00,0x00,0x00,0x00,
 0x00,0x00,0x00,0x00,0x00,0x00,0x00,0x00,0x00,0x00,0x80,0x94,
 0x4a,0x79,0xb5,0xd8,0xed,0x7f,0xdb,0xaa,0xd6,0x5a,0x6d,0xfd,
 0x29,0x94,0x0e,0x00,0x00,0x00,0x00,0x00,0x00,0x00,0x00,0x00,
 0x00,0x00,0x00,0x00,0x00,0x00,0x80,0x20,0x00,0xdc,0x6f,0x53,
 0xfb,0xef,0xf2,0x6e,0x9d,0x97,0xfa,0x01,0x20,0x22,0x06,0x00,
 0x00,0x00,0x00,0x00,0x00,0x00,0x00,0x00,0x00,0x00,0x00,0x00,
 0x00,0x00,0x00,0x00,0xec,0x6f,0xb5,0xf4,0x56,0xd5,0xca,0xd9,
 0x2a,0xbf,0x0a,0x52,0x10,0x40,0x03,0x00,0x00,0x00,0x00,0x00,
 0x00,0x00,0x00,0x00,0x00,0x00,0x00,0x00,0x00,0x00,0x00,0x80,
 0xfe,0xdb,0x37,0xe5,0xde,0xbd,0x09,0xbf,0x9f,0x0a,0x05,0x45,
 0xf0,0x9a,0x03,0x00,0x00,0x00,0x00,0x00,0x00,0x00,0x00,0x00,
 0x00,0x00,0x00,0x00,0x00,0x00,0x00,0x80,0xac,0x76,0x5d,0x65,
 0x6b,0xab,0x33,0xf8,0x42,0x00,0x29,0x00,0x38,0xc5,0x01,0x00,
 0x00,0x00,0x00,0x00,0x00,0x00,0x00,0x00,0x00,0x00,0x00,0x00,
 0x00,0x00,0x00,0x40,0xd9,0xd6,0x9b,0xca,0xda,0xaa,0x43,0x01,
 0x80,0x0a,0x01,0x00,0x38,0xc9,0x00,0x00,0x00,0x00,0x00,0x00,
 0x00,0x00,0x00,0x00,0x00,0x00,0x00,0x00,0x00,0x00,0x00,0x40,
 0xb9,0xbd,0x4e,0x95,0xef,0xff,0x95,0xa4,0x2a,0x00,0x04,0x00,
 0x9c,0xf2,0xff,0xff,0x3f,0x00,0x00,0x00,0x00,0x00,0x00,0x00,
 0x00,0x00,0x00,0x00,0x00,0x00,0x00,0xa0,0xb2,0xeb,0x0e,0x2a,
 0x7d,0x01,0x02,0x29,0x41,0x00,0x00,0x00,0x2e,0xf5,0xff,0xff,
 0x7f,0x00,0x00,0x00,0x00,0x00,0x00,0x00,0x00,0x00,0x00,0x00,
 0x00,0x00,0x00,0x20,0x75,0x95,0x83,0xaa,0x00,0x10,0x01,0x40,
 0x00,0x00,0x00,0x00,0xa7,0x0a,0x00,0x40,0x1c,0x00,0x00,0x00,
 0x00,0x00,0x00,0x00,0x00,0x00,0x00,0x00,0x00,0x00,0x00,0x50,
 0xe5,0xfe,0x03,0x95,0x42,0x55,0x00,0x00,0x00,0x00,0x00,0x00,
 0x97,0xaa,0xaa,0x4a,0x1c,0x00,0x00,0x00,0x00,0x00,0x00,0x00,
 0x00,0x00,0x00,0x00,0x00,0x00,0x00,0xa0,0xea,0x3f,0x00,0x24,
 0x94,0x24,0x00,0x00,0x00,0x00,0x00,0xc0,0xa3,0x54,0x25,0x95,
 0x06,0x00,0x00,0x00,0x00,0x00,0x00,0x00,0x00,0x00,0x00,0x00,
 0x00,0x00,0x00,0x20,0x45,0x00,0x00,0x48,0x29,0x05,0x00,0x00,
 0x00,0x00,0x00,0xc0,0x55,0x95,0x54,0x29,0x07,0x00,0x00,0x00,
 0x00,0x00,0x00,0x00,0x00,0x00,0x00,0x00,0x00,0x00,0x00,0x40,
 0x15,0x48,0x00,0x90,0x92,0x00,0x00,0x00,0x00,0x00,0x00,0xe0,
 0x90,0x52,0x25,0xa5,0x03,0x00,0x00,0x00,0x00,0x00,0x00,0x00,
 0x00,0x00,0x00,0x00,0x00,0x00,0x00,0x40,0x55,0x49,0x00,0x00,
 0x02,0x00,0x00,0x00,0x00,0x00,0x00,0xf0,0x20,0x04,0x00,0x80,
 0x01,0x00,0x00,0x00,0x00,0x00,0x00,0x00,0x00,0x00,0x00,0x00,
 0x00,0x00,0x00,0x00,0x8a,0x12,0x00,0x00,0x00,0x00,0x00,0x00,
 0x00,0x00,0x00,0xf8,0xff,0xff,0xff,0xff,0x00,0x00,0x00,0x00,
 0x00,0x00,0x00,0x00,0x00,0x00,0x00,0x00,0x00,0x00,0x00,0x80,
 0x54,0x14,0x00,0x00,0x00,0x00,0x00,0x00,0x00,0x00,0x00,0xf8,
 0xff,0xff,0xff,0xff,0x00,0x00,0x00,0x00,0x00,0x00,0x00,0x00,
 0x00,0x00,0x00,0x00,0x00,0x00,0x00,0x00,0x85,0x02,0x00,0x00,
 0x00,0x00,0x00,0x00,0x00,0x00,0x00,0x00,0x00,0x00,0x00,0x00,
 0x00,0x00,0x00,0x00,0x00,0x00,0x00,0x00,0x00,0x00,0x00,0x00,
 0x00,0x00,0x00,0x00,0x28,0x00,0x00,0x00,0x00,0x00,0x00,0x00,
 0x00,0x00,0x00,0x00,0x00,0x00,0x00,0x00,0x00,0x00,0x00,0x00,
 0x00,0x00,0x00,0x00,0x00,0x00,0x00,0x00,0x00,0x00,0x00,0x00,
 0x02,0x00,0x00,0x00,0x00,0x00,0x00,0x00,0x00,0x00,0x00,0x00,
 0x00,0x00,0x00,0x00,0x00,0x00,0x00,0x00,0x00,0x00,0x00,0x00,
 0x00,0x00,0x00,0x00,0x00,0x00,0x00,0x00,0x00,0x00,0x00,0x00,
 0x00,0x00,0x00,0x00,0x00,0x00,0x00,0x00,0x00,0x00,0x00,0x00,
 0x00,0x00,0x00,0x00,0x00,0x00,0x00,0x00,0x00,0x00,0x00,0x00,
 0x00,0x00,0x00,0x00,0x00,0x00,0x00,0x00,0x00,0x00,0x00,0x00,
 0x00,0x00,0x00,0x00,0x00,0x00,0x00,0x00,0x00,0x00,0x00,0x00,
 0x00,0x00,0x00,0x00,0x00,0x00,0x00,0x00,0x00,0x00,0x00,0x00,
 0x00,0x00,0x00,0x00,0x00,0x00,0x00,0x00,0x00,0x00,0x00,0x00,
 0x00,0x00,0x00,0x00,0x00,0x00,0x00,0x00,0x00,0x00,0x00,0x00,
 0x00,0x00,0x00,0x00,0x00,0x00,0x00,0x00,0x00,0x00,0x00,0x00,
 0x00,0x00,0x00,0x00,0x00,0x00,0x00,0x00,0x00,0x00,0x00,0x00,
 0x00,0x00,0x00,0x00,0x00,0x00,0x00,0x00,0x00,0x00,0x00,0x00,
 0x00,0x00,0x00,0x00,0x00,0x00,0x00,0x00,0x00,0x00,0x00,0x00,
 0x00,0x00,0x00,0x00,0x00,0x00,0x00,0x00,0x00,0x00,0x00,0x00,
 0x00,0x00,0x00,0x00,0x00,0x00,0x00,0x00,0x00,0x00,0x00,0x00,
 0x00,0x00,0x00,0x00,0x00,0x00,0x00,0x00,0x00,0x00,0x00,0x00,
 0x00,0x00,0x00,0x00,0x00,0x00,0x00,0x00,0x00,0x00,0x00,0x00,
 0x00,0x00,0x00,0x00,0x00,0x00,0x00,0x00,0x00,0x00,0x00,0x00,
 0x00,0x00,0x00,0x00,0x00,0x00,0x00,0x00,0x00,0x00,0x00,0x00,
 0x00,0x00,0x00,0x00,0x00,0x00,0x00,0x00 };
