#define _width 256
#define _height 64
static char _bits[] = {
 0x00,0x00,0x00,0x00,0x00,0x00,0x00,0x00,0x00,0x00,0x00,0x00,0x00,0xfe,0x01,
 0x00,0x00,0x00,0x00,0x00,0x00,0x00,0x00,0x00,0x00,0x00,0x00,0x00,0x00,0x00,
 0x00,0x00,0x00,0x00,0x00,0x00,0x00,0x00,0x00,0x00,0x00,0x00,0x00,0x00,0xc0,
 0xff,0x7f,0x00,0x00,0x00,0x00,0x00,0x00,0x00,0x00,0x00,0x00,0x00,0x00,0x00,
 0x00,0x00,0x00,0x00,0x00,0x00,0x00,0x00,0x00,0x00,0x00,0x00,0x00,0x00,0x00,
 0x00,0xc0,0xff,0xff,0x01,0x00,0x00,0x00,0x00,0x00,0x00,0x00,0x00,0x00,0x00,
 0x00,0x00,0x00,0x00,0x00,0x00,0x00,0x00,0x00,0x00,0x00,0x00,0x00,0x06,0x00,
 0x00,0x00,0x00,0x80,0x01,0xf0,0x1f,0x00,0x00,0x00,0x00,0x00,0x00,0x00,0x00,
 0x00,0x00,0x00,0x00,0x00,0x00,0x00,0x00,0x00,0x00,0x00,0x00,0x00,0x00,0x00,
 0x07,0x00,0x00,0x00,0x00,0x80,0x01,0x00,0x7e,0x00,0x00,0x00,0x00,0x00,0x00,
 0x00,0x00,0x00,0x00,0x00,0x00,0x00,0x00,0x00,0x00,0x00,0x00,0x00,0x00,0x00,
 0x00,0xc0,0x07,0x00,0x00,0x00,0x00,0x80,0x01,0x00,0xf0,0x01,0x00,0x00,0x00,
 0x00,0x00,0x00,0x00,0x00,0x00,0x00,0x00,0x00,0x00,0x00,0x00,0x00,0x00,0x00,
 0x00,0x00,0x00,0xe0,0x06,0x00,0x00,0x00,0x00,0x80,0x03,0x00,0xe0,0x01,0x00,
 0x00,0x00,0x00,0x00,0x00,0x00,0x00,0x00,0x00,0x00,0x00,0x00,0x00,0x00,0x00,
 0x00,0x00,0x00,0x00,0x00,0x78,0x06,0x00,0x00,0x00,0x00,0x30,0x03,0x00,0x80,
 0x07,0x00,0x00,0x00,0x00,0x00,0x00,0x00,0x00,0x00,0x00,0x00,0x00,0x00,0x00,
 0x00,0x00,0x00,0x00,0x00,0x00,0x00,0x1e,0x06,0x00,0x00,0x00,0x80,0x3f,0x03,
 0x00,0x00,0x1e,0x00,0x00,0x00,0x00,0x00,0x00,0x00,0x00,0x00,0x00,0x00,0x00,
 0x00,0x00,0x00,0x00,0x00,0x00,0x00,0x00,0x80,0x07,0x06,0x00,0x00,0x00,0xe0,
 0x3f,0x03,0x00,0x00,0x3c,0x00,0x00,0x00,0x00,0x00,0x00,0x00,0xfe,0x1f,0x00,
 0x00,0x00,0x00,0x00,0x00,0x00,0x00,0x00,0x00,0x00,0xe0,0x01,0x06,0x00,0xf0,
 0x00,0x60,0x38,0x03,0x00,0x00,0x70,0x00,0x00,0x00,0x00,0x00,0xf0,0x7f,0xfe,
 0x1f,0x00,0x00,0x00,0x00,0x00,0x00,0x00,0x00,0x00,0x00,0x00,0x78,0x00,0x03,
 0x00,0xfc,0x03,0x60,0x1c,0x07,0x00,0x00,0xc0,0x00,0x00,0x00,0x00,0xf8,0xf7,
 0x7f,0x07,0x0e,0x00,0x00,0x00,0x00,0x00,0x00,0x00,0x00,0x00,0x00,0x00,0x38,
 0x00,0x03,0x00,0x0f,0x0f,0x60,0x0e,0x06,0x00,0x00,0x80,0x03,0x00,0x00,0xe0,
 0xff,0x37,0x30,0x07,0x0e,0x00,0x00,0x00,0x00,0x00,0x00,0x00,0x00,0x00,0x00,
 0x00,0x18,0x00,0x03,0x80,0x03,0x0e,0x60,0x0e,0x06,0x00,0x00,0x80,0x03,0x00,
 0x00,0xe0,0x9f,0x33,0x30,0x03,0x8e,0x07,0x00,0x00,0x00,0x00,0x00,0x00,0x00,
 0x00,0x00,0x60,0x18,0x00,0x03,0xd8,0x01,0x18,0x60,0x06,0x06,0x00,0x00,0x00,
 0x07,0x00,0x00,0x60,0x80,0x13,0x30,0x03,0x8e,0x3f,0x00,0x00,0x00,0x00,0x00,
 0x00,0x00,0x00,0x00,0x78,0x18,0x00,0x03,0x7e,0x00,0x38,0x60,0x07,0xfc,0x01,
 0x00,0x00,0x0e,0x00,0x00,0x60,0x80,0x1b,0x38,0x03,0xce,0xf9,0x01,0x00,0x00,
 0x00,0x00,0x00,0x00,0x00,0x00,0x7e,0x18,0x00,0x83,0x7f,0x00,0x30,0xe0,0x03,
 0xfc,0x1f,0x00,0x00,0x1c,0x00,0x00,0x60,0x80,0x1b,0x38,0x03,0xce,0xe0,0x0f,
 0x00,0x00,0x00,0x00,0x00,0x00,0x00,0x80,0x67,0x18,0x00,0xe3,0x30,0x00,0x70,
 0xe0,0x01,0x00,0xff,0x00,0x00,0x18,0xf0,0x7f,0x60,0x80,0x19,0xb8,0x03,0xe7,
 0x00,0x0f,0x00,0x00,0x00,0x00,0x00,0x00,0x00,0xe0,0x61,0x18,0x00,0x73,0x10,
 0x00,0x60,0xe0,0x01,0x00,0xe0,0x03,0x00,0x30,0xfc,0xff,0x33,0x80,0x19,0x98,
 0x01,0xe7,0x00,0x06,0x00,0x00,0x00,0x00,0x00,0x00,0x00,0xf0,0x60,0x18,0x00,
 0x3f,0x10,0x00,0x60,0xc0,0x01,0x00,0x80,0x07,0x00,0x30,0xfe,0xf8,0x33,0x80,
 0x19,0x98,0x01,0x67,0x00,0xc6,0x03,0x00,0x00,0x00,0x00,0x00,0x00,0x3e,0x60,
 0x18,0x00,0x1f,0x00,0x00,0x40,0xc0,0x00,0x00,0x06,0x0e,0x00,0xf0,0x0f,0x00,
 0x3f,0xc0,0x19,0x98,0x01,0x67,0x00,0xff,0x1f,0x00,0x00,0x00,0x00,0x00,0xc0,
 0x0f,0x60,0x18,0x00,0x03,0x00,0x00,0xc0,0x00,0x00,0x00,0x0e,0x3c,0x00,0xe0,
 0x03,0x00,0x3c,0xc0,0x18,0x98,0x01,0x77,0x00,0xff,0x3f,0x00,0x00,0x00,0x00,
 0x00,0xe0,0x01,0x30,0x18,0x00,0x03,0x00,0x00,0xc0,0x00,0xc0,0x0f,0x1e,0x70,
 0x00,0xe0,0x01,0x00,0x30,0xc0,0x08,0x8c,0x01,0x33,0x00,0x07,0xf8,0x00,0x00,
 0x00,0x00,0x00,0x60,0x00,0x30,0x18,0x00,0x03,0x00,0x00,0xc0,0x00,0xe6,0x3f,
 0xfe,0xe0,0x00,0x70,0x00,0x00,0x60,0xc0,0x0c,0xcc,0x81,0x3b,0x80,0x01,0xe0,
 0x00,0x00,0x00,0x00,0x00,0x60,0x00,0x30,0x18,0x00,0x03,0xc0,0x07,0xc0,0xc0,
 0x7f,0x70,0xf6,0x81,0x01,0x38,0x00,0x00,0xe0,0x60,0x0c,0xcc,0x80,0x19,0x80,
 0x00,0xc0,0x01,0x00,0x00,0x00,0x00,0x60,0x00,0x30,0x18,0x00,0x03,0xe0,0x0f,
 0xc0,0xfc,0x3e,0x60,0x86,0x07,0x03,0x18,0x00,0x00,0xc0,0x60,0x0c,0xcc,0x80,
 0x19,0x00,0x00,0x80,0x01,0x00,0x00,0x00,0x00,0x60,0x00,0x30,0x18,0x00,0x03,
 0x60,0x0c,0xc0,0x7f,0x1e,0xc0,0x06,0x0f,0x03,0x18,0x00,0x00,0x80,0x61,0x0c,
 0xcc,0x80,0x19,0x00,0x00,0x80,0x03,0x00,0x00,0x00,0x00,0x60,0x03,0x30,0x18,
 0x00,0x03,0x20,0x08,0xc0,0x07,0x0e,0xc0,0x06,0x3e,0x06,0x0c,0x00,0x00,0x80,
 0x61,0x0c,0xcc,0x80,0x0d,0x00,0x00,0x00,0x03,0x00,0x00,0x00,0x00,0xe0,0x03,
 0x30,0x18,0x00,0x03,0x20,0x0c,0xc0,0x01,0x0e,0xc0,0x0e,0x38,0x0e,0x0c,0x00,
 0x00,0x00,0xc3,0x0c,0xec,0x80,0x0f,0x00,0x00,0x00,0x03,0x00,0x00,0x00,0x00,
 0xe0,0x03,0x30,0x18,0x00,0x03,0x60,0x0c,0xc0,0x01,0x00,0xc0,0x0c,0x30,0x0c,
 0x0c,0x00,0x00,0x00,0xc3,0x07,0xec,0x80,0x0f,0x00,0x00,0x00,0x03,0x00,0x00,
 0x00,0x00,0x20,0x03,0x30,0x18,0x00,0x03,0xe0,0x07,0x60,0x03,0x00,0xc0,0x0c,
 0x30,0x0c,0x0e,0x00,0x06,0x00,0xc3,0x07,0x7c,0xc0,0x0e,0x00,0x00,0x00,0x03,
 0x00,0x00,0x00,0x00,0x00,0x03,0x30,0x18,0x00,0x03,0xe0,0x03,0x70,0x03,0x00,
 0xc0,0x0c,0x30,0x1c,0x06,0x00,0x0f,0x00,0x87,0x07,0x7c,0xc0,0x06,0xc0,0x01,
 0x00,0x03,0x00,0x00,0x00,0x00,0x00,0x03,0x30,0x18,0x00,0x03,0xe0,0x01,0x70,
 0x03,0x00,0xc0,0x0c,0x70,0x1c,0x06,0x80,0x1f,0x00,0x07,0x06,0x78,0xc0,0x07,
 0xe0,0x03,0x00,0x03,0x00,0x00,0x00,0x00,0x00,0x03,0x30,0x18,0x00,0x03,0x40,
 0x00,0x30,0x03,0x78,0xc0,0x0c,0x60,0x18,0x06,0xc0,0x30,0x00,0x07,0x00,0x00,
 0xc0,0x07,0xf0,0x07,0x00,0x03,0x00,0x00,0x00,0x00,0x00,0x03,0x30,0x18,0x00,
 0x03,0x00,0x00,0x30,0x03,0xfc,0xc0,0x0c,0x60,0x18,0x07,0xc0,0x30,0x00,0x07,
 0x00,0x00,0xc0,0x07,0x30,0x0e,0x80,0x03,0x00,0x00,0x00,0x00,0x00,0x03,0x30,
 0x18,0x00,0x03,0x00,0x00,0x38,0x03,0xcc,0xc1,0x0c,0x60,0x18,0x07,0xc0,0x30,
 0x00,0x07,0x00,0x00,0xc0,0x07,0x38,0x0c,0x80,0x01,0x00,0x00,0x00,0x00,0x00,
 0x03,0x30,0x0c,0x00,0x1f,0x00,0x00,0x0c,0x07,0x8c,0xc1,0x1c,0x60,0x1c,0x07,
 0x80,0x1f,0x00,0x07,0x00,0x00,0xc0,0x07,0x18,0x0c,0x80,0x01,0x00,0x00,0x00,
 0x00,0x00,0x03,0x30,0x0c,0x00,0x3f,0x00,0x00,0x0e,0x06,0x8c,0xc0,0x18,0x60,
 0x0c,0x06,0x00,0x0f,0x00,0x03,0x00,0x00,0x00,0x06,0x18,0x06,0xc0,0x01,0x00,
 0x00,0x00,0x00,0x00,0x03,0x30,0x0c,0x00,0x3f,0x00,0x00,0x06,0x06,0x8c,0xc1,
 0x18,0x60,0x0c,0x0e,0x00,0x06,0x00,0x03,0x00,0x00,0x00,0x06,0x1c,0x06,0xc0,
 0x00,0x00,0x00,0x00,0x00,0x00,0x03,0xe0,0x06,0x00,0x33,0x00,0x80,0x03,0x0e,
 0x88,0xc1,0x18,0x40,0x0e,0x0c,0x00,0x00,0x00,0x83,0x03,0x00,0x00,0x06,0x0c,
 0x07,0xe0,0x00,0x00,0x00,0x00,0x00,0x00,0x03,0xc0,0x03,0x00,0x30,0xc0,0xf1,
 0x01,0x0e,0xc8,0xe0,0x18,0xc0,0x03,0x0c,0x00,0x00,0x80,0xc1,0x03,0x08,0x00,
 0x07,0x0c,0x03,0x60,0x00,0x00,0x00,0x00,0x00,0x00,0x03,0x80,0x01,0x00,0x30,
 0xc0,0x7f,0x00,0x1c,0xce,0x78,0x18,0xc0,0x03,0x1c,0x00,0x00,0x80,0xff,0x0f,
 0x1e,0x80,0x03,0x86,0x03,0x70,0x00,0x00,0x00,0x00,0x00,0x00,0x03,0x00,0x00,
 0x00,0x38,0xc0,0x0f,0x00,0x98,0xc7,0x3f,0x18,0xc0,0x01,0x18,0x00,0x00,0xc0,
 0x3f,0xfe,0x3f,0xe0,0x01,0xc6,0x01,0x38,0x00,0x00,0x00,0x00,0x00,0x00,0x03,
 0x00,0x00,0x00,0x3f,0x80,0x01,0x00,0xf8,0x80,0x0f,0x18,0xc0,0x00,0x30,0x00,
 0x00,0xe0,0x00,0xf8,0xf3,0xff,0x00,0xc7,0x00,0x1c,0x00,0x00,0x00,0x00,0x00,
 0x00,0x03,0x00,0x60,0xc0,0x0f,0x80,0x01,0x00,0x70,0x00,0x00,0x38,0x00,0x00,
 0x70,0x00,0x00,0x70,0x00,0x00,0xc0,0xdf,0xfd,0xe3,0x00,0x1c,0x00,0x00,0x00,
 0x00,0x00,0x00,0x03,0x00,0x60,0xf0,0x03,0x80,0x01,0x00,0x00,0x00,0x00,0x30,
 0x00,0x00,0x70,0x00,0x00,0x70,0x00,0x00,0x80,0x87,0xff,0xe3,0x00,0x0e,0x00,
 0x00,0x00,0x00,0x00,0x00,0x03,0x00,0x70,0x7c,0x03,0x80,0x01,0x00,0x00,0x00,
 0x00,0x30,0x00,0x00,0xf0,0x01,0x00,0x3c,0x00,0x00,0x00,0x00,0xff,0x30,0x00,
 0x06,0x00,0x00,0x00,0x00,0x00,0x00,0x06,0x00,0x70,0x1e,0x03,0x80,0x03,0x00,
 0x00,0x00,0x00,0x30,0x00,0x00,0x98,0x07,0x00,0x0e,0x00,0x00,0x00,0x00,0x00,
 0x18,0x00,0x03,0x00,0x00,0x00,0x00,0x00,0x00,0x0e,0x00,0xf8,0x07,0x03,0x00,
 0x03,0x00,0x00,0x00,0x00,0x30,0x00,0x00,0x0c,0x1e,0xc0,0x07,0x00,0x00,0x00,
 0x00,0x00,0x18,0x80,0x01,0x00,0x00,0x00,0x00,0x00,0x00,0x0c,0x00,0xec,0x01,
 0x02,0x00,0x03,0x00,0x00,0x00,0x00,0x30,0x00,0x00,0x07,0xfc,0xff,0x01,0x00,
 0x00,0x00,0x00,0x00,0x38,0xc0,0x00,0x00,0x00,0x00,0x00,0x00,0x00,0x1c,0x00,
 0xce,0x00,0x06,0x00,0x03,0x00,0x00,0x00,0x00,0x30,0x00,0x80,0x03,0xe0,0x3f,
 0x00,0x00,0x00,0x00,0x00,0x00,0xf0,0xe0,0x00,0x00,0x00,0x00,0x00,0x00,0x00,
 0x38,0x00,0x07,0x00,0x06,0x00,0x03,0x00,0x00,0x00,0x00,0x30,0x00,0xc0,0x01,
 0x00,0x00,0x00,0x00,0x00,0x00,0x00,0x00,0xe0,0x71,0x00,0x00,0x00,0x00,0x00,
 0x00,0x00,0xe0,0xe0,0x01,0x00,0x06,0x80,0x03,0x00,0x00,0x00,0x00,0x38,0x00,
 0xe0,0x00,0x00,0x00,0x00,0x00,0x00,0x00,0x00,0x00,0x80,0x3f,0x00,0x00,0x00,
 0x00,0x00,0x00,0x00,0xc0,0x7f,0x00,0x00,0x06,0xe0,0x01,0x00,0x00,0x00,0x00,
 0x1c,0x00,0x70,0x00,0x00,0x00,0x00,0x00,0x00,0x00,0x00,0x00,0x00,0x1f,0x00,
 0x00,0x00,0x00,0x00,0x00,0x00,0x00,0x0f,0x00,0x00,0x0e,0x70,0x00,0x00,0x00,
 0x00,0x00,0x0e,0x00,0x38,0x00,0x00,0x00,0x00,0x00,0x00,0x00,0x00,0x00,0x00,
 0x0c,0x00,0x00,0x00,0x00,0x00,0x00,0x00,0x00,0x00,0x00,0x00,0x0c,0x1c,0x00,
 0x00,0x00,0x00,0x00,0x1c,0x00,0x1c,0x00,0x00,0x00,0x00,0x00,0x00,0x00,0x00,
 0x00,0x00,0x00,0x00,0x00,0x00,0x00,0x00,0x00,0x00,0x00,0x00,0x00,0x00,0x0c,
 0x0f,0x00,0x00,0x00,0x00,0x00,0x38,0x00,0x0e,0x00,0x00,0x00,0x00,0x00,0x00,
 0x00,0x00,0x00,0x00,0x00,0x00,0x00,0x00,0x00,0x00,0x00,0x00,0x00,0x00,0x00,
 0x00,0x8c,0x03,0x00,0x00,0x00,0x00,0x00,0xf0,0x00,0x07,0x00,0x00,0x00,0x00,
 0x00,0x00,0x00,0x00,0x00,0x00,0x00,0x00,0x00,0x00,0x00,0x00,0x00,0x00,0x00,
 0x00,0x00,0x00,0xdc,0x01,0x00,0x00,0x00,0x00,0x00,0xf0,0x80,0x03,0x00,0x00,
 0x00,0x00,0x00,0x00,0x00,0x00,0x00,0x00,0x00,0x00,0x00,0x00,0x00,0x00,0x00,
 0x00,0x00,0x00,0x00,0x00,0xfc,0x00,0x00,0x00,0x00,0x00,0x00,0xc0,0xc1,0x01,
 0x00,0x00,0x00,0x00,0x00,0x00,0x00,0x00,0x00,0x00,0x00,0x00,0x00,0x00,0x00,
 0x00,0x00,0x00,0x00,0x00,0x00,0x00,0x38,0x00,0x00,0x00,0x00,0x00,0x00,0x80,
 0xe3,0x00,0x00,0x00,0x00,0x00,0x00,0x00,0x00,0x00,0x00,0x00,0x00,0x00,0x00,
 0x00,0x00,0x00,0x00,0x00,0x00,0x00,0x00,0x00,0x18,0x00,0x00,0x00,0x00,0x00,
 0x00,0x00,0x7f,0x00,0x00,0x00,0x00,0x00,0x00,0x00,0x00,0x00,0x00,0x00,0x00,
 0x00,0x00,0x00,0x00,0x00,0x00,0x00,0x00,0x00,0x00,0x00,0x00,0x00,0x00,0x00,
 0x00,0x00,0x00,0x00,0x3c,0x00,0x00,0x00,0x00,0x00,0x00,0x00,0x00,0x00,0x00,
 0x00,0x00,0x00,0x00,0x00,0x00,0x00,0x00,0x00,0x00,0x00,0x00,0x00,0x00,0x00,
 0x00,0x00,0x00,0x00,0x00,0x00,0x18,0x00,0x00,0x00,0x00,0x00,0x00,0x00,0x00,
 0x00,0x00,0x00,0x00,0x00,0x00,0x00,0x00 };
