#define _width 256
#define _height 64
static char _bits[] = {
 0xff,0xff,0xff,0xff,0x3f,0xc0,0x7f,0x00,0x00,0xf0,0x07,0x00,0x00,0xfc,0x7f,
 0x00,0xfc,0xff,0xff,0xff,0xe0,0xff,0xff,0xff,0xf7,0xff,0xff,0xff,0xfe,0xff,
 0xff,0xff,0xff,0xff,0xff,0xff,0x3f,0xf0,0xff,0x01,0x00,0xfe,0x3f,0x00,0x00,
 0xff,0xff,0x01,0xfc,0xff,0xff,0xff,0xe0,0xff,0xff,0xff,0xf7,0xff,0xff,0xff,
 0xfe,0xff,0xff,0xff,0x07,0x20,0x00,0x01,0x38,0xfc,0xe0,0x07,0x80,0x1f,0x7c,
 0x00,0xc0,0x0f,0xe0,0x07,0x0c,0x00,0x00,0xc0,0x60,0x00,0x00,0x00,0x36,0x00,
 0x04,0xc0,0x06,0x00,0x00,0xc0,0x06,0x20,0x00,0x01,0x18,0x1e,0x00,0x0f,0xc0,
 0x03,0xe0,0x00,0xe0,0x01,0x00,0x0f,0x0c,0x00,0x00,0xc0,0x60,0x00,0x00,0x00,
 0x36,0x00,0x04,0xc0,0x06,0x00,0x00,0xc0,0x06,0x20,0x00,0x01,0x18,0x07,0x00,
 0x1c,0xe0,0x00,0xc0,0x01,0x70,0x00,0x00,0x1c,0x0c,0x00,0x00,0xc0,0x60,0x00,
 0x00,0x00,0x36,0x00,0x04,0xc0,0x06,0x00,0x00,0xc0,0x0e,0x20,0x00,0x01,0x9c,
 0x03,0x00,0x38,0x70,0x00,0x80,0x03,0x38,0x00,0x00,0x38,0x0c,0x00,0x00,0xc0,
 0x60,0x00,0x00,0x00,0x36,0x00,0x04,0xc0,0x06,0x00,0x00,0xc0,0x0c,0x20,0x00,
 0x01,0xcc,0x01,0x00,0x70,0x30,0x00,0x00,0x03,0x1c,0x00,0x00,0x70,0x0c,0x00,
 0x00,0xc0,0x60,0x00,0x00,0x00,0x36,0x00,0x04,0xc0,0x06,0x00,0x00,0xc0,0x0c,
 0x20,0x00,0x01,0xcc,0x00,0x00,0x60,0x38,0x00,0x00,0x06,0x0c,0x00,0x00,0x60,
 0x0c,0x00,0x00,0xc0,0x60,0x00,0x00,0x00,0x36,0x00,0x04,0xc0,0x06,0x00,0x00,
 0xc0,0x1c,0x20,0x00,0x01,0xee,0x00,0x04,0xe0,0x18,0x00,0x00,0x06,0x0e,0x00,
 0x00,0xe0,0x0c,0x00,0x00,0xc0,0x60,0x00,0x00,0x00,0x36,0x00,0x04,0xc0,0x06,
 0x00,0x00,0xc0,0x18,0x20,0x00,0x01,0x66,0x00,0x04,0xc0,0x1c,0x00,0x01,0x0c,
 0x06,0x00,0x00,0xc0,0x0c,0x00,0x00,0xc0,0xe0,0xff,0x00,0xff,0x37,0x00,0x04,
 0xc0,0x06,0x00,0x00,0xc0,0x18,0x00,0x00,0x00,0x76,0x00,0x04,0xc0,0x0d,0x00,
 0x01,0x0c,0x07,0x00,0x01,0xc0,0x0d,0x00,0xf8,0xff,0xe0,0xff,0x00,0xff,0x37,
 0x00,0x04,0xc0,0x06,0xe0,0xff,0xff,0x38,0x00,0x0c,0x00,0x77,0x00,0x04,0xc0,
 0x0d,0x00,0x01,0x0c,0x03,0x00,0x01,0x80,0x0d,0x00,0x00,0xc0,0x00,0xc0,0x00,
 0x03,0x30,0x00,0x04,0xc0,0x06,0x00,0x00,0xc0,0x30,0x00,0x0c,0x00,0x33,0x00,
 0x00,0x80,0x0d,0x00,0x01,0x0c,0x03,0x00,0x01,0x80,0x0d,0x00,0x00,0xc0,0x00,
 0xc0,0x00,0x03,0x30,0x00,0x00,0xc0,0x06,0x00,0x00,0xc0,0x30,0x00,0x1e,0x00,
 0x33,0x00,0x00,0x80,0x0d,0x00,0x01,0x0c,0x03,0x00,0x01,0x80,0x0d,0x00,0x00,
 0xc0,0x00,0xc0,0x00,0x03,0x30,0x00,0x00,0xc0,0x06,0x00,0x00,0xc0,0x70,0x00,
 0x1e,0x80,0x33,0x00,0x00,0x80,0x0d,0x00,0x01,0x06,0x03,0x00,0x01,0x80,0x0d,
 0x00,0x00,0xc0,0x00,0xc0,0x00,0x03,0x30,0x00,0x00,0xc0,0x06,0x00,0x00,0xc0,
 0x60,0x00,0x3f,0x80,0x31,0x00,0x00,0x80,0x0d,0x00,0x00,0x06,0x03,0x00,0x01,
 0x80,0x0d,0x00,0x00,0xc0,0x00,0xc0,0x00,0x03,0x30,0x00,0x00,0xc0,0x06,0x00,
 0x00,0xc0,0x60,0x80,0x73,0x80,0x31,0x00,0x00,0x80,0x0d,0x00,0x00,0x07,0x03,
 0x00,0x01,0x80,0x0d,0x00,0x00,0xc0,0x00,0xc0,0x00,0x03,0x30,0x00,0x00,0xc0,
 0x06,0x00,0x00,0xc0,0xe0,0x80,0x73,0xc0,0x31,0x00,0x00,0x80,0x0d,0x00,0x80,
 0x03,0x03,0x00,0x01,0x80,0x0d,0x00,0x00,0xc0,0x00,0xc0,0x00,0x03,0x30,0x00,
 0x00,0xc0,0x06,0x00,0x00,0xc0,0xc0,0xc0,0xe1,0xc0,0x30,0x00,0x04,0x80,0x0d,
 0x00,0x80,0x01,0x03,0x00,0x01,0x80,0x0d,0x00,0x00,0xc0,0x00,0xc0,0x00,0x03,
 0x30,0x00,0x00,0xc0,0x06,0x00,0x00,0xc0,0xc0,0xc0,0xe1,0xc0,0x30,0x00,0x04,
 0x80,0x0d,0x00,0xc0,0x01,0x07,0x00,0x00,0xc0,0x0d,0x00,0xff,0xff,0x00,0xc0,
 0x00,0x03,0x30,0x00,0x04,0xc0,0x06,0xe0,0xff,0xff,0xc0,0xe1,0xc0,0xe1,0x30,
 0x00,0x04,0x80,0x0d,0x00,0xf0,0x00,0x06,0x00,0x00,0xc0,0x0c,0x00,0xff,0xff,
 0x00,0xc0,0x00,0x03,0x30,0x00,0x04,0xc0,0x06,0x00,0x00,0xc0,0x80,0x71,0x80,
 0x63,0x30,0x00,0x04,0x80,0x0d,0x00,0x38,0x00,0x0e,0x00,0x00,0xe0,0x0c,0x00,
 0x03,0x00,0x00,0xc0,0x00,0x03,0x30,0x00,0x04,0xc0,0x06,0x00,0x00,0xc0,0x80,
 0x71,0x80,0x63,0x30,0x00,0x04,0x80,0x0d,0x00,0x70,0x00,0x0c,0x00,0x00,0x60,
 0x0c,0x00,0x03,0x00,0x00,0xc0,0x00,0x03,0x30,0x00,0x04,0xc0,0x06,0x00,0x00,
 0xc0,0x80,0x3b,0x00,0x77,0x30,0x00,0x04,0x80,0x0d,0x00,0xe0,0x00,0x1c,0x00,
 0x00,0x70,0x0c,0x00,0x03,0x00,0x00,0xc0,0x00,0x03,0x30,0x00,0x04,0xc0,0x06,
 0x00,0x00,0xc0,0x00,0x3b,0x00,0x37,0x30,0x00,0x04,0x80,0x0d,0x00,0xc1,0x00,
 0x38,0x00,0x00,0x38,0x0c,0x00,0x03,0x00,0x00,0xc0,0x00,0x03,0x30,0x00,0x04,
 0xc0,0x06,0x00,0x00,0xc0,0x00,0x1f,0x00,0x3e,0x30,0x00,0x04,0x80,0x0d,0x00,
 0xc1,0x01,0x70,0x00,0x00,0x1c,0x0c,0x00,0x03,0x00,0x00,0xc0,0x00,0x03,0x30,
 0x00,0x04,0xc0,0x06,0x00,0x00,0xc0,0x00,0x0f,0x00,0x3c,0x30,0x00,0x04,0x80,
 0x0d,0x00,0x81,0x03,0xe0,0x01,0x00,0x0f,0x0c,0x00,0x03,0x00,0x00,0xc0,0x00,
 0x03,0x30,0x00,0x04,0xc0,0x06,0x00,0x00,0xc0,0x00,0x0e,0x00,0x1c,0x30,0x00,
 0x04,0x80,0x0d,0x00,0x01,0x07,0xc0,0x07,0xe0,0x07,0x0c,0x00,0x03,0x00,0x00,
 0xc0,0x00,0x03,0x30,0x00,0x04,0xc0,0x06,0x00,0x00,0xc0,0x00,0x06,0x00,0x18,
 0xf0,0xff,0xff,0xff,0xfd,0xff,0xff,0x0f,0x00,0xff,0xff,0x01,0xfc,0xff,0x03,
 0x00,0x00,0xc0,0xff,0x03,0xf0,0xff,0xff,0xff,0xfe,0xff,0xff,0xff,0x00,0x06,
 0x00,0x18,0xf0,0xff,0xff,0xff,0xfd,0xff,0xff,0x1f,0x00,0xfc,0x7f,0x00,0xfc,
 0xff,0x03,0x00,0x00,0xc0,0xff,0x03,0xf0,0xff,0xff,0xff,0xfe,0xff,0xff,0xff,
 0x00,0x00,0x00,0x00,0x00,0x00,0x00,0x00,0x00,0x00,0x00,0x00,0x00,0x00,0x00,
 0x00,0x00,0x00,0x00,0x00,0x00,0x00,0x00,0x00,0x00,0x00,0x00,0x00,0x00,0x00,
 0x00,0x00,0x00,0x00,0x00,0x00,0x00,0x00,0x00,0x00,0x00,0x00,0x00,0x00,0x00,
 0x00,0x00,0x00,0x00,0x00,0x00,0x00,0x00,0x00,0x00,0x00,0x00,0x00,0x00,0x00,
 0x00,0x00,0x00,0x00,0x00,0x1f,0x00,0xfc,0xff,0xff,0x7f,0x00,0xf0,0x1f,0x00,
 0x00,0xc0,0x7f,0x00,0x00,0x00,0x00,0x00,0x00,0x00,0x00,0x00,0x00,0x00,0x00,
 0x00,0x00,0x00,0x00,0x00,0x00,0xc0,0x7f,0x00,0xfc,0xff,0xff,0x7f,0x00,0xfc,
 0x7f,0x00,0x00,0xf0,0xff,0x01,0x00,0x00,0x00,0x00,0x00,0x00,0x00,0x00,0x00,
 0x00,0x00,0x00,0x00,0x00,0x00,0x00,0x00,0xf0,0xf3,0x00,0x0c,0x00,0x01,0x60,
 0x00,0x3f,0xf8,0x01,0x00,0xfc,0xe0,0x07,0x00,0x00,0x00,0x00,0x00,0x00,0x00,
 0x00,0x00,0x00,0x00,0x00,0x00,0x00,0x00,0x00,0x00,0xf8,0xc0,0x03,0x0c,0x00,
 0x01,0x60,0xc0,0x0f,0xe0,0x07,0x00,0x3f,0x80,0x1f,0x00,0x00,0x00,0x00,0x00,
 0x00,0x00,0x00,0x00,0x00,0x00,0x00,0x00,0x00,0x00,0x00,0x00,0x3e,0x00,0x07,
 0x0c,0x00,0x01,0x60,0xe0,0x01,0x00,0x0f,0x80,0x07,0x00,0x3c,0x00,0x00,0x00,
 0x00,0x00,0x00,0x00,0x00,0x00,0x00,0x00,0x00,0x00,0x00,0x00,0x00,0x00,0x0f,
 0x04,0x06,0x0c,0x00,0x01,0x60,0x70,0x00,0x00,0x1c,0xc0,0x01,0x00,0x70,0x00,
 0x00,0x00,0x00,0x00,0x00,0x00,0x00,0x00,0x00,0x00,0x00,0x00,0x00,0x00,0x00,
 0x00,0x07,0x04,0x06,0x0c,0x00,0x01,0x60,0x38,0x00,0x00,0x38,0xe0,0x00,0x00,
 0xe0,0x00,0x00,0x00,0x00,0x00,0x00,0x00,0x00,0x00,0x00,0x00,0x00,0x00,0x00,
 0x00,0x00,0x00,0x03,0x04,0x0c,0x0c,0x00,0x01,0x60,0x1c,0x00,0x00,0x70,0x70,
 0x00,0x00,0xc0,0x01,0x00,0x00,0x00,0x00,0x00,0x00,0x00,0x00,0x00,0x00,0x00,
 0x00,0x00,0x00,0x00,0x00,0x03,0x04,0x1c,0x0c,0x00,0x01,0x60,0x0c,0x00,0x00,
 0x60,0x30,0x00,0x00,0x80,0x01,0x00,0x00,0x00,0x00,0x00,0x00,0x00,0x00,0x00,
 0x00,0x00,0x00,0x00,0x00,0x00,0x00,0x03,0x04,0x18,0x0c,0x00,0x01,0x60,0x0e,
 0x00,0x00,0xe0,0x38,0x00,0x00,0x80,0x03,0x00,0x00,0x00,0x00,0x00,0x00,0x00,
 0x00,0x00,0x00,0x00,0x00,0x00,0x00,0x00,0x00,0x03,0x04,0x18,0x0c,0x00,0x01,
 0x60,0x06,0x00,0x00,0xc0,0x18,0x00,0x00,0x00,0x03,0x00,0x00,0x00,0x00,0x00,
 0x00,0x00,0x00,0x00,0x00,0x00,0x00,0x00,0x00,0x00,0x00,0x03,0x00,0x18,0x0c,
 0x00,0x01,0x60,0x07,0x00,0x00,0xc0,0x1d,0x00,0xfc,0xff,0x07,0x00,0x00,0x00,
 0x00,0x00,0x00,0x00,0x00,0x00,0x00,0x00,0x00,0x00,0x00,0x00,0x00,0x03,0x00,
 0x18,0x0c,0x00,0x01,0x60,0x03,0x00,0x00,0x80,0x0d,0x00,0x00,0x00,0x06,0x00,
 0x00,0x00,0x00,0x00,0x00,0x00,0x00,0x00,0x00,0x00,0x00,0x00,0x00,0x00,0x00,
 0x03,0x00,0x1c,0x0c,0x00,0x01,0x60,0x03,0x00,0x00,0x80,0x0d,0x00,0x00,0x00,
 0x06,0x00,0x00,0x00,0x00,0x00,0x00,0x00,0x00,0x00,0x00,0x00,0x00,0x00,0x00,
 0x00,0x00,0x03,0x00,0x0e,0x0c,0x00,0x01,0x60,0x03,0x80,0xff,0xff,0x0d,0x00,
 0x00,0x00,0x06,0x00,0x00,0x00,0x00,0x00,0x00,0x00,0x00,0x00,0x00,0x00,0x00,
 0x00,0x00,0x00,0x00,0x03,0x00,0x0e,0x0c,0x00,0x01,0x60,0x03,0x80,0x00,0x80,
 0x0d,0x00,0x00,0x00,0x06,0x00,0x00,0x00,0x00,0x00,0x00,0x00,0x00,0x00,0x00,
 0x00,0x00,0x00,0x00,0x00,0x00,0x03,0x00,0x3c,0x0c,0x00,0x01,0x60,0x03,0x80,
 0x00,0x80,0x0d,0x00,0x00,0x00,0x06,0x00,0x00,0x00,0x00,0x00,0x00,0x00,0x00,
 0x00,0x00,0x00,0x00,0x00,0x00,0x00,0x00,0x03,0x00,0x70,0x0c,0x00,0x01,0x60,
 0x03,0x80,0x00,0x80,0x0d,0x00,0x00,0x00,0x06,0x00,0x00,0x00,0x00,0x00,0x00,
 0x00,0x00,0x00,0x00,0x00,0x00,0x00,0x00,0x00,0x00,0x03,0x00,0x70,0x0c,0x00,
 0x01,0x60,0x03,0x80,0x00,0x80,0x0d,0x00,0x00,0x00,0x06,0x00,0x00,0x00,0x00,
 0x00,0x00,0x00,0x00,0x00,0x00,0x00,0x00,0x00,0x00,0x00,0x00,0x03,0x00,0xc0,
 0x0c,0x00,0x00,0x60,0x03,0x80,0x00,0x80,0x0d,0x00,0x00,0x00,0x06,0x00,0x00,
 0x00,0x00,0x00,0x00,0x00,0x00,0x00,0x00,0x00,0x00,0x00,0x00,0x00,0x00,0x03,
 0x40,0xc0,0x1c,0x00,0x00,0x70,0x07,0x80,0x1f,0xc0,0xfd,0xff,0x07,0x00,0x07,
 0x00,0x00,0x00,0x00,0x00,0x00,0x00,0x00,0x00,0x00,0x00,0x00,0x00,0x00,0x00,
 0x00,0x03,0x40,0xc0,0x1d,0x00,0x00,0x70,0x06,0x00,0x00,0xc0,0x18,0x00,0x00,
 0x00,0x03,0x00,0x00,0x00,0x00,0x00,0x00,0x00,0x00,0x00,0x00,0x00,0x00,0x00,
 0x00,0x00,0x00,0x03,0x40,0x80,0x39,0x00,0x00,0x38,0x0e,0x00,0x00,0xe0,0x38,
 0x00,0x00,0x80,0x03,0x00,0x00,0x00,0x00,0x00,0x00,0x00,0x00,0x00,0x00,0x00,
 0x00,0x00,0x00,0x00,0x00,0x03,0x40,0x80,0x39,0x00,0x00,0x38,0x0c,0x00,0x00,
 0x60,0x30,0x00,0x00,0x80,0x01,0x00,0x00,0x00,0x00,0x00,0x00,0x00,0x00,0x00,
 0x00,0x00,0x00,0x00,0x00,0x00,0x00,0x03,0x40,0x80,0x71,0x00,0x00,0x1c,0x1c,
 0x00,0x00,0x70,0x70,0x00,0x00,0xc0,0x01,0x00,0x00,0x00,0x00,0x00,0x00,0x00,
 0x00,0x00,0x00,0x00,0x00,0x00,0x00,0x00,0x00,0x03,0x00,0xc0,0x71,0x00,0x00,
 0x1c,0x38,0x00,0x00,0x38,0xe0,0x00,0x00,0xe0,0x00,0x00,0x00,0x00,0x00,0x00,
 0x00,0x00,0x00,0x00,0x00,0x00,0x00,0x00,0x00,0x00,0x00,0x03,0x00,0xe0,0xe0,
 0x00,0x00,0x0e,0x70,0x00,0x00,0x1c,0xc0,0x01,0x00,0x70,0x00,0x00,0x00,0x00,
 0x00,0x00,0x00,0x00,0x00,0x00,0x00,0x00,0x00,0x00,0x00,0x00,0x00,0x03,0x00,
 0xf0,0xe0,0x01,0x00,0x0f,0xe0,0x01,0x00,0x0f,0x80,0x07,0x00,0x3c,0x00,0x00,
 0x00,0x00,0x00,0x00,0x00,0x00,0x00,0x00,0x00,0x00,0x00,0x00,0x00,0x00,0x00,
 0x03,0x00,0x78,0xc0,0x03,0x80,0x07,0xc0,0x07,0xe0,0x07,0x00,0x3f,0x80,0x1f,
 0x00,0x00,0x00,0x00,0x00,0x00,0x00,0x00,0x00,0x00,0x00,0x00,0x00,0x00,0x00,
 0x00,0x00,0x03,0x00,0x3f,0x00,0x3f,0xf8,0x01,0x00,0x3f,0xf8,0x01,0x00,0xfc,
 0xe0,0x07,0x00,0x00,0x00,0x00,0x00,0x00,0x00,0x00,0x00,0x00,0x00,0x00,0x00,
 0x00,0x00,0x00,0x00,0xff,0xff,0x0f,0x00,0xfe,0xff,0x00,0x00,0xfc,0x7f,0x00,
 0x00,0xf0,0xff,0x01,0x00,0x00,0x00,0x00,0x00,0x00,0x00,0x00,0x00,0x00,0x00,
 0x00,0x00,0x00,0x00,0x00,0x00,0xff,0xff,0x03,0x00,0xf0,0x1f,0x00,0x00,0xf0,
 0x1f,0x00,0x00,0xc0,0x7f,0x00,0x00,0x00,0x00,0x00,0x00,0x00,0x00,0x00,0x00,
 0x00,0x00,0x00,0x00,0x00,0x00,0x00,0x00 };
