#define _width 256
#define _height 64
static char _bits[] = {
 0xfe,0xff,0x00,0x00,0x00,0x00,0x00,0x00,0x00,0x00,0x00,0x00,0x00,0x00,0x00,
 0x00,0x00,0x00,0x00,0x00,0x00,0x00,0x00,0x00,0x00,0x00,0x00,0x00,0x00,0x00,
 0x00,0x00,0xff,0xff,0x03,0x00,0x00,0x00,0x00,0x00,0x00,0x00,0x00,0x00,0x00,
 0x00,0x00,0x00,0x00,0x00,0x00,0x00,0x00,0x00,0x00,0x00,0x00,0x00,0x00,0x00,
 0x00,0x00,0x00,0x00,0xff,0xff,0x07,0x00,0x00,0x00,0x00,0x00,0x00,0x00,0x00,
 0x00,0x00,0x00,0x00,0x00,0x00,0x00,0x00,0x00,0x00,0x00,0x00,0x00,0x00,0x00,
 0x00,0x00,0x00,0x00,0x00,0x00,0xff,0xff,0x0f,0x00,0x00,0x00,0x00,0x00,0x00,
 0x00,0x00,0x00,0x00,0x00,0x00,0x00,0x00,0x00,0x00,0x00,0x00,0x00,0x00,0x00,
 0x00,0x00,0x00,0x00,0x00,0x00,0x00,0x00,0x1f,0xe0,0x1f,0x00,0x00,0x00,0x00,
 0x00,0x00,0x00,0x00,0x00,0x00,0x00,0x00,0x00,0x00,0x00,0x00,0x00,0x00,0x00,
 0x00,0x00,0x00,0x00,0x00,0x00,0x00,0x00,0x00,0x00,0x1f,0x80,0x1f,0x00,0x00,
 0x00,0x00,0x00,0x00,0x00,0x00,0x00,0x00,0x00,0x00,0x00,0x00,0x00,0x00,0x00,
 0x00,0x00,0x00,0x00,0x00,0x00,0x00,0x00,0x00,0x00,0x00,0x00,0x1f,0x00,0x3f,
 0x00,0x00,0x00,0x00,0x00,0x00,0x00,0x00,0x00,0x00,0x00,0x00,0x00,0x00,0x00,
 0x00,0x00,0x00,0x00,0x00,0x00,0x00,0x00,0x00,0x00,0x00,0x00,0x00,0x00,0x1f,
 0x00,0x3e,0xe0,0xf8,0x00,0xfe,0x00,0x80,0xff,0x00,0x1c,0x7e,0xe0,0x03,0x00,
 0x00,0x00,0x00,0x00,0x00,0x00,0x00,0x00,0x00,0x00,0x00,0x00,0x00,0x00,0x00,
 0x00,0x1f,0x00,0x7e,0xf0,0xfd,0x81,0xff,0x03,0xe0,0xff,0x03,0x9e,0xff,0xf8,
 0x0f,0x00,0x00,0x00,0x00,0x00,0x00,0x00,0x00,0x00,0x00,0x00,0x00,0x00,0x00,
 0x00,0x00,0x00,0x1f,0x00,0x7c,0xf0,0xff,0xc3,0xff,0x0f,0xf0,0xff,0x07,0xfe,
 0xff,0xfd,0x1f,0x00,0x00,0x00,0x00,0x00,0x00,0x00,0x00,0x00,0x00,0x00,0x00,
 0x00,0x00,0x00,0x00,0x00,0x1f,0x00,0x7c,0xf0,0xff,0xe3,0xff,0x1f,0xf8,0xff,
 0x07,0xfe,0xff,0xff,0x1f,0x00,0x00,0x00,0x00,0x00,0x00,0x00,0x00,0x00,0x00,
 0x00,0x00,0x00,0x00,0x00,0x00,0x00,0x1f,0x00,0x7c,0xf0,0x87,0xf1,0x83,0x1f,
 0xf8,0xc0,0x0f,0xfe,0xf0,0x0f,0x3f,0x00,0x00,0x00,0x00,0x00,0x00,0x00,0x00,
 0x00,0x00,0x00,0x00,0x00,0x00,0x00,0x00,0x00,0x1f,0x00,0x7c,0xf0,0x03,0xf0,
 0x01,0x3f,0x78,0x80,0x0f,0x7e,0xe0,0x07,0x3e,0x00,0x00,0x00,0x00,0x00,0x00,
 0x00,0x00,0x00,0x00,0x00,0x00,0x00,0x00,0x00,0x00,0x00,0x1f,0x00,0x7c,0xf0,
 0x03,0xf8,0x00,0x3e,0x38,0x80,0x0f,0x3e,0xe0,0x03,0x3e,0x00,0x00,0x00,0x00,
 0x00,0x00,0x00,0x00,0x00,0x00,0x00,0x00,0x00,0x00,0x00,0x00,0x00,0x1f,0x00,
 0x7c,0xf0,0x01,0xf8,0x00,0x3e,0x00,0xe0,0x0f,0x3e,0xe0,0x03,0x3e,0x00,0x00,
 0x00,0x00,0x00,0x00,0x00,0x00,0x00,0x00,0x00,0x00,0x00,0x00,0x00,0x00,0x00,
 0x1f,0x00,0x7c,0xf0,0x01,0xf8,0xff,0x3f,0x00,0xfe,0x0f,0x3e,0xe0,0x03,0x3e,
 0x00,0x00,0x00,0x00,0x00,0x00,0x00,0x00,0x00,0x00,0x00,0x00,0x00,0x00,0x00,
 0x00,0x00,0x1f,0x00,0x7c,0xf0,0x01,0xf8,0xff,0x3f,0xe0,0xff,0x0f,0x3e,0xe0,
 0x03,0x3e,0x00,0x00,0x00,0x00,0x00,0x00,0x00,0x00,0x00,0x00,0x00,0x00,0x00,
 0x00,0x00,0x00,0x00,0x1f,0x00,0x7c,0xf0,0x01,0xf8,0xff,0x1f,0xf0,0x9f,0x0f,
 0x3e,0xe0,0x03,0x3e,0x00,0x00,0x00,0x00,0x00,0x00,0x00,0x00,0x00,0x00,0x00,
 0x00,0x00,0x00,0x00,0x00,0x00,0x1f,0x00,0x7e,0xf0,0x01,0xf8,0x00,0x00,0xf8,
 0x81,0x0f,0x3e,0xe0,0x03,0x3e,0x00,0x00,0x00,0x00,0x00,0x00,0x00,0x00,0x00,
 0x00,0x00,0x00,0x00,0x00,0x00,0x00,0x00,0x1f,0x00,0x3e,0xf0,0x01,0xf8,0x00,
 0x00,0x7c,0x80,0x0f,0x3e,0xe0,0x03,0x3e,0x00,0x00,0x00,0x00,0x00,0x00,0x00,
 0x00,0x00,0x00,0x00,0x00,0x00,0x00,0x00,0x00,0x00,0x1f,0x00,0x3f,0xf0,0x01,
 0xf8,0x01,0x3c,0x7c,0x80,0x0f,0x3e,0xe0,0x03,0x3e,0x00,0x00,0x00,0x00,0x00,
 0x00,0x00,0x00,0x00,0x00,0x00,0x00,0x00,0x00,0x00,0x00,0x00,0x1f,0x80,0x3f,
 0xf0,0x01,0xf0,0x01,0x3e,0x7c,0xc0,0x0f,0x3e,0xe0,0x03,0x3e,0x00,0x00,0x00,
 0x00,0x00,0x00,0x00,0x00,0x00,0x00,0x00,0x00,0x00,0x00,0x00,0x00,0x00,0x1f,
 0xc0,0x1f,0xf0,0x01,0xf0,0x07,0x3f,0xfc,0xf0,0x0f,0x3e,0xe0,0x03,0x3e,0x00,
 0x00,0x00,0x00,0x00,0x00,0x00,0x00,0x00,0x00,0x00,0x00,0x00,0x00,0x00,0x00,
 0x00,0xff,0xff,0x0f,0xf0,0x01,0xe0,0xff,0x1f,0xfc,0xff,0x1f,0x3e,0xe0,0x03,
 0x3e,0x00,0x00,0x00,0x00,0x00,0x00,0x00,0x00,0x00,0x00,0x00,0x00,0x00,0x00,
 0x00,0x00,0x00,0xff,0xff,0x07,0xf0,0x01,0xc0,0xff,0x0f,0xf8,0x3f,0x1f,0x3e,
 0xe0,0x03,0x3e,0x00,0x00,0x00,0x00,0x00,0x00,0x00,0x00,0x00,0x00,0x00,0x00,
 0x00,0x00,0x00,0x00,0x00,0xff,0xff,0x03,0xf0,0x01,0x80,0xff,0x07,0xf0,0x1f,
 0x1f,0x3e,0xe0,0x03,0x3e,0x00,0x00,0x00,0x00,0x00,0x00,0x00,0x00,0x00,0x00,
 0x00,0x00,0x00,0x00,0x00,0x00,0x00,0xfe,0xff,0x00,0xe0,0x00,0x00,0xfe,0x01,
 0xc0,0x07,0x0e,0x1c,0xc0,0x01,0x1c,0x00,0x00,0x00,0x00,0x00,0x00,0x00,0x00,
 0x00,0x00,0x00,0x00,0x00,0x00,0x00,0x00,0x00,0x00,0x00,0x00,0x00,0x00,0x00,
 0x00,0x00,0x00,0x00,0x00,0x00,0x00,0x00,0x00,0x00,0x00,0x00,0x00,0x00,0x00,
 0x00,0x00,0x00,0x00,0x00,0x00,0x00,0x00,0x00,0x00,0x00,0x00,0x00,0x00,0x00,
 0x00,0x00,0x00,0x00,0x00,0x00,0x00,0x00,0x00,0x00,0x00,0x00,0x00,0x00,0x00,
 0x00,0x00,0x00,0x00,0x00,0x00,0x00,0x00,0x00,0x00,0x00,0x00,0x00,0x00,0x00,
 0x00,0x00,0x00,0x00,0x00,0x00,0x00,0x00,0x00,0x00,0x00,0xfc,0x01,0xc0,0x01,
 0x00,0x00,0x00,0x00,0x00,0x00,0x00,0x00,0x00,0x00,0x00,0x00,0x00,0x00,0x00,
 0x00,0x00,0x00,0x00,0x00,0x00,0x00,0x00,0x00,0x00,0x00,0x00,0x80,0xff,0x0f,
 0xe0,0x03,0x00,0x00,0x00,0x00,0x00,0x00,0x00,0x00,0x00,0x00,0x00,0x00,0x00,
 0x00,0x00,0x00,0x00,0x00,0x00,0x00,0x00,0x00,0x00,0x00,0x00,0x00,0x00,0xc0,
 0xff,0x1f,0xe0,0x03,0x00,0x00,0x00,0x00,0x00,0x00,0x00,0x00,0x00,0x00,0x00,
 0x00,0x00,0x00,0x00,0x00,0x00,0x00,0x00,0x00,0x00,0x00,0x00,0x00,0x00,0x00,
 0x00,0xe0,0xff,0x3f,0xe0,0x03,0x00,0x00,0x00,0x00,0x00,0x00,0x00,0x00,0x00,
 0x00,0x00,0x00,0x00,0x00,0x00,0x00,0x00,0x00,0x00,0x00,0x00,0x00,0x00,0x00,
 0x00,0x00,0x00,0xe0,0x07,0x3f,0xe0,0x03,0x00,0x00,0x00,0x00,0x00,0x00,0x00,
 0x00,0x00,0x00,0x00,0x00,0x00,0x00,0x00,0x00,0x00,0x00,0x00,0x00,0x00,0x00,
 0x00,0x00,0x00,0x00,0x00,0xf0,0x03,0x7e,0xe0,0x03,0x00,0x00,0x00,0x00,0x00,
 0x00,0x00,0x00,0x00,0x00,0x00,0x00,0x00,0x00,0x00,0x00,0x00,0x00,0x00,0x00,
 0x00,0x00,0x00,0x00,0x00,0x00,0x00,0xf0,0x01,0x7c,0xe0,0x03,0x00,0x00,0x00,
 0x00,0x00,0x00,0x00,0x00,0x00,0x00,0x00,0x00,0x00,0x00,0x00,0x00,0x00,0x00,
 0x00,0x00,0x00,0x00,0x00,0x00,0x00,0x00,0x00,0xf0,0x01,0x78,0xe0,0xe3,0x07,
 0x00,0xfe,0x00,0x38,0xf8,0x00,0x38,0xf8,0x00,0x00,0x7f,0x00,0x38,0x3e,0x00,
 0x00,0x00,0x00,0x00,0x00,0x00,0x00,0x00,0x00,0x00,0x00,0xf0,0x03,0x38,0xe0,
 0xf3,0x1f,0xc0,0xff,0x03,0x7c,0xfe,0x03,0x7c,0xfe,0x03,0xc0,0xff,0x01,0x7c,
 0x7f,0x00,0x00,0x00,0x00,0x00,0x00,0x00,0x00,0x00,0x00,0x00,0x00,0xf0,0x07,
 0x00,0xe0,0xfb,0x3f,0xe0,0xff,0x0f,0x7c,0xff,0x07,0x7c,0xff,0x07,0xe0,0xff,
 0x07,0xfc,0xff,0x00,0x00,0x00,0x00,0x00,0x00,0x00,0x00,0x00,0x00,0x00,0x00,
 0xe0,0x3f,0x00,0xe0,0xff,0x3f,0xf0,0xff,0x1f,0xfc,0xff,0x0f,0xfc,0xff,0x0f,
 0xf0,0xff,0x0f,0xfc,0xff,0x00,0x00,0x00,0x00,0x00,0x00,0x00,0x00,0x00,0x00,
 0x00,0x00,0xe0,0xff,0x03,0xe0,0x0f,0x7e,0xf8,0x83,0x3f,0xfc,0xc3,0x1f,0xfc,
 0xc3,0x1f,0xf8,0xc1,0x0f,0xfc,0x61,0x00,0x00,0x00,0x00,0x00,0x00,0x00,0x00,
 0x00,0x00,0x00,0x00,0xc0,0xff,0x0f,0xe0,0x07,0x7e,0xf8,0x01,0x3f,0xfc,0x01,
 0x1f,0xfc,0x01,0x1f,0xf8,0x80,0x1f,0xfc,0x00,0x00,0x00,0x00,0x00,0x00,0x00,
 0x00,0x00,0x00,0x00,0x00,0x00,0x00,0xff,0x3f,0xe0,0x07,0x7c,0xf8,0x00,0x3e,
 0xfc,0x00,0x3f,0xfc,0x00,0x3f,0x7c,0x00,0x1f,0xfc,0x00,0x00,0x00,0x00,0x00,
 0x00,0x00,0x00,0x00,0x00,0x00,0x00,0x00,0x00,0xf8,0x7f,0xe0,0x03,0x7c,0x7c,
 0x00,0x7c,0xfc,0x00,0x3e,0xfc,0x00,0x3e,0x7c,0x00,0x1f,0x7c,0x00,0x00,0x00,
 0x00,0x00,0x00,0x00,0x00,0x00,0x00,0x00,0x00,0x00,0x00,0x80,0x7f,0xe0,0x03,
 0x7c,0x7c,0x00,0x7c,0x7c,0x00,0x3e,0x7c,0x00,0x3e,0xfc,0xff,0x1f,0x7c,0x00,
 0x00,0x00,0x00,0x00,0x00,0x00,0x00,0x00,0x00,0x00,0x00,0x00,0x00,0x00,0xfe,
 0xe0,0x03,0x7c,0x7c,0x00,0x7c,0x7c,0x00,0x3e,0x7c,0x00,0x3e,0xfc,0xff,0x1f,
 0x7c,0x00,0x00,0x00,0x00,0x00,0x00,0x00,0x00,0x00,0x00,0x00,0x00,0x00,0x70,
 0x00,0xfc,0xe0,0x03,0x7c,0x7c,0x00,0x7c,0x7c,0x00,0x3e,0x7c,0x00,0x3e,0xfc,
 0xff,0x0f,0x7c,0x00,0x00,0x00,0x00,0x00,0x00,0x00,0x00,0x00,0x00,0x00,0x00,
 0x00,0xf0,0x00,0xf8,0xe0,0x03,0x7c,0x7c,0x00,0x7c,0x7c,0x00,0x3e,0x7c,0x00,
 0x3e,0x7c,0x00,0x00,0x7c,0x00,0x00,0x00,0x00,0x00,0x00,0x00,0x00,0x00,0x00,
 0x00,0x00,0x00,0xf8,0x01,0xf8,0xe0,0x03,0x7c,0x7c,0x00,0x7c,0xfc,0x00,0x3e,
 0xfc,0x00,0x3e,0x7c,0x00,0x00,0x7c,0x00,0x00,0x00,0x00,0x00,0x00,0x00,0x00,
 0x00,0x00,0x00,0x00,0x00,0xf0,0x01,0xf8,0xe0,0x03,0x7c,0xf8,0x00,0x3e,0xfc,
 0x00,0x3f,0xfc,0x00,0x3f,0xfc,0x00,0x1e,0x7c,0x00,0x00,0x00,0x00,0x00,0x00,
 0x00,0x00,0x00,0x00,0x00,0x00,0x00,0xf0,0x03,0xfc,0xe0,0x03,0x7c,0xf8,0x01,
 0x3f,0xfc,0x01,0x1f,0xfc,0x01,0x1f,0xf8,0x00,0x1f,0x7c,0x00,0x00,0x00,0x00,
 0x00,0x00,0x00,0x00,0x00,0x00,0x00,0x00,0x00,0xf0,0x07,0x7e,0xe0,0x03,0x7c,
 0xf8,0x83,0x3f,0xfc,0xc3,0x1f,0xfc,0xc3,0x1f,0xf8,0x83,0x1f,0x7c,0x00,0x00,
 0x00,0x00,0x00,0x00,0x00,0x00,0x00,0x00,0x00,0x00,0x00,0xe0,0xff,0x3f,0xe0,
 0x03,0x7c,0xf0,0xff,0x1f,0xfc,0xff,0x0f,0xfc,0xff,0x0f,0xf0,0xff,0x0f,0x7c,
 0x00,0x00,0x00,0x00,0x00,0x00,0x00,0x00,0x00,0x00,0x00,0x00,0x00,0xc0,0xff,
 0x3f,0xe0,0x03,0x7c,0xe0,0xff,0x0f,0x7c,0xff,0x07,0x7c,0xff,0x07,0xe0,0xff,
 0x07,0x7c,0x00,0x00,0x00,0x00,0x00,0x00,0x00,0x00,0x00,0x00,0x00,0x00,0x00,
 0x00,0xff,0x0f,0xe0,0x03,0x7c,0x80,0xff,0x03,0x7c,0xfe,0x03,0x7c,0xfe,0x03,
 0xc0,0xff,0x03,0x7c,0x00,0x00,0x00,0x00,0x00,0x00,0x00,0x00,0x00,0x00,0x00,
 0x00,0x00,0x00,0xfc,0x03,0xc0,0x01,0x38,0x00,0xfe,0x00,0x7c,0xf8,0x00,0x7c,
 0xf8,0x00,0x00,0xff,0x00,0x38,0x00,0x00,0x00,0x00,0x00,0x00,0x00,0x00,0x00,
 0x00,0x00,0x00,0x00,0x00,0x00,0x00,0x00,0x00,0x00,0x00,0x00,0x00,0x7c,0x00,
 0x00,0x7c,0x00,0x00,0x00,0x00,0x00,0x00,0x00,0x00,0x00,0x00,0x00,0x00,0x00,
 0x00,0x00,0x00,0x00,0x00,0x00,0x00,0x00,0x00,0x00,0x00,0x00,0x00,0x00,0x00,
 0x7c,0x00,0x00,0x7c,0x00,0x00,0x00,0x00,0x00,0x00,0x00,0x00,0x00,0x00,0x00,
 0x00,0x00,0x00,0x00,0x00,0x00,0x00,0x00,0x00,0x00,0x00,0x00,0x00,0x00,0x00,
 0x00,0x00,0x7c,0x00,0x00,0x7c,0x00,0x00,0x00,0x00,0x00,0x00,0x00,0x00,0x00,
 0x00,0x00,0x00,0x00,0x00,0x00,0x00,0x00,0x00,0x00,0x00,0x00,0x00,0x00,0x00,
 0x00,0x00,0x00,0x00,0x7c,0x00,0x00,0x7c,0x00,0x00,0x00,0x00,0x00,0x00,0x00,
 0x00,0x00,0x00,0x00,0x00,0x00,0x00,0x00,0x00,0x00,0x00,0x00,0x00,0x00,0x00,
 0x00,0x00,0x00,0x00,0x00,0x00,0x7c,0x00,0x00,0x7c,0x00,0x00,0x00,0x00,0x00,
 0x00,0x00,0x00,0x00,0x00,0x00,0x00,0x00,0x00,0x00,0x00,0x00,0x00,0x00,0x00,
 0x00,0x00,0x00,0x00,0x00,0x00,0x00,0x00,0x7c,0x00,0x00,0x7c,0x00,0x00,0x00,
 0x00,0x00,0x00,0x00,0x00,0x00,0x00,0x00,0x00,0x00,0x00,0x00,0x00,0x00,0x00,
 0x00,0x00,0x00,0x00,0x00,0x00,0x00,0x00,0x00,0x00,0x7c,0x00,0x00,0x7c,0x00,
 0x00,0x00,0x00,0x00,0x00,0x00,0x00,0x00,0x00,0x00,0x00,0x00,0x00,0x00,0x00,
 0x00,0x00,0x00,0x00,0x00,0x00,0x00,0x00,0x00,0x00,0x00,0x00,0x38,0x00,0x00,
 0x38,0x00,0x00,0x00,0x00,0x00,0x00,0x00 };
