#define _width 256
#define _height 64
static char _bits[] = {
 0x00,0x00,0x00,0x00,0x00,0x00,0x00,0x00,0x00,0x00,0x00,0x00,0x00,0x00,0x00,
 0x00,0x00,0x00,0x00,0x00,0x00,0x00,0x00,0x00,0x00,0x00,0x00,0x00,0x00,0x00,
 0x00,0x00,0x00,0x00,0x00,0x00,0x00,0x00,0x00,0x00,0x00,0x00,0x00,0x00,0x00,
 0x00,0x00,0x00,0x00,0x00,0x00,0x00,0x00,0x00,0x00,0x00,0x00,0x00,0x00,0x00,
 0x00,0x00,0x00,0x00,0x00,0x00,0x00,0x00,0x00,0x00,0x00,0x00,0x00,0x00,0x00,
 0x00,0x00,0x00,0x00,0x00,0x00,0x00,0x00,0x00,0x00,0x00,0x00,0x00,0x00,0x00,
 0x00,0x00,0x00,0x00,0x00,0x00,0x00,0x00,0x00,0x00,0x00,0x00,0x00,0x00,0x00,
 0x00,0x00,0x00,0x00,0x00,0x00,0x00,0x00,0x00,0x00,0x00,0x00,0x00,0x00,0x00,
 0x00,0x00,0x00,0x00,0x00,0x00,0x00,0x00,0x00,0x00,0x00,0x00,0x00,0x00,0x00,
 0x00,0x00,0x00,0x00,0x00,0x00,0x00,0x00,0x00,0x00,0x00,0x00,0x00,0x00,0x00,
 0x00,0x00,0x00,0x00,0x00,0x00,0x00,0x00,0x00,0x00,0x00,0x00,0x00,0x00,0x00,
 0x00,0x00,0x00,0x00,0x00,0x00,0x00,0x00,0x00,0x00,0x00,0x00,0x00,0x00,0x00,
 0x00,0x00,0x00,0x00,0x00,0x00,0x00,0x00,0x00,0x00,0x00,0x00,0x00,0x00,0x00,
 0x00,0x00,0x00,0x00,0x00,0x00,0x00,0x00,0x00,0x00,0x00,0x00,0x00,0x00,0x00,
 0x00,0x00,0x00,0x00,0x00,0x00,0x00,0x00,0x00,0x00,0x00,0x00,0x00,0x00,0x00,
 0x00,0x00,0x00,0x00,0x00,0x00,0x00,0x00,0x00,0x00,0x00,0x00,0x00,0x00,0x00,
 0x00,0x00,0x00,0x00,0x00,0x00,0x00,0x00,0x00,0x00,0x00,0x00,0x00,0x00,0x00,
 0x00,0x00,0x00,0x00,0x00,0x00,0x00,0x00,0x00,0x00,0x00,0x00,0x00,0x00,0x00,
 0x00,0x00,0x00,0x00,0x00,0x00,0x00,0x00,0x00,0x00,0x00,0x00,0x00,0x00,0x00,
 0x00,0x00,0x00,0x00,0x00,0x00,0x00,0x00,0x00,0x00,0x00,0x00,0x00,0x00,0x00,
 0x00,0x00,0x00,0x00,0x00,0x00,0x00,0x00,0x00,0x00,0x00,0x00,0x00,0x00,0x00,
 0x00,0x00,0x00,0x00,0x00,0x00,0x00,0x00,0x00,0x00,0x00,0x00,0x00,0x00,0x00,
 0x00,0x00,0x00,0x00,0x00,0x00,0x00,0x00,0x00,0x00,0x00,0x00,0x00,0x00,0x00,
 0x00,0x00,0x00,0x00,0x00,0x00,0x00,0x00,0x00,0x00,0x00,0x00,0x00,0x00,0x00,
 0x00,0x00,0x00,0x00,0x00,0x00,0x00,0x00,0x00,0x00,0x00,0x00,0x00,0x00,0x00,
 0x00,0x00,0x00,0x00,0x00,0x00,0x00,0x00,0x00,0x00,0x00,0x00,0x00,0x00,0x00,
 0x00,0x00,0x00,0x00,0x00,0x00,0x00,0x00,0x00,0x00,0x00,0x00,0x00,0x00,0x00,
 0x00,0x00,0x00,0x00,0x00,0x00,0x00,0x00,0x00,0x00,0x00,0x00,0x00,0x00,0x00,
 0x00,0x00,0x00,0x00,0x00,0x00,0x00,0x00,0x00,0x00,0x00,0x00,0x00,0x00,0x00,
 0x00,0x00,0x00,0x00,0x00,0x00,0x00,0x00,0x00,0x00,0x00,0x00,0x00,0x00,0x00,
 0x00,0x00,0x00,0x00,0x00,0x00,0x00,0x00,0x00,0x00,0x00,0x00,0x00,0x00,0x00,
 0x00,0x00,0x00,0x00,0x00,0x00,0x00,0x00,0x00,0x00,0x00,0x00,0x00,0x00,0x00,
 0x00,0x00,0x00,0x00,0x00,0x00,0x00,0x00,0x00,0x00,0x00,0x00,0x00,0x00,0x00,
 0x00,0x00,0x00,0x00,0x00,0x00,0x00,0x00,0x00,0x00,0x00,0x00,0x00,0x00,0x00,
 0x00,0x00,0x38,0x00,0x0e,0x80,0x03,0x00,0x00,0x00,0x00,0x00,0x00,0x00,0x00,
 0x00,0x80,0x03,0x00,0x00,0x00,0x00,0xfc,0x01,0x80,0x03,0xe0,0x00,0x38,0x00,
 0x00,0x00,0x00,0x00,0x7c,0x00,0x1f,0xc0,0x07,0x07,0x00,0x00,0x00,0x00,0x00,
 0x00,0x00,0x00,0xc0,0x07,0x00,0x00,0x00,0x00,0xff,0x03,0xc0,0x07,0xf0,0x01,
 0x7c,0x00,0x00,0x00,0x00,0x00,0x7c,0x80,0x3f,0xc0,0x87,0x0f,0x00,0x00,0x00,
 0x00,0x00,0x00,0x00,0x00,0xc0,0x07,0x00,0x00,0x00,0x00,0xff,0x03,0xc0,0x07,
 0xf8,0x03,0x7c,0x00,0x00,0x00,0x00,0x00,0x7c,0x80,0x3f,0xc0,0x87,0x0f,0x00,
 0x00,0x00,0x00,0x00,0x00,0x00,0x00,0xc0,0x07,0x00,0x00,0x00,0x80,0xff,0x01,
 0xc0,0x07,0xf8,0x03,0x7c,0x00,0x00,0x00,0x00,0x00,0x7c,0x80,0x3f,0xc0,0x87,
 0x0f,0x00,0x00,0x00,0x00,0x00,0x00,0x00,0x00,0xc0,0x07,0x00,0x00,0x00,0x80,
 0x1f,0x00,0xc0,0x07,0xf8,0x03,0x7c,0x00,0x00,0x00,0x00,0x00,0xf8,0xc0,0x7f,
 0xe0,0x03,0x07,0x00,0x00,0x00,0x00,0x00,0x00,0x00,0x00,0xc0,0x07,0x00,0x00,
 0x00,0x80,0x0f,0x00,0x80,0x0f,0xfc,0x07,0x3e,0x00,0x00,0x00,0x00,0x00,0xf8,
 0xc0,0x7f,0xe0,0x03,0x00,0x00,0x00,0x00,0x00,0x00,0x00,0x00,0x00,0xc0,0x07,
 0x00,0x00,0x00,0x80,0x0f,0x00,0x80,0x0f,0xfc,0x07,0x3e,0x00,0x00,0x00,0x00,
 0x00,0xf8,0xc0,0x7b,0xe0,0x03,0x00,0x00,0x00,0x00,0x00,0x00,0x00,0x00,0x00,
 0xc0,0x07,0x00,0x00,0x00,0x80,0x0f,0x00,0x80,0x0f,0xbc,0x07,0x3e,0x00,0x00,
 0x00,0x00,0x00,0xf8,0xc0,0x7b,0xe0,0x03,0x07,0xff,0x7f,0x00,0xff,0x01,0x1c,
 0x1f,0xf0,0xc3,0x07,0x00,0xe0,0x1f,0xf0,0x7f,0x00,0x80,0x0f,0xbc,0x07,0x3e,
 0x80,0x7f,0x00,0x8e,0x0f,0xf0,0xe1,0xfb,0xf0,0x81,0x0f,0xff,0xff,0xe0,0xff,
 0x07,0xbe,0x3f,0xfc,0xcf,0x07,0x00,0xf8,0x7f,0xf8,0xff,0x00,0x00,0x1f,0xbe,
 0x0f,0x1f,0xe0,0xff,0x01,0xdf,0x1f,0xf0,0xe1,0xfb,0xf0,0x81,0x0f,0xff,0xff,
 0xf0,0xff,0x0f,0xfe,0x7f,0xfe,0xdf,0x07,0x00,0xfc,0xff,0xf8,0xff,0x00,0x00,
 0x1f,0xbe,0x0f,0x1f,0xf0,0xff,0x03,0xff,0x3f,0xf0,0xe1,0xf1,0xf0,0x81,0x0f,
 0xff,0xff,0xf8,0xff,0x0f,0xfe,0x3f,0xff,0xff,0x07,0x00,0xfe,0xff,0xf1,0x7f,
 0x00,0x00,0x1f,0x1e,0x0f,0x1f,0xf8,0xff,0x07,0xff,0x1f,0xf0,0xf1,0xf1,0xf1,
 0x81,0x0f,0x00,0x7e,0xf8,0x81,0x1f,0xfe,0x10,0x7f,0xf8,0x07,0x00,0x7f,0xf8,
 0x83,0x0f,0x00,0x00,0x1f,0x1f,0x1f,0x1f,0xfc,0xe1,0x0f,0x7f,0x08,0xe0,0xf3,
 0xf1,0xf9,0x80,0x0f,0x00,0x3f,0xf8,0x00,0x1f,0x7e,0x00,0x1f,0xf0,0x07,0x00,
 0x1f,0xe0,0x83,0x0f,0x00,0x00,0x3e,0x1f,0x9f,0x0f,0x7c,0x80,0x0f,0x3f,0x00,
 0xe0,0xf3,0xe0,0xf9,0x80,0x0f,0x00,0x1f,0x70,0x00,0x1f,0x7e,0x80,0x1f,0xe0,
 0x07,0x80,0x1f,0xe0,0x87,0x0f,0x00,0x00,0x3e,0x0f,0x9e,0x0f,0x7e,0x80,0x1f,
 0x3f,0x00,0xe0,0xf3,0xe0,0xf9,0x80,0x0f,0x80,0x0f,0x00,0xc0,0x1f,0x3e,0x80,
 0x0f,0xe0,0x07,0x80,0x0f,0xc0,0x87,0x0f,0x00,0x00,0x3e,0x0f,0x9e,0x0f,0x3e,
 0x00,0x1f,0x1f,0x00,0xe0,0xfb,0xe0,0xfb,0x80,0x0f,0xc0,0x07,0x00,0xfe,0x1f,
 0x3e,0x80,0x0f,0xc0,0x07,0x80,0x0f,0xc0,0x87,0x0f,0x00,0x00,0xbe,0x0f,0xbe,
 0x0f,0x3e,0x00,0x1f,0x1f,0x00,0xc0,0xfb,0xe0,0x7b,0x80,0x0f,0xe0,0x03,0xe0,
 0xff,0x1f,0x3e,0x80,0x0f,0xc0,0x07,0x80,0x0f,0xc0,0x87,0x0f,0x00,0x00,0xbc,
 0x0f,0xbe,0x07,0x3e,0x00,0x1f,0x1f,0x00,0xc0,0x7f,0xc0,0x7f,0x80,0x0f,0xf0,
 0x01,0xf0,0x3f,0x1f,0x3e,0x80,0x0f,0xc0,0x07,0x80,0x0f,0xc0,0x87,0x0f,0x00,
 0x00,0xfc,0x07,0xfc,0x07,0x3e,0x00,0x1f,0x1f,0x00,0xc0,0x7f,0xc0,0x7f,0x80,
 0x0f,0xf8,0x01,0xf8,0x01,0x1f,0x3e,0x80,0x0f,0xe0,0x07,0x80,0x0f,0xc0,0x87,
 0x0f,0x00,0x00,0xfc,0x07,0xfc,0x07,0x3e,0x00,0x1f,0x1f,0x00,0xc0,0x7f,0xc0,
 0x7f,0x80,0x0f,0xfc,0x00,0x7c,0x00,0x1f,0x3e,0x80,0x1f,0xe0,0x07,0x80,0x1f,
 0xe0,0x87,0x0f,0x00,0x00,0xfc,0x07,0xfc,0x07,0x7e,0x80,0x1f,0x1f,0x00,0x80,
 0x7f,0xc0,0x3f,0x80,0x0f,0x7e,0x00,0x7c,0x00,0x1f,0x3e,0x00,0x1f,0xf0,0x07,
 0x00,0x1f,0xe0,0x83,0x0f,0x00,0x00,0xf8,0x07,0xfc,0x03,0x7c,0x80,0x0f,0x1f,
 0x00,0x80,0x3f,0x80,0x3f,0x80,0x0f,0x3f,0x00,0x7c,0x80,0x1f,0x3e,0x00,0x7f,
 0xf8,0x07,0x00,0x7f,0xf8,0x83,0x0f,0x00,0x00,0xf8,0x03,0xf8,0x03,0xfc,0xe1,
 0x0f,0x1f,0x00,0x80,0x3f,0x80,0x3f,0x80,0x8f,0xff,0xff,0xfc,0xe0,0x3f,0x3e,
 0x00,0xfe,0xff,0x07,0x00,0xfe,0xff,0x81,0x0f,0x00,0x00,0xf8,0x03,0xf8,0x03,
 0xf8,0xff,0x07,0x1f,0x00,0x80,0x3f,0x80,0x3f,0x80,0x8f,0xff,0xff,0xf9,0xff,
 0x3f,0x3e,0x00,0xfc,0xdf,0x07,0x00,0xfc,0xff,0x80,0x0f,0x00,0x00,0xf8,0x03,
 0xf8,0x03,0xf0,0xff,0x03,0x1f,0x00,0x00,0x1f,0x00,0x1f,0x80,0x8f,0xff,0xff,
 0xf1,0x7f,0x3e,0x3e,0x00,0xf8,0xcf,0x07,0x00,0xf8,0x7f,0x80,0x0f,0x00,0x00,
 0xf0,0x01,0xf0,0x01,0xe0,0xff,0x01,0x1f,0x00,0x00,0x0e,0x00,0x0e,0x00,0x07,
 0xff,0xff,0xc0,0x0f,0x1c,0x1c,0x00,0xf0,0x83,0x03,0x00,0xe0,0x1f,0x00,0x07,
 0x00,0x00,0xe0,0x00,0xe0,0x00,0x80,0x7f,0x00,0x0e,0x00,0x00,0x00,0x00,0x00,
 0x00,0x00,0x00,0x00,0x00,0x00,0x00,0x00,0x00,0x00,0x00,0x00,0x00,0x00,0x00,
 0x00,0x00,0x00,0x00,0x00,0x00,0x00,0x00,0x00,0x00,0x00,0x00,0x00,0x00,0x00,
 0x00,0x00,0x00,0x00,0x00,0x00,0x00,0x00,0x00,0x00,0x00,0x00,0x00,0x00,0x00,
 0x00,0x00,0x00,0x00,0x00,0x00,0x00,0x00,0x00,0x00,0x00,0x00,0x00,0x00,0x00,
 0x00,0x00,0x00,0x00,0x00,0x00,0x00,0x00,0x00,0x00,0x00,0x00,0x00,0x00,0x00,
 0x00,0x00,0x00,0x00,0x00,0x00,0x00,0x00,0x00,0x00,0x00,0x00,0x00,0x00,0x00,
 0x00,0x00,0x00,0x00,0x00,0x00,0x00,0x00,0x00,0x00,0x00,0x00,0x00,0x00,0x00,
 0x00,0x00,0x00,0x00,0x00,0x00,0x00,0x00,0x00,0x00,0x00,0x00,0x00,0x00,0x00,
 0x00,0x00,0x00,0x00,0x00,0x00,0x00,0x00,0x00,0x00,0x00,0x00,0x00,0x00,0x00,
 0x00,0x00,0x00,0x00,0x00,0x00,0x00,0x00,0x00,0x00,0x00,0x00,0x00,0x00,0x00,
 0x00,0x00,0x00,0x00,0x00,0x00,0x00,0x00,0x00,0x00,0x00,0x00,0x00,0x00,0x00,
 0x00,0x00,0x00,0x00,0x00,0x00,0x00,0x00,0x00,0x00,0x00,0x00,0x00,0x00,0x00,
 0x00,0x00,0x00,0x00,0x00,0x00,0x00,0x00,0x00,0x00,0x00,0x00,0x00,0x00,0x00,
 0x00,0x00,0x00,0x00,0x00,0x00,0x00,0x00,0x00,0x00,0x00,0x00,0x00,0x00,0x00,
 0x00,0x00,0x00,0x00,0x00,0x00,0x00,0x00,0x00,0x00,0x00,0x00,0x00,0x00,0x00,
 0x00,0x00,0x00,0x00,0x00,0x00,0x00,0x00,0x00,0x00,0x00,0x00,0x00,0x00,0x00,
 0x00,0x00,0x00,0x00,0x00,0x00,0x00,0x00,0x00,0x00,0x00,0x00,0x00,0x00,0x00,
 0x00,0x00,0x00,0x00,0x00,0x00,0x00,0x00,0x00,0x00,0x00,0x00,0x00,0x00,0x00,
 0x00,0x00,0x00,0x00,0x00,0x00,0x00,0x00,0x00,0x00,0x00,0x00,0x00,0x00,0x00,
 0x00,0x00,0x00,0x00,0x00,0x00,0x00,0x00,0x00,0x00,0x00,0x00,0x00,0x00,0x00,
 0x00,0x00,0x00,0x00,0x00,0x00,0x00,0x00,0x00,0x00,0x00,0x00,0x00,0x00,0x00,
 0x00,0x00,0x00,0x00,0x00,0x00,0x00,0x00,0x00,0x00,0x00,0x00,0x00,0x00,0x00,
 0x00,0x00,0x00,0x00,0x00,0x00,0x00,0x00,0x00,0x00,0x00,0x00,0x00,0x00,0x00,
 0x00,0x00,0x00,0x00,0x00,0x00,0x00,0x00,0x00,0x00,0x00,0x00,0x00,0x00,0x00,
 0x00,0x00,0x00,0x00,0x00,0x00,0x00,0x00,0x00,0x00,0x00,0x00,0x00,0x00,0x00,
 0x00,0x00,0x00,0x00,0x00,0x00,0x00,0x00,0x00,0x00,0x00,0x00,0x00,0x00,0x00,
 0x00,0x00,0x00,0x00,0x00,0x00,0x00,0x00,0x00,0x00,0x00,0x00,0x00,0x00,0x00,
 0x00,0x00,0x00,0x00,0x00,0x00,0x00,0x00,0x00,0x00,0x00,0x00,0x00,0x00,0x00,
 0x00,0x00,0x00,0x00,0x00,0x00,0x00,0x00,0x00,0x00,0x00,0x00,0x00,0x00,0x00,
 0x00,0x00,0x00,0x00,0x00,0x00,0x00,0x00,0x00,0x00,0x00,0x00,0x00,0x00,0x00,
 0x00,0x00,0x00,0x00,0x00,0x00,0x00,0x00,0x00,0x00,0x00,0x00,0x00,0x00,0x00,
 0x00,0x00,0x00,0x00,0x00,0x00,0x00,0x00,0x00,0x00,0x00,0x00,0x00,0x00,0x00,
 0x00,0x00,0x00,0x00,0x00,0x00,0x00,0x00,0x00,0x00,0x00,0x00,0x00,0x00,0x00,
 0x00,0x00,0x00,0x00,0x00,0x00,0x00,0x00,0x00,0x00,0x00,0x00,0x00,0x00,0x00,
 0x00,0x00,0x00,0x00,0x00,0x00,0x00,0x00,0x00,0x00,0x00,0x00,0x00,0x00,0x00,
 0x00,0x00,0x00,0x00,0x00,0x00,0x00,0x00,0x00,0x00,0x00,0x00,0x00,0x00,0x00,
 0x00,0x00,0x00,0x00,0x00,0x00,0x00,0x00,0x00,0x00,0x00,0x00,0x00,0x00,0x00,
 0x00,0x00,0x00,0x00,0x00,0x00,0x00,0x00,0x00,0x00,0x00,0x00,0x00,0x00,0x00,
 0x00,0x00,0x00,0x00,0x00,0x00,0x00,0x00,0x00,0x00,0x00,0x00,0x00,0x00,0x00,
 0x00,0x00,0x00,0x00,0x00,0x00,0x00,0x00,0x00,0x00,0x00,0x00,0x00,0x00,0x00,
 0x00,0x00,0x00,0x00,0x00,0x00,0x00,0x00,0x00,0x00,0x00,0x00,0x00,0x00,0x00,
 0x00,0x00,0x00,0x00,0x00,0x00,0x00,0x00,0x00,0x00,0x00,0x00,0x00,0x00,0x00,
 0x00,0x00,0x00,0x00,0x00,0x00,0x00,0x00,0x00,0x00,0x00,0x00,0x00,0x00,0x00,
 0x00,0x00,0x00,0x00,0x00,0x00,0x00,0x00,0x00,0x00,0x00,0x00,0x00,0x00,0x00,
 0x00,0x00,0x00,0x00,0x00,0x00,0x00,0x00 };
