#define _width 256
#define _height 64
static char _bits[] = {
 0x00,0x00,0x00,0x00,0x00,0x00,0x00,0x00,0x00,0x00,0x00,0x00,0x00,0x00,0x00,
 0x00,0x00,0x00,0x00,0x00,0x00,0x00,0x00,0x00,0x00,0x00,0x00,0x00,0x00,0x00,
 0x00,0x00,0x00,0x00,0x00,0x00,0x00,0x00,0x00,0x00,0x00,0x00,0x00,0x00,0x00,
 0x00,0x00,0x00,0x00,0x00,0x00,0x00,0x00,0x00,0x00,0x00,0x00,0x00,0x00,0x00,
 0x00,0x00,0x00,0x00,0x00,0x00,0x00,0x00,0x00,0x00,0x00,0x00,0x00,0x00,0x00,
 0x00,0x00,0x00,0x00,0x00,0x00,0x00,0x00,0x00,0x00,0x00,0x00,0x00,0x00,0x00,
 0x00,0x00,0x00,0x00,0x00,0x00,0x00,0x00,0x00,0x00,0x00,0x00,0x00,0x00,0x00,
 0x00,0x00,0x00,0x00,0x00,0x00,0x00,0x00,0x00,0x00,0x00,0x00,0x00,0x00,0x00,
 0x00,0x00,0x00,0x00,0x00,0x00,0x00,0x00,0x00,0x00,0x00,0x00,0x00,0x00,0x00,
 0x00,0x00,0x00,0x00,0x00,0x00,0x00,0x00,0x00,0x00,0x00,0x00,0x00,0x00,0x00,
 0x00,0x00,0x00,0x00,0x00,0x00,0x00,0x00,0x00,0x00,0x00,0x00,0x00,0x00,0x00,
 0x00,0x00,0x00,0x00,0x00,0x00,0x00,0x00,0x00,0x00,0x00,0x00,0x00,0x00,0x00,
 0x00,0x00,0x00,0x00,0x00,0x00,0x00,0x00,0x00,0x00,0x00,0x00,0x00,0x00,0x00,
 0x00,0x00,0x00,0x00,0x00,0x00,0x00,0x00,0x00,0x00,0x00,0x00,0x00,0x00,0x00,
 0x00,0x00,0x00,0x00,0x00,0x00,0x00,0x00,0x00,0x00,0x00,0x00,0x00,0x00,0x00,
 0x00,0x00,0x00,0x00,0x00,0x00,0x00,0x00,0x00,0x00,0x00,0x00,0x00,0x00,0x00,
 0x00,0x00,0x00,0x00,0x00,0x00,0x00,0x00,0x00,0x00,0x00,0x00,0x00,0x00,0x00,
 0x00,0x00,0x00,0x00,0x00,0x00,0x00,0x00,0x00,0x00,0x00,0x00,0x00,0x00,0x00,
 0x00,0x00,0x00,0x00,0x00,0x00,0x00,0x00,0x00,0x00,0x00,0x00,0x00,0x00,0x00,
 0x00,0x00,0x00,0x00,0x00,0x00,0x00,0x00,0x00,0x00,0x00,0x00,0x00,0x00,0x00,
 0x00,0x00,0x00,0x00,0x00,0x00,0x00,0x00,0x00,0x00,0x00,0x00,0x00,0x00,0x00,
 0x00,0x00,0x00,0x00,0x00,0x00,0x00,0x00,0x00,0x00,0x00,0x00,0x00,0x00,0x00,
 0x00,0x00,0x00,0x00,0x00,0x00,0x00,0x00,0x00,0x00,0x00,0x00,0x00,0x00,0x00,
 0x00,0x00,0x00,0x00,0x00,0x00,0x00,0x00,0x00,0x00,0x00,0x00,0x00,0x00,0x00,
 0x00,0x00,0x00,0x00,0x00,0x00,0x00,0x00,0x00,0x00,0x00,0x00,0x00,0x00,0x00,
 0x00,0x00,0x00,0x00,0x00,0x00,0x00,0x00,0x00,0x00,0x00,0x00,0x00,0x00,0x00,
 0x00,0x00,0x00,0x00,0x00,0x00,0x00,0x00,0x00,0x00,0x00,0x00,0x00,0x00,0x00,
 0x00,0x00,0x00,0x00,0x00,0x00,0x00,0x00,0x00,0x00,0x00,0x00,0x00,0x00,0x00,
 0x00,0x00,0x00,0x00,0x00,0x00,0x00,0x00,0x00,0x00,0x00,0x00,0x00,0x00,0x00,
 0x00,0x00,0x00,0x00,0x00,0x00,0x00,0x00,0x00,0x00,0x00,0x00,0x00,0x00,0x00,
 0x00,0x00,0x00,0x00,0x00,0x00,0x00,0x00,0x00,0x00,0x00,0x00,0x00,0x00,0x00,
 0x00,0x00,0x00,0x00,0x00,0x00,0x00,0x00,0x00,0x00,0x00,0x00,0x00,0x00,0x00,
 0x00,0xf8,0x07,0x00,0x00,0x00,0x00,0x00,0x00,0x00,0x00,0x00,0x00,0x00,0x00,
 0xf8,0x07,0x00,0x07,0x00,0x00,0x00,0x00,0x00,0x70,0x00,0x00,0x00,0x00,0x00,
 0x00,0x00,0x00,0xfe,0x1f,0x00,0x00,0x00,0x00,0x00,0x00,0x00,0x00,0x00,0x00,
 0x00,0x00,0xfe,0x1f,0x80,0x0f,0x1c,0x00,0x00,0x00,0x00,0xf8,0x00,0x00,0x00,
 0x00,0x00,0x00,0x00,0x00,0xff,0x7f,0x00,0x00,0x00,0x00,0x00,0x00,0x00,0x00,
 0x00,0x00,0x00,0x00,0xff,0x7f,0x80,0x0f,0x3e,0x00,0x00,0x00,0x00,0xf8,0x00,
 0x00,0x00,0x00,0x00,0x00,0x00,0xc0,0xff,0xff,0x00,0x00,0x00,0x00,0x00,0x00,
 0x00,0x00,0x00,0x00,0x00,0xc0,0xff,0xff,0x80,0x0f,0x3e,0x00,0x00,0x00,0x00,
 0xf8,0x00,0x00,0x00,0x00,0x00,0x00,0x00,0xc0,0x1f,0xfc,0x01,0x00,0x00,0x00,
 0x00,0x00,0x00,0x00,0x00,0x00,0x00,0xc0,0x1f,0xfc,0x81,0x0f,0x3e,0x00,0x00,
 0x00,0x00,0xf8,0x00,0x00,0x00,0x00,0x00,0x00,0x00,0xe0,0x07,0xf8,0x01,0x00,
 0x00,0x00,0x00,0x00,0x00,0x00,0x00,0x00,0x00,0xe0,0x07,0xf8,0x81,0x0f,0x1c,
 0x00,0x00,0x00,0x00,0xf8,0x00,0x00,0x00,0x00,0x00,0x00,0x00,0xf0,0x03,0xf0,
 0x03,0x00,0x00,0x00,0x00,0x00,0x00,0x00,0x00,0x00,0x00,0xf0,0x03,0xf0,0x83,
 0x0f,0x00,0x00,0x00,0x00,0x00,0xf8,0x00,0x00,0x00,0x00,0x00,0x00,0x00,0xf0,
 0x01,0xe0,0x03,0x00,0x00,0x00,0x00,0x00,0x00,0x00,0x00,0x00,0x00,0xf0,0x01,
 0xe0,0x83,0x0f,0x00,0x00,0x00,0x00,0x00,0xf8,0x00,0x00,0x00,0x00,0x00,0x00,
 0x00,0xf0,0x01,0xe0,0x83,0xe3,0x03,0xfc,0x07,0xf8,0xff,0xc3,0x01,0x38,0x00,
 0xf0,0x01,0xe0,0x83,0x0f,0x1c,0x38,0xfc,0xe0,0x07,0xf8,0xf0,0x03,0x00,0x7f,
 0x00,0x8e,0x0f,0xf8,0x01,0xc0,0xc1,0xf7,0x87,0xff,0x1f,0xf8,0xff,0xe7,0x03,
 0x78,0x00,0xf8,0x01,0xc0,0x81,0x0f,0x3e,0x3c,0xff,0xf1,0x0f,0xf8,0xfc,0x0f,
 0xc0,0xff,0x01,0xdf,0x1f,0xf8,0x00,0x00,0xc0,0xff,0xcf,0xff,0x3f,0xf8,0xff,
 0xe7,0x03,0x7c,0x00,0xf8,0x00,0x00,0x80,0x0f,0x3e,0xfc,0xff,0xfb,0x1f,0xf8,
 0xfe,0x1f,0xe0,0xff,0x03,0xff,0x3f,0xf8,0x00,0x00,0xc0,0xff,0xe7,0xff,0x3f,
 0xf8,0xff,0xe7,0x03,0x7c,0x00,0xf8,0x00,0x00,0x80,0x0f,0x3e,0xfc,0xff,0xff,
 0x3f,0xf8,0xff,0x1f,0xf0,0xff,0x07,0xff,0x1f,0xf8,0x00,0x00,0xc0,0x1f,0xe2,
 0x07,0x7e,0x00,0xf0,0xc3,0x07,0x3c,0x00,0xf8,0x00,0x00,0x80,0x0f,0x3e,0xfc,
 0xe1,0x1f,0x3f,0xf8,0x87,0x3f,0xf8,0xc1,0x0f,0x7f,0x08,0xf8,0x00,0x00,0xc0,
 0x0f,0xe0,0x03,0x7c,0x00,0xf8,0xc1,0x07,0x3e,0x00,0xf8,0x00,0x00,0x80,0x0f,
 0x3e,0xfc,0xc0,0x0f,0x3e,0xf8,0x03,0x3e,0xf8,0x80,0x0f,0x3f,0x00,0xf8,0x00,
 0x00,0xc0,0x0f,0xc0,0x01,0x7c,0x00,0xf8,0x80,0x07,0x3e,0x00,0xf8,0x00,0x00,
 0x80,0x0f,0x3e,0x7c,0xc0,0x07,0x3e,0xf8,0x01,0x7e,0x7c,0x00,0x1f,0x3f,0x00,
 0xf8,0x00,0x00,0xc0,0x07,0x00,0x00,0x7f,0x00,0x7c,0x80,0x0f,0x1f,0x00,0xf8,
 0x00,0x00,0x80,0x0f,0x3e,0x7c,0xc0,0x07,0x3e,0xf8,0x01,0x7c,0x7c,0x00,0x1f,
 0x1f,0x00,0xf8,0x00,0xc0,0xc1,0x07,0x00,0xf8,0x7f,0x00,0x3e,0x80,0x0f,0x1f,
 0x00,0xf8,0x00,0xc0,0x81,0x0f,0x3e,0x7c,0xc0,0x07,0x3e,0xf8,0x00,0x7c,0xfc,
 0xff,0x1f,0x1f,0x00,0xf8,0x00,0xc0,0xc3,0x07,0x80,0xff,0x7f,0x00,0x1f,0x00,
 0x0f,0x0f,0x00,0xf8,0x00,0xc0,0x83,0x0f,0x3e,0x7c,0xc0,0x07,0x3e,0xf8,0x00,
 0x7c,0xfc,0xff,0x0f,0x1f,0x00,0xf0,0x01,0xe0,0xc3,0x07,0xc0,0xff,0x7c,0x80,
 0x0f,0x00,0x9f,0x0f,0x00,0xf0,0x01,0xe0,0x83,0x0f,0x3e,0x7c,0xc0,0x07,0x3e,
 0xf8,0x00,0x7c,0xfc,0xff,0x0f,0x1f,0x00,0xf0,0x01,0xe0,0xc3,0x07,0xe0,0x07,
 0x7c,0xc0,0x0f,0x00,0x9e,0x0f,0x00,0xf0,0x01,0xe0,0x83,0x0f,0x3e,0x7c,0xc0,
 0x07,0x3e,0xf8,0x00,0x7c,0x7c,0x00,0x00,0x1f,0x00,0xf0,0x03,0xf0,0xc3,0x07,
 0xf0,0x01,0x7c,0xe0,0x07,0x00,0xbe,0x07,0x00,0xf0,0x03,0xf0,0x83,0x0f,0x3e,
 0x7c,0xc0,0x07,0x3e,0xf8,0x01,0x7e,0x7c,0x00,0x04,0x1f,0x00,0xe0,0x07,0xf8,
 0xc1,0x07,0xf0,0x01,0x7c,0xf0,0x03,0x00,0xfe,0x07,0x00,0xe0,0x07,0xf8,0x81,
 0x0f,0x3e,0x7c,0xc0,0x07,0x3e,0xf8,0x03,0x3e,0xf8,0x00,0x0f,0x1f,0x00,0xe0,
 0x0f,0xfc,0xc1,0x07,0xf0,0x01,0x7e,0xf8,0x01,0x00,0xfc,0x03,0x00,0xe0,0x0f,
 0xfc,0x81,0x0f,0x3e,0x7c,0xc0,0x07,0x3e,0xf8,0x87,0x3f,0xf8,0x81,0x0f,0x1f,
 0x00,0xc0,0xff,0xff,0xc0,0x07,0xf0,0x83,0xff,0xfc,0xff,0x07,0xfc,0x03,0x00,
 0xc0,0xff,0xff,0x80,0x0f,0x3e,0x7c,0xc0,0x07,0x3e,0xf8,0xff,0x1f,0xf0,0xff,
 0x0f,0x1f,0x00,0x80,0xff,0x7f,0xc0,0x07,0xe0,0xff,0xff,0xfc,0xff,0x0f,0xf8,
 0x03,0x00,0x80,0xff,0x7f,0x80,0x0f,0x3e,0x7c,0xc0,0x07,0x3e,0xf8,0xfe,0x1f,
 0xe0,0xff,0x07,0x1f,0x00,0x00,0xfe,0x1f,0xc0,0x07,0xc0,0xff,0xf9,0xfc,0xff,
 0x0f,0xf8,0x01,0x00,0x00,0xfe,0x1f,0x80,0x0f,0x3e,0x7c,0xc0,0x07,0x3e,0xf8,
 0xfc,0x07,0xc0,0xff,0x03,0x1f,0x00,0x00,0xf8,0x07,0x80,0x03,0x00,0x3f,0x70,
 0xf8,0xff,0x07,0xf8,0x01,0x00,0x00,0xf8,0x07,0x00,0x07,0x1c,0x38,0x80,0x03,
 0x1c,0x70,0xf0,0x01,0x00,0xff,0x00,0x0e,0x00,0x00,0x00,0x00,0x00,0x00,0x00,
 0x00,0x00,0x00,0x00,0x00,0xf8,0x01,0x00,0x00,0x00,0x00,0x00,0x00,0x00,0x00,
 0x00,0x00,0x00,0x00,0x00,0x00,0x00,0x00,0x00,0x00,0x00,0x00,0x00,0x00,0x00,
 0x00,0x00,0x00,0x00,0x00,0x00,0x00,0xf8,0x00,0x00,0x00,0x00,0x00,0x00,0x00,
 0x00,0x00,0x00,0x00,0x00,0x00,0x00,0x00,0x00,0x00,0x00,0x00,0x00,0x00,0x00,
 0x00,0x00,0x00,0x00,0x00,0x00,0x00,0x00,0x00,0xfc,0x00,0x00,0x00,0x00,0x00,
 0x00,0x00,0x00,0x00,0x00,0x00,0x00,0x00,0x00,0x00,0x00,0x00,0x00,0x00,0x00,
 0x00,0x00,0x00,0x00,0x00,0x00,0x00,0x00,0x00,0x00,0x00,0x7c,0x00,0x00,0x00,
 0x00,0x00,0x00,0x00,0x00,0x00,0x00,0x00,0x00,0x00,0x00,0x00,0x00,0x00,0x00,
 0x00,0x00,0x00,0x00,0x00,0x00,0x00,0x00,0x00,0x00,0x00,0x00,0xe0,0x7f,0x00,
 0x00,0x00,0x00,0x00,0x00,0x00,0x00,0x00,0x00,0x00,0x00,0x00,0x00,0x00,0x00,
 0x00,0x00,0x00,0x00,0x00,0x00,0x00,0x00,0x00,0x00,0x00,0x00,0x00,0x00,0xf0,
 0x3f,0x00,0x00,0x00,0x00,0x00,0x00,0x00,0x00,0x00,0x00,0x00,0x00,0x00,0x00,
 0x00,0x00,0x00,0x00,0x00,0x00,0x00,0x00,0x00,0x00,0x00,0x00,0x00,0x00,0x00,
 0x00,0xe0,0x1f,0x00,0x00,0x00,0x00,0x00,0x00,0x00,0x00,0x00,0x00,0x00,0x00,
 0x00,0x00,0x00,0x00,0x00,0x00,0x00,0x00,0x00,0x00,0x00,0x00,0x00,0x00,0x00,
 0x00,0x00,0x00,0xc0,0x0f,0x00,0x00,0x00,0x00,0x00,0x00,0x00,0x00,0x00,0x00,
 0x00,0x00,0x00,0x00,0x00,0x00,0x00,0x00,0x00,0x00,0x00,0x00,0x00,0x00,0x00,
 0x00,0x00,0x00,0x00,0x00,0x00,0x00,0x00,0x00,0x00,0x00,0x00,0x00,0x00,0x00,
 0x00,0x00,0x00,0x00,0x00,0x00,0x00,0x00,0x00,0x00,0x00,0x00,0x00,0x00,0x00,
 0x00,0x00,0x00,0x00,0x00,0x00,0x00,0x00,0x00,0x00,0x00,0x00,0x00,0x00,0x00,
 0x00,0x00,0x00,0x00,0x00,0x00,0x00,0x00,0x00,0x00,0x00,0x00,0x00,0x00,0x00,
 0x00,0x00,0x00,0x00,0x00,0x00,0x00,0x00,0x00,0x00,0x00,0x00,0x00,0x00,0x00,
 0x00,0x00,0x00,0x00,0x00,0x00,0x00,0x00,0x00,0x00,0x00,0x00,0x00,0x00,0x00,
 0x00,0x00,0x00,0x00,0x00,0x00,0x00,0x00,0x00,0x00,0x00,0x00,0x00,0x00,0x00,
 0x00,0x00,0x00,0x00,0x00,0x00,0x00,0x00,0x00,0x00,0x00,0x00,0x00,0x00,0x00,
 0x00,0x00,0x00,0x00,0x00,0x00,0x00,0x00,0x00,0x00,0x00,0x00,0x00,0x00,0x00,
 0x00,0x00,0x00,0x00,0x00,0x00,0x00,0x00,0x00,0x00,0x00,0x00,0x00,0x00,0x00,
 0x00,0x00,0x00,0x00,0x00,0x00,0x00,0x00,0x00,0x00,0x00,0x00,0x00,0x00,0x00,
 0x00,0x00,0x00,0x00,0x00,0x00,0x00,0x00,0x00,0x00,0x00,0x00,0x00,0x00,0x00,
 0x00,0x00,0x00,0x00,0x00,0x00,0x00,0x00,0x00,0x00,0x00,0x00,0x00,0x00,0x00,
 0x00,0x00,0x00,0x00,0x00,0x00,0x00,0x00,0x00,0x00,0x00,0x00,0x00,0x00,0x00,
 0x00,0x00,0x00,0x00,0x00,0x00,0x00,0x00,0x00,0x00,0x00,0x00,0x00,0x00,0x00,
 0x00,0x00,0x00,0x00,0x00,0x00,0x00,0x00,0x00,0x00,0x00,0x00,0x00,0x00,0x00,
 0x00,0x00,0x00,0x00,0x00,0x00,0x00,0x00,0x00,0x00,0x00,0x00,0x00,0x00,0x00,
 0x00,0x00,0x00,0x00,0x00,0x00,0x00,0x00,0x00,0x00,0x00,0x00,0x00,0x00,0x00,
 0x00,0x00,0x00,0x00,0x00,0x00,0x00,0x00,0x00,0x00,0x00,0x00,0x00,0x00,0x00,
 0x00,0x00,0x00,0x00,0x00,0x00,0x00,0x00,0x00,0x00,0x00,0x00,0x00,0x00,0x00,
 0x00,0x00,0x00,0x00,0x00,0x00,0x00,0x00,0x00,0x00,0x00,0x00,0x00,0x00,0x00,
 0x00,0x00,0x00,0x00,0x00,0x00,0x00,0x00,0x00,0x00,0x00,0x00,0x00,0x00,0x00,
 0x00,0x00,0x00,0x00,0x00,0x00,0x00,0x00,0x00,0x00,0x00,0x00,0x00,0x00,0x00,
 0x00,0x00,0x00,0x00,0x00,0x00,0x00,0x00,0x00,0x00,0x00,0x00,0x00,0x00,0x00,
 0x00,0x00,0x00,0x00,0x00,0x00,0x00,0x00,0x00,0x00,0x00,0x00,0x00,0x00,0x00,
 0x00,0x00,0x00,0x00,0x00,0x00,0x00,0x00,0x00,0x00,0x00,0x00,0x00,0x00,0x00,
 0x00,0x00,0x00,0x00,0x00,0x00,0x00,0x00,0x00,0x00,0x00,0x00,0x00,0x00,0x00,
 0x00,0x00,0x00,0x00,0x00,0x00,0x00,0x00,0x00,0x00,0x00,0x00,0x00,0x00,0x00,
 0x00,0x00,0x00,0x00,0x00,0x00,0x00,0x00,0x00,0x00,0x00,0x00,0x00,0x00,0x00,
 0x00,0x00,0x00,0x00,0x00,0x00,0x00,0x00 };
