#define _width 256
#define _height 64
static char _bits[] = {
 0x00,0x00,0x00,0x00,0x00,0x00,0x00,0xfc,0xff,0x0f,0x00,0x00,0x00,0x00,0x00,
 0x00,0x00,0x00,0x00,0x00,0x3c,0x00,0x0f,0x00,0x00,0x00,0x00,0x00,0x00,0x00,
 0x00,0x00,0x00,0x00,0x00,0x00,0x00,0x00,0x00,0xfe,0xff,0x3f,0x00,0x00,0x00,
 0x00,0x00,0x00,0x00,0x00,0x00,0x00,0x7e,0x80,0x1f,0x00,0x00,0x00,0x00,0x00,
 0x00,0x00,0x00,0x00,0x00,0x00,0x00,0x00,0x00,0x00,0x00,0xfe,0xff,0x7f,0x00,
 0x00,0x00,0x00,0x00,0x00,0x00,0x00,0x00,0x00,0x7e,0x80,0x1f,0x00,0x00,0x00,
 0x00,0x00,0x00,0x00,0x00,0x00,0x00,0x00,0x00,0x00,0x00,0x00,0x00,0xfe,0xff,
 0xff,0x00,0x00,0x00,0x00,0x00,0x00,0x00,0x00,0x00,0x00,0x7e,0x80,0x1f,0x00,
 0x00,0x00,0x00,0x00,0x00,0x00,0x00,0x00,0x00,0x00,0x00,0x00,0x00,0x00,0x00,
 0x7e,0x00,0xff,0x00,0x00,0x00,0x00,0x00,0x00,0x00,0x00,0x00,0x00,0x7e,0x00,
 0x0f,0x00,0x00,0x00,0x00,0x00,0x00,0x00,0x00,0x00,0x00,0x00,0x00,0x00,0x00,
 0x00,0x00,0x7e,0x00,0xfc,0x00,0x00,0x00,0x00,0x00,0x00,0x00,0x00,0x00,0x00,
 0x7e,0x00,0x00,0x00,0x00,0x00,0x00,0x00,0x00,0x00,0x00,0x00,0x00,0x00,0x00,
 0x00,0x00,0x00,0x00,0x7e,0x00,0xf8,0x01,0x00,0x00,0x00,0x00,0x00,0x00,0x00,
 0x00,0x00,0x7e,0x00,0x00,0x00,0x00,0x00,0x00,0x00,0x00,0x00,0x00,0x00,0x00,
 0x00,0x00,0x00,0x00,0x00,0x00,0x7e,0x00,0xf8,0x01,0x00,0x00,0x00,0x00,0x00,
 0x00,0x00,0x00,0x00,0x7e,0x00,0x00,0x00,0x00,0x00,0x00,0x00,0x00,0x00,0x00,
 0x00,0x00,0x00,0x00,0x00,0x00,0x00,0x00,0x7e,0x00,0xf8,0x01,0xe0,0x1f,0x00,
 0xe0,0x3f,0x00,0xe0,0x1f,0x80,0xff,0x07,0x0f,0x00,0xff,0x00,0x00,0x00,0x00,
 0x00,0x00,0x00,0x00,0x00,0x00,0x00,0x00,0x00,0x00,0x7e,0x00,0xfc,0x00,0xf8,
 0x7f,0x00,0xfc,0xff,0x00,0xf8,0x7f,0xc0,0xff,0x87,0x1f,0xc0,0xff,0x03,0x00,
 0x00,0x00,0x00,0x00,0x00,0x00,0x00,0x00,0x00,0x00,0x00,0x00,0x7e,0x00,0xfc,
 0x00,0xfc,0xff,0x01,0xfe,0xff,0x01,0xfc,0xff,0xc0,0xff,0x8f,0x1f,0xe0,0xff,
 0x0f,0x00,0x00,0x00,0x00,0x00,0x00,0x00,0x00,0x00,0x00,0x00,0x00,0x00,0x7e,
 0x00,0x7f,0x00,0xfe,0xff,0x03,0xff,0xff,0x03,0xfe,0xff,0x81,0xff,0x87,0x1f,
 0xf0,0xff,0x1f,0x00,0x00,0x00,0x00,0x00,0x00,0x00,0x00,0x00,0x00,0x00,0x00,
 0x00,0xfe,0xff,0x3f,0x00,0x7f,0xf0,0x83,0x3f,0xf0,0x07,0x3f,0xf8,0x03,0x7e,
 0x80,0x1f,0xf8,0x83,0x1f,0x00,0x00,0x00,0x00,0x00,0x00,0x00,0x00,0x00,0x00,
 0x00,0x00,0x00,0xfe,0xff,0x1f,0x80,0x1f,0xe0,0x87,0x0f,0xf0,0x07,0x1f,0xf0,
 0x03,0x7e,0x80,0x1f,0xfc,0x00,0x3f,0x00,0x00,0x00,0x00,0x00,0x00,0x00,0x00,
 0x00,0x00,0x00,0x00,0x00,0xfe,0xff,0x3f,0x80,0x1f,0xc0,0x87,0x0f,0xe0,0x07,
 0x1f,0xe0,0x03,0x7e,0x80,0x1f,0xfc,0x00,0x3e,0x00,0x00,0x00,0x00,0x00,0x00,
 0x00,0x00,0x00,0x00,0x00,0x00,0x00,0xfe,0xff,0xff,0xc0,0x0f,0xc0,0x07,0x07,
 0xe0,0x07,0x3f,0xc0,0x01,0x7e,0x80,0x1f,0x7e,0x00,0x3e,0x00,0x00,0x00,0x00,
 0x00,0x00,0x00,0x00,0x00,0x00,0x00,0x00,0x00,0x7e,0x00,0xfe,0xc1,0x0f,0xc0,
 0x0f,0x00,0xf0,0x07,0xfe,0x01,0x00,0x7e,0x80,0x1f,0x7e,0x00,0x7e,0x00,0x00,
 0x00,0x00,0x00,0x00,0x00,0x00,0x00,0x00,0x00,0x00,0x00,0x7e,0x00,0xf8,0xc1,
 0xff,0xff,0x0f,0x00,0xff,0x07,0xfe,0x1f,0x00,0x7e,0x80,0x1f,0xfe,0xff,0x7f,
 0x00,0x00,0x00,0x00,0x00,0x00,0x00,0x00,0x00,0x00,0x00,0x00,0x00,0x7e,0x00,
 0xf0,0xc3,0xff,0xff,0x07,0xf0,0xff,0x07,0xfc,0xff,0x00,0x7e,0x80,0x1f,0xfe,
 0xff,0x3f,0x00,0x00,0x00,0x00,0x00,0x00,0x00,0x00,0x00,0x00,0x00,0x00,0x00,
 0x7e,0x00,0xf0,0xc3,0xff,0xff,0x03,0xfe,0xff,0x07,0xf0,0xff,0x01,0x7e,0x80,
 0x1f,0xfe,0xff,0x1f,0x00,0x00,0x00,0x00,0x00,0x00,0x00,0x00,0x00,0x00,0x00,
 0x00,0x00,0x7e,0x00,0xf0,0xc3,0x0f,0x00,0x00,0xff,0xe7,0x07,0x00,0xff,0x03,
 0x7e,0x80,0x1f,0x7e,0x00,0x00,0x00,0x00,0x00,0x00,0x00,0x00,0x00,0x00,0x00,
 0x00,0x00,0x00,0x00,0x7e,0x00,0xf0,0xc3,0x0f,0x00,0x80,0x3f,0xe0,0x07,0x00,
 0xf8,0x07,0x7e,0x80,0x1f,0x7e,0x00,0x00,0x00,0x00,0x00,0x00,0x00,0x00,0x00,
 0x00,0x00,0x00,0x00,0x00,0x00,0x7e,0x00,0xf0,0xc3,0x0f,0x00,0xc3,0x0f,0xe0,
 0x07,0x0f,0xe0,0x07,0x7e,0x80,0x1f,0x7e,0x00,0x18,0x00,0x00,0x00,0x00,0x00,
 0x00,0x00,0x00,0x00,0x00,0x00,0x00,0x00,0x7e,0x00,0xf8,0x83,0x1f,0x80,0xc7,
 0x0f,0xe0,0x07,0x0f,0xe0,0x07,0x7e,0x80,0x1f,0xfc,0x00,0x3c,0x00,0x00,0x00,
 0x00,0x00,0x00,0x00,0x00,0x00,0x00,0x00,0x00,0x00,0x7e,0x00,0xf8,0x81,0x3f,
 0xc0,0xc7,0x0f,0xf0,0x07,0x1f,0xe0,0x07,0x7e,0x80,0x1f,0xfc,0x01,0x3e,0x00,
 0x00,0x00,0x00,0x00,0x00,0x00,0x00,0x00,0x00,0x00,0x00,0x00,0x7e,0x00,0xfe,
 0x01,0x7f,0xf0,0xc7,0x1f,0xfc,0x07,0x7f,0xf0,0x03,0xfe,0x80,0x1f,0xf8,0x83,
 0x3f,0x00,0x00,0x00,0x00,0x00,0x00,0x00,0x00,0x00,0x00,0x00,0x00,0x00,0xfe,
 0xff,0xff,0x00,0xfe,0xff,0x83,0xff,0xff,0x0f,0xfe,0xff,0x03,0xfe,0x9f,0x1f,
 0xf0,0xff,0x1f,0x00,0x00,0x00,0x00,0x00,0x00,0x00,0x00,0x00,0x00,0x00,0x00,
 0x00,0xfe,0xff,0xff,0x00,0xfc,0xff,0x81,0xff,0xcf,0x0f,0xfe,0xff,0x01,0xfc,
 0x9f,0x1f,0xe0,0xff,0x0f,0x00,0x00,0x00,0x00,0x00,0x00,0x00,0x00,0x00,0x00,
 0x00,0x00,0x00,0xfe,0xff,0x3f,0x00,0xf8,0xff,0x00,0xff,0x87,0x0f,0xf8,0xff,
 0x00,0xf8,0x9f,0x1f,0xc0,0xff,0x07,0x00,0x00,0x00,0x00,0x00,0x00,0x00,0x00,
 0x00,0x00,0x00,0x00,0x00,0xfc,0xff,0x0f,0x00,0xc0,0x1f,0x00,0xfc,0x01,0x07,
 0xe0,0x1f,0x00,0xf0,0x07,0x0f,0x00,0xfe,0x00,0x00,0x00,0x00,0x00,0x00,0x00,
 0x00,0x00,0x00,0x00,0x00,0x00,0x00,0x00,0x00,0x00,0x00,0x00,0x00,0x00,0x00,
 0x00,0x00,0x00,0x00,0x00,0x00,0x00,0x00,0x00,0x00,0x00,0x00,0x00,0x00,0x00,
 0x00,0x00,0x00,0x00,0x00,0x00,0x00,0x00,0x00,0x00,0x00,0x00,0x00,0x00,0x00,
 0x00,0x00,0x00,0x00,0x00,0x00,0x00,0x00,0x00,0x00,0x00,0x00,0x00,0x00,0x00,
 0x00,0x00,0x00,0x00,0x00,0x00,0x00,0x00,0x00,0x00,0x00,0x00,0x00,0x00,0x00,
 0x00,0x00,0x00,0x00,0x00,0x00,0x00,0x00,0x00,0x00,0x00,0x00,0x00,0x00,0x00,
 0x00,0x00,0x00,0x00,0x00,0x00,0x00,0x00,0x00,0x00,0x00,0x00,0x00,0x00,0x00,
 0x00,0x00,0x00,0x00,0x00,0x00,0x00,0x00,0x00,0x00,0x00,0x00,0x00,0x00,0x00,
 0x00,0x00,0x00,0x00,0x00,0x00,0x00,0x00,0x00,0x00,0x00,0x00,0x00,0x00,0x00,
 0xfc,0xff,0x1f,0x00,0x00,0x00,0x00,0x00,0x00,0x00,0x00,0x00,0x78,0x00,0x1e,
 0x00,0x00,0x00,0x00,0x00,0x00,0x00,0x00,0x00,0x00,0x00,0x00,0x00,0x00,0x00,
 0x00,0x00,0xfe,0xff,0x3f,0x00,0x00,0x00,0x00,0x00,0x00,0x00,0x00,0x00,0xfc,
 0x00,0x3f,0x00,0x00,0x00,0x00,0x00,0x00,0x00,0x00,0x00,0x00,0x00,0x00,0x00,
 0x00,0x00,0x00,0x00,0xfe,0xff,0x3f,0x00,0x00,0x00,0x00,0x00,0x00,0x00,0x00,
 0x00,0xfc,0x00,0x3f,0x00,0x00,0x00,0x00,0x00,0x00,0x00,0x00,0x00,0x00,0x00,
 0x00,0x00,0x00,0x00,0x00,0x00,0xfe,0xff,0x1f,0x00,0x00,0x00,0x00,0x00,0x00,
 0x00,0x00,0x00,0xfc,0x00,0x3f,0x00,0x00,0x00,0x00,0x00,0x00,0x00,0x00,0x00,
 0x00,0x00,0x00,0x00,0x00,0x00,0x00,0x00,0x7e,0x00,0x00,0x00,0x00,0x00,0x00,
 0x00,0x00,0x00,0x00,0x00,0xfc,0x00,0x1e,0x00,0x00,0x00,0x00,0x00,0x00,0x00,
 0x00,0x00,0x00,0x00,0x00,0x00,0x00,0x00,0x00,0x00,0x7e,0x00,0x00,0x00,0x00,
 0x00,0x00,0x00,0x00,0x00,0x00,0x00,0xfc,0x00,0x00,0x00,0x00,0x00,0x00,0x00,
 0x00,0x00,0x00,0x00,0x00,0x00,0x00,0x00,0x00,0x00,0x00,0x00,0x7e,0x00,0x00,
 0x00,0x00,0x00,0x00,0x00,0x00,0x00,0x00,0x00,0xfc,0x00,0x00,0x00,0x00,0x00,
 0x00,0x00,0x00,0x00,0x00,0x00,0x00,0x00,0x00,0x00,0x00,0x00,0x00,0x00,0x7e,
 0x00,0x00,0x00,0x00,0x00,0x00,0x00,0x00,0x00,0x00,0x00,0xfc,0x00,0x00,0x00,
 0x00,0x00,0x00,0x00,0x00,0x00,0x00,0x00,0x00,0x00,0x00,0x00,0x00,0x00,0x00,
 0x00,0x7e,0x00,0x00,0xc0,0x3f,0x00,0xc0,0x7f,0x00,0xc0,0x3f,0x00,0xff,0x0f,
 0x1e,0x00,0xfe,0x01,0x00,0x00,0x00,0x00,0x00,0x00,0x00,0x00,0x00,0x00,0x00,
 0x00,0x00,0x00,0x7e,0x00,0x00,0xf0,0xff,0x00,0xf8,0xff,0x01,0xf0,0xff,0x80,
 0xff,0x0f,0x3f,0x80,0xff,0x07,0x00,0x00,0x00,0x00,0x00,0x00,0x00,0x00,0x00,
 0x00,0x00,0x00,0x00,0x00,0x7e,0x00,0x00,0xf8,0xff,0x03,0xfc,0xff,0x03,0xf8,
 0xff,0x81,0xff,0x1f,0x3f,0xc0,0xff,0x1f,0x00,0x00,0x00,0x00,0x00,0x00,0x00,
 0x00,0x00,0x00,0x00,0x00,0x00,0x00,0x7e,0x00,0x00,0xfc,0xff,0x07,0xfe,0xff,
 0x07,0xfc,0xff,0x03,0xff,0x0f,0x3f,0xe0,0xff,0x3f,0x00,0x00,0x00,0x00,0x00,
 0x00,0x00,0x00,0x00,0x00,0x00,0x00,0x00,0x00,0x7e,0x00,0x00,0xfe,0xe0,0x07,
 0x7f,0xe0,0x0f,0x7e,0xf0,0x07,0xfc,0x00,0x3f,0xf0,0x07,0x3f,0x00,0x00,0x00,
 0x00,0x00,0x00,0x00,0x00,0x00,0x00,0x00,0x00,0x00,0x00,0xfe,0xff,0x07,0x3f,
 0xc0,0x0f,0x1f,0xe0,0x0f,0x3e,0xe0,0x07,0xfc,0x00,0x3f,0xf8,0x01,0x7e,0x00,
 0x00,0x00,0x00,0x00,0x00,0x00,0x00,0x00,0x00,0x00,0x00,0x00,0x00,0xfe,0xff,
 0x0f,0x3f,0x80,0x0f,0x1f,0xc0,0x0f,0x3e,0xc0,0x07,0xfc,0x00,0x3f,0xf8,0x01,
 0x7c,0x00,0x00,0x00,0x00,0x00,0x00,0x00,0x00,0x00,0x00,0x00,0x00,0x00,0x00,
 0xfe,0xff,0x8f,0x1f,0x80,0x0f,0x0e,0xc0,0x0f,0x7e,0x80,0x03,0xfc,0x00,0x3f,
 0xfc,0x00,0x7c,0x00,0x00,0x00,0x00,0x00,0x00,0x00,0x00,0x00,0x00,0x00,0x00,
 0x00,0x00,0xfe,0xff,0x87,0x1f,0x80,0x1f,0x00,0xe0,0x0f,0xfc,0x03,0x00,0xfc,
 0x00,0x3f,0xfc,0x00,0xfc,0x00,0x00,0x00,0x00,0x00,0x00,0x00,0x00,0x00,0x00,
 0x00,0x00,0x00,0x00,0x7e,0x00,0x80,0xff,0xff,0x1f,0x00,0xfe,0x0f,0xfc,0x3f,
 0x00,0xfc,0x00,0x3f,0xfc,0xff,0xff,0x00,0x00,0x00,0x00,0x00,0x00,0x00,0x00,
 0x00,0x00,0x00,0x00,0x00,0x00,0x7e,0x00,0x80,0xff,0xff,0x0f,0xe0,0xff,0x0f,
 0xf8,0xff,0x01,0xfc,0x00,0x3f,0xfc,0xff,0x7f,0x00,0x00,0x00,0x00,0x00,0x00,
 0x00,0x00,0x00,0x00,0x00,0x00,0x00,0x00,0x7e,0x00,0x80,0xff,0xff,0x07,0xfc,
 0xff,0x0f,0xe0,0xff,0x03,0xfc,0x00,0x3f,0xfc,0xff,0x3f,0x00,0x00,0x00,0x00,
 0x00,0x00,0x00,0x00,0x00,0x00,0x00,0x00,0x00,0x00,0x7e,0x00,0x80,0x1f,0x00,
 0x00,0xfe,0xcf,0x0f,0x00,0xfe,0x07,0xfc,0x00,0x3f,0xfc,0x00,0x00,0x00,0x00,
 0x00,0x00,0x00,0x00,0x00,0x00,0x00,0x00,0x00,0x00,0x00,0x00,0x7e,0x00,0x80,
 0x1f,0x00,0x00,0x7f,0xc0,0x0f,0x00,0xf0,0x0f,0xfc,0x00,0x3f,0xfc,0x00,0x00,
 0x00,0x00,0x00,0x00,0x00,0x00,0x00,0x00,0x00,0x00,0x00,0x00,0x00,0x00,0x7e,
 0x00,0x80,0x1f,0x00,0x86,0x1f,0xc0,0x0f,0x1e,0xc0,0x0f,0xfc,0x00,0x3f,0xfc,
 0x00,0x30,0x00,0x00,0x00,0x00,0x00,0x00,0x00,0x00,0x00,0x00,0x00,0x00,0x00,
 0x00,0x7e,0x00,0x00,0x3f,0x00,0x8f,0x1f,0xc0,0x0f,0x1e,0xc0,0x0f,0xfc,0x00,
 0x3f,0xf8,0x01,0x78,0x00,0x00,0x00,0x00,0x00,0x00,0x00,0x00,0x00,0x00,0x00,
 0x00,0x00,0x00,0x7e,0x00,0x00,0x7f,0x80,0x8f,0x1f,0xe0,0x0f,0x3e,0xc0,0x0f,
 0xfc,0x00,0x3f,0xf8,0x03,0x7c,0x00,0x00,0x00,0x00,0x00,0x00,0x00,0x00,0x00,
 0x00,0x00,0x00,0x00,0x00,0x7e,0x00,0x00,0xfe,0xe0,0x8f,0x3f,0xf8,0x0f,0xfe,
 0xe0,0x07,0xfc,0x01,0x3f,0xf0,0x07,0x7f,0x00,0x00,0x00,0x00,0x00,0x00,0x00,
 0x00,0x00,0x00,0x00,0x00,0x00,0x00,0x7e,0x00,0x00,0xfc,0xff,0x07,0xff,0xff,
 0x1f,0xfc,0xff,0x07,0xfc,0x3f,0x3f,0xe0,0xff,0x3f,0x00,0x00,0x00,0x00,0x00,
 0x00,0x00,0x00,0x00,0x00,0x00,0x00,0x00,0x00,0x7e,0x00,0x00,0xf8,0xff,0x03,
 0xff,0x9f,0x1f,0xfc,0xff,0x03,0xf8,0x3f,0x3f,0xc0,0xff,0x1f,0x00,0x00,0x00,
 0x00,0x00,0x00,0x00,0x00,0x00,0x00,0x00,0x00,0x00,0x00,0x7e,0x00,0x00,0xf0,
 0xff,0x01,0xfe,0x0f,0x1f,0xf0,0xff,0x01,0xf0,0x3f,0x3f,0x80,0xff,0x0f,0x00,
 0x00,0x00,0x00,0x00,0x00,0x00,0x00,0x00,0x00,0x00,0x00,0x00,0x00,0x3c,0x00,
 0x00,0x80,0x3f,0x00,0xf8,0x03,0x0e,0xc0,0x3f,0x00,0xe0,0x0f,0x1e,0x00,0xfc,
 0x01,0x00,0x00,0x00,0x00,0x00,0x00,0x00 };
