#define _width 256
#define _height 64
static char _bits[] = {
 0x00,0x00,0x00,0x00,0x00,0x00,0x00,0x00,0x00,0x00,0x00,0x00,0x00,0x00,0x00,
 0x00,0x00,0x00,0x00,0x00,0x00,0x00,0x00,0x00,0x00,0x00,0x00,0x00,0x00,0x00,
 0x00,0x00,0x00,0x00,0x00,0x00,0x00,0x00,0x00,0x00,0x00,0x00,0x00,0x00,0x00,
 0x00,0x00,0x00,0x00,0x00,0x00,0x00,0x00,0x00,0x00,0x00,0x00,0x00,0x00,0x00,
 0x00,0x00,0x00,0x00,0x00,0x00,0x00,0x00,0x00,0x00,0x00,0x00,0x00,0x00,0x00,
 0x00,0x00,0x00,0x00,0x00,0x00,0x00,0x00,0x00,0x00,0x00,0x00,0x00,0x00,0x00,
 0x00,0x00,0x00,0x00,0x00,0x00,0x00,0x00,0x00,0x00,0x00,0x00,0x00,0x00,0x00,
 0x00,0x00,0x00,0x00,0x00,0x00,0x00,0x00,0x00,0x00,0x00,0x00,0x00,0x00,0x00,
 0x00,0x00,0x00,0x00,0x00,0x00,0x00,0x00,0x00,0x00,0x00,0x00,0x00,0x00,0x00,
 0x00,0x00,0x00,0x00,0x00,0x00,0x00,0x00,0x00,0x00,0x00,0x00,0x00,0x00,0x00,
 0x00,0x00,0x00,0x00,0x00,0x00,0x00,0x00,0x00,0x00,0x00,0x00,0x00,0x00,0x00,
 0x00,0x00,0x00,0x00,0x00,0x00,0x00,0x00,0x00,0x00,0x00,0x00,0x00,0x00,0x00,
 0x00,0x00,0x00,0x00,0x00,0x00,0x00,0x00,0x00,0x00,0x00,0x00,0x00,0x00,0x00,
 0x00,0x00,0x00,0x00,0x00,0x00,0x00,0x00,0x00,0x00,0x00,0x00,0x00,0x00,0x00,
 0x00,0x00,0x00,0x00,0x00,0x00,0x00,0x00,0x00,0x00,0x00,0x00,0x00,0x00,0x00,
 0x00,0x00,0x00,0x00,0x00,0x00,0x00,0x00,0x00,0x00,0x00,0x00,0x00,0x00,0x00,
 0x00,0x00,0x00,0x00,0x00,0x00,0x00,0x00,0x00,0x00,0x00,0x00,0x00,0x00,0x00,
 0x00,0x00,0x00,0x00,0x00,0x00,0x00,0x00,0x00,0x00,0x00,0x00,0x00,0x00,0x00,
 0x00,0x00,0x00,0x00,0x00,0x00,0x00,0x00,0x00,0x00,0x00,0x00,0x00,0x00,0x00,
 0x00,0x00,0x00,0x00,0x00,0x00,0x00,0x00,0x00,0x00,0x00,0x00,0x00,0x00,0x00,
 0x00,0x00,0x00,0x00,0x00,0x00,0x00,0x00,0x00,0x00,0x00,0x00,0x00,0x00,0x00,
 0x00,0x00,0x00,0x00,0x00,0x00,0x00,0x00,0x00,0x00,0x00,0x00,0x00,0x00,0x00,
 0x00,0x00,0x00,0x00,0x00,0x00,0x00,0x00,0x00,0x00,0x00,0x00,0x00,0x00,0x00,
 0x00,0x00,0x00,0x00,0x00,0x00,0x00,0x00,0x00,0x00,0x00,0x00,0x00,0x00,0x00,
 0x00,0x00,0x00,0x00,0x00,0x00,0x00,0x00,0x00,0x00,0x00,0x00,0x00,0x00,0x00,
 0x00,0x00,0x00,0x00,0x00,0x00,0x00,0x00,0x00,0x00,0x00,0x00,0x00,0x00,0x00,
 0x00,0x00,0x00,0x00,0x00,0x00,0x00,0x00,0x00,0x00,0x00,0x00,0x00,0x00,0x00,
 0x00,0x00,0x00,0x00,0x00,0x00,0x00,0x00,0x00,0x00,0x00,0x00,0x00,0x00,0x00,
 0x00,0x00,0x00,0x00,0x00,0x00,0x00,0x00,0x00,0x00,0x00,0x00,0x00,0x00,0x00,
 0x00,0x00,0x00,0x00,0x00,0x00,0x00,0x00,0x00,0x00,0x00,0x00,0x00,0x00,0x00,
 0x00,0x00,0x00,0x00,0x00,0x00,0x00,0x00,0x00,0x00,0x00,0x00,0x00,0x00,0x00,
 0x00,0x00,0x00,0x00,0x00,0x00,0x00,0x00,0x00,0x00,0x00,0x00,0x00,0x00,0x00,
 0x00,0x00,0x00,0x00,0x00,0x00,0x00,0x00,0x00,0x00,0x00,0x00,0x00,0x00,0x00,
 0x00,0x00,0x00,0x00,0x00,0x00,0x00,0x00,0x00,0x00,0x00,0x00,0x00,0x00,0x00,
 0x00,0x00,0x00,0x00,0x00,0x00,0x00,0x00,0x00,0x00,0x00,0x00,0x00,0x00,0x00,
 0x00,0x00,0x00,0x00,0x00,0x00,0x00,0x00,0x00,0x00,0x00,0x00,0x00,0x00,0x00,
 0x00,0x00,0x00,0x00,0x00,0x00,0x00,0x00,0x00,0x00,0x00,0x00,0x00,0x00,0x00,
 0x00,0x00,0x00,0x00,0x00,0x00,0x00,0x00,0x00,0x00,0x00,0x00,0x00,0x00,0x00,
 0x00,0x00,0x00,0x00,0x00,0x00,0x00,0x00,0x00,0x00,0x00,0x00,0x00,0x00,0x00,
 0x00,0x00,0x00,0x00,0x00,0x00,0x00,0x00,0x00,0x00,0x00,0x00,0x00,0x00,0x00,
 0x00,0x00,0x00,0x00,0x00,0x00,0x00,0x00,0x00,0x00,0x00,0x00,0x00,0x00,0x00,
 0x00,0x00,0x00,0x00,0x00,0x00,0x00,0x00,0x00,0x00,0x00,0x00,0x00,0x00,0x00,
 0x00,0x00,0x00,0x00,0x00,0x00,0x00,0x00,0x00,0x00,0xf0,0xff,0x03,0x00,0x00,
 0x00,0x00,0x00,0x00,0x00,0xe0,0x00,0x00,0x00,0x7c,0x00,0xe0,0xff,0x0f,0x00,
 0x00,0x00,0x0e,0x00,0x80,0x03,0x00,0x00,0x00,0x00,0x00,0x00,0xf8,0xff,0x07,
 0x00,0x00,0x00,0x00,0x00,0x00,0x00,0xf0,0x01,0x00,0x00,0x7c,0x00,0xf0,0xff,
 0x1f,0x00,0x00,0x00,0x1f,0x00,0xc0,0x07,0x00,0x00,0x00,0x00,0x00,0x00,0xf8,
 0xff,0x0f,0x00,0x00,0x00,0x00,0x00,0x00,0x00,0xf0,0x01,0x00,0x00,0x7c,0x00,
 0xf0,0xff,0x7f,0x00,0x00,0x00,0x1f,0x00,0xc0,0x07,0x00,0x00,0x00,0x00,0x00,
 0x00,0xf8,0xff,0x1f,0x00,0x00,0x00,0x00,0x00,0x00,0x00,0xe0,0x00,0x00,0x00,
 0x7c,0x00,0xf0,0xff,0x7f,0x00,0x00,0x00,0x1f,0x00,0xc0,0x07,0x00,0x00,0x00,
 0x00,0x00,0x00,0xf8,0x80,0x3f,0x00,0x00,0x00,0x00,0x00,0x00,0x00,0x00,0x00,
 0x00,0x00,0x7c,0x00,0xf0,0x01,0xfe,0x00,0x00,0x00,0x1f,0x00,0xc0,0x07,0x00,
 0x00,0x00,0x00,0x00,0x00,0xf8,0x00,0x3e,0x00,0x00,0x00,0x00,0x00,0x00,0x00,
 0x00,0x00,0x00,0x00,0x7c,0x00,0xf0,0x01,0xfc,0x00,0x00,0x00,0x1f,0x00,0xc0,
 0x07,0x00,0x00,0x00,0x00,0x00,0x00,0xf8,0x00,0x3e,0x00,0x00,0x00,0x00,0x00,
 0x00,0x00,0x00,0x00,0x00,0x00,0x7c,0x00,0xf0,0x01,0xf8,0x00,0x00,0x00,0x1f,
 0x00,0xc0,0x07,0x00,0x00,0x00,0x00,0x00,0x00,0xf8,0x00,0x3e,0x70,0x00,0x07,
 0x8e,0x07,0x87,0x1f,0xe0,0xc0,0xe1,0x07,0x38,0x00,0xf0,0x01,0xf8,0x70,0x00,
 0x07,0x1f,0x3f,0xc0,0xc7,0x0f,0x00,0xfe,0x00,0x1c,0x0f,0xf8,0x00,0x3e,0xf8,
 0x80,0x0f,0xdf,0x9f,0xef,0x3f,0xf0,0xe1,0xfb,0x0f,0x38,0x00,0xf0,0x01,0xf8,
 0xf8,0x80,0x0f,0xdf,0xff,0xc0,0xf7,0x3f,0x80,0xff,0x03,0xbe,0x3f,0xf8,0x00,
 0x1f,0xf8,0x80,0x0f,0xff,0x9f,0xff,0x7f,0xf0,0xe1,0xff,0x1f,0x00,0x00,0xf0,
 0x01,0xfc,0xf8,0x80,0x0f,0xff,0xff,0xc1,0xff,0x7f,0xe0,0xff,0x07,0xfe,0x3f,
 0xf8,0x80,0x1f,0xf8,0x80,0x0f,0xff,0x9f,0x3f,0xfc,0xf0,0xe1,0x0f,0x3f,0x00,
 0x00,0xf0,0x01,0x7e,0xf8,0x80,0x0f,0xff,0xf0,0xc3,0x3f,0xfc,0xe0,0xc3,0x0f,
 0xfe,0x3f,0xf8,0xff,0x07,0xf8,0x80,0x0f,0x7f,0x88,0x1f,0xf8,0xf0,0xe1,0x07,
 0x3e,0x00,0x00,0xf0,0xff,0x3f,0xf8,0x80,0x0f,0x7f,0xe0,0xc3,0x1f,0xf8,0xf0,
 0x01,0x0f,0xfe,0x10,0xf8,0xff,0x07,0xf8,0x80,0x0f,0x3f,0x80,0x0f,0xf8,0xf0,
 0xe1,0x03,0x3e,0x00,0x00,0xf0,0xff,0x1f,0xf8,0x80,0x0f,0x3f,0xe0,0xc7,0x0f,
 0xf8,0xf1,0x00,0x1f,0x7e,0x00,0xf8,0xff,0x1f,0xf8,0x80,0x0f,0x1f,0x80,0x0f,
 0xf8,0xf0,0xe1,0x03,0x3e,0x00,0x00,0xf0,0xff,0x03,0xf8,0x80,0x0f,0x3f,0xc0,
 0xc7,0x0f,0xf0,0xf9,0x00,0x1f,0x3e,0x00,0xf8,0x00,0x3f,0xf8,0x80,0x0f,0x1f,
 0x80,0x0f,0xf8,0xf0,0xe1,0x03,0x3e,0x00,0x00,0xf0,0xe1,0x07,0xf8,0x80,0x0f,
 0x1f,0xc0,0xc7,0x07,0xf0,0xf9,0xff,0x1f,0x3e,0x00,0xf8,0x00,0x3e,0xf8,0x80,
 0x0f,0x1f,0x80,0x0f,0xf8,0xf0,0xe1,0x03,0x3e,0x00,0x00,0xf0,0x81,0x0f,0xf8,
 0x80,0x0f,0x1f,0xc0,0xc7,0x07,0xf0,0xf9,0xff,0x1f,0x3e,0x00,0xf8,0x00,0x7c,
 0xf8,0x80,0x0f,0x1f,0x80,0x0f,0xf8,0xf0,0xe1,0x03,0x3e,0x00,0x00,0xf0,0x81,
 0x1f,0xf8,0x80,0x0f,0x1f,0xc0,0xc7,0x07,0xf0,0xf9,0xff,0x0f,0x3e,0x00,0xf8,
 0x00,0x7c,0xf8,0x80,0x0f,0x1f,0x80,0x0f,0xf8,0xf0,0xe1,0x03,0x3e,0x00,0x00,
 0xf0,0x01,0x3f,0xf8,0x80,0x0f,0x1f,0xc0,0xc7,0x07,0xf0,0xf9,0x00,0x00,0x3e,
 0x00,0xf8,0x00,0x7c,0xf8,0x80,0x0f,0x1f,0x80,0x0f,0xf8,0xf0,0xe1,0x03,0x3e,
 0x00,0x00,0xf0,0x01,0x3e,0xf8,0x80,0x0f,0x1f,0xc0,0xc7,0x07,0xf0,0xf9,0x00,
 0x00,0x3e,0x00,0xf8,0x00,0x7e,0xf8,0x80,0x0f,0x1f,0x80,0x0f,0xf8,0xf0,0xe1,
 0x03,0x3e,0x00,0x00,0xf0,0x01,0x7e,0xf8,0x80,0x0f,0x3f,0xe0,0xc3,0x0f,0xf8,
 0xf0,0x01,0x0c,0x3e,0x00,0xf8,0x00,0x7f,0xf8,0xc1,0x0f,0x1f,0x80,0x0f,0xf8,
 0xf0,0xe1,0x03,0x3e,0x00,0x00,0xf0,0x01,0xfc,0xf8,0xc1,0x0f,0x3f,0xe0,0xc3,
 0x0f,0xf8,0xf0,0x01,0x1f,0x3e,0x00,0xf8,0xff,0x3f,0xf8,0xe1,0x0f,0x1f,0x80,
 0x0f,0xf8,0xf0,0xe1,0x03,0x3e,0x00,0x00,0xf0,0x01,0xfc,0xf8,0xe1,0x0f,0xff,
 0xf0,0xc3,0x3f,0xfc,0xe0,0x83,0x0f,0x3e,0x00,0xf8,0xff,0x1f,0xf0,0xff,0x0f,
 0x1f,0x80,0x0f,0xf8,0xf0,0xe1,0x03,0x3e,0x00,0x00,0xf0,0x01,0xf8,0xf0,0xff,
 0x0f,0xff,0xff,0xc1,0xff,0x7f,0xc0,0xff,0x0f,0x3e,0x00,0xf8,0xff,0x0f,0xe0,
 0xbf,0x0f,0x1f,0x80,0x0f,0xf8,0xf0,0xe1,0x03,0x3e,0x00,0x00,0xf0,0x01,0xf0,
 0xe0,0xbf,0x0f,0xdf,0xff,0xc0,0xf7,0x3f,0x80,0xff,0x03,0x3e,0x00,0xf0,0xff,
 0x03,0xc0,0x0f,0x07,0x0e,0x00,0x07,0x70,0xe0,0xc0,0x01,0x1c,0x00,0x00,0xe0,
 0x00,0xe0,0xc0,0x0f,0x07,0x0e,0x3f,0x80,0xc3,0x0f,0x00,0xfe,0x00,0x1c,0x00,
 0x00,0x00,0x00,0x00,0x00,0x00,0x00,0x00,0x00,0x00,0x00,0x00,0x00,0x00,0x00,
 0x00,0x00,0x00,0x00,0x00,0x00,0x00,0x00,0x00,0x00,0x00,0x00,0x00,0x00,0x00,
 0x00,0x00,0x00,0x00,0x00,0x00,0x00,0x00,0x00,0x00,0x00,0x00,0x00,0x00,0x00,
 0x00,0x00,0x00,0x00,0x00,0x00,0x00,0x00,0x00,0x00,0x00,0x00,0x00,0x00,0x00,
 0x00,0x00,0x00,0x00,0x00,0x00,0x00,0x00,0x00,0x00,0x00,0x00,0x00,0x00,0x00,
 0x00,0x00,0x00,0x00,0x00,0x00,0x00,0x00,0x00,0x00,0x00,0x00,0x00,0x00,0x00,
 0x00,0x00,0x00,0x00,0x00,0x00,0x00,0x00,0x00,0x00,0x00,0x00,0x00,0x00,0x00,
 0x00,0x00,0x00,0x00,0x00,0x00,0x00,0x00,0x00,0x00,0x00,0x00,0x00,0x00,0x00,
 0x00,0x00,0x00,0x00,0x00,0x00,0x00,0x00,0x00,0x00,0x00,0x00,0x00,0x00,0x00,
 0x00,0x00,0x00,0x00,0x00,0x00,0x00,0x00,0x00,0x00,0x00,0x00,0x00,0x00,0x00,
 0x00,0x00,0x00,0x00,0x00,0x00,0x00,0x00,0x00,0x00,0x00,0x00,0x00,0x00,0x00,
 0x00,0x00,0x00,0x00,0x00,0x00,0x00,0x00,0x00,0x00,0x00,0x00,0x00,0x00,0x00,
 0x00,0x00,0x00,0x00,0x00,0x00,0x00,0x00,0x00,0x00,0x00,0x00,0x00,0x00,0x00,
 0x00,0x00,0x00,0x00,0x00,0x00,0x00,0x00,0x00,0x00,0x00,0x00,0x00,0x00,0x00,
 0x00,0x00,0x00,0x00,0x00,0x00,0x00,0x00,0x00,0x00,0x00,0x00,0x00,0x00,0x00,
 0x00,0x00,0x00,0x00,0x00,0x00,0x00,0x00,0x00,0x00,0x00,0x00,0x00,0x00,0x00,
 0x00,0x00,0x00,0x00,0x00,0x00,0x00,0x00,0x00,0x00,0x00,0x00,0x00,0x00,0x00,
 0x00,0x00,0x00,0x00,0x00,0x00,0x00,0x00,0x00,0x00,0x00,0x00,0x00,0x00,0x00,
 0x00,0x00,0x00,0x00,0x00,0x00,0x00,0x00,0x00,0x00,0x00,0x00,0x00,0x00,0x00,
 0x00,0x00,0x00,0x00,0x00,0x00,0x00,0x00,0x00,0x00,0x00,0x00,0x00,0x00,0x00,
 0x00,0x00,0x00,0x00,0x00,0x00,0x00,0x00,0x00,0x00,0x00,0x00,0x00,0x00,0x00,
 0x00,0x00,0x00,0x00,0x00,0x00,0x00,0x00,0x00,0x00,0x00,0x00,0x00,0x00,0x00,
 0x00,0x00,0x00,0x00,0x00,0x00,0x00,0x00,0x00,0x00,0x00,0x00,0x00,0x00,0x00,
 0x00,0x00,0x00,0x00,0x00,0x00,0x00,0x00,0x00,0x00,0x00,0x00,0x00,0x00,0x00,
 0x00,0x00,0x00,0x00,0x00,0x00,0x00,0x00,0x00,0x00,0x00,0x00,0x00,0x00,0x00,
 0x00,0x00,0x00,0x00,0x00,0x00,0x00,0x00,0x00,0x00,0x00,0x00,0x00,0x00,0x00,
 0x00,0x00,0x00,0x00,0x00,0x00,0x00,0x00,0x00,0x00,0x00,0x00,0x00,0x00,0x00,
 0x00,0x00,0x00,0x00,0x00,0x00,0x00,0x00,0x00,0x00,0x00,0x00,0x00,0x00,0x00,
 0x00,0x00,0x00,0x00,0x00,0x00,0x00,0x00,0x00,0x00,0x00,0x00,0x00,0x00,0x00,
 0x00,0x00,0x00,0x00,0x00,0x00,0x00,0x00,0x00,0x00,0x00,0x00,0x00,0x00,0x00,
 0x00,0x00,0x00,0x00,0x00,0x00,0x00,0x00,0x00,0x00,0x00,0x00,0x00,0x00,0x00,
 0x00,0x00,0x00,0x00,0x00,0x00,0x00,0x00,0x00,0x00,0x00,0x00,0x00,0x00,0x00,
 0x00,0x00,0x00,0x00,0x00,0x00,0x00,0x00,0x00,0x00,0x00,0x00,0x00,0x00,0x00,
 0x00,0x00,0x00,0x00,0x00,0x00,0x00,0x00,0x00,0x00,0x00,0x00,0x00,0x00,0x00,
 0x00,0x00,0x00,0x00,0x00,0x00,0x00,0x00,0x00,0x00,0x00,0x00,0x00,0x00,0x00,
 0x00,0x00,0x00,0x00,0x00,0x00,0x00,0x00,0x00,0x00,0x00,0x00,0x00,0x00,0x00,
 0x00,0x00,0x00,0x00,0x00,0x00,0x00,0x00,0x00,0x00,0x00,0x00,0x00,0x00,0x00,
 0x00,0x00,0x00,0x00,0x00,0x00,0x00,0x00,0x00,0x00,0x00,0x00,0x00,0x00,0x00,
 0x00,0x00,0x00,0x00,0x00,0x00,0x00,0x00,0x00,0x00,0x00,0x00,0x00,0x00,0x00,
 0x00,0x00,0x00,0x00,0x00,0x00,0x00,0x00,0x00,0x00,0x00,0x00,0x00,0x00,0x00,
 0x00,0x00,0x00,0x00,0x00,0x00,0x00,0x00 };
