#define _width 256
#define _height 64
static char _bits[] = {
 0x00,0x00,0x00,0x00,0x00,0x00,0x00,0x00,0x00,0x00,0x00,0x00,0x00,0x00,0x00,
 0x00,0x00,0x00,0x00,0x00,0x00,0x00,0x00,0x00,0x00,0x00,0x00,0x00,0x00,0x00,
 0x00,0x00,0x00,0x00,0x00,0x00,0x00,0x00,0x00,0x00,0x00,0x00,0x00,0x00,0x00,
 0x00,0x00,0x00,0x00,0x00,0x00,0x00,0x00,0x00,0x00,0x00,0x00,0x00,0x00,0x00,
 0x00,0x00,0x00,0x00,0x00,0x00,0x00,0x00,0x00,0x00,0x00,0x00,0x00,0x00,0x00,
 0x00,0x00,0x00,0x00,0x00,0x00,0x00,0x00,0x00,0x00,0x00,0x00,0x00,0x00,0x00,
 0x00,0x00,0x00,0x00,0x00,0x00,0x00,0x00,0x00,0x00,0x00,0x00,0x00,0x00,0x00,
 0x00,0x00,0x00,0x00,0x00,0x00,0x00,0x00,0x00,0x00,0x00,0x00,0x00,0x00,0x00,
 0x00,0x00,0x00,0x00,0x00,0x00,0x00,0x00,0x00,0x00,0x00,0x00,0x00,0x00,0x00,
 0x00,0x00,0x00,0x00,0x00,0x00,0x00,0x00,0x00,0x00,0x00,0x00,0x00,0x00,0x00,
 0x00,0x00,0x00,0x00,0x00,0x00,0x00,0x00,0x00,0x00,0x00,0x00,0x00,0x00,0x00,
 0x00,0x00,0x00,0x00,0x00,0x00,0x00,0x00,0x00,0x00,0x00,0x00,0x00,0x00,0x00,
 0x00,0x00,0x00,0x00,0x00,0x00,0x00,0x00,0x00,0x00,0x00,0x00,0x00,0x00,0x00,
 0x00,0x00,0x00,0x00,0x00,0x00,0x00,0x00,0x00,0x00,0x00,0x00,0x00,0x00,0x00,
 0x00,0x00,0x00,0x00,0x00,0x00,0x00,0x00,0x00,0x00,0x00,0x00,0x00,0x00,0x00,
 0x00,0x00,0x00,0x00,0x00,0x00,0x00,0x00,0x00,0x00,0x00,0x00,0x00,0x00,0x00,
 0x00,0x00,0x00,0x00,0x00,0x00,0x00,0x00,0x00,0x00,0x00,0x00,0x00,0x00,0x00,
 0x00,0x00,0x00,0x00,0x00,0x00,0x00,0x00,0x00,0x00,0x00,0x00,0x00,0x00,0x00,
 0x00,0x00,0x00,0x00,0x00,0x00,0x00,0x00,0x00,0x00,0x00,0x00,0x00,0x00,0x00,
 0x00,0x00,0x00,0x00,0x00,0x00,0x00,0x00,0x00,0x00,0x00,0x00,0x00,0x00,0x00,
 0x00,0x00,0x00,0x00,0x00,0x00,0x00,0x00,0x00,0x00,0x00,0x00,0x00,0x00,0x00,
 0x00,0x00,0x00,0x00,0x00,0x00,0x00,0x00,0x00,0x00,0x00,0x00,0x00,0x00,0x00,
 0x00,0x00,0x00,0x00,0x00,0x00,0x00,0x00,0x00,0x00,0x00,0x00,0x00,0x00,0x00,
 0x00,0x00,0x00,0x00,0x00,0x00,0x00,0x00,0x00,0x00,0x00,0x00,0x00,0x00,0x00,
 0x00,0x00,0x00,0x00,0x00,0x00,0x00,0x00,0x00,0x00,0x00,0x00,0x00,0x00,0x00,
 0x00,0x00,0x00,0x00,0x00,0x00,0x00,0x00,0x00,0x00,0x00,0x00,0x00,0x00,0x00,
 0x00,0x00,0x00,0x00,0x00,0x00,0x00,0x00,0x00,0x00,0x00,0x00,0x00,0x00,0x00,
 0x00,0x00,0x00,0x00,0x00,0x00,0x00,0x00,0x00,0x00,0x00,0x00,0x00,0x00,0x00,
 0x00,0x00,0x00,0x00,0x00,0x00,0x00,0x00,0x00,0x00,0x00,0x00,0x00,0x00,0x00,
 0x00,0x00,0x00,0x00,0x00,0x00,0x00,0x00,0x00,0x00,0x00,0x00,0x00,0x00,0x00,
 0x00,0x00,0x00,0x00,0x00,0x00,0x00,0x00,0x00,0x00,0x00,0x00,0x00,0x00,0x00,
 0x00,0x00,0x00,0x00,0x00,0x00,0x00,0x00,0x00,0x00,0x00,0x00,0x00,0x00,0x00,
 0x00,0x00,0x00,0x00,0x00,0x00,0x00,0x00,0x00,0x00,0x00,0x00,0x00,0x00,0x00,
 0x00,0x00,0x00,0x00,0x00,0x00,0x00,0x00,0x00,0x00,0x00,0x00,0x00,0x00,0x00,
 0x00,0x00,0x00,0x00,0x00,0x00,0x00,0x00,0x00,0x00,0x00,0x00,0x00,0x00,0x00,
 0x00,0x00,0x00,0x00,0x00,0x00,0x00,0x00,0x00,0x00,0x00,0x00,0x00,0x00,0x00,
 0x00,0x00,0x00,0x00,0x00,0x7f,0x00,0x00,0x00,0x00,0x00,0x00,0x00,0x00,0x00,
 0x00,0x00,0x00,0x00,0x00,0x00,0x00,0x00,0x00,0x00,0x00,0x00,0x00,0x00,0x18,
 0x00,0x00,0x00,0x00,0x00,0x00,0xc0,0xff,0x01,0x00,0x00,0x00,0x00,0x00,0x00,
 0x00,0x00,0x00,0x00,0x00,0x00,0x00,0xfc,0xff,0x00,0x00,0x00,0x00,0x00,0x00,
 0x00,0x3c,0x00,0x00,0x00,0x00,0x00,0x00,0xf0,0xff,0x07,0x00,0x00,0x00,0x00,
 0x00,0x00,0x00,0x00,0x00,0x00,0x00,0x00,0x00,0xfe,0xff,0x03,0x00,0x00,0x00,
 0x00,0x00,0x00,0x3c,0x00,0x00,0x00,0x00,0x00,0x00,0xf8,0xff,0x0f,0x00,0x00,
 0x00,0x00,0x00,0x00,0x00,0x00,0x00,0x00,0x00,0x00,0x00,0xfe,0xff,0x07,0x00,
 0x00,0x00,0x00,0x00,0x00,0x3c,0x00,0x00,0x00,0x00,0x00,0x00,0xfc,0xc1,0x0f,
 0x00,0x00,0x00,0x00,0x00,0x00,0x00,0x00,0x00,0x00,0x00,0x00,0x00,0x3e,0xc0,
 0x07,0x00,0x00,0x00,0x00,0x00,0x00,0x3c,0x00,0x00,0x00,0x00,0x00,0x00,0x7c,
 0x80,0x1f,0x00,0x00,0x00,0x00,0x00,0x00,0x00,0x00,0x00,0x00,0x00,0x00,0x00,
 0x3e,0x80,0x0f,0x00,0x00,0x00,0x00,0x00,0x00,0x3c,0x00,0x00,0x00,0x00,0x00,
 0x00,0x3e,0x00,0x1f,0x00,0x00,0x00,0x00,0x00,0x00,0x00,0x00,0x00,0x00,0x00,
 0x00,0x00,0x3e,0x80,0x0f,0x00,0x00,0x00,0x00,0x00,0x00,0x3c,0x00,0x00,0x00,
 0x00,0x00,0x00,0x3e,0x00,0x1e,0xf0,0x0f,0x60,0xf8,0x01,0x03,0x30,0xc0,0x0f,
 0xc0,0xf0,0x03,0x00,0x3e,0x80,0x0f,0xc0,0x0f,0xc0,0xf8,0xc1,0x07,0x3c,0x7e,
 0x00,0xf0,0x03,0x30,0x1e,0x3f,0x00,0x1c,0xfc,0x3f,0xf0,0xfe,0x83,0x07,0x78,
 0xf8,0x7f,0xe0,0xfd,0x07,0x00,0x3e,0x80,0x07,0xf8,0x7f,0xe0,0xfd,0xf7,0x1f,
 0xbc,0xff,0x00,0xfc,0x0f,0x78,0x3f,0x1f,0x00,0x00,0xfe,0x3f,0xf0,0xff,0x87,
 0x07,0x78,0xfc,0xff,0xe0,0xff,0x0f,0x00,0x3e,0xc0,0x07,0xfc,0xff,0xe0,0xff,
 0xff,0x3f,0xfc,0xff,0x01,0xfe,0x1f,0xf8,0x7f,0x1f,0x00,0x00,0x1e,0x7c,0xf0,
 0x83,0x8f,0x0f,0x7c,0x7e,0xf8,0xe1,0x07,0x1f,0x00,0xfe,0xff,0x03,0x7e,0xf8,
 0xe1,0x87,0x3f,0x3e,0xfc,0xe1,0x03,0x1f,0x3e,0xf8,0x7f,0x1f,0x00,0x00,0x0e,
 0x78,0xf0,0x01,0x0f,0x0f,0x3c,0x1e,0xe0,0xe1,0x03,0x1e,0x00,0xfe,0xff,0x01,
 0x1e,0xe0,0xe1,0x03,0x1f,0x3c,0x7c,0xc0,0x03,0x0f,0x7c,0xf8,0x11,0x1f,0x00,
 0x00,0x0e,0x78,0xf0,0x00,0x0f,0x0f,0x3c,0x1f,0xe0,0xe3,0x01,0x1e,0x00,0xfe,
 0xff,0x07,0x1f,0xe0,0xe3,0x01,0x0f,0x3c,0x7c,0xc0,0x87,0x07,0x78,0xf8,0x00,
 0x1f,0x00,0x00,0x00,0x7e,0xf0,0x00,0x0f,0x1e,0x1e,0x0f,0xc0,0xe3,0x01,0x1e,
 0x00,0x3e,0xc0,0x0f,0x0f,0xc0,0xe3,0x01,0x0f,0x3c,0x3c,0x80,0x87,0x07,0x78,
 0x78,0x00,0x1f,0x00,0x0c,0xc0,0x7f,0xf0,0x00,0x0f,0x1e,0x1e,0x0f,0xc0,0xe3,
 0x01,0x1e,0x00,0x3e,0x80,0x0f,0x0f,0xc0,0xe3,0x01,0x0f,0x3c,0x3c,0x80,0x87,
 0xff,0x7f,0x78,0x00,0x1f,0x00,0x1e,0xfc,0x7f,0xf0,0x00,0x0f,0x3e,0x1e,0x0f,
 0xc0,0xe3,0x01,0x1e,0x00,0x3e,0x00,0x1f,0x0f,0xc0,0xe3,0x01,0x0f,0x3c,0x3c,
 0x80,0x87,0xff,0x7f,0x78,0x00,0x3e,0x00,0x1e,0xfe,0x79,0xf0,0x00,0x0f,0x3c,
 0x0f,0x0f,0xc0,0xe3,0x01,0x1e,0x00,0x3e,0x00,0x1f,0x0f,0xc0,0xe3,0x01,0x0f,
 0x3c,0x3c,0x80,0x87,0xff,0x3f,0x78,0x00,0x3e,0x00,0x1f,0x1f,0x78,0xf0,0x00,
 0x0f,0x3c,0x0f,0x0f,0xc0,0xe3,0x01,0x1e,0x00,0x3e,0x00,0x1f,0x0f,0xc0,0xe3,
 0x01,0x0f,0x3c,0x3c,0x80,0x87,0x07,0x00,0x78,0x00,0x7c,0x80,0x1f,0x0f,0x78,
 0xf0,0x00,0x0f,0x78,0x0f,0x1f,0xe0,0xe3,0x01,0x1e,0x00,0x3e,0x00,0x1f,0x1f,
 0xe0,0xe3,0x01,0x0f,0x3c,0x7c,0xc0,0x87,0x07,0x20,0x78,0x00,0xfc,0xc1,0x0f,
 0x0f,0x7c,0xf0,0x00,0x0f,0xf8,0x07,0x1e,0xe0,0xe1,0x01,0x1e,0x00,0x3e,0x80,
 0x1f,0x1e,0xe0,0xe1,0x01,0x0f,0x3c,0x7c,0xc0,0x03,0x0f,0x78,0x78,0x00,0xf8,
 0xff,0x07,0x1f,0x7e,0xf0,0x00,0x0f,0xf8,0x07,0x7e,0xf8,0xe1,0x01,0x1e,0x00,
 0x3e,0xc0,0x0f,0x7e,0xf8,0xe1,0x01,0x0f,0x3c,0xfc,0xe1,0x03,0x1f,0x7c,0x78,
 0x00,0xf0,0xff,0x07,0xfe,0xff,0xf0,0x00,0x0f,0xf0,0x03,0xfc,0xff,0xe0,0x01,
 0x1e,0x00,0xfe,0xff,0x0f,0xfc,0xff,0xe0,0x01,0x0f,0x3c,0xfc,0xff,0x01,0xfe,
 0x3f,0x78,0x00,0xe0,0xff,0x01,0xfe,0xf3,0xf0,0x00,0x0f,0xf0,0x03,0xf0,0x3f,
 0xe0,0x01,0x1e,0x00,0xfe,0xff,0x03,0xf0,0x3f,0xe0,0x01,0x0f,0x3c,0xbc,0xff,
 0x00,0xfc,0x1f,0x78,0x00,0x00,0x7f,0x00,0xf8,0x60,0x60,0x00,0x06,0xe0,0x03,
 0xc0,0x0f,0xc0,0x00,0x0c,0x00,0xfc,0xff,0x01,0xc0,0x0f,0xc0,0x00,0x06,0x18,
 0x18,0x3e,0x00,0xf0,0x07,0x30,0x00,0x00,0x00,0x00,0x00,0x00,0x00,0x00,0x00,
 0xe0,0x01,0x00,0x00,0x00,0x00,0x00,0x00,0x00,0x00,0x00,0x00,0x00,0x00,0x00,
 0x00,0x00,0x00,0x00,0x00,0x00,0x00,0x00,0x00,0x00,0x00,0x00,0x00,0x00,0x00,
 0x00,0x00,0xf0,0x01,0x00,0x00,0x00,0x00,0x00,0x00,0x00,0x00,0x00,0x00,0x00,
 0x00,0x00,0x00,0x00,0x00,0x00,0x00,0x00,0x00,0x00,0x00,0x00,0x00,0x00,0x00,
 0x00,0x00,0x00,0x00,0xf0,0x00,0x00,0x00,0x00,0x00,0x00,0x00,0x00,0x00,0x00,
 0x00,0x00,0x00,0x00,0x00,0x00,0x00,0x00,0x00,0x00,0x00,0x00,0x00,0x00,0x00,
 0x00,0x00,0x00,0x00,0x00,0x00,0xf8,0x00,0x00,0x00,0x00,0x00,0x00,0x00,0x00,
 0x00,0x00,0x00,0x00,0x00,0x00,0x00,0x00,0x00,0x00,0x00,0x00,0x00,0x00,0x00,
 0x00,0x00,0x00,0x00,0x00,0x00,0x00,0x80,0x7f,0x00,0x00,0x00,0x00,0x00,0x00,
 0x00,0x00,0x00,0x00,0x00,0x00,0x00,0x00,0x00,0x00,0x00,0x00,0x00,0x00,0x00,
 0x00,0x00,0x00,0x00,0x00,0x00,0x00,0x00,0x00,0xc0,0x7f,0x00,0x00,0x00,0x00,
 0x00,0x00,0x00,0x00,0x00,0x00,0x00,0x00,0x00,0x00,0x00,0x00,0x00,0x00,0x00,
 0x00,0x00,0x00,0x00,0x00,0x00,0x00,0x00,0x00,0x00,0x00,0x80,0x1f,0x00,0x00,
 0x00,0x00,0x00,0x00,0x00,0x00,0x00,0x00,0x00,0x00,0x00,0x00,0x00,0x00,0x00,
 0x00,0x00,0x00,0x00,0x00,0x00,0x00,0x00,0x00,0x00,0x00,0x00,0x00,0x00,0x00,
 0x00,0x00,0x00,0x00,0x00,0x00,0x00,0x00,0x00,0x00,0x00,0x00,0x00,0x00,0x00,
 0x00,0x00,0x00,0x00,0x00,0x00,0x00,0x00,0x00,0x00,0x00,0x00,0x00,0x00,0x00,
 0x00,0x00,0x00,0x00,0x00,0x00,0x00,0x00,0x00,0x00,0x00,0x00,0x00,0x00,0x00,
 0x00,0x00,0x00,0x00,0x00,0x00,0x00,0x00,0x00,0x00,0x00,0x00,0x00,0x00,0x00,
 0x00,0x00,0x00,0x00,0x00,0x00,0x00,0x00,0x00,0x00,0x00,0x00,0x00,0x00,0x00,
 0x00,0x00,0x00,0x00,0x00,0x00,0x00,0x00,0x00,0x00,0x00,0x00,0x00,0x00,0x00,
 0x00,0x00,0x00,0x00,0x00,0x00,0x00,0x00,0x00,0x00,0x00,0x00,0x00,0x00,0x00,
 0x00,0x00,0x00,0x00,0x00,0x00,0x00,0x00,0x00,0x00,0x00,0x00,0x00,0x00,0x00,
 0x00,0x00,0x00,0x00,0x00,0x00,0x00,0x00,0x00,0x00,0x00,0x00,0x00,0x00,0x00,
 0x00,0x00,0x00,0x00,0x00,0x00,0x00,0x00,0x00,0x00,0x00,0x00,0x00,0x00,0x00,
 0x00,0x00,0x00,0x00,0x00,0x00,0x00,0x00,0x00,0x00,0x00,0x00,0x00,0x00,0x00,
 0x00,0x00,0x00,0x00,0x00,0x00,0x00,0x00,0x00,0x00,0x00,0x00,0x00,0x00,0x00,
 0x00,0x00,0x00,0x00,0x00,0x00,0x00,0x00,0x00,0x00,0x00,0x00,0x00,0x00,0x00,
 0x00,0x00,0x00,0x00,0x00,0x00,0x00,0x00,0x00,0x00,0x00,0x00,0x00,0x00,0x00,
 0x00,0x00,0x00,0x00,0x00,0x00,0x00,0x00,0x00,0x00,0x00,0x00,0x00,0x00,0x00,
 0x00,0x00,0x00,0x00,0x00,0x00,0x00,0x00,0x00,0x00,0x00,0x00,0x00,0x00,0x00,
 0x00,0x00,0x00,0x00,0x00,0x00,0x00,0x00,0x00,0x00,0x00,0x00,0x00,0x00,0x00,
 0x00,0x00,0x00,0x00,0x00,0x00,0x00,0x00,0x00,0x00,0x00,0x00,0x00,0x00,0x00,
 0x00,0x00,0x00,0x00,0x00,0x00,0x00,0x00,0x00,0x00,0x00,0x00,0x00,0x00,0x00,
 0x00,0x00,0x00,0x00,0x00,0x00,0x00,0x00,0x00,0x00,0x00,0x00,0x00,0x00,0x00,
 0x00,0x00,0x00,0x00,0x00,0x00,0x00,0x00,0x00,0x00,0x00,0x00,0x00,0x00,0x00,
 0x00,0x00,0x00,0x00,0x00,0x00,0x00,0x00,0x00,0x00,0x00,0x00,0x00,0x00,0x00,
 0x00,0x00,0x00,0x00,0x00,0x00,0x00,0x00,0x00,0x00,0x00,0x00,0x00,0x00,0x00,
 0x00,0x00,0x00,0x00,0x00,0x00,0x00,0x00,0x00,0x00,0x00,0x00,0x00,0x00,0x00,
 0x00,0x00,0x00,0x00,0x00,0x00,0x00,0x00,0x00,0x00,0x00,0x00,0x00,0x00,0x00,
 0x00,0x00,0x00,0x00,0x00,0x00,0x00,0x00,0x00,0x00,0x00,0x00,0x00,0x00,0x00,
 0x00,0x00,0x00,0x00,0x00,0x00,0x00,0x00,0x00,0x00,0x00,0x00,0x00,0x00,0x00,
 0x00,0x00,0x00,0x00,0x00,0x00,0x00,0x00,0x00,0x00,0x00,0x00,0x00,0x00,0x00,
 0x00,0x00,0x00,0x00,0x00,0x00,0x00,0x00,0x00,0x00,0x00,0x00,0x00,0x00,0x00,
 0x00,0x00,0x00,0x00,0x00,0x00,0x00,0x00,0x00,0x00,0x00,0x00,0x00,0x00,0x00,
 0x00,0x00,0x00,0x00,0x00,0x00,0x00,0x00,0x00,0x00,0x00,0x00,0x00,0x00,0x00,
 0x00,0x00,0x00,0x00,0x00,0x00,0x00,0x00,0x00,0x00,0x00,0x00,0x00,0x00,0x00,
 0x00,0x00,0x00,0x00,0x00,0x00,0x00,0x00,0x00,0x00,0x00,0x00,0x00,0x00,0x00,
 0x00,0x00,0x00,0x00,0x00,0x00,0x00,0x00 };
