#define _width 256
#define _height 64
static char _bits[] = {
 0x00,0x00,0x00,0x00,0x00,0x00,0x00,0x00,0x00,0x00,0x00,0x00,0x00,0x00,0x00,
 0x00,0x00,0x00,0x00,0x00,0x00,0x00,0x00,0x00,0x00,0x00,0x00,0x00,0x00,0x00,
 0x00,0x00,0x00,0x00,0x00,0x00,0x00,0x00,0x00,0x00,0x00,0x00,0x00,0x00,0x00,
 0x00,0x00,0x00,0x00,0x00,0x00,0x00,0x00,0x00,0x00,0x00,0x00,0x00,0x00,0x00,
 0x00,0x00,0x00,0x00,0x00,0x00,0x00,0x00,0x00,0x00,0x00,0x00,0x00,0x00,0x00,
 0x00,0x00,0x00,0x00,0x00,0x00,0x00,0x00,0x00,0x00,0x00,0x00,0x00,0x00,0x00,
 0x00,0x00,0x00,0x00,0x00,0x00,0x00,0x00,0x00,0x00,0x00,0x00,0x00,0x00,0x00,
 0x00,0x00,0x00,0x00,0x00,0x00,0x00,0x00,0x00,0x00,0x00,0x00,0x00,0x00,0x00,
 0x00,0x00,0x00,0x00,0x00,0x00,0x00,0x00,0x00,0x00,0x00,0x00,0x00,0x00,0x00,
 0x00,0x00,0x00,0x00,0x00,0x00,0x00,0x00,0x00,0x00,0x00,0x00,0x00,0x00,0x00,
 0x00,0x00,0x00,0x00,0x00,0x00,0x00,0x00,0x00,0x00,0x00,0x00,0x00,0x00,0x00,
 0x00,0x00,0x00,0x00,0x00,0x00,0x00,0x00,0x00,0x00,0x00,0x00,0x00,0x00,0x00,
 0x00,0x00,0x00,0x00,0x00,0x00,0x00,0x00,0x00,0x00,0x00,0x00,0x00,0x00,0x00,
 0x00,0x00,0x00,0x00,0x00,0x00,0x00,0x00,0x00,0x00,0x00,0x00,0x00,0x00,0x00,
 0x00,0x00,0x00,0x00,0x00,0x00,0x00,0x00,0x00,0x00,0x00,0x00,0x00,0x00,0x00,
 0x00,0x00,0x00,0x00,0x00,0x00,0x00,0x00,0x00,0x00,0x00,0x00,0x00,0x00,0x00,
 0x00,0x00,0x00,0x00,0x00,0x00,0x00,0x00,0x00,0x00,0x00,0x00,0x00,0x00,0x00,
 0x00,0x00,0x00,0x00,0x00,0x00,0x00,0x00,0x00,0x00,0x00,0x00,0x00,0x00,0x00,
 0x00,0x00,0x00,0x00,0x00,0x00,0x00,0x00,0x00,0x00,0x00,0x00,0x00,0x00,0x00,
 0x00,0x00,0x00,0x00,0x00,0x00,0x00,0x00,0x00,0x00,0x00,0x00,0x00,0x00,0x00,
 0x00,0x00,0x00,0x00,0x00,0x00,0x00,0x00,0x00,0x00,0x00,0x00,0x00,0x00,0x00,
 0x00,0x00,0x00,0x00,0x00,0x00,0x00,0x00,0x00,0x00,0x00,0x00,0x00,0x00,0x00,
 0x00,0x00,0x00,0x00,0x00,0x00,0x00,0x00,0x00,0x00,0x00,0x00,0x00,0x00,0x00,
 0x00,0x00,0x00,0x00,0x00,0x00,0x00,0x00,0x00,0x00,0x00,0x00,0x00,0x00,0x00,
 0x00,0x00,0x00,0x00,0x00,0x00,0x00,0x00,0x00,0x00,0x00,0x00,0x00,0x00,0x00,
 0x00,0x00,0x00,0x00,0x00,0x00,0x00,0x00,0x00,0x00,0x00,0x00,0x00,0x00,0x00,
 0x00,0x00,0x00,0x00,0x00,0x00,0x00,0x00,0x00,0x00,0x00,0x00,0x00,0x00,0x00,
 0x00,0x00,0x00,0x00,0x00,0x00,0x00,0x00,0x00,0x00,0x00,0x00,0x00,0x00,0x00,
 0x00,0x00,0x00,0x00,0x00,0x00,0x00,0x00,0x00,0x00,0x00,0x00,0x00,0x00,0x00,
 0x00,0x00,0x00,0x00,0x00,0x00,0x00,0x00,0x00,0x00,0x00,0x00,0x00,0x00,0x00,
 0x00,0x00,0x00,0x00,0x00,0x00,0x00,0x00,0x00,0x00,0x00,0x00,0x00,0x00,0x00,
 0x00,0x00,0x00,0x00,0x00,0x00,0x00,0x00,0x00,0x00,0x00,0x00,0x00,0x00,0x00,
 0x00,0xf8,0x07,0x00,0x00,0x00,0x00,0x00,0x00,0x00,0x00,0x00,0x00,0x00,0x00,
 0xf8,0x07,0xf0,0x07,0x1f,0x00,0x00,0x00,0x00,0xf0,0x07,0x00,0x00,0x00,0x00,
 0x00,0x00,0x00,0xfe,0x1f,0x00,0x00,0x00,0x00,0x00,0x00,0x00,0x00,0x00,0x00,
 0x00,0x00,0xfe,0x1f,0xf0,0x87,0x3f,0x00,0x00,0x00,0x00,0xf0,0x07,0x00,0x00,
 0x00,0x00,0x00,0x00,0x80,0x1f,0x3c,0x00,0x00,0x00,0x00,0x00,0x00,0x00,0x00,
 0x00,0x00,0x00,0x80,0x1f,0x3c,0xf0,0x87,0x3f,0x00,0x00,0x00,0x00,0xf0,0x07,
 0x00,0x00,0x00,0x00,0x00,0x00,0xc0,0x0f,0x78,0x00,0x00,0x00,0x00,0x00,0x00,
 0x00,0x00,0x00,0x00,0x00,0xc0,0x0f,0x78,0xf0,0x87,0x3f,0x00,0x00,0x00,0x00,
 0xf0,0x07,0x00,0x00,0x00,0x00,0x00,0x00,0xe0,0x0f,0x78,0x00,0x00,0x00,0x00,
 0x00,0x00,0x00,0x00,0x00,0x00,0x00,0xe0,0x0f,0x78,0xf0,0x07,0x1f,0x00,0x00,
 0x00,0x00,0xf0,0x07,0x00,0x00,0x00,0x00,0x00,0x00,0xf0,0x07,0xf0,0x00,0x00,
 0x00,0x00,0x00,0x00,0x00,0x00,0x00,0x00,0x00,0xf0,0x07,0xf0,0xf0,0x07,0x00,
 0x00,0x00,0x00,0x00,0xf0,0x07,0x00,0x00,0x00,0x00,0x00,0x00,0xf0,0x07,0xf0,
 0x00,0x00,0x00,0x00,0x00,0x00,0x00,0x00,0x00,0x00,0x00,0xf0,0x07,0xf0,0xf0,
 0x07,0x00,0x00,0x00,0x00,0x00,0xf0,0x07,0x00,0x00,0x00,0x00,0x00,0x00,0xf8,
 0x07,0xf0,0xf8,0xf3,0x01,0xfe,0x07,0xfc,0xff,0xff,0x03,0x1c,0x00,0xf8,0x07,
 0xf0,0xf0,0x87,0x3f,0xfc,0xf1,0x83,0x3f,0xf0,0xe7,0x07,0x80,0x3f,0x80,0x3f,
 0x1f,0xf8,0x03,0x70,0xf8,0xfb,0xc3,0xff,0x1f,0xfc,0xff,0xff,0x03,0x0c,0x00,
 0xf8,0x03,0x70,0xf0,0x87,0x3f,0xfc,0xf9,0xe7,0x7f,0xf0,0xf7,0x0f,0xe0,0xff,
 0x80,0xbf,0x3f,0xf8,0x03,0x00,0xf8,0xff,0xc3,0xc1,0x3f,0x00,0xfc,0xfb,0x03,
 0x0e,0x00,0xf8,0x03,0x00,0xf0,0x87,0x3f,0xfc,0xff,0xff,0xff,0xf0,0xff,0x1f,
 0xf0,0xf3,0x81,0xff,0x3f,0xfc,0x03,0x00,0xf8,0xe7,0xe3,0x80,0x3f,0x00,0xfe,
 0xf9,0x07,0x0e,0x00,0xfc,0x03,0x00,0xf0,0x87,0x3f,0xfc,0xff,0xff,0xff,0xf0,
 0x8f,0x3f,0xf8,0xe1,0x83,0x7f,0x3e,0xfc,0x03,0x00,0xf8,0xe7,0xe3,0x80,0x3f,
 0x00,0xfe,0xf9,0x07,0x06,0x00,0xfc,0x03,0x00,0xf0,0x87,0x3f,0xfc,0xe3,0x3f,
 0xfe,0xf0,0x8f,0x3f,0xf8,0xe1,0x83,0x7f,0x3e,0xfc,0x03,0x00,0xf8,0xe3,0xe3,
 0x80,0x3f,0x00,0xff,0xf0,0x07,0x07,0x00,0xfc,0x03,0x00,0xf0,0x87,0x3f,0xfc,
 0xe3,0x1f,0xfe,0xf0,0x87,0x7f,0xfc,0xe1,0x87,0x3f,0x3e,0xfc,0x03,0x00,0xf8,
 0xf3,0x01,0xc0,0x3f,0x80,0xff,0xf0,0x0f,0x03,0x00,0xfc,0x03,0x00,0xf0,0x87,
 0x3f,0xfc,0xe1,0x0f,0xfe,0xf0,0x07,0x7f,0xfc,0xe1,0x87,0x3f,0x1f,0xfc,0x03,
 0x00,0xf8,0x03,0x00,0xe0,0x3f,0x80,0x7f,0xf0,0x8f,0x03,0x00,0xfc,0x03,0x00,
 0xf0,0x87,0x3f,0xfc,0xe1,0x0f,0xfe,0xf0,0x07,0x7f,0xfe,0xe1,0x87,0x3f,0x00,
 0xfc,0x03,0x00,0xf8,0x03,0x00,0xbc,0x3f,0xc0,0x3f,0xe0,0x9f,0x01,0x00,0xfc,
 0x03,0x00,0xf0,0x87,0x3f,0xfc,0xe1,0x0f,0xfe,0xf0,0x07,0x7f,0xfe,0xff,0x87,
 0x3f,0x00,0xfc,0x03,0x40,0xf8,0x03,0x80,0x9f,0x3f,0xc0,0x3f,0xe0,0x9f,0x01,
 0x00,0xfc,0x03,0x40,0xf0,0x87,0x3f,0xfc,0xe1,0x0f,0xfe,0xf0,0x07,0x7f,0xfe,
 0xff,0x87,0x3f,0x00,0xfc,0x03,0xc0,0xf9,0x03,0xc0,0x8f,0x3f,0xe0,0x1f,0xc0,
 0xdf,0x01,0x00,0xfc,0x03,0xc0,0xf1,0x87,0x3f,0xfc,0xe1,0x0f,0xfe,0xf0,0x07,
 0x7f,0xfe,0x01,0x80,0x3f,0x00,0xfc,0x03,0xc0,0xf9,0x03,0xe0,0x87,0x3f,0xe0,
 0x1f,0xc0,0xff,0x00,0x00,0xfc,0x03,0xc0,0xf1,0x87,0x3f,0xfc,0xe1,0x0f,0xfe,
 0xf0,0x07,0x7f,0xfe,0x01,0x80,0x3f,0x00,0xf8,0x03,0xc0,0xf9,0x03,0xf0,0x87,
 0x3f,0xf0,0x0f,0xc0,0xff,0x00,0x00,0xf8,0x03,0xc0,0xf1,0x87,0x3f,0xfc,0xe1,
 0x0f,0xfe,0xf0,0x87,0x7f,0xfe,0x01,0x80,0x3f,0x00,0xf8,0x07,0xc0,0xf9,0x03,
 0xf0,0x87,0x3f,0xf8,0x0f,0x80,0x7f,0x00,0x00,0xf8,0x07,0xc0,0xf1,0x87,0x3f,
 0xfc,0xe1,0x0f,0xfe,0xf0,0x87,0x7f,0xfe,0x01,0x86,0x3f,0x00,0xf0,0x07,0xe0,
 0xf9,0x03,0xf0,0x87,0x3f,0xf8,0x07,0x80,0x7f,0x00,0x00,0xf0,0x07,0xe0,0xf1,
 0x87,0x3f,0xfc,0xe1,0x0f,0xfe,0xf0,0x87,0x3f,0xfc,0x01,0x86,0x3f,0x00,0xf0,
 0x0f,0xe0,0xf8,0x03,0xf0,0x87,0x3f,0xfc,0x07,0x00,0x7f,0x00,0x00,0xf0,0x0f,
 0xe0,0xf0,0x87,0x3f,0xfc,0xe1,0x0f,0xfe,0xf0,0x8f,0x3f,0xfc,0x03,0x86,0x3f,
 0x00,0xe0,0x0f,0x70,0xf8,0x03,0xf0,0xcf,0x3f,0xfc,0x03,0x00,0x3f,0x00,0x00,
 0xe0,0x0f,0x70,0xf0,0x87,0x3f,0xfc,0xe1,0x0f,0xfe,0xf0,0xcf,0x1f,0xf8,0x03,
 0x87,0x3f,0x00,0xc0,0x3f,0x38,0xf8,0x03,0xe0,0xff,0x3f,0xfe,0x01,0x00,0x3f,
 0x00,0x00,0xc0,0x3f,0x38,0xf0,0x87,0x3f,0xfc,0xe1,0x0f,0xfe,0x70,0xff,0x1f,
 0xf8,0x87,0x83,0x3f,0x00,0x80,0xff,0x1f,0xf8,0x03,0xe0,0x7f,0xff,0xff,0xff,
 0x03,0x1e,0x00,0x00,0x80,0xff,0x1f,0xf0,0x87,0x3f,0xfc,0xe1,0x0f,0xfe,0x70,
 0xfe,0x0f,0xe0,0xff,0x81,0x3f,0x00,0x00,0xfc,0x03,0xf8,0x03,0x80,0x1f,0xfe,
 0xfe,0xff,0x03,0x1e,0x00,0x00,0x00,0xfc,0x03,0xf0,0x87,0x3f,0xfc,0xe1,0x0f,
 0xfe,0x30,0xf8,0x03,0x80,0x7f,0x80,0x3f,0x00,0x00,0x00,0x00,0x00,0x00,0x00,
 0x00,0x00,0x00,0x00,0x00,0x1e,0x00,0x00,0x00,0x00,0x00,0x00,0x00,0x00,0x00,
 0x00,0x00,0x00,0x00,0x00,0x00,0x00,0x00,0x00,0x00,0x00,0x00,0x00,0x00,0x00,
 0x00,0x00,0x00,0x00,0x00,0x00,0x00,0x0c,0x00,0x00,0x00,0x00,0x00,0x00,0x00,
 0x00,0x00,0x00,0x00,0x00,0x00,0x00,0x00,0x00,0x00,0x00,0x00,0x00,0x00,0x00,
 0x00,0x00,0x00,0x00,0x00,0x00,0x00,0x00,0x00,0x0e,0x00,0x00,0x00,0x00,0x00,
 0x00,0x00,0x00,0x00,0x00,0x00,0x00,0x00,0x00,0x00,0x00,0x00,0x00,0x00,0x00,
 0x00,0x00,0x00,0x00,0x00,0x00,0x00,0x00,0x00,0x00,0x10,0x06,0x00,0x00,0x00,
 0x00,0x00,0x00,0x00,0x00,0x00,0x00,0x00,0x00,0x00,0x00,0x00,0x00,0x00,0x00,
 0x00,0x00,0x00,0x00,0x00,0x00,0x00,0x00,0x00,0x00,0x00,0x00,0x18,0x07,0x00,
 0x00,0x00,0x00,0x00,0x00,0x00,0x00,0x00,0x00,0x00,0x00,0x00,0x00,0x00,0x00,
 0x00,0x00,0x00,0x00,0x00,0x00,0x00,0x00,0x00,0x00,0x00,0x00,0x00,0x00,0xf8,
 0x03,0x00,0x00,0x00,0x00,0x00,0x00,0x00,0x00,0x00,0x00,0x00,0x00,0x00,0x00,
 0x00,0x00,0x00,0x00,0x00,0x00,0x00,0x00,0x00,0x00,0x00,0x00,0x00,0x00,0x00,
 0x00,0xf0,0x01,0x00,0x00,0x00,0x00,0x00,0x00,0x00,0x00,0x00,0x00,0x00,0x00,
 0x00,0x00,0x00,0x00,0x00,0x00,0x00,0x00,0x00,0x00,0x00,0x00,0x00,0x00,0x00,
 0x00,0x00,0x00,0x00,0x00,0x00,0x00,0x00,0x00,0x00,0x00,0x00,0x00,0x00,0x00,
 0x00,0x00,0x00,0x00,0x00,0x00,0x00,0x00,0x00,0x00,0x00,0x00,0x00,0x00,0x00,
 0x00,0x00,0x00,0x00,0x00,0x00,0x00,0x00,0x00,0x00,0x00,0x00,0x00,0x00,0x00,
 0x00,0x00,0x00,0x00,0x00,0x00,0x00,0x00,0x00,0x00,0x00,0x00,0x00,0x00,0x00,
 0x00,0x00,0x00,0x00,0x00,0x00,0x00,0x00,0x00,0x00,0x00,0x00,0x00,0x00,0x00,
 0x00,0x00,0x00,0x00,0x00,0x00,0x00,0x00,0x00,0x00,0x00,0x00,0x00,0x00,0x00,
 0x00,0x00,0x00,0x00,0x00,0x00,0x00,0x00,0x00,0x00,0x00,0x00,0x00,0x00,0x00,
 0x00,0x00,0x00,0x00,0x00,0x00,0x00,0x00,0x00,0x00,0x00,0x00,0x00,0x00,0x00,
 0x00,0x00,0x00,0x00,0x00,0x00,0x00,0x00,0x00,0x00,0x00,0x00,0x00,0x00,0x00,
 0x00,0x00,0x00,0x00,0x00,0x00,0x00,0x00,0x00,0x00,0x00,0x00,0x00,0x00,0x00,
 0x00,0x00,0x00,0x00,0x00,0x00,0x00,0x00,0x00,0x00,0x00,0x00,0x00,0x00,0x00,
 0x00,0x00,0x00,0x00,0x00,0x00,0x00,0x00,0x00,0x00,0x00,0x00,0x00,0x00,0x00,
 0x00,0x00,0x00,0x00,0x00,0x00,0x00,0x00,0x00,0x00,0x00,0x00,0x00,0x00,0x00,
 0x00,0x00,0x00,0x00,0x00,0x00,0x00,0x00,0x00,0x00,0x00,0x00,0x00,0x00,0x00,
 0x00,0x00,0x00,0x00,0x00,0x00,0x00,0x00,0x00,0x00,0x00,0x00,0x00,0x00,0x00,
 0x00,0x00,0x00,0x00,0x00,0x00,0x00,0x00,0x00,0x00,0x00,0x00,0x00,0x00,0x00,
 0x00,0x00,0x00,0x00,0x00,0x00,0x00,0x00,0x00,0x00,0x00,0x00,0x00,0x00,0x00,
 0x00,0x00,0x00,0x00,0x00,0x00,0x00,0x00,0x00,0x00,0x00,0x00,0x00,0x00,0x00,
 0x00,0x00,0x00,0x00,0x00,0x00,0x00,0x00,0x00,0x00,0x00,0x00,0x00,0x00,0x00,
 0x00,0x00,0x00,0x00,0x00,0x00,0x00,0x00,0x00,0x00,0x00,0x00,0x00,0x00,0x00,
 0x00,0x00,0x00,0x00,0x00,0x00,0x00,0x00,0x00,0x00,0x00,0x00,0x00,0x00,0x00,
 0x00,0x00,0x00,0x00,0x00,0x00,0x00,0x00,0x00,0x00,0x00,0x00,0x00,0x00,0x00,
 0x00,0x00,0x00,0x00,0x00,0x00,0x00,0x00,0x00,0x00,0x00,0x00,0x00,0x00,0x00,
 0x00,0x00,0x00,0x00,0x00,0x00,0x00,0x00,0x00,0x00,0x00,0x00,0x00,0x00,0x00,
 0x00,0x00,0x00,0x00,0x00,0x00,0x00,0x00,0x00,0x00,0x00,0x00,0x00,0x00,0x00,
 0x00,0x00,0x00,0x00,0x00,0x00,0x00,0x00,0x00,0x00,0x00,0x00,0x00,0x00,0x00,
 0x00,0x00,0x00,0x00,0x00,0x00,0x00,0x00,0x00,0x00,0x00,0x00,0x00,0x00,0x00,
 0x00,0x00,0x00,0x00,0x00,0x00,0x00,0x00,0x00,0x00,0x00,0x00,0x00,0x00,0x00,
 0x00,0x00,0x00,0x00,0x00,0x00,0x00,0x00,0x00,0x00,0x00,0x00,0x00,0x00,0x00,
 0x00,0x00,0x00,0x00,0x00,0x00,0x00,0x00,0x00,0x00,0x00,0x00,0x00,0x00,0x00,
 0x00,0x00,0x00,0x00,0x00,0x00,0x00,0x00,0x00,0x00,0x00,0x00,0x00,0x00,0x00,
 0x00,0x00,0x00,0x00,0x00,0x00,0x00,0x00 };
