#define _width 256
#define _height 64
static char _bits[] = {
 0x00,0x00,0x00,0x00,0x00,0x00,0x00,0x00,0x00,0x00,0x00,0x00,0x00,0x00,0x00,
 0x00,0x00,0x00,0x00,0x00,0x00,0x00,0x00,0x00,0x00,0x00,0x00,0x00,0x00,0x00,
 0x00,0x00,0x00,0x00,0x00,0x00,0x00,0x00,0x00,0x00,0x00,0x00,0x00,0x00,0x00,
 0x00,0x00,0x00,0x00,0x00,0x00,0x00,0x00,0x00,0x00,0x00,0x00,0x00,0x00,0x00,
 0x00,0x00,0x00,0x00,0x00,0x00,0x00,0x00,0x00,0x00,0x00,0x00,0x00,0x00,0x00,
 0x00,0x00,0x00,0x00,0x00,0x00,0x00,0x00,0x00,0x00,0x00,0x00,0x00,0x00,0x00,
 0x00,0x00,0x00,0x00,0x00,0x00,0x00,0x00,0x00,0x00,0x00,0x00,0x00,0x00,0x00,
 0x00,0x00,0x00,0x00,0x00,0x00,0x00,0x00,0x00,0x00,0x00,0x00,0x00,0x00,0x00,
 0x00,0x00,0x00,0x00,0x00,0x00,0x00,0x00,0x00,0x00,0x00,0x00,0x00,0x00,0x00,
 0x00,0x00,0x00,0x00,0x00,0x00,0x00,0x00,0x00,0x00,0x00,0x00,0x00,0x00,0x00,
 0x00,0x00,0x00,0x00,0x00,0x00,0x00,0x00,0x00,0x00,0x00,0x00,0x00,0x00,0x00,
 0x00,0x00,0x00,0x00,0x00,0x00,0x00,0x00,0x00,0x00,0x00,0x00,0x00,0x00,0x00,
 0x00,0x00,0x00,0x00,0x00,0x00,0x00,0x00,0x00,0x00,0x00,0x00,0x00,0x00,0x00,
 0x00,0x00,0x00,0x00,0x00,0x00,0x00,0x00,0x00,0x00,0x00,0x00,0x00,0x00,0x00,
 0x00,0x00,0x00,0x00,0x00,0x00,0x00,0x00,0x00,0x00,0x00,0x00,0x00,0x00,0x00,
 0x00,0x00,0x00,0x00,0x00,0x00,0x00,0x00,0x00,0x00,0x00,0x00,0x00,0x00,0x00,
 0x00,0x00,0x00,0x00,0x00,0x00,0x00,0x00,0x00,0x00,0x00,0x00,0x00,0x00,0x00,
 0x00,0x00,0x00,0x00,0x00,0x00,0x00,0x00,0x00,0x00,0x00,0x00,0x00,0x00,0x00,
 0x00,0x00,0x00,0x00,0x00,0x00,0x00,0x00,0x00,0x00,0x00,0x00,0x00,0x00,0x00,
 0x00,0x00,0x00,0x00,0x00,0x00,0x00,0x00,0x00,0x00,0x00,0x00,0x00,0x00,0x00,
 0x00,0x00,0x00,0x00,0x00,0x00,0x00,0x00,0x00,0x00,0x00,0x00,0x00,0x00,0x00,
 0x00,0x00,0x00,0x00,0x00,0x00,0x00,0x00,0x00,0x00,0x00,0x00,0x00,0x00,0x00,
 0x00,0x00,0x00,0x00,0x00,0x00,0x00,0x00,0x00,0x00,0x00,0x00,0x00,0x00,0x00,
 0x00,0x00,0x00,0x00,0x00,0x00,0x00,0x00,0x00,0x00,0x00,0x00,0x00,0x00,0x00,
 0x00,0x00,0x00,0x00,0x00,0x00,0x00,0x00,0x00,0x00,0x00,0x00,0x00,0x00,0x00,
 0x00,0x00,0x00,0x00,0x00,0x00,0x00,0x00,0x00,0x00,0x00,0x00,0x00,0x00,0x00,
 0x00,0x00,0x00,0x00,0x00,0x00,0x00,0x00,0x00,0x00,0x00,0x00,0x00,0x00,0x00,
 0x00,0x00,0x00,0x00,0x00,0x00,0x00,0x00,0x00,0x00,0x00,0x00,0x00,0x00,0x00,
 0x00,0x00,0x00,0x00,0x00,0x00,0x00,0x00,0x00,0x00,0x00,0x00,0x00,0x00,0x00,
 0x00,0x00,0x00,0x00,0x00,0x00,0x00,0x00,0x00,0x00,0x00,0x00,0x00,0x00,0x00,
 0x00,0x00,0x00,0x00,0x00,0x00,0x00,0x00,0x00,0x00,0x00,0x00,0x00,0x00,0x00,
 0x00,0x00,0x00,0x00,0x00,0x00,0x00,0x00,0x00,0x00,0x00,0x00,0x00,0x00,0x00,
 0x00,0x00,0x00,0x00,0x00,0x00,0x00,0x00,0x00,0x00,0x00,0x00,0x00,0x00,0x00,
 0x00,0x00,0x00,0x00,0x00,0x00,0x00,0x00,0x00,0x00,0x00,0x00,0x00,0x00,0x00,
 0x00,0x00,0xfe,0xff,0x03,0x00,0x1e,0x00,0x00,0x00,0x00,0x00,0x00,0x00,0x00,
 0x00,0x00,0x00,0x00,0x00,0x00,0x00,0xfc,0xff,0xff,0x03,0x00,0x00,0x00,0x00,
 0x00,0x00,0x00,0x00,0xff,0xff,0x0f,0x00,0x3f,0x00,0x00,0x00,0x00,0x00,0x00,
 0x00,0x00,0x00,0x00,0x00,0x00,0x00,0x00,0x00,0xfe,0xff,0xff,0x07,0x00,0x00,
 0x00,0x00,0x00,0x00,0x00,0x00,0xff,0xff,0x3f,0x00,0x3f,0x00,0x00,0x00,0x00,
 0x00,0x00,0x00,0x00,0x00,0x00,0x00,0x00,0x00,0x00,0x00,0xfe,0xff,0xff,0x07,
 0x00,0x00,0x00,0x00,0x00,0x00,0x00,0x00,0xff,0xff,0x7f,0x00,0x3f,0x00,0x00,
 0x00,0x00,0x00,0x00,0x00,0x00,0x00,0x00,0x00,0x00,0x00,0x00,0x00,0xfe,0xff,
 0xff,0x07,0x00,0x00,0x00,0x00,0x00,0x00,0x00,0x00,0xff,0xff,0xff,0x00,0x3f,
 0x00,0x00,0x00,0x00,0x00,0x00,0x00,0x00,0x00,0x00,0x00,0x00,0x00,0x00,0x00,
 0xfc,0xff,0xff,0x03,0x00,0x00,0x00,0x00,0x00,0x00,0x00,0x00,0x3f,0x80,0xff,
 0x01,0x1e,0x00,0x00,0x00,0x00,0x00,0x00,0x00,0x00,0x00,0x00,0x00,0x00,0x00,
 0x00,0x00,0x00,0xf8,0x01,0x00,0x00,0x00,0x00,0x00,0x00,0x00,0x00,0x00,0x3f,
 0x00,0xfc,0x01,0x00,0x00,0x00,0x00,0x00,0x00,0x00,0x00,0x00,0x00,0x00,0x00,
 0x00,0x00,0x00,0x00,0x00,0xf8,0x01,0x00,0x00,0x00,0x00,0x00,0x00,0x00,0x00,
 0x00,0x3f,0x00,0xf8,0x03,0x00,0x00,0x00,0x00,0x00,0x00,0x00,0x00,0x00,0x00,
 0x00,0x00,0x00,0x00,0x00,0x00,0x00,0xf8,0x01,0x00,0x00,0x00,0x00,0x00,0x00,
 0x00,0x00,0x00,0x3f,0x00,0xf8,0x03,0x1e,0x00,0xff,0x00,0x00,0xf8,0x07,0x00,
 0xf8,0x07,0x00,0x00,0x00,0x00,0x00,0x00,0x00,0xf8,0x01,0xc0,0xc3,0x07,0xc0,
 0x3f,0x00,0x78,0xf0,0x03,0x3f,0x00,0xf0,0x03,0x3f,0xc0,0xff,0x07,0x00,0xfe,
 0x1f,0x00,0xfe,0x3f,0x00,0x00,0x00,0x00,0x00,0x00,0x00,0xf8,0x01,0xe0,0xf3,
 0x1f,0xf0,0xff,0x00,0x7c,0xfc,0x0f,0x3f,0x00,0xf0,0x03,0x3f,0xe0,0xff,0x0f,
 0x80,0xff,0x7f,0x00,0xff,0x7f,0x00,0x00,0x00,0x00,0x00,0x00,0x00,0xf8,0x01,
 0xe0,0xf7,0x1f,0xfc,0xff,0x03,0xfc,0xfe,0x1f,0x3f,0x00,0xe0,0x07,0x3f,0xf0,
 0xff,0x1f,0xc0,0xff,0xff,0x80,0xff,0xff,0x00,0x00,0x00,0x00,0x00,0x00,0x00,
 0xf8,0x01,0xe0,0xff,0x1f,0xfe,0xff,0x07,0xfc,0xff,0x3f,0x3f,0x00,0xe0,0x07,
 0x3f,0xf8,0x83,0x3f,0xe0,0x1f,0xfe,0xc1,0x1f,0xfc,0x01,0x00,0x00,0x00,0x7e,
 0x00,0x00,0xf8,0x01,0xe0,0xff,0x1f,0xff,0xf0,0x0f,0xfc,0x87,0x7f,0x3f,0x00,
 0xe0,0x07,0x3f,0xf8,0x01,0x3f,0xe0,0x07,0xf8,0xc1,0x0f,0xf8,0x01,0x00,0x00,
 0x00,0x7f,0x00,0x00,0xf8,0x01,0xe0,0x1f,0x0c,0x3f,0xc0,0x0f,0xfc,0x03,0x7f,
 0x3f,0x00,0xe0,0x07,0x3f,0xf8,0x01,0x3e,0xf0,0x03,0xf0,0xc1,0x0f,0xf0,0x01,
 0x00,0x00,0x80,0x7f,0x00,0x00,0xf8,0x01,0xe0,0x0f,0x80,0x1f,0x80,0x1f,0xfc,
 0x01,0x7e,0x3f,0x00,0xe0,0x07,0x3f,0xf8,0x01,0x1c,0xf0,0x03,0xf0,0xc1,0x0f,
 0xe0,0x00,0x00,0x00,0x80,0x07,0x00,0x00,0xf8,0x01,0xe0,0x0f,0x80,0x1f,0x80,
 0x1f,0xfc,0x00,0x7e,0x3f,0x00,0xe0,0x07,0x3f,0xf8,0x07,0x00,0xf8,0x01,0xe0,
 0xc1,0x3f,0x00,0x00,0x00,0x00,0x80,0x07,0x00,0x00,0xf8,0x01,0xe0,0x0f,0xc0,
 0x0f,0x00,0x3f,0xfc,0x00,0x7e,0x3f,0x00,0xe0,0x07,0x3f,0xf0,0x3f,0x00,0xf8,
 0x01,0x00,0x80,0xff,0x01,0x00,0x00,0xfe,0xe0,0x3f,0x00,0x00,0xf8,0x01,0xe0,
 0x07,0xc0,0x0f,0x00,0x3f,0xfc,0x00,0x7e,0x3f,0x00,0xe0,0x07,0x3f,0xe0,0xff,
 0x03,0xf8,0x01,0x00,0x00,0xff,0x1f,0x00,0x00,0xff,0xf1,0x3f,0x00,0x00,0xf8,
 0x01,0xe0,0x07,0xc0,0x0f,0x00,0x3f,0xfc,0x00,0x7e,0x3f,0x00,0xe0,0x07,0x3f,
 0xc0,0xff,0x0f,0xf8,0x01,0x00,0x00,0xfe,0x7f,0x00,0x80,0xff,0xe3,0x3f,0x00,
 0x00,0xf8,0x01,0xe0,0x07,0xc0,0x0f,0x00,0x3f,0xfc,0x00,0x7e,0x3f,0x00,0xe0,
 0x07,0x3f,0x00,0xff,0x1f,0xf8,0x01,0x00,0x00,0xf8,0xff,0x00,0xc0,0xc7,0x87,
 0x07,0x00,0x00,0xf8,0x01,0xe0,0x07,0xc0,0x0f,0x00,0x3f,0xfc,0x00,0x7e,0x3f,
 0x00,0xf0,0x03,0x3f,0x00,0xf8,0x3f,0xf8,0x01,0x00,0x00,0xc0,0xff,0x01,0xc0,
 0x83,0x8f,0x07,0x00,0x00,0xf8,0x01,0xe0,0x07,0xc0,0x0f,0x00,0x3f,0xfc,0x00,
 0x7e,0x3f,0x00,0xf0,0x03,0x3f,0x00,0xc0,0x7f,0xf8,0x01,0xc0,0x00,0x00,0xfe,
 0x03,0xe0,0x01,0x8f,0x07,0x00,0x00,0xf8,0x01,0xe0,0x07,0xc0,0x0f,0x00,0x3f,
 0xfc,0x00,0x7e,0x3f,0x00,0xf8,0x03,0x3f,0x70,0x00,0x7f,0xf8,0x01,0xe0,0x81,
 0x03,0xf8,0x03,0xe0,0x01,0x8f,0x07,0x00,0x00,0xf8,0x01,0xe0,0x07,0xc0,0x0f,
 0x00,0x3f,0xfc,0x00,0x7e,0x3f,0x00,0xf8,0x03,0x3f,0xf8,0x00,0x7e,0xf0,0x03,
 0xf0,0xc3,0x07,0xf0,0x03,0xe0,0x01,0x8f,0x07,0x00,0x00,0xf8,0x01,0xe0,0x07,
 0x80,0x1f,0x80,0x1f,0xfc,0x00,0x7e,0x3f,0x00,0xfc,0x01,0x3f,0xf8,0x00,0x7e,
 0xf0,0x03,0xf0,0xc3,0x07,0xf0,0x03,0xe0,0x01,0x8f,0x07,0x00,0x00,0xf8,0x01,
 0xe0,0x07,0x80,0x1f,0x80,0x1f,0xfc,0x00,0x7e,0x3f,0x00,0xff,0x01,0x3f,0xf8,
 0x01,0x7e,0xf0,0x07,0xf8,0xc1,0x0f,0xf0,0x03,0xe0,0x01,0x8f,0x07,0x00,0x00,
 0xf8,0x01,0xe0,0x07,0x00,0x3f,0xc0,0x0f,0xfc,0x00,0x7e,0xff,0xff,0xff,0x00,
 0x3f,0xf8,0x07,0x3f,0xe0,0x1f,0xfe,0xc1,0x3f,0xf8,0x01,0xc0,0x83,0x8f,0x07,
 0x00,0x00,0xf8,0x01,0xe0,0x07,0x00,0xff,0xf0,0x0f,0xfc,0x00,0x7e,0xff,0xff,
 0x7f,0x00,0x3f,0xf0,0xff,0x3f,0xc0,0xff,0xff,0x80,0xff,0xff,0x01,0xc0,0xc7,
 0x87,0x07,0x00,0x00,0xf8,0x01,0xe0,0x07,0x00,0xfe,0xff,0x07,0xfc,0x00,0x7e,
 0xff,0xff,0x3f,0x00,0x3f,0xe0,0xff,0x1f,0x80,0xff,0x7f,0x00,0xff,0xff,0x00,
 0x80,0xff,0x83,0x07,0x00,0x00,0xf8,0x01,0xe0,0x07,0x00,0xfc,0xff,0x03,0xfc,
 0x00,0x7e,0xff,0xff,0x0f,0x00,0x3f,0xc0,0xff,0x0f,0x00,0xff,0x1f,0x00,0xfe,
 0x7f,0x00,0x00,0xff,0x81,0x07,0x00,0x00,0xf8,0x01,0xe0,0x07,0x00,0xf0,0xff,
 0x00,0xfc,0x00,0x7e,0xfc,0xff,0x03,0x00,0x1e,0x00,0xfe,0x01,0x00,0xf8,0x07,
 0x00,0xf0,0x0f,0x00,0x00,0xfc,0x00,0x03,0x00,0x00,0xf0,0x00,0xc0,0x03,0x00,
 0xc0,0x3f,0x00,0x78,0x00,0x3c,0x00,0x00,0x00,0x00,0x00,0x00,0x00,0x00,0x00,
 0x00,0x00,0x00,0x00,0x00,0x00,0x00,0x00,0x00,0x00,0x00,0x00,0x00,0x00,0x00,
 0x00,0x00,0x00,0x00,0x00,0x00,0x00,0x00,0x00,0x00,0x00,0x00,0x00,0x00,0x00,
 0x00,0x00,0x00,0x00,0x00,0x00,0x00,0x00,0x00,0x00,0x00,0x00,0x00,0x00,0x00,
 0x00,0x00,0x00,0x00,0x00,0x00,0x00,0x00,0x00,0x00,0x00,0x00,0x00,0x00,0x00,
 0x00,0x00,0x00,0x00,0x00,0x00,0x00,0x00,0x00,0x00,0x00,0x00,0x00,0x00,0x00,
 0x00,0x00,0x00,0x00,0x00,0x00,0x00,0x00,0x00,0x00,0x00,0x00,0x00,0x00,0x00,
 0x00,0x00,0x00,0x00,0x00,0x00,0x00,0x00,0x00,0x00,0x00,0x00,0x00,0x00,0x00,
 0x00,0x00,0x00,0x00,0x00,0x00,0x00,0x00,0x00,0x00,0x00,0x00,0x00,0x00,0x00,
 0x00,0x00,0x00,0x00,0x00,0x00,0x00,0x00,0x00,0x00,0x00,0x00,0x00,0x00,0x00,
 0x00,0x00,0x00,0x00,0x00,0x00,0x00,0x00,0x00,0x00,0x00,0x00,0x00,0x00,0x00,
 0x00,0x00,0x00,0x00,0x00,0x00,0x00,0x00,0x00,0x00,0x00,0x00,0x00,0x00,0x00,
 0x00,0x00,0x00,0x00,0x00,0x00,0x00,0x00,0x00,0x00,0x00,0x00,0x00,0x00,0x00,
 0x00,0x00,0x00,0x00,0x00,0x00,0x00,0x00,0x00,0x00,0x00,0x00,0x00,0x00,0x00,
 0x00,0x00,0x00,0x00,0x00,0x00,0x00,0x00,0x00,0x00,0x00,0x00,0x00,0x00,0x00,
 0x00,0x00,0x00,0x00,0x00,0x00,0x00,0x00,0x00,0x00,0x00,0x00,0x00,0x00,0x00,
 0x00,0x00,0x00,0x00,0x00,0x00,0x00,0x00,0x00,0x00,0x00,0x00,0x00,0x00,0x00,
 0x00,0x00,0x00,0x00,0x00,0x00,0x00,0x00,0x00,0x00,0x00,0x00,0x00,0x00,0x00,
 0x00,0x00,0x00,0x00,0x00,0x00,0x00,0x00,0x00,0x00,0x00,0x00,0x00,0x00,0x00,
 0x00,0x00,0x00,0x00,0x00,0x00,0x00,0x00,0x00,0x00,0x00,0x00,0x00,0x00,0x00,
 0x00,0x00,0x00,0x00,0x00,0x00,0x00,0x00,0x00,0x00,0x00,0x00,0x00,0x00,0x00,
 0x00,0x00,0x00,0x00,0x00,0x00,0x00,0x00,0x00,0x00,0x00,0x00,0x00,0x00,0x00,
 0x00,0x00,0x00,0x00,0x00,0x00,0x00,0x00,0x00,0x00,0x00,0x00,0x00,0x00,0x00,
 0x00,0x00,0x00,0x00,0x00,0x00,0x00,0x00,0x00,0x00,0x00,0x00,0x00,0x00,0x00,
 0x00,0x00,0x00,0x00,0x00,0x00,0x00,0x00,0x00,0x00,0x00,0x00,0x00,0x00,0x00,
 0x00,0x00,0x00,0x00,0x00,0x00,0x00,0x00,0x00,0x00,0x00,0x00,0x00,0x00,0x00,
 0x00,0x00,0x00,0x00,0x00,0x00,0x00,0x00,0x00,0x00,0x00,0x00,0x00,0x00,0x00,
 0x00,0x00,0x00,0x00,0x00,0x00,0x00,0x00,0x00,0x00,0x00,0x00,0x00,0x00,0x00,
 0x00,0x00,0x00,0x00,0x00,0x00,0x00,0x00,0x00,0x00,0x00,0x00,0x00,0x00,0x00,
 0x00,0x00,0x00,0x00,0x00,0x00,0x00,0x00,0x00,0x00,0x00,0x00,0x00,0x00,0x00,
 0x00,0x00,0x00,0x00,0x00,0x00,0x00,0x00,0x00,0x00,0x00,0x00,0x00,0x00,0x00,
 0x00,0x00,0x00,0x00,0x00,0x00,0x00,0x00,0x00,0x00,0x00,0x00,0x00,0x00,0x00,
 0x00,0x00,0x00,0x00,0x00,0x00,0x00,0x00,0x00,0x00,0x00,0x00,0x00,0x00,0x00,
 0x00,0x00,0x00,0x00,0x00,0x00,0x00,0x00,0x00,0x00,0x00,0x00,0x00,0x00,0x00,
 0x00,0x00,0x00,0x00,0x00,0x00,0x00,0x00 };
