#define _width 256
#define _height 64
static char _bits[] = {
 0x00,0x00,0x00,0x00,0x00,0x00,0x00,0x00,0x00,0x00,0x00,0x00,0x00,0x00,0x00,
 0x00,0x00,0x00,0x00,0x00,0x00,0x00,0x00,0x00,0x00,0x00,0x00,0x00,0x00,0x00,
 0x00,0x00,0x00,0x00,0x00,0x00,0x00,0x00,0x00,0x00,0x00,0x00,0x00,0x00,0x00,
 0x00,0x00,0x00,0x00,0x00,0x00,0x00,0x00,0x00,0x00,0x00,0x00,0x00,0x00,0x00,
 0x00,0x00,0x00,0x00,0x00,0x00,0x00,0x00,0x00,0x00,0x00,0x00,0x00,0x00,0x00,
 0x00,0x00,0x00,0x00,0x00,0x00,0x00,0x00,0x00,0x00,0x00,0x00,0x00,0x00,0x00,
 0x00,0x00,0x00,0x00,0x00,0x00,0x00,0x00,0x00,0x00,0x00,0x00,0x00,0x00,0x00,
 0x00,0x00,0x00,0x00,0x00,0x00,0x00,0x00,0x00,0x00,0x00,0x00,0x00,0x00,0x00,
 0x00,0x00,0x00,0x00,0x00,0x00,0x00,0x00,0x00,0x00,0x00,0x00,0x00,0x00,0x00,
 0x00,0x00,0x00,0x00,0x00,0x00,0x00,0x00,0x00,0x00,0x00,0x00,0x00,0x00,0x00,
 0x00,0x00,0x00,0x00,0x00,0x00,0x00,0x00,0x00,0x00,0x00,0x00,0x00,0x00,0x00,
 0x00,0x00,0x00,0x00,0x00,0x00,0x00,0x00,0x00,0x00,0x00,0x00,0x00,0x00,0x00,
 0x00,0x00,0x00,0x00,0x00,0x00,0x00,0x00,0x00,0x00,0x00,0x00,0x00,0x00,0x00,
 0x00,0x00,0x00,0x00,0x00,0x00,0x00,0x00,0x00,0x00,0x00,0x00,0x00,0x00,0x00,
 0x00,0x00,0x00,0x00,0x00,0x00,0x00,0x00,0x00,0x00,0x00,0x00,0x00,0x00,0x00,
 0x00,0x00,0x00,0x00,0x00,0x00,0x00,0x00,0x00,0x00,0x00,0x00,0x00,0x00,0x00,
 0x00,0x00,0x00,0x00,0x00,0x00,0x00,0x00,0x00,0x00,0x00,0x00,0x00,0x00,0x00,
 0x00,0x00,0x00,0x00,0x00,0x00,0x00,0x00,0x00,0x00,0x00,0x00,0x00,0x00,0x00,
 0x00,0x00,0x00,0x00,0x00,0x00,0x00,0x00,0x00,0x00,0x00,0x00,0x00,0x00,0x00,
 0x00,0x00,0x00,0x00,0x00,0x00,0x00,0x00,0x00,0x00,0x00,0x00,0x00,0x00,0x00,
 0x00,0x00,0x00,0x00,0x00,0x00,0x00,0x00,0x00,0x00,0x00,0x00,0x00,0x00,0x00,
 0x00,0x00,0x00,0x00,0x00,0x00,0x00,0x00,0x00,0x00,0x00,0x00,0x00,0x00,0x00,
 0x00,0x00,0x00,0x00,0x00,0x00,0x00,0x00,0x00,0x00,0x00,0x00,0x00,0x00,0x00,
 0x00,0x00,0x00,0x00,0x00,0x00,0x00,0x00,0x00,0x00,0x00,0x00,0x00,0x00,0x00,
 0x00,0x00,0x00,0x00,0x00,0x00,0x00,0x00,0x00,0x00,0x00,0x00,0x00,0x00,0x00,
 0x00,0x00,0x00,0x00,0x00,0x00,0x00,0x00,0x00,0x00,0x00,0x00,0x00,0x00,0x00,
 0x00,0x00,0x00,0x00,0x00,0x00,0x00,0x00,0x00,0x00,0x00,0x00,0x00,0x00,0x00,
 0x00,0x00,0x00,0x00,0x00,0x00,0x00,0x00,0x00,0x00,0x00,0x00,0x00,0x00,0x00,
 0x00,0x00,0x00,0x00,0x00,0x00,0x00,0x00,0x00,0x00,0x00,0x00,0x00,0x00,0x00,
 0x00,0x00,0x00,0x00,0x00,0x00,0x00,0x00,0x00,0x00,0x00,0x00,0x00,0x00,0x00,
 0x00,0x00,0x00,0x00,0x00,0x00,0x00,0x00,0x00,0x00,0x00,0x00,0x00,0x00,0x00,
 0x00,0x00,0x00,0x00,0x00,0x00,0x00,0x00,0x00,0x00,0x00,0x00,0x00,0x00,0x00,
 0xfc,0x03,0x00,0x00,0x00,0x00,0x00,0x00,0x00,0x00,0x00,0x00,0x00,0x00,0x00,
 0x00,0x00,0x00,0x00,0xfe,0xff,0x01,0x00,0x00,0x00,0x00,0x00,0x00,0x00,0x00,
 0x00,0x00,0xfc,0x03,0x00,0x00,0x00,0x00,0x00,0x00,0x00,0x00,0x00,0x00,0x00,
 0x00,0x00,0x00,0x00,0x00,0x00,0xfe,0xff,0x07,0x00,0x00,0x00,0x00,0x00,0x00,
 0x00,0x00,0x00,0x00,0xfc,0x03,0x00,0x00,0x00,0x00,0x00,0x00,0x00,0x00,0x00,
 0x00,0x00,0x00,0x00,0x00,0x00,0x00,0x00,0xfe,0xff,0x1f,0x00,0x00,0x00,0x00,
 0x00,0x00,0x00,0x00,0x00,0x00,0xfc,0x03,0x00,0x00,0x00,0x00,0x00,0x00,0x00,
 0x00,0x00,0x00,0x00,0x00,0x00,0x00,0x00,0x00,0x00,0xfe,0xff,0x3f,0x00,0x00,
 0x00,0x00,0x00,0x00,0x00,0x00,0x00,0x00,0xfc,0x03,0x00,0x00,0x00,0x00,0x00,
 0x00,0x00,0x00,0x00,0x00,0x00,0x00,0x00,0x00,0x00,0x00,0x00,0xfe,0xff,0x3f,
 0x00,0x00,0x00,0x00,0x00,0x00,0x00,0x00,0x00,0x00,0xfc,0x03,0x00,0x00,0x00,
 0x00,0x00,0x00,0x00,0x00,0x00,0x00,0x00,0x00,0x00,0x00,0x00,0x00,0x00,0xfe,
 0xff,0x7f,0x00,0x00,0x00,0x00,0x00,0x00,0x00,0x00,0x00,0x00,0xfc,0x03,0x00,
 0x00,0x00,0x00,0x00,0x00,0x00,0x00,0x00,0x00,0x00,0x00,0x00,0x00,0x00,0x00,
 0x00,0xfe,0xff,0x7f,0x00,0x00,0x00,0x00,0x00,0x00,0x00,0x00,0x00,0x00,0xfc,
 0x03,0x00,0x00,0x00,0x00,0x00,0x00,0x00,0x00,0x00,0x00,0x00,0x00,0x00,0x00,
 0x00,0x00,0x00,0xfe,0xc1,0x7f,0x00,0x00,0x00,0x00,0x00,0x00,0x00,0x00,0x00,
 0x00,0xfc,0x03,0x00,0x00,0x00,0x00,0x00,0x00,0x00,0x00,0x00,0x00,0x00,0x00,
 0x00,0x00,0x00,0x00,0x00,0xfe,0x81,0x7f,0x00,0x00,0x00,0x00,0x00,0x00,0x00,
 0x00,0x00,0x00,0xfc,0x03,0x00,0xf0,0xe3,0x00,0xf8,0x78,0xc0,0x1f,0xf8,0x03,
 0x1c,0x3e,0x00,0xf8,0x71,0x00,0x00,0xfe,0x81,0x7f,0x80,0x1f,0x07,0x80,0x3f,
 0x00,0x7f,0x00,0x70,0x3c,0xfc,0x03,0x00,0xfc,0xf7,0x07,0xfe,0xfb,0xc3,0x1f,
 0xf8,0xc3,0x9f,0xff,0x00,0xfe,0xfb,0x03,0x00,0xfe,0x81,0x7f,0xe0,0xbf,0x3f,
 0xe0,0xff,0xc0,0xff,0x01,0x7f,0x3f,0xfc,0x03,0x00,0xfe,0xff,0x07,0xff,0xff,
 0xc3,0x1f,0xf8,0xc3,0xdf,0xff,0x00,0xff,0xff,0x03,0x00,0xfe,0x81,0x7f,0xf0,
 0xff,0x3f,0xf0,0xff,0xe0,0xff,0x03,0xff,0x3f,0xfc,0x03,0x00,0xff,0xff,0x87,
 0xff,0xff,0xc3,0x1f,0xf8,0xc3,0xff,0xff,0x81,0xff,0xff,0x03,0x00,0xfe,0xc1,
 0x3f,0xf8,0xff,0x3f,0xf8,0xff,0xf0,0xff,0x07,0xff,0x3f,0xfc,0x03,0x80,0xff,
 0xff,0x87,0xff,0xff,0xc3,0x1f,0xf8,0xc3,0xff,0xff,0xc1,0xff,0xff,0x03,0x00,
 0xfe,0xff,0x3f,0xfc,0xff,0x3f,0xfc,0x7f,0xf8,0xff,0x0f,0xff,0x3f,0xfc,0x03,
 0x80,0xff,0xff,0x87,0xff,0xff,0xc3,0x1f,0xf8,0xc3,0xff,0xff,0xc1,0xff,0xff,
 0x03,0x00,0xfe,0xff,0x1f,0xfc,0xff,0x3f,0xfc,0x7f,0xf8,0xe3,0x0f,0xff,0x3f,
 0xfc,0x03,0xc0,0x7f,0xfc,0xc7,0x3f,0xfc,0xc3,0x1f,0xf8,0xc3,0x3f,0xfe,0xe1,
 0x3f,0xfe,0x03,0x00,0xfe,0xff,0x0f,0xfe,0xe3,0x3f,0xfe,0x61,0xfc,0xc1,0x1f,
 0xff,0x00,0xfc,0x03,0xc0,0x1f,0xf8,0xc7,0x1f,0xf8,0xc3,0x1f,0xf8,0xc3,0x1f,
 0xfc,0xe1,0x0f,0xfc,0x03,0x00,0xfe,0xff,0x07,0xfe,0xc0,0x3f,0xfe,0x00,0xfc,
 0xf1,0x1f,0x7f,0x00,0xfc,0x03,0xc0,0x1f,0xf0,0xc7,0x1f,0xf8,0xc3,0x1f,0xf8,
 0xc3,0x1f,0xfc,0xe1,0x0f,0xf8,0x03,0x00,0xfe,0xff,0x07,0xfe,0x80,0x3f,0xfe,
 0x00,0xfc,0xff,0x1f,0x7f,0x00,0xfc,0x03,0xc0,0x1f,0xf0,0xc7,0x1f,0xf8,0xc3,
 0x1f,0xf8,0xc3,0x1f,0xfc,0xe1,0x0f,0xf8,0x03,0x00,0xfe,0xf9,0x0f,0xfe,0x80,
 0x3f,0xfe,0x00,0xfc,0xff,0x1f,0x7f,0x00,0xfc,0x03,0xc0,0x1f,0xf0,0xc7,0x1f,
 0xf8,0xc3,0x1f,0xf8,0xc3,0x1f,0xfc,0xe1,0x0f,0xf8,0x03,0x00,0xfe,0xf1,0x0f,
 0xfe,0x80,0x3f,0xfe,0x00,0xfc,0xff,0x1f,0x7f,0x00,0xfc,0x03,0xc0,0x3f,0xf8,
 0xc7,0x3f,0xfc,0xc3,0x1f,0xfc,0xc3,0x1f,0xfc,0xe1,0x1f,0xfc,0x03,0x00,0xfe,
 0xf1,0x0f,0xfe,0xc1,0x3f,0xfe,0x01,0xfc,0x7f,0x00,0x7f,0x00,0xfc,0xff,0xcf,
 0x7f,0xfc,0x87,0xff,0xff,0xc3,0x3f,0xfe,0xc3,0x1f,0xfc,0xe1,0x3f,0xfe,0x03,
 0x00,0xfe,0xf1,0x1f,0xfe,0xe3,0x3f,0xfe,0x03,0xfc,0x01,0x00,0x7f,0x00,0xfc,
 0xff,0x8f,0xff,0xff,0x87,0xff,0xff,0xc3,0xff,0xff,0xc3,0x1f,0xfc,0xc1,0xff,
 0xff,0x03,0x00,0xfe,0xe1,0x1f,0xfc,0xff,0x3f,0xfc,0x7f,0xf8,0x03,0x02,0x7f,
 0x00,0xfc,0xff,0x8f,0xff,0xff,0x07,0xff,0xff,0xc3,0xff,0xff,0xc3,0x1f,0xfc,
 0xc1,0xff,0xff,0x03,0x00,0xfe,0xe1,0x3f,0xfc,0xff,0x3f,0xfc,0xff,0xf8,0xff,
 0x07,0x7f,0x00,0xfc,0xff,0x0f,0xff,0xff,0x07,0xff,0xff,0x83,0xff,0xff,0xc3,
 0x1f,0xfc,0x81,0xff,0xff,0x03,0x00,0xfe,0xe1,0x3f,0xf8,0xff,0x3f,0xf8,0xff,
 0xf0,0xff,0x0f,0x7f,0x00,0xfc,0xff,0x0f,0xfe,0xf7,0x07,0xfe,0xfb,0x83,0xff,
 0xfb,0xc3,0x1f,0xfc,0x01,0xff,0xfb,0x03,0x00,0xfe,0xc1,0x3f,0xf0,0xbf,0x3f,
 0xf0,0xff,0xe0,0xff,0x0f,0x7f,0x00,0xfc,0xff,0x07,0xfc,0xf3,0x07,0xf8,0xf9,
 0x03,0xff,0xf9,0xc3,0x1f,0xfc,0x01,0xfe,0xf9,0x03,0x00,0xfe,0xc1,0x7f,0xe0,
 0x9f,0x3f,0xe0,0xff,0xc0,0xff,0x07,0x7f,0x00,0xfc,0xff,0x07,0xf0,0xf1,0x07,
 0x00,0xf8,0x03,0x7c,0xf8,0xc3,0x1f,0xfc,0x01,0xf8,0xf8,0x03,0x00,0xfe,0xc1,
 0x7f,0x80,0x8f,0x3f,0x80,0x3f,0x00,0xfe,0x01,0x7f,0x00,0x00,0x00,0x00,0x00,
 0x00,0x00,0x06,0xfe,0x01,0x00,0x00,0x00,0x00,0x00,0x00,0x00,0x00,0x00,0x00,
 0x00,0x00,0x00,0x00,0x00,0x00,0x00,0x00,0x00,0x00,0x00,0x00,0x00,0x00,0x00,
 0x00,0x00,0x00,0x00,0xff,0xff,0x01,0x00,0x00,0x00,0x00,0x00,0x00,0x00,0x00,
 0x00,0x00,0x00,0x00,0x00,0x00,0x00,0x00,0x00,0x00,0x00,0x00,0x00,0x00,0x00,
 0x00,0x00,0x00,0x00,0x00,0x00,0xff,0xff,0x01,0x00,0x00,0x00,0x00,0x00,0x00,
 0x00,0x00,0x00,0x00,0x00,0x00,0x00,0x00,0x00,0x00,0x00,0x00,0x00,0x00,0x00,
 0x00,0x00,0x00,0x00,0x00,0x00,0x00,0x00,0xff,0xff,0x00,0x00,0x00,0x00,0x00,
 0x00,0x00,0x00,0x00,0x00,0x00,0x00,0x00,0x00,0x00,0x00,0x00,0x00,0x00,0x00,
 0x00,0x00,0x00,0x00,0x00,0x00,0x00,0x00,0x00,0x00,0xff,0x7f,0x00,0x00,0x00,
 0x00,0x00,0x00,0x00,0x00,0x00,0x00,0x00,0x00,0x00,0x00,0x00,0x00,0x00,0x00,
 0x00,0x00,0x00,0x00,0x00,0x00,0x00,0x00,0x00,0x00,0x00,0x00,0xf8,0x0f,0x00,
 0x00,0x00,0x00,0x00,0x00,0x00,0x00,0x00,0x00,0x00,0x00,0x00,0x00,0x00,0x00,
 0x00,0x00,0x00,0x00,0x00,0x00,0x00,0x00,0x00,0x00,0x00,0x00,0x00,0x00,0x00,
 0x00,0x00,0x00,0x00,0x00,0x00,0x00,0x00,0x00,0x00,0x00,0x00,0x00,0x00,0x00,
 0x00,0x00,0x00,0x00,0x00,0x00,0x00,0x00,0x00,0x00,0x00,0x00,0x00,0x00,0x00,
 0x00,0x00,0x00,0x00,0x00,0x00,0x00,0x00,0x00,0x00,0x00,0x00,0x00,0x00,0x00,
 0x00,0x00,0x00,0x00,0x00,0x00,0x00,0x00,0x00,0x00,0x00,0x00,0x00,0x00,0x00,
 0x00,0x00,0x00,0x00,0x00,0x00,0x00,0x00,0x00,0x00,0x00,0x00,0x00,0x00,0x00,
 0x00,0x00,0x00,0x00,0x00,0x00,0x00,0x00,0x00,0x00,0x00,0x00,0x00,0x00,0x00,
 0x00,0x00,0x00,0x00,0x00,0x00,0x00,0x00,0x00,0x00,0x00,0x00,0x00,0x00,0x00,
 0x00,0x00,0x00,0x00,0x00,0x00,0x00,0x00,0x00,0x00,0x00,0x00,0x00,0x00,0x00,
 0x00,0x00,0x00,0x00,0x00,0x00,0x00,0x00,0x00,0x00,0x00,0x00,0x00,0x00,0x00,
 0x00,0x00,0x00,0x00,0x00,0x00,0x00,0x00,0x00,0x00,0x00,0x00,0x00,0x00,0x00,
 0x00,0x00,0x00,0x00,0x00,0x00,0x00,0x00,0x00,0x00,0x00,0x00,0x00,0x00,0x00,
 0x00,0x00,0x00,0x00,0x00,0x00,0x00,0x00,0x00,0x00,0x00,0x00,0x00,0x00,0x00,
 0x00,0x00,0x00,0x00,0x00,0x00,0x00,0x00,0x00,0x00,0x00,0x00,0x00,0x00,0x00,
 0x00,0x00,0x00,0x00,0x00,0x00,0x00,0x00,0x00,0x00,0x00,0x00,0x00,0x00,0x00,
 0x00,0x00,0x00,0x00,0x00,0x00,0x00,0x00,0x00,0x00,0x00,0x00,0x00,0x00,0x00,
 0x00,0x00,0x00,0x00,0x00,0x00,0x00,0x00,0x00,0x00,0x00,0x00,0x00,0x00,0x00,
 0x00,0x00,0x00,0x00,0x00,0x00,0x00,0x00,0x00,0x00,0x00,0x00,0x00,0x00,0x00,
 0x00,0x00,0x00,0x00,0x00,0x00,0x00,0x00,0x00,0x00,0x00,0x00,0x00,0x00,0x00,
 0x00,0x00,0x00,0x00,0x00,0x00,0x00,0x00,0x00,0x00,0x00,0x00,0x00,0x00,0x00,
 0x00,0x00,0x00,0x00,0x00,0x00,0x00,0x00,0x00,0x00,0x00,0x00,0x00,0x00,0x00,
 0x00,0x00,0x00,0x00,0x00,0x00,0x00,0x00,0x00,0x00,0x00,0x00,0x00,0x00,0x00,
 0x00,0x00,0x00,0x00,0x00,0x00,0x00,0x00,0x00,0x00,0x00,0x00,0x00,0x00,0x00,
 0x00,0x00,0x00,0x00,0x00,0x00,0x00,0x00,0x00,0x00,0x00,0x00,0x00,0x00,0x00,
 0x00,0x00,0x00,0x00,0x00,0x00,0x00,0x00,0x00,0x00,0x00,0x00,0x00,0x00,0x00,
 0x00,0x00,0x00,0x00,0x00,0x00,0x00,0x00,0x00,0x00,0x00,0x00,0x00,0x00,0x00,
 0x00,0x00,0x00,0x00,0x00,0x00,0x00,0x00,0x00,0x00,0x00,0x00,0x00,0x00,0x00,
 0x00,0x00,0x00,0x00,0x00,0x00,0x00,0x00,0x00,0x00,0x00,0x00,0x00,0x00,0x00,
 0x00,0x00,0x00,0x00,0x00,0x00,0x00,0x00,0x00,0x00,0x00,0x00,0x00,0x00,0x00,
 0x00,0x00,0x00,0x00,0x00,0x00,0x00,0x00,0x00,0x00,0x00,0x00,0x00,0x00,0x00,
 0x00,0x00,0x00,0x00,0x00,0x00,0x00,0x00,0x00,0x00,0x00,0x00,0x00,0x00,0x00,
 0x00,0x00,0x00,0x00,0x00,0x00,0x00,0x00,0x00,0x00,0x00,0x00,0x00,0x00,0x00,
 0x00,0x00,0x00,0x00,0x00,0x00,0x00,0x00 };
