#define _width 256
#define _height 64
static char _bits[] = {
 0x1e,0x00,0x00,0x78,0x00,0x00,0x00,0x00,0x00,0x00,0x00,0x00,0x00,0x00,0x00,
 0x0f,0x00,0x00,0x00,0x00,0x00,0x00,0x00,0x00,0x00,0x00,0x00,0x00,0x00,0x00,
 0x00,0x00,0x3f,0x00,0x00,0xfc,0x00,0x00,0x00,0x00,0x00,0x00,0x00,0x00,0x00,
 0x00,0x80,0x1f,0x00,0x00,0x00,0x00,0x00,0x00,0x00,0x00,0x00,0x00,0x00,0x00,
 0x00,0x00,0x00,0x00,0x3f,0x00,0x00,0xfc,0x00,0x00,0x00,0x00,0x00,0x00,0x00,
 0x00,0x00,0x00,0x80,0x1f,0x00,0x00,0x00,0x00,0x00,0x00,0x00,0x00,0x00,0x00,
 0x00,0x00,0x00,0x00,0x00,0x00,0x3f,0x00,0x00,0xfc,0x00,0x00,0x00,0x00,0x00,
 0x00,0x00,0x00,0x00,0x00,0x80,0x1f,0x00,0x00,0x00,0x00,0x00,0x00,0x00,0x00,
 0x00,0x00,0x00,0x00,0x00,0x00,0x00,0x00,0x3f,0x00,0x00,0x78,0x00,0x00,0x00,
 0x00,0x00,0x00,0x00,0x00,0x00,0x00,0x80,0x1f,0x00,0x00,0x00,0x00,0x00,0x00,
 0x00,0x00,0x00,0x00,0x00,0x00,0x00,0x00,0x00,0x00,0x3f,0x00,0x00,0x00,0x00,
 0x00,0x00,0x00,0x00,0x00,0x00,0x00,0x00,0x00,0x80,0x1f,0x00,0x00,0x00,0x00,
 0x00,0x00,0x00,0x00,0x00,0x00,0x00,0x00,0x00,0x00,0x00,0x00,0x3f,0x00,0x00,
 0x00,0x00,0x00,0x00,0x00,0x00,0x00,0x00,0x00,0x00,0x00,0x80,0x1f,0x00,0x00,
 0x00,0x00,0x00,0x00,0x00,0x00,0x00,0x00,0x00,0x00,0x00,0x00,0x00,0x00,0x3f,
 0x00,0x00,0x00,0x00,0x00,0x00,0x00,0x00,0x00,0x00,0x00,0x00,0x00,0x80,0x1f,
 0x00,0x00,0x00,0x00,0x00,0x00,0x00,0x00,0x00,0x00,0x00,0x00,0x00,0x00,0x00,
 0x00,0x3f,0x00,0x00,0x78,0x00,0x00,0x00,0x00,0xfc,0x07,0x80,0x87,0x07,0x00,
 0x80,0x1f,0x00,0x00,0x00,0x00,0x00,0x00,0x00,0x00,0x00,0x00,0x00,0x00,0x00,
 0x00,0x00,0x00,0x3f,0x00,0x00,0xfc,0xe0,0xff,0x7f,0x80,0xff,0x1f,0xc0,0xe7,
 0x1f,0xe0,0x87,0x1f,0x00,0x00,0x00,0x00,0x00,0x00,0x00,0x00,0x00,0x00,0x00,
 0x00,0x00,0x00,0x00,0x00,0x3f,0x00,0x00,0xfc,0xe0,0xff,0xff,0xc0,0xff,0x3f,
 0xc0,0xef,0x3f,0xf8,0x9f,0x1f,0x00,0x00,0x00,0x00,0x00,0x00,0x00,0x00,0x00,
 0x00,0x00,0x00,0x00,0x00,0x00,0x00,0x3f,0x00,0x00,0xfc,0xe0,0xff,0xff,0xe0,
 0xff,0x7f,0xc0,0xff,0x3f,0xfc,0xbf,0x1f,0x00,0x00,0x00,0x00,0x00,0x00,0x00,
 0x00,0x00,0x00,0x00,0x00,0x00,0x00,0x00,0x00,0x3f,0x00,0x00,0xfc,0xe0,0xff,
 0xff,0xf0,0x07,0x7e,0xc0,0xff,0x3f,0xfe,0xff,0x1f,0x00,0x00,0x00,0x00,0x00,
 0x00,0x00,0x00,0x00,0x00,0x00,0x00,0x00,0x00,0x00,0x00,0x3f,0x00,0x00,0xfc,
 0x00,0x00,0x7f,0xf0,0x01,0xfe,0xc0,0x3f,0x18,0xff,0xf0,0x1f,0x00,0x00,0x00,
 0x00,0x00,0x00,0x00,0x00,0x00,0x00,0x00,0x00,0x00,0x00,0x00,0x00,0x3f,0x00,
 0x00,0xfc,0x00,0x80,0x3f,0xf0,0x01,0xfc,0xc0,0x1f,0x00,0x7f,0xe0,0x1f,0x00,
 0x00,0x00,0x00,0x00,0x00,0x00,0x00,0x00,0x00,0x00,0x00,0x00,0x00,0x00,0x00,
 0x3f,0x00,0x00,0xfc,0x00,0x80,0x1f,0xe0,0x00,0xfc,0xc0,0x1f,0x00,0x3f,0xc0,
 0x1f,0x00,0x00,0x00,0x00,0x00,0x00,0x00,0x00,0x00,0x00,0x00,0x00,0x00,0x00,
 0x00,0x00,0x3f,0x00,0x00,0xfc,0x00,0xc0,0x0f,0x00,0x00,0xfe,0xc0,0x1f,0x80,
 0x3f,0xc0,0x1f,0x00,0x00,0x00,0x00,0x00,0x00,0x00,0x00,0x00,0x00,0x00,0x00,
 0x00,0x00,0x00,0x00,0x3f,0x00,0x00,0xfc,0x00,0xe0,0x07,0x00,0xe0,0xff,0xc0,
 0x0f,0x80,0x1f,0xc0,0x1f,0x00,0x00,0x00,0x00,0x00,0x00,0x00,0x00,0x00,0x00,
 0x00,0x00,0x00,0x00,0x00,0x00,0x3f,0x00,0x00,0xfc,0x00,0xf0,0x07,0x00,0xfe,
 0xff,0xc0,0x0f,0x80,0x1f,0x80,0x1f,0x00,0x00,0x00,0x00,0x00,0x00,0x00,0x00,
 0x00,0x00,0x00,0x00,0x00,0x00,0x00,0x00,0x3f,0x00,0x00,0xfc,0x00,0xf8,0x03,
 0xc0,0xff,0xff,0xc0,0x0f,0x80,0x1f,0x80,0x1f,0x00,0x00,0x00,0x00,0x00,0x00,
 0x00,0x00,0x00,0x00,0x00,0x00,0x00,0x00,0x00,0x00,0x3f,0x00,0x00,0xfc,0x00,
 0xfc,0x01,0xe0,0xff,0xfc,0xc0,0x0f,0x80,0x1f,0x80,0x1f,0x00,0x00,0x00,0x00,
 0x00,0x00,0x00,0x00,0x00,0x00,0x00,0x00,0x00,0x00,0x00,0x00,0x3f,0x00,0x00,
 0xfc,0x00,0xfe,0x00,0xf0,0x0f,0xfc,0xc0,0x0f,0x80,0x1f,0x80,0x1f,0x00,0x00,
 0x00,0x00,0x00,0x00,0x00,0x00,0x00,0x00,0x00,0x00,0x00,0x00,0x00,0x00,0x3f,
 0x00,0x00,0xfc,0x00,0x7e,0x00,0xf8,0x03,0xfc,0xc0,0x0f,0x80,0x1f,0xc0,0x1f,
 0x00,0x00,0x00,0x00,0x00,0x00,0x00,0x00,0x00,0x00,0x00,0x00,0x00,0x00,0x00,
 0x00,0x3f,0x00,0x00,0xfc,0x00,0x3f,0x00,0xf8,0x01,0xfc,0xc0,0x0f,0x80,0x3f,
 0xc0,0x1f,0x00,0x00,0x00,0x00,0x00,0x00,0x00,0x00,0x00,0x00,0x00,0x00,0x00,
 0x00,0x00,0x00,0x3f,0x00,0x00,0xfc,0x80,0x3f,0x00,0xf8,0x01,0xfe,0xc0,0x0f,
 0x00,0x3f,0xc0,0x1f,0x00,0x00,0x00,0x00,0x00,0x00,0x00,0x00,0x00,0x00,0x00,
 0x00,0x00,0x00,0x00,0x00,0x3f,0x00,0x00,0xfc,0xc0,0x1f,0x00,0xf8,0x01,0xfe,
 0xc0,0x0f,0x00,0x7f,0xe0,0x1f,0x00,0x00,0x00,0x00,0x00,0x00,0x00,0x00,0x00,
 0x00,0x00,0x00,0x00,0x00,0x00,0x00,0xff,0xff,0x1f,0xfc,0xe0,0x0f,0x00,0xf8,
 0x83,0xff,0xc1,0x0f,0x00,0xfe,0xf0,0x1f,0x00,0x00,0x00,0x00,0x00,0x00,0x00,
 0x00,0x00,0x00,0x00,0x00,0x00,0x00,0x00,0x00,0xff,0xff,0x3f,0xfc,0xf0,0xff,
 0xff,0xf0,0xff,0xff,0xc1,0x0f,0x00,0xfe,0xff,0x1f,0x00,0x00,0x00,0x00,0x00,
 0x00,0x00,0x00,0x00,0x00,0x00,0x00,0x00,0x00,0x00,0x00,0xff,0xff,0x3f,0xfc,
 0xf0,0xff,0xff,0xf1,0xff,0xf9,0xc1,0x0f,0x00,0xfc,0xbf,0x1f,0x00,0x00,0x00,
 0x00,0x00,0x00,0x00,0x00,0x00,0x00,0x00,0x00,0x00,0x00,0x00,0x00,0xff,0xff,
 0x3f,0xfc,0xf0,0xff,0xff,0xe1,0xff,0xf0,0xc1,0x0f,0x00,0xf8,0x9f,0x1f,0x00,
 0x00,0x00,0x00,0x00,0x00,0x00,0x00,0x00,0x00,0x00,0x00,0x00,0x00,0x00,0x00,
 0xfe,0xff,0x1f,0x78,0xe0,0xff,0xff,0x80,0x3f,0xe0,0x80,0x07,0x00,0xe0,0x07,
 0x0f,0x00,0x00,0x00,0x00,0x00,0x00,0x00,0x00,0x00,0x00,0x00,0x00,0x00,0x00,
 0x00,0x00,0x00,0x00,0x00,0x00,0x00,0x00,0x00,0x00,0x00,0x00,0x00,0x00,0x00,
 0x00,0x00,0x00,0x00,0x00,0x00,0x00,0x00,0x00,0x00,0x00,0x00,0x00,0x00,0x00,
 0x00,0x00,0x00,0x00,0x00,0x00,0x00,0x00,0x00,0x00,0x00,0x00,0x00,0x00,0x00,
 0x00,0x00,0x00,0x00,0x00,0x00,0x00,0x00,0x00,0x00,0x00,0x00,0x00,0x00,0x00,
 0x00,0x00,0x00,0x00,0x00,0x00,0x1e,0x00,0x3e,0x00,0x3c,0x78,0x00,0x00,0x00,
 0x00,0x00,0x00,0x00,0x00,0x00,0x00,0x80,0x07,0x00,0x00,0x00,0x00,0x00,0x00,
 0x00,0x00,0x00,0x00,0x00,0x00,0x00,0x00,0x1f,0x00,0x7f,0x00,0x7c,0xfc,0x00,
 0x00,0x00,0x00,0x00,0x00,0x00,0x00,0x00,0x00,0xc0,0x0f,0x00,0x00,0x00,0x00,
 0x00,0x00,0x00,0x00,0x00,0x00,0x00,0x00,0x00,0x00,0x3f,0x00,0x7f,0x00,0x7e,
 0xfc,0x00,0x00,0x00,0x00,0x00,0x00,0x00,0x00,0x00,0x00,0xc0,0x0f,0x00,0x00,
 0x00,0x00,0x00,0x00,0x00,0x00,0x00,0x00,0x00,0x00,0x00,0x00,0x3f,0x80,0xff,
 0x00,0x7e,0xfc,0x00,0x00,0x00,0x00,0x00,0x00,0x00,0x00,0x00,0x00,0xc0,0x0f,
 0x00,0x00,0x00,0x00,0x00,0x00,0x00,0x00,0x00,0x00,0x00,0x00,0x00,0x00,0x3f,
 0x80,0xff,0x00,0x7e,0x78,0x00,0x00,0x00,0x00,0x00,0x00,0x00,0x00,0x00,0x00,
 0xc0,0x0f,0x00,0x00,0x00,0x00,0x00,0x00,0x00,0x00,0x00,0x00,0x00,0x00,0x00,
 0x00,0x7f,0x80,0xff,0x00,0x7f,0x00,0x00,0x00,0x00,0x00,0x00,0x00,0x00,0x00,
 0x00,0x00,0xc0,0x0f,0x00,0x00,0x00,0x00,0x00,0x00,0x00,0x00,0x00,0x00,0x00,
 0x00,0x00,0x00,0x7e,0x80,0xff,0x00,0x3f,0x00,0x00,0x00,0x00,0x00,0x00,0x00,
 0x00,0x00,0x00,0x00,0xc0,0x0f,0x00,0x00,0x00,0x00,0x00,0x00,0x00,0x00,0x00,
 0x00,0x00,0x00,0x00,0x00,0x7e,0xc0,0xff,0x01,0x3f,0x00,0x00,0x00,0x00,0x00,
 0x00,0x00,0x00,0x00,0x00,0x00,0xc0,0x0f,0x00,0x00,0x00,0x00,0x00,0x00,0x00,
 0x00,0x00,0x00,0x00,0x00,0x00,0x00,0x7e,0xc0,0xf7,0x01,0x3f,0x78,0x00,0x00,
 0x00,0x00,0xfc,0x07,0xc0,0xc3,0x03,0x00,0xc0,0x0f,0x00,0x00,0x00,0x00,0x00,
 0x00,0x00,0x00,0x00,0x00,0x00,0x00,0x00,0x00,0x7c,0xc0,0xf7,0x01,0x1f,0xfc,
 0xf0,0xff,0x3f,0x80,0xff,0x1f,0xe0,0xf3,0x0f,0xf0,0xc3,0x0f,0x00,0x00,0x00,
 0x00,0x00,0x00,0x00,0x00,0x00,0x00,0x00,0x00,0x00,0x00,0xfc,0xe0,0xf7,0x83,
 0x1f,0xfc,0xf0,0xff,0x7f,0xc0,0xff,0x3f,0xe0,0xf7,0x1f,0xfc,0xcf,0x0f,0x00,
 0x00,0x00,0x00,0x00,0x00,0x00,0x00,0x00,0x00,0x00,0x00,0x00,0x00,0xfc,0xe0,
 0xe7,0x83,0x1f,0xfc,0xf0,0xff,0x7f,0xe0,0xff,0x7f,0xe0,0xff,0x1f,0xfe,0xdf,
 0x0f,0x00,0x00,0x00,0x00,0x00,0x00,0x00,0x00,0x00,0x00,0x00,0x00,0x00,0x00,
 0xfc,0xe0,0xe3,0x83,0x1f,0xfc,0xf0,0xff,0x7f,0xf0,0x07,0x7e,0xe0,0xff,0x1f,
 0xff,0xff,0x0f,0x00,0x00,0x00,0x00,0x00,0x00,0x00,0x00,0x00,0x00,0x00,0x00,
 0x00,0x00,0xf8,0xe0,0xe3,0x83,0x0f,0xfc,0x00,0x80,0x3f,0xf0,0x01,0xfe,0xe0,
 0x1f,0x8c,0x7f,0xf8,0x0f,0x00,0x00,0x00,0x00,0x00,0x00,0x00,0x00,0x00,0x00,
 0x00,0x00,0x00,0x00,0xf8,0xf1,0xe3,0xc7,0x0f,0xfc,0x00,0xc0,0x1f,0xf0,0x01,
 0xfc,0xe0,0x0f,0x80,0x3f,0xf0,0x0f,0x00,0x00,0x00,0x00,0x00,0x00,0x00,0x00,
 0x00,0x00,0x00,0x00,0x00,0x00,0xf8,0xf1,0xc1,0xc7,0x0f,0xfc,0x00,0xc0,0x0f,
 0xe0,0x00,0xfc,0xe0,0x0f,0x80,0x1f,0xe0,0x0f,0x00,0x00,0x00,0x00,0x00,0x00,
 0x00,0x00,0x00,0x00,0x00,0x00,0x00,0x00,0xf8,0xf1,0xc1,0xc7,0x0f,0xfc,0x00,
 0xe0,0x07,0x00,0x00,0xfe,0xe0,0x0f,0xc0,0x1f,0xe0,0x0f,0x00,0x00,0x00,0x00,
 0x00,0x00,0x00,0x00,0x00,0x00,0x00,0x00,0x00,0x00,0xf0,0xf1,0xc1,0xc7,0x07,
 0xfc,0x00,0xf0,0x03,0x00,0xe0,0xff,0xe0,0x07,0xc0,0x0f,0xe0,0x0f,0x00,0x00,
 0x00,0x00,0x00,0x00,0x00,0x00,0x00,0x00,0x00,0x00,0x00,0x00,0xf0,0xfb,0xc1,
 0xef,0x07,0xfc,0x00,0xf8,0x03,0x00,0xfe,0xff,0xe0,0x07,0xc0,0x0f,0xc0,0x0f,
 0x00,0x00,0x00,0x00,0x00,0x00,0x00,0x00,0x00,0x00,0x00,0x00,0x00,0x00,0xf0,
 0xfb,0x80,0xef,0x07,0xfc,0x00,0xfc,0x01,0xc0,0xff,0xff,0xe0,0x07,0xc0,0x0f,
 0xc0,0x0f,0x00,0x00,0x00,0x00,0x00,0x00,0x00,0x00,0x00,0x00,0x00,0x00,0x00,
 0x00,0xf0,0xfb,0x80,0xef,0x07,0xfc,0x00,0xfe,0x00,0xe0,0xff,0xfc,0xe0,0x07,
 0xc0,0x0f,0xc0,0x0f,0x00,0x00,0x00,0x00,0x00,0x00,0x00,0x00,0x00,0x00,0x00,
 0x00,0x00,0x00,0xe0,0xff,0x80,0xff,0x03,0xfc,0x00,0x7f,0x00,0xf0,0x0f,0xfc,
 0xe0,0x07,0xc0,0x0f,0xc0,0x0f,0x00,0x00,0x00,0x00,0x00,0x00,0x00,0x00,0x00,
 0x00,0x00,0x00,0x00,0x00,0xe0,0x7f,0x00,0xff,0x03,0xfc,0x00,0x3f,0x00,0xf8,
 0x03,0xfc,0xe0,0x07,0xc0,0x0f,0xe0,0x0f,0x00,0x00,0x00,0x00,0x00,0x00,0x00,
 0x00,0x00,0x00,0x00,0x00,0x00,0x00,0xe0,0x7f,0x00,0xff,0x03,0xfc,0x80,0x1f,
 0x00,0xf8,0x01,0xfc,0xe0,0x07,0xc0,0x1f,0xe0,0x0f,0x00,0x00,0x00,0x00,0x00,
 0x00,0x00,0x00,0x00,0x00,0x00,0x00,0x00,0x00,0xe0,0x7f,0x00,0xff,0x03,0xfc,
 0xc0,0x1f,0x00,0xf8,0x01,0xfe,0xe0,0x07,0x80,0x1f,0xe0,0x0f,0x00,0x00,0x00,
 0x00,0x00,0x00,0x00,0x00,0x00,0x00,0x00,0x00,0x00,0x00,0xc0,0x7f,0x00,0xff,
 0x01,0xfc,0xe0,0x0f,0x00,0xf8,0x01,0xfe,0xe0,0x07,0x80,0x3f,0xf0,0x0f,0x00,
 0x00,0x00,0x00,0x00,0x00,0x00,0x00,0x00,0x00,0x00,0x00,0x00,0x00,0xc0,0x3f,
 0x00,0xfe,0x01,0xfc,0xf0,0x07,0x00,0xf8,0x83,0xff,0xe1,0x07,0x00,0x7f,0xf8,
 0x0f,0x00,0x00,0x00,0x00,0x00,0x00,0x00,0x00,0x00,0x00,0x00,0x00,0x00,0x00,
 0xc0,0x3f,0x00,0xfe,0x01,0xfc,0xf8,0xff,0x7f,0xf0,0xff,0xff,0xe1,0x07,0x00,
 0xff,0xff,0x0f,0x00,0x00,0x00,0x00,0x00,0x00,0x00,0x00,0x00,0x00,0x00,0x00,
 0x00,0x00,0xc0,0x3f,0x00,0xfe,0x01,0xfc,0xf8,0xff,0xff,0xf0,0xff,0xf9,0xe1,
 0x07,0x00,0xfe,0xdf,0x0f,0x00,0x00,0x00,0x00,0x00,0x00,0x00,0x00,0x00,0x00,
 0x00,0x00,0x00,0x00,0x80,0x1f,0x00,0xfc,0x00,0xfc,0xf8,0xff,0xff,0xe0,0xff,
 0xf0,0xe1,0x07,0x00,0xfc,0xcf,0x0f,0x00,0x00,0x00,0x00,0x00,0x00,0x00,0x00,
 0x00,0x00,0x00,0x00,0x00,0x00,0x00,0x0f,0x00,0x78,0x00,0x78,0xf0,0xff,0x7f,
 0x80,0x3f,0xe0,0xc0,0x03,0x00,0xf0,0x83,0x07,0x00,0x00,0x00,0x00,0x00,0x00,
 0x00,0x00,0x00,0x00,0x00,0x00,0x00,0x00 };
