#define _width 256
#define _height 64
static char _bits[] = {
 0x00,0x00,0x00,0x00,0x00,0x00,0x00,0x00,0x00,0x00,0x00,0x00,0x00,0x00,0x00,
 0x00,0x00,0x00,0x00,0x00,0x00,0x00,0x00,0x00,0x00,0x00,0x00,0x00,0x00,0x00,
 0x00,0x00,0x00,0x00,0x00,0x00,0x00,0x00,0x00,0x00,0x00,0x00,0x00,0x00,0x00,
 0x00,0x00,0x00,0x00,0x00,0x00,0x00,0x00,0x00,0x00,0x00,0x00,0x00,0x00,0x00,
 0x00,0x00,0x00,0x00,0x00,0x00,0x00,0x00,0x00,0x00,0x00,0x00,0x00,0x00,0x00,
 0x00,0x00,0x00,0x00,0x00,0x00,0x00,0x00,0x00,0x00,0x00,0x00,0x00,0x00,0x00,
 0x00,0x00,0x00,0x00,0x00,0x00,0x00,0x00,0x00,0x00,0x00,0x00,0x00,0x00,0x00,
 0x00,0x00,0x00,0x00,0x00,0x00,0x00,0x00,0x00,0x00,0x00,0x00,0x00,0x00,0x00,
 0x00,0x00,0x00,0x00,0x00,0x00,0x00,0x00,0x00,0x00,0x00,0x00,0x00,0x00,0x00,
 0x00,0x00,0x00,0x00,0x00,0x00,0x00,0x00,0x00,0x00,0x00,0x00,0x00,0x00,0x00,
 0x00,0x00,0x00,0x00,0x00,0x00,0x00,0x00,0x00,0x00,0x00,0x00,0x00,0x00,0x00,
 0x00,0x00,0x00,0x00,0x00,0x00,0x00,0x00,0x00,0x00,0x00,0x00,0x00,0x00,0x00,
 0x00,0x00,0x00,0x00,0x00,0x00,0x00,0x00,0x00,0x00,0x00,0x00,0x00,0x00,0x00,
 0x00,0x00,0x00,0x00,0x00,0x00,0x00,0x00,0x00,0x00,0x00,0x00,0x00,0x00,0x00,
 0x00,0x00,0x00,0x00,0x00,0x00,0x00,0x00,0x00,0x00,0x00,0x00,0x00,0x00,0x00,
 0x00,0x00,0x00,0x00,0x00,0x00,0x00,0x00,0x00,0x00,0x00,0x00,0x00,0x00,0x00,
 0x00,0x00,0x00,0x00,0x00,0x00,0x00,0x00,0x00,0x00,0x00,0x00,0x00,0x00,0x00,
 0x00,0x00,0x00,0x00,0x00,0x00,0x00,0x00,0x00,0x00,0x00,0x00,0x00,0x00,0x00,
 0x00,0x00,0x00,0x00,0x00,0x00,0x00,0x00,0x00,0x00,0x00,0x00,0x00,0x00,0x00,
 0x00,0x00,0x00,0x00,0x00,0x00,0x00,0x00,0x00,0x00,0x00,0x00,0x00,0x00,0x00,
 0x00,0x00,0x00,0x00,0x00,0x00,0x00,0x00,0x00,0x00,0x00,0x00,0x00,0x00,0x00,
 0x00,0x00,0x00,0x00,0x00,0x00,0x00,0x00,0x00,0x00,0x00,0x00,0x00,0x00,0x00,
 0x00,0x00,0x00,0x00,0x00,0x00,0x00,0x00,0x00,0x00,0x00,0x00,0x00,0x00,0x00,
 0x00,0x00,0x00,0x00,0x00,0x00,0x00,0x00,0x00,0x00,0x00,0x00,0x00,0x00,0x00,
 0x00,0x00,0x00,0x00,0x00,0x00,0x00,0x00,0x00,0x00,0x00,0x00,0x00,0x00,0x00,
 0x00,0x00,0x00,0x00,0x00,0x00,0x00,0x00,0x00,0x00,0x00,0x00,0x00,0x00,0x00,
 0x00,0x00,0x00,0x00,0x00,0x00,0x00,0x00,0x00,0x00,0x00,0x00,0x00,0x00,0x00,
 0x00,0x00,0x00,0x00,0x00,0x00,0x00,0x00,0x00,0x00,0x00,0x00,0x00,0x00,0x00,
 0x00,0x00,0x00,0x00,0x00,0x00,0x00,0x00,0x00,0x00,0x00,0x00,0x00,0x00,0x00,
 0x00,0x00,0x00,0x00,0x00,0x00,0x00,0x00,0x00,0x00,0x00,0x00,0x00,0x00,0x00,
 0x00,0x00,0x00,0x00,0x00,0x00,0x00,0x00,0x00,0x00,0x00,0x00,0x00,0x00,0x00,
 0x00,0x00,0x00,0x00,0x00,0x00,0x00,0x00,0x00,0x00,0x00,0x00,0x00,0x00,0x00,
 0x00,0x00,0x00,0x00,0x00,0x00,0x00,0x00,0x00,0x00,0x00,0x00,0x00,0x00,0x00,
 0x00,0x00,0x00,0x00,0x00,0x00,0x00,0x00,0x00,0x00,0x00,0x00,0x00,0x00,0x00,
 0x00,0x00,0x00,0x00,0x00,0x00,0x00,0x00,0x00,0x00,0x00,0x00,0x00,0x00,0x00,
 0x00,0x00,0x00,0x00,0x00,0x00,0x00,0x00,0x00,0x00,0x00,0x00,0x00,0x00,0x00,
 0x00,0x00,0x00,0x00,0x00,0x00,0x00,0x00,0x00,0x00,0x00,0x00,0x00,0x00,0x00,
 0x00,0x00,0x00,0x00,0x00,0x00,0x00,0x00,0x00,0x00,0x00,0x00,0x00,0x00,0x00,
 0x00,0x00,0x00,0x00,0x00,0x00,0xf8,0x07,0x00,0x00,0x00,0x00,0x00,0x00,0x00,
 0x00,0x00,0x00,0x00,0x00,0x00,0x00,0xff,0xff,0x01,0x00,0x00,0x00,0x00,0x00,
 0x00,0x00,0x00,0x00,0x00,0x00,0x00,0x00,0xf8,0x07,0x00,0x00,0x00,0x00,0x00,
 0x00,0x00,0x00,0x00,0x00,0x00,0x00,0x00,0x00,0xff,0xff,0x07,0x00,0x00,0x00,
 0x00,0x00,0x00,0x00,0x00,0x00,0x00,0x00,0x00,0x00,0xf8,0x07,0x00,0x00,0x00,
 0x00,0x00,0x00,0x00,0x00,0x00,0x00,0x00,0x00,0x00,0x00,0xff,0xff,0x0f,0x00,
 0x00,0x00,0x00,0x00,0x00,0x00,0x00,0x00,0x00,0x00,0x00,0x00,0xf8,0x07,0x00,
 0x00,0x00,0x00,0x00,0x00,0x00,0x00,0x00,0x00,0x00,0x00,0x00,0x00,0xff,0xff,
 0x1f,0x00,0x00,0x00,0x00,0x00,0x00,0x00,0x00,0x00,0x00,0x00,0x00,0x00,0xf8,
 0x07,0x00,0x00,0x00,0x00,0x00,0x00,0x00,0x00,0x00,0x00,0x00,0x00,0x00,0x00,
 0xff,0xff,0x3f,0x00,0x00,0x00,0x00,0x00,0x00,0x00,0x00,0x00,0x00,0x00,0x00,
 0x00,0xf8,0x07,0x00,0x00,0x00,0x00,0x00,0x00,0x00,0x00,0x00,0x00,0x00,0x00,
 0x00,0x00,0xff,0xff,0x3f,0x00,0x00,0x00,0x00,0x00,0x00,0x00,0x00,0x00,0x00,
 0x00,0x00,0x00,0xf8,0x07,0x00,0x00,0x00,0x00,0x00,0x00,0x00,0x00,0x00,0x00,
 0x00,0x00,0x00,0x00,0xff,0xff,0x7f,0x00,0x00,0x00,0x00,0x00,0x00,0x00,0x00,
 0x00,0x00,0x00,0x00,0x00,0xf8,0x07,0x00,0x00,0x00,0x00,0x00,0x00,0x00,0x00,
 0x00,0x00,0x00,0x00,0x00,0x00,0xff,0xe0,0x7f,0x00,0x00,0x00,0x00,0x00,0x00,
 0x00,0x00,0x00,0x00,0x00,0x00,0x00,0xf8,0x07,0x00,0x00,0x00,0x00,0xc0,0xe1,
 0x07,0x80,0x3f,0x0e,0x00,0x07,0x00,0x00,0xff,0xc0,0x7f,0x00,0x7f,0x00,0xc0,
 0x03,0xe0,0x07,0x00,0x00,0x00,0x00,0x7f,0x00,0xf8,0x07,0x00,0xfe,0x81,0x3f,
 0xfc,0xf9,0x0f,0xe0,0x7f,0x7f,0xf0,0xc7,0x03,0x00,0xff,0x80,0x7f,0xc0,0xff,
 0x01,0xf0,0x03,0xf8,0x3f,0xfe,0x81,0x3f,0xc0,0xff,0x01,0xf8,0x07,0x00,0xfe,
 0x81,0x3f,0xfc,0xfd,0x1f,0xf0,0xff,0x7f,0xf0,0xf7,0x03,0x00,0xff,0x80,0x7f,
 0xf0,0xff,0x03,0xfc,0x07,0xfe,0x3f,0xfe,0x81,0x3f,0xf0,0xff,0x03,0xf8,0x07,
 0x00,0xfe,0x81,0x3f,0xfc,0xff,0x3f,0xf8,0xff,0x7f,0xf0,0xff,0x03,0x00,0xff,
 0x80,0x7f,0xf8,0xff,0x07,0xfe,0x07,0xff,0x3f,0xfe,0x81,0x3f,0xf8,0xff,0x07,
 0xf8,0x07,0x00,0xfe,0x81,0x3f,0xfc,0xff,0x3f,0xfc,0xff,0x7f,0xf0,0xff,0x03,
 0x00,0xff,0x80,0x7f,0xf8,0xff,0x0f,0xfe,0x0f,0xff,0x1f,0xfe,0x81,0x3f,0xf8,
 0xff,0x0f,0xf8,0x07,0x00,0xfe,0x81,0x3f,0xfc,0xff,0x3f,0xfc,0xff,0x7f,0xf0,
 0xff,0x03,0x00,0xff,0xc0,0x3f,0xfc,0xf1,0x0f,0xff,0x81,0xff,0x1f,0xfe,0x81,
 0x3f,0xfc,0xf1,0x0f,0xf8,0x07,0x00,0xfe,0x81,0x3f,0xfc,0xff,0x3f,0xfc,0xff,
 0x7f,0xf0,0xff,0x03,0x00,0xff,0xff,0x3f,0xfc,0xe0,0x0f,0xff,0x80,0xff,0x1f,
 0xfe,0x81,0x3f,0xfc,0xe0,0x0f,0xf8,0x07,0x00,0xfe,0x81,0x3f,0xfc,0xc7,0x3f,
 0xfe,0xc3,0x7f,0xf0,0xff,0x03,0x00,0xff,0xff,0x1f,0xfe,0xe0,0x1f,0xff,0xc0,
 0x7f,0x08,0xfe,0x81,0x3f,0xfe,0xe0,0x1f,0xf8,0x07,0x00,0xfe,0x81,0x3f,0xfc,
 0x81,0x3f,0xfe,0x81,0x7f,0xf0,0x0f,0x00,0x00,0xff,0xff,0x0f,0xfe,0xf8,0x1f,
 0xff,0xc1,0x3f,0x00,0xfe,0x81,0x3f,0xfe,0xf8,0x1f,0xf8,0x07,0x00,0xfe,0x81,
 0x3f,0xfc,0x81,0x3f,0xfe,0x00,0x7f,0xf0,0x07,0x00,0x00,0xff,0xff,0x07,0xfe,
 0xff,0x1f,0xfe,0xc3,0x3f,0x00,0xfe,0x81,0x3f,0xfe,0xff,0x1f,0xf8,0x07,0x00,
 0xfe,0x81,0x3f,0xfc,0x81,0x3f,0xfe,0x00,0x7f,0xf0,0x07,0x00,0x00,0xff,0xff,
 0x07,0xfe,0xff,0x1f,0xfc,0xc7,0x3f,0x00,0xfe,0x81,0x3f,0xfe,0xff,0x1f,0xf8,
 0x07,0x00,0xfe,0x81,0x3f,0xfc,0x81,0x3f,0xfe,0x00,0x7f,0xf0,0x07,0x00,0x00,
 0xff,0xf8,0x0f,0xfe,0xff,0x1f,0xf8,0xc7,0x3f,0x00,0xfe,0x81,0x3f,0xfe,0xff,
 0x1f,0xf8,0x07,0x00,0xfe,0x81,0x3f,0xfc,0x81,0x3f,0xfe,0x81,0x7f,0xf0,0x07,
 0x00,0x00,0xff,0xf0,0x0f,0xfe,0x3f,0x00,0xf0,0xcf,0x7f,0x00,0xfe,0x81,0x3f,
 0xfe,0x3f,0x00,0xf8,0x07,0x00,0xfe,0xc3,0x3f,0xfc,0x81,0x3f,0xfe,0xc3,0x7f,
 0xf0,0x07,0x00,0x00,0xff,0xf0,0x1f,0xfe,0x00,0x00,0xf0,0xcf,0xff,0x00,0xfe,
 0xc3,0x3f,0xfe,0x00,0x00,0xf8,0xff,0x7f,0xfe,0xff,0x3f,0xfc,0x81,0x3f,0xfc,
 0xff,0x7f,0xf0,0x07,0x00,0x00,0xff,0xf0,0x1f,0xfc,0x01,0x03,0xf0,0x8f,0xff,
 0x1f,0xfe,0xff,0x3f,0xfc,0x01,0x03,0xf8,0xff,0x7f,0xfe,0xff,0x3f,0xfc,0x81,
 0x3f,0xfc,0xff,0x7f,0xf0,0x07,0x00,0x00,0xff,0xe0,0x3f,0xfc,0x83,0x03,0xfc,
 0x8f,0xff,0x1f,0xfe,0xff,0x3f,0xfc,0x83,0x03,0xf8,0xff,0x7f,0xfc,0xff,0x3f,
 0xfc,0x81,0x3f,0xf8,0xff,0x7f,0xf0,0x07,0x00,0x00,0xff,0xe0,0x3f,0xf8,0xff,
 0x87,0xff,0x07,0xff,0x3f,0xfc,0xff,0x3f,0xf8,0xff,0x07,0xf8,0xff,0x7f,0xfc,
 0xff,0x3f,0xfc,0x81,0x3f,0xf8,0xff,0x7f,0xf0,0x07,0x00,0x00,0xff,0xc0,0x7f,
 0xf8,0xff,0x0f,0xff,0x07,0xff,0x3f,0xfc,0xff,0x3f,0xf8,0xff,0x0f,0xf8,0xff,
 0x7f,0xfc,0xbf,0x3f,0xfc,0x81,0x3f,0xf0,0x7f,0x7f,0xf0,0x07,0x00,0x00,0xff,
 0xc0,0x7f,0xf0,0xff,0x0f,0xff,0x03,0xfe,0x3f,0xfc,0xbf,0x3f,0xf0,0xff,0x0f,
 0xf8,0xff,0x3f,0xf8,0x9f,0x3f,0xfc,0x81,0x3f,0xe0,0x3f,0x7f,0xf0,0x07,0x00,
 0x00,0xff,0x80,0x7f,0xc0,0xff,0x03,0xfe,0x00,0xf8,0x3f,0xf8,0x9f,0x3f,0xc0,
 0xff,0x03,0xf8,0xff,0x3f,0xe0,0x87,0x3f,0xfc,0x81,0x3f,0x80,0x1f,0x7f,0xf0,
 0x07,0x00,0x00,0xff,0x80,0xff,0x00,0xff,0x00,0x1e,0x00,0xe0,0x0f,0xe0,0x87,
 0x3f,0x00,0xff,0x00,0x00,0x00,0x00,0x00,0x00,0x00,0x00,0x00,0x00,0x00,0x00,
 0x00,0x00,0x00,0x00,0x00,0x00,0x00,0x00,0x00,0x00,0x00,0x00,0x00,0x00,0x00,
 0x00,0x00,0x00,0x00,0x00,0x00,0x00,0x00,0x00,0x00,0x00,0x00,0x00,0x00,0x00,
 0x00,0x00,0x00,0x00,0x00,0x00,0x00,0x00,0x00,0x00,0x00,0x00,0x00,0x00,0x00,
 0x00,0x00,0x00,0x00,0x00,0x00,0x00,0x00,0x00,0x00,0x00,0x00,0x00,0x00,0x00,
 0x00,0x00,0x00,0x00,0x00,0x00,0x00,0x00,0x00,0x00,0x00,0x00,0x00,0x00,0x00,
 0x00,0x00,0x00,0x00,0x00,0x00,0x00,0x00,0x00,0x00,0x00,0x00,0x00,0x00,0x00,
 0x00,0x00,0x00,0x00,0x00,0x00,0x00,0x00,0x00,0x00,0x00,0x00,0x00,0x00,0x00,
 0x00,0x00,0x00,0x00,0x00,0x00,0x00,0x00,0x00,0x00,0x00,0x00,0x00,0x00,0x00,
 0x00,0x00,0x00,0x00,0x00,0x00,0x00,0x00,0x00,0x00,0x00,0x00,0x00,0x00,0x00,
 0x00,0x00,0x00,0x00,0x00,0x00,0x00,0x00,0x00,0x00,0x00,0x00,0x00,0x00,0x00,
 0x00,0x00,0x00,0x00,0x00,0x00,0x00,0x00,0x00,0x00,0x00,0x00,0x00,0x00,0x00,
 0x00,0x00,0x00,0x00,0x00,0x00,0x00,0x00,0x00,0x00,0x00,0x00,0x00,0x00,0x00,
 0x00,0x00,0x00,0x00,0x00,0x00,0x00,0x00,0x00,0x00,0x00,0x00,0x00,0x00,0x00,
 0x00,0x00,0x00,0x00,0x00,0x00,0x00,0x00,0x00,0x00,0x00,0x00,0x00,0x00,0x00,
 0x00,0x00,0x00,0x00,0x00,0x00,0x00,0x00,0x00,0x00,0x00,0x00,0x00,0x00,0x00,
 0x00,0x00,0x00,0x00,0x00,0x00,0x00,0x00,0x00,0x00,0x00,0x00,0x00,0x00,0x00,
 0x00,0x00,0x00,0x00,0x00,0x00,0x00,0x00,0x00,0x00,0x00,0x00,0x00,0x00,0x00,
 0x00,0x00,0x00,0x00,0x00,0x00,0x00,0x00,0x00,0x00,0x00,0x00,0x00,0x00,0x00,
 0x00,0x00,0x00,0x00,0x00,0x00,0x00,0x00,0x00,0x00,0x00,0x00,0x00,0x00,0x00,
 0x00,0x00,0x00,0x00,0x00,0x00,0x00,0x00,0x00,0x00,0x00,0x00,0x00,0x00,0x00,
 0x00,0x00,0x00,0x00,0x00,0x00,0x00,0x00,0x00,0x00,0x00,0x00,0x00,0x00,0x00,
 0x00,0x00,0x00,0x00,0x00,0x00,0x00,0x00,0x00,0x00,0x00,0x00,0x00,0x00,0x00,
 0x00,0x00,0x00,0x00,0x00,0x00,0x00,0x00,0x00,0x00,0x00,0x00,0x00,0x00,0x00,
 0x00,0x00,0x00,0x00,0x00,0x00,0x00,0x00,0x00,0x00,0x00,0x00,0x00,0x00,0x00,
 0x00,0x00,0x00,0x00,0x00,0x00,0x00,0x00,0x00,0x00,0x00,0x00,0x00,0x00,0x00,
 0x00,0x00,0x00,0x00,0x00,0x00,0x00,0x00,0x00,0x00,0x00,0x00,0x00,0x00,0x00,
 0x00,0x00,0x00,0x00,0x00,0x00,0x00,0x00,0x00,0x00,0x00,0x00,0x00,0x00,0x00,
 0x00,0x00,0x00,0x00,0x00,0x00,0x00,0x00,0x00,0x00,0x00,0x00,0x00,0x00,0x00,
 0x00,0x00,0x00,0x00,0x00,0x00,0x00,0x00,0x00,0x00,0x00,0x00,0x00,0x00,0x00,
 0x00,0x00,0x00,0x00,0x00,0x00,0x00,0x00,0x00,0x00,0x00,0x00,0x00,0x00,0x00,
 0x00,0x00,0x00,0x00,0x00,0x00,0x00,0x00,0x00,0x00,0x00,0x00,0x00,0x00,0x00,
 0x00,0x00,0x00,0x00,0x00,0x00,0x00,0x00,0x00,0x00,0x00,0x00,0x00,0x00,0x00,
 0x00,0x00,0x00,0x00,0x00,0x00,0x00,0x00,0x00,0x00,0x00,0x00,0x00,0x00,0x00,
 0x00,0x00,0x00,0x00,0x00,0x00,0x00,0x00,0x00,0x00,0x00,0x00,0x00,0x00,0x00,
 0x00,0x00,0x00,0x00,0x00,0x00,0x00,0x00,0x00,0x00,0x00,0x00,0x00,0x00,0x00,
 0x00,0x00,0x00,0x00,0x00,0x00,0x00,0x00 };
