#define _width 256
#define _height 64
static char _bits[] = {
 0x00,0x00,0x00,0x00,0x00,0x00,0x00,0x00,0x00,0x00,0x00,0x00,0x00,0x00,0x00,
 0x00,0x00,0x00,0x00,0x00,0x00,0x00,0x00,0x00,0x00,0x00,0x00,0x00,0x00,0x00,
 0x00,0x00,0x00,0x00,0x00,0x00,0x00,0x00,0x00,0x00,0x00,0x00,0x00,0x00,0x00,
 0x00,0x00,0x00,0x00,0x00,0x00,0x00,0x00,0x00,0x00,0x00,0x00,0x00,0x00,0x00,
 0x00,0x00,0x00,0x00,0x00,0x00,0x00,0xfe,0x3f,0x0e,0x00,0x00,0x00,0x00,0x0f,
 0x00,0x70,0x00,0x00,0x00,0x00,0x00,0x38,0x00,0x00,0x00,0x00,0x00,0x00,0x00,
 0x00,0x00,0xf8,0x00,0x00,0x00,0x00,0x00,0x00,0xff,0x7f,0x0e,0x00,0x00,0x00,
 0x00,0x0f,0x00,0x70,0x00,0x00,0x00,0x00,0x00,0x38,0x00,0x00,0x00,0x00,0x00,
 0x00,0x00,0x00,0x00,0xfc,0x01,0x00,0x00,0x00,0x00,0x00,0xfe,0x3f,0x0e,0x00,
 0x00,0x00,0x80,0x1f,0x00,0x70,0x00,0x00,0x00,0x00,0x00,0x38,0x00,0x00,0x00,
 0x00,0x00,0x00,0x00,0x00,0x00,0x1c,0x00,0x00,0x00,0x00,0x00,0x00,0xc0,0x01,
 0x0e,0x00,0x00,0x00,0x80,0x1f,0x00,0x70,0x00,0x00,0x00,0x00,0x00,0x38,0x00,
 0x00,0x00,0x00,0x00,0x00,0x00,0x00,0x00,0x1c,0x00,0x00,0x00,0x00,0x00,0x00,
 0xc0,0x01,0x0e,0x00,0x00,0x00,0xc0,0x3d,0x00,0x70,0x00,0x00,0x00,0x00,0x00,
 0x38,0x00,0x00,0x00,0x00,0x00,0x00,0x00,0x00,0x00,0x1c,0x00,0x00,0x00,0x00,
 0x00,0x00,0xc0,0x01,0xee,0x03,0x7e,0x00,0xc0,0x39,0xc0,0x73,0x06,0x0c,0x7e,
 0xe0,0x3e,0xfe,0x38,0x38,0xee,0xe1,0x07,0xfc,0x00,0x80,0x0f,0x7f,0x00,0x00,
 0x00,0x00,0x00,0x00,0xc0,0x01,0xfe,0x07,0xff,0x00,0xc0,0x39,0xf0,0x7f,0x0e,
 0x0e,0xff,0xe0,0x7f,0xfe,0x39,0x38,0xfe,0xf3,0x0f,0xfe,0x03,0xe0,0x3f,0xff,
 0x00,0x00,0x00,0x00,0x00,0x00,0xc0,0x01,0x1e,0x8f,0xc3,0x01,0xe0,0x78,0x70,
 0x7c,0x0e,0x8e,0xc3,0xe1,0xf1,0x38,0x38,0x38,0x1e,0x38,0x1c,0x87,0x03,0xf0,
 0x78,0x1c,0x00,0x00,0x00,0x00,0x00,0x00,0xc0,0x01,0x0e,0xce,0xc1,0x03,0xe0,
 0x70,0x78,0x78,0x1c,0xc7,0xc1,0xe3,0xe0,0x38,0x38,0x38,0x0e,0x1c,0x3c,0x07,
 0x03,0x78,0xf0,0x1c,0x00,0x00,0x00,0x00,0x00,0x00,0xc0,0x01,0x0e,0xce,0x81,
 0x03,0xf0,0xf0,0x38,0x70,0x1c,0xc7,0x81,0xe3,0xe0,0x38,0x38,0x38,0x0e,0x1c,
 0x38,0x1f,0x00,0x38,0xe0,0x1c,0x00,0x00,0x00,0x00,0x00,0x00,0xc0,0x01,0x0e,
 0xce,0xff,0x03,0xf0,0xf0,0x38,0x70,0x18,0xc3,0xff,0xe3,0xe0,0x38,0x38,0x38,
 0x0e,0xfc,0x3f,0xfe,0x01,0x38,0xe0,0x1c,0x00,0x00,0x00,0x00,0x00,0x00,0xc0,
 0x01,0x0e,0xce,0xff,0x01,0xf8,0xff,0x39,0x70,0xb8,0xc3,0xff,0xe1,0xe0,0x38,
 0x38,0x38,0x0e,0xfc,0x1f,0xf8,0x03,0x38,0xe0,0x1c,0x00,0x00,0x00,0x00,0x00,
 0x00,0xc0,0x01,0x0e,0xce,0x01,0x00,0xf8,0xff,0x39,0x70,0xb8,0xc3,0x01,0xe0,
 0xe0,0x38,0x38,0x38,0x0e,0x1c,0x00,0x80,0x07,0x38,0xe0,0x1c,0x00,0x00,0x00,
 0x00,0x00,0x00,0xc0,0x01,0x0e,0xce,0x01,0x03,0x38,0xc0,0x79,0x78,0xb0,0xc1,
 0x01,0xe3,0xe0,0x38,0x38,0x38,0x0e,0x1c,0x30,0x07,0x07,0x78,0xf0,0x1c,0x00,
 0x00,0x00,0x00,0x00,0x00,0xc0,0x01,0x0e,0x8e,0xc3,0x03,0x3c,0xc0,0x73,0x7c,
 0xf0,0x81,0xc3,0xe3,0xe0,0x38,0x78,0x3c,0x0e,0x38,0x3c,0x0f,0x07,0xf0,0x78,
 0x1c,0x00,0x00,0x00,0x00,0x00,0x00,0xc0,0x01,0x0e,0x0e,0xff,0x01,0x1c,0x80,
 0xe3,0x7f,0xe0,0x00,0xff,0xe1,0xe0,0xf8,0xf3,0x3f,0x0e,0xf0,0x1f,0xfe,0x03,
 0xe0,0x3f,0x1c,0x00,0x00,0x00,0x00,0x00,0x00,0xc0,0x01,0x0e,0x0e,0x7e,0x00,
 0x1c,0x80,0xc3,0x73,0xe0,0x00,0x7e,0xe0,0xe0,0xf0,0xe1,0x39,0x0e,0xe0,0x07,
 0xfc,0x01,0x80,0x0f,0x1c,0x00,0x00,0x00,0x00,0x00,0x00,0x00,0x00,0x00,0x00,
 0x00,0x00,0x00,0x00,0x00,0x00,0x00,0x00,0x00,0x00,0x00,0x00,0x00,0x00,0x00,
 0x00,0x00,0x00,0x00,0x00,0x00,0x00,0x00,0x00,0x00,0x00,0x00,0x00,0x00,0x00,
 0x00,0x00,0x00,0x00,0x00,0x00,0x00,0x00,0x00,0x00,0x00,0x00,0x00,0x00,0x00,
 0x00,0x00,0x00,0x00,0x00,0x00,0x00,0x00,0x00,0x00,0x00,0x00,0x00,0x00,0x00,
 0x00,0x00,0x00,0x00,0x3c,0x00,0x00,0xe0,0x01,0x00,0x00,0x00,0x00,0x00,0x00,
 0x00,0x00,0x00,0x00,0x00,0x00,0x00,0x00,0x00,0x00,0x00,0x00,0x00,0x78,0xfe,
 0xff,0x07,0x00,0x00,0x00,0x00,0x7e,0x00,0x00,0xf0,0x03,0x00,0x00,0x00,0x00,
 0x00,0x00,0xc0,0xff,0xff,0x00,0x00,0x00,0x00,0x00,0x0f,0x00,0x00,0x00,0x00,
 0x78,0xff,0xff,0x1f,0x00,0x00,0x00,0x00,0x7e,0x00,0x00,0xf0,0x03,0x00,0x00,
 0x00,0x00,0x00,0x00,0xe0,0xff,0xff,0x03,0x00,0x00,0x00,0x80,0x1f,0x00,0x00,
 0x00,0x00,0xfc,0xff,0xff,0x7f,0x00,0x00,0x00,0x00,0x7e,0x00,0x00,0xf0,0x03,
 0x00,0x00,0x00,0x00,0x00,0x00,0xe0,0xff,0xff,0x0f,0x00,0x00,0x00,0x80,0x1f,
 0x00,0x00,0x00,0x00,0xfc,0xff,0xff,0x7f,0x00,0x00,0x00,0x00,0x7e,0x00,0x00,
 0xf0,0x03,0x00,0x00,0x00,0x00,0x00,0x00,0xe0,0xff,0xff,0x0f,0x00,0x00,0x00,
 0x80,0x1f,0x00,0x00,0x00,0x00,0xfc,0xff,0xff,0xff,0x00,0x00,0x00,0x00,0x7e,
 0x00,0x00,0xf0,0x03,0x00,0x00,0x00,0x00,0x00,0x00,0xe0,0xff,0xff,0x1f,0x00,
 0x00,0x00,0x80,0x1f,0x00,0x00,0x00,0x00,0xfc,0x3f,0x00,0xff,0x00,0x00,0x00,
 0x00,0x7e,0x00,0x00,0xf0,0x03,0x00,0x00,0x00,0x00,0x00,0x00,0xe0,0x07,0xe0,
 0x1f,0x00,0x00,0x00,0x80,0x1f,0x00,0x00,0x00,0x00,0xfc,0x3f,0x00,0xfc,0x01,
 0x00,0x00,0x00,0x7e,0x00,0x00,0xf0,0x03,0x00,0x00,0x00,0x00,0x00,0x00,0xe0,
 0x07,0x80,0x3f,0x00,0x00,0x00,0x80,0x1f,0x00,0x00,0x00,0x00,0xfc,0x3f,0x00,
 0xf8,0x01,0x00,0x00,0x00,0x7e,0x00,0x00,0xf0,0x03,0x00,0x00,0x00,0x00,0x00,
 0x00,0xe0,0x07,0x00,0x3f,0x00,0x00,0x00,0x80,0x1f,0x00,0x00,0x00,0x00,0xfc,
 0x3f,0x00,0xf8,0x01,0xe0,0x1f,0x00,0x7e,0xf8,0x03,0xf0,0xc3,0x1f,0x80,0x07,
 0x00,0x07,0x00,0xe0,0x07,0x00,0x3f,0x00,0xfc,0x03,0x80,0x1f,0x00,0xe0,0x1f,
 0x00,0xfc,0x3f,0x00,0xf8,0x01,0xf8,0x7f,0x00,0x7e,0xfe,0x0f,0xf0,0xf3,0x7f,
 0xc0,0x07,0x80,0x0f,0x00,0xe0,0x07,0x00,0x3f,0x00,0xff,0x0f,0xf0,0xff,0x01,
 0xf8,0x7f,0x00,0xfc,0x3f,0x00,0xf8,0x01,0xfe,0xff,0x01,0x7e,0xff,0x1f,0xf0,
 0xfb,0xff,0xc0,0x0f,0x80,0x0f,0x00,0xe0,0x07,0x00,0x3f,0xc0,0xff,0x3f,0xf0,
 0xff,0x03,0xfe,0xff,0x01,0xfc,0x3f,0x00,0xf8,0x01,0xff,0xff,0x03,0xfe,0xff,
 0x3f,0xf0,0xff,0xff,0xc1,0x0f,0xc0,0x0f,0x00,0xe0,0x07,0x00,0x3f,0xe0,0xff,
 0x7f,0xf0,0xff,0x03,0xff,0xff,0x03,0xfc,0x3f,0x00,0xfc,0x80,0x7f,0xf8,0x07,
 0xfe,0x87,0x3f,0xf0,0x3f,0xfc,0xc1,0x0f,0xc0,0x0f,0x00,0xe0,0x07,0x80,0x1f,
 0xf0,0x0f,0xff,0xf0,0xff,0x81,0x7f,0xf8,0x07,0x7c,0x3f,0x00,0xff,0x80,0x1f,
 0xe0,0x07,0xfe,0x01,0x7f,0xf0,0x0f,0xf8,0x83,0x1f,0xe0,0x07,0x00,0xe0,0x07,
 0xe0,0x1f,0xf0,0x03,0xfc,0x80,0x1f,0x80,0x1f,0xe0,0x07,0x78,0xff,0xff,0x7f,
 0xc0,0x0f,0xc0,0x0f,0xfe,0x01,0x7e,0xf0,0x0f,0xf0,0x83,0x1f,0xe0,0x07,0x00,
 0xe0,0xff,0xff,0x0f,0xf8,0x01,0xf8,0x81,0x1f,0xc0,0x0f,0xc0,0x0f,0x78,0xff,
 0xff,0x3f,0xc0,0x0f,0xc0,0x0f,0xfe,0x00,0xfe,0xf0,0x07,0xf0,0x07,0x3f,0xe0,
 0x03,0x00,0xe0,0xff,0xff,0x07,0xf8,0x01,0xf8,0x81,0x1f,0xc0,0x0f,0xc0,0x0f,
 0x78,0xff,0xff,0x0f,0xe0,0x07,0x80,0x1f,0xfe,0x00,0xfc,0xf0,0x07,0xe0,0x07,
 0x3f,0xf0,0x03,0x00,0xe0,0xff,0xff,0x01,0xfc,0x00,0xf0,0x83,0x1f,0xe0,0x07,
 0x80,0x1f,0x78,0xff,0xff,0x03,0xe0,0x07,0x80,0x1f,0xfe,0x00,0xfc,0xf0,0x07,
 0xe0,0x07,0x3f,0xf0,0x03,0x00,0xe0,0xff,0x7f,0x00,0xfc,0x00,0xf0,0x83,0x1f,
 0xe0,0x07,0x80,0x1f,0x78,0x3f,0xf8,0x07,0xe0,0x07,0x80,0x1f,0x7e,0x00,0xfc,
 0xf0,0x03,0xe0,0x07,0x7e,0xf0,0x01,0x00,0xe0,0x07,0xff,0x00,0xfc,0x00,0xf0,
 0x83,0x1f,0xe0,0x07,0x80,0x1f,0x78,0x3f,0xe0,0x0f,0xe0,0x07,0x80,0x1f,0x7e,
 0x00,0xfc,0xf0,0x03,0xe0,0x07,0x7e,0xf8,0x01,0x00,0xe0,0x07,0xfc,0x01,0xfc,
 0x00,0xf0,0x83,0x1f,0xe0,0x07,0x80,0x1f,0x78,0x3f,0xc0,0x1f,0xe0,0x07,0x80,
 0x1f,0x7e,0x00,0xfc,0xf0,0x03,0xe0,0x07,0x7c,0xf8,0x00,0x00,0xe0,0x07,0xf8,
 0x03,0xfc,0x00,0xf0,0x83,0x1f,0xe0,0x07,0x80,0x1f,0x78,0x3f,0xc0,0x3f,0xe0,
 0x07,0x80,0x1f,0x7e,0x00,0xfc,0xf0,0x03,0xe0,0x07,0xfc,0xf8,0x00,0x00,0xe0,
 0x07,0xf8,0x07,0xfc,0x00,0xf0,0x83,0x1f,0xe0,0x07,0x80,0x1f,0x30,0x3f,0x80,
 0x3f,0xe0,0x07,0x80,0x1f,0x7e,0x00,0xfc,0xf0,0x03,0xe0,0x07,0xfc,0xfc,0x00,
 0x00,0xe0,0x07,0xf0,0x07,0xfc,0x00,0xf0,0x83,0x1f,0xe0,0x07,0x80,0x1f,0x00,
 0x3f,0x00,0x7f,0xe0,0x07,0x80,0x1f,0xfe,0x00,0xfc,0xf0,0x07,0xe0,0x07,0xf8,
 0x7c,0x00,0x00,0xe0,0x07,0xe0,0x0f,0xfc,0x00,0xf0,0x83,0x1f,0xe0,0x07,0x80,
 0x1f,0x00,0x3f,0x00,0xff,0xc0,0x0f,0xc0,0x0f,0xfe,0x00,0x7e,0xf0,0x07,0xf0,
 0x03,0xf8,0x7d,0x00,0x00,0xe0,0x07,0xe0,0x1f,0xf8,0x01,0xf8,0x81,0x1f,0xc0,
 0x0f,0xc0,0x0f,0x00,0x3f,0x00,0xfe,0xc0,0x0f,0xc0,0x0f,0xfe,0x00,0x7e,0xf0,
 0x07,0xf0,0x03,0xf0,0x7f,0x00,0x00,0xe0,0x07,0xc0,0x1f,0xf8,0x01,0xf8,0x81,
 0x1f,0xc0,0x0f,0xc0,0x0f,0x00,0x3f,0x00,0xfe,0x81,0x1f,0xe0,0x07,0xfe,0x01,
 0x7f,0xf0,0x0f,0xf8,0x03,0xf0,0x3f,0x00,0x00,0xe0,0x07,0xc0,0x3f,0xf0,0x03,
 0xfc,0x80,0x1f,0x80,0x1f,0xe0,0x07,0x78,0x3f,0x00,0xfc,0x81,0x7f,0xf8,0x07,
 0xfe,0x87,0x3f,0xf0,0x3f,0xfc,0x01,0xf0,0x3f,0x00,0x00,0xe0,0x07,0x80,0x3f,
 0xf0,0x0f,0xff,0x80,0x3f,0x80,0x7f,0xf8,0x07,0xfc,0x3f,0x00,0xf8,0x01,0xff,
 0xff,0x03,0xfe,0xff,0x1f,0xf0,0xff,0xff,0x00,0xe0,0x1f,0x00,0x00,0xe0,0x07,
 0x00,0x3f,0xe0,0xff,0x7f,0x80,0xff,0x07,0xff,0xff,0x03,0xfc,0x3f,0x00,0xf8,
 0x03,0xfe,0xff,0x01,0x7e,0xff,0x1f,0xf0,0xfb,0xff,0x00,0xe0,0x1f,0x00,0x00,
 0xe0,0x07,0x00,0x7f,0xc0,0xff,0x3f,0x00,0xff,0x0f,0xfe,0xff,0x01,0xfc,0x3f,
 0x00,0xf0,0x01,0xf8,0x7f,0x00,0x7e,0xfe,0x07,0xf0,0xf3,0x3f,0x00,0xe0,0x1f,
 0x00,0x00,0xe0,0x07,0x00,0x3e,0x00,0xff,0x0f,0x00,0xfe,0x07,0xf8,0x7f,0x00,
 0xfc,0x1e,0x00,0xe0,0x00,0xe0,0x1f,0x00,0x3c,0xf8,0x01,0xe0,0xc1,0x0f,0x00,
 0xc0,0x0f,0x00,0x00,0xc0,0x03,0x00,0x1c,0x00,0xfc,0x03,0x00,0xfc,0x03,0xe0,
 0x1f,0x00,0x78,0x00,0x00,0x00,0x00,0x00,0x00,0x00,0x00,0x00,0x00,0x00,0x00,
 0x00,0x00,0xc0,0x0f,0x00,0x00,0x00,0x00,0x00,0x00,0x00,0x00,0x00,0x00,0x00,
 0x00,0x00,0x00,0x00,0x00,0x00,0x00,0x00,0x00,0x00,0x00,0x00,0x00,0x00,0x00,
 0x00,0x00,0x00,0x00,0xe0,0x07,0x00,0x00,0x00,0x00,0x00,0x00,0x00,0x00,0x00,
 0x00,0x00,0x00,0x00,0x00,0x00,0x00,0x00,0x00,0x00,0x00,0x00,0x00,0x00,0x00,
 0x00,0x00,0x00,0x00,0x00,0x00,0xe0,0x07,0x00,0x00,0x00,0x00,0x00,0x00,0x00,
 0x00,0x00,0x00,0x00,0x00,0x00,0x00,0x00,0x00,0x00,0x00,0x00,0x00,0x00,0x00,
 0x00,0x00,0x00,0x00,0x00,0x00,0x00,0x00,0xe0,0x07,0x00,0x00,0x00,0x00,0x00,
 0x00,0x00,0x00,0x00,0x00,0x00,0x00,0x00,0x00,0x00,0x00,0x00,0x00,0x00,0x00,
 0x00,0x00,0x00,0x00,0x00,0x00,0x00,0x00,0x00,0x00,0xf0,0x03,0x00,0x00,0x00,
 0x00,0x00,0x00,0x00,0x00,0x00,0x00,0x00,0x00,0x00,0x00,0x00,0x00,0x00,0x00,
 0x00,0x00,0x00,0x00,0x00,0x00,0x00,0x00,0x00,0x00,0x00,0xc0,0xff,0x03,0x00,
 0x00,0x00,0x00,0x00,0x00,0x00,0x00,0x00,0x00,0x00,0x00,0x00,0x00,0x00,0x00,
 0x00,0x00,0x00,0x00,0x00,0x00,0x00,0x00,0x00,0x00,0x00,0x00,0x00,0xe0,0xff,
 0x01,0x00,0x00,0x00,0x00,0x00,0x00,0x00,0x00,0x00,0x00,0x00,0x00,0x00,0x00,
 0x00,0x00,0x00,0x00,0x00,0x00,0x00,0x00,0x00,0x00,0x00,0x00,0x00,0x00,0x00,
 0xe0,0xff,0x00,0x00,0x00,0x00,0x00,0x00,0x00,0x00,0x00,0x00,0x00,0x00,0x00,
 0x00,0x00,0x00,0x00,0x00,0x00,0x00,0x00,0x00,0x00,0x00,0x00,0x00,0x00,0x00,
 0x00,0x00,0x80,0x3f,0x00,0x00,0x00,0x00,0x00,0x00,0x00,0x00,0x00,0x00,0x00,
 0x00,0x00,0x00,0x00,0x00,0x00,0x00,0x00,0x00,0x00,0x00,0x00,0x00,0x00,0x00,
 0x00,0x00,0x00,0x00,0x00,0x00,0x00,0x00,0x00,0x00,0x00,0x00,0x00,0x00,0x00,
 0x00,0x00,0x00,0x00,0x00,0x00,0x00,0x00 };
