#define 1943kai_width 256
#define 1943kai_height 64
static unsigned char 1943kai_bits[] = {
   0x00, 0x00, 0x00, 0x00, 0x00, 0x00, 0x00, 0x00, 0x00, 0x00, 0x00, 0x00,
   0x00, 0x00, 0x00, 0x00, 0x00, 0x00, 0x00, 0x00, 0x00, 0x00, 0x00, 0x00,
   0x00, 0x00, 0x70, 0x00, 0x00, 0x00, 0x00, 0x00, 0x00, 0x00, 0x00, 0x00,
   0x00, 0x00, 0x00, 0x00, 0x00, 0x00, 0x00, 0x00, 0x00, 0x00, 0x00, 0x00,
   0x00, 0x00, 0x00, 0x00, 0x00, 0x00, 0x00, 0x00, 0x00, 0x00, 0xf0, 0x01,
   0x00, 0x00, 0x00, 0x00, 0x00, 0x00, 0x00, 0x00, 0x00, 0x00, 0x00, 0x00,
   0x00, 0x00, 0x00, 0x00, 0x00, 0x00, 0x00, 0x00, 0x00, 0x00, 0x00, 0x00,
   0x00, 0x00, 0x00, 0x00, 0x00, 0x00, 0xe0, 0x03, 0x00, 0x00, 0x00, 0x00,
   0x00, 0xc0, 0xff, 0x03, 0x00, 0xc0, 0xff, 0xff, 0x07, 0x00, 0x00, 0x80,
   0xff, 0xff, 0x07, 0x00, 0x00, 0xfc, 0xff, 0xff, 0x00, 0x00, 0x00, 0x00,
   0x00, 0x00, 0xe0, 0x07, 0x00, 0x00, 0x00, 0x00, 0x00, 0xe0, 0xff, 0x03,
   0x00, 0xe0, 0xff, 0xff, 0x0f, 0x00, 0x00, 0xc0, 0xff, 0xff, 0x0f, 0x00,
   0x00, 0xfe, 0xff, 0xff, 0x01, 0x00, 0x00, 0x00, 0x00, 0x00, 0xe0, 0x0f,
   0x00, 0x00, 0x00, 0x00, 0x00, 0x30, 0x00, 0x03, 0x00, 0x30, 0x00, 0x00,
   0x18, 0x00, 0x00, 0x60, 0x00, 0x00, 0x0c, 0x00, 0x00, 0x07, 0x00, 0x80,
   0x03, 0x00, 0x00, 0x00, 0x00, 0x00, 0xe0, 0x1f, 0x00, 0x00, 0x00, 0x00,
   0x00, 0x18, 0x00, 0x03, 0x00, 0x18, 0x00, 0x00, 0x30, 0x00, 0x00, 0x60,
   0x00, 0x00, 0x0c, 0x00, 0x80, 0x03, 0x00, 0x00, 0x07, 0x00, 0x00, 0x00,
   0x00, 0x00, 0xf0, 0x3f, 0x00, 0x00, 0x00, 0x00, 0x00, 0x0c, 0x00, 0x03,
   0x00, 0x0c, 0x00, 0x00, 0x60, 0x00, 0x00, 0x30, 0x00, 0x00, 0x0c, 0x00,
   0xc0, 0x01, 0x00, 0x00, 0x0e, 0x00, 0x00, 0x00, 0x00, 0x00, 0xf0, 0x3f,
   0x00, 0x00, 0x00, 0x00, 0x00, 0x06, 0x00, 0x03, 0x00, 0x06, 0x00, 0x00,
   0xc0, 0x00, 0x00, 0x30, 0x00, 0x00, 0x0c, 0x00, 0xe0, 0x00, 0x00, 0x00,
   0x1c, 0x00, 0x00, 0x00, 0x00, 0x00, 0xf0, 0x3f, 0x00, 0x00, 0x00, 0x00,
   0x00, 0x03, 0x00, 0x03, 0x00, 0x03, 0x00, 0x00, 0x80, 0x01, 0x00, 0x18,
   0x00, 0x00, 0x0c, 0x00, 0x70, 0x00, 0x00, 0x00, 0x38, 0x00, 0x00, 0x00,
   0x00, 0x00, 0xf8, 0x1f, 0x00, 0x00, 0x00, 0x00, 0x80, 0x01, 0x00, 0x03,
   0x80, 0x01, 0x00, 0x00, 0x00, 0x03, 0x00, 0x18, 0x00, 0x00, 0x0c, 0x00,
   0x30, 0x00, 0x00, 0x00, 0x30, 0x00, 0x00, 0x00, 0x00, 0x00, 0xf8, 0x0f,
   0x00, 0x00, 0x00, 0x00, 0x80, 0x01, 0x00, 0x03, 0x80, 0x01, 0x00, 0x00,
   0x00, 0x03, 0x00, 0x0c, 0xc0, 0x01, 0x0c, 0x00, 0x30, 0x00, 0x00, 0x00,
   0x30, 0x00, 0x00, 0x00, 0x70, 0x00, 0xf8, 0x0f, 0x00, 0x00, 0x00, 0x00,
   0x00, 0x03, 0x01, 0x03, 0x80, 0x01, 0x00, 0x00, 0x00, 0x03, 0x00, 0x0c,
   0xe0, 0x01, 0x0c, 0x00, 0x30, 0x00, 0x00, 0x00, 0x30, 0x00, 0x00, 0x00,
   0xfe, 0x01, 0xfc, 0x07, 0x00, 0x00, 0x00, 0x00, 0x00, 0x82, 0x01, 0x03,
   0x80, 0x01, 0xf8, 0x3f, 0x00, 0x03, 0x00, 0x06, 0xe0, 0x01, 0x0c, 0x00,
   0x30, 0x80, 0xff, 0x07, 0x30, 0x00, 0x00, 0x80, 0xff, 0x03, 0xfc, 0x03,
   0xfc, 0x03, 0x00, 0x00, 0x00, 0xc6, 0x01, 0x03, 0x80, 0x01, 0xf8, 0x3f,
   0x00, 0x03, 0x00, 0x06, 0xb0, 0x01, 0x0c, 0x00, 0x30, 0x80, 0xff, 0x07,
   0x30, 0x00, 0x00, 0xf0, 0xff, 0x03, 0xfe, 0xc1, 0xff, 0x07, 0x00, 0x00,
   0x00, 0xfc, 0x01, 0x03, 0x80, 0x01, 0x18, 0x30, 0x00, 0x03, 0x00, 0x03,
   0xb0, 0x01, 0x0c, 0x00, 0x30, 0x80, 0x01, 0x06, 0x30, 0x00, 0x00, 0xff,
   0xff, 0x0f, 0xfe, 0xf9, 0xff, 0x1f, 0x00, 0x00, 0x00, 0x98, 0x01, 0x03,
   0x80, 0x01, 0x18, 0x30, 0x00, 0x03, 0x00, 0x03, 0x98, 0x01, 0x0c, 0x00,
   0x30, 0x80, 0x01, 0x06, 0x30, 0x00, 0xc0, 0xff, 0xff, 0x0f, 0xff, 0xff,
   0xff, 0x1f, 0x00, 0x00, 0x00, 0x80, 0x01, 0x03, 0x80, 0x01, 0x18, 0x30,
   0x00, 0x03, 0x80, 0x01, 0x98, 0x01, 0x0c, 0x00, 0xf0, 0xff, 0x01, 0x06,
   0x30, 0x00, 0xf0, 0xff, 0xff, 0x0f, 0xff, 0xff, 0xff, 0x1f, 0x00, 0x00,
   0x00, 0x80, 0x01, 0x03, 0x80, 0x01, 0x18, 0x30, 0x00, 0x03, 0x80, 0x01,
   0x8c, 0x01, 0x0c, 0x00, 0xf0, 0xff, 0x01, 0x06, 0x30, 0x00, 0xfc, 0xff,
   0xff, 0x8f, 0xff, 0xff, 0xff, 0x07, 0x00, 0x00, 0x00, 0x80, 0x01, 0x03,
   0x80, 0x01, 0x18, 0x30, 0x00, 0x03, 0xc0, 0x00, 0x8c, 0x01, 0x0c, 0x00,
   0x00, 0x00, 0x00, 0x06, 0x30, 0x00, 0xfc, 0xff, 0xff, 0x8f, 0xff, 0xff,
   0xff, 0x01, 0x00, 0x00, 0x00, 0x80, 0x01, 0x03, 0x80, 0x01, 0x18, 0x30,
   0x00, 0x03, 0xc0, 0x00, 0x86, 0x01, 0x0c, 0x00, 0x00, 0x00, 0x00, 0x06,
   0x30, 0x00, 0xf8, 0xff, 0xff, 0xc7, 0xff, 0xff, 0x1f, 0x00, 0x00, 0x00,
   0x00, 0x80, 0x01, 0x03, 0x80, 0x01, 0x18, 0x30, 0x00, 0x03, 0x60, 0x00,
   0x86, 0x01, 0x0c, 0x00, 0x00, 0x00, 0x00, 0x06, 0x30, 0x00, 0xf0, 0x7f,
   0xfe, 0xe7, 0xff, 0xff, 0x03, 0x00, 0x00, 0x00, 0x00, 0x80, 0x01, 0x03,
   0x80, 0x01, 0x18, 0x30, 0x00, 0x03, 0x60, 0x00, 0x83, 0x01, 0x0c, 0x00,
   0x00, 0x00, 0x00, 0x06, 0x30, 0x00, 0xc0, 0x1f, 0xfe, 0xe3, 0xcf, 0xaf,
   0x07, 0x00, 0x00, 0x00, 0x00, 0x80, 0x01, 0x03, 0x80, 0x01, 0x18, 0x30,
   0x00, 0x03, 0x30, 0x00, 0x83, 0x01, 0x0c, 0x00, 0x00, 0x00, 0x00, 0x06,
   0x30, 0x00, 0x00, 0x00, 0xfe, 0xf1, 0x0f, 0x80, 0x1f, 0x00, 0x00, 0x00,
   0x00, 0x80, 0x01, 0x03, 0x80, 0x01, 0xf8, 0x3f, 0x00, 0x03, 0x30, 0x80,
   0x81, 0x01, 0x0c, 0x00, 0x00, 0x80, 0xff, 0x07, 0x30, 0x00, 0x00, 0x00,
   0xfe, 0xf9, 0x07, 0xc0, 0x3f, 0x00, 0x00, 0x00, 0x00, 0x80, 0x01, 0x03,
   0x80, 0x01, 0xf8, 0x3f, 0x00, 0x03, 0x30, 0x80, 0x81, 0x01, 0x0c, 0x00,
   0x00, 0x80, 0xff, 0x07, 0x30, 0x00, 0x00, 0x00, 0xff, 0xf8, 0x03, 0xc0,
   0x3f, 0x00, 0x00, 0x00, 0x00, 0x80, 0x01, 0x03, 0x80, 0x03, 0x00, 0x00,
   0x00, 0x03, 0x30, 0xc0, 0x80, 0x01, 0x0c, 0x00, 0x00, 0x80, 0x01, 0x00,
   0x30, 0x00, 0x00, 0x00, 0x7f, 0x3c, 0x00, 0xc0, 0x7f, 0x00, 0x00, 0x00,
   0x00, 0x80, 0x01, 0x03, 0x00, 0x07, 0x00, 0x00, 0x00, 0x03, 0x30, 0xc0,
   0x80, 0x01, 0x0c, 0x00, 0x00, 0x80, 0x01, 0x00, 0x18, 0x00, 0x00, 0x00,
   0x7f, 0x06, 0x10, 0xc0, 0x3f, 0x00, 0x00, 0x00, 0x00, 0x80, 0x01, 0x03,
   0x00, 0x0e, 0x00, 0x00, 0x00, 0x03, 0x30, 0xe0, 0xff, 0x01, 0x7c, 0x00,
   0x00, 0x80, 0x01, 0x00, 0x0c, 0x00, 0x00, 0xe0, 0x3f, 0x02, 0x70, 0xe0,
   0x1f, 0x00, 0x00, 0x00, 0x00, 0x80, 0x01, 0x03, 0x00, 0x1c, 0x00, 0x00,
   0x00, 0x03, 0x30, 0xe0, 0xff, 0x01, 0xfc, 0x00, 0x00, 0x80, 0x01, 0x00,
   0x0c, 0x00, 0x00, 0xfc, 0x0f, 0x00, 0xe0, 0xe0, 0x1f, 0x00, 0x00, 0x00,
   0x00, 0x80, 0x01, 0x03, 0x00, 0x38, 0x00, 0x00, 0x00, 0x03, 0x30, 0x00,
   0x00, 0x00, 0xc0, 0x00, 0x00, 0x80, 0x01, 0x00, 0x18, 0x00, 0x00, 0xfe,
   0x0f, 0x00, 0xe0, 0xf3, 0x0f, 0x00, 0x00, 0x00, 0x00, 0x80, 0x01, 0x03,
   0x00, 0x30, 0x00, 0x00, 0x00, 0x03, 0x30, 0x00, 0x00, 0x00, 0xc0, 0x00,
   0x00, 0x80, 0x01, 0x00, 0x30, 0x00, 0x80, 0xff, 0x07, 0x00, 0xc0, 0xf7,
   0x0f, 0x00, 0x00, 0x00, 0x00, 0x80, 0x01, 0x03, 0x00, 0xe0, 0xff, 0x3f,
   0x00, 0x03, 0x30, 0x00, 0x00, 0x00, 0xc0, 0x00, 0x00, 0x80, 0xff, 0x07,
   0x30, 0x00, 0x80, 0xff, 0x01, 0x00, 0x80, 0xff, 0x07, 0x00, 0x00, 0x00,
   0x00, 0x80, 0x01, 0x03, 0x00, 0xc0, 0xff, 0x3f, 0x00, 0x03, 0x30, 0x00,
   0x00, 0x00, 0xc0, 0x00, 0x00, 0x80, 0xff, 0x07, 0x30, 0x00, 0x00, 0x3f,
   0x80, 0x00, 0x80, 0xff, 0x07, 0x00, 0x00, 0x00, 0x00, 0x80, 0x01, 0x03,
   0x00, 0x00, 0x00, 0x30, 0x00, 0x03, 0x30, 0x00, 0x00, 0x00, 0xc0, 0x00,
   0x00, 0x00, 0x00, 0x06, 0x30, 0x00, 0x80, 0x1f, 0x00, 0x00, 0x00, 0xff,
   0x03, 0x00, 0x00, 0x00, 0x00, 0x80, 0x01, 0x03, 0x00, 0x00, 0x00, 0x30,
   0x00, 0x03, 0x30, 0x00, 0x00, 0x00, 0xc0, 0x00, 0x00, 0x00, 0x00, 0x06,
   0x30, 0x00, 0x80, 0x0f, 0x00, 0x01, 0x00, 0xfe, 0x03, 0x00, 0x00, 0x00,
   0x00, 0x80, 0x01, 0x03, 0x00, 0x00, 0x00, 0x30, 0x00, 0x03, 0xf0, 0xff,
   0xff, 0x01, 0xfc, 0x00, 0x00, 0x00, 0x00, 0x06, 0x30, 0x00, 0x80, 0x0f,
   0x00, 0x01, 0x00, 0xfe, 0x01, 0x00, 0x00, 0x00, 0x00, 0x80, 0x01, 0x03,
   0x00, 0x00, 0x00, 0x30, 0x00, 0x03, 0xe0, 0xff, 0xff, 0x01, 0x0c, 0x00,
   0x00, 0x00, 0x00, 0x06, 0x30, 0x00, 0x80, 0x07, 0x00, 0x01, 0x00, 0xfe,
   0x03, 0x00, 0x00, 0x00, 0x00, 0x80, 0x01, 0x03, 0x00, 0xff, 0x1f, 0x30,
   0x00, 0x03, 0x00, 0x00, 0x80, 0x01, 0x0c, 0x00, 0xf0, 0xff, 0x01, 0x06,
   0x30, 0x00, 0x80, 0x07, 0x00, 0x07, 0x00, 0xff, 0x03, 0x00, 0x00, 0x00,
   0x00, 0x80, 0x01, 0x03, 0x80, 0xff, 0x1f, 0x30, 0x00, 0x03, 0x00, 0x00,
   0x80, 0x01, 0x0c, 0x00, 0xf0, 0xff, 0x01, 0x06, 0x30, 0x00, 0x80, 0x07,
   0x80, 0x06, 0x00, 0xff, 0x07, 0x00, 0x00, 0x00, 0x00, 0x80, 0x01, 0x03,
   0x80, 0x01, 0x18, 0x30, 0x00, 0x03, 0x00, 0x00, 0x80, 0x01, 0x0c, 0x00,
   0x30, 0x80, 0x01, 0x06, 0x30, 0x00, 0xc0, 0x07, 0x00, 0x0e, 0x80, 0xff,
   0x1f, 0x00, 0x00, 0x00, 0x00, 0x80, 0x01, 0x03, 0x80, 0x01, 0x18, 0x30,
   0x00, 0x03, 0x00, 0x00, 0x80, 0x01, 0x0c, 0x00, 0x30, 0x80, 0x01, 0x06,
   0x30, 0x00, 0xc0, 0x03, 0x00, 0x0f, 0x80, 0xff, 0x1f, 0x00, 0x00, 0x00,
   0x00, 0x80, 0x01, 0x03, 0x80, 0x01, 0xf8, 0x3f, 0x00, 0x03, 0x00, 0x00,
   0xf8, 0x01, 0xfc, 0x00, 0x30, 0x80, 0x01, 0x06, 0x30, 0x00, 0xc0, 0x03,
   0x80, 0x0f, 0xc0, 0xff, 0x3f, 0x00, 0x00, 0x00, 0x00, 0xf8, 0x01, 0x7f,
   0x80, 0x01, 0xf8, 0x3f, 0x00, 0x03, 0x00, 0x00, 0xf8, 0x01, 0xfc, 0x00,
   0x30, 0x80, 0xff, 0x07, 0x30, 0x00, 0xc0, 0x03, 0x80, 0x0f, 0xe0, 0xdf,
   0x7f, 0x00, 0x00, 0x00, 0x00, 0xf8, 0x01, 0x7e, 0x80, 0x01, 0x00, 0x00,
   0x00, 0x03, 0x00, 0x00, 0x18, 0x00, 0xc0, 0x00, 0x30, 0x80, 0xff, 0x07,
   0x30, 0x00, 0xe0, 0x03, 0x80, 0x1f, 0xe0, 0x8f, 0xff, 0x01, 0x00, 0x00,
   0x00, 0x18, 0x00, 0x60, 0x80, 0x01, 0x00, 0x00, 0x00, 0x03, 0x00, 0x00,
   0x18, 0x00, 0xc0, 0x00, 0x30, 0x00, 0x00, 0x00, 0x30, 0x00, 0xe0, 0x03,
   0xc0, 0x1f, 0xf0, 0x0f, 0xff, 0x01, 0x00, 0x00, 0x00, 0x18, 0x00, 0x60,
   0x80, 0x01, 0x00, 0x00, 0x00, 0x03, 0x00, 0x00, 0x18, 0x00, 0xc0, 0x00,
   0x30, 0x00, 0x00, 0x00, 0x30, 0x00, 0xe0, 0x03, 0xc0, 0x1f, 0xf0, 0x07,
   0xff, 0x07, 0x00, 0x00, 0x00, 0x18, 0x00, 0x60, 0x80, 0x01, 0x00, 0x00,
   0x80, 0x01, 0x00, 0x00, 0x18, 0x00, 0xc0, 0x00, 0x60, 0x00, 0x00, 0x00,
   0x30, 0x00, 0xe0, 0x03, 0xe0, 0x1f, 0xf8, 0x03, 0xfe, 0x0f, 0x00, 0x00,
   0x00, 0x18, 0x00, 0x60, 0x80, 0x01, 0x00, 0x00, 0xc0, 0x00, 0x00, 0x00,
   0x18, 0x00, 0xc0, 0x00, 0xc0, 0x00, 0x00, 0x00, 0x18, 0x00, 0xe0, 0x03,
   0xe0, 0x1f, 0xfc, 0x03, 0xfc, 0x1f, 0x00, 0x00, 0x00, 0x18, 0x00, 0x60,
   0x80, 0x01, 0x00, 0x00, 0x60, 0x00, 0x00, 0x00, 0x18, 0x00, 0xc0, 0x00,
   0x80, 0x01, 0x00, 0x00, 0x0c, 0x00, 0xe0, 0x03, 0xf0, 0x1f, 0xfc, 0x01,
   0xf8, 0x7f, 0x00, 0x00, 0x00, 0x18, 0x00, 0x60, 0x80, 0x01, 0x00, 0x00,
   0x30, 0x00, 0x00, 0x00, 0x18, 0x00, 0xc0, 0x00, 0x00, 0x03, 0x00, 0x00,
   0x06, 0x00, 0xe0, 0x03, 0xf0, 0x3f, 0xfe, 0x01, 0xf8, 0xff, 0x01, 0x00,
   0x00, 0x18, 0x00, 0x60, 0x80, 0x01, 0x00, 0x00, 0x18, 0x00, 0x00, 0x00,
   0x18, 0x00, 0xc0, 0x00, 0x00, 0x06, 0x00, 0x00, 0x03, 0x00, 0xc0, 0x8f,
   0xfe, 0x3f, 0xff, 0x00, 0xf0, 0xff, 0x03, 0x00, 0x00, 0xf8, 0xff, 0x7f,
   0x80, 0xff, 0xff, 0xff, 0x0f, 0x00, 0x00, 0x00, 0xf8, 0xff, 0xff, 0x00,
   0x00, 0xfc, 0xff, 0xff, 0x01, 0x00, 0xc0, 0xff, 0xff, 0xbf, 0x7f, 0x00,
   0xe0, 0xff, 0x07, 0x00, 0x00, 0xf8, 0xff, 0x7f, 0x80, 0xff, 0xff, 0xff,
   0x07, 0x00, 0x00, 0x00, 0xf8, 0xff, 0xff, 0x00, 0x00, 0xf8, 0xff, 0xff,
   0x00, 0x00, 0xc0, 0xff, 0xff, 0xff, 0x3f, 0x00, 0xc0, 0xff, 0x0f, 0x00,
   0x00, 0x00, 0x00, 0x00, 0x00, 0x00, 0x00, 0x00, 0x00, 0x00, 0x00, 0x00,
   0x00, 0x00, 0x00, 0x00, 0x00, 0x00, 0x00, 0x00, 0x00, 0x00, 0x80, 0xff,
   0xff, 0xff, 0x1f, 0x00, 0x80, 0xff, 0x1f, 0x00, 0x00, 0x00, 0x00, 0x00,
   0x00, 0x00, 0x00, 0x00, 0x00, 0x00, 0x00, 0x00, 0x00, 0x00, 0x00, 0x00,
   0x00, 0x00, 0x00, 0x00, 0x00, 0x00, 0x80, 0xff, 0xff, 0xff, 0x0f, 0x00,
   0x00, 0xff, 0x7f, 0x00, 0x00, 0x00, 0x00, 0x00, 0x00, 0x00, 0x00, 0x00,
   0x00, 0x00, 0x00, 0x00, 0x00, 0x00, 0x00, 0x00, 0x00, 0x00, 0x00, 0x00,
   0x00, 0x00, 0x00, 0xff, 0xff, 0xff, 0x03, 0x00, 0x00, 0xfe, 0xff, 0x01,
   0x00, 0x00, 0x00, 0x00, 0x00, 0x00, 0x00, 0x00, 0x00, 0x00, 0x00, 0x00,
   0x00, 0x00, 0x00, 0x00, 0x00, 0x00, 0x00, 0x00, 0x00, 0x00, 0x00, 0xfe,
   0xff, 0xff, 0x00, 0x00, 0x00, 0xfc, 0xff, 0x01, 0x00, 0x00, 0x00, 0x00,
   0x00, 0x00, 0x00, 0x00, 0x00, 0x00, 0x00, 0x00, 0x00, 0x00, 0x00, 0x00,
   0x00, 0x00, 0x00, 0x00, 0x00, 0x00, 0x00, 0xf8, 0xff, 0x7f, 0x00, 0x00,
   0x00, 0xfc, 0xff, 0x01, 0x00, 0x00, 0x00, 0x00, 0x00, 0x00, 0x00, 0x00,
   0x00, 0x00, 0x00, 0x00, 0x00, 0x00, 0x00, 0x00, 0x00, 0x00, 0x00, 0x00,
   0x00, 0x00, 0x00, 0xe0, 0x7f, 0x3f, 0x00, 0x00, 0x00, 0xe0, 0xff, 0x01,
   0x00, 0x00, 0x00, 0x00, 0x00, 0x00, 0x00, 0x00, 0x00, 0x00, 0x00, 0x00,
   0x00, 0x00, 0x00, 0x00, 0x00, 0x00, 0x00, 0x00, 0x00, 0x00, 0x00, 0x00,
   0x00, 0x00, 0x00, 0x00, 0x00, 0x80, 0xff, 0x00, 0x00, 0x00, 0x00, 0x00,
   0x00, 0x00, 0x00, 0x00, 0x00, 0x00, 0x00, 0x00, 0x00, 0x00, 0x00, 0x00,
   0x00, 0x00, 0x00, 0x00, 0x00, 0x00, 0x00, 0x00, 0x00, 0x00, 0x00, 0x00,
   0x00, 0x00, 0xcf, 0x00, 0x00, 0x00, 0x00, 0x00, 0x00, 0x00, 0x00, 0x00,
   0x00, 0x00, 0x00, 0x00, 0x00, 0x00, 0x00, 0x00, 0x00, 0x00, 0x00, 0x00,
   0x00, 0x00, 0x00, 0x00, 0x00, 0x00, 0x00, 0x00, 0x00, 0x00, 0x00, 0x00,
   0x00, 0x00, 0x00, 0x00, 0x00, 0x00, 0x00, 0x00, 0x00, 0x00, 0x00, 0x00,
   0x00, 0x00, 0x00, 0x00, 0x00, 0x00, 0x00, 0x00, 0x00, 0x00, 0x00, 0x00,
   0x00, 0x00, 0x00, 0x00, 0x00, 0x00, 0x00, 0x00 };
