#define Altair8800_width 256
#define Altair8800_height 64
static char Altair8800_bits[] = {
  0x00, 0x00, 0x00, 0x00, 0x00, 0x00, 0x00, 0x00, 0x00, 0x00, 0x00, 0x00, 
  0x00, 0x00, 0x00, 0x00, 0x00, 0x00, 0x00, 0x00, 0x00, 0x00, 0x00, 0x00, 
  0x00, 0x00, 0x00, 0x00, 0x00, 0x00, 0x00, 0x00, 0x00, 0x00, 0x00, 0x00, 
  0x00, 0x00, 0x00, 0x00, 0x00, 0x00, 0x00, 0x00, 0x00, 0x00, 0x00, 0x00, 
  0x00, 0x00, 0x00, 0x00, 0x00, 0x00, 0x00, 0x00, 0x00, 0x00, 0x00, 0x00, 
  0x00, 0x00, 0x00, 0x00, 0x00, 0x00, 0x00, 0x00, 0x00, 0x00, 0x00, 0x00, 
  0x00, 0x00, 0x00, 0x00, 0x00, 0x00, 0x00, 0x00, 0x00, 0x00, 0x00, 0x00, 
  0x00, 0x00, 0x00, 0x00, 0x00, 0x00, 0x00, 0x00, 0x00, 0x00, 0x00, 0x00, 
  0x00, 0x00, 0x00, 0x00, 0x00, 0x00, 0x00, 0x00, 0x00, 0x00, 0x00, 0x00, 
  0x00, 0x00, 0x00, 0x00, 0x00, 0x00, 0x00, 0x00, 0x00, 0x00, 0x00, 0x00, 
  0x00, 0x00, 0x00, 0x00, 0x00, 0x00, 0x00, 0x00, 0x00, 0x00, 0x00, 0x00, 
  0x00, 0x00, 0x00, 0x00, 0x00, 0x00, 0x00, 0x00, 0x00, 0x00, 0x00, 0x00, 
  0x00, 0x00, 0x00, 0x00, 0x00, 0x00, 0x00, 0x00, 0x00, 0x00, 0x00, 0x00, 
  0x00, 0x00, 0x00, 0x00, 0x00, 0x00, 0x00, 0x00, 0x00, 0x00, 0x00, 0x00, 
  0x00, 0x00, 0x00, 0x00, 0x00, 0x00, 0x00, 0x00, 0x00, 0x00, 0x00, 0x00, 
  0x00, 0x00, 0x00, 0x00, 0x00, 0x00, 0x00, 0x00, 0x00, 0x00, 0x00, 0x00, 
  0x00, 0x00, 0x00, 0x00, 0x00, 0x00, 0x00, 0x00, 0x00, 0x00, 0x00, 0x00, 
  0x00, 0x00, 0x00, 0x00, 0x00, 0x00, 0x00, 0x00, 0x00, 0x00, 0x00, 0x00, 
  0x00, 0x00, 0x00, 0x00, 0x00, 0x00, 0x00, 0x00, 0x00, 0x00, 0x00, 0x00, 
  0x00, 0x00, 0x00, 0x00, 0x00, 0x00, 0x00, 0x00, 0x00, 0x00, 0x00, 0x00, 
  0x00, 0x00, 0x00, 0x00, 0x00, 0x00, 0x00, 0x00, 0x00, 0x00, 0x00, 0x00, 
  0x00, 0x00, 0x00, 0x00, 0x00, 0x00, 0x00, 0x00, 0x00, 0x00, 0x00, 0x00, 
  0x00, 0x00, 0x00, 0x00, 0x00, 0x00, 0x00, 0x00, 0x00, 0x00, 0x00, 0x00, 
  0x00, 0x00, 0x00, 0x00, 0x00, 0x00, 0x00, 0x00, 0x00, 0x00, 0x00, 0x00, 
  0x00, 0x00, 0x00, 0x00, 0x00, 0x00, 0x00, 0x00, 0x00, 0x00, 0x00, 0x00, 
  0x00, 0x00, 0x00, 0x00, 0x00, 0x00, 0x00, 0x00, 0x00, 0x00, 0x00, 0x00, 
  0x00, 0x00, 0x00, 0x00, 0x00, 0x00, 0x00, 0x00, 0x00, 0x00, 0x00, 0x00, 
  0x00, 0x00, 0x00, 0x00, 0x00, 0x00, 0x00, 0x00, 0x00, 0x00, 0x00, 0x00, 
  0x00, 0x00, 0x00, 0x00, 0x00, 0x00, 0x00, 0x00, 0x00, 0x00, 0x00, 0x00, 
  0x00, 0x00, 0x00, 0x00, 0x00, 0x00, 0x00, 0x00, 0x00, 0x00, 0x00, 0x00, 
  0x00, 0x00, 0x00, 0x00, 0x00, 0x00, 0x00, 0x00, 0x00, 0x00, 0x00, 0x00, 
  0x00, 0x00, 0x00, 0x00, 0x00, 0x00, 0x00, 0x00, 0x00, 0x00, 0x00, 0x00, 
  0x00, 0x00, 0x00, 0x00, 0x00, 0x00, 0x00, 0x00, 0x00, 0x00, 0x00, 0x00, 
  0x00, 0x00, 0x00, 0x00, 0x00, 0x00, 0x00, 0x00, 0x00, 0x00, 0x00, 0x00, 
  0x00, 0x00, 0x00, 0x00, 0x00, 0x00, 0x00, 0x00, 0x00, 0x00, 0x00, 0x00, 
  0x00, 0x00, 0x00, 0x00, 0x00, 0x00, 0x00, 0x00, 0x00, 0x00, 0x00, 0x00, 
  0x00, 0x00, 0x00, 0x00, 0x00, 0x00, 0x00, 0x00, 0x00, 0x00, 0x00, 0x00, 
  0x00, 0x00, 0x00, 0x00, 0x00, 0x00, 0xF0, 0x07, 0x00, 0x00, 0x00, 0x00, 
  0x00, 0x00, 0x00, 0x00, 0x00, 0x00, 0x00, 0x00, 0x00, 0x00, 0xFE, 0xFF, 
  0x01, 0xFF, 0xFF, 0x80, 0xFF, 0x7F, 0xC0, 0xFF, 0x3F, 0x00, 0x00, 0x00, 
  0x00, 0x00, 0xF0, 0x0F, 0x00, 0x00, 0x00, 0x00, 0x00, 0x00, 0x00, 0x00, 
  0x00, 0x00, 0x00, 0x00, 0x00, 0x00, 0xFF, 0xFF, 0x83, 0xFF, 0xFF, 0xC1, 
  0xFF, 0xFF, 0xE0, 0xFF, 0x7F, 0x00, 0x00, 0x00, 0x00, 0x00, 0xF0, 0x0F, 
  0x00, 0x00, 0x00, 0x00, 0x00, 0x00, 0x00, 0x00, 0x00, 0x00, 0x00, 0x00, 
  0x00, 0x00, 0xFF, 0xFF, 0x87, 0xFF, 0xFF, 0xC3, 0xFF, 0xFF, 0xE1, 0xFF, 
  0xFF, 0x00, 0x00, 0x00, 0x00, 0x00, 0xF0, 0x0F, 0x00, 0x00, 0x00, 0x00, 
  0x00, 0x00, 0x00, 0x00, 0x00, 0x00, 0x00, 0x00, 0x00, 0x00, 0xFF, 0xFF, 
  0x87, 0xFF, 0xFF, 0xC3, 0xFF, 0xFF, 0xE1, 0xFF, 0xFF, 0x00, 0x00, 0x00, 
  0x00, 0x00, 0xF8, 0x0F, 0x00, 0x00, 0x00, 0x00, 0x00, 0x00, 0x00, 0x00, 
  0x00, 0x00, 0x00, 0x00, 0x00, 0x00, 0x03, 0x00, 0x87, 0x01, 0x80, 0xC3, 
  0xFF, 0xFF, 0xE1, 0xFF, 0xFF, 0x00, 0x00, 0x00, 0x00, 0x00, 0xF8, 0x1F, 
  0x00, 0x00, 0x00, 0x00, 0x00, 0x00, 0x00, 0x00, 0x00, 0x00, 0x00, 0x00, 
  0x00, 0x00, 0x03, 0x00, 0x87, 0x01, 0x80, 0xC3, 0xFF, 0xFF, 0xE1, 0xFF, 
  0xFF, 0x00, 0x00, 0x00, 0x00, 0x00, 0xF8, 0x1F, 0x00, 0x00, 0x00, 0x00, 
  0x00, 0x00, 0x00, 0x00, 0x00, 0x00, 0x00, 0x00, 0x00, 0x00, 0x03, 0x00, 
  0x87, 0x01, 0x80, 0xC3, 0xFF, 0xFF, 0xE1, 0xFF, 0xFF, 0x00, 0x00, 0x00, 
  0x00, 0x00, 0xF8, 0x1F, 0x00, 0x00, 0x00, 0x00, 0x00, 0x00, 0x00, 0x00, 
  0x00, 0x00, 0x00, 0x00, 0x00, 0x00, 0x03, 0x00, 0x87, 0x01, 0x80, 0xC3, 
  0xFF, 0xFF, 0xE1, 0xFF, 0xFF, 0x00, 0x00, 0x00, 0x00, 0x00, 0xD8, 0x1F, 
  0x00, 0x00, 0x00, 0x00, 0x00, 0x00, 0x00, 0x00, 0x00, 0x80, 0xFF, 0xFF, 
  0x00, 0x00, 0x03, 0x00, 0x87, 0x01, 0x80, 0xC3, 0xFF, 0xFF, 0xE1, 0xFF, 
  0xFF, 0x00, 0x00, 0x00, 0x00, 0x00, 0xDC, 0x1F, 0xE0, 0x00, 0x80, 0xFF, 
  0xFF, 0x03, 0xF8, 0x03, 0xF0, 0x8F, 0xFF, 0xFF, 0x01, 0x00, 0x03, 0x00, 
  0x87, 0x01, 0x80, 0xC3, 0xFF, 0xFF, 0xE1, 0xFF, 0xFF, 0x00, 0x00, 0x00, 
  0x00, 0x00, 0xDC, 0x3F, 0xE0, 0x00, 0x80, 0xFF, 0xFF, 0x03, 0xF8, 0x07, 
  0xF0, 0x8F, 0xFF, 0xFF, 0x03, 0x00, 0x03, 0x00, 0x87, 0x01, 0x80, 0xC3, 
  0xFF, 0xFF, 0xE1, 0xFF, 0xFF, 0x00, 0x00, 0x00, 0x00, 0x00, 0xCC, 0x3F, 
  0xE0, 0x00, 0x80, 0xFF, 0xFF, 0x03, 0xFC, 0x07, 0xF0, 0x8F, 0xFF, 0xFF, 
  0x03, 0x00, 0x03, 0x00, 0x87, 0x01, 0x80, 0xC3, 0xFF, 0xFF, 0xE1, 0xFF, 
  0xFF, 0x00, 0x00, 0x00, 0x00, 0x00, 0xCC, 0x3F, 0xE0, 0x00, 0x80, 0xFF, 
  0xFF, 0x03, 0xFC, 0x07, 0xF0, 0x8F, 0x7F, 0x80, 0x03, 0x00, 0x03, 0x00, 
  0x87, 0x01, 0x80, 0xC3, 0x01, 0xC0, 0xE1, 0x00, 0xE0, 0x00, 0x00, 0x00, 
  0x00, 0x00, 0x8C, 0x3F, 0xE0, 0x00, 0x80, 0xFF, 0xFF, 0x03, 0xFC, 0x0F, 
  0xF0, 0x8F, 0x7F, 0x80, 0x03, 0x00, 0x03, 0x00, 0x87, 0x01, 0x80, 0xC3, 
  0x00, 0xC0, 0x61, 0x00, 0xE0, 0x00, 0x00, 0x00, 0x00, 0x00, 0x8E, 0x3F, 
  0xE0, 0x00, 0x80, 0xFF, 0xFF, 0x03, 0xFC, 0x0F, 0xF0, 0x8F, 0x7F, 0x80, 
  0x03, 0x00, 0xFF, 0xFF, 0x87, 0xFF, 0xFF, 0xC3, 0x00, 0xC0, 0x61, 0x00, 
  0xE0, 0x00, 0x00, 0x00, 0x00, 0x00, 0x8E, 0x7F, 0xE0, 0x00, 0x80, 0xFF, 
  0xFF, 0x03, 0xFE, 0x0F, 0xF0, 0x8F, 0x7F, 0x80, 0x03, 0x00, 0xFF, 0xFF, 
  0x83, 0xFF, 0xFF, 0xC1, 0x00, 0xC0, 0x61, 0x00, 0xE0, 0x00, 0x00, 0x00, 
  0x00, 0x00, 0x86, 0x7F, 0xE0, 0x00, 0x80, 0xFF, 0xFF, 0x03, 0xEE, 0x0F, 
  0xF0, 0x8F, 0x7F, 0x80, 0x03, 0x00, 0xFF, 0xFF, 0x83, 0xFF, 0xFF, 0xC1, 
  0x00, 0xC0, 0x61, 0x00, 0xE0, 0x00, 0x00, 0x00, 0x00, 0x00, 0x86, 0x7F, 
  0xE0, 0x00, 0x80, 0xFF, 0xFF, 0x03, 0xE6, 0x1F, 0xF0, 0x8F, 0x7F, 0x80, 
  0x03, 0x00, 0xFF, 0xFF, 0x87, 0xFF, 0xFF, 0xC3, 0x00, 0xC0, 0x61, 0x00, 
  0xE0, 0x00, 0x00, 0x00, 0x00, 0x00, 0x06, 0x7F, 0xE0, 0x00, 0x80, 0xFF, 
  0xFF, 0x03, 0xE7, 0x1F, 0xF0, 0x8F, 0x7F, 0x80, 0x03, 0x00, 0x03, 0x00, 
  0x87, 0x01, 0x80, 0xC3, 0x00, 0xC0, 0x61, 0x00, 0xE0, 0x00, 0x00, 0x00, 
  0x00, 0x00, 0x07, 0x7F, 0xE0, 0x00, 0x00, 0x80, 0x03, 0x00, 0xC7, 0x1F, 
  0xF0, 0x8F, 0x7F, 0x80, 0x03, 0x00, 0x03, 0x00, 0x87, 0x01, 0x80, 0xC3, 
  0x00, 0xC0, 0x61, 0x00, 0xE0, 0x00, 0x00, 0x00, 0x00, 0x00, 0x03, 0x7F, 
  0xE0, 0x00, 0x00, 0x80, 0x03, 0x00, 0xC3, 0x3F, 0xF0, 0x8F, 0xFF, 0xFF, 
  0x03, 0x00, 0x03, 0x00, 0x87, 0x01, 0x80, 0xC3, 0x00, 0xC0, 0x61, 0x00, 
  0xE0, 0x00, 0x00, 0x00, 0x00, 0x00, 0x03, 0xFF, 0xE0, 0x00, 0x00, 0x80, 
  0x03, 0x00, 0xC3, 0x3F, 0xF0, 0x8F, 0xFF, 0xFF, 0x01, 0x00, 0x03, 0x00, 
  0x87, 0x01, 0x80, 0xC3, 0x00, 0xC0, 0x61, 0x00, 0xE0, 0x00, 0x00, 0x00, 
  0x00, 0x00, 0xFF, 0xFF, 0xE0, 0x00, 0x00, 0x80, 0x03, 0x80, 0xC3, 0x3F, 
  0xF0, 0x8F, 0xFF, 0xFF, 0x01, 0x00, 0x03, 0x00, 0x87, 0x01, 0x80, 0xC3, 
  0x01, 0xE0, 0xE1, 0x00, 0xF0, 0x00, 0x00, 0x00, 0x00, 0x00, 0xFF, 0xFF, 
  0xE0, 0x00, 0x00, 0x80, 0x03, 0x80, 0x83, 0x3F, 0xF0, 0x8F, 0xFF, 0xFF, 
  0x03, 0x00, 0xFF, 0xFF, 0x87, 0xFF, 0xFF, 0xC3, 0xFF, 0xFF, 0xE1, 0xFF, 
  0xFF, 0x00, 0x00, 0x00, 0x00, 0x80, 0xFF, 0xFF, 0xE0, 0x00, 0x00, 0x80, 
  0x03, 0x80, 0xFF, 0x7F, 0xF0, 0x8F, 0x7F, 0x80, 0x03, 0x00, 0xFF, 0xFF, 
  0x87, 0xFF, 0xFF, 0xC3, 0xFF, 0xFF, 0xE1, 0xFF, 0xFF, 0x00, 0x00, 0x00, 
  0x00, 0x80, 0xFF, 0xFF, 0xE0, 0xFF, 0x07, 0x80, 0x03, 0xC0, 0xFF, 0x7F, 
  0xF0, 0x8F, 0x7F, 0x80, 0x03, 0x00, 0xFF, 0xFF, 0x87, 0xFF, 0xFF, 0xC3, 
  0xFF, 0xFF, 0xE1, 0xFF, 0xFF, 0x00, 0x00, 0x00, 0x00, 0x80, 0x01, 0xFE, 
  0xE1, 0xFF, 0x07, 0x80, 0x03, 0xC0, 0xFF, 0x7F, 0xF0, 0x8F, 0x7F, 0x80, 
  0x03, 0x00, 0xFF, 0xFF, 0x87, 0xFF, 0xFF, 0xC3, 0xFF, 0xFF, 0xE1, 0xFF, 
  0xFF, 0x00, 0x00, 0x00, 0x00, 0x80, 0x01, 0xFE, 0xE1, 0xFF, 0x07, 0x80, 
  0x03, 0xC0, 0xFF, 0x7F, 0xF0, 0x8F, 0x7F, 0x80, 0x03, 0x00, 0xFF, 0xFF, 
  0x87, 0xFF, 0xFF, 0xC3, 0xFF, 0xFF, 0xE1, 0xFF, 0xFF, 0x00, 0x00, 0x00, 
  0x00, 0x80, 0x01, 0xFE, 0xE1, 0xFF, 0x07, 0x80, 0x03, 0xC0, 0x00, 0xFF, 
  0xF0, 0x8F, 0x7F, 0x80, 0x03, 0x00, 0xFF, 0xFF, 0x87, 0xFF, 0xFF, 0xC3, 
  0xFF, 0xFF, 0xE1, 0xFF, 0xFF, 0x00, 0x00, 0x00, 0x00, 0xC0, 0x01, 0xFE, 
  0xE1, 0xFF, 0x07, 0x80, 0x03, 0xE0, 0x00, 0xFF, 0xF0, 0x8F, 0x7F, 0x80, 
  0x03, 0x00, 0xFF, 0xFF, 0x87, 0xFF, 0xFF, 0xC3, 0xFF, 0xFF, 0xE1, 0xFF, 
  0xFF, 0x00, 0x00, 0x00, 0x00, 0xC0, 0x00, 0xFC, 0xE1, 0xFF, 0x07, 0x80, 
  0x03, 0xE0, 0x00, 0xFF, 0xF0, 0x8F, 0x7F, 0x80, 0x03, 0x00, 0xFF, 0xFF, 
  0x87, 0xFF, 0xFF, 0xC3, 0xFF, 0xFF, 0xE1, 0xFF, 0xFF, 0x00, 0x00, 0x00, 
  0x00, 0xC0, 0x00, 0xFC, 0xE3, 0xFF, 0x07, 0x80, 0x03, 0x60, 0x00, 0xFF, 
  0xF0, 0x8F, 0x7F, 0x80, 0x03, 0x00, 0xFF, 0xFF, 0x87, 0xFF, 0xFF, 0xC3, 
  0xFF, 0xFF, 0xE1, 0xFF, 0xFF, 0x00, 0x00, 0x00, 0x00, 0xC0, 0x00, 0xFC, 
  0xE3, 0xFF, 0x07, 0x80, 0x03, 0x70, 0x00, 0xFE, 0xF1, 0x8F, 0x7F, 0x80, 
  0x03, 0x00, 0xFF, 0xFF, 0x87, 0xFF, 0xFF, 0xC3, 0xFF, 0xFF, 0xE1, 0xFF, 
  0xFF, 0x00, 0x00, 0x00, 0x00, 0xC0, 0x00, 0xFC, 0xE3, 0xFF, 0x07, 0x80, 
  0x03, 0x70, 0x00, 0xFE, 0xF1, 0x8F, 0x7F, 0x80, 0x03, 0x00, 0xFF, 0xFF, 
  0x83, 0xFF, 0xFF, 0xC1, 0xFF, 0xFF, 0xE0, 0xFF, 0x7F, 0x00, 0x00, 0x00, 
  0x00, 0x60, 0x00, 0xFC, 0xC3, 0xFF, 0x07, 0x80, 0x03, 0x30, 0x00, 0xFE, 
  0xF1, 0x8F, 0x7F, 0x80, 0x03, 0x00, 0xFE, 0xFF, 0x01, 0xFF, 0xFF, 0x80, 
  0xFF, 0x7F, 0xC0, 0xFF, 0x3F, 0x00, 0x00, 0x00, 0x00, 0x00, 0x00, 0x00, 
  0x00, 0x00, 0x00, 0x00, 0x00, 0x00, 0x00, 0x00, 0x00, 0x00, 0x00, 0x00, 
  0x00, 0x00, 0x00, 0x00, 0x00, 0x00, 0x00, 0x00, 0x00, 0x00, 0x00, 0x00, 
  0x00, 0x00, 0x00, 0x00, 0x00, 0x00, 0x00, 0x00, 0x00, 0x00, 0x00, 0x00, 
  0x00, 0x00, 0x00, 0x00, 0x00, 0x00, 0x00, 0x00, 0x00, 0x00, 0x00, 0x00, 
  0x00, 0x00, 0x00, 0x00, 0x00, 0x00, 0x00, 0x00, 0x00, 0x00, 0x00, 0x00, 
  0x00, 0x00, 0x00, 0x00, 0x00, 0x00, 0x00, 0x00, 0x00, 0x00, 0x00, 0x00, 
  0x00, 0x00, 0x00, 0x00, 0x00, 0x00, 0x00, 0x00, 0x00, 0x00, 0x00, 0x00, 
  0x00, 0x00, 0x00, 0x00, 0x00, 0x00, 0x00, 0x00, 0x00, 0x00, 0x00, 0x00, 
  0x00, 0x00, 0x00, 0x00, 0x00, 0x00, 0x00, 0x00, 0x00, 0x00, 0x00, 0x00, 
  0x00, 0x00, 0x00, 0x00, 0x00, 0x00, 0x00, 0x00, 0x00, 0x00, 0x00, 0x00, 
  0x00, 0x00, 0x00, 0x00, 0x00, 0x00, 0x00, 0x00, 0x00, 0x00, 0x00, 0x00, 
  0x00, 0x00, 0x00, 0x00, 0x00, 0x00, 0x00, 0x00, 0x00, 0x00, 0x00, 0x00, 
  0x00, 0x00, 0x00, 0x00, 0x00, 0x00, 0x00, 0x00, 0x00, 0x00, 0x00, 0x00, 
  0x00, 0x00, 0x00, 0x00, 0x00, 0x00, 0x00, 0x00, 0x00, 0x00, 0x00, 0x00, 
  0x00, 0x00, 0x00, 0x00, 0x00, 0x00, 0x00, 0x00, 0x00, 0x00, 0x00, 0x00, 
  0x00, 0x00, 0x00, 0x00, 0x00, 0x00, 0x00, 0x00, 0x00, 0x00, 0x00, 0x00, 
  0x00, 0x00, 0x00, 0x00, 0x00, 0x00, 0x00, 0x00, 0x00, 0x00, 0x00, 0x00, 
  0x00, 0x00, 0x00, 0x00, 0x00, 0x00, 0x00, 0x00, 0x00, 0x00, 0x00, 0x00, 
  0x00, 0x00, 0x00, 0x00, 0x00, 0x00, 0x00, 0x00, 0x00, 0x00, 0x00, 0x00, 
  0x00, 0x00, 0x00, 0x00, 0x00, 0x00, 0x00, 0x00, 0x00, 0x00, 0x00, 0x00, 
  0x00, 0x00, 0x00, 0x00, 0x00, 0x00, 0x00, 0x00, 0x00, 0x00, 0x00, 0x00, 
  0x00, 0x00, 0x00, 0x00, 0x00, 0x00, 0x00, 0x00, 0x00, 0x00, 0x00, 0x00, 
  0x00, 0x00, 0x00, 0x00, 0x00, 0x00, 0x00, 0x00, 0x00, 0x00, 0x00, 0x00, 
  0x00, 0x00, 0x00, 0x00, 0x00, 0x00, 0x00, 0x00, 0x00, 0x00, 0x00, 0x00, 
  0x00, 0x00, 0x00, 0x00, 0x00, 0x00, 0x00, 0x00, 0x00, 0x00, 0x00, 0x00, 
  0x00, 0x00, 0x00, 0x00, 0x00, 0x00, 0x00, 0x00, 0x00, 0x00, 0x00, 0x00, 
  0x00, 0x00, 0x00, 0x00, 0x00, 0x00, 0x00, 0x00, 0x00, 0x00, 0x00, 0x00, 
  0x00, 0x00, 0x00, 0x00, 0x00, 0x00, 0x00, 0x00, 0x00, 0x00, 0x00, 0x00, 
  0x00, 0x00, 0x00, 0x00, 0x00, 0x00, 0x00, 0x00, 0x00, 0x00, 0x00, 0x00, 
  0x00, 0x00, 0x00, 0x00, 0x00, 0x00, 0x00, 0x00, 0x00, 0x00, 0x00, 0x00, 
  0x00, 0x00, 0x00, 0x00, 0x00, 0x00, 0x00, 0x00, 0x00, 0x00, 0x00, 0x00, 
  0x00, 0x00, 0x00, 0x00, 0x00, 0x00, 0x00, 0x00, 0x00, 0x00, 0x00, 0x00, 
  0x00, 0x00, 0x00, 0x00, 0x00, 0x00, 0x00, 0x00, 0x00, 0x00, 0x00, 0x00, 
  0x00, 0x00, 0x00, 0x00, 0x00, 0x00, 0x00, 0x00, 0x00, 0x00, 0x00, 0x00, 
  0x00, 0x00, 0x00, 0x00, 0x00, 0x00, 0x00, 0x00, 0x00, 0x00, 0x00, 0x00, 
  0x00, 0x00, 0x00, 0x00, 0x00, 0x00, 0x00, 0x00, 0x00, 0x00, 0x00, 0x00, 
  0x00, 0x00, 0x00, 0x00, 0x00, 0x00, 0x00, 0x00, 0x00, 0x00, 0x00, 0x00, 
  0x00, 0x00, 0x00, 0x00, 0x00, 0x00, 0x00, 0x00, 0x00, 0x00, 0x00, 0x00, 
  0x00, 0x00, 0x00, 0x00, 0x00, 0x00, 0x00, 0x00, 0x00, 0x00, 0x00, 0x00, 
  0x00, 0x00, 0x00, 0x00, 0x00, 0x00, 0x00, 0x00, };
