#define Apogee_width 256
#define Apogee_height 64
static char Apogee_bits[] = {
  0x00, 0x00, 0x00, 0x00, 0x00, 0x00, 0x00, 0x00, 0x00, 0x00, 0x00, 0x00, 
  0x00, 0x00, 0x00, 0x00, 0x00, 0x00, 0x00, 0x00, 0x00, 0x00, 0x00, 0x00, 
  0x00, 0x00, 0x00, 0x00, 0x00, 0x00, 0x00, 0x00, 0x00, 0x00, 0x00, 0x00, 
  0x00, 0x00, 0x00, 0x00, 0x00, 0x00, 0x00, 0x00, 0x00, 0x00, 0x00, 0x00, 
  0x00, 0x00, 0x00, 0x00, 0x00, 0x00, 0x00, 0x00, 0x00, 0x00, 0x00, 0x00, 
  0x00, 0x00, 0x00, 0x00, 0x00, 0x00, 0x00, 0x00, 0x00, 0x00, 0x00, 0x00, 
  0x00, 0x00, 0x00, 0x00, 0x00, 0x00, 0x00, 0x00, 0x00, 0x00, 0x00, 0x00, 
  0x00, 0x00, 0x00, 0x00, 0x00, 0x00, 0x00, 0x00, 0x00, 0x00, 0x00, 0x00, 
  0x00, 0x00, 0x00, 0x00, 0x00, 0x00, 0x00, 0x00, 0x00, 0x00, 0x00, 0x00, 
  0x00, 0x00, 0x00, 0x00, 0x00, 0x00, 0x00, 0x00, 0x00, 0x00, 0x00, 0x00, 
  0x00, 0x00, 0x00, 0x00, 0x00, 0x00, 0x00, 0x00, 0x00, 0x00, 0x00, 0x00, 
  0x00, 0x00, 0x00, 0x00, 0x00, 0x00, 0x00, 0x00, 0x00, 0x00, 0x00, 0x00, 
  0x00, 0x00, 0x00, 0x00, 0x00, 0x00, 0x00, 0x00, 0x00, 0x00, 0x00, 0x00, 
  0x00, 0x00, 0x00, 0x00, 0x00, 0x00, 0x00, 0x00, 0x00, 0x00, 0x00, 0x00, 
  0x00, 0x00, 0x00, 0x00, 0x00, 0x00, 0x00, 0x00, 0x00, 0x00, 0x00, 0x00, 
  0x00, 0x00, 0x00, 0x00, 0x00, 0x00, 0x00, 0x00, 0x00, 0x00, 0x00, 0x00, 
  0x00, 0x00, 0x00, 0x00, 0x00, 0x00, 0x00, 0x00, 0x00, 0x00, 0x00, 0x00, 
  0x00, 0x00, 0x00, 0x00, 0x00, 0x00, 0x00, 0x00, 0x00, 0x00, 0x00, 0x00, 
  0x00, 0x00, 0x00, 0x00, 0x00, 0x00, 0x00, 0x00, 0x00, 0x00, 0x00, 0x00, 
  0x00, 0x00, 0x00, 0x00, 0x00, 0x00, 0x00, 0x00, 0x00, 0x00, 0x00, 0x00, 
  0x00, 0x00, 0x00, 0x00, 0x00, 0x00, 0x00, 0x00, 0x00, 0x00, 0x00, 0x00, 
  0x00, 0x00, 0x00, 0x00, 0x00, 0x00, 0x00, 0x00, 0x00, 0x00, 0x00, 0x00, 
  0x00, 0x00, 0x00, 0x00, 0x00, 0x00, 0x00, 0x00, 0x00, 0x00, 0x00, 0x00, 
  0x00, 0x00, 0x00, 0x00, 0x00, 0x00, 0x00, 0x00, 0x00, 0x00, 0x00, 0x00, 
  0x00, 0x00, 0x00, 0x00, 0x00, 0x00, 0x00, 0x00, 0x00, 0x00, 0x00, 0x00, 
  0x00, 0x00, 0x00, 0x00, 0x00, 0x00, 0x00, 0x00, 0x00, 0x00, 0x00, 0x00, 
  0x00, 0x00, 0x00, 0x00, 0x00, 0x00, 0x00, 0x00, 0x00, 0x00, 0x00, 0x00, 
  0x00, 0x00, 0x00, 0x00, 0x00, 0x00, 0x00, 0x00, 0x00, 0x00, 0x00, 0x00, 
  0x00, 0x00, 0x00, 0x00, 0x00, 0x00, 0x00, 0x00, 0x00, 0x00, 0x00, 0x00, 
  0x00, 0x00, 0x00, 0x00, 0x00, 0x00, 0x00, 0x00, 0x00, 0x00, 0x00, 0x00, 
  0x00, 0x00, 0x00, 0x00, 0x00, 0x00, 0x00, 0x00, 0x00, 0x00, 0x00, 0x00, 
  0x00, 0x00, 0x00, 0x00, 0x00, 0x00, 0x00, 0x00, 0x00, 0x00, 0x00, 0x00, 
  0x00, 0x00, 0x00, 0x00, 0x00, 0x00, 0x00, 0x00, 0x00, 0x00, 0x00, 0x00, 
  0x00, 0x00, 0x00, 0x00, 0x00, 0x00, 0x00, 0x00, 0x00, 0x00, 0x00, 0x00, 
  0x00, 0x00, 0x00, 0x00, 0x00, 0x00, 0x00, 0x00, 0x00, 0x00, 0x00, 0x00, 
  0x00, 0x00, 0x00, 0x00, 0x00, 0x00, 0x00, 0x00, 0x00, 0x00, 0x00, 0x00, 
  0x00, 0x00, 0x00, 0x00, 0x00, 0x00, 0x00, 0x00, 0x00, 0x00, 0x00, 0x00, 
  0x00, 0x00, 0x00, 0x00, 0x00, 0x00, 0x00, 0x00, 0x00, 0x00, 0x00, 0x00, 
  0x00, 0x00, 0x00, 0x00, 0x00, 0x00, 0x00, 0x00, 0x00, 0x00, 0x00, 0x00, 
  0x00, 0x00, 0x00, 0x00, 0x00, 0x00, 0x00, 0x00, 0x00, 0x00, 0x00, 0x00, 
  0x00, 0x00, 0x00, 0x00, 0x00, 0x00, 0x00, 0x00, 0x00, 0x00, 0x00, 0x00, 
  0x00, 0x00, 0x00, 0x00, 0x00, 0x00, 0x00, 0x00, 0x00, 0x00, 0x00, 0x00, 
  0x00, 0x00, 0x00, 0x00, 0x00, 0x00, 0x00, 0x00, 0x00, 0x00, 0x00, 0x00, 
  0x00, 0x00, 0x00, 0x00, 0x00, 0x00, 0x00, 0x00, 0x00, 0x00, 0x03, 0x00, 
  0x00, 0x00, 0x00, 0x00, 0x00, 0x00, 0x00, 0x00, 0x00, 0x00, 0x00, 0x00, 
  0x00, 0x00, 0x00, 0x00, 0x00, 0x00, 0x00, 0x00, 0x00, 0x00, 0x00, 0x00, 
  0x00, 0x00, 0x00, 0x00, 0x00, 0x80, 0x07, 0x00, 0x00, 0x00, 0x00, 0x00, 
  0x00, 0x00, 0x00, 0x00, 0x00, 0x00, 0x00, 0x00, 0x00, 0x00, 0x00, 0x00, 
  0x00, 0x00, 0x00, 0x00, 0x00, 0x00, 0x00, 0x00, 0x00, 0x00, 0x00, 0x00, 
  0x00, 0x80, 0x04, 0x00, 0x00, 0x00, 0x00, 0x00, 0x00, 0x00, 0x00, 0x00, 
  0x00, 0x00, 0x00, 0x00, 0x00, 0x00, 0x00, 0x00, 0x00, 0x00, 0x00, 0x00, 
  0x00, 0x00, 0x00, 0x00, 0x00, 0x00, 0x00, 0x00, 0x00, 0x80, 0x07, 0x00, 
  0x00, 0x00, 0x00, 0x00, 0x00, 0x00, 0x00, 0x00, 0x00, 0x00, 0x00, 0x00, 
  0x00, 0x00, 0x00, 0x00, 0x00, 0x00, 0x00, 0x00, 0x00, 0x00, 0x00, 0x00, 
  0x00, 0x00, 0x00, 0x00, 0x00, 0x00, 0x03, 0x00, 0x00, 0x00, 0x00, 0x00, 
  0x00, 0x00, 0x00, 0x00, 0x00, 0x00, 0x00, 0x00, 0x00, 0x00, 0x00, 0x00, 
  0x00, 0x00, 0x00, 0x00, 0x00, 0x00, 0xF8, 0x00, 0x00, 0x00, 0xE0, 0xFF, 
  0x03, 0x00, 0x00, 0x00, 0x00, 0x00, 0x00, 0x00, 0x00, 0x00, 0x00, 0x00, 
  0x00, 0x80, 0x0F, 0x00, 0x00, 0x00, 0x00, 0x00, 0x80, 0x0F, 0x00, 0xFF, 
  0x7F, 0x00, 0xFE, 0x07, 0xF0, 0xFF, 0xF1, 0xFF, 0xC7, 0x06, 0xF0, 0x00, 
  0x00, 0x00, 0xF0, 0xFF, 0x0F, 0x36, 0x80, 0x0D, 0x00, 0xE0, 0x7F, 0x00, 
  0x1B, 0x58, 0x00, 0x1B, 0xC0, 0x1D, 0x80, 0x03, 0xF0, 0x80, 0x07, 0x1E, 
  0xF8, 0xFF, 0x19, 0x00, 0xC0, 0x06, 0xF8, 0x01, 0x00, 0x00, 0xF8, 0xFF, 
  0x0F, 0x36, 0xC0, 0x06, 0x00, 0x78, 0xE0, 0x01, 0x1B, 0x58, 0x00, 0x1B, 
  0x60, 0x38, 0xC0, 0x00, 0xC0, 0xC0, 0xF9, 0x39, 0x18, 0x00, 0xC8, 0xFF, 
  0xC7, 0x06, 0x8C, 0x01, 0x00, 0x00, 0x0C, 0x00, 0x00, 0x36, 0xC0, 0x06, 
  0x00, 0x9C, 0x9F, 0x03, 0x1B, 0x58, 0x00, 0x1B, 0x70, 0x37, 0xC0, 0xFE, 
  0xBF, 0x61, 0xFE, 0x77, 0x98, 0xFF, 0xED, 0xFF, 0xC7, 0x06, 0x8C, 0x01, 
  0x00, 0x00, 0xCC, 0xFF, 0x0F, 0x36, 0x60, 0x03, 0x00, 0xE6, 0x7F, 0x07, 
  0x1B, 0x58, 0x00, 0x1B, 0xB0, 0x6F, 0xC0, 0x06, 0xB0, 0x71, 0x07, 0x6E, 
  0xD8, 0xFF, 0x6D, 0x00, 0xC0, 0x06, 0xB6, 0x01, 0x00, 0x00, 0xEC, 0xFF, 
  0x0F, 0x36, 0x60, 0x03, 0x00, 0x77, 0xE0, 0x06, 0x1B, 0x58, 0x00, 0x1B, 
  0xB0, 0x6D, 0xC0, 0x06, 0xB0, 0xB1, 0x01, 0xDC, 0xD8, 0x00, 0x6C, 0x00, 
  0xC0, 0x06, 0xB3, 0x01, 0x00, 0x00, 0x6C, 0x00, 0x00, 0x36, 0xB0, 0x01, 
  0x00, 0x1B, 0xC0, 0x0D, 0x1B, 0x58, 0x00, 0x1B, 0xD0, 0x6C, 0xC0, 0x06, 
  0xB0, 0xD9, 0x01, 0xD8, 0xD8, 0x00, 0x6C, 0x00, 0xC0, 0x06, 0xBB, 0x01, 
  0x00, 0x00, 0x6C, 0x00, 0x00, 0x36, 0xB0, 0x01, 0x80, 0x1D, 0x80, 0x0D, 
  0x1B, 0x58, 0x00, 0x1B, 0xD8, 0xD8, 0xC0, 0x06, 0xB0, 0xD9, 0x00, 0xB0, 
  0xD9, 0x00, 0x6C, 0x00, 0xC0, 0x86, 0xBD, 0x01, 0x00, 0x00, 0x6C, 0x00, 
  0x00, 0x36, 0xD8, 0x00, 0x80, 0x0D, 0x00, 0x1B, 0x1B, 0x58, 0x00, 0x1B, 
  0xD8, 0xD8, 0xC0, 0x06, 0xB0, 0xD9, 0x00, 0xB0, 0xD9, 0x00, 0x6C, 0xFE, 
  0xC7, 0xC6, 0xAC, 0x01, 0x30, 0x00, 0x6C, 0xFE, 0x07, 0xB6, 0xDF, 0x00, 
  0x80, 0x0D, 0x00, 0x1B, 0x1B, 0x58, 0x00, 0x1B, 0xD8, 0xD8, 0xC0, 0x06, 
  0xB0, 0x59, 0x00, 0xB0, 0xD9, 0x00, 0x6C, 0xFE, 0xC7, 0xC6, 0xA6, 0x01, 
  0x78, 0x00, 0x6C, 0xFE, 0x0F, 0x36, 0x60, 0x00, 0x80, 0x05, 0x00, 0x1B, 
  0x1B, 0x58, 0x00, 0x1B, 0x68, 0xD8, 0xC0, 0x06, 0xB0, 0x59, 0x00, 0xB0, 
  0xD9, 0x00, 0x6C, 0xFE, 0xC7, 0x66, 0xA7, 0x01, 0x48, 0x00, 0x6C, 0x00, 
  0x18, 0x36, 0x60, 0x00, 0x80, 0x05, 0x00, 0x1B, 0x1B, 0x58, 0x00, 0x1B, 
  0x6C, 0xB0, 0xC0, 0x06, 0xB0, 0xD9, 0x00, 0xB0, 0xD9, 0x00, 0x6C, 0xFE, 
  0xC7, 0x36, 0xA3, 0x01, 0x78, 0x00, 0x6C, 0xFE, 0x1B, 0xB6, 0xDF, 0x00, 
  0x80, 0x0D, 0x00, 0x1B, 0x1B, 0x58, 0x00, 0x1B, 0x6C, 0xB0, 0xC1, 0x06, 
  0xB0, 0xD9, 0x00, 0xB0, 0xD9, 0x00, 0x6C, 0x00, 0xC0, 0xB6, 0xA1, 0x01, 
  0x30, 0x00, 0x6C, 0xFE, 0x13, 0x36, 0x98, 0x00, 0x80, 0x0D, 0x00, 0x1B, 
  0x1B, 0x58, 0x00, 0x1B, 0x6C, 0xB7, 0xC1, 0x06, 0xB0, 0xD9, 0x00, 0x98, 
  0xD8, 0x00, 0x6C, 0x00, 0xC0, 0xDE, 0xA1, 0x01, 0x00, 0x00, 0x6C, 0x00, 
  0x16, 0x36, 0xB0, 0x01, 0x80, 0x0D, 0x80, 0x09, 0x1B, 0x58, 0x00, 0x1B, 
  0xB4, 0xBF, 0xC1, 0x06, 0xB0, 0xB1, 0x01, 0xD8, 0xD8, 0x00, 0x6C, 0x00, 
  0xC0, 0xCE, 0xA0, 0x01, 0x00, 0x00, 0x6C, 0x00, 0x16, 0x36, 0xB0, 0x01, 
  0x00, 0x1B, 0x80, 0x0D, 0x1B, 0x58, 0x00, 0x1B, 0x36, 0x60, 0xC3, 0x06, 
  0xB0, 0x31, 0x03, 0xEE, 0xD8, 0x00, 0x6C, 0x00, 0xC0, 0x6E, 0xA0, 0x01, 
  0x00, 0x00, 0x6C, 0x00, 0x16, 0x36, 0x60, 0x03, 0x00, 0x33, 0xE0, 0x0E, 
  0x1B, 0x58, 0x00, 0x1B, 0xF6, 0x6F, 0xC3, 0x06, 0xB0, 0x61, 0xFE, 0x67, 
  0xD8, 0x00, 0xEC, 0xFF, 0xC7, 0x76, 0xA0, 0x01, 0x00, 0x00, 0x6C, 0xFE, 
  0x13, 0x36, 0x60, 0x03, 0x00, 0xE6, 0x7F, 0x06, 0x1B, 0xD8, 0xFF, 0xDB, 
  0xB6, 0x6F, 0xC3, 0x06, 0xB0, 0xC1, 0xFC, 0x39, 0xD8, 0x00, 0xC8, 0xFF, 
  0xC7, 0x30, 0xA0, 0x01, 0x00, 0x00, 0x6C, 0xFE, 0x1B, 0x36, 0xC0, 0x06, 
  0x00, 0xCC, 0x9F, 0x03, 0x1B, 0xD8, 0xFF, 0xDB, 0x1A, 0x60, 0xC3, 0x06, 
  0xB0, 0x81, 0x03, 0x1C, 0xD8, 0x00, 0x18, 0x00, 0x80, 0x19, 0xA0, 0x01, 
  0x00, 0x00, 0x6C, 0x00, 0x1C, 0x36, 0xC0, 0x06, 0x00, 0x38, 0xC0, 0x01, 
  0x1B, 0x38, 0x00, 0xD8, 0x1B, 0xC0, 0xC6, 0x06, 0xB0, 0x01, 0xFF, 0x0F, 
  0xD8, 0x00, 0xF0, 0xFF, 0x87, 0x0F, 0xA0, 0x01, 0x00, 0x00, 0x6C, 0xFE, 
  0x0F, 0x36, 0x80, 0x0D, 0x00, 0xF0, 0xFF, 0x00, 0x1B, 0xF0, 0xFF, 0xDB, 
  0x1B, 0xC0, 0xC6, 0x02, 0xB0, 0x00, 0xFC, 0x01, 0xD8, 0x00, 0xE0, 0xFF, 
  0x03, 0x07, 0x20, 0x01, 0x00, 0x00, 0x6C, 0xFE, 0x03, 0x36, 0x80, 0x0D, 
  0x00, 0xC0, 0x1F, 0x00, 0x1B, 0xC0, 0xFF, 0xDB, 0x00, 0x00, 0x00, 0x00, 
  0x00, 0x00, 0x00, 0x00, 0x00, 0x00, 0x00, 0x00, 0x00, 0x00, 0x00, 0x00, 
  0x00, 0x00, 0x00, 0x00, 0x00, 0x00, 0x00, 0x00, 0x00, 0x00, 0x00, 0x00, 
  0x00, 0x00, 0x00, 0xD8, 0x00, 0x00, 0x00, 0x00, 0x00, 0x00, 0x00, 0x00, 
  0x00, 0x00, 0x00, 0x00, 0x00, 0x00, 0x00, 0x00, 0x00, 0x00, 0x00, 0x00, 
  0x00, 0x00, 0x00, 0x00, 0x00, 0x00, 0x00, 0x00, 0x00, 0x00, 0x00, 0xD8, 
  0x00, 0x00, 0x00, 0x00, 0x00, 0x00, 0x00, 0x00, 0x00, 0x00, 0x00, 0x00, 
  0x00, 0x00, 0x00, 0x00, 0x00, 0x00, 0x00, 0x00, 0x00, 0x00, 0x00, 0x00, 
  0x00, 0x00, 0x00, 0x00, 0x00, 0x00, 0x00, 0xD8, 0x00, 0x00, 0x00, 0x00, 
  0x00, 0x00, 0x00, 0x00, 0x00, 0x00, 0x00, 0x00, 0x00, 0x00, 0x00, 0x00, 
  0x00, 0x00, 0x00, 0x00, 0x00, 0x00, 0x00, 0x00, 0x00, 0x00, 0x00, 0x00, 
  0x00, 0x00, 0x00, 0x00, 0x00, 0x00, 0x00, 0x00, 0x00, 0x00, 0x00, 0x00, 
  0x00, 0x00, 0x00, 0x00, 0x00, 0x00, 0x00, 0x00, 0x00, 0x00, 0x00, 0x00, 
  0x00, 0x00, 0x00, 0x00, 0x00, 0x00, 0x00, 0x00, 0x00, 0x00, 0x00, 0x00, 
  0x00, 0x00, 0x00, 0x00, 0x00, 0x00, 0x00, 0x00, 0x00, 0x00, 0x00, 0x00, 
  0x00, 0x00, 0x00, 0x00, 0x00, 0x00, 0x00, 0x00, 0x00, 0x00, 0x00, 0x00, 
  0x00, 0x00, 0x00, 0x00, 0x00, 0x00, 0x00, 0x00, 0x00, 0x00, 0x00, 0x00, 
  0x00, 0x00, 0x00, 0x00, 0x00, 0x00, 0x00, 0x00, 0x00, 0x00, 0x00, 0x00, 
  0x00, 0x00, 0x00, 0x00, 0x00, 0x00, 0x00, 0x00, 0x00, 0x00, 0x00, 0x00, 
  0x00, 0x00, 0x00, 0x00, 0x00, 0x00, 0x00, 0x00, 0x00, 0x00, 0x00, 0x00, 
  0x00, 0x00, 0x00, 0x00, 0x00, 0x00, 0x00, 0x00, 0x00, 0x00, 0x00, 0x00, 
  0x00, 0x00, 0x00, 0x00, 0x00, 0x00, 0x00, 0x00, 0x00, 0x00, 0x00, 0x00, 
  0x00, 0x00, 0x00, 0x00, 0x00, 0x00, 0x00, 0x00, 0x00, 0x00, 0x00, 0x00, 
  0x00, 0x00, 0x00, 0x00, 0x00, 0x00, 0x00, 0x00, 0x00, 0x00, 0x00, 0x00, 
  0x00, 0x00, 0x00, 0x00, 0x00, 0x00, 0x00, 0x00, 0x00, 0x00, 0x00, 0x00, 
  0x00, 0x00, 0x00, 0x00, 0x00, 0x00, 0x00, 0x00, 0x00, 0x00, 0x00, 0x00, 
  0x00, 0x00, 0x00, 0x00, 0x00, 0x00, 0x00, 0x00, 0x00, 0x00, 0x00, 0x00, 
  0x00, 0x00, 0x00, 0x00, 0x00, 0x00, 0x00, 0x00, 0x00, 0x00, 0x00, 0x00, 
  0x00, 0x00, 0x00, 0x00, 0x00, 0x00, 0x00, 0x00, 0x00, 0x00, 0x00, 0x00, 
  0x00, 0x00, 0x00, 0x00, 0x00, 0x00, 0x00, 0x00, 0x00, 0x00, 0x00, 0x00, 
  0x00, 0x00, 0x00, 0x00, 0x00, 0x00, 0x00, 0x00, 0x00, 0x00, 0x00, 0x00, 
  0x00, 0x00, 0x00, 0x00, 0x00, 0x00, 0x00, 0x00, 0x00, 0x00, 0x00, 0x00, 
  0x00, 0x00, 0x00, 0x00, 0x00, 0x00, 0x00, 0x00, 0x00, 0x00, 0x00, 0x00, 
  0x00, 0x00, 0x00, 0x00, 0x00, 0x00, 0x00, 0x00, 0x00, 0x00, 0x00, 0x00, 
  0x00, 0x00, 0x00, 0x00, 0x00, 0x00, 0x00, 0x00, 0x00, 0x00, 0x00, 0x00, 
  0x00, 0x00, 0x00, 0x00, 0x00, 0x00, 0x00, 0x00, 0x00, 0x00, 0x00, 0x00, 
  0x00, 0x00, 0x00, 0x00, 0x00, 0x00, 0x00, 0x00, 0x00, 0x00, 0x00, 0x00, 
  0x00, 0x00, 0x00, 0x00, 0x00, 0x00, 0x00, 0x00, 0x00, 0x00, 0x00, 0x00, 
  0x00, 0x00, 0x00, 0x00, 0x00, 0x00, 0x00, 0x00, 0x00, 0x00, 0x00, 0x00, 
  0x00, 0x00, 0x00, 0x00, 0x00, 0x00, 0x00, 0x00, 0x00, 0x00, 0x00, 0x00, 
  0x00, 0x00, 0x00, 0x00, 0x00, 0x00, 0x00, 0x00, 0x00, 0x00, 0x00, 0x00, 
  0x00, 0x00, 0x00, 0x00, 0x00, 0x00, 0x00, 0x00, 0x00, 0x00, 0x00, 0x00, 
  0x00, 0x00, 0x00, 0x00, 0x00, 0x00, 0x00, 0x00, 0x00, 0x00, 0x00, 0x00, 
  0x00, 0x00, 0x00, 0x00, 0x00, 0x00, 0x00, 0x00, 0x00, 0x00, 0x00, 0x00, 
  0x00, 0x00, 0x00, 0x00, 0x00, 0x00, 0x00, 0x00, 0x00, 0x00, 0x00, 0x00, 
  0x00, 0x00, 0x00, 0x00, 0x00, 0x00, 0x00, 0x00, 0x00, 0x00, 0x00, 0x00, 
  0x00, 0x00, 0x00, 0x00, 0x00, 0x00, 0x00, 0x00, 0x00, 0x00, 0x00, 0x00, 
  0x00, 0x00, 0x00, 0x00, 0x00, 0x00, 0x00, 0x00, 0x00, 0x00, 0x00, 0x00, 
  0x00, 0x00, 0x00, 0x00, 0x00, 0x00, 0x00, 0x00, 0x00, 0x00, 0x00, 0x00, 
  0x00, 0x00, 0x00, 0x00, 0x00, 0x00, 0x00, 0x00, 0x00, 0x00, 0x00, 0x00, 
  0x00, 0x00, 0x00, 0x00, 0x00, 0x00, 0x00, 0x00, 0x00, 0x00, 0x00, 0x00, 
  0x00, 0x00, 0x00, 0x00, 0x00, 0x00, 0x00, 0x00, 0x00, 0x00, 0x00, 0x00, 
  0x00, 0x00, 0x00, 0x00, 0x00, 0x00, 0x00, 0x00, 0x00, 0x00, 0x00, 0x00, 
  0x00, 0x00, 0x00, 0x00, 0x00, 0x00, 0x00, 0x00, 0x00, 0x00, 0x00, 0x00, 
  0x00, 0x00, 0x00, 0x00, 0x00, 0x00, 0x00, 0x00, 0x00, 0x00, 0x00, 0x00, 
  0x00, 0x00, 0x00, 0x00, 0x00, 0x00, 0x00, 0x00, 0x00, 0x00, 0x00, 0x00, 
  0x00, 0x00, 0x00, 0x00, 0x00, 0x00, 0x00, 0x00, };
