#define avsp_width 256
#define avsp_height 64
static unsigned char avsp_bits[] = {
   0x00, 0x00, 0x00, 0x00, 0x00, 0x00, 0x00, 0x00, 0x00, 0x00, 0x00, 0x00,
   0x00, 0x00, 0x00, 0x00, 0x00, 0x00, 0x00, 0x00, 0x00, 0x00, 0x00, 0x00,
   0x00, 0x00, 0x00, 0x00, 0x00, 0x00, 0x00, 0x00, 0x00, 0x00, 0x00, 0x00,
   0x00, 0x00, 0x00, 0x00, 0x00, 0x00, 0x00, 0x00, 0x00, 0x00, 0x00, 0x00,
   0x00, 0x00, 0x00, 0x00, 0x00, 0x00, 0x00, 0x00, 0x00, 0x00, 0x00, 0x00,
   0x00, 0x00, 0x00, 0x00, 0x00, 0x00, 0x00, 0x00, 0x00, 0x00, 0x00, 0x00,
   0x00, 0x78, 0x00, 0x00, 0xf0, 0x00, 0x00, 0x00, 0x00, 0x80, 0x1f, 0x00,
   0x80, 0xe7, 0x01, 0x00, 0x00, 0x00, 0x00, 0x00, 0x00, 0x00, 0x00, 0x00,
   0x00, 0x00, 0x00, 0x00, 0x00, 0x00, 0x00, 0x00, 0x00, 0xf8, 0x00, 0x00,
   0xf0, 0x00, 0x00, 0x10, 0x00, 0x80, 0x3f, 0x00, 0x80, 0xe7, 0x01, 0x00,
   0x00, 0x00, 0x00, 0x00, 0x00, 0x00, 0x00, 0x00, 0x00, 0x00, 0x00, 0x00,
   0x00, 0x00, 0x00, 0x00, 0x00, 0xf8, 0x00, 0x00, 0xf0, 0x00, 0x00, 0x18,
   0x00, 0x80, 0x1f, 0x00, 0xc0, 0xe7, 0x01, 0x00, 0x00, 0x00, 0x00, 0x00,
   0x00, 0x00, 0x00, 0x00, 0x00, 0x00, 0x00, 0x00, 0x00, 0x00, 0x00, 0x00,
   0x00, 0xf8, 0x00, 0x00, 0xf0, 0x00, 0x00, 0x38, 0x00, 0x80, 0x3f, 0x00,
   0x80, 0xef, 0x01, 0x00, 0x00, 0x00, 0x00, 0x00, 0x00, 0x00, 0x00, 0x00,
   0x00, 0x00, 0x00, 0x00, 0x00, 0x00, 0x00, 0x00, 0x00, 0xf8, 0x00, 0x00,
   0xf0, 0x00, 0x00, 0x38, 0x00, 0xc0, 0x07, 0x00, 0x80, 0xef, 0x01, 0x00,
   0x00, 0x00, 0x00, 0x00, 0x00, 0x00, 0x00, 0x00, 0x00, 0x00, 0x00, 0x00,
   0x00, 0x00, 0x00, 0x00, 0x00, 0xf8, 0x00, 0x00, 0xf0, 0x00, 0x00, 0x38,
   0x00, 0x80, 0x07, 0x00, 0x80, 0xef, 0x01, 0x00, 0x00, 0x00, 0x00, 0x00,
   0x00, 0x00, 0x00, 0x00, 0x00, 0x00, 0x00, 0x00, 0x00, 0x00, 0x00, 0x00,
   0x00, 0xfc, 0x00, 0x00, 0xf0, 0x00, 0x80, 0x38, 0x00, 0x80, 0x07, 0x00,
   0xc0, 0xff, 0x01, 0x00, 0x00, 0x00, 0x00, 0x00, 0x00, 0x00, 0x00, 0x00,
   0x00, 0x00, 0x00, 0x00, 0x00, 0x00, 0x00, 0x00, 0x00, 0xfc, 0x00, 0x00,
   0xf0, 0x00, 0x00, 0x3c, 0x00, 0x80, 0x07, 0x00, 0x80, 0xff, 0x03, 0x00,
   0x00, 0x00, 0x00, 0x00, 0x00, 0x00, 0x00, 0x00, 0x00, 0x00, 0x00, 0x00,
   0x00, 0x00, 0x00, 0x00, 0x00, 0xfc, 0x00, 0x00, 0xf0, 0x00, 0x00, 0xbc,
   0x00, 0x80, 0x07, 0x00, 0x80, 0xff, 0x01, 0x00, 0x00, 0x00, 0x00, 0x00,
   0x00, 0x00, 0x00, 0x00, 0x00, 0x00, 0x00, 0x00, 0x00, 0x00, 0x00, 0x00,
   0x00, 0xfc, 0x01, 0x00, 0xf1, 0x00, 0x20, 0x3c, 0x01, 0x80, 0x07, 0x00,
   0x80, 0xff, 0x01, 0x00, 0x00, 0x00, 0x00, 0x00, 0x00, 0x00, 0x00, 0x00,
   0x00, 0x00, 0x00, 0x00, 0x00, 0x00, 0x00, 0x00, 0x00, 0xfc, 0x01, 0x00,
   0xf0, 0x00, 0x00, 0x3c, 0x08, 0x80, 0x07, 0x00, 0xc0, 0xff, 0x01, 0x00,
   0x00, 0x00, 0x00, 0x00, 0x00, 0x00, 0x00, 0x00, 0x00, 0x00, 0x00, 0x00,
   0x00, 0x00, 0x00, 0x00, 0x00, 0xfc, 0x01, 0x00, 0xf0, 0x00, 0x00, 0x7c,
   0x00, 0x80, 0x1f, 0x00, 0x80, 0xff, 0x01, 0x00, 0x00, 0x00, 0x00, 0x00,
   0x00, 0x00, 0x00, 0x00, 0x00, 0x00, 0x00, 0x00, 0x00, 0x00, 0x00, 0x00,
   0x80, 0xdc, 0x03, 0x00, 0xf0, 0x00, 0x20, 0x7c, 0x00, 0x80, 0x1f, 0x00,
   0x80, 0xff, 0x01, 0x00, 0x00, 0x00, 0x00, 0x00, 0x00, 0x00, 0x00, 0x00,
   0x00, 0x00, 0x00, 0x00, 0x00, 0x00, 0x00, 0x00, 0x00, 0xde, 0x03, 0x00,
   0xf0, 0x00, 0x00, 0xfc, 0x10, 0x80, 0x1f, 0x00, 0x80, 0xff, 0x03, 0x00,
   0x00, 0x00, 0x00, 0x00, 0x00, 0x00, 0x00, 0x00, 0x00, 0x00, 0x00, 0x00,
   0x00, 0x00, 0x00, 0x00, 0x00, 0xde, 0x03, 0x00, 0xf0, 0x00, 0x40, 0x7c,
   0x00, 0x80, 0x1f, 0x00, 0xc0, 0xff, 0x01, 0x00, 0x00, 0x00, 0x00, 0x00,
   0x00, 0x00, 0x00, 0x00, 0x00, 0x00, 0x00, 0x00, 0x00, 0x00, 0x00, 0x00,
   0x00, 0xde, 0x03, 0x00, 0xf0, 0x00, 0x00, 0x7c, 0x02, 0x80, 0x07, 0x00,
   0x84, 0xff, 0x01, 0x00, 0x00, 0x00, 0x00, 0x00, 0x00, 0x00, 0x00, 0x00,
   0x00, 0x00, 0x00, 0x00, 0x00, 0x00, 0x00, 0x00, 0x00, 0xfe, 0x03, 0x00,
   0xf0, 0x00, 0x04, 0x3c, 0x10, 0x80, 0x07, 0x00, 0x80, 0xfb, 0x01, 0x00,
   0x00, 0x00, 0x00, 0x00, 0x00, 0x00, 0x00, 0x00, 0x00, 0x00, 0x00, 0x00,
   0x00, 0x00, 0x00, 0x00, 0x00, 0xff, 0x03, 0x00, 0xf0, 0x00, 0x00, 0x7c,
   0x00, 0x80, 0x07, 0x00, 0x80, 0xfb, 0x01, 0x00, 0x00, 0x00, 0x00, 0x00,
   0x00, 0x00, 0x00, 0x00, 0x00, 0x00, 0x00, 0x00, 0x00, 0x00, 0x00, 0x00,
   0x00, 0xff, 0x03, 0x00, 0xf0, 0x00, 0x20, 0x3c, 0x00, 0x80, 0x03, 0x00,
   0xc0, 0xfb, 0x01, 0x00, 0x00, 0x00, 0x00, 0x00, 0x00, 0x00, 0x00, 0x00,
   0x00, 0x00, 0x00, 0x00, 0x00, 0x00, 0x00, 0x00, 0x00, 0x8f, 0x07, 0x00,
   0xf0, 0x00, 0x00, 0x3c, 0x02, 0x80, 0x0b, 0x00, 0x80, 0xfb, 0x03, 0x00,
   0x00, 0x00, 0x00, 0x00, 0x00, 0x00, 0x00, 0x00, 0x00, 0x00, 0x00, 0x00,
   0x00, 0x00, 0x00, 0x00, 0x00, 0x8f, 0x07, 0x00, 0xf0, 0x00, 0x40, 0x38,
   0x00, 0x80, 0x03, 0x00, 0x80, 0xfb, 0x01, 0x00, 0x00, 0x00, 0x00, 0x00,
   0x00, 0x00, 0x00, 0x00, 0x00, 0x00, 0x00, 0x00, 0x00, 0x00, 0x00, 0x00,
   0x00, 0x8f, 0x07, 0x00, 0xf1, 0x00, 0x00, 0x38, 0x04, 0x80, 0x07, 0x00,
   0x80, 0xfb, 0x01, 0x00, 0x00, 0x00, 0x00, 0x00, 0x00, 0x00, 0x00, 0x00,
   0x00, 0x00, 0x00, 0x00, 0x00, 0x00, 0x00, 0x00, 0x00, 0x8f, 0x07, 0x00,
   0xf0, 0x00, 0x00, 0x38, 0x00, 0xc0, 0x03, 0x00, 0x80, 0xf3, 0x01, 0x00,
   0x00, 0x00, 0x00, 0x00, 0x00, 0x00, 0x00, 0x00, 0x00, 0x00, 0x00, 0x00,
   0x00, 0x00, 0x00, 0x00, 0x00, 0x0f, 0x07, 0x00, 0xf0, 0x07, 0x80, 0x38,
   0x00, 0x80, 0x1f, 0x00, 0x88, 0xf3, 0x01, 0x00, 0x00, 0x00, 0x00, 0x00,
   0x00, 0x00, 0x00, 0x00, 0x00, 0x00, 0x00, 0x00, 0x00, 0x00, 0x00, 0x00,
   0x00, 0x07, 0x07, 0x00, 0xf0, 0x07, 0x00, 0x38, 0x00, 0x80, 0x1f, 0x00,
   0x80, 0xf3, 0x01, 0x00, 0x00, 0x00, 0x00, 0x00, 0x00, 0x00, 0x00, 0x00,
   0x00, 0x00, 0x00, 0x00, 0x00, 0x00, 0x00, 0x00, 0x00, 0x07, 0x07, 0x00,
   0xf0, 0x07, 0x00, 0x50, 0x00, 0x80, 0x3f, 0x00, 0x80, 0xf3, 0x01, 0x00,
   0x00, 0x00, 0x00, 0x00, 0x00, 0x00, 0x00, 0x00, 0x00, 0x00, 0x00, 0x00,
   0x00, 0x00, 0x00, 0x00, 0x00, 0x07, 0x07, 0x00, 0xf0, 0x07, 0x00, 0x00,
   0x00, 0x80, 0x1f, 0x00, 0x80, 0xf3, 0x01, 0x00, 0x00, 0x00, 0x00, 0x00,
   0x00, 0x00, 0x00, 0x00, 0x00, 0x00, 0x00, 0x00, 0x00, 0x00, 0x00, 0x00,
   0x00, 0x00, 0x00, 0x00, 0x00, 0x00, 0x10, 0x90, 0x3f, 0x00, 0x00, 0x00,
   0x00, 0x00, 0x00, 0x00, 0x00, 0x00, 0x00, 0x00, 0x00, 0x00, 0x00, 0x00,
   0x00, 0x00, 0x00, 0x00, 0x00, 0x00, 0x00, 0x00, 0x00, 0x00, 0x00, 0x00,
   0x00, 0x00, 0x30, 0xdc, 0x00, 0x00, 0x00, 0x00, 0x00, 0x00, 0x00, 0x00,
   0x00, 0x00, 0x00, 0x00, 0x00, 0x00, 0x00, 0x00, 0x00, 0x00, 0x00, 0x00,
   0x00, 0x00, 0x00, 0x00, 0x00, 0x00, 0x00, 0x00, 0x00, 0x00, 0x60, 0xec,
   0x1f, 0x00, 0x00, 0x00, 0x00, 0x00, 0x00, 0x00, 0x00, 0x00, 0x00, 0x00,
   0x00, 0x00, 0x00, 0x00, 0x00, 0x00, 0x00, 0x00, 0x00, 0x00, 0x00, 0x00,
   0x00, 0x00, 0x00, 0x00, 0x00, 0x00, 0xc0, 0x07, 0x70, 0x00, 0x00, 0x00,
   0x00, 0x00, 0x00, 0x00, 0x00, 0x00, 0x00, 0x00, 0x00, 0x00, 0x00, 0x00,
   0x00, 0x00, 0x00, 0x00, 0x00, 0x00, 0x00, 0x00, 0x00, 0x00, 0x00, 0x00,
   0x00, 0x00, 0x80, 0xe3, 0x7f, 0x00, 0x00, 0x00, 0x00, 0x00, 0x00, 0x00,
   0x00, 0x00, 0x00, 0x00, 0x00, 0x00, 0x00, 0x00, 0x00, 0x00, 0x00, 0x00,
   0x00, 0x00, 0x00, 0x00, 0x00, 0x00, 0x00, 0x00, 0x00, 0x00, 0x00, 0x00,
   0x00, 0x00, 0x00, 0x00, 0x00, 0x00, 0x00, 0x00, 0x00, 0x00, 0x00, 0x00,
   0x00, 0x00, 0x00, 0x00, 0x00, 0x00, 0x00, 0x00, 0x00, 0x00, 0x00, 0xe0,
   0xff, 0xe1, 0xff, 0xc1, 0xff, 0xf7, 0xff, 0x00, 0xfe, 0xf7, 0xff, 0x1f,
   0xff, 0x0f, 0xff, 0x1f, 0x00, 0x00, 0x00, 0x00, 0x00, 0x00, 0x00, 0x00,
   0x00, 0x00, 0x00, 0x00, 0x00, 0x00, 0x00, 0xe0, 0xff, 0xe1, 0xff, 0xc7,
   0xff, 0xf7, 0xff, 0x03, 0xff, 0xf7, 0xff, 0x3f, 0xff, 0x8f, 0xff, 0x1f,
   0x00, 0x00, 0x00, 0x00, 0x00, 0x00, 0x00, 0x00, 0x00, 0x00, 0x00, 0x00,
   0x00, 0x00, 0x00, 0xe0, 0xff, 0xe7, 0xff, 0xcf, 0xff, 0xf7, 0xff, 0x07,
   0xff, 0xff, 0xff, 0xbf, 0xff, 0x9f, 0xff, 0x7f, 0x00, 0x00, 0x00, 0x00,
   0x00, 0x00, 0x00, 0x00, 0x00, 0x00, 0x00, 0x00, 0x00, 0x00, 0x00, 0xe0,
   0xff, 0xef, 0xff, 0xdf, 0xff, 0xf7, 0xff, 0x0f, 0xff, 0xf7, 0xff, 0xbf,
   0xff, 0xff, 0xff, 0xff, 0x00, 0x00, 0x00, 0x00, 0x00, 0x00, 0x00, 0x00,
   0x00, 0x00, 0x00, 0x00, 0x00, 0x00, 0x00, 0xe0, 0xff, 0xef, 0xff, 0xdf,
   0xff, 0xf7, 0xff, 0x0f, 0xff, 0xff, 0xff, 0x9f, 0xff, 0xff, 0xff, 0xff,
   0x00, 0x00, 0x00, 0x00, 0x00, 0x00, 0x00, 0x00, 0x00, 0x00, 0x00, 0x00,
   0x00, 0x00, 0x00, 0xe0, 0xff, 0xef, 0xff, 0xdf, 0xff, 0xf7, 0xff, 0x0f,
   0xff, 0xff, 0xff, 0xdf, 0xff, 0xff, 0xff, 0xff, 0x00, 0x00, 0x00, 0x00,
   0x00, 0x00, 0x00, 0x00, 0x00, 0x00, 0x00, 0x00, 0x00, 0x00, 0x00, 0xe0,
   0xef, 0xef, 0xff, 0xdf, 0x1f, 0xf0, 0xef, 0x8f, 0xff, 0x1f, 0xfe, 0xc1,
   0xbf, 0xff, 0x7f, 0xff, 0x00, 0x00, 0x00, 0x00, 0x00, 0x00, 0x00, 0x00,
   0x00, 0x00, 0x00, 0x00, 0x00, 0x00, 0x00, 0xe0, 0xef, 0xef, 0xff, 0xdf,
   0x1f, 0xf0, 0xef, 0x8f, 0xff, 0x1f, 0xfe, 0xc1, 0xbf, 0xff, 0x7f, 0xff,
   0x00, 0x00, 0x00, 0x00, 0x00, 0x00, 0x00, 0x00, 0x00, 0x00, 0x00, 0x00,
   0x00, 0x00, 0x00, 0xe0, 0xef, 0xef, 0xff, 0xdf, 0x1f, 0xf0, 0xef, 0x8f,
   0xff, 0x1f, 0xfe, 0xc1, 0xbf, 0xff, 0x7f, 0xff, 0x00, 0x00, 0x00, 0x00,
   0x00, 0x00, 0x00, 0x00, 0x00, 0x00, 0x00, 0x00, 0x00, 0x00, 0x00, 0xe0,
   0xef, 0xef, 0xff, 0xdf, 0x1f, 0xf0, 0xef, 0x9f, 0xff, 0x1f, 0xfe, 0xc1,
   0xbf, 0xbf, 0x7f, 0xff, 0x00, 0x00, 0x00, 0x00, 0x00, 0x00, 0x00, 0x00,
   0x00, 0x00, 0x00, 0x00, 0x00, 0x00, 0x00, 0xe0, 0xef, 0xef, 0xef, 0xdf,
   0x7f, 0xf3, 0xef, 0xdf, 0xff, 0x1f, 0xfe, 0xc1, 0xbf, 0xff, 0x7f, 0xff,
   0x00, 0x00, 0x00, 0x00, 0x00, 0x00, 0x00, 0x00, 0x00, 0x00, 0x00, 0x00,
   0x00, 0x00, 0x00, 0xe0, 0xef, 0xef, 0xff, 0xdf, 0xff, 0xf3, 0xef, 0xcf,
   0xff, 0x3f, 0xfe, 0xc1, 0xbf, 0x7f, 0x7f, 0xff, 0x00, 0x00, 0x00, 0x00,
   0x00, 0x00, 0x00, 0x00, 0x00, 0x00, 0x00, 0x00, 0x00, 0x00, 0x00, 0xe0,
   0xef, 0xef, 0xff, 0xdf, 0xff, 0xf7, 0xef, 0xcf, 0xff, 0x3f, 0xfe, 0xc1,
   0xbf, 0xff, 0xff, 0xff, 0x00, 0x00, 0x00, 0x00, 0x00, 0x00, 0x00, 0x00,
   0x00, 0x00, 0x00, 0x00, 0x00, 0x00, 0x00, 0xe0, 0xff, 0xef, 0xff, 0xcf,
   0xff, 0xf7, 0xef, 0xdf, 0xff, 0x3f, 0xfe, 0xc1, 0xbf, 0x7f, 0xff, 0x7f,
   0x00, 0x00, 0x00, 0x00, 0x00, 0x00, 0x00, 0x00, 0x00, 0x00, 0x00, 0x00,
   0x00, 0x00, 0x00, 0xe0, 0xff, 0xef, 0xff, 0xc7, 0xff, 0xf7, 0xef, 0xdf,
   0x9f, 0x3f, 0xfe, 0xc1, 0xbf, 0xff, 0xff, 0x3f, 0x00, 0x00, 0x00, 0x00,
   0x00, 0x00, 0x00, 0x00, 0x00, 0x00, 0x00, 0x00, 0x00, 0x00, 0x00, 0xe0,
   0xff, 0xe7, 0xff, 0xc7, 0xff, 0xf7, 0xef, 0xcf, 0xbf, 0x3f, 0xfe, 0xc1,
   0xbf, 0x7f, 0xff, 0x3f, 0x00, 0x00, 0x00, 0x00, 0x00, 0x00, 0x00, 0x00,
   0x00, 0x00, 0x00, 0x00, 0x00, 0x00, 0x00, 0xe0, 0xff, 0xe3, 0xff, 0xcf,
   0xff, 0xf3, 0xef, 0xef, 0xff, 0x3f, 0xfe, 0x81, 0xbf, 0x7f, 0xff, 0x7f,
   0x00, 0x00, 0x00, 0x00, 0x00, 0x00, 0x00, 0x00, 0x00, 0x00, 0x00, 0x00,
   0x00, 0x00, 0x00, 0xe0, 0xff, 0xe3, 0xef, 0xdf, 0x1f, 0xf0, 0xef, 0xef,
   0xff, 0x7f, 0xfe, 0x81, 0xbf, 0x7f, 0x7f, 0xf7, 0x00, 0x00, 0x00, 0x00,
   0x00, 0x00, 0x00, 0x00, 0x00, 0x00, 0x00, 0x00, 0x00, 0x00, 0x00, 0xe0,
   0x0f, 0xe0, 0xdf, 0xde, 0x1f, 0xb0, 0xef, 0xef, 0xff, 0x7f, 0xfa, 0xc1,
   0xbb, 0x7f, 0x7f, 0xff, 0x00, 0x00, 0x00, 0x00, 0x00, 0x00, 0x00, 0x00,
   0x00, 0x00, 0x00, 0x00, 0x00, 0x00, 0x00, 0xe0, 0x0e, 0xa0, 0xdd, 0xdb,
   0x1e, 0xf0, 0xee, 0xee, 0xee, 0x7e, 0xfe, 0x81, 0xbf, 0x7b, 0x7b, 0xef,
   0x00, 0x00, 0x00, 0x00, 0x00, 0x00, 0x00, 0x00, 0x00, 0x00, 0x00, 0x00,
   0x00, 0x00, 0x00, 0xe0, 0x0d, 0xe0, 0x9f, 0xdf, 0x1f, 0xf0, 0xef, 0xef,
   0xff, 0x77, 0xda, 0x81, 0xbf, 0x7f, 0x77, 0xff, 0x00, 0x00, 0x00, 0x00,
   0x00, 0x00, 0x00, 0x00, 0x00, 0x00, 0x00, 0x00, 0x00, 0x00, 0x00, 0xc0,
   0x0f, 0xe0, 0xdf, 0xdf, 0x7d, 0xf5, 0xff, 0xed, 0x0d, 0xff, 0xfe, 0xc1,
   0xf6, 0x77, 0x7f, 0xfd, 0x00, 0x00, 0x00, 0x00, 0x00, 0x00, 0x00, 0x00,
   0x00, 0x00, 0x00, 0x00, 0x00, 0x00, 0x00, 0xc0, 0x0f, 0xe0, 0xdd, 0xdf,
   0xf7, 0x67, 0xdb, 0xbf, 0x0f, 0xee, 0xda, 0xc1, 0xff, 0x7e, 0x6f, 0xef,
   0x00, 0x00, 0x00, 0x00, 0x00, 0x00, 0x00, 0x00, 0x00, 0x00, 0x00, 0x00,
   0x00, 0x00, 0x00, 0xc0, 0x0f, 0x60, 0xdf, 0xde, 0xdf, 0xf7, 0xff, 0xf7,
   0x0f, 0xff, 0xfa, 0x81, 0xdf, 0xff, 0x7f, 0xff, 0x00, 0x00, 0x00, 0x00,
   0x00, 0x00, 0x00, 0x00, 0x00, 0x00, 0x00, 0x00, 0x00, 0x00, 0x00, 0xc0,
   0x0e, 0xe0, 0xdf, 0x9d, 0x7f, 0xf7, 0x7f, 0xf7, 0x0d, 0xfe, 0xfe, 0x01,
   0xff, 0x1b, 0x7f, 0xfe, 0x00, 0x00, 0x00, 0x00, 0x00, 0x00, 0x00, 0x00,
   0x00, 0x00, 0x00, 0x00, 0x00, 0x00, 0x00, 0xe0, 0x0f, 0xe0, 0xdf, 0xdf,
   0xff, 0xf7, 0xfe, 0xfb, 0x07, 0xf7, 0xfa, 0x01, 0xfe, 0x8f, 0x7f, 0xff,
   0x00, 0x00, 0x00, 0x00, 0x00, 0x00, 0x00, 0x00, 0x00, 0x00, 0x00, 0x00,
   0x00, 0x00, 0x00, 0xe0, 0x1f, 0xc0, 0xdd, 0xff, 0xff, 0xe7, 0xff, 0xe1,
   0x0f, 0xfe, 0xdd, 0x01, 0xfa, 0x0f, 0x7b, 0xee, 0x00, 0x00, 0x00, 0x00,
   0x00, 0x00, 0x00, 0x00, 0x00, 0x00, 0x00, 0x00, 0x00, 0x00, 0x00, 0x00,
   0x00, 0x00, 0x00, 0x00, 0x00, 0x00, 0x00, 0x00, 0x00, 0x00, 0x00, 0x00,
   0x00, 0x00, 0x00, 0x00, 0x00, 0x00, 0x00, 0x00, 0x00, 0x00, 0x00, 0x00,
   0x00, 0x00, 0x00, 0x00, 0x00, 0x00, 0x00, 0x00, 0x00, 0x00, 0x00, 0x00,
   0x00, 0x00, 0x00, 0x00, 0x00, 0x00, 0x00, 0x00, 0x00, 0x00, 0x00, 0x00,
   0x00, 0x00, 0x00, 0x00, 0x00, 0x00, 0x00, 0x00 };
