#define _width 256
#define _height 64
static char _bits[] = {
 0x00,0x00,0x00,0x00,0x00,0x00,0x00,0x00,0x00,0x00,0x00,0x00,0x00,0x00,0x00,
 0x00,0x00,0x00,0x00,0x00,0xf8,0x1f,0x00,0x00,0x00,0x00,0x00,0x00,0x00,0x00,
 0x00,0x00,0x00,0x00,0x00,0x80,0x3f,0x00,0x00,0x00,0x00,0x00,0x00,0x00,0x00,
 0x00,0x00,0x00,0x00,0x00,0x00,0x00,0x1c,0x30,0x00,0x00,0x00,0x00,0x00,0x00,
 0x00,0x00,0x00,0x00,0x00,0x00,0x00,0xe0,0x60,0x00,0x00,0x00,0x00,0x00,0x00,
 0x00,0x00,0x00,0x00,0x00,0x00,0x00,0x00,0x00,0x0c,0x60,0x00,0x00,0x00,0x00,
 0x00,0x00,0x00,0x00,0x00,0x00,0x00,0x00,0x00,0x38,0xc0,0x00,0x00,0x00,0x00,
 0x00,0x00,0x00,0x00,0x00,0x00,0x00,0x00,0x00,0x00,0x00,0x0e,0x40,0x00,0x00,
 0x00,0x00,0x00,0x00,0x00,0x00,0x00,0x00,0x00,0x00,0x00,0x1c,0x80,0x00,0x00,
 0x00,0x00,0x00,0x00,0x00,0x00,0x00,0x00,0x00,0x00,0x00,0x00,0x00,0x0f,0x40,
 0x00,0x00,0x00,0x00,0x00,0x00,0x00,0x00,0x00,0x00,0x00,0x00,0x00,0x0f,0x80,
 0x03,0x00,0x00,0x00,0x00,0x00,0x00,0x00,0x00,0x00,0x00,0x00,0x00,0x00,0x00,
 0x0f,0x40,0x00,0x00,0x00,0x00,0x00,0x00,0x00,0x00,0x00,0x00,0x00,0x00,0x00,
 0x07,0x00,0x0e,0x00,0x00,0x00,0x00,0x00,0x00,0x00,0x00,0x00,0x00,0x00,0x00,
 0x00,0x80,0x0f,0x40,0x00,0x00,0x00,0x00,0x00,0x00,0x00,0x00,0x00,0x00,0x00,
 0x00,0xc0,0x07,0x00,0x9c,0x01,0x00,0x00,0x00,0x00,0x00,0x00,0x00,0x00,0x00,
 0x00,0x80,0xff,0x87,0x0f,0x40,0x00,0x00,0x00,0x00,0x00,0x00,0x00,0x00,0x00,
 0x00,0x00,0x00,0xe0,0x03,0x00,0xf4,0x03,0x00,0x00,0x00,0x00,0x00,0x00,0x00,
 0x00,0x00,0x00,0xc0,0x01,0x8c,0x0f,0x40,0x00,0x00,0x00,0x00,0x00,0x00,0x00,
 0x00,0x00,0x00,0x00,0x00,0xe0,0x83,0x40,0x04,0x06,0x00,0x00,0x00,0x00,0x00,
 0x00,0x00,0x00,0x00,0x00,0xe0,0x00,0x88,0x0f,0x60,0x00,0x00,0x00,0x00,0x00,
 0x00,0x00,0x00,0x00,0x00,0x00,0x00,0xf0,0x83,0x40,0x04,0x1c,0x00,0x00,0x00,
 0x00,0x00,0x00,0x00,0x00,0x00,0x00,0x60,0x00,0x88,0x0f,0x20,0x00,0x00,0x00,
 0x00,0x00,0x00,0x00,0x00,0x00,0x00,0x00,0x00,0xf0,0x01,0x00,0x04,0x30,0x00,
 0x00,0x00,0x00,0x00,0x00,0x00,0x00,0x00,0x00,0x70,0x00,0x88,0x0f,0x20,0x00,
 0x00,0x00,0x00,0x00,0x00,0x00,0x00,0x00,0x00,0x00,0x00,0xf8,0x01,0x60,0x06,
 0x20,0x00,0x00,0x00,0x00,0x00,0x00,0x00,0x00,0x00,0x00,0x70,0x00,0x88,0x0f,
 0x20,0x00,0x00,0x00,0x00,0x00,0x00,0x00,0x00,0x00,0x00,0x00,0x00,0xf8,0xc1,
 0x40,0x02,0x60,0x00,0x00,0x00,0x00,0x00,0x00,0x00,0x00,0x00,0x00,0x78,0x00,
 0x88,0x07,0x20,0x00,0x00,0x00,0x00,0x00,0x00,0x00,0x00,0x00,0x00,0x00,0x00,
 0xf8,0x01,0x80,0x02,0x40,0x00,0x00,0x00,0x00,0x00,0x00,0x00,0x00,0x00,0x00,
 0x78,0x00,0x88,0x07,0x20,0x00,0x00,0x00,0x00,0x00,0x00,0x00,0x00,0x00,0x00,
 0x00,0x00,0xfc,0x80,0x00,0x02,0x40,0x00,0x00,0x00,0x00,0x00,0x00,0x00,0x00,
 0x00,0x00,0x78,0x00,0x88,0x07,0x20,0x00,0x00,0x00,0x00,0x00,0x00,0x00,0x00,
 0x00,0x00,0x00,0x00,0xfc,0x00,0x09,0x02,0x40,0x00,0x00,0x00,0x00,0x00,0x00,
 0x00,0x00,0x00,0x00,0x78,0x00,0x88,0x07,0x20,0x00,0x00,0x00,0x00,0x00,0x00,
 0x00,0x00,0x00,0x00,0x00,0x00,0xfc,0x00,0x08,0x06,0xc0,0x00,0x00,0x00,0x00,
 0x00,0x00,0xc0,0xff,0xff,0x01,0x78,0x00,0x8c,0x07,0x20,0x00,0x00,0x00,0x00,
 0x00,0x00,0x00,0x00,0x00,0x00,0x00,0x00,0xfc,0x40,0xc0,0x0e,0x80,0x00,0x00,
 0x00,0x00,0x00,0x00,0x60,0x00,0x00,0x0f,0x7c,0x00,0x84,0x07,0x20,0x00,0x00,
 0x00,0x00,0x00,0xfc,0x07,0x00,0x00,0x00,0x00,0x00,0xfc,0x00,0x60,0x1f,0x80,
 0x00,0xe0,0x7f,0x00,0xf8,0x1f,0x30,0x00,0x00,0x18,0x7c,0x00,0x84,0x07,0x30,
 0x00,0x00,0x00,0x00,0x80,0x07,0x04,0x00,0x00,0x00,0x00,0x00,0xfc,0x00,0x00,
 0x3d,0x80,0x00,0x38,0xc0,0x01,0x0e,0x70,0x38,0x00,0x00,0x10,0x7c,0x00,0x84,
 0x07,0x10,0xf8,0x03,0xf8,0x0f,0x80,0x03,0x0c,0x00,0x00,0x00,0x00,0x00,0xfc,
 0x01,0x86,0x7d,0xc0,0x00,0x0e,0x00,0x83,0x03,0xc0,0x38,0x00,0x00,0x10,0x7c,
 0x00,0x84,0x07,0x10,0x0f,0x02,0x0f,0x08,0x80,0x03,0x08,0x00,0x00,0x00,0x00,
 0x00,0xfc,0x31,0x89,0x38,0x40,0x80,0x07,0x00,0xe6,0x01,0x80,0x3d,0x00,0x00,
 0x10,0x7e,0x00,0x84,0x07,0x10,0x07,0x06,0x07,0x18,0xc0,0x03,0x08,0x00,0x00,
 0x00,0x00,0x00,0xf8,0x49,0x81,0x1e,0x60,0xc0,0x03,0x00,0xfc,0x00,0x00,0x3f,
 0x00,0x00,0x10,0x7e,0x00,0xfc,0x07,0x10,0x07,0x04,0x07,0x10,0xc0,0x03,0x08,
 0x00,0x00,0x00,0x00,0x00,0xf8,0x49,0xd0,0x0f,0x30,0xe0,0x01,0x00,0x78,0x00,
 0x00,0x3e,0x00,0x00,0x10,0x7e,0x00,0xc0,0x03,0x90,0x07,0x84,0x07,0x10,0xc0,
 0x03,0x08,0x00,0x00,0x00,0x00,0x00,0xf8,0x05,0xe2,0x07,0x18,0xf0,0x00,0x00,
 0x30,0x00,0x00,0x7c,0x00,0x00,0x18,0x7e,0x00,0x00,0x00,0x90,0x07,0x84,0x07,
 0x10,0xc0,0x03,0x08,0x00,0x00,0x00,0x00,0x00,0xf8,0xc1,0xc0,0x01,0x0c,0xf8,
 0x00,0x00,0x30,0x00,0x00,0xfc,0x0f,0xe0,0x0f,0x7e,0x00,0x00,0x00,0x90,0x07,
 0x84,0x07,0x10,0xe0,0x03,0x08,0x00,0x00,0x00,0x00,0x00,0xf8,0x01,0x40,0x00,
 0x06,0x7c,0x00,0x00,0x20,0x00,0x00,0xf8,0x0f,0x20,0x00,0x7e,0x00,0x00,0x00,
 0x90,0x07,0x84,0x07,0x10,0xe0,0x03,0x08,0x00,0x00,0x00,0x00,0x00,0xf8,0x11,
 0x72,0x00,0x03,0x7c,0x00,0x00,0x20,0x00,0x00,0xf8,0x0f,0x20,0x00,0x7e,0x00,
 0x00,0x00,0xd0,0x07,0xc4,0x07,0x10,0xe0,0x03,0x08,0x00,0x00,0x00,0x00,0x00,
 0xf8,0x11,0x20,0x00,0x0e,0x3e,0x00,0x00,0x60,0x00,0x00,0xf8,0x0f,0x20,0x00,
 0x7e,0x00,0x00,0x00,0xd0,0x07,0xc4,0x07,0x10,0xe0,0x03,0x08,0x00,0x00,0x00,
 0x00,0x00,0xf8,0x01,0x20,0x00,0x18,0x3e,0x00,0x1e,0x40,0x80,0x07,0xd0,0x0f,
 0x20,0x00,0x7e,0x00,0x00,0x00,0xd8,0x07,0xc4,0x07,0x10,0xe0,0x03,0x08,0x00,
 0x00,0x00,0x00,0x00,0xfc,0x01,0x20,0x00,0x30,0x1e,0x80,0x3f,0x40,0xe0,0x0f,
 0xd0,0x0f,0x20,0x00,0x7e,0x00,0x00,0x00,0xc8,0x07,0xc4,0x07,0x10,0xe0,0x03,
 0x08,0x00,0x00,0x00,0x00,0x00,0xfc,0x19,0x20,0x00,0xe0,0x1e,0xc0,0x7e,0x40,
 0xb0,0x1f,0x90,0x0f,0x20,0x00,0xfe,0x00,0x00,0x00,0xc8,0x07,0xc4,0x07,0x10,
 0xe0,0x03,0x08,0x00,0x00,0x00,0x00,0x00,0xfc,0x09,0x38,0x00,0x80,0x1f,0x40,
 0x7c,0x40,0x10,0x1f,0x90,0x0f,0x20,0x00,0xfe,0x00,0x00,0x00,0xc8,0x07,0xc4,
 0x07,0x10,0xe0,0x03,0x08,0x00,0x00,0x00,0x00,0x00,0xfe,0x09,0x98,0x07,0x00,
 0x1f,0x40,0x7e,0x40,0x90,0x1f,0x90,0x0f,0x20,0x00,0xfe,0x00,0xfe,0x03,0xc8,
 0x07,0xc4,0x07,0x10,0xe0,0x03,0x08,0x00,0x00,0x00,0x00,0x00,0xfe,0x43,0x92,
 0x0f,0x00,0x1f,0x40,0x7e,0x40,0x90,0x1f,0x90,0x0f,0x20,0x00,0xfe,0x00,0xfe,
 0x07,0xc8,0x07,0xc4,0x07,0x10,0xf0,0x03,0x08,0x00,0x00,0x00,0x00,0x00,0xfe,
 0x83,0xd3,0x1e,0x00,0x1e,0x40,0x7e,0x40,0x90,0x1f,0x90,0x0f,0x20,0x00,0xfe,
 0x00,0xfe,0x07,0xc8,0x07,0xc4,0x07,0x10,0xf0,0x03,0x08,0x00,0x00,0x00,0x00,
 0x00,0xfe,0x03,0x51,0x3e,0x00,0x1e,0x40,0x3f,0x40,0xd0,0x0f,0x90,0x0f,0x20,
 0x00,0xfc,0x00,0xfe,0x07,0xe8,0x07,0xe4,0x07,0x10,0xf0,0x03,0x08,0x00,0x00,
 0x00,0x00,0x00,0xfe,0x83,0x71,0x7e,0x00,0x1c,0xc0,0x3f,0x40,0xf0,0x0f,0xd0,
 0x0f,0x20,0x00,0xfc,0x00,0xc3,0x07,0xe8,0x07,0xe4,0x07,0x10,0xf0,0x03,0x08,
 0x00,0x00,0x00,0x00,0x00,0xfe,0x03,0x20,0xff,0x00,0x1c,0xc0,0x0f,0x40,0xf0,
 0x03,0xd0,0x0f,0x20,0x00,0xfc,0x00,0x81,0x07,0xe8,0x07,0xe4,0x07,0x10,0xf0,
 0x03,0x08,0x00,0x00,0x00,0x00,0x00,0xfe,0x03,0x30,0x7f,0x00,0x1c,0x00,0x03,
 0x60,0xc0,0x00,0xd8,0x0f,0x20,0x00,0xfc,0x00,0x81,0x07,0xe8,0x07,0xe4,0x07,
 0x10,0xf0,0x03,0xf8,0x1f,0x00,0x00,0x00,0x00,0xfe,0x03,0x30,0x3f,0x00,0x3c,
 0x00,0x00,0x20,0x00,0x00,0xc8,0x0f,0x20,0x00,0xfc,0x00,0x81,0x07,0xe8,0x07,
 0xe4,0x07,0x10,0xf0,0x03,0x00,0x10,0x00,0x00,0x00,0x00,0xfe,0x13,0x60,0x1f,
 0x00,0x38,0x00,0x00,0x20,0x00,0x00,0xc8,0x07,0x20,0x00,0xfc,0x00,0x81,0x07,
 0xe8,0x03,0xe4,0x07,0xf0,0xff,0x03,0x00,0x10,0x00,0x00,0x00,0x00,0xfe,0x81,
 0xc0,0x0f,0x00,0x78,0x00,0x00,0x30,0x00,0x00,0xcc,0x07,0x20,0x00,0xfc,0x00,
 0x81,0x07,0xe8,0x03,0xe4,0x07,0x00,0xe0,0x03,0x00,0x10,0x00,0x00,0x00,0x00,
 0xfe,0x01,0x80,0x07,0x00,0x78,0x00,0x00,0x10,0x00,0x00,0xc4,0x07,0x20,0x00,
 0xfc,0x00,0x81,0x07,0xec,0x03,0xe4,0x07,0x00,0xe0,0x03,0x00,0x10,0x00,0x00,
 0x00,0x00,0xfe,0x0c,0x03,0x03,0x00,0xf8,0x00,0x00,0x38,0x00,0x00,0xc6,0x07,
 0x20,0x00,0xfc,0x00,0x81,0x07,0xe4,0x03,0xe4,0x07,0x00,0xe0,0x03,0x00,0x10,
 0x00,0x00,0x00,0x00,0xfe,0x00,0x06,0x02,0x00,0xf8,0x01,0x00,0x7c,0x00,0x00,
 0xc3,0x07,0x20,0x00,0xfc,0x00,0x81,0x07,0xe4,0x03,0xe4,0x07,0x00,0xe0,0x03,
 0x00,0x10,0x00,0x00,0x00,0x00,0xfe,0x00,0x00,0x04,0x00,0xf8,0x03,0x00,0xff,
 0x00,0xc0,0xc1,0x07,0x20,0x00,0xfc,0x00,0xc1,0x07,0xe4,0x03,0xe4,0x07,0x00,
 0xe0,0x03,0x00,0x10,0x00,0x00,0x00,0x00,0xfe,0x00,0x00,0x08,0x00,0xfc,0x0f,
 0xc0,0xfd,0x03,0x70,0xc0,0x07,0x20,0x00,0xfc,0x00,0xc1,0x07,0xe4,0x03,0xe4,
 0x07,0x00,0xe0,0x07,0x00,0x1e,0x00,0x00,0x00,0x00,0xfc,0x00,0x00,0x78,0xfc,
 0xf4,0xff,0xff,0xfc,0xff,0x3f,0xc0,0x1f,0x30,0x00,0xfc,0x80,0xc1,0x03,0xe4,
 0xff,0xe7,0x07,0x00,0xe0,0xff,0xff,0x03,0x00,0x00,0x00,0x00,0xfc,0x01,0x00,
 0xc0,0x87,0xe7,0xff,0x7f,0xf8,0xff,0x1f,0xc0,0xff,0x1f,0x00,0xf8,0x80,0xc0,
 0x03,0xe4,0xff,0xe3,0x0f,0x00,0xfc,0xff,0x7f,0x00,0x00,0x00,0x00,0x00,0xf8,
 0xff,0x1f,0x00,0x04,0xc7,0xff,0x3f,0xf0,0xff,0x0f,0xc0,0xff,0x0f,0x00,0xf8,
 0x80,0xc0,0x03,0xe4,0xff,0xe1,0xff,0xff,0xe7,0xff,0x1f,0x00,0x00,0x00,0x00,
 0x00,0xf8,0x03,0x30,0x00,0x06,0x0c,0xff,0x0f,0xc0,0xff,0x01,0x80,0xff,0x0f,
 0x00,0xf8,0x80,0xc0,0x07,0xc4,0x7f,0xc0,0xff,0xff,0x80,0xff,0x07,0x00,0x00,
 0x00,0x00,0x00,0xf8,0x1f,0xe7,0x00,0x02,0x08,0x00,0x00,0x00,0x00,0x00,0x00,
 0xfe,0x03,0x00,0xf8,0xff,0xc0,0x0f,0x84,0x0f,0xc0,0xff,0x3f,0x00,0x7e,0x00,
 0x00,0x00,0x00,0x00,0x00,0xf8,0xff,0x8f,0x01,0x02,0x08,0x00,0x00,0x00,0x00,
 0x00,0x00,0xf8,0x00,0x00,0xf8,0x7f,0xc0,0x3f,0x06,0x00,0x00,0xff,0x0f,0x00,
 0x00,0x00,0x00,0x00,0x00,0x00,0x00,0xf0,0xfb,0x3d,0x07,0x03,0x1e,0x00,0x00,
 0x00,0x00,0x00,0x00,0x00,0x00,0x00,0xf0,0x3f,0xc0,0xff,0x07,0x00,0x00,0xfc,
 0x00,0x00,0x00,0x00,0x00,0x00,0x00,0x00,0x00,0xf0,0x03,0x7c,0x1c,0xe1,0x1b,
 0x00,0x00,0x00,0x00,0x00,0x00,0x00,0x00,0x00,0xe0,0x1f,0xc0,0xff,0x03,0x00,
 0x00,0x00,0x00,0x00,0x00,0x00,0x00,0x00,0x00,0x00,0x00,0xe0,0x03,0xfc,0xf1,
 0x3f,0x1c,0x00,0x00,0x00,0x00,0x00,0x00,0x00,0x00,0x00,0xc0,0x07,0x80,0xff,
 0x01,0x00,0x00,0x00,0x00,0x00,0x00,0x00,0x00,0x00,0x00,0x00,0x00,0xe0,0x07,
 0xfe,0x07,0x80,0x0f,0x00,0x00,0x00,0x00,0x00,0x00,0x00,0x00,0x00,0x00,0x00,
 0x00,0xfe,0x00,0x00,0x00,0x00,0x00,0x00,0x00,0x00,0x00,0x00,0x00,0x00,0x00,
 0xe0,0x0f,0xef,0xff,0xff,0x03,0x00,0x00,0x00,0x00,0x00,0x00,0x00,0x00,0x00,
 0x00,0x00,0x00,0x00,0x00,0x00,0x00,0x00,0x00,0x00,0x00,0x00,0x00,0x00,0x00,
 0x00,0x00,0xe0,0x0f,0xc7,0xff,0xff,0x00,0x00,0x00,0x00,0x00,0x00,0x00,0x00,
 0x00,0x00,0x00,0x00,0x00,0x00,0x00,0x00,0x00,0x00,0x00,0x00,0x00,0x00,0x00,
 0x00,0x00,0x00,0x00,0xc0,0xff,0x87,0xff,0x7f,0x00,0x00,0x00,0x00,0x00,0x00,
 0x00,0x00,0x00,0x00,0x00,0x00,0x00,0x00,0x00,0x00,0x00,0x00,0x00,0x00,0x00,
 0x00,0x00,0x00,0x00,0x00,0x00,0xc0,0xff,0x01,0xfe,0x07,0x00,0x00,0x00,0x00,
 0x00,0x00,0x00,0x00,0x00,0x00,0x00,0x00,0x00,0x00,0x00,0x00,0x00,0x00,0x00,
 0x00,0x00,0x00,0x00,0x00,0x00,0x00,0x00,0x00,0x7f,0x00,0x00,0x00,0x00,0x00,
 0x00,0x00,0x00,0x00,0x00,0x00,0x00,0x00,0x00,0x00,0x00,0x00,0x00,0x00,0x00,
 0x00,0x00,0x00,0x00,0x00,0x00,0x00,0x00 };
