#define _width 256
#define _height 64
static char _bits[] = {
 0x00,0x00,0x00,0x00,0x00,0x00,0x00,0x00,0x00,0x00,0x00,0x00,0x00,0x00,0x00,
 0x00,0x00,0x00,0x00,0x00,0x00,0x00,0x00,0x00,0x00,0x00,0x00,0x00,0x00,0x00,
 0x00,0x00,0x00,0x00,0x00,0x00,0x00,0x00,0x00,0x00,0x00,0x00,0x00,0x00,0x00,
 0x00,0x00,0x00,0x00,0x00,0x00,0x00,0x00,0x00,0x00,0x00,0x00,0x00,0x00,0x00,
 0x00,0x00,0x00,0x00,0x00,0x00,0x00,0x00,0x00,0x00,0x00,0x00,0x00,0x00,0x00,
 0x00,0x00,0x00,0x00,0x00,0x00,0x00,0x00,0x00,0x00,0x00,0x00,0x00,0x00,0x00,
 0x00,0x00,0x00,0x00,0x00,0x00,0x00,0x00,0x00,0x00,0x00,0x00,0x00,0x00,0x00,
 0x00,0x00,0x00,0x00,0x00,0x00,0x00,0x00,0x00,0x00,0x00,0x00,0x00,0x00,0x00,
 0x00,0x00,0x00,0x00,0x00,0x00,0x00,0x00,0x00,0x00,0x00,0x00,0x00,0x00,0x00,
 0x00,0x00,0x00,0x00,0x00,0x00,0x00,0x00,0x00,0x00,0x00,0x00,0x00,0x00,0x00,
 0x00,0x00,0x00,0x00,0x00,0x00,0x00,0x00,0x00,0x00,0x00,0x00,0x00,0x00,0x00,
 0x00,0x00,0x00,0x00,0x00,0x00,0x00,0x00,0x00,0x00,0x00,0x00,0x00,0x00,0x00,
 0x00,0x00,0x00,0x00,0x00,0x00,0x00,0x00,0x00,0x00,0x00,0x00,0x00,0x00,0x00,
 0x00,0x00,0x00,0x00,0x00,0x00,0x00,0x00,0x00,0x00,0x00,0x00,0x00,0x00,0x00,
 0x00,0x00,0x00,0x00,0x00,0x00,0x00,0x00,0x00,0x00,0x00,0x00,0x00,0x00,0x00,
 0x00,0x00,0x00,0x00,0x00,0x00,0x00,0x00,0x00,0x00,0x00,0x00,0x00,0x00,0x00,
 0x00,0x00,0x00,0x00,0x00,0x00,0x00,0x00,0x00,0x00,0x00,0x00,0x00,0x00,0x00,
 0x00,0x00,0x00,0x00,0x00,0x00,0x00,0x00,0x00,0x00,0x00,0x00,0x00,0x00,0x00,
 0x00,0x00,0x00,0x00,0x00,0x00,0x00,0x00,0x00,0x00,0x00,0x00,0x00,0x00,0x00,
 0x00,0x00,0x00,0x00,0x00,0x00,0x00,0x00,0x00,0x00,0x00,0x00,0x00,0x00,0x00,
 0x00,0x00,0x00,0x00,0x00,0x00,0x00,0x00,0x00,0x00,0x00,0x00,0x00,0x00,0x00,
 0x00,0x00,0x00,0x00,0x00,0x00,0x00,0x00,0x00,0x00,0x00,0x00,0x00,0x00,0x00,
 0x00,0x00,0x00,0x00,0x00,0x00,0x00,0x00,0x00,0x00,0x00,0x00,0x00,0x00,0x00,
 0x00,0x00,0x00,0x00,0x00,0x00,0x00,0x00,0x00,0x00,0x00,0x00,0x00,0x00,0x00,
 0x00,0x00,0x00,0x00,0x00,0x00,0x00,0x00,0x00,0x00,0x00,0x00,0x00,0x00,0x00,
 0x00,0x00,0x00,0x00,0x00,0x00,0x00,0x00,0x00,0x00,0x00,0x00,0x00,0x00,0x00,
 0x00,0x00,0x00,0x00,0x00,0x00,0x00,0x00,0x00,0x00,0x00,0x00,0x00,0x00,0x00,
 0x00,0x00,0x00,0x00,0x00,0x00,0x00,0x00,0x00,0x00,0x00,0x00,0x00,0x00,0x00,
 0x00,0x00,0x00,0x00,0x00,0x00,0x00,0x00,0x00,0x00,0x00,0x00,0x00,0x00,0x00,
 0x00,0x00,0x00,0x00,0x00,0x00,0x00,0x00,0x00,0x00,0x00,0x00,0x00,0x00,0x00,
 0x00,0x00,0x00,0x00,0x00,0x00,0x00,0x00,0x00,0x00,0x00,0x00,0x00,0x00,0x00,
 0x00,0x00,0x00,0x00,0x00,0x00,0x00,0x00,0x00,0x00,0x00,0x00,0x00,0x00,0x00,
 0x00,0x00,0x00,0x00,0x00,0x00,0x00,0x00,0x00,0x00,0x00,0x00,0x00,0x00,0x00,
 0x00,0x00,0x00,0x00,0x00,0x00,0x00,0x00,0x00,0x00,0x00,0x00,0x00,0x00,0x00,
 0x00,0x00,0x00,0x00,0x00,0x00,0x00,0x00,0x00,0x00,0x00,0x00,0x00,0x00,0x00,
 0x00,0x00,0x00,0x00,0x00,0x00,0x00,0x00,0x00,0x00,0x00,0x00,0x00,0x00,0x80,
 0x03,0x00,0x00,0x1e,0x7e,0x00,0x00,0xf0,0x01,0x00,0xf8,0x07,0x00,0x80,0xff,
 0x01,0xc0,0xff,0x1f,0xc0,0xff,0x1f,0x80,0x1f,0x00,0x80,0x3f,0x00,0xfe,0x0f,
 0x00,0xc0,0x07,0x00,0x00,0x3f,0x62,0x00,0x00,0x18,0x01,0x00,0xfc,0xff,0x00,
 0xe0,0xff,0x07,0xf0,0xff,0x3f,0xe0,0xff,0x3f,0xc0,0x1f,0xfc,0xc1,0x7f,0xc0,
 0xff,0x1f,0x00,0xe0,0x0f,0x00,0x80,0x7f,0xe2,0x00,0x00,0x1c,0x01,0x00,0xfe,
 0xff,0x01,0xf0,0xff,0x0f,0xf8,0xff,0x7f,0xf0,0xff,0x7f,0xe0,0x1f,0xfc,0xc3,
 0x7f,0xf0,0xff,0x3f,0x00,0xe0,0x0f,0x00,0x80,0x7f,0xe6,0x03,0x00,0x3e,0x01,
 0x00,0xff,0xff,0x07,0xf8,0xff,0x1f,0xf8,0xff,0xff,0xf0,0xf3,0xff,0xe0,0x0f,
 0xfc,0xc3,0x7f,0xf0,0xff,0x3f,0x00,0xc0,0x3f,0x02,0xe2,0x3f,0xfc,0x07,0x00,
 0xff,0x01,0x00,0x7f,0xfc,0x0f,0xfc,0xe3,0x3f,0xf8,0xff,0xff,0xf0,0x01,0xfe,
 0xe0,0x0f,0xfc,0xc3,0x3f,0xf8,0xff,0x3f,0x00,0xc0,0x7f,0x02,0xf2,0x3f,0xc4,
 0x0f,0x80,0x8f,0x00,0x00,0x3f,0xc0,0x0f,0xfc,0x81,0x3f,0xf0,0xff,0x7f,0xf0,
 0x01,0xf8,0xc0,0x1f,0xfc,0x83,0x1f,0xfc,0x03,0x3e,0x00,0x80,0xff,0x04,0xf9,
 0x1f,0xc4,0x8f,0x88,0x9f,0x00,0x00,0x3f,0x80,0x1f,0xfc,0x00,0x3f,0x00,0xff,
 0x07,0xf0,0x01,0xf8,0xc0,0x7f,0xfc,0x83,0x1f,0xfc,0x01,0x3c,0x00,0x80,0xfb,
 0xa8,0xf8,0x1e,0xfc,0x0f,0xc5,0xff,0x00,0x00,0x3f,0x00,0x3f,0xfc,0x00,0x3f,
 0x00,0xfc,0x01,0xf0,0x01,0xf0,0xc0,0xff,0xfc,0x83,0x1f,0xfc,0x00,0x00,0x00,
 0x80,0xff,0xf8,0xf8,0x1f,0xc4,0x1f,0xc5,0x8f,0x00,0x00,0x3f,0x00,0x3f,0xfc,
 0x00,0x3f,0x00,0xf8,0x01,0xe0,0x01,0xf0,0xc0,0xff,0xfd,0x81,0x1f,0xfc,0x00,
 0x00,0x00,0x80,0xff,0xf8,0xf8,0x1f,0xc4,0x9f,0xed,0x8f,0x00,0x00,0x7e,0x80,
 0x3f,0xfc,0x00,0x3f,0x00,0xf8,0x00,0xe0,0x03,0xf0,0xc0,0xff,0xff,0x80,0x1f,
 0x7e,0x00,0x00,0x00,0x80,0xff,0xf9,0xfc,0x1f,0x84,0x9f,0xef,0x87,0x00,0x00,
 0x7c,0xc0,0x3f,0xfc,0x00,0x3f,0x00,0xf8,0x00,0xe0,0x03,0xf0,0xc0,0xff,0xff,
 0xc0,0x1f,0x7e,0x00,0x00,0x00,0x80,0xff,0xfb,0xfe,0x1f,0xfc,0x3f,0xe7,0xff,
 0x00,0x00,0xfc,0xe0,0x3f,0xfc,0x00,0x3f,0x00,0xf8,0x00,0xe0,0x03,0xf8,0xc0,
 0xff,0x7f,0xc0,0x1f,0x7e,0x00,0x00,0x00,0x00,0xff,0x73,0xfe,0x0f,0xf0,0xff,
 0xff,0x3f,0x00,0x00,0xfc,0xe1,0x3f,0xfc,0x00,0x3f,0x00,0xf8,0x00,0xc0,0x03,
 0xf8,0xc0,0xff,0x7f,0xc0,0x1f,0x7e,0x00,0x00,0x00,0x00,0xfe,0xff,0xff,0x07,
 0xc0,0xff,0xff,0x0f,0x00,0x00,0xfc,0xff,0x1f,0xfc,0x00,0x3f,0x00,0xf8,0x00,
 0xc0,0x07,0xf8,0xc0,0xff,0x3f,0x80,0x1f,0x7e,0x00,0x00,0x00,0x00,0xfc,0xff,
 0xff,0x03,0x00,0xc0,0x0f,0x00,0x00,0x00,0xfc,0xff,0x0f,0xfc,0x00,0x3f,0x00,
 0xf8,0x00,0xc0,0x0f,0xfc,0xc0,0xef,0x3f,0x80,0x1f,0x7e,0x00,0x00,0x00,0x00,
 0x00,0xf8,0x01,0x00,0x00,0xfe,0xff,0x01,0x00,0x00,0xf8,0xff,0x03,0xfc,0x00,
 0x3f,0x00,0xf8,0x00,0xc0,0xff,0xff,0xc0,0xc7,0x7f,0x80,0x1f,0x7e,0x00,0x00,
 0x00,0x00,0xe0,0xff,0x7f,0x00,0x80,0x7f,0xfb,0x07,0x00,0x00,0xf8,0xff,0x07,
 0xfc,0x00,0x3f,0x00,0xf8,0x00,0xc0,0xff,0xff,0xc0,0x87,0x7f,0x00,0x1f,0x7e,
 0x00,0x00,0x00,0x00,0xb0,0x77,0xdf,0x00,0xc0,0x7f,0xfb,0x0f,0x00,0x00,0xf8,
 0xf0,0x0f,0xfc,0x00,0x3f,0x00,0xf8,0x00,0xc0,0xff,0xff,0xc0,0x07,0xff,0x00,
 0x1f,0xfe,0x00,0x00,0x00,0x00,0xfc,0x71,0xfc,0x03,0x60,0x7e,0xfb,0x19,0x00,
 0x00,0xf8,0xc0,0x1f,0xfc,0x00,0x3f,0x00,0xf8,0x00,0xc0,0xff,0xff,0xc0,0x07,
 0xfe,0x00,0x1f,0xfe,0x00,0x00,0x00,0x00,0xfe,0x71,0xfc,0x07,0x30,0x7c,0xfb,
 0x30,0x00,0x00,0x78,0x80,0x1f,0xfc,0x00,0x3f,0x00,0xf8,0x00,0xc0,0x1f,0xff,
 0xc0,0x07,0xfc,0x00,0x1f,0xfe,0x00,0x00,0x00,0x00,0xfe,0x77,0xff,0x07,0x30,
 0x38,0x70,0x30,0x00,0x00,0x3c,0x00,0x1f,0xfc,0x00,0x3f,0x00,0xf8,0x00,0xc0,
 0x1f,0xfc,0xc0,0x07,0xfc,0x00,0x1f,0xfe,0x00,0x00,0x00,0x00,0xfe,0x23,0xfe,
 0x07,0x60,0x30,0x30,0x18,0x00,0x00,0x3c,0x00,0x3f,0xfc,0x00,0x3f,0x00,0xf8,
 0x00,0xc0,0x07,0xfc,0xc0,0x07,0xf8,0x00,0x1f,0xfc,0x00,0x00,0x00,0x00,0xfe,
 0x23,0xfe,0x07,0xc0,0x10,0x20,0x0c,0x00,0x00,0x3c,0x00,0x3f,0xfc,0x00,0x3f,
 0x00,0xf8,0x00,0xe0,0x07,0xfc,0xc0,0x07,0xf8,0x00,0x1f,0xfc,0x00,0x00,0x00,
 0x00,0xfc,0x01,0xfc,0x03,0x80,0x0b,0x40,0x07,0x00,0x00,0x3c,0x00,0x3f,0xfc,
 0x00,0x3f,0x00,0xf8,0x00,0xe0,0x07,0xfc,0xc0,0x07,0xf0,0x01,0x1f,0xfc,0x03,
 0x0e,0x00,0x00,0xf8,0x00,0xf8,0x00,0x00,0x0f,0xc0,0x03,0x00,0x00,0x3e,0x00,
 0x1f,0xfc,0x00,0x3f,0x00,0xf8,0x00,0xe0,0x07,0xfc,0xc0,0x07,0xf0,0x03,0x1f,
 0xfc,0x0f,0x0f,0x00,0x00,0xf0,0x00,0x78,0x00,0x80,0x07,0x80,0x07,0x00,0x00,
 0x7e,0x80,0x1f,0xfc,0x81,0x3f,0x00,0xfc,0x03,0xf0,0x07,0xfc,0xc0,0x07,0xf0,
 0x83,0x3f,0xf8,0xff,0x1f,0x00,0x00,0x7c,0x00,0xf0,0x01,0xc0,0x00,0x00,0x0c,
 0x00,0x00,0xfe,0x80,0x1f,0xfc,0xc7,0x3f,0x00,0xfe,0x07,0xf0,0x07,0xfc,0xc0,
 0x07,0xf0,0xc3,0x3f,0xf0,0xff,0x1f,0x00,0x00,0x0c,0x00,0x80,0x01,0x60,0x00,
 0x00,0x18,0x00,0x00,0xfe,0xff,0x1f,0xf8,0xff,0x1f,0x00,0xff,0x0f,0xf0,0x0f,
 0xfe,0xe1,0x0f,0xf0,0xc3,0x7f,0xe0,0xff,0x1f,0x00,0x00,0x07,0x00,0x00,0x07,
 0x38,0x00,0x00,0x70,0x00,0x00,0xfe,0xff,0x0f,0xf0,0xff,0x0f,0x00,0xff,0x0f,
 0xf0,0x0f,0xfe,0xe1,0x0f,0xf0,0xc3,0x7f,0xc0,0xff,0x1f,0x00,0x80,0x03,0x00,
 0x00,0x0e,0x38,0x00,0x00,0x70,0x00,0x00,0xfc,0xff,0x07,0xc0,0xff,0x03,0x00,
 0xfe,0x07,0xf0,0x03,0xfc,0xc0,0x0f,0xe0,0xc0,0x3f,0x00,0xfe,0x0f,0x00,0x80,
 0x03,0x00,0x00,0x0e,0x30,0x00,0x00,0x30,0x00,0x00,0x00,0x00,0x00,0x00,0x00,
 0x00,0x00,0x00,0x00,0x00,0x00,0x00,0x00,0x00,0x00,0x00,0x00,0x00,0x00,0x00,
 0x00,0x00,0x03,0x00,0x00,0x06,0x00,0x00,0x00,0x00,0x00,0x00,0x00,0x00,0x00,
 0x00,0x00,0x00,0x00,0x00,0x00,0x00,0x00,0x00,0x00,0x00,0x00,0x00,0x00,0x00,
 0x00,0x00,0x00,0x00,0x00,0x00,0x00,0x00,0x00,0x00,0x00,0x00,0x00,0x00,0x00,
 0x00,0x00,0x00,0x00,0x00,0x00,0x00,0x00,0x00,0x00,0x00,0x00,0x00,0x00,0x00,
 0x00,0x00,0x00,0x00,0x00,0x00,0x00,0x00,0x00,0x00,0x00,0x00,0x00,0x00,0x00,
 0x00,0x00,0x00,0x00,0x00,0x00,0x00,0x00,0x00,0x00,0x00,0x00,0x00,0x00,0x00,
 0x00,0x00,0x00,0x00,0x00,0x00,0x00,0x00,0x00,0x00,0x00,0x00,0x00,0x00,0x00,
 0x00,0x00,0x00,0x00,0x00,0x00,0x00,0x00,0x00,0x00,0x00,0x00,0x00,0x00,0x00,
 0x00,0x00,0x00,0x00,0x00,0x00,0x00,0x00,0x00,0x00,0x00,0x00,0x00,0x00,0x00,
 0x00,0x00,0x00,0x00,0x00,0x00,0x00,0x00,0x00,0x00,0x00,0x00,0x00,0x00,0x00,
 0x00,0x00,0x00,0x00,0x00,0x00,0x00,0x00,0x00,0x00,0x00,0x00,0x00,0x00,0x00,
 0x00,0x00,0x00,0x00,0x00,0x00,0x00,0x00,0x00,0x00,0x00,0x00,0x00,0x00,0x00,
 0x00,0x00,0x00,0x00,0x00,0x00,0x00,0x00,0x00,0x00,0x00,0x00,0x00,0x00,0x00,
 0x00,0x00,0x00,0x00,0x00,0x00,0x00,0x00,0x00,0x00,0x00,0x00,0x00,0x00,0x00,
 0x00,0x00,0x00,0x00,0x00,0x00,0x00,0x00,0x00,0x00,0x00,0x00,0x00,0x00,0x00,
 0x00,0x00,0x00,0x00,0x00,0x00,0x00,0x00,0x00,0x00,0x00,0x00,0x00,0x00,0x00,
 0x00,0x00,0x00,0x00,0x00,0x00,0x00,0x00,0x00,0x00,0x00,0x00,0x00,0x00,0x00,
 0x00,0x00,0x00,0x00,0x00,0x00,0x00,0x00,0x00,0x00,0x00,0x00,0x00,0x00,0x00,
 0x00,0x00,0x00,0x00,0x00,0x00,0x00,0x00,0x00,0x00,0x00,0x00,0x00,0x00,0x00,
 0x00,0x00,0x00,0x00,0x00,0x00,0x00,0x00,0x00,0x00,0x00,0x00,0x00,0x00,0x00,
 0x00,0x00,0x00,0x00,0x00,0x00,0x00,0x00,0x00,0x00,0x00,0x00,0x00,0x00,0x00,
 0x00,0x00,0x00,0x00,0x00,0x00,0x00,0x00,0x00,0x00,0x00,0x00,0x00,0x00,0x00,
 0x00,0x00,0x00,0x00,0x00,0x00,0x00,0x00,0x00,0x00,0x00,0x00,0x00,0x00,0x00,
 0x00,0x00,0x00,0x00,0x00,0x00,0x00,0x00,0x00,0x00,0x00,0x00,0x00,0x00,0x00,
 0x00,0x00,0x00,0x00,0x00,0x00,0x00,0x00,0x00,0x00,0x00,0x00,0x00,0x00,0x00,
 0x00,0x00,0x00,0x00,0x00,0x00,0x00,0x00,0x00,0x00,0x00,0x00,0x00,0x00,0x00,
 0x00,0x00,0x00,0x00,0x00,0x00,0x00,0x00,0x00,0x00,0x00,0x00,0x00,0x00,0x00,
 0x00,0x00,0x00,0x00,0x00,0x00,0x00,0x00,0x00,0x00,0x00,0x00,0x00,0x00,0x00,
 0x00,0x00,0x00,0x00,0x00,0x00,0x00,0x00,0x00,0x00,0x00,0x00,0x00,0x00,0x00,
 0x00,0x00,0x00,0x00,0x00,0x00,0x00,0x00,0x00,0x00,0x00,0x00,0x00,0x00,0x00,
 0x00,0x00,0x00,0x00,0x00,0x00,0x00,0x00,0x00,0x00,0x00,0x00,0x00,0x00,0x00,
 0x00,0x00,0x00,0x00,0x00,0x00,0x00,0x00,0x00,0x00,0x00,0x00,0x00,0x00,0x00,
 0x00,0x00,0x00,0x00,0x00,0x00,0x00,0x00,0x00,0x00,0x00,0x00,0x00,0x00,0x00,
 0x00,0x00,0x00,0x00,0x00,0x00,0x00,0x00,0x00,0x00,0x00,0x00,0x00,0x00,0x00,
 0x00,0x00,0x00,0x00,0x00,0x00,0x00,0x00 };
