#define btime_width 256
#define btime_height 64
static unsigned char btime_bits[] = {
   0x00, 0x00, 0x00, 0x00, 0x00, 0x00, 0x00, 0x00, 0x00, 0x00, 0x00, 0x00,
   0x00, 0x00, 0x00, 0x00, 0x00, 0x00, 0x00, 0x00, 0x00, 0x00, 0x00, 0x00,
   0x00, 0x00, 0x00, 0x00, 0x00, 0x00, 0x00, 0x00, 0x00, 0x00, 0x00, 0x00,
   0x00, 0x00, 0x00, 0x00, 0x08, 0x00, 0x00, 0x00, 0x00, 0x00, 0x00, 0x00,
   0x00, 0x00, 0x00, 0x00, 0x00, 0x00, 0x00, 0x00, 0x00, 0x00, 0x00, 0x00,
   0x00, 0x00, 0x00, 0x00, 0x00, 0x00, 0x00, 0x00, 0x00, 0x00, 0x00, 0xe0,
   0xff, 0x00, 0x00, 0x00, 0x00, 0x00, 0x00, 0x00, 0x00, 0x00, 0x00, 0x00,
   0x00, 0x00, 0x00, 0x00, 0x00, 0x00, 0x00, 0x00, 0x00, 0x00, 0x00, 0x00,
   0x00, 0x00, 0x00, 0x00, 0x00, 0x00, 0xe0, 0xe8, 0xff, 0x01, 0x00, 0x00,
   0x00, 0x00, 0x00, 0x00, 0x00, 0x00, 0x00, 0x00, 0x00, 0x00, 0x00, 0x00,
   0x00, 0x00, 0x00, 0x00, 0x00, 0x00, 0x00, 0x00, 0x00, 0x00, 0x00, 0x00,
   0x00, 0x00, 0xfc, 0xfe, 0xff, 0x07, 0x00, 0x00, 0x00, 0x00, 0x00, 0x00,
   0x00, 0x00, 0x00, 0x00, 0x00, 0x00, 0x00, 0x00, 0x00, 0x00, 0x00, 0x00,
   0x00, 0x00, 0x00, 0x00, 0x00, 0x00, 0x00, 0x00, 0x00, 0x00, 0xfe, 0x7f,
   0xc0, 0x0f, 0x00, 0x00, 0x00, 0x00, 0x00, 0x00, 0x00, 0x00, 0x00, 0x00,
   0x00, 0x00, 0x00, 0x00, 0x00, 0x00, 0x00, 0x00, 0x00, 0x00, 0x00, 0x00,
   0x00, 0x00, 0x00, 0x00, 0x00, 0x00, 0x8f, 0x0f, 0x00, 0x0f, 0x00, 0x00,
   0x00, 0x00, 0x00, 0x00, 0x00, 0x00, 0x00, 0x00, 0x00, 0x00, 0x00, 0x00,
   0x00, 0x00, 0x00, 0x00, 0x00, 0x00, 0x00, 0x00, 0x00, 0x00, 0x00, 0x00,
   0x00, 0x00, 0x87, 0x07, 0x00, 0x1e, 0x00, 0x00, 0x00, 0x00, 0x00, 0x00,
   0x00, 0x00, 0x00, 0x00, 0x00, 0x00, 0x00, 0x00, 0x00, 0x00, 0x00, 0x00,
   0x00, 0x00, 0x00, 0x00, 0x00, 0x00, 0x00, 0x00, 0x00, 0x80, 0x83, 0x81,
   0x08, 0x1c, 0x00, 0x00, 0x00, 0x00, 0x00, 0x00, 0xf0, 0xff, 0xff, 0xff,
   0xff, 0xff, 0xff, 0x3f, 0x00, 0x00, 0x00, 0x00, 0x00, 0x00, 0x00, 0x00,
   0x00, 0x00, 0x00, 0x00, 0x00, 0x80, 0x0b, 0x00, 0x00, 0x3c, 0x00, 0x00,
   0x00, 0x00, 0x00, 0x00, 0xf8, 0xff, 0xff, 0xff, 0xff, 0xff, 0xff, 0x3f,
   0x00, 0x00, 0x00, 0x00, 0x00, 0x00, 0x00, 0x00, 0x00, 0x00, 0x00, 0x00,
   0x00, 0xc0, 0x01, 0x04, 0x09, 0x3c, 0x00, 0x00, 0x00, 0x00, 0x00, 0x00,
   0x78, 0x55, 0xb5, 0xb6, 0x6d, 0xdb, 0xed, 0x1e, 0x00, 0x00, 0x00, 0x00,
   0x00, 0x00, 0x00, 0x00, 0x00, 0x00, 0x00, 0x00, 0x00, 0xc0, 0x4f, 0xe0,
   0x11, 0x3c, 0x00, 0x00, 0x00, 0x00, 0x00, 0x00, 0x3c, 0x00, 0x00, 0x00,
   0x00, 0x00, 0x00, 0x1e, 0x00, 0x00, 0x00, 0x00, 0x00, 0x00, 0x00, 0x00,
   0x00, 0x00, 0x00, 0x00, 0x00, 0x80, 0x0f, 0xf8, 0x09, 0x3c, 0x00, 0x00,
   0x00, 0x00, 0x00, 0x00, 0x1c, 0x00, 0x00, 0x00, 0x00, 0x00, 0x00, 0x0e,
   0x00, 0x00, 0x00, 0x00, 0x00, 0x00, 0x00, 0x00, 0x00, 0x00, 0x00, 0x00,
   0x00, 0x80, 0xae, 0xf8, 0x13, 0x3c, 0x00, 0x00, 0x00, 0x00, 0x00, 0x00,
   0x1e, 0x24, 0x21, 0x00, 0x00, 0x00, 0x00, 0x0f, 0x00, 0x00, 0x00, 0x00,
   0x00, 0x00, 0x00, 0x00, 0x00, 0x00, 0x00, 0x00, 0x00, 0x00, 0x0e, 0xfe,
   0x03, 0x3c, 0x00, 0x00, 0x00, 0x00, 0x00, 0x00, 0x8e, 0x00, 0x08, 0x49,
   0x92, 0x24, 0x01, 0x0f, 0x00, 0x00, 0x00, 0x00, 0x00, 0x00, 0x00, 0x00,
   0x00, 0x00, 0x00, 0x00, 0x00, 0x00, 0x2e, 0xfe, 0x0b, 0x3e, 0x00, 0x00,
   0x00, 0x00, 0x00, 0x00, 0x0e, 0x00, 0x00, 0x00, 0x00, 0x00, 0x88, 0x07,
   0x00, 0x00, 0x00, 0x00, 0x00, 0x00, 0x00, 0x00, 0x00, 0x00, 0x00, 0x00,
   0x00, 0x00, 0x07, 0xfe, 0x03, 0x1e, 0x00, 0x00, 0x00, 0x00, 0x00, 0x00,
   0x0f, 0x49, 0x22, 0x10, 0x22, 0x44, 0x82, 0x03, 0x00, 0x00, 0x00, 0x00,
   0x00, 0x00, 0x00, 0x00, 0x00, 0x00, 0x00, 0x00, 0x00, 0x00, 0x27, 0xfe,
   0x01, 0x1f, 0x00, 0x00, 0x00, 0x00, 0x00, 0x80, 0x07, 0x00, 0x00, 0x20,
   0x00, 0x00, 0x80, 0x03, 0x00, 0x00, 0x00, 0x00, 0x00, 0x00, 0x00, 0x00,
   0x00, 0x00, 0x00, 0x00, 0x00, 0x00, 0x07, 0xff, 0x08, 0x0f, 0x00, 0x00,
   0x00, 0x00, 0x00, 0x80, 0xb7, 0x6d, 0xeb, 0x05, 0xd5, 0xaa, 0xd6, 0x03,
   0x00, 0x00, 0x00, 0x00, 0x00, 0x00, 0x00, 0x00, 0x00, 0x00, 0x00, 0x00,
   0x00, 0x80, 0x17, 0x7f, 0xc0, 0x0f, 0x00, 0x00, 0x00, 0x00, 0x00, 0xc0,
   0xff, 0xff, 0xff, 0x87, 0xff, 0xff, 0xff, 0x01, 0x00, 0x00, 0x00, 0x00,
   0x00, 0x00, 0x00, 0x00, 0x00, 0x00, 0x00, 0x00, 0x00, 0x80, 0x83, 0x1f,
   0xe0, 0x03, 0x00, 0x00, 0x04, 0x00, 0x02, 0x80, 0xff, 0xff, 0xff, 0x87,
   0xff, 0xff, 0xff, 0x00, 0x00, 0x00, 0x00, 0x00, 0x00, 0x00, 0x00, 0x00,
   0x00, 0x00, 0x00, 0x00, 0x00, 0xc0, 0x8b, 0x0f, 0xe2, 0xe3, 0xe7, 0x07,
   0xbf, 0xc6, 0xdf, 0x97, 0xff, 0xff, 0xff, 0x87, 0xff, 0xff, 0x7f, 0x87,
   0x80, 0x7f, 0x00, 0x00, 0x00, 0x00, 0x00, 0x00, 0x00, 0x00, 0x00, 0x00,
   0x00, 0xc0, 0x83, 0x87, 0xf0, 0xf9, 0xff, 0xef, 0xff, 0xff, 0xff, 0xef,
   0xff, 0xff, 0xff, 0xd3, 0xff, 0xff, 0xff, 0xff, 0xe3, 0xff, 0x00, 0x00,
   0x00, 0x00, 0x00, 0x00, 0x00, 0x00, 0x00, 0x00, 0x00, 0xc0, 0x89, 0x03,
   0xf0, 0xfd, 0xff, 0xff, 0xf9, 0xff, 0xff, 0xfe, 0xf5, 0x3f, 0xbf, 0x83,
   0x3f, 0xff, 0xff, 0xff, 0xf7, 0xff, 0x01, 0x00, 0x00, 0x00, 0x00, 0x00,
   0x00, 0x00, 0x00, 0x00, 0x00, 0xe0, 0xc1, 0x09, 0xf2, 0x3f, 0x7e, 0xff,
   0x70, 0x7c, 0x78, 0xfe, 0xc0, 0x0f, 0x8e, 0xc3, 0x0f, 0x7e, 0x70, 0xfc,
   0xff, 0xc1, 0x01, 0x00, 0x00, 0x00, 0x00, 0x00, 0x00, 0x00, 0x00, 0x00,
   0x00, 0xe0, 0xc5, 0x71, 0xe0, 0x0f, 0x1e, 0x3e, 0x00, 0x3c, 0x00, 0x3f,
   0xc4, 0x0f, 0x80, 0xc7, 0x07, 0x1f, 0x10, 0x98, 0x7f, 0xc0, 0x01, 0x00,
   0x00, 0x00, 0x00, 0x00, 0x00, 0x00, 0x00, 0x00, 0x00, 0xf0, 0xc0, 0x7f,
   0xe0, 0x07, 0x1e, 0x9e, 0x40, 0x1e, 0x00, 0x1f, 0xc6, 0x03, 0xc0, 0xc1,
   0x27, 0x0f, 0x00, 0x00, 0x3f, 0xcc, 0x01, 0x00, 0x00, 0x00, 0x00, 0x00,
   0x00, 0x00, 0x00, 0x00, 0x00, 0xf0, 0xe4, 0xff, 0xc2, 0x17, 0x1f, 0x1e,
   0x08, 0x9e, 0x14, 0x1f, 0xcf, 0x23, 0xc7, 0xcb, 0x0f, 0xbf, 0x40, 0x80,
   0x1f, 0xce, 0x01, 0x00, 0x00, 0x00, 0x00, 0x00, 0x00, 0x00, 0x00, 0x00,
   0x00, 0x78, 0xe0, 0xff, 0x80, 0x4f, 0x4f, 0x3f, 0x1e, 0x0f, 0x06, 0x0f,
   0xe7, 0x97, 0xe3, 0xe1, 0x0f, 0x1f, 0x0a, 0x82, 0x0f, 0xc7, 0x01, 0x00,
   0x00, 0x00, 0x00, 0x00, 0x00, 0x00, 0x00, 0x00, 0x00, 0x78, 0xe2, 0x7f,
   0x82, 0x1f, 0x0f, 0x7f, 0xbc, 0x0f, 0x0f, 0x0f, 0xe2, 0x87, 0xef, 0xe1,
   0x8f, 0x3f, 0x10, 0x88, 0x2f, 0xe6, 0x00, 0x00, 0x00, 0x00, 0x00, 0x00,
   0x00, 0x00, 0x00, 0x00, 0x00, 0x3c, 0xf1, 0x7f, 0x80, 0x0f, 0x0f, 0x1f,
   0xfe, 0x27, 0x07, 0x07, 0xf0, 0xc7, 0xff, 0xe1, 0x87, 0x1f, 0x80, 0xc0,
   0x07, 0xe2, 0x00, 0x00, 0x00, 0x00, 0x00, 0x00, 0x00, 0x00, 0x00, 0x00,
   0x00, 0x3c, 0xf2, 0x7f, 0x82, 0x1f, 0x1f, 0x3f, 0xfe, 0x07, 0x0f, 0x27,
   0xf8, 0x87, 0xff, 0xe5, 0x8f, 0x5f, 0x10, 0x84, 0x07, 0xf0, 0x00, 0x00,
   0x00, 0x00, 0x00, 0x00, 0x00, 0x00, 0x00, 0x00, 0x00, 0x1e, 0xf0, 0x3f,
   0x80, 0x8f, 0x0f, 0x1f, 0xfe, 0x87, 0x87, 0x03, 0xfd, 0xd3, 0xff, 0xe1,
   0x87, 0x0f, 0x06, 0xc1, 0x17, 0x7a, 0x00, 0x00, 0x00, 0x00, 0x00, 0x00,
   0x00, 0x00, 0x00, 0x00, 0x00, 0x9e, 0xf2, 0x1f, 0x81, 0x8f, 0x27, 0x3f,
   0xfe, 0x17, 0x83, 0x47, 0xff, 0xc7, 0xff, 0xe1, 0x97, 0x1f, 0x06, 0xc7,
   0x93, 0xff, 0x00, 0x00, 0x00, 0x00, 0x00, 0x00, 0x00, 0x00, 0x00, 0x00,
   0x00, 0x4f, 0xf0, 0x4f, 0x84, 0x27, 0x87, 0x1f, 0xff, 0x03, 0xd1, 0xd3,
   0xef, 0xc3, 0xff, 0xf4, 0xc7, 0x4f, 0x06, 0xc1, 0xc7, 0xff, 0x00, 0x00,
   0x00, 0x00, 0x00, 0x00, 0x00, 0x00, 0x00, 0x00, 0x00, 0x0f, 0xf2, 0x0f,
   0xc0, 0x07, 0x90, 0x1f, 0xfe, 0x17, 0xc0, 0xc3, 0xc7, 0xc3, 0xff, 0xf0,
   0xc7, 0x0f, 0x26, 0xc3, 0x87, 0xef, 0x01, 0x00, 0x00, 0x00, 0x00, 0x00,
   0x00, 0x00, 0x00, 0x00, 0x00, 0x4f, 0xf0, 0x21, 0xc0, 0x07, 0x00, 0x0e,
   0xff, 0x43, 0xe0, 0xc7, 0xe3, 0xeb, 0xff, 0xf0, 0xc3, 0x0f, 0x82, 0xe9,
   0x93, 0xc7, 0x00, 0x00, 0x00, 0x00, 0x00, 0x00, 0x00, 0x00, 0x00, 0x00,
   0x80, 0x87, 0x02, 0x00, 0xe1, 0x2f, 0x02, 0x2e, 0xfe, 0x07, 0xc1, 0x07,
   0xe0, 0xc3, 0xff, 0xf0, 0x83, 0x2f, 0x8a, 0xe1, 0x07, 0xe0, 0x00, 0x00,
   0x00, 0x00, 0x00, 0x00, 0x00, 0x00, 0x00, 0x00, 0x80, 0x07, 0x00, 0x40,
   0xe0, 0x07, 0x10, 0x0f, 0xfe, 0x8f, 0xc0, 0x27, 0xe0, 0x81, 0x7f, 0xe2,
   0xcb, 0x07, 0x83, 0xc1, 0x27, 0xe0, 0x00, 0x00, 0x00, 0x00, 0x00, 0x00,
   0x00, 0x00, 0x00, 0x00, 0xc0, 0xa3, 0x24, 0x09, 0xf0, 0x27, 0x01, 0x1f,
   0xfe, 0xbf, 0xc5, 0x8f, 0xf0, 0xc3, 0xff, 0xe0, 0xc3, 0x0f, 0x83, 0xc1,
   0x8f, 0xf0, 0x00, 0x00, 0x00, 0x00, 0x00, 0x00, 0x00, 0x00, 0x00, 0x00,
   0xc0, 0x03, 0x02, 0x00, 0xf9, 0x03, 0x84, 0x0f, 0xff, 0xff, 0xc0, 0x0f,
   0xf8, 0xe1, 0x7f, 0xf2, 0xf1, 0x07, 0x89, 0xe0, 0x4f, 0x70, 0x00, 0x00,
   0x00, 0x00, 0x00, 0x00, 0x00, 0x00, 0x00, 0x00, 0xe0, 0x41, 0x04, 0x01,
   0xfc, 0x2f, 0x9f, 0x8f, 0xf7, 0xff, 0xe5, 0xbf, 0xfc, 0xf1, 0x7b, 0xf8,
   0xf9, 0x9f, 0xc3, 0xfa, 0x1f, 0x79, 0x00, 0x00, 0x00, 0x00, 0x00, 0x00,
   0x00, 0x00, 0x00, 0x00, 0xe0, 0x00, 0x11, 0x48, 0xfe, 0xdf, 0xff, 0xef,
   0xe3, 0xeb, 0xe0, 0xff, 0xff, 0x7f, 0x78, 0xfe, 0x7f, 0xff, 0xef, 0x7f,
   0xbe, 0x3e, 0x00, 0x00, 0x00, 0x00, 0x00, 0x00, 0x00, 0x00, 0x00, 0x00,
   0xf0, 0x00, 0x20, 0x00, 0x3f, 0xfe, 0xff, 0xfd, 0xf1, 0x40, 0xf0, 0xf9,
   0xcf, 0x7f, 0xf8, 0xbf, 0x3f, 0xff, 0xff, 0x7f, 0xfc, 0x1f, 0x00, 0x00,
   0x00, 0x00, 0x00, 0x00, 0x00, 0x00, 0x00, 0x00, 0xf0, 0x01, 0x85, 0x82,
   0x3f, 0xfc, 0x7c, 0xfc, 0x78, 0x00, 0xe0, 0xe0, 0x83, 0x0f, 0xf8, 0x8f,
   0x0f, 0x5c, 0x3e, 0x17, 0xf8, 0x07, 0x00, 0x00, 0x00, 0x00, 0x00, 0x00,
   0x00, 0x00, 0x00, 0x00, 0xf0, 0x03, 0x28, 0xe0, 0x0f, 0x00, 0x10, 0x10,
   0x3c, 0x82, 0xe0, 0x01, 0x00, 0x00, 0xf0, 0x07, 0x00, 0x00, 0x00, 0x00,
   0xc0, 0x02, 0x00, 0x00, 0x00, 0x00, 0x00, 0x00, 0x00, 0x00, 0x00, 0x00,
   0xf0, 0x8f, 0x80, 0xfc, 0x07, 0x00, 0x00, 0x00, 0xbc, 0x30, 0xe0, 0x00,
   0x00, 0x00, 0x40, 0x00, 0x00, 0x00, 0x00, 0x00, 0x00, 0x00, 0x00, 0x00,
   0x00, 0x00, 0x00, 0x00, 0x00, 0x00, 0x00, 0x00, 0xc0, 0xbf, 0x04, 0xfd,
   0x01, 0x00, 0x00, 0x00, 0x1e, 0x78, 0xe0, 0x00, 0x00, 0x00, 0x80, 0x00,
   0x00, 0x00, 0x00, 0x00, 0x00, 0x00, 0x00, 0x00, 0x00, 0x00, 0x00, 0x00,
   0x00, 0x00, 0x00, 0x00, 0x80, 0xff, 0xff, 0x7f, 0xab, 0xaa, 0x52, 0x02,
   0x8e, 0x78, 0xe2, 0x94, 0x52, 0xaa, 0x2a, 0x95, 0x54, 0x49, 0xaa, 0xaa,
   0x4a, 0xaa, 0x0a, 0x00, 0x00, 0x00, 0x00, 0x00, 0x00, 0x00, 0x00, 0x00,
   0x00, 0xfe, 0xff, 0xdf, 0xff, 0xff, 0xff, 0x3f, 0x1e, 0x3c, 0xe0, 0xfc,
   0xff, 0xff, 0xff, 0xff, 0xff, 0xff, 0xff, 0xff, 0xff, 0xff, 0x0b, 0x00,
   0x00, 0x00, 0x00, 0x00, 0x00, 0x00, 0x00, 0x00, 0x00, 0xfc, 0xff, 0xf7,
   0xff, 0xff, 0xff, 0x3f, 0x4f, 0x3c, 0xe0, 0xfc, 0xff, 0xff, 0xff, 0xff,
   0xff, 0xff, 0xff, 0xff, 0xff, 0xff, 0x03, 0x00, 0x00, 0x00, 0x00, 0x00,
   0x00, 0x00, 0x00, 0x00, 0x00, 0xe0, 0xff, 0x7a, 0x00, 0x00, 0x00, 0x38,
   0x0f, 0x38, 0x70, 0x1e, 0x00, 0x00, 0x00, 0x00, 0x00, 0x00, 0x00, 0x00,
   0x00, 0x80, 0x03, 0x00, 0x00, 0x00, 0x00, 0x00, 0x00, 0x00, 0x00, 0x00,
   0x00, 0x00, 0x04, 0x3e, 0x40, 0x10, 0x04, 0x38, 0x4f, 0x0c, 0x71, 0x1e,
   0x00, 0x00, 0x40, 0x84, 0x08, 0x41, 0x08, 0x01, 0x00, 0xc0, 0x01, 0x00,
   0x00, 0x00, 0x00, 0x00, 0x00, 0x00, 0x00, 0x00, 0x00, 0x00, 0x00, 0x1f,
   0x04, 0x81, 0x20, 0x78, 0x8e, 0x00, 0x70, 0x0e, 0x48, 0x10, 0x09, 0x10,
   0x10, 0x84, 0x10, 0x24, 0x09, 0xe0, 0x00, 0x00, 0x00, 0x00, 0x00, 0x00,
   0x00, 0x00, 0x00, 0x00, 0x00, 0x00, 0xe0, 0x47, 0x10, 0x00, 0x00, 0x70,
   0x0e, 0x20, 0x38, 0x4f, 0x01, 0x45, 0x80, 0x00, 0x00, 0x00, 0x00, 0x00,
   0xa0, 0x78, 0x00, 0x00, 0x00, 0x00, 0x00, 0x00, 0x00, 0x00, 0x00, 0x00,
   0x00, 0x00, 0xe0, 0x87, 0x42, 0x2a, 0x04, 0x70, 0x9e, 0x02, 0x3c, 0x07,
   0x24, 0x00, 0x00, 0x00, 0x21, 0x00, 0x40, 0x80, 0x04, 0x3d, 0x00, 0x00,
   0x00, 0x00, 0x00, 0x00, 0x00, 0x00, 0x00, 0x00, 0x00, 0x00, 0xf0, 0xff,
   0xff, 0xff, 0xff, 0xff, 0x1c, 0x00, 0x9e, 0xff, 0xdf, 0xff, 0xff, 0xff,
   0xff, 0xff, 0xff, 0xff, 0xff, 0x1f, 0x00, 0x00, 0x00, 0x00, 0x00, 0x00,
   0x00, 0x00, 0x00, 0x00, 0x00, 0x00, 0xf0, 0xff, 0xff, 0xff, 0xff, 0xff,
   0x3c, 0x15, 0x9f, 0xff, 0xff, 0xff, 0xff, 0xff, 0xff, 0xff, 0xff, 0xff,
   0xff, 0x0f, 0x00, 0x00, 0x00, 0x00, 0x00, 0x00, 0x00, 0x00, 0x00, 0x00,
   0x00, 0x00, 0xa0, 0xaa, 0xaa, 0x6a, 0xb5, 0x6d, 0x7d, 0xc0, 0xc7, 0xff,
   0xff, 0xff, 0xff, 0xff, 0xff, 0xff, 0xff, 0xff, 0xff, 0x07, 0x00, 0x00,
   0x00, 0x00, 0x00, 0x00, 0x00, 0x00, 0x00, 0x00, 0x00, 0x00, 0x00, 0x00,
   0x00, 0x00, 0x00, 0x00, 0xf8, 0xea, 0x03, 0x00, 0x00, 0x00, 0x00, 0x00,
   0x00, 0x00, 0x00, 0x00, 0x00, 0x00, 0x00, 0x00, 0x00, 0x00, 0x00, 0x00,
   0x00, 0x00, 0x00, 0x00, 0x00, 0x00, 0x00, 0x00, 0x00, 0x00, 0x00, 0x00,
   0xe0, 0xff, 0x01, 0x00, 0x00, 0x00, 0x00, 0x00, 0x00, 0x00, 0x00, 0x00,
   0x00, 0x00, 0x00, 0x00, 0x00, 0x00, 0x00, 0x00, 0x00, 0x00, 0x00, 0x00,
   0x00, 0x00, 0x00, 0x00, 0x00, 0x00, 0x00, 0x00, 0xc0, 0x7f, 0x00, 0x00,
   0x00, 0x00, 0x00, 0x00, 0x00, 0x00, 0x00, 0x00, 0x00, 0x00, 0x00, 0x00,
   0x00, 0x00, 0x00, 0x00, 0x00, 0x00, 0x00, 0x00, 0x00, 0x00, 0x00, 0x00,
   0x00, 0x00, 0x00, 0x00, 0x00, 0x0a, 0x00, 0x00, 0x00, 0x00, 0x00, 0x00,
   0x00, 0x00, 0x00, 0x00, 0x00, 0x00, 0x00, 0x00, 0x00, 0x00, 0x00, 0x00,
   0x00, 0x00, 0x00, 0x00, 0x00, 0x00, 0x00, 0x00, 0x00, 0x00, 0x00, 0x00,
   0x00, 0x00, 0x00, 0x00, 0x00, 0x00, 0x00, 0x00, 0x00, 0x00, 0x00, 0x00,
   0x00, 0x00, 0x00, 0x00, 0x00, 0x00, 0x00, 0x00 };
