#define canyon_width 256
#define canyon_height 64
static unsigned char canyon_bits[] = {
   0x00, 0x00, 0x00, 0x00, 0x00, 0x00, 0x00, 0x00, 0x00, 0x00, 0x00, 0x00,
   0x00, 0x00, 0x00, 0x00, 0x00, 0x00, 0x00, 0x00, 0x00, 0x00, 0x00, 0x00,
   0x00, 0x00, 0x00, 0x00, 0x00, 0x00, 0x00, 0x00, 0x00, 0x00, 0x00, 0x00,
   0x00, 0x00, 0x00, 0x00, 0x00, 0x00, 0x00, 0x00, 0x00, 0x00, 0x00, 0x00,
   0x00, 0x00, 0x00, 0x00, 0x00, 0x00, 0x00, 0x00, 0x00, 0x00, 0x00, 0x00,
   0x00, 0x00, 0x00, 0x00, 0x00, 0x00, 0x00, 0x00, 0x00, 0x00, 0x00, 0x00,
   0x00, 0x00, 0x00, 0x00, 0x00, 0x00, 0x00, 0x00, 0x00, 0x00, 0x00, 0x00,
   0x00, 0x00, 0x00, 0x00, 0x00, 0x00, 0x00, 0x00, 0x00, 0x00, 0x00, 0x00,
   0x00, 0x00, 0x00, 0x00, 0x00, 0x00, 0x00, 0x00, 0x00, 0x00, 0x00, 0x00,
   0x00, 0x00, 0x00, 0x00, 0x00, 0x00, 0x02, 0x00, 0x00, 0x00, 0x00, 0x00,
   0x00, 0x00, 0x00, 0x00, 0x00, 0x00, 0x00, 0x00, 0x00, 0x00, 0x00, 0x00,
   0x00, 0x00, 0x00, 0x00, 0x00, 0x00, 0x00, 0x00, 0x82, 0x81, 0x00, 0x02,
   0x11, 0x00, 0x21, 0x90, 0x00, 0x00, 0x00, 0x00, 0x00, 0x60, 0x00, 0x00,
   0x00, 0x00, 0x00, 0x00, 0x00, 0x00, 0x00, 0x00, 0x00, 0x00, 0x00, 0x00,
   0x43, 0x00, 0x00, 0x62, 0x0e, 0x91, 0x81, 0x12, 0x13, 0x20, 0x31, 0xc8,
   0x00, 0x60, 0x00, 0x60, 0x00, 0x70, 0x00, 0x00, 0x00, 0x00, 0x00, 0x00,
   0x00, 0x00, 0x00, 0x00, 0x00, 0x00, 0x00, 0x00, 0xc6, 0x00, 0x18, 0x84,
   0x1c, 0x30, 0x81, 0x32, 0x19, 0xa2, 0x18, 0x2e, 0x00, 0x3c, 0x0c, 0x3c,
   0x02, 0x3c, 0x00, 0x00, 0x00, 0x00, 0x00, 0x00, 0x00, 0x00, 0x00, 0x00,
   0x00, 0x00, 0x0c, 0x00, 0x1c, 0x00, 0x30, 0x1c, 0x78, 0x60, 0xc0, 0x31,
   0x39, 0x12, 0x16, 0x87, 0x80, 0x19, 0x83, 0x9f, 0x83, 0x06, 0x00, 0x00,
   0x00, 0x00, 0x00, 0x00, 0x00, 0x00, 0x00, 0x00, 0x00, 0x00, 0x78, 0x00,
   0x78, 0x60, 0xe0, 0x78, 0xca, 0xc8, 0x4a, 0x37, 0x35, 0x5b, 0x8b, 0x66,
   0x70, 0x84, 0xf1, 0xcd, 0x50, 0x00, 0x00, 0x00, 0x00, 0x00, 0x00, 0x00,
   0x00, 0x00, 0x00, 0x00, 0x00, 0x00, 0xe0, 0x07, 0xe0, 0xc3, 0xc3, 0xd3,
   0x00, 0x91, 0x5d, 0x5a, 0xb5, 0xd9, 0x69, 0x33, 0x00, 0x22, 0x3e, 0x24,
   0x08, 0xc0, 0x00, 0x00, 0x00, 0x00, 0x00, 0x00, 0x00, 0x00, 0x00, 0x80,
   0x00, 0x00, 0xc0, 0x3f, 0xc0, 0x0c, 0x86, 0x1c, 0x83, 0x07, 0x59, 0xf3,
   0xb7, 0x6d, 0x38, 0x98, 0x0d, 0xf3, 0x03, 0x01, 0x81, 0x7f, 0x00, 0x1f,
   0x00, 0x00, 0x00, 0x00, 0x00, 0x00, 0x00, 0x00, 0x0f, 0x00, 0x80, 0xf3,
   0x83, 0x71, 0x30, 0xa1, 0x07, 0x18, 0x66, 0xa7, 0x62, 0x37, 0x0d, 0xdc,
   0x8c, 0x7d, 0xa0, 0xa4, 0xfd, 0x1e, 0xc0, 0x07, 0x00, 0x00, 0x00, 0x00,
   0x00, 0x00, 0x00, 0x00, 0xfc, 0x00, 0x00, 0x86, 0x1f, 0x73, 0x46, 0x02,
   0x33, 0x82, 0x0c, 0x2a, 0x61, 0x93, 0x45, 0x4a, 0x46, 0x0e, 0xc4, 0xe8,
   0x07, 0x03, 0x10, 0x00, 0x00, 0x00, 0x00, 0x00, 0x00, 0x00, 0x00, 0x00,
   0xe0, 0x3f, 0x00, 0x0c, 0x78, 0x66, 0x0c, 0x36, 0x04, 0x88, 0x08, 0x09,
   0x60, 0x81, 0x48, 0x00, 0x81, 0x00, 0x01, 0x01, 0xc0, 0x01, 0x01, 0x00,
   0x00, 0x00, 0x00, 0x00, 0x00, 0x00, 0x00, 0x00, 0x00, 0xff, 0x07, 0x18,
   0xcc, 0x1f, 0x01, 0xf0, 0xe0, 0x00, 0x03, 0x41, 0x00, 0x00, 0x04, 0x69,
   0x10, 0xe0, 0x10, 0x04, 0x60, 0x20, 0x00, 0x00, 0x00, 0x00, 0x00, 0x00,
   0x00, 0x00, 0x00, 0x00, 0x00, 0xf8, 0xfe, 0x20, 0x9e, 0xf8, 0x85, 0x00,
   0xa8, 0x61, 0x1a, 0x17, 0x78, 0x16, 0xc3, 0xf2, 0xda, 0x72, 0x0a, 0x1e,
   0x10, 0x00, 0x00, 0xf0, 0x00, 0x00, 0x00, 0x00, 0x00, 0x00, 0x00, 0x00,
   0x00, 0xe0, 0xc1, 0x4f, 0x08, 0x40, 0x2e, 0x0e, 0x3f, 0xce, 0xd5, 0xf6,
   0x6e, 0xd8, 0x73, 0xe8, 0xeb, 0x07, 0x87, 0x07, 0x00, 0x00, 0xff, 0x3f,
   0x00, 0x00, 0x00, 0x00, 0x00, 0x00, 0x00, 0x00, 0x00, 0x00, 0x0f, 0xf8,
   0x00, 0x50, 0xf8, 0x08, 0x4c, 0xd6, 0xf5, 0xfa, 0x42, 0xec, 0x51, 0x69,
   0x7d, 0xc0, 0x57, 0x00, 0x80, 0xff, 0xdf, 0x07, 0x00, 0x00, 0x00, 0x00,
   0x00, 0x00, 0x00, 0x00, 0x00, 0x00, 0x78, 0xf0, 0x01, 0x8c, 0xd2, 0x95,
   0x6f, 0xb6, 0x94, 0xe8, 0x6b, 0xb4, 0xd6, 0xa4, 0x3f, 0x7c, 0x39, 0xc0,
   0xff, 0x0f, 0xe0, 0x01, 0x00, 0x00, 0x00, 0x00, 0x00, 0x00, 0x00, 0x00,
   0x00, 0x00, 0xc0, 0xe1, 0x17, 0x7e, 0x04, 0x2f, 0x37, 0xc6, 0xba, 0xe0,
   0x48, 0x98, 0x16, 0xf7, 0x87, 0xee, 0x0a, 0xe0, 0x01, 0x00, 0x7c, 0x00,
   0x00, 0x00, 0x00, 0x00, 0x00, 0x00, 0x00, 0xa0, 0xff, 0xff, 0x98, 0x07,
   0x20, 0xfe, 0x27, 0xe0, 0xf8, 0xda, 0x34, 0xf6, 0x66, 0x60, 0xd7, 0x5f,
   0xc0, 0x57, 0x20, 0x00, 0x00, 0x00, 0x0f, 0x00, 0x00, 0x00, 0x00, 0x00,
   0x00, 0x00, 0x00, 0x00, 0xf8, 0x23, 0xa7, 0x0c, 0x00, 0x80, 0x79, 0x84,
   0xef, 0x5c, 0xf7, 0xcc, 0x3c, 0x18, 0x7f, 0x0f, 0xde, 0x0a, 0xfe, 0x01,
   0x60, 0xe0, 0x01, 0x00, 0x00, 0x00, 0x00, 0x00, 0x00, 0x00, 0x00, 0x00,
   0x00, 0x8f, 0x0f, 0x00, 0x8f, 0x17, 0x58, 0x03, 0xe4, 0x6d, 0x9e, 0x7f,
   0xfa, 0xbc, 0xe6, 0x8a, 0x9f, 0x60, 0xf6, 0x03, 0x76, 0x3c, 0x00, 0x00,
   0x00, 0x00, 0x00, 0x00, 0x00, 0x00, 0x00, 0x00, 0x00, 0xf8, 0x57, 0x00,
   0x96, 0x7f, 0xfc, 0x7b, 0x60, 0x6c, 0x9f, 0xff, 0xd7, 0x0c, 0xe4, 0x9f,
   0x01, 0xff, 0x74, 0x40, 0x00, 0x07, 0xe0, 0x03, 0x00, 0x00, 0x00, 0x00,
   0x00, 0x00, 0x00, 0x7c, 0x00, 0x00, 0x03, 0x00, 0xc0, 0x7f, 0x94, 0xf9,
   0xf7, 0xd7, 0xcf, 0x6d, 0xf7, 0x57, 0xa1, 0x1f, 0x70, 0xff, 0x00, 0x04,
   0xc0, 0xe3, 0xfe, 0x01, 0x00, 0x00, 0x00, 0x00, 0x00, 0x00, 0x00, 0xf0,
   0xff, 0x1f, 0x3c, 0x00, 0xe0, 0x3f, 0x00, 0xf4, 0xff, 0xf7, 0xcf, 0xc7,
   0xef, 0x35, 0xed, 0x3d, 0xff, 0x02, 0xf8, 0x4f, 0xaa, 0x1e, 0x00, 0x00,
   0x00, 0x00, 0x00, 0x00, 0x00, 0x00, 0x00, 0x00, 0xfe, 0xf7, 0xff, 0x01,
   0xf0, 0x1f, 0x05, 0x7e, 0xd5, 0xe7, 0xef, 0xb9, 0xbe, 0xfd, 0xcd, 0x3f,
   0x02, 0xf4, 0x5b, 0x10, 0xfd, 0xff, 0xbf, 0x82, 0x00, 0x00, 0x00, 0x00,
   0x00, 0x00, 0x00, 0x00, 0xc0, 0x07, 0x00, 0x00, 0xa8, 0x8d, 0xff, 0xfd,
   0xbf, 0xb7, 0xef, 0x3f, 0x7f, 0xdf, 0x47, 0x05, 0x74, 0xfd, 0xe7, 0x3f,
   0x2a, 0xfe, 0xff, 0xff, 0x03, 0x00, 0x00, 0x00, 0x00, 0x00, 0x00, 0x00,
   0x00, 0xfc, 0x00, 0x01, 0x00, 0x80, 0x6d, 0xff, 0xff, 0xb2, 0xe7, 0x3f,
   0xfe, 0xfb, 0x07, 0x70, 0xfe, 0x79, 0xe7, 0x7f, 0x41, 0x01, 0x18, 0x00,
   0x00, 0x00, 0x00, 0x00, 0x00, 0x00, 0x00, 0x00, 0x00, 0x80, 0x87, 0x07,
   0x00, 0xc0, 0x3e, 0xfe, 0xfd, 0xbb, 0xe7, 0x3f, 0xe0, 0x37, 0x80, 0xff,
   0xfe, 0x72, 0xcf, 0x7f, 0xe4, 0x01, 0x1e, 0x15, 0x08, 0x00, 0x00, 0x00,
   0x00, 0x00, 0x00, 0x00, 0x00, 0x00, 0x3e, 0x00, 0xcf, 0xe3, 0xbd, 0x7f,
   0xfc, 0x5b, 0xa6, 0xbf, 0xc0, 0x7f, 0x00, 0xbf, 0xef, 0xe7, 0x9f, 0xae,
   0x0a, 0xf0, 0x62, 0xd5, 0x3f, 0x00, 0x00, 0x00, 0x00, 0x00, 0x00, 0xc0,
   0xff, 0xff, 0x17, 0x01, 0xff, 0xbf, 0x9f, 0x7f, 0xfe, 0xf9, 0xf7, 0x3f,
   0xc0, 0x7f, 0x00, 0xfb, 0xfd, 0xef, 0x3f, 0xfb, 0x03, 0x7c, 0x00, 0x00,
   0x00, 0x00, 0x00, 0x00, 0x00, 0x00, 0x00, 0x00, 0xf8, 0x01, 0xc0, 0xff,
   0xbf, 0x4a, 0x08, 0x00, 0xde, 0xfd, 0xf3, 0x3f, 0xe0, 0x6f, 0x00, 0xff,
   0xfb, 0xef, 0x7f, 0xde, 0x07, 0xfe, 0x0f, 0x00, 0x00, 0x00, 0x00, 0x00,
   0x00, 0x00, 0x00, 0x00, 0x00, 0x3f, 0xc0, 0x05, 0x28, 0x40, 0xc6, 0x3e,
   0xfe, 0xfd, 0xe3, 0x3f, 0xd0, 0x77, 0x80, 0xfe, 0xdf, 0x46, 0x6e, 0x54,
   0x05, 0x80, 0xff, 0x03, 0x00, 0x00, 0x00, 0x00, 0x00, 0x00, 0x00, 0x00,
   0x00, 0xf0, 0x01, 0x20, 0xc0, 0xff, 0xeb, 0x3e, 0xaf, 0x24, 0x07, 0x9f,
   0xd6, 0x11, 0x3d, 0xfd, 0x23, 0x28, 0x8d, 0x9b, 0xfc, 0x23, 0xf6, 0x7f,
   0x00, 0x00, 0x00, 0x00, 0x00, 0x00, 0x00, 0x00, 0x00, 0x00, 0xfe, 0xfb,
   0xfb, 0x3f, 0xfe, 0xfe, 0xbd, 0x7f, 0xbc, 0xac, 0x9b, 0xbe, 0xbb, 0xff,
   0xe4, 0x7f, 0xb3, 0xfb, 0x7e, 0x07, 0x70, 0xfa, 0x5f, 0x00, 0x00, 0x00,
   0x00, 0x00, 0x00, 0x00, 0x00, 0xf8, 0x7d, 0xdf, 0xfd, 0x9f, 0x77, 0xef,
   0xdf, 0xce, 0xca, 0x31, 0x8d, 0x0b, 0xa8, 0x1e, 0x0a, 0xfe, 0xe7, 0xfd,
   0x7f, 0x1f, 0x00, 0x00, 0xfc, 0x7f, 0x00, 0x00, 0x00, 0x00, 0x00, 0x00,
   0xe0, 0x15, 0xa4, 0xed, 0xbf, 0xcf, 0x77, 0xdb, 0xde, 0xf6, 0x6b, 0xce,
   0xb4, 0x7d, 0xd3, 0x3a, 0xa9, 0x34, 0x4d, 0x53, 0xff, 0x37, 0x00, 0x00,
   0xfe, 0x05, 0x00, 0x00, 0x00, 0x00, 0x00, 0x00, 0xff, 0x02, 0xf6, 0x7d,
   0xef, 0xe6, 0xaf, 0xed, 0x4f, 0x79, 0x29, 0xe6, 0xbe, 0xb7, 0x6f, 0x6f,
   0x41, 0xff, 0xdf, 0xbd, 0x7f, 0x7f, 0x00, 0xff, 0x0f, 0x00, 0x00, 0x00,
   0x00, 0x00, 0x00, 0xfc, 0x03, 0x0e, 0xfb, 0x7f, 0xf5, 0xf4, 0xef, 0xe5,
   0x6b, 0x97, 0x11, 0x96, 0x9f, 0xc7, 0xff, 0x7d, 0x53, 0xdf, 0x9f, 0xfd,
   0xd9, 0x7f, 0xf4, 0x1f, 0x00, 0x00, 0x00, 0x00, 0x00, 0x00, 0x80, 0xff,
   0x00, 0x80, 0xed, 0xe3, 0xfd, 0x98, 0xff, 0xff, 0xee, 0xd3, 0xdb, 0xf9,
   0xa3, 0xf7, 0xd0, 0x6d, 0xae, 0x1e, 0x00, 0xef, 0x63, 0xe9, 0x1f, 0x00,
   0x00, 0x00, 0x00, 0x00, 0x00, 0x00, 0x00, 0xc0, 0xff, 0xc0, 0x7f, 0xa1,
   0x7f, 0xa8, 0xfe, 0xde, 0xa6, 0xfe, 0x45, 0xfc, 0xbd, 0xfd, 0x91, 0x7d,
   0x5c, 0xed, 0x7f, 0xa7, 0xf3, 0x1f, 0x3f, 0x00, 0x00, 0x00, 0x00, 0x00,
   0x00, 0x00, 0x00, 0x00, 0xe0, 0xff, 0x01, 0xd8, 0x6a, 0x7c, 0x9a, 0xaf,
   0xb7, 0x36, 0xc3, 0x3e, 0x9d, 0xaf, 0xef, 0x3e, 0xec, 0xfd, 0x76, 0xfe,
   0x7e, 0x3f, 0xe0, 0x5f, 0x0f, 0x00, 0x00, 0x00, 0x00, 0x00, 0x00, 0x00,
   0x00, 0x0f, 0xe4, 0x7f, 0x3d, 0xfc, 0x0f, 0xbf, 0xb3, 0x1f, 0xfe, 0xf3,
   0x3f, 0xeb, 0xf8, 0x1d, 0xfc, 0xff, 0xde, 0x5c, 0xaf, 0xfe, 0x81, 0x7f,
   0x0e, 0x00, 0x00, 0x00, 0x00, 0x00, 0x00, 0x00, 0xfc, 0x41, 0xff, 0x3f,
   0x1f, 0x7e, 0x81, 0xf7, 0xf3, 0x17, 0x37, 0xd3, 0x6d, 0xf7, 0xae, 0x1e,
   0xb8, 0x2b, 0xfb, 0xfc, 0xfb, 0xff, 0x07, 0xf8, 0x00, 0x00, 0x00, 0x00,
   0x00, 0x00, 0x00, 0xf8, 0x83, 0x78, 0x7f, 0xfe, 0x07, 0x1f, 0x84, 0xd1,
   0xf3, 0x17, 0xb7, 0xf2, 0x3f, 0xff, 0xbf, 0xfe, 0x58, 0xfd, 0xab, 0xf9,
   0xff, 0xfd, 0x1f, 0xf0, 0x0f, 0x00, 0x00, 0x00, 0x00, 0x00, 0x00, 0xff,
   0x9f, 0xfc, 0xb7, 0xf7, 0x03, 0x83, 0xc7, 0x5e, 0xfb, 0x1f, 0xbf, 0xf3,
   0x77, 0xdb, 0xf6, 0xf7, 0xb1, 0xdf, 0xfe, 0x5b, 0x2e, 0xff, 0x3b, 0xff,
   0x00, 0x00, 0x00, 0x00, 0x00, 0x00, 0x00, 0x00, 0x80, 0xff, 0x01, 0xff,
   0x07, 0xe8, 0xc7, 0xbe, 0xf9, 0x9f, 0xf7, 0xf3, 0x5b, 0xff, 0xc3, 0xfd,
   0xd3, 0xdb, 0xff, 0x33, 0x6d, 0xfc, 0x7f, 0x0f, 0x00, 0x00, 0x00, 0x00,
   0x00, 0x00, 0x00, 0x00, 0x20, 0x1f, 0x1c, 0xfb, 0x83, 0xff, 0xe3, 0xff,
   0xf9, 0x9a, 0x7b, 0xf3, 0x7f, 0xff, 0xc7, 0xff, 0xf3, 0x7d, 0x00, 0x70,
   0xff, 0x9c, 0xfb, 0x78, 0x00, 0x00, 0x00, 0x00, 0x00, 0x00, 0x00, 0x00,
   0x1d, 0xa1, 0x8f, 0x3f, 0xc0, 0x7f, 0x63, 0xef, 0xfd, 0x9f, 0xff, 0xf3,
   0x7f, 0xff, 0xc7, 0xff, 0xe7, 0xff, 0x00, 0xe0, 0xff, 0xf9, 0xff, 0xe1,
   0x01, 0x00, 0x00, 0x00, 0x00, 0x00, 0x00, 0xe0, 0x17, 0xfc, 0xe7, 0x06,
   0xc7, 0xfb, 0xb1, 0xff, 0xfc, 0x9f, 0xff, 0xf3, 0x7f, 0xf7, 0xff, 0xfd,
   0xe7, 0xbf, 0x00, 0xc0, 0xff, 0xf3, 0xff, 0x03, 0x0f, 0x00, 0x00, 0x00,
   0x00, 0x00, 0x00, 0x78, 0xc0, 0xff, 0x3f, 0xf0, 0xe3, 0xf7, 0xbb, 0xe7,
   0xfc, 0x8f, 0xff, 0xf3, 0x7f, 0xff, 0xff, 0xff, 0xef, 0xff, 0xff, 0x9f,
   0xff, 0xe3, 0xfe, 0xe7, 0x13, 0x00, 0x00, 0x00, 0x00, 0x00, 0xf0, 0x8f,
   0xe4, 0xff, 0x0f, 0xfe, 0xf3, 0xff, 0xff, 0xf7, 0xfe, 0xcf, 0xff, 0xf3,
   0x7f, 0xf7, 0xff, 0xf7, 0xcf, 0xff, 0xff, 0xbf, 0xff, 0xc7, 0xff, 0x0f,
   0x07, 0x00, 0x00, 0x00, 0x00, 0xa0, 0xff, 0x73, 0xf5, 0xff, 0xe0, 0xff,
   0xf3, 0xff, 0xff, 0x7b, 0xfe, 0xcf, 0xff, 0xf3, 0x7f, 0xfe, 0xff, 0xfe,
   0xcf, 0xff, 0xff, 0xbf, 0xff, 0x8f, 0xff, 0x1f, 0x3c, 0x00, 0x00, 0x00,
   0x00, 0x00, 0x00, 0x88, 0xfa, 0x0f, 0xfe, 0xff, 0xf9, 0xff, 0xff, 0x7f,
   0xfe, 0xce, 0xef, 0xf3, 0x7f, 0xfe, 0xff, 0xff, 0x8f, 0xff, 0xff, 0x7f,
   0xff, 0x9f, 0xff, 0x3f, 0xe0, 0x01, 0x00, 0x00, 0x00, 0x00, 0x00, 0xff,
   0xfc, 0xe1, 0xef, 0xff, 0xf8, 0xff, 0xdf, 0x7f, 0x1e, 0xc6, 0xff, 0xf3,
   0x7f, 0xfe, 0xff, 0xff, 0x8f, 0xff, 0xff, 0xff, 0xfe, 0xbf, 0xff, 0xff,
   0xfd, 0x0f, 0x00, 0x00, 0x00, 0x00, 0xc0, 0x1f, 0x7f, 0xff, 0xff, 0x7f,
   0xfc, 0xff, 0x67, 0x3f, 0x0f, 0xe6, 0xfb, 0xf3, 0xff, 0xfe, 0xff, 0xff,
   0x3f, 0xef, 0xff, 0xff, 0xfc, 0x8f, 0xff, 0xff, 0x03, 0x00, 0x00, 0x00,
   0x00, 0x00, 0xf0, 0x80, 0x01, 0xfe, 0xff, 0x7f, 0xfc, 0xff, 0x63, 0x1e,
   0x03, 0xee, 0xff, 0xfb, 0x8d, 0xff, 0xff, 0xff, 0x7f, 0xe7, 0x1f, 0xfc,
   0xfd, 0x07, 0xfc, 0xff, 0x07, 0x00, 0x00, 0x00, 0x00, 0x00, 0x1c, 0xe0,
   0x04, 0xf6, 0xff, 0x3f, 0xfc, 0xff, 0x81, 0xd8, 0x01, 0xff, 0x7e, 0xfc,
   0x07, 0xff, 0xff, 0xff, 0xff, 0x07, 0x8b, 0xc1, 0xfb, 0x7f, 0xf8, 0xff,
   0xbf, 0x01, 0x00, 0x00, 0x00, 0x00, 0x03, 0xb8, 0x01, 0xec, 0x1f, 0x0c,
   0xfc, 0x7f, 0x00, 0xf6, 0x03, 0xfe, 0x1f, 0xf8, 0x03, 0x46, 0xf9, 0xff,
   0xff, 0x7f, 0x80, 0x02, 0xff, 0x7f, 0x40, 0xff, 0xff, 0x07, 0x00, 0x00,
   0x00, 0x00, 0x00, 0x1c, 0x80, 0xdd, 0x01, 0x4c, 0xff, 0xff, 0xc7, 0xcb,
   0x0f, 0xfc, 0x17, 0x7c, 0x00, 0x00, 0xc0, 0xff, 0xff, 0xff, 0x07, 0x00,
   0xfc, 0xe7, 0x0f, 0xfe, 0xff, 0x7f, 0x00, 0x00, 0x00, 0x00, 0x00, 0x02,
   0x80, 0xf9, 0x0f, 0x7a, 0xfe, 0xff, 0xff, 0x00, 0x1f, 0x18, 0x00, 0x34,
   0x00, 0x00, 0x00, 0xfc, 0xff, 0xff, 0x3f, 0x00, 0x00, 0x00, 0x7f, 0xe0,
   0xff, 0xff, 0x07, 0x00, 0x00, 0x00, 0x00, 0x00, 0x00, 0x00, 0x00, 0x00,
   0x00, 0x00, 0x00, 0x00, 0x00, 0x00, 0x00, 0x00, 0x00, 0x00, 0x00, 0x00,
   0x00, 0x00, 0x00, 0x00, 0x00, 0x00, 0x00, 0x00, 0x00, 0x00, 0x00, 0x00,
   0x00, 0x00, 0x00, 0x00, 0x00, 0x00, 0x00, 0x00, 0x00, 0x00, 0x00, 0x00,
   0x00, 0x00, 0x00, 0x00, 0x00, 0x00, 0x00, 0x00, 0x00, 0x00, 0x00, 0x00,
   0x00, 0x00, 0x00, 0x00, 0x00, 0x00, 0x00, 0x00 };
