#define _width 256
#define _height 64
static char _bits[] = {
 0x00,0x00,0x00,0x00,0x00,0x00,0x00,0x00,0x00,0x00,0x00,0x00,
 0x00,0x00,0x00,0x00,0x00,0x00,0x00,0x00,0x00,0x00,0x00,0x00,
 0x00,0x00,0x00,0x00,0x00,0x00,0x00,0x00,0x00,0x00,0x00,0x00,
 0x00,0x00,0x00,0x00,0x00,0x00,0x00,0x00,0x00,0x00,0x00,0x00,
 0x00,0x00,0x00,0x00,0x00,0x00,0x00,0x00,0x00,0x00,0x00,0x00,
 0x00,0x00,0x00,0x00,0x00,0x00,0x00,0x00,0x00,0x00,0x00,0x00,
 0x00,0x00,0x00,0x00,0x00,0x00,0x00,0x00,0x00,0x00,0x00,0x00,
 0x00,0x00,0x00,0x00,0x00,0x00,0x00,0x00,0x00,0x00,0x00,0x00,
 0x00,0x00,0x40,0x00,0x00,0x00,0x00,0x00,0x00,0x00,0x00,0x00,
 0x00,0x00,0x00,0x00,0x00,0x00,0x00,0x00,0x00,0x00,0x00,0x00,
 0x00,0x00,0x00,0x00,0x00,0x00,0x00,0x00,0x00,0x00,0x40,0x00,
 0x00,0x00,0x00,0x00,0x00,0x00,0x00,0x00,0x00,0x00,0x00,0x00,
 0x00,0x00,0x00,0x00,0x00,0x00,0x00,0x00,0x00,0x00,0x00,0x00,
 0x00,0x00,0x00,0x00,0x00,0x80,0xe6,0x2c,0x00,0x00,0x00,0x00,
 0x00,0x00,0x00,0x00,0x00,0x00,0x00,0x00,0x00,0x00,0x00,0x00,
 0x00,0x00,0x00,0x00,0x00,0x00,0x00,0x00,0x00,0x00,0x00,0x00,
 0x00,0x80,0xff,0x3e,0x00,0x00,0x00,0x00,0x00,0x00,0x00,0xe0,
 0x01,0x00,0x00,0x00,0x00,0x00,0x00,0x00,0x00,0x00,0x00,0x00,
 0x00,0x00,0x00,0x00,0x00,0x00,0x00,0x00,0x00,0x80,0xff,0x3f,
 0x00,0x00,0x00,0x00,0x00,0x00,0x00,0xfc,0x0f,0x00,0x00,0x00,
 0x00,0x00,0x00,0x00,0x00,0x00,0x00,0x00,0x00,0x00,0x00,0x00,
 0x00,0x00,0x00,0x00,0x00,0x80,0xff,0x3f,0x00,0x00,0x00,0x00,
 0x00,0x00,0x00,0xff,0x3f,0x00,0x00,0x00,0x00,0x00,0x00,0x00,
 0x00,0x00,0x00,0x00,0x00,0x00,0x00,0x00,0x00,0x00,0x00,0x00,
 0x00,0x80,0xff,0x1f,0x00,0x00,0x00,0x00,0x00,0x00,0x80,0xff,
 0x7f,0x00,0x00,0x00,0x00,0x00,0x00,0x00,0x00,0x00,0x00,0x00,
 0x00,0x00,0x00,0x00,0x00,0x00,0x00,0x00,0x00,0x00,0xff,0x1f,
 0x00,0x00,0x00,0x00,0x00,0x00,0xc0,0xff,0xff,0x00,0x00,0x00,
 0x00,0x00,0x00,0x00,0x00,0x00,0x00,0x00,0x00,0x00,0x00,0x00,
 0x00,0x00,0x00,0x00,0x00,0x00,0xff,0x1f,0x00,0x00,0x00,0x00,
 0x00,0x00,0xe0,0xff,0xff,0x01,0x00,0x00,0x00,0x00,0x00,0x00,
 0x00,0x00,0x00,0x00,0x00,0x00,0x3e,0x00,0x00,0x00,0x00,0x00,
 0x00,0x00,0xff,0x1f,0x00,0x00,0x00,0x00,0x00,0x00,0xf0,0xff,
 0xff,0x03,0x00,0x00,0x00,0x00,0x00,0x00,0x00,0x00,0x00,0x00,
 0x00,0xe0,0xff,0x00,0x00,0x00,0x00,0x00,0x00,0x00,0xfe,0x0f,
 0x00,0x00,0x00,0x00,0x00,0x00,0xf0,0xff,0xff,0x07,0x00,0x00,
 0x00,0x00,0x00,0x00,0x00,0x00,0x00,0x00,0x00,0xe2,0xff,0x01,
 0x00,0x00,0x00,0x00,0x00,0x00,0xfe,0x0f,0x00,0x00,0x00,0x00,
 0x00,0x00,0xf0,0xff,0xff,0xe7,0xef,0x0f,0xff,0x1f,0xf8,0x07,
 0xe0,0x1f,0x00,0x00,0xe0,0xe7,0xff,0x01,0x00,0x00,0x00,0x00,
 0x00,0x00,0xfe,0x0f,0x00,0x00,0x00,0x00,0x00,0x00,0xf8,0xff,
 0xff,0xe3,0xef,0x0f,0xff,0x1f,0xfc,0x1f,0xf8,0x3f,0x00,0x00,
 0xfc,0xff,0xff,0x03,0x00,0xf0,0x03,0x00,0x00,0x00,0xfc,0x07,
 0x00,0x00,0x00,0x00,0x00,0x00,0xf8,0xff,0xff,0xe1,0xef,0x0f,
 0xff,0x1f,0xfe,0x3f,0xfc,0x7f,0x00,0x00,0xff,0xff,0xff,0x03,
 0x00,0xf8,0x07,0x00,0x00,0x00,0xfc,0x07,0x00,0x00,0x00,0x00,
 0x00,0x00,0xf8,0x7f,0x7e,0xc0,0xef,0x0f,0xff,0x1f,0xff,0x7f,
 0xfc,0xff,0x00,0x00,0xff,0xff,0xff,0x03,0x00,0xf8,0x07,0x00,
 0x00,0x00,0xf8,0x03,0x00,0x00,0x00,0x00,0x00,0x00,0xf0,0x3f,
 0x30,0xc0,0xef,0x0f,0xff,0x0f,0xff,0x7f,0xfc,0xff,0x00,0x00,
 0xff,0xff,0xff,0x03,0x00,0xfc,0x07,0x00,0x00,0x00,0xf8,0x03,
 0x00,0x00,0x00,0x00,0x00,0x00,0xf0,0x1f,0x00,0xc0,0xcf,0x07,
 0xff,0x0f,0xff,0x1f,0xfc,0x7f,0x00,0x00,0xff,0xff,0xff,0x03,
 0x00,0xfc,0x07,0x00,0x00,0x00,0xfc,0x07,0x00,0x00,0x00,0x00,
 0x00,0x00,0xf0,0x1f,0x00,0xc0,0xcf,0x07,0xff,0x00,0xfe,0x0e,
 0xfc,0x3f,0x00,0x00,0xff,0xff,0xff,0x03,0x00,0xf8,0x07,0x00,
 0x00,0x00,0xfe,0x0f,0x00,0x00,0x00,0x00,0x00,0x00,0xf0,0x1f,
 0x00,0xc0,0xcf,0x07,0xfe,0x00,0xfc,0x04,0xf8,0x09,0x00,0x00,
 0xff,0xff,0xff,0x03,0x00,0xf8,0x07,0x00,0x00,0x00,0xff,0x1f,
 0x00,0x00,0x00,0x00,0x00,0x00,0xe0,0x3f,0x00,0xc0,0xff,0x07,
 0xfe,0x07,0xf8,0x00,0xf0,0x03,0x00,0x00,0xff,0xf1,0xff,0x03,
 0x00,0xf8,0x03,0x00,0x00,0xc0,0xff,0x7f,0x00,0x00,0x00,0x00,
 0x00,0x00,0xe0,0x7f,0x00,0x80,0xff,0x07,0xfe,0x07,0xf0,0x01,
 0xc0,0x07,0x00,0x00,0x0f,0xf0,0xff,0x03,0x00,0xf0,0x03,0x00,
 0x00,0xc0,0xff,0x7f,0x00,0x00,0x00,0x00,0x00,0x00,0xc0,0xff,
 0x01,0x80,0xff,0x07,0xfe,0x07,0xe0,0x03,0x80,0x0f,0x00,0x00,
 0x00,0xf0,0xff,0x03,0x00,0xfe,0x1f,0x00,0x00,0x80,0xff,0x3f,
 0x00,0x00,0x00,0x00,0x00,0x00,0xc0,0xff,0x3f,0x80,0xff,0x03,
 0xfe,0x07,0x90,0x07,0x20,0x1f,0x00,0x00,0x00,0xf0,0xff,0x03,
 0x00,0xf8,0x07,0x00,0x00,0x00,0xff,0x1f,0x00,0x00,0x00,0x00,
 0x00,0x00,0x80,0xff,0x1f,0x80,0xc7,0x03,0x3e,0x00,0xb8,0x0f,
 0x70,0x1e,0x00,0x00,0x00,0xf8,0xff,0x03,0x00,0xf0,0x03,0x00,
 0x00,0x00,0xff,0x1f,0x00,0x00,0x00,0x00,0x00,0x00,0x00,0xff,
 0x1f,0x80,0x83,0x03,0xfe,0x00,0xfc,0x07,0xf8,0x1f,0x00,0x00,
 0x00,0xf8,0xff,0x03,0x00,0xf0,0x03,0x00,0x00,0x80,0xff,0x3f,
 0x00,0x00,0xe0,0xc3,0x87,0x0f,0x00,0xfc,0x0f,0x80,0x83,0x03,
 0xfe,0x01,0xf8,0x07,0xf0,0x1f,0x00,0x00,0x00,0xf8,0xff,0x03,
 0x00,0xf0,0x03,0x00,0x00,0x00,0xff,0x3f,0x00,0x00,0xe0,0xc3,
 0x87,0x0f,0x00,0xf0,0x07,0x80,0x83,0x03,0xfc,0x01,0xf0,0x03,
 0xc0,0x0f,0x00,0x00,0x00,0xfc,0xff,0x03,0x00,0xf0,0x07,0x00,
 0x00,0x00,0xf8,0x03,0x00,0x00,0xe0,0xc3,0x87,0x0f,0x00,0x00,
 0x00,0x00,0x00,0x00,0xfc,0x00,0x00,0x00,0x00,0x00,0x00,0x00,
 0x00,0xfc,0xff,0x03,0x00,0xf8,0x07,0x00,0x00,0x00,0xf8,0x03,
 0x00,0x00,0xe0,0xc3,0x87,0x0f,0x00,0x00,0x00,0x00,0x00,0x00,
 0x00,0x00,0x00,0x00,0x00,0x00,0x00,0x00,0x00,0xfc,0xff,0x03,
 0x00,0xf8,0x07,0x00,0x00,0x00,0xf8,0x03,0x00,0x00,0xe0,0xff,
 0xff,0x0f,0x00,0x00,0x00,0x00,0x00,0x00,0x00,0x00,0x00,0x00,
 0x00,0x00,0x00,0x00,0x00,0xfe,0xff,0x03,0x00,0xf8,0x0f,0x00,
 0x00,0x00,0xf8,0x03,0x00,0x00,0xe0,0xff,0xff,0x0f,0x00,0x00,
 0x00,0x00,0x00,0x00,0x00,0x00,0x00,0x00,0x00,0x00,0x00,0x00,
 0x00,0xfe,0xff,0x03,0x00,0xfc,0x0f,0x00,0x00,0x00,0xfc,0x07,
 0x00,0x00,0xe0,0xff,0xff,0x0f,0x00,0x00,0x00,0x00,0x00,0x00,
 0x00,0x00,0x00,0x00,0x00,0x00,0x00,0x00,0x00,0xfe,0xff,0x03,
 0x00,0xfc,0x0f,0x00,0x00,0x00,0xfc,0x07,0x00,0x00,0xe0,0xff,
 0xff,0x0f,0x00,0x00,0x00,0x00,0x00,0x00,0x00,0x00,0x00,0x00,
 0x00,0x00,0x00,0x00,0x00,0xff,0xff,0x03,0x00,0xfc,0x0f,0x00,
 0x00,0x00,0xfc,0x07,0x00,0x00,0x00,0xf8,0x3f,0x00,0x00,0x00,
 0x00,0x00,0x00,0x00,0x00,0x00,0x00,0x00,0x00,0x00,0x00,0x00,
 0x00,0xff,0xff,0x03,0x00,0xfc,0x1f,0x00,0x00,0x00,0xfc,0x07,
 0x00,0x00,0x00,0xf8,0x1f,0x00,0x00,0x00,0x00,0x00,0x00,0x00,
 0x00,0x00,0x00,0x00,0x00,0x00,0x00,0x00,0x00,0xff,0xff,0x03,
 0x00,0xfe,0x1f,0x00,0x00,0x00,0xfe,0x0f,0x00,0x00,0x00,0xf8,
 0x1f,0x00,0x00,0x00,0x00,0x00,0x00,0x00,0x00,0x00,0x00,0x00,
 0x00,0x00,0x00,0x00,0x80,0xff,0xff,0x03,0x00,0xfe,0x1f,0x00,
 0x00,0x00,0xfe,0x0f,0x00,0x00,0x00,0xf8,0x1f,0x00,0x00,0x00,
 0x00,0x00,0x00,0x00,0x00,0x00,0x00,0x00,0x00,0x00,0x00,0x00,
 0x80,0xff,0xff,0x03,0x00,0xfe,0x3f,0x00,0x00,0x00,0xfe,0x0f,
 0x00,0x00,0x00,0xf8,0x3f,0x00,0x00,0x00,0x00,0x00,0x00,0x00,
 0x00,0x00,0x00,0x00,0x00,0x00,0x00,0x00,0x80,0xff,0xff,0x03,
 0x00,0xfe,0x3f,0x00,0x00,0x00,0xfe,0x0f,0x00,0x00,0x00,0xf8,
 0x3f,0x00,0x00,0x00,0x00,0x00,0x0c,0x00,0x00,0x00,0x00,0x00,
 0x00,0x00,0x00,0x00,0xc0,0xff,0xff,0x03,0x00,0xff,0x3f,0x00,
 0x00,0x00,0xfe,0x1f,0x00,0x00,0x00,0xf8,0x3f,0x00,0x00,0x00,
 0x00,0x00,0x3c,0x00,0x00,0x00,0x00,0x00,0x00,0x00,0x00,0x00,
 0xc0,0xff,0xff,0x03,0x00,0xff,0x3f,0x00,0x00,0x00,0xff,0x1f,
 0x00,0x00,0x00,0xfc,0x3f,0x00,0x00,0x00,0x00,0x00,0x7c,0x00,
 0x00,0x00,0x18,0x00,0x00,0x00,0x00,0x00,0xc0,0xff,0xff,0x03,
 0x00,0xff,0x7f,0x00,0x00,0x00,0xff,0x1f,0x00,0x00,0x00,0xfc,
 0x3f,0x00,0x00,0x00,0x00,0x00,0xfc,0x07,0x00,0x00,0x3e,0x00,
 0x00,0x00,0x00,0x00,0xe0,0xff,0xff,0x03,0x80,0xff,0x7f,0x00,
 0x00,0x00,0xff,0x1f,0x00,0x00,0x00,0xfc,0x3f,0x00,0x00,0x00,
 0x00,0x00,0xfc,0x7f,0x00,0x30,0xff,0x00,0x00,0x00,0x00,0x00,
 0xe0,0xff,0xff,0x03,0x80,0xff,0x7f,0x00,0x00,0x00,0xff,0x1f,
 0x00,0x00,0x00,0xfc,0x3f,0x00,0x00,0x00,0x00,0x00,0xfc,0xff,
 0x07,0xb0,0xff,0x01,0x0f,0x00,0x00,0x00,0xe0,0xff,0xff,0x03,
 0x80,0xff,0xff,0x00,0x00,0x80,0xff,0x3f,0x00,0x00,0x00,0xfc,
 0x3f,0x00,0x00,0x00,0x00,0x00,0xfc,0xff,0xff,0xf8,0xff,0x03,
 0x0f,0x00,0x00,0x00,0xe0,0xff,0xff,0x03,0x80,0xff,0xff,0x00,
 0x00,0x80,0xff,0x3f,0x00,0x00,0x00,0xfc,0x3f,0x00,0x00,0x00,
 0x00,0x00,0xfc,0xff,0xff,0xff,0xff,0x07,0x0f,0x00,0x00,0x00,
 0xf0,0xff,0xff,0x03,0xc0,0xff,0xff,0x00,0x00,0x80,0xff,0x3f,
 0x00,0x00,0x00,0xfc,0x3f,0x00,0x00,0x00,0x00,0x00,0xfc,0xff,
 0xff,0xff,0xff,0xff,0xff,0x00,0x00,0x00,0xf0,0xff,0xff,0x03,
 0xc0,0xff,0xff,0x00,0x00,0x80,0xff,0x3f,0x00,0x00,0x00,0xfc,
 0x3f,0x00,0x00,0x00,0x00,0x00,0xfc,0xff,0xff,0xff,0xff,0xff,
 0xff,0x00,0x00,0x00,0xf8,0xff,0xff,0x03,0xc0,0xff,0xff,0x01,
 0x00,0xc0,0xff,0x7f,0x00,0x00,0x00,0xfc,0x3f,0x00,0x00,0x00,
 0x00,0x00,0xfc,0xff,0xff,0xff,0xff,0xff,0xff,0x00,0x00,0xe0,
 0xff,0xff,0xff,0x1f,0xc0,0xff,0xff,0x01,0x00,0xc0,0xff,0x7f,
 0x00,0x00,0x00,0xfc,0x7f,0x00,0x00,0x00,0x00,0x00,0xfc,0xff,
 0xff,0xff,0xff,0xff,0xff,0x00,0x00,0xf0,0xff,0xff,0xff,0x3f,
 0xe0,0xff,0xff,0x03,0x00,0xe0,0xff,0xff,0x01,0x00,0x00,0xfe,
 0x7f,0x00,0x00,0x00,0x00,0x00,0xfc,0xff,0xff,0xff,0xff,0x0f,
 0x0f,0x00,0x00,0xf8,0xff,0xff,0xff,0x7f,0xf0,0xff,0xff,0x07,
 0x00,0xf0,0xff,0xff,0x01,0x00,0x00,0xfe,0x7f,0x00,0x00,0x00,
 0x00,0x00,0xfc,0xff,0xff,0xfb,0xff,0x03,0x0f,0x00,0x00,0xf8,
 0xff,0xff,0xff,0x7f,0xf8,0xff,0xff,0x07,0x00,0xf0,0xff,0xff,
 0x01,0x00,0x00,0xfe,0x7f,0x00,0x00,0x00,0x00,0x00,0xfc,0xff,
 0x3f,0xf8,0xff,0x01,0x0f,0x00,0x00,0xf8,0xff,0xff,0xff,0x7f,
 0xf8,0xff,0xff,0x07,0x00,0xf0,0xff,0xff,0x01,0x00,0x00,0xfe,
 0x7f,0x00,0x00,0x00,0x00,0x00,0xfc,0xff,0x01,0x30,0xff,0x00,
 0x0f,0x00,0x00,0xf8,0xff,0xff,0xff,0x7f,0xf8,0xff,0xff,0x07,
 0x00,0x00,0x00,0x00,0x00,0x00,0xfc,0xff,0xff,0x3f,0x00,0x00,
 0x00,0x00,0xfc,0x1f,0x00,0x30,0x7e,0x00,0x00,0x00,0x00,0x00,
 0x00,0x00,0x00,0x00,0x00,0x00,0x00,0x00,0x00,0x00,0x00,0x00,
 0x00,0x00,0xfc,0xff,0xff,0x7f,0x00,0x00,0x00,0x00,0xfc,0x01,
 0x00,0x00,0x3c,0x00,0x00,0x00,0x00,0x00,0x00,0x00,0x00,0x00,
 0x00,0x00,0x00,0x00,0x00,0x00,0x00,0x00,0x00,0x00,0xfc,0xff,
 0xff,0x7f,0x00,0x00,0x00,0x00,0x3c,0x00,0x00,0x00,0x00,0x00,
 0x00,0x00,0x00,0x00,0x00,0x00,0x00,0x00,0x00,0x00,0x00,0x00,
 0x00,0x00,0x00,0x00,0x00,0x00,0xfc,0xff,0xff,0x7f,0x00,0x00,
 0x00,0x00,0x1c,0x00,0x00,0x00,0x00,0x00,0x00,0x00,0x00,0x00,
 0x00,0x00,0x00,0x00,0x00,0x00,0x00,0x00,0x00,0x00,0x00,0x00,
 0x00,0x00,0x00,0x00,0x00,0x00,0x00,0x00,0x00,0x00,0x00,0x00,
 0x00,0x00,0x00,0x00,0x00,0x00,0x00,0x00,0x00,0x00,0x00,0x00,
 0x00,0x00,0x00,0x00,0x00,0x00,0x00,0x00,0x00,0x00,0x00,0x00,
 0x00,0x00,0x00,0x00,0x00,0x00,0x00,0x00,0x00,0x00,0x00,0x00,
 0x00,0x00,0x00,0x00,0x00,0x00,0x00,0x00,0x00,0x00,0x00,0x00,
 0x00,0x00,0x00,0x00,0x00,0x00,0x00,0x00,0x00,0x00,0x00,0x00,
 0x00,0x00,0x00,0x00,0x00,0x00,0x00,0x00,0x00,0x00,0x00,0x00,
 0x00,0x00,0x00,0x00,0x00,0x00,0x00,0x00 };
