#define crush2_width 256
#define crush2_height 64
static unsigned char crush2_bits[] = {
   0x00, 0x00, 0x00, 0x00, 0x00, 0x00, 0x00, 0x00, 0x00, 0x00, 0x00, 0x00,
   0x00, 0x00, 0x00, 0x00, 0x00, 0x00, 0x00, 0x00, 0x00, 0x00, 0x00, 0x00,
   0x00, 0x00, 0x00, 0x00, 0x00, 0x00, 0x00, 0x00, 0x00, 0x00, 0x00, 0x00,
   0x00, 0x00, 0x00, 0x00, 0x00, 0x00, 0x00, 0x00, 0x00, 0x00, 0x00, 0x00,
   0x00, 0x00, 0x00, 0x00, 0x00, 0x00, 0x00, 0x00, 0x00, 0x00, 0x00, 0x00,
   0x00, 0x00, 0x00, 0x00, 0x00, 0x00, 0x00, 0x00, 0x00, 0x00, 0x00, 0x00,
   0x00, 0x00, 0x00, 0x00, 0x00, 0x00, 0x00, 0x00, 0x00, 0x00, 0x00, 0x00,
   0x00, 0x00, 0x00, 0x00, 0x00, 0x00, 0x00, 0x00, 0x00, 0x00, 0x00, 0x00,
   0x00, 0x00, 0x00, 0x00, 0x00, 0x00, 0x00, 0x00, 0x00, 0x00, 0x00, 0x00,
   0x00, 0x00, 0x00, 0x00, 0x00, 0x00, 0x00, 0x00, 0x00, 0x00, 0x00, 0x00,
   0x00, 0x00, 0x00, 0x00, 0x00, 0x00, 0x00, 0x00, 0x00, 0x00, 0x00, 0x00,
   0x00, 0x00, 0x00, 0x00, 0x00, 0x00, 0x00, 0x00, 0x00, 0x00, 0x00, 0x00,
   0x00, 0x00, 0x00, 0x00, 0x00, 0x00, 0x00, 0x00, 0x00, 0x00, 0x00, 0x00,
   0x00, 0x00, 0x00, 0x00, 0x00, 0x00, 0x00, 0x00, 0x00, 0x00, 0x00, 0x00,
   0x00, 0x00, 0x00, 0x00, 0x00, 0x00, 0x00, 0x00, 0x00, 0x00, 0x00, 0x00,
   0x00, 0x00, 0x00, 0x00, 0x00, 0x00, 0x00, 0x00, 0x00, 0x00, 0x00, 0x00,
   0x00, 0x00, 0x00, 0x00, 0x00, 0x00, 0x00, 0x00, 0x00, 0x00, 0x00, 0x00,
   0x00, 0x00, 0x00, 0x00, 0x00, 0x00, 0x00, 0x00, 0x00, 0x00, 0x00, 0x00,
   0x00, 0x00, 0x00, 0x00, 0x00, 0x00, 0x00, 0x00, 0x00, 0x00, 0x00, 0x00,
   0x00, 0x00, 0x00, 0x00, 0x00, 0x00, 0x00, 0x00, 0x00, 0x00, 0x00, 0x00,
   0x00, 0x00, 0x00, 0x00, 0x00, 0x00, 0x00, 0x00, 0x00, 0x00, 0x00, 0x00,
   0x00, 0x00, 0x00, 0x00, 0x00, 0x00, 0x00, 0x00, 0x00, 0x00, 0x00, 0x00,
   0x00, 0x00, 0x00, 0x00, 0x00, 0x00, 0x00, 0x00, 0x00, 0x00, 0x00, 0x00,
   0x00, 0x00, 0x00, 0x00, 0x00, 0x00, 0x00, 0x00, 0x00, 0x00, 0x00, 0x00,
   0x00, 0x00, 0x00, 0x00, 0x00, 0x00, 0x00, 0x00, 0x00, 0x00, 0x00, 0x00,
   0x00, 0x00, 0x00, 0x00, 0x00, 0x00, 0x00, 0x00, 0x00, 0x00, 0x00, 0x00,
   0x00, 0x00, 0x00, 0x00, 0x00, 0x00, 0x00, 0x00, 0x00, 0x00, 0x00, 0x00,
   0x00, 0x00, 0x00, 0x00, 0x00, 0x00, 0x00, 0x00, 0x00, 0x00, 0x00, 0x00,
   0x00, 0x00, 0x00, 0x00, 0x00, 0x00, 0x00, 0x00, 0x00, 0x00, 0x00, 0x00,
   0x00, 0x00, 0x00, 0x00, 0x00, 0x00, 0x00, 0x00, 0x00, 0x00, 0x00, 0x00,
   0x00, 0x00, 0x00, 0x00, 0x00, 0x00, 0x00, 0x00, 0x00, 0x00, 0x00, 0x00,
   0x00, 0x00, 0x00, 0x00, 0x00, 0x00, 0x00, 0x00, 0x00, 0x00, 0x00, 0x00,
   0x00, 0x00, 0x00, 0x00, 0x00, 0x00, 0x00, 0x00, 0x00, 0x00, 0x00, 0x00,
   0x00, 0x00, 0x00, 0x00, 0x00, 0x00, 0x00, 0x00, 0x00, 0x00, 0x00, 0x00,
   0x00, 0x00, 0x00, 0x00, 0x00, 0x00, 0x00, 0x00, 0x00, 0x00, 0x00, 0x00,
   0x00, 0x00, 0x00, 0x00, 0x00, 0x00, 0x00, 0x00, 0x00, 0x00, 0x00, 0x00,
   0x00, 0x00, 0x00, 0x00, 0x00, 0x00, 0x00, 0x00, 0x00, 0x00, 0x00, 0x00,
   0x00, 0x00, 0x00, 0x00, 0x00, 0x00, 0x00, 0x00, 0x00, 0x00, 0x00, 0x00,
   0x00, 0x00, 0x00, 0x00, 0x00, 0x00, 0x00, 0x00, 0x00, 0x00, 0x00, 0x00,
   0x00, 0x00, 0x00, 0x00, 0x00, 0x00, 0x00, 0x00, 0x00, 0x00, 0x00, 0x00,
   0x00, 0x00, 0xfd, 0x2a, 0x00, 0x00, 0x00, 0x00, 0x00, 0x00, 0x00, 0x00,
   0x00, 0x00, 0x00, 0x00, 0x00, 0x00, 0x00, 0x00, 0x00, 0x00, 0x00, 0x00,
   0x00, 0x00, 0x00, 0x00, 0x00, 0x00, 0x00, 0x00, 0x00, 0xf8, 0xd7, 0x7f,
   0x00, 0x00, 0x00, 0x00, 0x00, 0x00, 0x00, 0x00, 0xf0, 0x7f, 0x00, 0x00,
   0x00, 0x00, 0x00, 0x00, 0x00, 0x00, 0x00, 0x00, 0x00, 0x00, 0x00, 0x00,
   0x00, 0x00, 0x00, 0x00, 0x00, 0xfe, 0x82, 0x6d, 0x00, 0x00, 0x00, 0x00,
   0x00, 0x00, 0x00, 0x00, 0xb0, 0xed, 0x00, 0x00, 0x80, 0xff, 0xff, 0xbf,
   0x00, 0x00, 0x00, 0x00, 0x48, 0x82, 0x24, 0x00, 0x00, 0x00, 0x00, 0x00,
   0x80, 0xeb, 0xf0, 0x7f, 0x00, 0x00, 0x00, 0x00, 0x00, 0x00, 0x00, 0x00,
   0xf0, 0xbf, 0x00, 0x00, 0xc0, 0xff, 0xef, 0xff, 0x07, 0x00, 0x00, 0x00,
   0xfe, 0xef, 0xff, 0x00, 0x00, 0x00, 0x00, 0x00, 0xc0, 0x5f, 0xb8, 0x6d,
   0x00, 0x00, 0x00, 0x00, 0x00, 0x00, 0x00, 0x00, 0xb0, 0xf5, 0x00, 0x00,
   0xc0, 0xff, 0x0f, 0xff, 0x1f, 0x00, 0x00, 0x00, 0xfe, 0xef, 0x7f, 0x00,
   0x00, 0x00, 0x00, 0x00, 0x60, 0x7f, 0xec, 0x7f, 0x00, 0x00, 0x00, 0x00,
   0x00, 0x00, 0x00, 0x00, 0xf0, 0x5f, 0x00, 0x00, 0xc0, 0xff, 0x0f, 0xff,
   0x3f, 0x00, 0x00, 0x00, 0xfe, 0xe7, 0xff, 0x00, 0x00, 0x00, 0x00, 0x00,
   0xf0, 0x2a, 0x7c, 0x6d, 0x00, 0x00, 0x00, 0x00, 0x00, 0x00, 0x00, 0x00,
   0xa0, 0xfd, 0x00, 0x00, 0xc0, 0xff, 0x0f, 0xfe, 0x7f, 0x00, 0x00, 0x00,
   0xfe, 0xe7, 0x7f, 0x00, 0x00, 0x00, 0x00, 0x00, 0xd8, 0x3f, 0xec, 0x7f,
   0x00, 0x00, 0x00, 0x00, 0x00, 0x00, 0x00, 0x00, 0xf0, 0x77, 0x00, 0x00,
   0xc0, 0xff, 0x0f, 0xfe, 0x7f, 0x00, 0x2a, 0x00, 0xfe, 0xe7, 0xff, 0x00,
   0x00, 0x00, 0x00, 0x00, 0xf8, 0x3e, 0xdc, 0x6d, 0x00, 0x00, 0x00, 0x00,
   0x00, 0x00, 0x00, 0x00, 0xd0, 0xee, 0xc0, 0x01, 0xc0, 0xff, 0x0f, 0xfe,
   0xff, 0xc0, 0xff, 0x00, 0xfe, 0xe7, 0x7f, 0x00, 0x00, 0x00, 0x00, 0x00,
   0xdc, 0x1b, 0x7c, 0x7f, 0x7e, 0x7f, 0xfe, 0xc7, 0xdf, 0x00, 0xff, 0xff,
   0xf3, 0xbf, 0x78, 0x07, 0xc0, 0xff, 0x0f, 0xfe, 0xff, 0xf0, 0xff, 0x03,
   0xfe, 0xe7, 0xff, 0x00, 0x10, 0x00, 0x00, 0x00, 0x78, 0x3f, 0xec, 0x6d,
   0x35, 0xea, 0xaa, 0x8e, 0xfa, 0xe1, 0xaa, 0x55, 0xd7, 0xf6, 0xf8, 0x0e,
   0xc0, 0xff, 0x0f, 0xfe, 0xff, 0xf8, 0xff, 0x0f, 0xfe, 0xe7, 0x7f, 0x00,
   0xff, 0x87, 0x5f, 0x1f, 0xde, 0x3d, 0x78, 0x7f, 0x0f, 0xbf, 0xfe, 0xcb,
   0xef, 0xf9, 0x7f, 0xf8, 0xf7, 0x5f, 0xec, 0x0b, 0xc0, 0xff, 0x0f, 0xfe,
   0xff, 0xfc, 0xff, 0x1f, 0xfe, 0xe7, 0xff, 0xc0, 0xf7, 0x8f, 0xcf, 0x1f,
   0xfa, 0x37, 0xe8, 0x6d, 0x8d, 0xf7, 0x76, 0xcf, 0xbd, 0xdd, 0x6e, 0xdc,
   0xd6, 0xfa, 0xbe, 0x1f, 0xc0, 0xff, 0x0f, 0xfe, 0xff, 0xfe, 0xff, 0x1f,
   0xfe, 0xe7, 0x7f, 0xf0, 0xf3, 0x9f, 0xc3, 0x1f, 0xde, 0x7e, 0x70, 0x7f,
   0xc7, 0x5e, 0xde, 0x47, 0xef, 0xf5, 0x3b, 0xf6, 0xf7, 0x5f, 0xf6, 0x16,
   0xc0, 0xff, 0x0f, 0xfe, 0x7f, 0xfe, 0xff, 0x3f, 0xfe, 0xe7, 0xff, 0xf8,
   0xf1, 0xbf, 0xe3, 0x1f, 0xfa, 0x6d, 0xc0, 0x6d, 0xc6, 0xfb, 0xfa, 0xce,
   0xbd, 0x6d, 0x3f, 0xde, 0x66, 0x7b, 0xde, 0x1f, 0xc0, 0xff, 0x0f, 0xff,
   0x7f, 0xff, 0xff, 0x7f, 0xfe, 0xe7, 0x7f, 0xfc, 0xf1, 0xbf, 0xf1, 0x1f,
   0xee, 0xff, 0x00, 0x00, 0x4f, 0x5f, 0xde, 0xcf, 0xef, 0xfd, 0x2d, 0xfe,
   0xf7, 0x7f, 0x7b, 0x1b, 0xc0, 0xff, 0x0f, 0xff, 0x3f, 0xff, 0xff, 0x7e,
   0xfe, 0xe7, 0xff, 0xfc, 0xf1, 0xff, 0xf1, 0x1f, 0x5e, 0xdb, 0x01, 0x00,
   0xcd, 0xfb, 0xba, 0x8d, 0xbd, 0xb5, 0x7f, 0xb4, 0x66, 0x6b, 0xf7, 0x1f,
   0xc0, 0xff, 0x8f, 0xff, 0x9f, 0xff, 0x0f, 0x70, 0xfe, 0xe7, 0x7f, 0xfe,
   0xf1, 0xbf, 0xf3, 0x1f, 0xfe, 0xef, 0x03, 0x00, 0x9f, 0x7e, 0xfe, 0xc7,
   0xff, 0xfd, 0x76, 0xfc, 0xf7, 0xff, 0xdf, 0x16, 0xc0, 0xff, 0xef, 0xff,
   0x87, 0xff, 0x07, 0x40, 0xfe, 0xe7, 0x7f, 0xfe, 0xf3, 0xbf, 0xe7, 0x1f,
   0x6a, 0x7d, 0x0f, 0x00, 0x3a, 0xef, 0xda, 0x4e, 0xab, 0xd9, 0xef, 0xd8,
   0xd6, 0xb6, 0xfa, 0x1f, 0xc0, 0xff, 0xef, 0xf7, 0x80, 0xff, 0x03, 0x80,
   0xfe, 0xe7, 0x7f, 0xfe, 0xf3, 0x9f, 0xe7, 0x1f, 0xfe, 0xef, 0x7d, 0x00,
   0xff, 0x7a, 0xfe, 0xc7, 0xff, 0x71, 0xff, 0xfb, 0xf7, 0xff, 0x6f, 0x1b,
   0xc0, 0xff, 0x8f, 0x03, 0xc0, 0xff, 0xe1, 0xff, 0xfe, 0xe7, 0x7f, 0xff,
   0xf7, 0x8f, 0x9f, 0x1f, 0xbc, 0xbd, 0xf7, 0x7f, 0xd6, 0x69, 0xda, 0x4e,
   0xbb, 0xe1, 0xb5, 0xc7, 0xa6, 0xd6, 0xfd, 0x1f, 0xc0, 0xff, 0x8f, 0x1f,
   0xc0, 0xff, 0xe1, 0xff, 0xfe, 0xe7, 0x7f, 0xff, 0xf7, 0x87, 0x3f, 0x1f,
   0xf6, 0xf7, 0xdd, 0x5d, 0x7f, 0x03, 0xff, 0xc7, 0xef, 0x81, 0xff, 0x3e,
   0xf0, 0x7f, 0xac, 0x1d, 0xc0, 0xff, 0x0f, 0xff, 0xbf, 0xff, 0xe1, 0xff,
   0xfe, 0xe7, 0x7f, 0xff, 0x7f, 0x81, 0xff, 0x00, 0xdc, 0xbe, 0xbf, 0x7b,
   0xf6, 0x07, 0xd6, 0x8e, 0xbd, 0x01, 0xd6, 0xf7, 0xf0, 0xed, 0xfc, 0x3b,
   0xc0, 0xff, 0x0f, 0xff, 0xff, 0xff, 0xe3, 0xff, 0xfe, 0xe7, 0x7f, 0xfe,
   0x3f, 0x80, 0xff, 0x01, 0xfc, 0xfb, 0xfd, 0x7f, 0xdf, 0x06, 0xff, 0xf7,
   0xff, 0xf9, 0x7c, 0xdd, 0x51, 0x7f, 0x6c, 0x0f, 0xc0, 0xff, 0x0f, 0xff,
   0xbf, 0xff, 0xf7, 0xff, 0xfe, 0xe7, 0x7f, 0xff, 0xff, 0x95, 0xff, 0x01,
   0xa8, 0xb7, 0xb7, 0x6d, 0xfa, 0x0f, 0xb6, 0xbe, 0xb5, 0xdd, 0xf3, 0xbf,
   0xf3, 0xed, 0xfc, 0x3e, 0xc0, 0xff, 0x0f, 0xff, 0xbf, 0xff, 0xff, 0x7f,
   0xfe, 0xe7, 0x7f, 0xfe, 0xff, 0x9f, 0xff, 0x03, 0xf8, 0xfe, 0xfe, 0x77,
   0x6f, 0x0f, 0xff, 0xeb, 0xff, 0x7d, 0x67, 0xfb, 0x77, 0xbf, 0xf4, 0x1b,
   0xc0, 0xff, 0x0f, 0xff, 0xbf, 0xff, 0xff, 0x7f, 0xfe, 0xe7, 0x7f, 0xfe,
   0xff, 0x9f, 0xff, 0x03, 0xe0, 0xd7, 0x6d, 0x6f, 0xfe, 0x0d, 0xb5, 0xdf,
   0xb6, 0xe9, 0xce, 0xb7, 0xe6, 0xf7, 0xac, 0x1f, 0xc0, 0xff, 0x0f, 0xff,
   0xbf, 0xff, 0xff, 0x7f, 0xfe, 0xef, 0xff, 0xfe, 0xff, 0x9f, 0xff, 0x03,
   0x60, 0xff, 0xbf, 0x7f, 0x6b, 0x0f, 0xff, 0xde, 0xff, 0xfd, 0x8b, 0xfe,
   0xb7, 0x5e, 0xfc, 0x36, 0xc0, 0xff, 0x0f, 0xff, 0x7f, 0xff, 0xff, 0x7f,
   0xfe, 0xe7, 0x7f, 0xfc, 0xff, 0x9f, 0xff, 0x03, 0xc0, 0xba, 0xf5, 0x6d,
   0xfe, 0x0d, 0xda, 0x9b, 0xad, 0xbd, 0x8f, 0xdb, 0xf6, 0xfb, 0xdc, 0x1f,
   0xc0, 0xff, 0x0f, 0xff, 0x7f, 0xff, 0xff, 0x3f, 0xfe, 0xe7, 0xff, 0xf8,
   0xff, 0x9f, 0xff, 0x03, 0x80, 0xef, 0xbf, 0x7f, 0xb7, 0x0f, 0xfe, 0xde,
   0xff, 0xf5, 0x8e, 0xff, 0xb7, 0x5f, 0x74, 0x1b, 0xc0, 0xff, 0x0f, 0xff,
   0x7f, 0xfe, 0xff, 0x3f, 0xfe, 0xe7, 0x7f, 0xf8, 0xff, 0x9f, 0xff, 0x01,
   0x00, 0xdf, 0xf6, 0x6d, 0xfe, 0x0d, 0xda, 0x9b, 0xb5, 0xdd, 0x0d, 0xdb,
   0x76, 0xfb, 0xfc, 0x1f, 0xc0, 0xff, 0x0f, 0xff, 0x7f, 0xfc, 0xff, 0x1f,
   0xfe, 0xe7, 0xff, 0xf0, 0xff, 0x9f, 0xff, 0x03, 0x00, 0xfc, 0x5f, 0x7f,
   0x6b, 0x0f, 0xfe, 0xcf, 0xff, 0xfd, 0x87, 0xff, 0xf3, 0xbf, 0x6c, 0x1b,
   0x80, 0xff, 0x0f, 0xfe, 0x7f, 0xfc, 0xff, 0x0f, 0xfe, 0xe7, 0x7f, 0xe0,
   0xff, 0x9f, 0xff, 0x03, 0x00, 0x68, 0xfb, 0x6d, 0xff, 0x0d, 0x58, 0xcd,
   0xb6, 0x69, 0x43, 0x5b, 0xd3, 0xf6, 0xfc, 0x1f, 0xc0, 0xff, 0x0f, 0xfe,
   0x7f, 0xf0, 0xff, 0x07, 0xfe, 0xef, 0xff, 0x80, 0xff, 0x9f, 0xff, 0x03,
   0x00, 0xc0, 0xdf, 0x7f, 0xed, 0x0f, 0xfc, 0xc7, 0xff, 0xfd, 0xf9, 0xff,
   0xf1, 0x5f, 0xd4, 0x1e, 0xc0, 0xff, 0x0f, 0xfc, 0x7f, 0xe0, 0xff, 0x03,
   0xfe, 0xe7, 0x7f, 0x00, 0xfe, 0x9f, 0xff, 0x03, 0x00, 0x00, 0x60, 0x05,
   0x5e, 0x05, 0xb0, 0x43, 0x55, 0x59, 0x6f, 0x55, 0xa0, 0x7a, 0xdc, 0x1a,
   0x80, 0xff, 0x0f, 0xf0, 0x7f, 0x00, 0x7f, 0x00, 0xfe, 0xe7, 0x7f, 0x00,
   0x40, 0x9f, 0xf7, 0x00, 0x00, 0x00, 0x00, 0x00, 0x00, 0x00, 0x00, 0x00,
   0x00, 0x00, 0x00, 0x00, 0x00, 0x00, 0x00, 0x00, 0x00, 0x00, 0x00, 0x80,
   0x02, 0x00, 0x00, 0x00, 0x00, 0x00, 0x00, 0x00, 0x00, 0x00, 0x00, 0x00,
   0x00, 0x00, 0x00, 0x00, 0x00, 0x00, 0x00, 0x00, 0x00, 0x00, 0x00, 0x00,
   0x00, 0x00, 0x00, 0x00, 0x00, 0x00, 0x00, 0x00, 0x00, 0x00, 0x00, 0x00,
   0x00, 0x00, 0x00, 0x00, 0x00, 0x00, 0x00, 0x00, 0x00, 0x00, 0x00, 0x00,
   0x00, 0x00, 0x00, 0x00, 0x00, 0x00, 0x00, 0x00, 0x00, 0x00, 0x00, 0x00,
   0x00, 0x00, 0x00, 0x00, 0x00, 0x00, 0x00, 0x00, 0x00, 0x00, 0x00, 0x00,
   0x00, 0x00, 0x00, 0x00, 0x00, 0x00, 0x00, 0x00, 0x00, 0x00, 0x00, 0x00,
   0x00, 0x00, 0x00, 0x00, 0x00, 0x00, 0x00, 0x00, 0x00, 0x00, 0x00, 0x00,
   0x00, 0x00, 0x00, 0x00, 0x00, 0x00, 0x00, 0x00, 0x00, 0x00, 0x00, 0x00,
   0x00, 0x00, 0x00, 0x00, 0x00, 0x00, 0x00, 0x00, 0x00, 0x00, 0x00, 0x00,
   0x00, 0x00, 0x00, 0x00, 0x00, 0x00, 0x00, 0x00, 0x00, 0x00, 0x00, 0x00,
   0x00, 0x00, 0x00, 0x00, 0x00, 0x00, 0x00, 0x00, 0x00, 0x00, 0x00, 0x00,
   0x00, 0x00, 0x00, 0x00, 0x00, 0x00, 0x00, 0x00, 0x00, 0x00, 0x00, 0x00,
   0x00, 0x00, 0x00, 0x00, 0x00, 0x00, 0x00, 0x00, 0x00, 0x00, 0x00, 0x00,
   0x00, 0x00, 0x00, 0x00, 0x00, 0x00, 0x00, 0x00, 0x00, 0x00, 0x00, 0x00,
   0x00, 0x00, 0x00, 0x00, 0x00, 0x00, 0x00, 0x00, 0x00, 0x00, 0x00, 0x00,
   0x00, 0x00, 0x00, 0x00, 0x00, 0x00, 0x00, 0x00, 0x00, 0x00, 0x00, 0x00,
   0x00, 0x00, 0x00, 0x00, 0x00, 0x00, 0x00, 0x00, 0x00, 0x00, 0x00, 0x00,
   0x00, 0x00, 0x00, 0x00, 0x00, 0x00, 0x00, 0x00, 0x00, 0x00, 0x00, 0x00,
   0x00, 0x00, 0x00, 0x00, 0x00, 0x00, 0x00, 0x00, 0x00, 0x00, 0x00, 0x00,
   0x00, 0x00, 0x00, 0x00, 0x00, 0x00, 0x00, 0x00, 0x00, 0x00, 0x00, 0x00,
   0x00, 0x00, 0x00, 0x00, 0x00, 0x00, 0x00, 0x00, 0x00, 0x00, 0x00, 0x00,
   0x00, 0x00, 0x00, 0x00, 0x00, 0x00, 0x00, 0x00, 0x00, 0x00, 0x00, 0x00,
   0x00, 0x00, 0x00, 0x00, 0x00, 0x00, 0x00, 0x00, 0x00, 0x00, 0x00, 0x00,
   0x00, 0x00, 0x00, 0x00, 0x00, 0x00, 0x00, 0x00, 0x00, 0x00, 0x00, 0x00,
   0x00, 0x00, 0x00, 0x00, 0x00, 0x00, 0x00, 0x00, 0x00, 0x00, 0x00, 0x00,
   0x00, 0x00, 0x00, 0x00, 0x00, 0x00, 0x00, 0x00, 0x00, 0x00, 0x00, 0x00,
   0x00, 0x00, 0x00, 0x00, 0x00, 0x00, 0x00, 0x00, 0x00, 0x00, 0x00, 0x00,
   0x00, 0x00, 0x00, 0x00, 0x00, 0x00, 0x00, 0x00, 0x00, 0x00, 0x00, 0x00,
   0x00, 0x00, 0x00, 0x00, 0x00, 0x00, 0x00, 0x00, 0x00, 0x00, 0x00, 0x00,
   0x00, 0x00, 0x00, 0x00, 0x00, 0x00, 0x00, 0x00, 0x00, 0x00, 0x00, 0x00,
   0x00, 0x00, 0x00, 0x00, 0x00, 0x00, 0x00, 0x00, 0x00, 0x00, 0x00, 0x00,
   0x00, 0x00, 0x00, 0x00, 0x00, 0x00, 0x00, 0x00, 0x00, 0x00, 0x00, 0x00,
   0x00, 0x00, 0x00, 0x00, 0x00, 0x00, 0x00, 0x00, 0x00, 0x00, 0x00, 0x00,
   0x00, 0x00, 0x00, 0x00, 0x00, 0x00, 0x00, 0x00, 0x00, 0x00, 0x00, 0x00,
   0x00, 0x00, 0x00, 0x00, 0x00, 0x00, 0x00, 0x00 };
