#define cybots_width 256
#define cybots_height 64
static unsigned char cybots_bits[] = {
   0x00, 0x00, 0x00, 0x00, 0x00, 0x00, 0x00, 0x00, 0x00, 0x00, 0x00, 0x00,
   0x00, 0x00, 0x00, 0x00, 0x00, 0x00, 0x00, 0x00, 0x00, 0x00, 0x00, 0x00,
   0x00, 0x00, 0x00, 0x00, 0x00, 0x00, 0x00, 0x00, 0x00, 0x00, 0x00, 0x00,
   0x00, 0x00, 0x00, 0x00, 0x00, 0x00, 0xe0, 0x00, 0x00, 0x00, 0x00, 0x00,
   0x00, 0x00, 0x00, 0x00, 0x00, 0x00, 0x00, 0x00, 0x00, 0x00, 0x00, 0x00,
   0x00, 0x00, 0x00, 0x00, 0x00, 0x00, 0x00, 0x00, 0x00, 0x00, 0x00, 0x00,
   0x00, 0x00, 0xf0, 0x00, 0x00, 0x00, 0x00, 0x00, 0x00, 0x00, 0x00, 0x00,
   0x00, 0x00, 0x00, 0x00, 0x00, 0x00, 0x00, 0x00, 0x00, 0x00, 0x00, 0x00,
   0x00, 0x00, 0x00, 0x00, 0x00, 0x00, 0x00, 0x00, 0x00, 0x00, 0xfc, 0x00,
   0x00, 0x00, 0x00, 0x00, 0x00, 0x00, 0x00, 0x00, 0x00, 0x00, 0x00, 0x00,
   0x00, 0x00, 0x00, 0x00, 0x00, 0x00, 0x00, 0x00, 0x00, 0x00, 0x00, 0x00,
   0x00, 0x00, 0x80, 0x00, 0x00, 0x00, 0xde, 0x00, 0x00, 0x00, 0x00, 0x00,
   0x00, 0x00, 0x00, 0x00, 0x00, 0x00, 0x00, 0x00, 0x00, 0x00, 0x00, 0x00,
   0x00, 0x00, 0x00, 0x00, 0x00, 0x00, 0x00, 0x00, 0x00, 0x00, 0xe0, 0x03,
   0x00, 0x00, 0xee, 0x01, 0x00, 0x00, 0x00, 0x00, 0x00, 0x00, 0x80, 0x00,
   0x00, 0x00, 0x00, 0x00, 0x00, 0x00, 0x00, 0xf0, 0x03, 0x00, 0x00, 0x00,
   0x00, 0x00, 0x00, 0x00, 0x00, 0x00, 0xe0, 0x07, 0x00, 0x80, 0xf3, 0x01,
   0x00, 0x00, 0x00, 0x00, 0x00, 0x00, 0xc0, 0x01, 0x00, 0x00, 0x00, 0x00,
   0x00, 0x00, 0xfc, 0xff, 0x3f, 0x00, 0x00, 0x00, 0x00, 0x00, 0x00, 0x00,
   0x00, 0x00, 0x6c, 0x1e, 0x00, 0xc0, 0xf7, 0x03, 0x00, 0x00, 0x00, 0x00,
   0x00, 0x00, 0xe0, 0x03, 0x00, 0x00, 0x00, 0x00, 0x00, 0x80, 0xff, 0x0f,
   0x1e, 0x00, 0x00, 0x00, 0x00, 0x00, 0x00, 0x00, 0x00, 0x00, 0x78, 0x3c,
   0x00, 0xe0, 0xa8, 0x03, 0x00, 0x00, 0x00, 0x00, 0x00, 0x00, 0xf0, 0x03,
   0x00, 0x00, 0x00, 0x00, 0x00, 0xf0, 0x4b, 0x00, 0x1d, 0x00, 0x00, 0x00,
   0x00, 0x00, 0x00, 0x00, 0x00, 0x00, 0x78, 0x78, 0x00, 0x70, 0xc4, 0x03,
   0x00, 0x00, 0xe0, 0xff, 0x03, 0x00, 0xb8, 0xff, 0x0f, 0x00, 0x00, 0x00,
   0x00, 0x7e, 0x00, 0x00, 0x1c, 0x00, 0x00, 0x00, 0x00, 0x00, 0x00, 0x00,
   0x00, 0x00, 0x78, 0x60, 0x00, 0x38, 0x20, 0x7f, 0x00, 0x00, 0xff, 0xff,
   0x01, 0x00, 0xd8, 0xff, 0x3f, 0x00, 0x00, 0x00, 0xc0, 0x0f, 0x00, 0x80,
   0x0f, 0x00, 0x00, 0x00, 0x00, 0x00, 0x00, 0x00, 0x00, 0x80, 0x1f, 0xe0,
   0x00, 0x1e, 0x20, 0xff, 0x01, 0xe0, 0x7f, 0xe9, 0x00, 0x00, 0x1e, 0x17,
   0x70, 0x00, 0x00, 0x00, 0xe0, 0x03, 0x00, 0xc0, 0x07, 0x00, 0x00, 0x00,
   0x00, 0x00, 0x00, 0x00, 0x00, 0xf8, 0x3f, 0xc0, 0x00, 0x0e, 0x00, 0xc0,
   0x03, 0xf8, 0x03, 0xf2, 0x80, 0x80, 0x07, 0x0a, 0xe0, 0x00, 0x00, 0x00,
   0xf8, 0x00, 0x11, 0xc0, 0x01, 0x00, 0x00, 0x00, 0x00, 0x00, 0x00, 0x00,
   0x00, 0x7e, 0x38, 0xc0, 0x01, 0x03, 0x00, 0x00, 0x07, 0x7f, 0x2a, 0xfc,
   0xff, 0xe3, 0x03, 0x00, 0xc0, 0x00, 0x00, 0x80, 0x7f, 0x42, 0x05, 0xf0,
   0x01, 0x00, 0x00, 0x00, 0x00, 0x00, 0x00, 0x00, 0x00, 0x0f, 0x20, 0x89,
   0x81, 0x03, 0x00, 0x00, 0xe6, 0x0f, 0x14, 0xf8, 0x5f, 0xf7, 0x00, 0x00,
   0xc0, 0x01, 0x00, 0xe0, 0x8f, 0x82, 0x00, 0xfc, 0x00, 0x00, 0x00, 0x00,
   0x00, 0x00, 0x00, 0x00, 0x80, 0x03, 0x00, 0x88, 0xc3, 0x01, 0x00, 0x00,
   0xfc, 0x02, 0x04, 0x7c, 0x00, 0xfe, 0x00, 0x00, 0x80, 0xb9, 0x00, 0x7e,
   0x50, 0xa3, 0xcd, 0x3f, 0x00, 0x00, 0x00, 0x00, 0x00, 0x00, 0x00, 0x00,
   0xe0, 0x01, 0x41, 0x10, 0x73, 0x00, 0x80, 0x00, 0xbe, 0x00, 0x00, 0x07,
   0x00, 0x3c, 0x00, 0x00, 0x80, 0xf1, 0x83, 0x1f, 0xac, 0xcf, 0xfc, 0xff,
   0x00, 0x00, 0x00, 0x00, 0x00, 0x00, 0x00, 0x00, 0x70, 0x00, 0x00, 0x14,
   0x7f, 0x00, 0x00, 0x80, 0x04, 0x00, 0xc8, 0x01, 0x00, 0x18, 0x00, 0x10,
   0x80, 0xff, 0xcf, 0x01, 0x9c, 0xfe, 0x1f, 0xe0, 0x01, 0x00, 0x00, 0x00,
   0x00, 0x00, 0x00, 0x00, 0x38, 0x00, 0x04, 0x28, 0x3e, 0x04, 0x00, 0x08,
   0x00, 0x00, 0x00, 0x00, 0x00, 0x08, 0x00, 0x1f, 0xd0, 0xff, 0xfe, 0x00,
   0xff, 0xff, 0x07, 0x00, 0x03, 0x00, 0x00, 0x00, 0x00, 0x00, 0x00, 0x00,
   0x1c, 0x21, 0x80, 0x54, 0x3d, 0x00, 0x40, 0x01, 0x08, 0x00, 0x00, 0x00,
   0x00, 0x00, 0x80, 0x1f, 0x40, 0x99, 0x78, 0x00, 0x6c, 0xfb, 0x01, 0x08,
   0x06, 0x00, 0x00, 0x00, 0x00, 0x00, 0x00, 0x00, 0x0c, 0x08, 0x00, 0x91,
   0x4e, 0x00, 0xe4, 0x41, 0x40, 0x00, 0x01, 0x00, 0x00, 0x00, 0xc0, 0x07,
   0x60, 0x00, 0x30, 0xa8, 0xbf, 0xff, 0x60, 0x04, 0x0e, 0x00, 0x00, 0x00,
   0x00, 0x00, 0x00, 0x00, 0x0e, 0xc0, 0x08, 0xaa, 0x08, 0x00, 0xf0, 0x09,
   0x04, 0x70, 0x02, 0x00, 0x00, 0xe0, 0xc1, 0x03, 0xe4, 0x01, 0x28, 0x20,
   0x36, 0xf5, 0x0a, 0x34, 0x0c, 0x00, 0x00, 0x00, 0x00, 0x00, 0x00, 0x00,
   0x07, 0xf0, 0x81, 0x56, 0x15, 0x08, 0xf0, 0x00, 0x00, 0xfc, 0x02, 0x80,
   0x03, 0xf8, 0xc1, 0x01, 0xf0, 0x03, 0x84, 0xa8, 0x3f, 0x73, 0x20, 0x92,
   0x0c, 0x00, 0x00, 0x00, 0x00, 0x00, 0x00, 0x80, 0x23, 0xfc, 0x03, 0x4d,
   0x25, 0x00, 0xf2, 0x02, 0x00, 0xfe, 0x02, 0xe0, 0x01, 0xf8, 0x00, 0x00,
   0xfb, 0x07, 0x04, 0xf5, 0xb7, 0x30, 0xa2, 0x17, 0x0c, 0x00, 0x00, 0x00,
   0x00, 0x00, 0x00, 0x80, 0x01, 0xfe, 0x83, 0xac, 0x1a, 0x18, 0x30, 0x08,
   0x00, 0xfe, 0x1f, 0xe0, 0x00, 0xf8, 0x00, 0x00, 0xfc, 0x1f, 0x26, 0xfe,
   0x0b, 0x38, 0xe8, 0x13, 0x0c, 0x00, 0x00, 0x00, 0x00, 0x00, 0x00, 0xc0,
   0x01, 0xfe, 0x07, 0xad, 0x22, 0x9c, 0x84, 0x80, 0x03, 0xfe, 0x3f, 0x60,
   0x00, 0xfc, 0x00, 0x00, 0xfe, 0x1f, 0x62, 0xfe, 0x43, 0xba, 0xe8, 0x11,
   0x06, 0x00, 0x00, 0x00, 0x00, 0x00, 0x00, 0xe0, 0x00, 0xff, 0x87, 0x9e,
   0x1a, 0x0f, 0x20, 0x92, 0x01, 0x9f, 0x3f, 0x30, 0x41, 0x7c, 0x00, 0x00,
   0xfc, 0x3f, 0xc0, 0xfe, 0x13, 0x1c, 0xfa, 0x01, 0x06, 0x00, 0x00, 0x00,
   0x00, 0x00, 0x00, 0x60, 0x80, 0xff, 0x0f, 0xb8, 0x52, 0x8f, 0x44, 0xc0,
   0x03, 0x0a, 0x3f, 0x10, 0x20, 0x1e, 0x00, 0x00, 0xf0, 0x07, 0xd3, 0xfd,
   0x03, 0x7d, 0xfc, 0x01, 0x03, 0x00, 0x00, 0x00, 0x00, 0x00, 0x00, 0x70,
   0x80, 0xff, 0x87, 0x7d, 0xa5, 0x0f, 0x10, 0xe2, 0x01, 0xd0, 0x3f, 0xa1,
   0x00, 0x07, 0x00, 0x00, 0xf0, 0x83, 0x9b, 0xef, 0x03, 0x5e, 0xfc, 0xc1,
   0x03, 0x00, 0x00, 0x00, 0x00, 0x00, 0x00, 0x30, 0xc0, 0xff, 0x07, 0x7d,
   0x09, 0x4f, 0x42, 0xc8, 0x01, 0x94, 0x1e, 0x22, 0xc0, 0x0f, 0x00, 0x00,
   0xe0, 0x09, 0xf6, 0xed, 0x11, 0xf2, 0xfc, 0xff, 0x00, 0x00, 0x00, 0x00,
   0x00, 0x00, 0x00, 0x30, 0xc0, 0xff, 0x07, 0x7c, 0xa5, 0x0f, 0x08, 0x81,
   0x00, 0xe5, 0x1f, 0x01, 0xe2, 0x07, 0x00, 0x00, 0xe0, 0x00, 0x5e, 0xdb,
   0x01, 0xf2, 0xf9, 0x3f, 0x00, 0x00, 0x00, 0x00, 0x00, 0x00, 0x00, 0x30,
   0xe0, 0xff, 0x07, 0xfc, 0x8a, 0x87, 0x08, 0x12, 0x00, 0xc8, 0x1f, 0x24,
   0xfb, 0x03, 0x00, 0x00, 0x60, 0x00, 0xbe, 0xc1, 0x25, 0x3a, 0x81, 0x3f,
   0x00, 0x00, 0x00, 0x00, 0x00, 0x00, 0x00, 0x38, 0xf0, 0xff, 0xa7, 0x7e,
   0xaa, 0x13, 0x25, 0x40, 0x00, 0xf4, 0x9f, 0x80, 0xf8, 0x1f, 0xf0, 0x03,
   0x00, 0x18, 0xbf, 0xde, 0x00, 0xf7, 0x1c, 0x78, 0x00, 0x00, 0x00, 0x00,
   0x00, 0x00, 0x00, 0x18, 0xf0, 0xff, 0xff, 0x7f, 0xd5, 0x23, 0xa4, 0x44,
   0x40, 0xf1, 0x1f, 0x89, 0xf0, 0x0f, 0xf8, 0x03, 0x80, 0x8b, 0x3f, 0x87,
   0x20, 0xe7, 0x1f, 0xe0, 0x00, 0x00, 0x00, 0x00, 0x00, 0x00, 0x00, 0x18,
   0xf0, 0xff, 0xff, 0xbf, 0xca, 0x09, 0xf9, 0x02, 0x98, 0xfe, 0x0f, 0x00,
   0xe0, 0x0f, 0xfc, 0x01, 0x40, 0xc2, 0x7f, 0xc1, 0x90, 0xef, 0x3e, 0xc0,
   0x01, 0x00, 0x00, 0x00, 0x00, 0x00, 0x00, 0x18, 0xf0, 0xff, 0xff, 0xbf,
   0xda, 0x09, 0xf8, 0x55, 0x30, 0xff, 0x2f, 0x20, 0x81, 0x07, 0x7d, 0x00,
   0x40, 0xf1, 0xff, 0x48, 0x00, 0xdf, 0x7b, 0x80, 0x01, 0x00, 0x00, 0x00,
   0x00, 0x00, 0x00, 0x0c, 0xf8, 0xff, 0xff, 0x3f, 0xe5, 0x80, 0xfe, 0x00,
   0xc8, 0xff, 0x0f, 0x0e, 0x00, 0x0f, 0x3e, 0x00, 0x40, 0xf9, 0x7f, 0x00,
   0x80, 0x7f, 0x15, 0x80, 0x03, 0x00, 0x00, 0x00, 0x00, 0x00, 0x00, 0x0c,
   0xf8, 0xff, 0xff, 0x5f, 0xea, 0x01, 0xfc, 0x28, 0x98, 0xff, 0x41, 0x1c,
   0x00, 0x84, 0x0e, 0x00, 0x40, 0xfc, 0xff, 0x88, 0x80, 0xff, 0x21, 0x04,
   0x03, 0x00, 0x00, 0x00, 0x00, 0x00, 0x00, 0x0c, 0xf8, 0xff, 0xff, 0x5f,
   0x75, 0x29, 0x3c, 0x50, 0xa4, 0x3f, 0x08, 0x1c, 0x00, 0x00, 0x03, 0x00,
   0x42, 0xff, 0x7f, 0x00, 0x84, 0xff, 0x07, 0x00, 0x03, 0x00, 0x00, 0x00,
   0x00, 0x00, 0x00, 0x0c, 0xf8, 0xff, 0xfb, 0xbf, 0xf2, 0x89, 0x1c, 0x88,
   0xab, 0xaf, 0x40, 0x7c, 0x00, 0x08, 0x00, 0x80, 0x31, 0xff, 0x3f, 0x01,
   0x80, 0xff, 0x7f, 0x00, 0x03, 0x00, 0x00, 0x00, 0x00, 0x00, 0x00, 0x8c,
   0xf8, 0xff, 0xa1, 0x4f, 0xf5, 0x00, 0x0e, 0xd0, 0xa9, 0x20, 0x12, 0xfe,
   0x00, 0x00, 0x00, 0xe0, 0x95, 0xff, 0x1f, 0x40, 0xc0, 0xff, 0x3f, 0x00,
   0x03, 0x00, 0x00, 0x00, 0x00, 0x00, 0x00, 0x1c, 0xf8, 0xff, 0x00, 0x5f,
   0xf5, 0x07, 0x02, 0xc2, 0x55, 0xad, 0x00, 0xfe, 0x01, 0x00, 0x00, 0xf0,
   0xa7, 0xff, 0x5f, 0x00, 0xc4, 0xff, 0x1f, 0x80, 0x03, 0x00, 0x00, 0x00,
   0x00, 0x00, 0x00, 0x0c, 0xf8, 0x7f, 0x00, 0x47, 0xf5, 0x13, 0x02, 0xf0,
   0x55, 0x55, 0x20, 0xfe, 0x03, 0x00, 0x00, 0xbc, 0x99, 0xff, 0x03, 0x20,
   0xc0, 0xff, 0x0f, 0x00, 0x03, 0x00, 0x00, 0x00, 0x00, 0x00, 0x00, 0x0c,
   0xf8, 0x3f, 0x00, 0x87, 0xf4, 0x03, 0x00, 0xf8, 0x55, 0x15, 0x02, 0x3e,
   0x87, 0x00, 0x00, 0x8e, 0x13, 0xfd, 0x40, 0x30, 0xc0, 0xff, 0x07, 0xc0,
   0x01, 0x00, 0x00, 0x00, 0x00, 0x00, 0x00, 0x0c, 0xf8, 0x1f, 0x00, 0x07,
   0xf8, 0x03, 0x00, 0x7c, 0x52, 0x01, 0x01, 0xc1, 0x1f, 0x00, 0x80, 0x07,
   0x8b, 0x00, 0x04, 0x12, 0xc0, 0xff, 0x03, 0xc0, 0x01, 0x00, 0x00, 0x00,
   0x00, 0x00, 0x00, 0x0c, 0xf0, 0x0f, 0xa0, 0x03, 0xf8, 0x41, 0x00, 0x9e,
   0xaa, 0xc2, 0x01, 0x80, 0xbe, 0x00, 0xe0, 0x03, 0x33, 0x82, 0x48, 0x18,
   0xe0, 0xff, 0x00, 0xe0, 0x00, 0x00, 0x00, 0x00, 0x00, 0x00, 0x00, 0x0c,
   0xe0, 0x03, 0xa0, 0x03, 0xf8, 0x01, 0x00, 0x4f, 0x55, 0xe9, 0x00, 0x00,
   0x7e, 0x00, 0xf0, 0x00, 0x03, 0x0a, 0x80, 0x1c, 0xe0, 0x3f, 0x00, 0x70,
   0x00, 0x00, 0x00, 0x00, 0x00, 0x00, 0x00, 0x0c, 0x80, 0x00, 0x90, 0x03,
   0x78, 0x04, 0x80, 0x57, 0x25, 0xfc, 0x01, 0x80, 0xb3, 0x00, 0xf0, 0x00,
   0x07, 0x92, 0x14, 0x1f, 0xe0, 0x1f, 0x00, 0x38, 0x00, 0x00, 0x00, 0x00,
   0x00, 0x00, 0x00, 0x0c, 0x18, 0x00, 0xc8, 0x01, 0x38, 0x00, 0xe0, 0x97,
   0xaa, 0xcf, 0x01, 0xe0, 0x79, 0x84, 0xc4, 0x00, 0x8e, 0x0a, 0xe1, 0x0f,
   0xe0, 0x1f, 0x08, 0x38, 0x00, 0x00, 0x00, 0x00, 0x00, 0x00, 0x00, 0x0c,
   0x20, 0x00, 0xe8, 0x01, 0x18, 0x00, 0xf0, 0xa7, 0x8a, 0xc7, 0x01, 0xf0,
   0x1c, 0x00, 0xd8, 0x01, 0x1c, 0x2a, 0xfc, 0x0d, 0xf0, 0x0f, 0x06, 0x0e,
   0x00, 0x00, 0x00, 0x00, 0x00, 0x00, 0x00, 0x18, 0x00, 0x00, 0xe0, 0x01,
   0x0c, 0x00, 0xba, 0x29, 0xf9, 0xc0, 0x00, 0x38, 0x2c, 0x00, 0xa0, 0x01,
   0xf8, 0x96, 0x3f, 0x0c, 0xf8, 0x03, 0x03, 0x07, 0x00, 0x00, 0x00, 0x00,
   0x00, 0x00, 0x00, 0x18, 0x00, 0x00, 0xf0, 0x00, 0x0c, 0x20, 0x9f, 0xb7,
   0x7f, 0xc0, 0x00, 0x1e, 0x3e, 0x3d, 0xe0, 0x01, 0xf0, 0xff, 0x0f, 0x0c,
   0xf8, 0xc0, 0x80, 0x03, 0x00, 0x00, 0x00, 0x00, 0x00, 0x00, 0x00, 0x30,
   0x00, 0x00, 0xf8, 0x00, 0x0c, 0xd0, 0x07, 0xff, 0x1f, 0xc0, 0x00, 0x07,
   0xfc, 0xff, 0xc0, 0x03, 0xc0, 0xff, 0x03, 0x0c, 0x78, 0x11, 0xe0, 0x01,
   0x00, 0x00, 0x00, 0x00, 0x00, 0x00, 0x00, 0x70, 0x00, 0x00, 0x7c, 0x02,
   0x0c, 0xf0, 0x01, 0xfc, 0x07, 0xc0, 0xc0, 0x03, 0xf8, 0xe7, 0xd7, 0x03,
   0x00, 0x14, 0x00, 0x06, 0xf8, 0x0f, 0xf0, 0x00, 0x00, 0x00, 0x00, 0x00,
   0x00, 0x00, 0x00, 0xe0, 0x00, 0x00, 0x6f, 0x00, 0x04, 0x7c, 0x00, 0x00,
   0x00, 0xc0, 0xe3, 0x00, 0x40, 0xc0, 0xbf, 0x07, 0x00, 0x00, 0x00, 0x06,
   0xfc, 0x01, 0x38, 0x00, 0x00, 0x00, 0x00, 0x00, 0x00, 0x00, 0x00, 0xc0,
   0x01, 0x80, 0x67, 0x00, 0x8e, 0x3f, 0x00, 0x00, 0x00, 0x00, 0x7f, 0x00,
   0x00, 0x00, 0xfe, 0x07, 0x00, 0x00, 0x00, 0x06, 0x7f, 0x00, 0x1e, 0x00,
   0x00, 0x00, 0x00, 0x00, 0x00, 0x00, 0x00, 0x80, 0x07, 0xc0, 0x33, 0x00,
   0xfe, 0x07, 0x00, 0x00, 0x00, 0x00, 0x1e, 0x00, 0x00, 0x00, 0xe0, 0x01,
   0x00, 0x00, 0x00, 0xce, 0x37, 0x01, 0x07, 0x00, 0x00, 0x00, 0x00, 0x00,
   0x00, 0x00, 0x00, 0x00, 0x0f, 0xf0, 0x70, 0x00, 0xff, 0x00, 0x00, 0x00,
   0x00, 0x00, 0x00, 0x00, 0x00, 0x00, 0x00, 0x00, 0x00, 0x00, 0x00, 0xe6,
   0xf1, 0xe9, 0x03, 0x00, 0x00, 0x00, 0x00, 0x00, 0x00, 0x00, 0x00, 0x00,
   0xfc, 0x7f, 0x70, 0x80, 0x03, 0x00, 0x00, 0x00, 0x00, 0x00, 0x00, 0x00,
   0x00, 0x00, 0x00, 0x00, 0x00, 0x00, 0x00, 0xe6, 0x30, 0xfe, 0x00, 0x00,
   0x00, 0x00, 0x00, 0x00, 0x00, 0x00, 0x00, 0x00, 0xf0, 0x1f, 0x60, 0xe0,
   0x01, 0x00, 0x00, 0x00, 0x00, 0x00, 0x00, 0x00, 0x00, 0x00, 0x00, 0x00,
   0x00, 0x00, 0x00, 0x3e, 0x38, 0x3f, 0x00, 0x00, 0x00, 0x00, 0x00, 0x00,
   0x00, 0x00, 0x00, 0x00, 0x00, 0x00, 0xe0, 0xff, 0x00, 0x00, 0x00, 0x00,
   0x00, 0x00, 0x00, 0x00, 0x00, 0x00, 0x00, 0x00, 0x00, 0x00, 0x00, 0x1e,
   0xfc, 0x03, 0x00, 0x00, 0x00, 0x00, 0x00, 0x00, 0x00, 0x00, 0x00, 0x00,
   0x00, 0x00, 0xc0, 0x3f, 0x00, 0x00, 0x00, 0x00, 0x00, 0x00, 0x00, 0x00,
   0x00, 0x00, 0x00, 0x00, 0x00, 0x00, 0x00, 0x0c, 0x64, 0x00, 0x00, 0x00,
   0x00, 0x00, 0x00, 0x00, 0x00, 0x00, 0x00, 0x00, 0x00, 0x00, 0x40, 0x00,
   0x00, 0x00, 0x00, 0x00, 0x00, 0x00, 0x00, 0x00, 0x00, 0x00, 0x00, 0x00,
   0x00, 0x00, 0x00, 0x00, 0x00, 0x00, 0x00, 0x00, 0x00, 0x00, 0x00, 0x00,
   0x00, 0x00, 0x00, 0x00, 0x00, 0x00, 0x00, 0x00, 0x00, 0x00, 0x00, 0x00,
   0x00, 0x00, 0x00, 0x00, 0x00, 0x00, 0x00, 0x00, 0x00, 0x00, 0x00, 0x00,
   0x00, 0x00, 0x00, 0x00, 0x00, 0x00, 0x00, 0x00 };
