#define _width 256
#define _height 64
static char _bits[] = {
 0x00,0x00,0x00,0x00,0x00,0x00,0x00,0x00,0x00,0x00,0x00,0x00,
 0x00,0x00,0x00,0x00,0x00,0x00,0x00,0x00,0x00,0x00,0x00,0x00,
 0x00,0x00,0x00,0x00,0x00,0x00,0x00,0x00,0x00,0x00,0x00,0x00,
 0x00,0x00,0x00,0x00,0x00,0x00,0x00,0x00,0x00,0x00,0x00,0x00,
 0x00,0x00,0x00,0x00,0x00,0x00,0x00,0x00,0x00,0x00,0x00,0x00,
 0x00,0x00,0x00,0x00,0x00,0x00,0x00,0x00,0x00,0x00,0x00,0x00,
 0x00,0x00,0x00,0x00,0x00,0x00,0x00,0x00,0x00,0x00,0x00,0x00,
 0x00,0x00,0x00,0x00,0x00,0x00,0x00,0x00,0x00,0x00,0x00,0x00,
 0x00,0x00,0x00,0x00,0x00,0x00,0x00,0x00,0x00,0x00,0x00,0x00,
 0x00,0x00,0x00,0x00,0x00,0x00,0x00,0x00,0x00,0x00,0x00,0x00,
 0x00,0x00,0x00,0x00,0x00,0x00,0x00,0x00,0x00,0x00,0x00,0x00,
 0x00,0x00,0x00,0x00,0x00,0x00,0x00,0x00,0x00,0x00,0x00,0x00,
 0x00,0x00,0x00,0x00,0x00,0x00,0x00,0x00,0x00,0x00,0x00,0x00,
 0x00,0x00,0x00,0x00,0x00,0x00,0x00,0x00,0x00,0x00,0x00,0x00,
 0x00,0x00,0x00,0x00,0x00,0x00,0x00,0x00,0x00,0x00,0x00,0x00,
 0x00,0x00,0x00,0x00,0x00,0x00,0x00,0x00,0x00,0x00,0x00,0x00,
 0x00,0x00,0x00,0x00,0x00,0x00,0x00,0x00,0x00,0x00,0x00,0x00,
 0x00,0x00,0x00,0x00,0x00,0x00,0x00,0x00,0x00,0x00,0x00,0x00,
 0x00,0x00,0x00,0x00,0x00,0x00,0x00,0x00,0x00,0x00,0x00,0x00,
 0x00,0x00,0x00,0x00,0x00,0x00,0x00,0x00,0x00,0x00,0x00,0x00,
 0x00,0x00,0x00,0x00,0x00,0x00,0x00,0x00,0x00,0x00,0x00,0x00,
 0x00,0x00,0x00,0x00,0x00,0x00,0x00,0x00,0x00,0x00,0x00,0x00,
 0x00,0x00,0x00,0x00,0x00,0x00,0x00,0x00,0x00,0x00,0x00,0x00,
 0x00,0x00,0x00,0x00,0x00,0x00,0xfe,0x00,0x00,0x00,0x00,0x00,
 0x00,0x00,0x00,0x00,0x00,0x00,0x00,0x00,0x00,0x00,0x00,0x00,
 0x00,0x00,0x00,0x00,0x00,0x00,0x00,0x00,0x00,0x00,0x00,0x00,
 0x00,0xc0,0xff,0x0f,0x00,0x00,0x00,0x00,0x00,0xc0,0x3f,0x00,
 0xfe,0x00,0x00,0x00,0x00,0x00,0x00,0x00,0x00,0x00,0x00,0x00,
 0x00,0x00,0x00,0x00,0x07,0xc0,0x01,0x00,0x00,0x70,0x00,0x3c,
 0x00,0x00,0x00,0x00,0x00,0x3c,0xc0,0x80,0x01,0xc3,0x80,0x7f,
 0x3e,0x00,0x00,0x0f,0x00,0x00,0x00,0xc0,0x1f,0x7f,0x00,0xe0,
 0x0d,0x38,0x0e,0x00,0x00,0x1c,0x00,0x60,0x00,0x00,0x00,0x00,
 0x00,0x02,0x00,0x43,0x00,0x04,0x81,0x40,0x40,0x70,0xe0,0x90,
 0x03,0x00,0xf8,0x20,0x90,0x80,0x31,0x10,0x08,0x04,0x10,0x00,
 0x00,0x06,0x00,0xc0,0x01,0x00,0x00,0x00,0x00,0x02,0x00,0x24,
 0x00,0x08,0x82,0x40,0x40,0x98,0x07,0x10,0x02,0xfe,0x81,0x10,
 0x10,0x00,0x62,0x10,0x08,0x02,0x20,0x00,0x00,0x01,0x00,0x00,
 0x03,0x00,0x00,0x00,0x00,0x02,0x00,0x08,0x00,0x10,0x82,0x40,
 0x40,0x08,0x04,0x10,0x04,0x01,0x81,0x10,0x08,0x00,0x44,0x20,
 0x08,0x01,0x40,0x00,0x80,0x00,0x00,0x00,0x06,0x00,0x00,0x00,
 0x00,0x02,0x00,0x08,0x00,0x30,0x84,0x40,0x40,0x0c,0x02,0x10,
 0x04,0x81,0x80,0x10,0x08,0x00,0x88,0x20,0x88,0x00,0x80,0x00,
 0x40,0x00,0x00,0x00,0x04,0x00,0x00,0x00,0x00,0x02,0x00,0x10,
 0x78,0x20,0x84,0x40,0x20,0x04,0x02,0x10,0x84,0x80,0x00,0x11,
 0x08,0x00,0x90,0x21,0x48,0x00,0x00,0x01,0x20,0x00,0x00,0x00,
 0x0c,0x00,0x00,0x00,0x00,0x04,0x00,0x10,0x44,0x20,0x88,0x40,
 0x20,0x04,0x01,0x10,0x84,0x40,0x02,0x11,0x08,0x18,0x10,0x21,
 0x50,0xe0,0x01,0x01,0x10,0x00,0x7f,0x00,0x0c,0x00,0x00,0x00,
 0x00,0x04,0x1c,0x20,0x54,0x40,0x90,0x40,0x20,0x02,0x81,0x1f,
 0x48,0x40,0x02,0x09,0x04,0x24,0x20,0x02,0x10,0x10,0x02,0x01,
 0x18,0xc0,0xc0,0x00,0x48,0x00,0x00,0x00,0x00,0x04,0x33,0x20,
 0x92,0x40,0x90,0x40,0x20,0x82,0x40,0x00,0x48,0x20,0x02,0x09,
 0x04,0x22,0x20,0x04,0x10,0x10,0x04,0x00,0x08,0x60,0x80,0x00,
 0x48,0x00,0x00,0x00,0x00,0x04,0x61,0x20,0x9b,0x40,0xe0,0x40,
 0xc0,0x81,0x40,0x00,0x30,0x20,0x02,0x0e,0x04,0x48,0x20,0x2c,
 0x10,0x08,0xf8,0x01,0x08,0x20,0x80,0x00,0xcc,0x00,0x00,0x00,
 0x00,0x04,0x49,0x20,0x98,0x83,0x00,0x40,0x00,0x40,0x40,0x00,
 0x00,0x10,0x02,0x00,0xe4,0x49,0x20,0x18,0x10,0x04,0x00,0x00,
 0x04,0x20,0x80,0x00,0xcc,0x01,0x00,0x00,0x00,0x0c,0x49,0x40,
 0x38,0x8e,0x00,0x40,0x00,0x40,0x40,0x00,0x00,0x10,0x02,0x00,
 0x02,0x4c,0x20,0x00,0x10,0x04,0x00,0x00,0xe4,0x1f,0x80,0x00,
 0xec,0x01,0x00,0x00,0x00,0x08,0x89,0x40,0x7f,0x88,0x00,0x40,
 0x00,0x20,0x80,0x3f,0x00,0x08,0x02,0x00,0x02,0xcc,0x20,0x00,
 0x20,0x04,0x00,0x00,0xfc,0x0f,0x40,0x00,0xe6,0x03,0x00,0x00,
 0x00,0x08,0x99,0x40,0xff,0x91,0x00,0xc0,0x00,0x20,0x01,0x20,
 0x00,0x04,0x02,0x00,0xc2,0x0f,0x23,0x00,0x20,0x04,0x00,0x00,
 0x00,0x00,0x30,0x00,0xf3,0x03,0x00,0x00,0x00,0x08,0x92,0x40,
 0xff,0x88,0x00,0xc0,0x00,0x10,0x01,0x20,0x00,0x04,0x06,0x00,
 0xc2,0x7f,0x24,0x00,0x20,0x84,0x0f,0x00,0x00,0x80,0x07,0x80,
 0xf1,0x03,0x00,0x00,0x00,0x08,0x92,0x40,0x7f,0x84,0x00,0x80,
 0x00,0x10,0x01,0x20,0x00,0x02,0x06,0x00,0x82,0x7f,0x22,0x00,
 0x20,0x84,0xf0,0x00,0x00,0x80,0x00,0x60,0xf8,0x03,0x00,0x00,
 0x00,0x08,0x92,0x40,0x7f,0x82,0x00,0x80,0x00,0x10,0x01,0x40,
 0x00,0x02,0x06,0x00,0x82,0x1f,0x23,0x00,0x20,0x44,0x00,0x01,
 0x00,0x80,0x00,0xc0,0xf8,0x03,0x00,0x00,0x00,0x10,0x92,0x40,
 0x7f,0x82,0x00,0x80,0x00,0x10,0x02,0x60,0x00,0x01,0x04,0x00,
 0xc2,0x9f,0x20,0x00,0x20,0x44,0x00,0x01,0x00,0x80,0x00,0x80,
 0xf3,0x01,0x00,0x00,0x00,0x10,0x44,0x20,0x63,0x82,0x00,0x80,
 0x00,0x20,0x02,0x1f,0x00,0x01,0x04,0x00,0xc4,0x9f,0x20,0x00,
 0x40,0x44,0x00,0x01,0x00,0x80,0x00,0x00,0xe6,0x01,0x00,0x00,
 0x00,0x10,0x44,0x20,0x40,0x82,0x00,0x80,0x00,0x20,0x82,0x00,
 0x80,0x00,0x04,0x00,0x48,0x9c,0x20,0x00,0x40,0x84,0x01,0x01,
 0x00,0x80,0x7f,0x00,0xe6,0x00,0x00,0x00,0x00,0x10,0x64,0x20,
 0x0c,0x42,0x00,0x80,0x70,0x20,0x82,0x00,0x80,0x00,0x04,0x1c,
 0x08,0x58,0x20,0x00,0x40,0x04,0x01,0x01,0xc0,0x1f,0xc0,0x00,
 0xcc,0x00,0x00,0x00,0x00,0x10,0x38,0xa0,0x13,0x42,0x78,0x80,
 0x90,0x40,0x82,0x00,0x80,0x00,0x04,0x14,0x90,0x53,0x10,0x1c,
 0x40,0x04,0x81,0x00,0xfe,0x13,0x80,0x00,0x0c,0x00,0x00,0x00,
 0x00,0x10,0x00,0x10,0x60,0x42,0x48,0x80,0x90,0x40,0x02,0x01,
 0x80,0x00,0x04,0x24,0x10,0x44,0x10,0x24,0x40,0x0c,0x81,0x00,
 0x04,0x10,0x00,0x01,0x08,0x00,0x00,0x00,0x00,0x20,0x00,0x10,
 0x80,0x41,0x88,0x80,0x90,0x80,0x02,0xf9,0x80,0x00,0x04,0x24,
 0x20,0x68,0x10,0x44,0x40,0xd8,0x80,0x00,0x04,0x20,0x00,0x01,
 0x48,0x00,0x00,0x00,0x00,0x20,0x00,0x08,0x00,0x20,0x88,0x80,
 0x08,0x81,0x02,0x06,0x81,0x00,0x04,0x44,0x40,0x10,0x08,0x44,
 0x40,0x20,0x80,0x00,0x04,0x20,0x80,0x00,0x4c,0x00,0x00,0x00,
 0x00,0x20,0x00,0x04,0x00,0x20,0x08,0x81,0x08,0x81,0x04,0x00,
 0x81,0x00,0x04,0x44,0x40,0x00,0x08,0x84,0xc0,0x00,0x80,0x00,
 0x08,0x40,0x80,0x00,0xec,0x00,0x00,0x00,0x00,0x20,0x00,0x02,
 0x00,0x10,0x08,0x81,0x08,0x01,0x05,0x00,0x81,0x00,0x04,0x84,
 0x80,0x00,0x04,0x84,0x80,0x00,0x80,0x00,0x08,0xc0,0x60,0x00,
 0xe4,0x00,0x00,0x00,0x00,0x20,0x00,0x01,0x00,0x08,0x08,0x82,
 0x08,0x01,0x05,0x00,0x81,0x00,0x04,0x84,0x00,0x01,0x02,0x04,
 0x81,0x00,0x80,0x00,0x10,0x00,0x1f,0x00,0xf6,0x00,0x00,0x00,
 0x00,0x40,0xc0,0x30,0x00,0x06,0x08,0x82,0x08,0x01,0x05,0x00,
 0x81,0x00,0x04,0x84,0x01,0x01,0x01,0x0c,0xe2,0x00,0x80,0x00,
 0x30,0x00,0x00,0x00,0xf3,0x00,0x00,0x00,0x00,0x40,0x38,0xc0,
 0x80,0x01,0x08,0x86,0x08,0x02,0x0a,0x80,0x81,0x00,0x0c,0x04,
 0xf1,0x81,0x00,0x08,0x3e,0x00,0x42,0x00,0x60,0x00,0x00,0x80,
 0xf9,0x00,0x00,0x00,0x00,0xc0,0x07,0x00,0x7f,0x10,0x08,0xfc,
 0x0c,0x02,0x0a,0x7e,0x80,0x00,0x08,0x06,0x0e,0x70,0x00,0x0e,
 0x00,0xfe,0x43,0x00,0xc0,0x00,0x00,0xc0,0xfc,0x00,0x00,0x00,
 0x00,0x00,0x00,0x00,0x00,0xf0,0x0f,0x00,0x00,0xfe,0xfb,0x01,
 0xf0,0x00,0xf8,0x03,0x00,0x0c,0xf0,0x07,0x00,0x00,0x7c,0x00,
 0x80,0x03,0x00,0x70,0xfe,0x00,0x00,0x00,0x00,0x00,0x00,0x00,
 0x00,0x00,0x00,0x00,0x00,0x00,0x00,0x00,0x00,0x00,0x00,0x00,
 0x00,0x00,0x00,0x00,0x00,0x00,0x00,0x00,0x00,0x0e,0x00,0x1c,
 0xff,0x00,0x00,0x00,0x00,0x00,0x00,0x00,0x00,0x00,0x00,0x00,
 0x00,0x00,0x00,0x00,0x00,0x00,0x00,0x00,0x00,0x00,0x00,0x00,
 0x00,0x00,0x00,0x00,0x00,0xf8,0xf0,0xc7,0xff,0x00,0x00,0x00,
 0x00,0x00,0x00,0x00,0x00,0x00,0x00,0x00,0x00,0x00,0x00,0x00,
 0x00,0x00,0x00,0x00,0x00,0x00,0x00,0x00,0x00,0x00,0x00,0x00,
 0x00,0x82,0x3f,0xf0,0x7f,0x00,0x00,0x00,0x00,0x00,0x00,0x00,
 0x00,0x00,0x00,0x00,0x00,0x00,0x00,0x00,0x00,0x00,0x00,0x00,
 0x00,0x00,0x00,0x00,0x00,0x00,0x00,0x00,0x00,0x0e,0x00,0xfe,
 0x7f,0x00,0x00,0x00,0x00,0x00,0x00,0x00,0x00,0x00,0x00,0x00,
 0x00,0x00,0x00,0x00,0x00,0x00,0x00,0x00,0x00,0x00,0x00,0x00,
 0x00,0x00,0x00,0x00,0x00,0xfc,0xff,0xff,0x3f,0x00,0x00,0x00,
 0x00,0x00,0x00,0x00,0x00,0x00,0x00,0x00,0x00,0x00,0x00,0x00,
 0x00,0x00,0x00,0x00,0x00,0x00,0x00,0x00,0x00,0x00,0x00,0x00,
 0x00,0xf8,0xff,0xff,0x1f,0x00,0x00,0x00,0x00,0x00,0x00,0x00,
 0x00,0x00,0x00,0x00,0x00,0x00,0x00,0x00,0x00,0x00,0x00,0x00,
 0x00,0x00,0x00,0x00,0x00,0x00,0x00,0x00,0x00,0xf0,0xff,0xff,
 0x0f,0x00,0x00,0x00,0x00,0x00,0x00,0x00,0x00,0x00,0x00,0x00,
 0x00,0x00,0x00,0x00,0x00,0x00,0x00,0x00,0x00,0x00,0x00,0x00,
 0x00,0x00,0x00,0x00,0x00,0xc0,0xff,0xff,0x07,0x00,0x00,0x00,
 0x00,0x00,0x00,0x00,0x00,0x00,0x00,0x00,0x00,0x00,0x00,0x00,
 0x00,0x00,0x00,0x00,0x00,0x00,0x00,0x00,0x00,0x00,0x00,0x00,
 0x00,0x80,0xff,0xff,0x01,0x00,0x00,0x00,0x00,0x00,0x00,0x00,
 0x00,0x00,0x00,0x00,0x00,0x00,0x00,0x00,0x00,0x00,0x00,0x00,
 0x00,0x00,0x00,0x00,0x00,0x00,0x00,0x00,0x00,0x00,0xfe,0x7f,
 0x00,0x00,0x00,0x00,0x00,0x00,0x00,0x00,0x00,0x00,0x00,0x00,
 0x00,0x00,0x00,0x00,0x00,0x00,0x00,0x00,0x00,0x00,0x00,0x00,
 0x00,0x00,0x00,0x00,0x00,0x00,0xf0,0x0f,0x00,0x00,0x00,0x00,
 0x00,0x00,0x00,0x00,0x00,0x00,0x00,0x00,0x00,0x00,0x00,0x00,
 0x00,0x00,0x00,0x00,0x00,0x00,0x00,0x00,0x00,0x00,0x00,0x00,
 0x00,0x00,0x00,0x00,0x00,0x00,0x00,0x00,0x00,0x00,0x00,0x00,
 0x00,0x00,0x00,0x00,0x00,0x00,0x00,0x00,0x00,0x00,0x00,0x00,
 0x00,0x00,0x00,0x00,0x00,0x00,0x00,0x00,0x00,0x00,0x00,0x00,
 0x00,0x00,0x00,0x00,0x00,0x00,0x00,0x00,0x00,0x00,0x00,0x00,
 0x00,0x00,0x00,0x00,0x00,0x00,0x00,0x00,0x00,0x00,0x00,0x00,
 0x00,0x00,0x00,0x00,0x00,0x00,0x00,0x00,0x00,0x00,0x00,0x00,
 0x00,0x00,0x00,0x00,0x00,0x00,0x00,0x00,0x00,0x00,0x00,0x00,
 0x00,0x00,0x00,0x00,0x00,0x00,0x00,0x00,0x00,0x00,0x00,0x00,
 0x00,0x00,0x00,0x00,0x00,0x00,0x00,0x00,0x00,0x00,0x00,0x00,
 0x00,0x00,0x00,0x00,0x00,0x00,0x00,0x00,0x00,0x00,0x00,0x00,
 0x00,0x00,0x00,0x00,0x00,0x00,0x00,0x00,0x00,0x00,0x00,0x00,
 0x00,0x00,0x00,0x00,0x00,0x00,0x00,0x00,0x00,0x00,0x00,0x00,
 0x00,0x00,0x00,0x00,0x00,0x00,0x00,0x00,0x00,0x00,0x00,0x00,
 0x00,0x00,0x00,0x00,0x00,0x00,0x00,0x00,0x00,0x00,0x00,0x00,
 0x00,0x00,0x00,0x00,0x00,0x00,0x00,0x00,0x00,0x00,0x00,0x00,
 0x00,0x00,0x00,0x00,0x00,0x00,0x00,0x00,0x00,0x00,0x00,0x00,
 0x00,0x00,0x00,0x00,0x00,0x00,0x00,0x00,0x00,0x00,0x00,0x00,
 0x00,0x00,0x00,0x00,0x00,0x00,0x00,0x00,0x00,0x00,0x00,0x00,
 0x00,0x00,0x00,0x00,0x00,0x00,0x00,0x00,0x00,0x00,0x00,0x00,
 0x00,0x00,0x00,0x00,0x00,0x00,0x00,0x00,0x00,0x00,0x00,0x00,
 0x00,0x00,0x00,0x00,0x00,0x00,0x00,0x00,0x00,0x00,0x00,0x00,
 0x00,0x00,0x00,0x00,0x00,0x00,0x00,0x00,0x00,0x00,0x00,0x00,
 0x00,0x00,0x00,0x00,0x00,0x00,0x00,0x00,0x00,0x00,0x00,0x00,
 0x00,0x00,0x00,0x00,0x00,0x00,0x00,0x00,0x00,0x00,0x00,0x00,
 0x00,0x00,0x00,0x00,0x00,0x00,0x00,0x00 };
