#define dstlk_width 256
#define dstlk_height 64
static unsigned char dstlk_bits[] = {
   0x00, 0x00, 0x00, 0x00, 0x00, 0x00, 0x00, 0x00, 0x00, 0x00, 0x00, 0x00,
   0x00, 0x00, 0x00, 0x00, 0x00, 0x00, 0x00, 0x00, 0x00, 0x00, 0x00, 0x00,
   0x00, 0x00, 0x00, 0x00, 0x00, 0x00, 0x00, 0x00, 0x00, 0x00, 0x00, 0x00,
   0x80, 0x3f, 0x00, 0x00, 0x00, 0x00, 0x00, 0x00, 0x00, 0x00, 0x0c, 0x00,
   0x00, 0x00, 0x00, 0x00, 0x00, 0x00, 0x00, 0x00, 0x00, 0x00, 0x00, 0x00,
   0x00, 0x00, 0x00, 0x00, 0x00, 0x00, 0x00, 0x00, 0xe0, 0xff, 0x00, 0x00,
   0x00, 0x00, 0x00, 0x00, 0x00, 0x00, 0x7f, 0x00, 0x00, 0x00, 0x00, 0x00,
   0x00, 0x00, 0x00, 0x00, 0x00, 0x00, 0x00, 0x00, 0x00, 0x00, 0x00, 0x00,
   0x00, 0x00, 0x00, 0x00, 0xf0, 0xff, 0x03, 0x00, 0x00, 0x00, 0x00, 0x00,
   0x00, 0xc0, 0xff, 0x01, 0x00, 0x00, 0x00, 0x00, 0x00, 0x00, 0x00, 0x00,
   0x00, 0x00, 0x00, 0x00, 0x00, 0x00, 0x00, 0x00, 0x00, 0x00, 0x00, 0x00,
   0xf8, 0xff, 0x07, 0x00, 0x00, 0x00, 0x00, 0x00, 0x00, 0xe0, 0xff, 0x03,
   0x01, 0x00, 0x00, 0x00, 0x00, 0x00, 0x00, 0x00, 0x00, 0x00, 0x00, 0x00,
   0x00, 0x00, 0x00, 0x00, 0x00, 0x00, 0x00, 0x00, 0xfc, 0xff, 0x0f, 0x00,
   0x00, 0x00, 0x00, 0x00, 0x00, 0xe0, 0xff, 0x03, 0x01, 0x00, 0x00, 0x00,
   0x00, 0x00, 0x00, 0x00, 0x00, 0x00, 0x00, 0x00, 0x00, 0x00, 0x00, 0x00,
   0x00, 0x00, 0x00, 0x00, 0xfe, 0xff, 0x1f, 0x00, 0x00, 0x00, 0x00, 0x00,
   0x00, 0xf0, 0xff, 0x0f, 0x01, 0x00, 0x00, 0x00, 0x00, 0x00, 0x00, 0x00,
   0x00, 0x00, 0x00, 0x00, 0x00, 0x00, 0x00, 0x00, 0x00, 0x00, 0x00, 0x00,
   0xfe, 0xff, 0x3f, 0x00, 0x00, 0x00, 0x00, 0x00, 0x00, 0xf8, 0xff, 0x9f,
   0x01, 0x00, 0x00, 0x00, 0x00, 0x00, 0x00, 0x00, 0x00, 0x00, 0x00, 0x00,
   0x00, 0x00, 0x00, 0x00, 0x00, 0x00, 0x00, 0x00, 0xff, 0xff, 0x3f, 0x00,
   0x00, 0x00, 0x00, 0x00, 0x00, 0xf8, 0xff, 0xbf, 0x01, 0x00, 0x00, 0x00,
   0x00, 0x00, 0x00, 0x00, 0x00, 0x00, 0x00, 0x00, 0x00, 0x00, 0x00, 0x00,
   0x00, 0x00, 0x00, 0x00, 0xff, 0xff, 0x7f, 0x00, 0x00, 0x00, 0x00, 0x00,
   0x00, 0xfc, 0xff, 0xff, 0x01, 0x00, 0x00, 0x00, 0x00, 0x00, 0x00, 0x00,
   0x00, 0x00, 0x00, 0x00, 0x00, 0x00, 0x00, 0x00, 0x00, 0x00, 0x00, 0x80,
   0xff, 0xff, 0x7f, 0x00, 0x00, 0x00, 0x00, 0x00, 0x00, 0x7c, 0xff, 0xff,
   0x00, 0x00, 0x00, 0x00, 0x00, 0x00, 0x00, 0x00, 0x00, 0x00, 0x00, 0x00,
   0x00, 0x00, 0x00, 0x00, 0x00, 0x00, 0x00, 0x80, 0xff, 0xff, 0xff, 0x00,
   0x00, 0x00, 0x00, 0x00, 0x00, 0x0e, 0xf8, 0xff, 0x00, 0x00, 0x00, 0x00,
   0x00, 0x00, 0x00, 0x00, 0x00, 0x00, 0x00, 0x00, 0x00, 0x00, 0x00, 0x00,
   0x00, 0x00, 0x00, 0x80, 0xff, 0xff, 0xff, 0x00, 0x00, 0x00, 0x00, 0x08,
   0x00, 0x06, 0xf0, 0x7f, 0x00, 0x00, 0x00, 0x00, 0x40, 0x00, 0x00, 0x00,
   0x00, 0x00, 0x00, 0x00, 0x00, 0x00, 0x00, 0x00, 0x00, 0x00, 0x00, 0x80,
   0x1f, 0xe0, 0xff, 0x00, 0x00, 0x00, 0x00, 0x1c, 0x00, 0x06, 0xc0, 0x3f,
   0x00, 0x00, 0x00, 0x00, 0xc0, 0x00, 0x00, 0x00, 0x00, 0x00, 0x00, 0x00,
   0x00, 0x00, 0x00, 0x00, 0x00, 0x00, 0x00, 0xc0, 0x07, 0x00, 0xff, 0x01,
   0x00, 0x00, 0x00, 0x7f, 0x00, 0x03, 0x80, 0x1f, 0x00, 0x00, 0x00, 0x00,
   0xf8, 0x03, 0x00, 0x00, 0x00, 0x00, 0x00, 0x00, 0x00, 0x00, 0x00, 0x00,
   0x00, 0x00, 0x00, 0xc0, 0x03, 0x0c, 0xfe, 0x01, 0x00, 0x00, 0x00, 0x7f,
   0x00, 0x03, 0x00, 0x06, 0x00, 0x00, 0x00, 0x80, 0xfb, 0x03, 0x00, 0x00,
   0x00, 0x00, 0x00, 0x00, 0x00, 0x00, 0x00, 0x00, 0x00, 0x00, 0x00, 0xc0,
   0x01, 0x0c, 0xf8, 0x01, 0x00, 0x00, 0x00, 0x3f, 0x00, 0x01, 0x03, 0x00,
   0x00, 0x00, 0x00, 0xe0, 0xf0, 0x03, 0x00, 0x00, 0x00, 0x00, 0x00, 0x00,
   0x00, 0x00, 0x00, 0x00, 0x00, 0x00, 0x00, 0xc0, 0x00, 0x1e, 0xf0, 0x01,
   0x00, 0x00, 0x00, 0x7f, 0x00, 0x81, 0x07, 0x00, 0x20, 0x00, 0x00, 0xf0,
   0xf0, 0x03, 0x00, 0x00, 0x00, 0x00, 0x00, 0x00, 0x00, 0x00, 0x00, 0x00,
   0x00, 0x00, 0x00, 0xc0, 0x00, 0x1e, 0xe0, 0x03, 0x00, 0x00, 0x00, 0x3f,
   0x80, 0x81, 0xf7, 0x01, 0x20, 0x00, 0x00, 0xf8, 0xf0, 0x03, 0x00, 0x00,
   0x00, 0x00, 0x00, 0x00, 0x00, 0x00, 0x00, 0x00, 0x00, 0x00, 0x00, 0xc0,
   0x00, 0x1e, 0xc0, 0x03, 0x00, 0x00, 0x00, 0x3e, 0x80, 0x81, 0xff, 0x03,
   0x30, 0x00, 0x00, 0x78, 0xf0, 0x03, 0x00, 0x00, 0x00, 0x00, 0x00, 0x00,
   0x00, 0x00, 0x00, 0x00, 0x00, 0x00, 0x00, 0xc0, 0x20, 0x5e, 0xc0, 0x03,
   0x00, 0x00, 0x00, 0x3e, 0x80, 0x81, 0xff, 0x0f, 0x30, 0x00, 0x00, 0x7c,
   0xf0, 0x03, 0x00, 0x00, 0x00, 0x00, 0x00, 0x00, 0x00, 0x00, 0x00, 0x00,
   0x00, 0x00, 0x00, 0xc0, 0x70, 0x3e, 0x80, 0x03, 0x00, 0x00, 0x00, 0x3e,
   0x80, 0x81, 0xff, 0x0f, 0x30, 0x00, 0x00, 0x7c, 0xf0, 0x03, 0x00, 0x00,
   0x00, 0x00, 0x00, 0x00, 0x00, 0x00, 0x00, 0x00, 0x00, 0x00, 0x00, 0xc0,
   0x78, 0x3e, 0x80, 0x03, 0x0c, 0x40, 0x08, 0x3e, 0x84, 0x81, 0xff, 0x1f,
   0x30, 0x00, 0x06, 0x7c, 0xf0, 0x03, 0x00, 0x04, 0x0c, 0x01, 0x00, 0x01,
   0x00, 0x00, 0x00, 0x00, 0x00, 0x00, 0x00, 0xc0, 0xf0, 0x1c, 0x00, 0x03,
   0x1e, 0xe0, 0x3e, 0x3e, 0x8e, 0xc1, 0xff, 0x3f, 0x38, 0x80, 0x0f, 0x7c,
   0xf0, 0x63, 0x00, 0x07, 0xde, 0x03, 0x0c, 0x03, 0x00, 0x00, 0x00, 0x00,
   0x00, 0x00, 0x00, 0xc0, 0x78, 0x1e, 0x00, 0x83, 0x3f, 0xf0, 0x7f, 0x3e,
   0x8f, 0xe1, 0xff, 0x3f, 0x3c, 0xc0, 0x1f, 0x7c, 0xf0, 0xf3, 0x80, 0x0f,
   0xff, 0x07, 0x9c, 0x03, 0x00, 0x00, 0x00, 0x00, 0x00, 0x00, 0x00, 0x80,
   0xf1, 0x1f, 0x00, 0xc3, 0xff, 0xf9, 0x7f, 0xbe, 0x1f, 0xfb, 0xff, 0x31,
   0xfc, 0xf1, 0x7f, 0x7c, 0xf0, 0xfd, 0xe1, 0x8f, 0xff, 0x0f, 0xfe, 0x03,
   0x00, 0x00, 0x00, 0x00, 0x00, 0x00, 0x00, 0x80, 0xf3, 0x1d, 0x00, 0x63,
   0xfe, 0xfd, 0xff, 0xfe, 0x1f, 0xff, 0xff, 0x20, 0xff, 0x99, 0x7f, 0x7c,
   0xf0, 0xff, 0xf1, 0xdf, 0xff, 0x0f, 0xff, 0x01, 0x00, 0x00, 0x00, 0x00,
   0x00, 0x00, 0x00, 0x00, 0xff, 0x1e, 0x00, 0x33, 0xfc, 0xf0, 0xff, 0xfe,
   0x1f, 0xff, 0x7f, 0x60, 0xff, 0x0d, 0x7e, 0x7c, 0xf0, 0xfb, 0xf8, 0x1f,
   0xff, 0x8f, 0xff, 0x01, 0x00, 0x00, 0x00, 0x00, 0x00, 0x00, 0x00, 0x00,
   0x7c, 0x1c, 0x00, 0x1b, 0xf8, 0xf0, 0xe3, 0x3e, 0x0e, 0xff, 0x3f, 0x60,
   0x7e, 0x0c, 0x7e, 0x7c, 0xf0, 0x73, 0xf8, 0x3f, 0x7e, 0xcc, 0xff, 0x00,
   0x00, 0x00, 0x00, 0x00, 0x00, 0x00, 0x00, 0x00, 0x70, 0x1c, 0x00, 0x1b,
   0xf8, 0xf0, 0xc3, 0x3e, 0x0e, 0xfe, 0x3f, 0x60, 0x3e, 0x04, 0x7e, 0xfc,
   0xf0, 0x63, 0xf8, 0x3e, 0x3e, 0xec, 0x7b, 0x00, 0x00, 0x00, 0x00, 0x00,
   0x00, 0x00, 0x00, 0x00, 0x70, 0x1c, 0x00, 0x1b, 0xf8, 0xf0, 0x61, 0x3e,
   0x0f, 0xfe, 0x1f, 0x60, 0x3e, 0x04, 0x3e, 0x7c, 0xf0, 0x73, 0xfc, 0x1e,
   0x3e, 0xec, 0x01, 0x00, 0x00, 0x00, 0x00, 0x00, 0x00, 0x00, 0x00, 0x00,
   0x70, 0x1c, 0x00, 0x13, 0xf8, 0xf0, 0x61, 0xbe, 0x0f, 0xfc, 0x0f, 0x60,
   0x3e, 0x0c, 0x7e, 0x7c, 0xf0, 0x7d, 0xf8, 0x0e, 0x3e, 0xe6, 0xe3, 0x00,
   0x00, 0x00, 0x00, 0x00, 0x00, 0x00, 0x00, 0x00, 0x70, 0x1c, 0x00, 0x81,
   0xf9, 0xf0, 0x33, 0xfe, 0x1f, 0xf8, 0x07, 0x60, 0x3e, 0xc0, 0x7e, 0x7c,
   0xf0, 0xff, 0x7c, 0x03, 0x3e, 0xe3, 0xff, 0x01, 0x00, 0x00, 0x00, 0x00,
   0x00, 0x00, 0x00, 0x00, 0x70, 0x1c, 0x00, 0xe1, 0xf9, 0xf0, 0x19, 0xfe,
   0x1f, 0xf0, 0x07, 0x20, 0x3e, 0x70, 0x7e, 0x7c, 0xf0, 0xff, 0xfc, 0x01,
   0x3e, 0xe3, 0xff, 0x03, 0x00, 0x00, 0x00, 0x00, 0x00, 0x00, 0x00, 0x00,
   0xf0, 0x0f, 0x00, 0x71, 0xf8, 0xf0, 0x01, 0x3e, 0x1f, 0x00, 0x03, 0x20,
   0x3e, 0x18, 0x3e, 0x7c, 0xf0, 0xff, 0xfc, 0x00, 0x3e, 0xe0, 0xff, 0x07,
   0x00, 0x00, 0x00, 0x00, 0x00, 0x00, 0x00, 0x00, 0xf8, 0x1f, 0x00, 0x31,
   0xf8, 0xf0, 0x01, 0x3e, 0x1f, 0x00, 0x03, 0x30, 0x3e, 0x1c, 0x7e, 0x7c,
   0xf0, 0xfd, 0xfc, 0x00, 0x3e, 0xc0, 0xff, 0x07, 0x00, 0x00, 0x00, 0x00,
   0x00, 0x00, 0x00, 0x00, 0xfc, 0x1f, 0x00, 0x39, 0xf8, 0xf0, 0x03, 0x3e,
   0x3f, 0x00, 0x03, 0x30, 0x3e, 0x1c, 0x7e, 0x7c, 0xf0, 0xf9, 0xfc, 0x01,
   0x3e, 0xc0, 0xef, 0x07, 0x00, 0x00, 0x00, 0x00, 0x00, 0x00, 0x00, 0x00,
   0xfe, 0x3f, 0x80, 0x38, 0xfc, 0xf0, 0x01, 0x3e, 0x3f, 0x7c, 0x07, 0x38,
   0x3e, 0x1e, 0x7e, 0x7c, 0xf0, 0xf9, 0xfd, 0x21, 0x3e, 0x80, 0xc1, 0x07,
   0x00, 0x00, 0x00, 0x00, 0x00, 0x00, 0x00, 0x00, 0xfe, 0x7f, 0x80, 0x38,
   0xfe, 0xf3, 0x01, 0x3e, 0x7f, 0xfe, 0x03, 0x18, 0x3e, 0x1e, 0xff, 0x78,
   0xf0, 0xf9, 0xf9, 0x33, 0x3e, 0x00, 0xc0, 0x07, 0x00, 0x00, 0x00, 0x00,
   0x00, 0x00, 0x00, 0x00, 0xff, 0xff, 0xc0, 0x78, 0xff, 0xf1, 0x03, 0x3e,
   0x3f, 0xff, 0x0f, 0x1e, 0x3e, 0x9e, 0xff, 0xfc, 0xf0, 0xf9, 0xf9, 0x1f,
   0x3e, 0x00, 0xc0, 0x03, 0x00, 0x00, 0x00, 0x00, 0x00, 0x00, 0x00, 0x00,
   0xff, 0xff, 0x41, 0xf8, 0xff, 0xf0, 0x03, 0x7f, 0x9f, 0xff, 0xff, 0x0f,
   0x7f, 0xfe, 0x7f, 0xfc, 0xf0, 0xf3, 0xf1, 0x0f, 0x3f, 0x30, 0xc0, 0x03,
   0x00, 0x00, 0x00, 0x00, 0x00, 0x00, 0x00, 0x80, 0xff, 0xff, 0x7f, 0xf8,
   0xff, 0xf8, 0x03, 0x7f, 0x9e, 0xff, 0xff, 0x0f, 0x7f, 0xfc, 0x3f, 0xfe,
   0xf8, 0xf3, 0xf3, 0x07, 0x7f, 0x60, 0xe0, 0x01, 0x00, 0x00, 0x00, 0x00,
   0x00, 0x00, 0x00, 0x80, 0xf9, 0xff, 0x7f, 0xf0, 0x67, 0xf0, 0x03, 0x3f,
   0x86, 0xff, 0xff, 0x07, 0x7e, 0xfc, 0x19, 0xfc, 0xf0, 0xf1, 0xe3, 0x03,
   0x3f, 0xc0, 0xf0, 0x00, 0x00, 0x00, 0x00, 0x00, 0x00, 0x00, 0x00, 0x80,
   0xf0, 0xff, 0x3f, 0xe0, 0x03, 0xf0, 0x01, 0x3e, 0xc0, 0xff, 0xff, 0x07,
   0x3e, 0xf8, 0x00, 0x78, 0xf0, 0xe1, 0x83, 0x03, 0x3e, 0x80, 0x7f, 0x00,
   0x00, 0x00, 0x00, 0x00, 0x00, 0x00, 0x00, 0xc0, 0xf0, 0xff, 0x3f, 0xc0,
   0x00, 0xe0, 0x01, 0x1e, 0xc0, 0xff, 0xff, 0x03, 0x3c, 0x30, 0x00, 0x78,
   0xe0, 0xe1, 0x07, 0x00, 0x1e, 0x00, 0x0e, 0x00, 0x00, 0x00, 0x00, 0x00,
   0x00, 0x00, 0x00, 0xc0, 0xf0, 0xff, 0x1f, 0x00, 0x00, 0xe0, 0x00, 0x1c,
   0xc0, 0xff, 0xff, 0x01, 0x1c, 0x00, 0x00, 0x38, 0xe0, 0xc0, 0x07, 0x00,
   0x1c, 0x00, 0x00, 0x00, 0x00, 0x00, 0x00, 0x00, 0x00, 0x00, 0x00, 0xc0,
   0x30, 0xff, 0x0f, 0x00, 0x00, 0xe0, 0x00, 0x0c, 0x60, 0xfc, 0xff, 0x00,
   0x1c, 0x00, 0x00, 0x38, 0xe0, 0xc0, 0x0f, 0x00, 0x0c, 0x00, 0x00, 0x00,
   0x00, 0x00, 0x00, 0x00, 0x00, 0x00, 0x00, 0xc0, 0x70, 0xfe, 0x07, 0x00,
   0x00, 0xc0, 0x00, 0x0c, 0x60, 0xf0, 0x7f, 0x00, 0x1c, 0x00, 0x00, 0x30,
   0xc0, 0x80, 0x0f, 0x00, 0x0c, 0x00, 0x00, 0x00, 0x00, 0x00, 0x00, 0x00,
   0x00, 0x00, 0x00, 0xc0, 0x20, 0xfc, 0x03, 0x00, 0x00, 0x40, 0x00, 0x0c,
   0x60, 0xc0, 0x3f, 0x00, 0x08, 0x00, 0x00, 0x10, 0x40, 0x00, 0x1f, 0x00,
   0x0c, 0x00, 0x00, 0x00, 0x00, 0x00, 0x00, 0x00, 0x00, 0x00, 0x00, 0x80,
   0x30, 0xfc, 0x00, 0x00, 0x00, 0x40, 0x00, 0x0c, 0x60, 0x00, 0x0b, 0x00,
   0x08, 0x00, 0x00, 0x10, 0x40, 0x00, 0x3f, 0x00, 0x0c, 0x00, 0x00, 0x00,
   0x00, 0x00, 0x00, 0x00, 0x00, 0x00, 0x00, 0x80, 0x21, 0x0c, 0x00, 0x00,
   0x00, 0x40, 0x00, 0x0c, 0x20, 0x00, 0x03, 0x00, 0x08, 0x00, 0x00, 0x10,
   0x40, 0x00, 0x7e, 0x00, 0x0e, 0x00, 0x00, 0x00, 0x00, 0x00, 0x00, 0x00,
   0x00, 0x00, 0x00, 0x80, 0xa1, 0x0c, 0x00, 0x00, 0x00, 0x40, 0x00, 0x0c,
   0x60, 0x00, 0x03, 0x00, 0x08, 0x00, 0x00, 0x10, 0x40, 0x00, 0xfc, 0xc1,
   0x0d, 0x00, 0x00, 0x00, 0x00, 0x00, 0x00, 0x00, 0x00, 0x00, 0x00, 0x00,
   0xe3, 0x0c, 0x00, 0x00, 0x00, 0x40, 0x00, 0x04, 0x60, 0x00, 0x03, 0x00,
   0x08, 0x00, 0x00, 0x00, 0x40, 0x00, 0xf0, 0x7f, 0x0c, 0x00, 0x00, 0x00,
   0x00, 0x00, 0x00, 0x00, 0x00, 0x00, 0x00, 0x00, 0x7e, 0x0c, 0x00, 0x00,
   0x00, 0x40, 0x00, 0x04, 0x60, 0x00, 0x03, 0x00, 0x00, 0x00, 0x00, 0x00,
   0x00, 0x00, 0xe0, 0x1f, 0x08, 0x00, 0x00, 0x00, 0x00, 0x00, 0x00, 0x00,
   0x00, 0x00, 0x00, 0x00, 0x3c, 0x04, 0x00, 0x00, 0x00, 0x00, 0x00, 0x00,
   0x60, 0x00, 0x01, 0x00, 0x00, 0x00, 0x00, 0x00, 0x00, 0x00, 0x00, 0x00,
   0x00, 0x00, 0x00, 0x00, 0x00, 0x00, 0x00, 0x00, 0x00, 0x00, 0x00, 0x00,
   0x20, 0x0c, 0x00, 0x00, 0x00, 0x00, 0x00, 0x00, 0xc0, 0x60, 0x01, 0x00,
   0x00, 0x00, 0x00, 0x00, 0x00, 0x00, 0x00, 0x00, 0x00, 0x00, 0x00, 0x00,
   0x00, 0x00, 0x00, 0x00, 0x00, 0x00, 0x00, 0x00, 0x30, 0x00, 0x00, 0x00,
   0x00, 0x00, 0x00, 0x00, 0xc0, 0x31, 0x01, 0x00, 0x00, 0x00, 0x00, 0x00,
   0x00, 0x00, 0x00, 0x00, 0x00, 0x00, 0x00, 0x00, 0x00, 0x00, 0x00, 0x00,
   0x00, 0x00, 0x00, 0x00, 0x20, 0x04, 0x00, 0x00, 0x00, 0x00, 0x00, 0x00,
   0x80, 0x1f, 0x01, 0x00, 0x00, 0x00, 0x00, 0x00, 0x00, 0x00, 0x00, 0x00,
   0x00, 0x00, 0x00, 0x00, 0x00, 0x00, 0x00, 0x00, 0x00, 0x00, 0x00, 0x00,
   0x20, 0x00, 0x00, 0x00, 0x00, 0x00, 0x00, 0x00, 0x00, 0x06, 0x00, 0x00,
   0x00, 0x00, 0x00, 0x00, 0x00, 0x00, 0x00, 0x00, 0x00, 0x00, 0x00, 0x00,
   0x00, 0x00, 0x00, 0x00, 0x00, 0x00, 0x00, 0x00, 0x20, 0x00, 0x00, 0x00,
   0x00, 0x00, 0x00, 0x00, 0x00, 0x00, 0x01, 0x00, 0x00, 0x00, 0x00, 0x00,
   0x00, 0x00, 0x00, 0x00, 0x00, 0x00, 0x00, 0x00, 0x00, 0x00, 0x00, 0x00,
   0x00, 0x00, 0x00, 0x00, 0x20, 0x00, 0x00, 0x00, 0x00, 0x00, 0x00, 0x00,
   0x00, 0x00, 0x00, 0x00, 0x00, 0x00, 0x00, 0x00, 0x00, 0x00, 0x00, 0x00,
   0x00, 0x00, 0x00, 0x00, 0x00, 0x00, 0x00, 0x00, 0x00, 0x00, 0x00, 0x00,
   0x20, 0x00, 0x00, 0x00, 0x00, 0x00, 0x00, 0x00, 0x00, 0x00, 0x00, 0x00,
   0x00, 0x00, 0x00, 0x00, 0x00, 0x00, 0x00, 0x00, 0x00, 0x00, 0x00, 0x00,
   0x00, 0x00, 0x00, 0x00, 0x00, 0x00, 0x00, 0x00, 0x20, 0x00, 0x00, 0x00,
   0x00, 0x00, 0x00, 0x00, 0x00, 0x00, 0x00, 0x00, 0x00, 0x00, 0x00, 0x00,
   0x00, 0x00, 0x00, 0x00, 0x00, 0x00, 0x00, 0x00, 0x00, 0x00, 0x00, 0x00,
   0x00, 0x00, 0x00, 0x00, 0x20, 0x00, 0x00, 0x00, 0x00, 0x00, 0x00, 0x00,
   0x00, 0x00, 0x00, 0x00, 0x00, 0x00, 0x00, 0x00, 0x00, 0x00, 0x00, 0x00,
   0x00, 0x00, 0x00, 0x00, 0x00, 0x00, 0x00, 0x00 };
