#define _width 256
#define _height 64
static char _bits[] = {
 0x00,0x00,0x00,0x00,0x00,0x00,0x00,0x00,0x00,0x00,0x00,0x00,0x00,0x00,0x00,
 0x00,0x00,0x00,0x00,0x00,0x00,0x00,0x00,0x00,0x00,0x00,0x00,0x00,0x00,0x00,
 0x00,0x00,0x00,0x00,0x00,0x00,0x00,0x00,0x00,0x00,0x00,0x00,0x00,0x00,0x00,
 0x00,0x00,0x00,0x00,0x00,0x00,0x00,0x00,0x00,0x00,0x00,0x00,0x00,0x00,0x00,
 0x00,0x00,0x00,0x00,0x00,0x00,0x00,0x00,0x00,0x00,0x00,0x00,0x00,0x00,0x00,
 0x00,0x00,0x00,0x00,0x00,0x00,0x00,0x00,0x00,0x00,0x00,0x00,0x00,0x00,0x00,
 0x00,0x00,0x00,0x00,0x00,0x00,0x00,0x00,0x00,0x00,0x00,0x00,0x00,0x00,0x00,
 0x00,0x00,0x00,0x00,0x00,0x00,0x00,0x00,0x00,0x00,0x00,0x00,0x00,0x00,0x00,
 0x00,0x00,0x00,0x00,0x00,0x00,0x00,0x00,0x00,0x00,0x00,0x00,0x00,0x00,0x00,
 0x00,0x00,0x00,0x00,0x00,0x00,0x00,0x00,0x00,0x00,0x00,0x00,0x00,0x00,0x00,
 0x00,0x00,0x00,0x00,0x00,0x00,0x00,0x00,0x00,0x00,0xff,0xff,0xff,0xff,0xff,
 0xff,0xff,0xff,0x1f,0x00,0x00,0x00,0x00,0x00,0x00,0x00,0x00,0x00,0x00,0xc0,
 0xff,0xff,0xff,0xff,0xff,0x03,0x00,0x00,0x00,0x00,0xff,0xff,0xff,0xff,0xff,
 0xff,0xff,0xff,0xff,0xff,0x1f,0x00,0x00,0x00,0x00,0x00,0x00,0x00,0x00,0x00,
 0x00,0xc0,0xff,0xff,0xff,0xff,0xff,0x03,0x00,0x00,0x00,0x00,0xff,0xff,0xff,
 0xff,0xff,0xff,0xff,0xff,0xff,0xff,0x1f,0x00,0x00,0x00,0x00,0x00,0x00,0x00,
 0x00,0x00,0x00,0xc0,0xff,0xff,0xff,0xff,0xff,0x03,0x00,0x00,0x00,0x00,0xff,
 0xff,0x07,0x00,0x00,0x70,0x00,0x0e,0x00,0x00,0x1c,0x00,0x00,0x00,0x00,0x00,
 0x00,0x00,0x00,0x00,0x00,0xc0,0x01,0x00,0x00,0x1c,0x80,0xff,0xff,0xff,0x1f,
 0x00,0x07,0xe0,0x07,0x00,0x00,0x70,0x00,0x0e,0x00,0x00,0x1c,0x00,0x00,0x00,
 0x00,0x00,0x00,0x00,0x00,0x00,0x00,0xc0,0x01,0x00,0x00,0x1c,0x80,0xff,0xff,
 0xff,0x1f,0x00,0x07,0xe0,0x07,0x00,0x00,0x70,0x00,0x0e,0x00,0x00,0x1c,0x00,
 0x00,0x00,0x00,0x00,0x00,0x00,0x00,0x00,0x00,0xc0,0x01,0x00,0x00,0x1c,0x80,
 0xff,0xff,0xff,0x1f,0x00,0x07,0xe0,0x07,0x00,0x00,0x70,0x00,0x0e,0x00,0x00,
 0x1c,0x00,0x00,0x00,0x00,0x00,0x00,0x00,0x00,0x00,0x00,0xc0,0x01,0x00,0x00,
 0x1c,0x80,0x03,0x00,0x00,0x1c,0x00,0x07,0xe0,0x07,0x00,0x00,0x70,0x00,0x0e,
 0x00,0x00,0x1c,0x00,0x00,0x00,0x00,0x00,0x00,0x00,0x00,0x00,0x00,0xc0,0x01,
 0x00,0x00,0x1c,0x80,0x03,0x00,0x00,0x1c,0x00,0x07,0xe0,0x07,0x00,0x00,0x70,
 0x00,0x0e,0x00,0x00,0xfc,0xff,0xff,0xff,0xff,0xff,0xff,0xff,0xff,0xff,0x07,
 0xc0,0x01,0x00,0x00,0x1c,0x80,0x03,0x00,0x00,0xfc,0xff,0x07,0xe0,0x07,0x00,
 0x00,0x70,0x00,0x0e,0x00,0x00,0xfc,0xff,0xff,0xff,0xff,0xff,0xff,0xff,0xff,
 0xff,0x07,0xc0,0x01,0x00,0x00,0x1c,0x80,0x03,0x00,0x00,0xfc,0xff,0x07,0xe0,
 0x07,0x00,0x00,0x70,0x00,0x0e,0x00,0x00,0xfc,0xff,0xff,0xff,0xff,0xff,0xff,
 0xff,0xff,0xff,0x07,0xc0,0x01,0x00,0x00,0x1c,0x80,0x03,0x00,0x00,0xfc,0xff,
 0x07,0xe0,0x07,0x00,0x00,0x70,0x00,0x0e,0x00,0x00,0x1c,0x00,0x00,0xe0,0x00,
 0x00,0xe0,0x00,0x38,0x00,0x07,0xc0,0x01,0x00,0x00,0x1c,0x80,0x03,0x00,0x00,
 0x1c,0x00,0x00,0xe0,0x07,0x00,0x00,0x70,0x00,0x0e,0x00,0x00,0x1c,0x00,0x00,
 0xe0,0x00,0x00,0xe0,0x00,0x38,0x00,0x07,0xc0,0x01,0x00,0x00,0x1c,0x80,0x03,
 0x00,0x00,0x1c,0x00,0x00,0xe0,0x07,0xc0,0xff,0x7f,0xc0,0xff,0x7f,0x00,0x1c,
 0x00,0x00,0xe0,0x00,0x00,0xe0,0x00,0x38,0x00,0x07,0xc0,0x01,0x00,0x00,0xfc,
 0xff,0x03,0x00,0x00,0x1c,0x00,0x00,0xe0,0x07,0xc0,0xff,0x7f,0xc0,0xff,0x7f,
 0x00,0x1c,0x00,0x00,0xe0,0x00,0x00,0xe0,0x00,0x38,0x00,0x07,0xc0,0x01,0x70,
 0x00,0xfc,0xff,0x03,0x00,0x00,0x1c,0x00,0x00,0xe0,0x07,0xc0,0xff,0x7f,0xc0,
 0xff,0x7f,0x00,0x1c,0x00,0x00,0xe0,0x00,0x00,0xe0,0x00,0x38,0x00,0x07,0xc0,
 0x01,0x70,0x00,0xfc,0xff,0x03,0x00,0x00,0x1c,0x00,0x00,0xe0,0x07,0x00,0x00,
 0x70,0xc0,0x01,0x00,0x00,0x1c,0x00,0x00,0xe0,0x00,0x00,0xe0,0x00,0x38,0x00,
 0x07,0xc0,0x01,0x70,0x00,0x1c,0x80,0x03,0x70,0x00,0x1c,0x00,0x00,0xe0,0x07,
 0x00,0x00,0x70,0xc0,0x01,0x00,0x00,0x1c,0x00,0x00,0xe0,0x00,0x00,0xe0,0x00,
 0x38,0x00,0x07,0xc0,0x01,0x00,0x00,0x1c,0x80,0x03,0x70,0x00,0x1c,0x00,0x00,
 0xe0,0x07,0x00,0x00,0x70,0xc0,0x01,0x00,0x00,0x1c,0x00,0x00,0xe0,0x00,0x00,
 0xe0,0x00,0x38,0x00,0x07,0xc0,0x01,0x00,0x00,0x1c,0x80,0x03,0x70,0x00,0x1c,
 0x00,0x00,0xe0,0x07,0x00,0x00,0x70,0xc0,0x01,0x00,0x00,0x1c,0x00,0x00,0xe0,
 0x00,0x00,0xe0,0x00,0x38,0x00,0x07,0xc0,0x01,0x00,0x00,0x1c,0x80,0x03,0x70,
 0x00,0x1c,0x00,0x00,0xe0,0x07,0x00,0x00,0x70,0xc0,0x01,0x00,0x00,0x1c,0x00,
 0x00,0xe0,0x00,0x00,0xe0,0x00,0x38,0x00,0x07,0xc0,0x01,0x00,0x00,0x1c,0x80,
 0x03,0x70,0x00,0x1c,0x00,0x00,0xe0,0x07,0x00,0x00,0x70,0xc0,0x01,0x00,0x00,
 0x1c,0x80,0x03,0xe0,0x00,0x1c,0xe0,0x00,0x38,0x00,0x07,0xc0,0x01,0x00,0xc0,
 0x1f,0x80,0x03,0x70,0x00,0x1c,0x00,0x00,0xe0,0x07,0x00,0x00,0x70,0xc0,0x01,
 0x00,0x00,0x1c,0x80,0x03,0xe0,0x00,0x1c,0xe0,0x00,0x38,0x00,0x07,0xc0,0x01,
 0x00,0xc0,0x1f,0x80,0x03,0x70,0x00,0x1c,0x00,0x00,0xe0,0x07,0x00,0x00,0x70,
 0xc0,0x01,0x00,0x00,0x1c,0x80,0x03,0xe0,0x00,0x1c,0xe0,0x00,0x38,0x00,0x07,
 0xc0,0x01,0x00,0xc0,0x1f,0x80,0x03,0x70,0x00,0x1c,0x00,0x07,0xe0,0x07,0x00,
 0x00,0x70,0xc0,0x01,0x00,0x00,0x1c,0x80,0x03,0xe0,0x00,0x1c,0xe0,0x00,0x38,
 0x00,0x07,0xc0,0x01,0x00,0xc0,0x1f,0x80,0x03,0xf0,0xff,0x1f,0x00,0x07,0xe0,
 0x07,0x00,0x00,0x70,0xc0,0x01,0x00,0x00,0x1c,0x80,0x03,0xe0,0x00,0x1c,0xe0,
 0x00,0x00,0x00,0x07,0xc0,0x01,0x00,0x00,0x1c,0x80,0x03,0xf0,0xff,0x1f,0x00,
 0x07,0xe0,0x07,0x00,0x00,0x70,0xc0,0x01,0x00,0x00,0x1c,0x80,0x03,0xe0,0x00,
 0x1c,0xe0,0x00,0x00,0x00,0x07,0xc0,0x01,0x00,0x00,0x1c,0x80,0x03,0xf0,0xff,
 0x1f,0x00,0x07,0xe0,0x07,0x00,0x00,0x70,0xc0,0x01,0x00,0x00,0x1c,0x80,0x03,
 0xe0,0x00,0x1c,0xe0,0x00,0x00,0x00,0x07,0xc0,0x01,0x00,0x00,0x1c,0x80,0x03,
 0x70,0x00,0x1c,0x00,0x07,0xe0,0x07,0x00,0x00,0x70,0xc0,0x01,0x00,0x00,0x1c,
 0x80,0x03,0xe0,0x00,0x1c,0xe0,0x00,0x00,0x00,0x07,0xc0,0x01,0x00,0x00,0x1c,
 0x80,0x03,0x70,0x00,0x1c,0x00,0x07,0xe0,0x07,0xc0,0xff,0x7f,0xc0,0x01,0x70,
 0x00,0x1c,0x80,0x03,0xe0,0x00,0x00,0xe0,0x00,0x00,0x00,0x07,0xc0,0x01,0x00,
 0x00,0x1c,0x80,0x03,0x70,0x00,0x1c,0x00,0x07,0xe0,0x07,0xc0,0xff,0x7f,0xc0,
 0x01,0x70,0x00,0x1c,0x00,0x00,0xe0,0x00,0x00,0xe0,0x00,0x00,0x00,0x07,0xc0,
 0x01,0x70,0x00,0x1c,0x80,0x03,0x70,0x00,0x1c,0x00,0x07,0xe0,0x07,0xc0,0xff,
 0x7f,0xc0,0x01,0x70,0x00,0x1c,0x00,0x00,0xe0,0x00,0x00,0xe0,0x00,0x00,0x00,
 0x07,0xc0,0x01,0x70,0x00,0x1c,0x80,0x03,0x70,0x00,0x1c,0x00,0x07,0xe0,0x07,
 0xc0,0x01,0x70,0xc0,0x01,0x70,0x00,0x1c,0x00,0x00,0xe0,0x00,0x00,0xe0,0x00,
 0x00,0x00,0x07,0xc0,0x01,0x70,0x00,0x1c,0x80,0x03,0x70,0x00,0x1c,0x00,0x07,
 0xe0,0x07,0xc0,0x01,0x70,0xc0,0x01,0x00,0x00,0x1c,0x00,0x00,0xe0,0x00,0x00,
 0xe0,0x00,0x00,0x00,0x07,0xc0,0x01,0x00,0x00,0x1c,0x80,0x03,0x70,0x00,0x1c,
 0x00,0x00,0xe0,0x07,0xc0,0x01,0x70,0xc0,0x01,0x00,0x00,0x1c,0x00,0x00,0xe0,
 0x00,0x00,0xe0,0x00,0x00,0x00,0x07,0xc0,0x01,0x00,0x00,0x1c,0x80,0x03,0x70,
 0x00,0x1c,0x00,0x00,0xe0,0x07,0xc0,0x01,0x70,0xc0,0x01,0x00,0x00,0x1c,0x00,
 0x00,0xe0,0x00,0x00,0xe0,0x00,0x00,0x00,0x07,0xc0,0x01,0x00,0x00,0x1c,0x80,
 0x03,0x70,0x00,0x1c,0x00,0x00,0xe0,0x07,0xc0,0x01,0x70,0xc0,0x01,0x00,0x00,
 0x1c,0x00,0x00,0xe0,0x00,0x00,0xe0,0x00,0x00,0x00,0x07,0xc0,0x01,0x00,0x00,
 0x1c,0x80,0x03,0x70,0x00,0x1c,0x00,0x00,0xe0,0x07,0xc0,0x01,0x70,0xc0,0x01,
 0x00,0x00,0x1c,0x00,0x00,0xe0,0x00,0x00,0xe0,0xff,0x3f,0x00,0x07,0xc0,0x01,
 0x00,0x00,0x1c,0x80,0x03,0x70,0x00,0x1c,0x00,0x00,0xe0,0x07,0xc0,0x01,0x70,
 0xc0,0x01,0x00,0x00,0x1c,0x00,0x00,0xe0,0x00,0x00,0xe0,0xff,0x3f,0x00,0x07,
 0xc0,0x01,0x00,0x00,0x1c,0x80,0x03,0x70,0x00,0x1c,0x00,0x00,0xe0,0x07,0xc0,
 0x01,0x70,0xc0,0x01,0x00,0x00,0x1c,0x00,0x00,0xe0,0x00,0x00,0xe0,0xff,0x3f,
 0x00,0x07,0xc0,0x01,0x00,0x00,0x1c,0x80,0x03,0x70,0x00,0x1c,0x00,0x00,0xe0,
 0x07,0xc0,0x01,0x70,0xc0,0x01,0x00,0x00,0x1c,0x00,0x00,0xe0,0x00,0x00,0x80,
 0x03,0x00,0x00,0x07,0xc0,0x01,0x00,0x00,0x1c,0x80,0x03,0x70,0x00,0x1c,0x00,
 0x00,0xe0,0x07,0xc0,0x01,0x70,0xc0,0x01,0x00,0x00,0x1c,0x00,0x00,0xe0,0x00,
 0x00,0x80,0x03,0x00,0x00,0x07,0xc0,0x01,0x00,0x00,0x1c,0x80,0x03,0x70,0x00,
 0x1c,0x00,0x00,0xe0,0x07,0xc0,0x01,0x70,0xc0,0x01,0x00,0x00,0x1c,0x00,0x00,
 0xe0,0x00,0x00,0x80,0x03,0x00,0x00,0x07,0xc0,0x01,0x00,0x00,0x1c,0x80,0x03,
 0x70,0x00,0x1c,0x00,0x00,0xe0,0xff,0xff,0x01,0xf0,0xff,0xff,0xff,0xff,0x1f,
 0x00,0xff,0xff,0x00,0xfc,0xff,0x03,0x00,0x00,0x07,0xc0,0xff,0xff,0xff,0xff,
 0xff,0xff,0x7f,0x00,0xfc,0xff,0xff,0xff,0xff,0xff,0x01,0xf0,0xff,0xff,0xff,
 0xff,0x1f,0x00,0xff,0xff,0x00,0xfc,0xff,0x03,0x00,0x00,0x07,0xc0,0xff,0xff,
 0xff,0xff,0xff,0xff,0x7f,0x00,0xfc,0xff,0xff,0xff,0xff,0xff,0x01,0xf0,0xff,
 0xff,0xff,0xff,0x1f,0x00,0xff,0xff,0x00,0xfc,0xff,0x03,0x00,0x00,0x07,0xc0,
 0xff,0xff,0xff,0xff,0xff,0xff,0x7f,0x00,0xfc,0xff,0xff,0xff,0x00,0x00,0x00,
 0x00,0x00,0x00,0x00,0x00,0x1c,0x00,0x07,0xe0,0x00,0x1c,0x80,0x03,0x00,0x00,
 0x07,0x00,0x00,0x00,0x00,0x00,0x00,0x00,0x00,0x00,0x00,0x00,0x00,0x00,0x00,
 0x00,0x00,0x00,0x00,0x00,0x00,0x00,0x1c,0x00,0x07,0xe0,0x00,0x1c,0x80,0x03,
 0x00,0x00,0x07,0x00,0x00,0x00,0x00,0x00,0x00,0x00,0x00,0x00,0x00,0x00,0x00,
 0x00,0x00,0x00,0x00,0x00,0x00,0x00,0x00,0x00,0x1c,0x00,0x07,0xe0,0x00,0x1c,
 0x80,0x03,0x00,0x00,0x07,0x00,0x00,0x00,0x00,0x00,0x00,0x00,0x00,0x00,0x00,
 0x00,0x00,0x00,0x00,0x00,0x00,0x00,0x00,0x00,0x00,0x00,0x1c,0x00,0x07,0xe0,
 0x00,0x1c,0x80,0x03,0x00,0x00,0x07,0x00,0x00,0x00,0x00,0x00,0x00,0x00,0x00,
 0x00,0x00,0x00,0x00,0x00,0x00,0x00,0x00,0x00,0x00,0x00,0x00,0x00,0xfc,0xff,
 0x07,0xe0,0xff,0x1f,0x80,0xff,0xff,0xff,0x07,0x00,0x00,0x00,0x00,0x00,0x00,
 0x00,0x00,0x00,0x00,0x00,0x00,0x00,0x00,0x00,0x00,0x00,0x00,0x00,0x00,0x00,
 0xfc,0xff,0x07,0xe0,0xff,0x1f,0x80,0xff,0xff,0xff,0x07,0x00,0x00,0x00,0x00,
 0x00,0x00,0x00,0x00,0x00,0x00,0x00,0x00,0x00,0x00,0x00,0x00,0x00,0x00,0x00,
 0x00,0x00,0xfc,0xff,0x07,0xe0,0xff,0x1f,0x80,0xff,0xff,0xff,0x07,0x00,0x00,
 0x00,0x00,0x00,0x00,0x00,0x00,0x00,0x00,0x00,0x00,0x00,0x00,0x00,0x00,0x00,
 0x00,0x00,0x00,0x00,0x00,0x00,0x00,0x00,0x00,0x00,0x00,0x00,0x00,0x00,0x00,
 0x00,0x00,0x00,0x00,0x00,0x00,0x00,0x00,0x00,0x00,0x00,0x00,0x00,0x00,0x00,
 0x00,0x00,0x00,0x00,0x00,0x00,0x00,0x00,0x00,0x00,0x00,0x00,0x00,0x00,0x00,
 0x00,0x00,0x00,0x00,0x00,0x00,0x00,0x00,0x00,0x00,0x00,0x00,0x00,0x00,0x00,
 0x00,0x00,0x00,0x00,0x00,0x00,0x00,0x00,0x00,0x00,0x00,0x00,0x00,0x00,0x00,
 0x00,0x00,0x00,0x00,0x00,0x00,0x00,0x00,0x00,0x00,0x00,0x00,0x00,0x00,0x00,
 0x00,0x00,0x00,0x00,0x00,0x00,0x00,0x00,0x00,0x00,0x00,0x00,0x00,0x00,0x00,
 0x00,0x00,0x00,0x00,0x00,0x00,0x00,0x00,0x00,0x00,0x00,0x00,0x00,0x00,0x00,
 0x00,0x00,0x00,0x00,0x00,0x00,0x00,0x00,0x00,0x00,0x00,0x00,0x00,0x00,0x00,
 0x00,0x00,0x00,0x00,0x00,0x00,0x00,0x00,0x00,0x00,0x00,0x00,0x00,0x00,0x00,
 0x00,0x00,0x00,0x00,0x00,0x00,0x00,0x00,0x00,0x00,0x00,0x00,0x00,0x00,0x00,
 0x00,0x00,0x00,0x00,0x00,0x00,0x00,0x00,0x00,0x00,0x00,0x00,0x00,0x00,0x00,
 0x00,0x00,0x00,0x00,0x00,0x00,0x00,0x00 };
