#define 9e7d096010dbb016d586258588eb82215ef879eb-o_width 256
#define 9e7d096010dbb016d586258588eb82215ef879eb-o_height 64
static char 9e7d096010dbb016d586258588eb82215ef879eb-o_bits[] = {
  0x00, 0x00, 0x00, 0x00, 0x00, 0x00, 0x00, 0x00, 0x00, 0x00, 0x00, 0x00, 
  0x00, 0x00, 0x00, 0x00, 0x00, 0x00, 0x00, 0x00, 0x00, 0x00, 0x00, 0x00, 
  0x00, 0x00, 0x00, 0x00, 0x00, 0x00, 0x00, 0x00, 0x00, 0x00, 0x00, 0x00, 
  0x00, 0x00, 0x00, 0x00, 0x00, 0x00, 0x00, 0x00, 0x00, 0x00, 0x00, 0x00, 
  0x00, 0x00, 0x00, 0x00, 0x00, 0x00, 0x00, 0x00, 0x00, 0x00, 0x00, 0x00, 
  0x00, 0x00, 0x00, 0x00, 0x00, 0x00, 0x00, 0x00, 0x00, 0x00, 0x00, 0x00, 
  0x00, 0x00, 0x00, 0x00, 0x00, 0x00, 0x00, 0x00, 0x00, 0x00, 0x00, 0x00, 
  0x00, 0x00, 0x00, 0x00, 0x00, 0x00, 0x00, 0x00, 0x00, 0x00, 0x00, 0x00, 
  0x00, 0x00, 0x00, 0x00, 0x00, 0x00, 0x00, 0x00, 0x00, 0x00, 0x00, 0x00, 
  0x00, 0x00, 0x00, 0x00, 0x00, 0x00, 0x00, 0x00, 0x00, 0x00, 0x00, 0x00, 
  0x00, 0x00, 0x00, 0x00, 0x00, 0x00, 0x00, 0x00, 0x00, 0x00, 0x00, 0x00, 
  0x00, 0x00, 0x00, 0x00, 0x00, 0x00, 0x00, 0x00, 0x00, 0x00, 0x00, 0x00, 
  0x00, 0x00, 0x00, 0x00, 0x00, 0x00, 0x00, 0x00, 0x00, 0x00, 0x00, 0x00, 
  0x00, 0x00, 0x00, 0x00, 0x00, 0x00, 0x00, 0x00, 0x00, 0x00, 0x00, 0x00, 
  0x00, 0x00, 0x00, 0x00, 0x00, 0x00, 0x00, 0x00, 0x00, 0x00, 0x00, 0x00, 
  0x00, 0x00, 0x00, 0x00, 0x00, 0x00, 0x00, 0x00, 0x00, 0x00, 0x00, 0x00, 
  0x00, 0x00, 0x00, 0x00, 0x00, 0x00, 0x00, 0x00, 0x00, 0x00, 0x00, 0x00, 
  0x00, 0x00, 0x00, 0x00, 0x00, 0x00, 0x00, 0x00, 0x00, 0x00, 0x00, 0x00, 
  0x00, 0x00, 0x00, 0x00, 0x00, 0x00, 0x00, 0x00, 0x00, 0x00, 0x00, 0x00, 
  0x00, 0x00, 0x00, 0x00, 0x00, 0x00, 0x00, 0x00, 0x00, 0x00, 0x00, 0x00, 
  0x00, 0x00, 0x00, 0x00, 0x00, 0x00, 0x00, 0x00, 0x00, 0x00, 0x00, 0x00, 
  0x00, 0x00, 0x00, 0x00, 0x00, 0x00, 0x00, 0x00, 0x00, 0x00, 0x00, 0x00, 
  0x00, 0x00, 0x00, 0x00, 0x00, 0x00, 0x00, 0x00, 0x00, 0x00, 0x00, 0x00, 
  0x00, 0x00, 0x00, 0x00, 0x00, 0x00, 0x00, 0x00, 0x00, 0x00, 0x00, 0x00, 
  0x00, 0x00, 0x00, 0x00, 0x00, 0x00, 0x00, 0x00, 0x00, 0x00, 0x00, 0x00, 
  0x00, 0x00, 0x00, 0x00, 0x00, 0x00, 0x00, 0x00, 0x00, 0x00, 0x00, 0x00, 
  0x00, 0x00, 0x00, 0x00, 0x00, 0x00, 0x00, 0x00, 0x00, 0x00, 0x00, 0x00, 
  0x00, 0x00, 0x00, 0x00, 0x00, 0x00, 0x00, 0x00, 0x00, 0x00, 0x00, 0x00, 
  0x00, 0x00, 0x00, 0x00, 0x00, 0x00, 0x00, 0x00, 0x00, 0x00, 0x00, 0x00, 
  0x00, 0x00, 0x00, 0x00, 0x00, 0x00, 0x00, 0x00, 0x00, 0x00, 0x00, 0x00, 
  0x00, 0x00, 0x00, 0x00, 0x00, 0x00, 0x00, 0x00, 0x00, 0x00, 0x00, 0x00, 
  0x00, 0x00, 0x00, 0x00, 0x00, 0x00, 0x00, 0x00, 0x00, 0x00, 0x00, 0x00, 
  0x00, 0x00, 0x00, 0x00, 0x00, 0x00, 0x00, 0x00, 0x00, 0x00, 0x00, 0x00, 
  0x00, 0x00, 0x00, 0x00, 0x00, 0x00, 0x00, 0x00, 0x00, 0x00, 0x00, 0x00, 
  0x00, 0x00, 0x00, 0x00, 0x00, 0x00, 0x00, 0x00, 0x00, 0x00, 0x00, 0x00, 
  0x00, 0x00, 0x00, 0x00, 0x00, 0x00, 0x00, 0x00, 0x00, 0x00, 0x00, 0x00, 
  0x00, 0x00, 0x00, 0x00, 0x00, 0x00, 0x00, 0x00, 0x00, 0x00, 0x00, 0x00, 
  0x00, 0x00, 0x00, 0x00, 0x00, 0x00, 0x00, 0x00, 0x00, 0x00, 0x00, 0x00, 
  0x00, 0x00, 0x00, 0x00, 0x00, 0x00, 0x00, 0x00, 0x00, 0x00, 0x00, 0x00, 
  0x00, 0x00, 0x00, 0x00, 0x00, 0x00, 0x00, 0x00, 0x00, 0x00, 0x00, 0x00, 
  0x00, 0x00, 0x00, 0x00, 0x00, 0x00, 0x00, 0x00, 0x00, 0x00, 0x00, 0x00, 
  0x00, 0x00, 0x00, 0x00, 0x00, 0x00, 0x00, 0x00, 0x00, 0x00, 0x00, 0x00, 
  0x00, 0x00, 0x00, 0x00, 0x00, 0x00, 0x00, 0x00, 0x00, 0x00, 0x00, 0x00, 
  0x00, 0x00, 0x00, 0x00, 0x00, 0x00, 0x00, 0x00, 0x00, 0x00, 0x00, 0x00, 
  0x00, 0x00, 0x00, 0x00, 0x00, 0x00, 0x00, 0x00, 0x00, 0x00, 0x00, 0x00, 
  0x00, 0x00, 0x00, 0x00, 0x00, 0x00, 0x00, 0x00, 0x00, 0x00, 0x00, 0x00, 
  0x00, 0x00, 0x00, 0x00, 0x00, 0x00, 0x00, 0x00, 0x00, 0x00, 0x00, 0x00, 
  0x00, 0x00, 0x00, 0x00, 0x00, 0x00, 0x00, 0x00, 0x00, 0x00, 0x00, 0x00, 
  0x00, 0x00, 0x00, 0x80, 0xFF, 0x3F, 0xF0, 0xFF, 0xC7, 0x0F, 0x00, 0xFC, 
  0xFF, 0xC3, 0xFF, 0xFF, 0xF9, 0x81, 0x1F, 0x00, 0x00, 0xFE, 0x80, 0x1F, 
  0xF8, 0xF1, 0xFF, 0x3F, 0x00, 0x00, 0x00, 0x00, 0x00, 0x00, 0x00, 0xE0, 
  0xFF, 0x7F, 0xF8, 0xFF, 0xC7, 0x0F, 0x00, 0xFC, 0xFF, 0xC3, 0xFF, 0xFF, 
  0xF9, 0x01, 0x3F, 0x00, 0x00, 0xFE, 0x01, 0x7F, 0xF8, 0xF1, 0xFF, 0x7F, 
  0x00, 0x00, 0x00, 0x00, 0x00, 0x00, 0x00, 0xF0, 0xFF, 0x7F, 0xF8, 0xFF, 
  0xC7, 0x07, 0x00, 0xFC, 0xFF, 0xC7, 0xFF, 0xFF, 0xF9, 0x03, 0x3F, 0x00, 
  0x00, 0xFE, 0x01, 0xFC, 0xF8, 0xF1, 0xFF, 0xFF, 0x00, 0x00, 0x00, 0x00, 
  0x00, 0x00, 0x00, 0xF8, 0xFF, 0x7F, 0xFC, 0xFF, 0xC7, 0x03, 0x00, 0xFE, 
  0xFF, 0xE7, 0xFF, 0xFF, 0xF8, 0x07, 0x3F, 0x00, 0x00, 0xFE, 0x01, 0xFC, 
  0xF9, 0xE3, 0xFF, 0xFF, 0x01, 0x00, 0x00, 0x00, 0x00, 0x00, 0x00, 0xFC, 
  0x83, 0x3F, 0x3E, 0xF0, 0xE3, 0x03, 0x00, 0xFE, 0xFF, 0xEF, 0x07, 0x00, 
  0xF8, 0x07, 0x3F, 0x00, 0x00, 0xFE, 0x03, 0xF8, 0xFB, 0xC3, 0x1F, 0x00, 
  0x00, 0x00, 0x00, 0x00, 0x00, 0x00, 0x00, 0xFE, 0x81, 0x3F, 0x1F, 0xF0, 
  0xF3, 0x03, 0x00, 0xFE, 0xF0, 0xEF, 0x07, 0x00, 0xF8, 0x0F, 0x3F, 0x00, 
  0x00, 0xFC, 0x07, 0xF0, 0xFF, 0xC3, 0x1F, 0x00, 0x00, 0x00, 0x00, 0x00, 
  0x00, 0x00, 0x00, 0xFE, 0x00, 0x00, 0x0F, 0xF0, 0xF1, 0x01, 0x00, 0x7F, 
  0xE0, 0xE7, 0x07, 0x00, 0xF8, 0x1F, 0x3E, 0x00, 0x00, 0xFC, 0x07, 0xE0, 
  0xFF, 0x83, 0x1F, 0x00, 0x00, 0x00, 0x00, 0x00, 0x00, 0x00, 0x00, 0x7F, 
  0x00, 0x80, 0x0F, 0xF0, 0xF9, 0x01, 0x00, 0x7F, 0xE0, 0xE7, 0x07, 0x00, 
  0xF8, 0x1F, 0x3E, 0x00, 0x00, 0xFC, 0x0F, 0x80, 0xFF, 0x03, 0x3F, 0x00, 
  0x00, 0x00, 0x00, 0x00, 0x00, 0x00, 0x00, 0x3F, 0x00, 0xC0, 0x0F, 0xF8, 
  0xF8, 0x00, 0x00, 0x7F, 0xE0, 0xE7, 0x07, 0x00, 0xF8, 0x1F, 0x3E, 0x00, 
  0x00, 0xFC, 0x1F, 0x00, 0xFF, 0x03, 0x7E, 0x00, 0x00, 0x00, 0x00, 0x00, 
  0x00, 0x00, 0xC0, 0x0F, 0xFF, 0xE7, 0x03, 0x7C, 0xFC, 0x00, 0x00, 0x3F, 
  0xF0, 0xE7, 0xFF, 0x3F, 0xF8, 0x7F, 0x7E, 0x00, 0x00, 0xFC, 0x3F, 0x00, 
  0xFC, 0x07, 0xFC, 0xFF, 0x3F, 0x00, 0x00, 0x00, 0x00, 0x00, 0xE0, 0x87, 
  0xFF, 0xF3, 0x03, 0x7E, 0x7E, 0x00, 0x80, 0x1F, 0xF0, 0xF7, 0xFF, 0x3F, 
  0xF8, 0xFF, 0x7E, 0x00, 0x00, 0xFC, 0x7F, 0x00, 0xF8, 0x07, 0xF8, 0xFF, 
  0x7F, 0x00, 0x00, 0x00, 0x00, 0x00, 0xF0, 0xC3, 0xFF, 0xF9, 0x01, 0x3E, 
  0x7E, 0x00, 0x80, 0x1F, 0xF8, 0xF7, 0xFF, 0x3F, 0xF8, 0xFD, 0x7F, 0x00, 
  0x00, 0xFC, 0xFF, 0x00, 0xF8, 0x07, 0xF0, 0xFF, 0x7F, 0x00, 0x00, 0x00, 
  0x00, 0x00, 0xF8, 0xE1, 0xFF, 0xF9, 0x00, 0x3F, 0x3F, 0x00, 0x80, 0x1F, 
  0xF8, 0xF7, 0xFF, 0x3F, 0xF8, 0xFD, 0x7F, 0x00, 0x00, 0xFC, 0xFF, 0x00, 
  0xF0, 0x0F, 0xF0, 0xFF, 0xFF, 0x00, 0x00, 0x00, 0x00, 0x00, 0xFC, 0xF1, 
  0xFF, 0xFC, 0x80, 0x1F, 0x3F, 0x00, 0xC0, 0x0F, 0xF8, 0xF7, 0xFF, 0x3F, 
  0xF8, 0xF9, 0xFF, 0x00, 0x00, 0xFC, 0xFD, 0x01, 0xF0, 0x0F, 0xE0, 0xFF, 
  0xFF, 0x00, 0x00, 0x00, 0x00, 0x00, 0xFE, 0x00, 0x7F, 0xFC, 0x80, 0x9F, 
  0x3F, 0x00, 0xC0, 0x0F, 0xF8, 0xF7, 0x07, 0x00, 0xF8, 0xF1, 0xFF, 0x00, 
  0x00, 0xF8, 0xFD, 0x03, 0xF0, 0x1F, 0xE0, 0x0F, 0x00, 0x00, 0x00, 0x00, 
  0x00, 0x00, 0x7F, 0x00, 0x3F, 0x7E, 0xC0, 0x9F, 0x3F, 0x00, 0xC0, 0x0F, 
  0xF8, 0xF3, 0x07, 0x00, 0xF8, 0xF1, 0xFF, 0x00, 0x00, 0xF8, 0xF9, 0x03, 
  0xF0, 0x3F, 0xC0, 0x1F, 0x00, 0x00, 0x00, 0x00, 0x00, 0x00, 0x7F, 0x80, 
  0x3F, 0x3F, 0xE0, 0xDF, 0x3F, 0x00, 0xE0, 0x07, 0xF8, 0xF3, 0x07, 0x00, 
  0xF8, 0xE1, 0xFF, 0x00, 0x00, 0xF8, 0xF1, 0x03, 0xF0, 0x7F, 0x80, 0x3F, 
  0x00, 0x00, 0x00, 0x00, 0x00, 0x80, 0x3F, 0xC0, 0x9F, 0x1F, 0xE0, 0xCF, 
  0x1F, 0x00, 0xE0, 0x07, 0xF8, 0xF3, 0x07, 0x00, 0xF0, 0xE1, 0xFF, 0x01, 
  0x00, 0xF8, 0xF1, 0x07, 0xF0, 0xFF, 0x81, 0x3F, 0x00, 0x00, 0x00, 0x00, 
  0x00, 0xE0, 0x0F, 0xE0, 0xC7, 0x0F, 0xF0, 0xE7, 0x0F, 0x00, 0xF0, 0x03, 
  0xFC, 0xFB, 0x07, 0x00, 0xF0, 0xC3, 0xFF, 0x01, 0x00, 0xF8, 0xFF, 0x0F, 
  0xF0, 0xFF, 0x07, 0x7E, 0x00, 0x00, 0x00, 0x00, 0x00, 0xF0, 0x07, 0xF0, 
  0xE7, 0x0F, 0xF0, 0xE3, 0x0F, 0x00, 0xF0, 0x03, 0xFC, 0xFB, 0x07, 0x00, 
  0xF0, 0xC3, 0xFF, 0x01, 0x00, 0xF8, 0xFF, 0x1F, 0xF0, 0xEF, 0x1F, 0xFC, 
  0x01, 0x00, 0x00, 0x00, 0x00, 0xF8, 0x0F, 0xF8, 0xE3, 0x1F, 0xFE, 0xE3, 
  0x07, 0x00, 0xF0, 0x03, 0xFE, 0xFB, 0x07, 0x00, 0xF0, 0x83, 0xFF, 0x03, 
  0x00, 0xF8, 0xFF, 0x3F, 0xE0, 0xCF, 0x1F, 0xFC, 0x01, 0x00, 0x00, 0x00, 
  0x00, 0xF8, 0xFF, 0xFF, 0xF3, 0xFF, 0xFF, 0xF1, 0xFF, 0xFF, 0xF1, 0xFF, 
  0xFF, 0xFB, 0xFF, 0xFF, 0xF3, 0x03, 0xFF, 0x03, 0x00, 0xF8, 0xFF, 0x3F, 
  0xE0, 0x8F, 0x3F, 0xF8, 0xFF, 0xFF, 0x01, 0x00, 0x00, 0xFC, 0xFF, 0xFF, 
  0xF9, 0xFF, 0xFF, 0xF9, 0xFF, 0xFF, 0xF9, 0xFF, 0xFF, 0xFB, 0xFF, 0xFF, 
  0xF3, 0x03, 0xFF, 0x03, 0x00, 0xF8, 0xFF, 0x7F, 0xE0, 0x0F, 0x7F, 0xF0, 
  0xFF, 0xFF, 0x03, 0x00, 0x00, 0xFE, 0xFF, 0xFF, 0xFC, 0xFF, 0xFF, 0xF8, 
  0xFF, 0xFF, 0xF9, 0xFF, 0xFF, 0xF9, 0xFF, 0xFF, 0xF3, 0x03, 0xFE, 0x03, 
  0x00, 0xF0, 0xFF, 0xFF, 0xE0, 0x0F, 0xFE, 0xF1, 0xFF, 0xFF, 0x07, 0x00, 
  0x00, 0xFF, 0xFF, 0xFF, 0xFC, 0xFF, 0xFF, 0xFC, 0xFF, 0xFF, 0xFC, 0xFF, 
  0xFF, 0xF9, 0xFF, 0xFF, 0xF3, 0x03, 0xFE, 0x07, 0x00, 0xF0, 0xFF, 0xFF, 
  0xE1, 0x0F, 0xFC, 0xE3, 0xFF, 0xFF, 0x0F, 0x00, 0x00, 0xFF, 0xFF, 0x3F, 
  0xFC, 0xFF, 0x7F, 0xFC, 0xFF, 0xFF, 0xFC, 0xFF, 0xFF, 0xFC, 0xFF, 0xFF, 
  0xF3, 0x03, 0xFC, 0x07, 0x00, 0xF0, 0x07, 0xFC, 0xE1, 0x1F, 0xF8, 0xC3, 
  0xFF, 0xFF, 0x1F, 0x00, 0x00, 0xFF, 0xFF, 0x1F, 0xFC, 0xFF, 0x3F, 0xFE, 
  0xFF, 0x7F, 0xFC, 0xFF, 0x7F, 0xFC, 0xFF, 0xFF, 0xF3, 0x03, 0xFC, 0x07, 
  0x00, 0xF0, 0x07, 0xFC, 0xE3, 0x1F, 0xF0, 0xCF, 0xFF, 0xFF, 0x3F, 0x00, 
  0x00, 0xFE, 0xFF, 0x01, 0xFC, 0xFF, 0x0F, 0xFF, 0xFF, 0x7F, 0xFE, 0xFF, 
  0x07, 0xFC, 0xFF, 0xFF, 0xF3, 0x01, 0xF0, 0x0F, 0x00, 0xF0, 0x07, 0xF0, 
  0xE7, 0x1F, 0xC0, 0xBF, 0xFF, 0xFF, 0xFF, 0x00, 0x00, 0x00, 0x00, 0x00, 
  0x00, 0x00, 0x00, 0x00, 0x00, 0x00, 0x00, 0x00, 0x00, 0x00, 0x00, 0x00, 
  0x00, 0x00, 0x00, 0x00, 0x00, 0x00, 0x00, 0x00, 0x00, 0x00, 0x00, 0x00, 
  0x00, 0x00, 0x00, 0x00, 0x00, 0x00, 0x00, 0x00, 0x00, 0x00, 0x00, 0x00, 
  0x00, 0x00, 0x00, 0x00, 0x00, 0x00, 0x00, 0x00, 0x00, 0x00, 0x00, 0x00, 
  0x00, 0x00, 0x00, 0x00, 0x00, 0x00, 0x00, 0x00, 0x00, 0x00, 0x00, 0x00, 
  0x00, 0x00, 0x00, 0x00, 0x00, 0x00, 0x00, 0x00, 0x00, 0x00, 0x00, 0x00, 
  0x00, 0x00, 0x00, 0x00, 0x00, 0x00, 0x00, 0x00, 0x00, 0x00, 0x00, 0x00, 
  0x00, 0x00, 0x00, 0x00, 0x00, 0x00, 0x00, 0x00, 0x00, 0x00, 0x00, 0x00, 
  0x00, 0x00, 0x00, 0x00, 0x00, 0x00, 0x00, 0x00, 0x00, 0x00, 0x00, 0x00, 
  0x00, 0x00, 0x00, 0x00, 0x00, 0x00, 0x00, 0x00, 0x00, 0x00, 0x00, 0x00, 
  0x00, 0x00, 0x00, 0x00, 0x00, 0x00, 0x00, 0x00, 0x00, 0x00, 0x00, 0x00, 
  0x00, 0x00, 0x00, 0x00, 0x00, 0x00, 0x00, 0x00, 0x00, 0x00, 0x00, 0x00, 
  0x00, 0x00, 0x00, 0x00, 0x00, 0x00, 0x00, 0x00, 0x00, 0x00, 0x00, 0x00, 
  0x00, 0x00, 0x00, 0x00, 0x00, 0x00, 0x00, 0x00, 0x00, 0x00, 0x00, 0x00, 
  0x00, 0x00, 0x00, 0x00, 0x00, 0x00, 0x00, 0x00, 0x00, 0x00, 0x00, 0x00, 
  0x00, 0x00, 0x00, 0x00, 0x00, 0x00, 0x00, 0x00, 0x00, 0x00, 0x00, 0x00, 
  0x00, 0x00, 0x00, 0x00, 0x00, 0x00, 0x00, 0x00, 0x00, 0x00, 0x00, 0x00, 
  0x00, 0x00, 0x00, 0x00, 0x00, 0x00, 0x00, 0x00, 0x00, 0x00, 0x00, 0x00, 
  0x00, 0x00, 0x00, 0x00, 0x00, 0x00, 0x00, 0x00, 0x00, 0x00, 0x00, 0x00, 
  0x00, 0x00, 0x00, 0x00, 0x00, 0x00, 0x00, 0x00, 0x00, 0x00, 0x00, 0x00, 
  0x00, 0x00, 0x00, 0x00, 0x00, 0x00, 0x00, 0x00, 0x00, 0x00, 0x00, 0x00, 
  0x00, 0x00, 0x00, 0x00, 0x00, 0x00, 0x00, 0x00, 0x00, 0x00, 0x00, 0x00, 
  0x00, 0x00, 0x00, 0x00, 0x00, 0x00, 0x00, 0x00, 0x00, 0x00, 0x00, 0x00, 
  0x00, 0x00, 0x00, 0x00, 0x00, 0x00, 0x00, 0x00, 0x00, 0x00, 0x00, 0x00, 
  0x00, 0x00, 0x00, 0x00, 0x00, 0x00, 0x00, 0x00, 0x00, 0x00, 0x00, 0x00, 
  0x00, 0x00, 0x00, 0x00, 0x00, 0x00, 0x00, 0x00, 0x00, 0x00, 0x00, 0x00, 
  0x00, 0x00, 0x00, 0x00, 0x00, 0x00, 0x00, 0x00, 0x00, 0x00, 0x00, 0x00, 
  0x00, 0x00, 0x00, 0x00, 0x00, 0x00, 0x00, 0x00, 0x00, 0x00, 0x00, 0x00, 
  0x00, 0x00, 0x00, 0x00, 0x00, 0x00, 0x00, 0x00, 0x00, 0x00, 0x00, 0x00, 
  0x00, 0x00, 0x00, 0x00, 0x00, 0x00, 0x00, 0x00, 0x00, 0x00, 0x00, 0x00, 
  0x00, 0x00, 0x00, 0x00, 0x00, 0x00, 0x00, 0x00, 0x00, 0x00, 0x00, 0x00, 
  0x00, 0x00, 0x00, 0x00, 0x00, 0x00, 0x00, 0x00, 0x00, 0x00, 0x00, 0x00, 
  0x00, 0x00, 0x00, 0x00, 0x00, 0x00, 0x00, 0x00, 0x00, 0x00, 0x00, 0x00, 
  0x00, 0x00, 0x00, 0x00, 0x00, 0x00, 0x00, 0x00, 0x00, 0x00, 0x00, 0x00, 
  0x00, 0x00, 0x00, 0x00, 0x00, 0x00, 0x00, 0x00, 0x00, 0x00, 0x00, 0x00, 
  0x00, 0x00, 0x00, 0x00, 0x00, 0x00, 0x00, 0x00, 0x00, 0x00, 0x00, 0x00, 
  0x00, 0x00, 0x00, 0x00, 0x00, 0x00, 0x00, 0x00, 0x00, 0x00, 0x00, 0x00, 
  0x00, 0x00, 0x00, 0x00, 0x00, 0x00, 0x00, 0x00, 0x00, 0x00, 0x00, 0x00, 
  0x00, 0x00, 0x00, 0x00, 0x00, 0x00, 0x00, 0x00, 0x00, 0x00, 0x00, 0x00, 
  0x00, 0x00, 0x00, 0x00, 0x00, 0x00, 0x00, 0x00, 0x00, 0x00, 0x00, 0x00, 
  0x00, 0x00, 0x00, 0x00, 0x00, 0x00, 0x00, 0x00, 0x00, 0x00, 0x00, 0x00, 
  0x00, 0x00, 0x00, 0x00, 0x00, 0x00, 0x00, 0x00, 0x00, 0x00, 0x00, 0x00, 
  0x00, 0x00, 0x00, 0x00, 0x00, 0x00, 0x00, 0x00, 0x00, 0x00, 0x00, 0x00, 
  0x00, 0x00, 0x00, 0x00, 0x00, 0x00, 0x00, 0x00, 0x00, 0x00, 0x00, 0x00, 
  0x00, 0x00, 0x00, 0x00, 0x00, 0x00, 0x00, 0x00, 0x00, 0x00, 0x00, 0x00, 
  0x00, 0x00, 0x00, 0x00, 0x00, 0x00, 0x00, 0x00, 0x00, 0x00, 0x00, 0x00, 
  0x00, 0x00, 0x00, 0x00, 0x00, 0x00, 0x00, 0x00, 0x00, 0x00, 0x00, 0x00, 
  0x00, 0x00, 0x00, 0x00, 0x00, 0x00, 0x00, 0x00, };
