#define _width 256
#define _height 64
static unsigned char Jaguar_bits[] = {
 0x00,0x00,0x00,0x00,0x00,0x00,0x00,0x00,0x00,0x00,0x00,0x00,
 0x00,0x00,0x00,0x00,0x00,0x00,0x00,0x00,0x00,0x00,0x00,0x00,
 0x00,0x00,0x00,0x00,0x00,0x00,0x00,0x00,0x00,0x00,0x00,0x00,
 0x00,0x00,0x00,0x00,0x00,0x00,0x00,0x00,0x00,0x00,0x00,0x00,
 0x00,0x00,0x00,0x00,0x00,0x00,0x00,0x00,0x00,0x00,0x00,0x00,
 0x00,0x00,0x00,0x00,0x00,0x00,0x00,0x00,0x00,0x00,0x00,0x00,
 0x00,0x00,0x00,0x00,0x00,0x00,0x00,0x00,0x00,0x00,0x00,0x00,
 0x00,0x00,0x00,0x00,0x00,0x00,0x00,0x00,0x00,0x00,0x00,0x00,
 0x00,0x00,0x00,0x00,0x00,0x00,0x00,0x00,0x00,0x00,0x00,0x00,
 0x00,0x00,0x00,0x00,0x00,0x00,0x00,0x00,0x00,0x00,0x00,0x00,
 0x00,0x00,0x00,0x00,0x00,0x00,0x00,0x00,0x00,0x0e,0x00,0x00,
 0x00,0x00,0x00,0x00,0x00,0x00,0x00,0x00,0x00,0x00,0x00,0x00,
 0x00,0x00,0x00,0x00,0x00,0x00,0x00,0x00,0x00,0x00,0x00,0x00,
 0x00,0x00,0x00,0x00,0x00,0x1f,0x00,0x00,0x00,0x00,0x00,0x00,
 0x00,0x00,0xf0,0x03,0x00,0x00,0x00,0x00,0x00,0x00,0x00,0x00,
 0x00,0x00,0x00,0x00,0x00,0x00,0x00,0x00,0x00,0x00,0x00,0x00,
 0x00,0x71,0x00,0x00,0x00,0x00,0x00,0x00,0x00,0x00,0x1f,0x00,
 0x00,0x00,0x00,0x00,0x00,0x00,0x00,0x00,0x00,0x00,0x00,0x00,
 0x00,0x00,0x00,0x00,0x00,0x00,0x00,0x00,0xc0,0x71,0x00,0x00,
 0x00,0x00,0x00,0x00,0x00,0xf8,0x0f,0x00,0x00,0x00,0x00,0x00,
 0x00,0x00,0x00,0x00,0x00,0x00,0x00,0x00,0x00,0x00,0x00,0x00,
 0x00,0x00,0x00,0x00,0xc0,0x71,0x00,0x00,0x00,0x00,0x00,0x00,
 0xe0,0xff,0x1f,0x00,0x00,0x00,0x00,0x00,0x00,0x00,0x00,0x00,
 0x00,0x00,0x00,0x00,0x00,0x00,0x00,0x00,0x00,0x00,0x00,0x00,
 0xc0,0x7f,0x00,0x00,0x00,0x00,0x00,0x80,0xff,0xff,0x0f,0x00,
 0x00,0x00,0x00,0x38,0x00,0x00,0x00,0x00,0x00,0x80,0x01,0x00,
 0x00,0x00,0x00,0x00,0x00,0x00,0x00,0x00,0xc0,0x7f,0x00,0x00,
 0x00,0x00,0xe0,0xff,0xff,0xff,0x03,0x04,0x00,0x00,0x00,0x3c,
 0x00,0x00,0x80,0x00,0x00,0xf8,0x3f,0x00,0x00,0x00,0x00,0x00,
 0x00,0x00,0x00,0x00,0xc0,0x71,0x00,0x00,0x00,0x00,0xe0,0xff,
 0xff,0x3f,0xc0,0x07,0x00,0x1f,0x00,0x7e,0x00,0x00,0x80,0x0f,
 0x80,0xff,0xff,0x00,0x00,0x00,0x00,0x00,0x00,0x00,0x00,0x00,
 0x00,0x00,0x00,0x00,0x00,0x00,0xf0,0xff,0xff,0x1f,0xf8,0x0f,
 0xc0,0x3f,0x00,0x7e,0xe0,0x01,0xc0,0x0f,0xf0,0xff,0xff,0x01,
 0x00,0x00,0x00,0x00,0x00,0x00,0x00,0x00,0x00,0x00,0x00,0x00,
 0x00,0x00,0xe0,0xff,0xff,0x0f,0xf8,0x0f,0xf0,0x7f,0x00,0x3f,
 0xf0,0x03,0xe0,0x0f,0xfc,0xff,0xff,0x03,0x00,0x00,0x00,0x00,
 0x00,0x00,0x00,0x00,0x00,0x00,0x00,0x00,0x00,0x00,0xe0,0xff,
 0xff,0x03,0xfc,0x0f,0xf8,0x7f,0x00,0x3f,0xf0,0x03,0xf0,0x0f,
 0xff,0xff,0xff,0x07,0x00,0x00,0x00,0x00,0x00,0x00,0x00,0x00,
 0x00,0x00,0x00,0x00,0x00,0x00,0xe0,0xff,0xfc,0x01,0xfc,0x0f,
 0xf8,0x7f,0x80,0x1f,0xf8,0x03,0xf8,0x8f,0xff,0xff,0xff,0x07,
 0x00,0x00,0x00,0x00,0x00,0x00,0x00,0x00,0xc0,0x7f,0x00,0x00,
 0x00,0x00,0x40,0x00,0xf8,0x01,0xfe,0x0f,0xfc,0x1f,0x80,0x1f,
 0xfc,0x03,0xfc,0xc7,0xff,0xff,0xff,0x07,0x00,0x00,0x00,0x00,
 0x00,0x00,0x00,0x00,0x00,0x0e,0x00,0x00,0x00,0x00,0x00,0x00,
 0xfc,0x01,0xfe,0x0f,0xfe,0x03,0xc0,0x0f,0xfc,0x03,0xfe,0xe7,
 0xff,0x1f,0xfe,0x07,0x00,0x00,0x00,0x00,0x00,0x00,0x00,0x00,
 0x00,0x0e,0x00,0x00,0x00,0x00,0x00,0x00,0xfc,0x00,0xff,0x0f,
 0xff,0x00,0xc0,0x0f,0xfc,0x01,0xef,0xe7,0xff,0x07,0xf8,0x07,
 0x00,0x00,0x00,0x00,0x00,0x00,0x00,0x00,0x00,0x0e,0x00,0x00,
 0x00,0x00,0x00,0x00,0xfc,0x00,0xef,0x8f,0x7f,0x00,0xe0,0x07,
 0xfe,0x00,0xe7,0xe7,0xff,0x03,0xf8,0x07,0x00,0x00,0x00,0x00,
 0x00,0x00,0x00,0x00,0x00,0x0e,0x00,0x00,0x00,0x00,0x00,0x00,
 0xfc,0x80,0xe7,0x87,0x3f,0x00,0xe0,0x07,0xfe,0x80,0xe3,0xc7,
 0xf7,0x01,0xf0,0x07,0x00,0x00,0x00,0x00,0x00,0x00,0x00,0x00,
 0x00,0x0e,0x00,0x00,0x00,0x00,0x00,0x00,0xfe,0x80,0xe3,0xc7,
 0x1f,0x00,0xe0,0x03,0x7e,0xc0,0xe3,0x07,0xf0,0x01,0xf8,0x07,
 0x00,0x00,0x00,0x00,0x00,0x00,0x00,0x00,0x00,0x0e,0x00,0x00,
 0x00,0x00,0x00,0x00,0x7e,0xc0,0xe3,0xc7,0x0f,0x00,0xf0,0x03,
 0x7f,0xe0,0xf1,0x07,0xf8,0x00,0xfc,0x03,0x00,0x00,0x00,0x00,
 0x00,0x00,0x00,0x00,0x00,0x0e,0x00,0x00,0x00,0x00,0x00,0x00,
 0x7e,0xe0,0xe1,0xe7,0x07,0x00,0xf0,0x03,0x3f,0xe0,0xfd,0x07,
 0xf8,0x00,0xfc,0x01,0x00,0x00,0x00,0x00,0x00,0x00,0x00,0x00,
 0x00,0x00,0x00,0x00,0x00,0x00,0x00,0x00,0x7f,0xe0,0xe1,0xe7,
 0x03,0xe0,0xf3,0x01,0x3f,0xf0,0xff,0x07,0x78,0x10,0xfe,0x00,
 0x00,0x00,0x00,0x00,0x00,0x00,0x00,0x00,0x00,0x00,0x00,0x00,
 0x00,0x00,0x00,0x00,0x3f,0xf0,0xf8,0xe7,0x03,0xf8,0xf9,0x81,
 0x3f,0xf8,0xff,0x07,0x7c,0x30,0x7f,0x00,0x00,0x00,0x00,0x00,
 0x00,0x00,0x00,0x00,0x00,0x00,0x00,0x00,0x00,0x00,0x00,0x00,
 0x3f,0xf0,0xff,0xe7,0x01,0xff,0xf9,0x80,0x1f,0xf8,0xff,0x03,
 0x7c,0xe0,0x3f,0x00,0x00,0x00,0x00,0x00,0x00,0x00,0x00,0x00,
 0x00,0x00,0x00,0x00,0x00,0x00,0x00,0x80,0x3f,0xf8,0xff,0xe7,
 0x81,0xff,0xfd,0x80,0x1f,0xfc,0xe3,0x03,0x3c,0xf8,0x1f,0x00,
 0x00,0x00,0x00,0x00,0x00,0x00,0x00,0x00,0x00,0x0e,0x00,0x00,
 0x00,0x00,0x00,0x80,0x3f,0xfc,0xe7,0xe7,0x81,0xf1,0x7d,0xc0,
 0x0f,0xfe,0xe0,0x03,0x3e,0xfc,0x0f,0x00,0x00,0x00,0x00,0x00,
 0x00,0x00,0x00,0x00,0x00,0x1f,0x00,0x00,0x00,0x00,0x00,0x80,
 0x1f,0xff,0xe1,0xe7,0x41,0xf0,0x7d,0xc0,0x8f,0x3f,0xe0,0x03,
 0x3e,0xff,0x0f,0x00,0x00,0x00,0x00,0x00,0x00,0x00,0x00,0x00,
 0x00,0x71,0x00,0x00,0x00,0x00,0x00,0xc0,0x1f,0x3f,0xe0,0xe7,
 0x01,0xf0,0x3e,0xe0,0xcf,0x1f,0xc0,0x03,0x1e,0xff,0x1e,0x00,
 0x00,0x00,0x00,0x00,0x00,0x00,0x00,0x00,0xc0,0x71,0x00,0x00,
 0x00,0x00,0x00,0xc0,0x0f,0x1e,0xc0,0xe7,0x01,0xf8,0x3e,0xf0,
 0xc7,0x0f,0xe0,0x03,0x1f,0xd8,0x39,0x00,0x00,0x00,0x00,0x00,
 0x00,0x00,0x00,0x00,0xc0,0x71,0x00,0x00,0x00,0x00,0x00,0xe0,
 0x0f,0x1e,0xc0,0xe7,0x03,0xf8,0x1e,0xf8,0xe7,0x07,0xe0,0x03,
 0x9f,0xf8,0x33,0x00,0x00,0x00,0x00,0x00,0x00,0x00,0x00,0x00,
 0xc0,0x7f,0x00,0x00,0x00,0x00,0x00,0xe0,0x0f,0x0f,0xc0,0xe7,
 0x03,0xf8,0x1e,0xfc,0x83,0x07,0xe0,0x03,0x1f,0x7f,0x67,0x00,
 0x00,0x00,0x00,0x00,0x00,0x00,0x00,0x00,0xc0,0x7f,0x00,0x00,
 0x00,0x00,0x00,0xe0,0x07,0x0f,0xc0,0xc7,0x07,0xf8,0x1e,0xfe,
 0xc3,0x03,0xe0,0x03,0x1f,0xfe,0xcf,0x00,0x00,0x00,0x00,0x00,
 0x00,0x00,0x00,0x00,0xc0,0x71,0x00,0x00,0x00,0x00,0x00,0xf0,
 0x87,0x07,0xc0,0xc7,0x0f,0x78,0x9e,0xff,0xe3,0x03,0xe0,0x83,
 0x0f,0xf8,0x9f,0x01,0x00,0x00,0x00,0x00,0x00,0x00,0x00,0x00,
 0x00,0x00,0x00,0x00,0x00,0x00,0x00,0xf0,0xc3,0x07,0xc0,0x87,
 0x3f,0xf8,0xfe,0xf3,0xe3,0x01,0xc0,0xc3,0x0f,0xb0,0x73,0x0f,
 0x00,0x00,0x00,0x00,0x00,0x00,0x00,0x00,0x00,0x00,0x00,0x00,
 0x00,0x00,0x00,0xf8,0xc3,0x03,0xc0,0x87,0x7f,0xfc,0xfe,0xf1,
 0xf7,0x01,0xc0,0xc3,0x0f,0x60,0xe6,0x1f,0x00,0x00,0x00,0x00,
 0x00,0x00,0x00,0x00,0x00,0x00,0x00,0x00,0x00,0x00,0x00,0xfc,
 0xe1,0x03,0xc0,0x07,0xff,0xef,0xfc,0xf0,0xff,0x00,0xc0,0xc3,
 0x0f,0x40,0xcc,0x3f,0x00,0x00,0x00,0x00,0x00,0x00,0x00,0x00,
 0x00,0x00,0x00,0x00,0x00,0x00,0x00,0xfc,0xe1,0x03,0xc0,0x07,
 0xfc,0xcf,0x38,0xf0,0xff,0x00,0xc0,0xc3,0x07,0x80,0x98,0x7b,
 0x00,0x00,0x00,0x00,0x00,0x00,0x00,0x00,0xc0,0x1f,0x00,0x00,
 0x00,0x00,0x00,0xfe,0xf0,0x01,0x80,0x07,0xf0,0x07,0x00,0xe0,
 0x7f,0x00,0x80,0xc3,0x07,0x00,0x33,0xe7,0x00,0x00,0x00,0x00,
 0x00,0x00,0x00,0x00,0xc0,0x71,0x00,0x00,0x00,0x00,0x00,0x7f,
 0xf0,0x01,0x00,0x01,0x00,0x00,0x00,0x00,0x7f,0x00,0x80,0xe3,
 0x07,0x00,0xe6,0xce,0x01,0x00,0x00,0x00,0x00,0x00,0x00,0x00,
 0xc0,0x71,0x00,0x00,0x00,0x04,0x80,0x3f,0xf8,0x00,0x00,0x00,
 0x00,0x00,0x00,0x00,0x1f,0x00,0x80,0xe1,0x03,0x00,0x86,0x9d,
 0x03,0x00,0x00,0x00,0x00,0x00,0x00,0x00,0xc0,0x71,0x00,0x00,
 0x00,0x0c,0xc0,0x3f,0xf8,0x00,0x00,0x00,0x00,0x00,0x00,0x80,
 0x0f,0x00,0x00,0xf1,0x02,0x00,0x0c,0x3b,0x06,0x00,0x00,0x00,
 0x00,0x00,0x00,0x00,0xc0,0x1f,0x00,0x00,0x00,0x38,0xe0,0x1f,
 0x7c,0x00,0x00,0x00,0x00,0x00,0x00,0x80,0x0f,0x00,0x00,0xf1,
 0x03,0x00,0x18,0x76,0x0c,0x00,0x00,0x00,0x00,0x00,0x00,0x00,
 0xc0,0x1d,0x00,0x00,0x00,0xf0,0xf9,0x0f,0x5c,0x00,0x00,0x00,
 0x00,0x00,0x00,0xc0,0x07,0x00,0x00,0xf1,0x02,0x00,0x70,0xfc,
 0x18,0x00,0x00,0x00,0x00,0x00,0x00,0x00,0xc0,0x1d,0x00,0x00,
 0x00,0xe0,0xff,0x07,0x1c,0x00,0x00,0x00,0x00,0x00,0x00,0xc0,
 0x07,0x00,0x00,0x70,0x00,0x00,0xc0,0xb8,0x31,0x00,0x00,0x00,
 0x00,0x00,0x00,0x00,0xc0,0x71,0x00,0x00,0x00,0x00,0xff,0x03,
 0x00,0x00,0x00,0x00,0x00,0x00,0x00,0xe0,0x01,0x00,0x00,0x10,
 0x00,0x00,0x80,0x71,0x62,0x00,0x00,0x00,0x00,0x00,0x00,0x00,
 0x00,0x00,0x00,0x00,0x00,0x00,0xf0,0x00,0x00,0x00,0x00,0x00,
 0x00,0x00,0x00,0x00,0x00,0x00,0x00,0x10,0x00,0x00,0x00,0xe2,
 0xcc,0x00,0x00,0x00,0x00,0x00,0x00,0x00,0x00,0x00,0x00,0x00,
 0x00,0x00,0x00,0x00,0x00,0x00,0x00,0x00,0x00,0x00,0x00,0x00,
 0x00,0x00,0x00,0x10,0x00,0x00,0x00,0x84,0x11,0x01,0x00,0x00,
 0x00,0x00,0x00,0x00,0x00,0x00,0x00,0x00,0x00,0x00,0x00,0x00,
 0x00,0x00,0x00,0x00,0x00,0x00,0x00,0x00,0x00,0x00,0x00,0x00,
 0x00,0x00,0x00,0x08,0x02,0x00,0x00,0x00,0x00,0x00,0x00,0x00,
 0x00,0x00,0x00,0x00,0x00,0x00,0x00,0x00,0x00,0x00,0x00,0x00,
 0x00,0x00,0x00,0x00,0x00,0x00,0x00,0x00,0x00,0x00,0x00,0x00,
 0x04,0x08,0x00,0x00,0x00,0x00,0x00,0x00,0xc0,0x7f,0x00,0x00,
 0x00,0x00,0x00,0x00,0x00,0x00,0x00,0x00,0x00,0x00,0x00,0x00,
 0x00,0x00,0x00,0x00,0x00,0x00,0x00,0x40,0x00,0x30,0x00,0x00,
 0x00,0x00,0x00,0x00,0x00,0x0e,0x00,0x00,0x00,0x00,0x00,0x00,
 0x00,0x00,0x00,0x00,0x00,0x00,0x00,0x00,0x00,0x00,0x00,0x00,
 0x00,0x00,0x00,0x80,0x00,0x40,0x00,0x00,0x00,0x00,0x00,0x00,
 0x00,0x0e,0x00,0x00,0x00,0x00,0x00,0x00,0x00,0x00,0x00,0x00,
 0x00,0x00,0x00,0x00,0x00,0x00,0x00,0x00,0x00,0x00,0x00,0x00,
 0x00,0x80,0x01,0x00,0x00,0x00,0x00,0x00,0x00,0x0e,0x00,0x00,
 0x00,0x00,0x00,0x00,0x00,0x00,0x00,0x00,0x00,0x00,0x00,0x00,
 0x00,0x00,0x00,0x00,0x00,0x00,0x00,0x00,0x04,0x00,0x02,0x00,
 0x00,0x00,0x00,0x00,0x00,0x0e,0x00,0x00,0x00,0x00,0x00,0x00,
 0x00,0x00,0x00,0x00,0x00,0x00,0x00,0x00,0x00,0x00,0x00,0x00,
 0x00,0x00,0x00,0x00,0x00,0x02,0x0c,0x00,0x00,0x00,0x00,0x00,
 0x00,0x0e,0x00,0x00,0x00,0x00,0x00,0x00,0x00,0x00,0x00,0x00,
 0x00,0x00,0x00,0x00,0x00,0x00,0x00,0x00,0x00,0x00,0x00,0x00,
 0x00,0x0c,0x00,0x00,0x00,0x00,0x00,0x00,0x00,0x0e,0x00,0x00,
 0x00,0x00,0x00,0x00,0x00,0x00,0x00,0x00,0x00,0x00,0x00,0x00,
 0x00,0x00,0x00,0x00,0x00,0x00,0x00,0x00,0x00,0x18,0x00,0x00,
 0x00,0x00,0x00,0x00,0xc0,0x7f,0x00,0x00,0x00,0x00,0x00,0x00,
 0x00,0x00,0x00,0x00,0x00,0x00,0x00,0x00,0x00,0x00,0x00,0x00,
 0x00,0x00,0x00,0x00,0x00,0x00,0x00,0x00,0x00,0x00,0x00,0x00,
 0x00,0x00,0x00,0x00,0x00,0x00,0x00,0x00,0x00,0x00,0x00,0x00,
 0x00,0x00,0x00,0x00,0x00,0x00,0x00,0x00,0x00,0x00,0x00,0x00,
 0x00,0x00,0x00,0x00,0x00,0x00,0x00,0x00,0x00,0x00,0x00,0x00,
 0x00,0x00,0x00,0x00,0x00,0x00,0x00,0x00,0x00,0x00,0x00,0x00,
 0x00,0x00,0x00,0x00,0x00,0x00,0x00,0x00,0x00,0x00,0x00,0x00,
 0x00,0x00,0x00,0x00,0x00,0x00,0x00,0x00,0x00,0x00,0x00,0x00,
 0x00,0x00,0x00,0x00,0x00,0x00,0x00,0x00,0x00,0x00,0x00,0x00,
 0x00,0x00,0x00,0x00,0x00,0x00,0x00,0x00,0x00,0x00,0x00,0x00,
 0x00,0x00,0x00,0x00,0x00,0x00,0x00,0x00,0x00,0x00,0x00,0x00,
 0x00,0x00,0x00,0x00,0x00,0x00,0x00,0x00,0x00,0x00,0x00,0x00,
 0x00,0x00,0x00,0x00,0x00,0x00,0x00,0x00 };
