#define _width 256
#define _height 64
static char _bits[] = {
 0x00,0x00,0x00,0x00,0x00,0x00,0x00,0x00,0x00,0x00,0x00,0x00,0x00,0x00,0x00,
 0x00,0x00,0x00,0x00,0x00,0x00,0x00,0x00,0x00,0x00,0x00,0x00,0x00,0x00,0x00,
 0x00,0x00,0x00,0x00,0x00,0x00,0x00,0x00,0x00,0x00,0x00,0x00,0x00,0x00,0x00,
 0x00,0x00,0x00,0x00,0x00,0x00,0x00,0x00,0x00,0x00,0x00,0x00,0x00,0x00,0x00,
 0x00,0x00,0x00,0x00,0x00,0x00,0x00,0x00,0x00,0x00,0x00,0x00,0x00,0x00,0x00,
 0x00,0x00,0x00,0x00,0x00,0x00,0x00,0x00,0x00,0x00,0x00,0x00,0x00,0x00,0x00,
 0x00,0x00,0x00,0x00,0x00,0x00,0x00,0x00,0x00,0x00,0x00,0x00,0x00,0x00,0x00,
 0x00,0x00,0x00,0x80,0x07,0x00,0x00,0x00,0x00,0x00,0x00,0x00,0x00,0x00,0x00,
 0x00,0x00,0x00,0x00,0x00,0x00,0x00,0x00,0x00,0x00,0x00,0x00,0x00,0xf8,0x1f,
 0x00,0x00,0x00,0x00,0x00,0x80,0x07,0x00,0x00,0x00,0x00,0x00,0x00,0x00,0xe0,
 0xff,0x00,0x00,0x00,0x00,0x00,0x00,0x00,0x00,0x00,0x00,0x00,0x00,0x00,0x00,
 0xfe,0x1f,0x00,0x00,0x00,0x00,0x00,0x80,0x07,0x00,0x00,0x00,0x00,0x00,0x00,
 0x00,0xf8,0xff,0x03,0x00,0x00,0x00,0x00,0x00,0x00,0x00,0x00,0x00,0x00,0x00,
 0x00,0x80,0xff,0x0f,0x00,0x00,0x00,0x00,0x00,0x80,0x07,0x00,0x00,0x00,0x00,
 0x00,0x00,0x00,0xfe,0xc0,0x0f,0x00,0x00,0x00,0x00,0x00,0x00,0x00,0x00,0x00,
 0x00,0x00,0x00,0xc0,0x07,0x00,0x00,0x00,0x00,0x00,0x00,0x80,0x07,0x00,0x00,
 0x00,0x00,0x00,0x00,0x00,0x1f,0x00,0x1e,0x00,0x00,0x00,0x00,0x00,0x00,0x00,
 0x00,0x00,0x00,0x00,0x00,0xe0,0x01,0x00,0x00,0x00,0x00,0x00,0x00,0x80,0x07,
 0x00,0x00,0x00,0x00,0x00,0x00,0x00,0x0f,0x00,0x1c,0x00,0x00,0x00,0x00,0x00,
 0x00,0x00,0x00,0x00,0x00,0x00,0x00,0xf0,0x00,0x00,0x00,0x00,0x00,0x00,0x00,
 0x80,0x07,0x00,0x00,0x00,0x00,0x00,0x00,0x80,0x07,0x00,0x38,0x00,0x00,0x00,
 0x00,0x00,0x00,0x00,0x00,0x00,0x00,0x00,0x00,0x78,0x00,0x00,0x00,0x00,0x00,
 0x00,0x00,0x80,0x07,0x00,0x00,0x00,0x00,0x00,0x00,0x80,0x03,0x00,0x70,0x00,
 0x00,0x00,0x00,0x00,0x00,0x00,0x00,0x00,0x00,0x00,0x00,0x78,0x00,0x00,0x00,
 0x00,0x00,0x00,0x00,0x80,0x07,0x00,0x00,0x00,0x00,0x00,0x00,0xc0,0x01,0x00,
 0x70,0x00,0x00,0x00,0x00,0x00,0x00,0x00,0x00,0x00,0x00,0x00,0x00,0x3c,0x00,
 0x00,0x00,0x00,0x00,0x00,0x00,0x80,0x07,0x00,0x00,0x00,0x00,0x00,0x00,0xc0,
 0x01,0x00,0x60,0x00,0x00,0x00,0x00,0x00,0x00,0x00,0x00,0x00,0x00,0x00,0x00,
 0x1c,0x00,0x00,0x00,0x00,0x00,0x00,0x00,0x80,0x07,0x00,0x00,0x00,0x00,0x00,
 0x00,0xe0,0x00,0x00,0xe0,0x00,0x00,0x00,0x00,0x00,0x00,0x00,0x00,0x00,0x00,
 0x00,0x00,0x1e,0x00,0x00,0x00,0x00,0x00,0x00,0x00,0x80,0x07,0x00,0x00,0x00,
 0x00,0x00,0x00,0xe0,0x00,0x00,0xe0,0x00,0x00,0x00,0x00,0x00,0x00,0x00,0x00,
 0x00,0x00,0x00,0x00,0x0e,0x00,0x00,0x00,0x00,0x00,0x00,0x00,0x80,0x07,0x00,
 0x00,0x00,0x00,0x00,0x00,0xe0,0x00,0x00,0xe0,0x00,0x00,0x00,0x00,0x00,0x00,
 0x00,0x00,0x00,0x00,0x00,0x00,0x0f,0x00,0x00,0x00,0x00,0x00,0x00,0x00,0x80,
 0x07,0x00,0x00,0x00,0x00,0x00,0x00,0xe0,0x00,0x00,0xe0,0x00,0x00,0x00,0x00,
 0x00,0x00,0x00,0x00,0x00,0x00,0x00,0x00,0x07,0x00,0x00,0x00,0x00,0x00,0x00,
 0x00,0x80,0x07,0x00,0x00,0x00,0x00,0x00,0x00,0xe0,0x00,0x00,0xe0,0x00,0x00,
 0x00,0x00,0x00,0x00,0x00,0x00,0x00,0x00,0x00,0x80,0x07,0x00,0x00,0x00,0x00,
 0x00,0x00,0x00,0x80,0x07,0x00,0x00,0x00,0x00,0x00,0x00,0xe0,0x00,0x00,0x60,
 0x00,0x00,0x00,0x00,0x00,0x00,0x00,0x00,0x00,0x00,0x00,0x80,0x03,0x00,0x00,
 0x00,0x00,0x00,0x00,0x00,0x80,0x07,0x00,0x00,0x00,0x00,0x00,0x00,0xe0,0x00,
 0x00,0x70,0x00,0x00,0x00,0x00,0x00,0x00,0x00,0x00,0x00,0x00,0x00,0xc0,0x03,
 0x00,0x00,0x00,0x00,0x00,0x00,0x00,0x80,0x07,0x00,0x00,0x00,0x00,0x00,0x00,
 0xe0,0x00,0x00,0x38,0x00,0x00,0x00,0x00,0x00,0x00,0x00,0x00,0x00,0x00,0x00,
 0xe0,0x01,0x00,0x00,0x00,0x00,0x00,0x00,0x00,0x80,0x07,0x00,0x00,0x00,0x00,
 0x00,0x00,0xe0,0x00,0x00,0x3c,0x00,0x00,0x00,0x00,0x00,0x00,0x00,0x00,0x00,
 0x00,0x00,0xe0,0x01,0x00,0x00,0x00,0x00,0x00,0x00,0x00,0x80,0x07,0x00,0x00,
 0x00,0x00,0x00,0x00,0xe0,0x00,0x00,0x1e,0x00,0x00,0x00,0x00,0x00,0x00,0x00,
 0x00,0x00,0x00,0x00,0xf0,0x00,0x00,0x00,0x00,0x00,0x00,0x00,0xfc,0x80,0x07,
 0x00,0x00,0x00,0x00,0x00,0x00,0xe0,0x00,0x80,0x1f,0x00,0x00,0x00,0x00,0x00,
 0x00,0x00,0x00,0x00,0x00,0x00,0xf0,0x00,0x00,0x00,0xfc,0x0f,0x00,0x80,0xff,
 0x83,0x1b,0x00,0x00,0x60,0x00,0x00,0x00,0xe0,0xf0,0xff,0x0f,0x00,0x00,0x00,
 0x00,0x00,0xf0,0x1f,0x00,0x00,0x00,0x00,0x78,0x00,0x00,0x00,0xff,0x3f,0x00,
 0xe0,0xff,0x87,0x3f,0x00,0x00,0x70,0x00,0x00,0x00,0xe0,0xf8,0xff,0x1f,0xc0,
 0x01,0x00,0x80,0x07,0xf8,0xff,0x00,0x00,0x00,0x00,0x78,0x00,0x00,0xc0,0xff,
 0xff,0x00,0xf8,0xff,0x9f,0x3f,0x00,0x00,0x70,0x00,0x00,0x00,0xe0,0xf0,0xff,
 0xff,0xc0,0x01,0x00,0x80,0x07,0xff,0xfc,0x03,0x00,0x00,0x00,0x38,0x00,0x00,
 0xe0,0x07,0xf8,0x03,0xfc,0x00,0xbf,0x3f,0x00,0x00,0x70,0x00,0x00,0x00,0xe0,
 0x00,0x00,0xf0,0xc1,0x01,0x00,0x80,0x87,0x0f,0xc0,0x07,0x00,0x00,0x00,0x3c,
 0x00,0x00,0xf0,0x01,0xe0,0x03,0x3e,0x00,0xfc,0x3f,0x00,0x00,0x70,0x00,0x00,
 0x00,0xe0,0x00,0x00,0xe0,0xc3,0x01,0x00,0x80,0xc7,0x07,0x00,0x0f,0x00,0x00,
 0x00,0x1c,0x00,0x00,0x78,0x00,0x80,0x07,0x1f,0x00,0xf0,0x3f,0x00,0x00,0x70,
 0x00,0x00,0x00,0xe0,0x00,0x00,0xc0,0xc7,0x01,0x00,0x80,0xe7,0x01,0x00,0x1e,
 0x00,0x00,0x00,0x0e,0x00,0x00,0x38,0x00,0x00,0x07,0x0f,0x00,0xe0,0x3f,0x00,
 0x00,0x70,0x00,0x00,0x00,0xe0,0x00,0x00,0x80,0xc7,0x01,0x00,0x80,0xe7,0x01,
 0x00,0x3c,0x00,0x00,0x00,0x0e,0x00,0x00,0x3c,0x00,0x00,0x8f,0x07,0x00,0xe0,
 0x3f,0x00,0x00,0x70,0x00,0x00,0x00,0xe0,0x00,0x00,0x00,0xcf,0x01,0x00,0x80,
 0x77,0x00,0x00,0x3c,0x00,0x00,0x00,0x07,0x00,0x00,0x1e,0x00,0x00,0xde,0x03,
 0x00,0xc0,0x3f,0x00,0x00,0x70,0x00,0x00,0x00,0xe0,0x00,0x00,0x00,0xce,0x01,
 0x00,0x80,0x77,0x00,0x00,0x78,0x00,0x00,0x80,0x07,0x00,0x00,0x1e,0x00,0x00,
 0xdc,0x01,0x00,0xc0,0x3f,0x00,0x00,0x70,0x00,0x00,0x00,0xe0,0x00,0x00,0x00,
 0xdc,0x01,0x00,0x80,0x3f,0x00,0x00,0x70,0x00,0x00,0x80,0x07,0x00,0x00,0x0e,
 0x00,0x00,0xdc,0x01,0x00,0x80,0x3f,0x00,0x00,0x70,0x00,0x00,0x00,0xe0,0x00,
 0x00,0x00,0xdc,0x01,0x00,0x80,0x3f,0x00,0x00,0xf0,0x00,0x00,0xc0,0x03,0x00,
 0x00,0x0f,0x00,0x00,0xfc,0x01,0x00,0x80,0x3f,0x00,0x00,0x70,0x00,0x00,0x00,
 0xe0,0x00,0x00,0x00,0xdc,0x01,0x00,0x80,0x3f,0x00,0x00,0xf0,0x00,0x00,0xc0,
 0x03,0x00,0x00,0x0f,0x00,0x00,0xfc,0x01,0x00,0x80,0x3f,0x00,0x00,0x70,0x00,
 0x00,0x00,0xe0,0x00,0x00,0x00,0xfc,0x01,0x00,0x80,0x1f,0x00,0x00,0xe0,0x00,
 0x00,0xe0,0x01,0x00,0x00,0x0f,0x00,0x00,0xfc,0x01,0x00,0x80,0x3f,0x00,0x00,
 0x70,0x00,0x00,0x00,0xe0,0x00,0x00,0x00,0xfc,0x01,0x00,0x80,0x1f,0x00,0x00,
 0xe0,0x00,0x00,0xe0,0x00,0x00,0x00,0x0f,0x00,0x00,0xfc,0x01,0x00,0x80,0x3f,
 0x00,0x00,0x70,0x00,0x00,0x00,0xe0,0x00,0x00,0x00,0xf8,0x01,0x00,0x80,0x1f,
 0x00,0x00,0xe0,0x00,0x00,0xf0,0x00,0x00,0x00,0x0f,0x00,0x00,0xfc,0x01,0x00,
 0x80,0x3f,0x00,0x00,0x70,0x00,0x00,0x00,0xe0,0x00,0x00,0x00,0xfc,0x01,0x00,
 0x80,0x1f,0x00,0x00,0xe0,0x00,0x00,0x70,0x00,0x00,0x00,0x0f,0x00,0x00,0xfc,
 0x01,0x00,0x80,0x3f,0x00,0x00,0x70,0x00,0x00,0x00,0xe0,0x00,0x00,0x00,0xfc,
 0x01,0x00,0x80,0x3f,0x00,0x00,0xe0,0x00,0x00,0x70,0x00,0x00,0x00,0x0e,0x00,
 0x00,0xfc,0x01,0x00,0x80,0x3f,0x00,0x00,0x70,0x00,0x00,0x00,0xe0,0x00,0x00,
 0x00,0xdc,0x01,0x00,0x80,0x3b,0x00,0x00,0xf0,0x00,0x00,0x38,0x00,0x00,0x00,
 0x1e,0x00,0x00,0xfc,0x03,0x00,0xc0,0x7f,0x00,0x00,0x78,0x00,0x00,0x00,0xe0,
 0x00,0x00,0x00,0xdc,0x01,0x00,0x80,0x3b,0x00,0x00,0xf0,0x00,0x00,0x3c,0x00,
 0x00,0x00,0x1e,0x00,0x00,0xbe,0x03,0x00,0xc0,0x7f,0x00,0x00,0x78,0x00,0x00,
 0x00,0xe0,0x00,0x00,0x00,0xce,0x03,0x00,0xc0,0x73,0x00,0x00,0xf0,0x00,0x00,
 0x1c,0x00,0x00,0x00,0x3c,0x00,0x00,0xbe,0x07,0x00,0xe0,0xf7,0x00,0x00,0x7c,
 0x00,0x00,0x00,0xe0,0x00,0x00,0x00,0x8e,0x03,0x00,0xc0,0x71,0x00,0x00,0xf8,
 0x00,0x00,0x0e,0x00,0x00,0x00,0x78,0x00,0x80,0x3f,0x0f,0x00,0xf0,0xf7,0x01,
 0x00,0x7e,0x00,0x00,0x00,0xe0,0x70,0x00,0x80,0x87,0x07,0x00,0xe0,0xe1,0x00,
 0x00,0xfc,0x00,0x80,0x0f,0x00,0x00,0x00,0xf8,0x00,0xc0,0x3f,0x1e,0x00,0xf0,
 0xe7,0x03,0x00,0x7f,0x00,0x00,0x00,0xe0,0x70,0x00,0x80,0x07,0x0f,0x00,0xf0,
 0xe0,0x01,0x00,0xfe,0x00,0xc0,0x07,0x00,0x00,0x00,0xf0,0x01,0xe0,0x3f,0x3e,
 0x00,0xfc,0xc7,0x07,0x80,0x7f,0x00,0x00,0x00,0xe0,0xf0,0x00,0xe0,0x03,0x1e,
 0x00,0x78,0xc0,0x03,0x00,0xff,0x00,0xe0,0x07,0x00,0x00,0x00,0xe0,0x07,0xf8,
 0x3d,0xfc,0x00,0xbf,0x87,0x1f,0xe0,0x77,0x00,0x00,0x00,0xe0,0xe0,0x03,0xf0,
 0x01,0x7c,0x00,0x3e,0x80,0x0f,0x80,0xff,0xff,0xff,0x03,0x00,0x00,0x00,0xc0,
 0xff,0xff,0x3c,0xf8,0xff,0x9f,0x07,0xff,0xff,0x73,0x00,0x00,0x00,0xf0,0xc0,
 0x3f,0xff,0x00,0xfc,0x81,0x3f,0x00,0x1f,0xf0,0xf7,0xff,0xff,0xff,0xff,0xff,
 0xff,0xff,0xff,0x7f,0x3c,0xf0,0xff,0x8f,0x07,0xfe,0xff,0xf0,0xff,0xff,0xff,
 0x7f,0x80,0xff,0x7f,0x00,0xf8,0xff,0x1f,0x00,0xfe,0xff,0xf1,0xff,0xff,0xff,
 0xff,0xff,0xff,0xff,0xff,0x0f,0x3c,0x80,0xff,0x81,0x07,0xf0,0x3f,0xf8,0xff,
 0xff,0xff,0x3f,0x00,0xfc,0x1f,0x00,0xc0,0xff,0x03,0x00,0xf0,0x7f,0x70,0x00,
 0x00,0x00,0x00,0x00,0x00,0x00,0x00,0x00,0x18,0x00,0x3c,0x00,0x00,0x00,0x00,
 0xf8,0xff,0xff,0xff,0x0f,0x00,0x00,0x00,0x00,0x00,0x7e,0x00,0x00,0x80,0x07,
 0x78,0x00,0x00,0x00,0x00,0x00,0x00,0x00,0x00,0x00,0x00,0x00,0x00,0x00,0x00,
 0x00,0x00,0x38,0x00,0x00,0x00,0x00,0x00,0x00,0x00,0x00,0x00,0x00,0x00,0x70,
 0x00,0x00,0x78,0x00,0x00,0x00,0x00,0x00,0x00,0x00,0x00,0x00,0x00,0x00,0x00,
 0x00,0xf0,0x00,0x00,0x3c,0x00,0x00,0x00,0x00,0x00,0x00,0x00,0x00,0x00,0x00,
 0x00,0xf0,0x00,0x00,0x3c,0x00,0x00,0x00,0x00,0x00,0x00,0x00,0x00,0x00,0x00,
 0x00,0x00,0x00,0xe0,0x01,0x00,0x1e,0x00,0x00,0x00,0x00,0x00,0x00,0x00,0x00,
 0x00,0x00,0x00,0xe0,0x01,0x00,0x3e,0x00,0x00,0x00,0x00,0x00,0x00,0x00,0x00,
 0x00,0x00,0x00,0x00,0x00,0xe0,0x03,0x00,0x0f,0x00,0x00,0x00,0x00,0x00,0x00,
 0x00,0x00,0x00,0x00,0x00,0xe0,0x03,0x00,0x1e,0x00,0x00,0x00,0x00,0x00,0x00,
 0x00,0x00,0x00,0x00,0x00,0x00,0x00,0xc0,0x07,0x80,0x0f,0x00,0x00,0x00,0x00,
 0x00,0x00,0x00,0x00,0x00,0x00,0x00,0xc0,0x07,0x00,0x0f,0x00,0x00,0x00,0x00,
 0x00,0x00,0x00,0x00,0x00,0x00,0x00,0x00,0x00,0x00,0x3f,0xf0,0x03,0x00,0x00,
 0x00,0x00,0x00,0x00,0x00,0x00,0x00,0x00,0x00,0x80,0x3f,0xf0,0x07,0x00,0x00,
 0x00,0x00,0x00,0x00,0x00,0x00,0x00,0x00,0x00,0x00,0x00,0x00,0xfe,0xff,0x01,
 0x00,0x00,0x00,0x00,0x00,0x00,0x00,0x00,0x00,0x00,0x00,0x00,0xfe,0xff,0x01,
 0x00,0x00,0x00,0x00,0x00,0x00,0x00,0x00,0x00,0x00,0x00,0x00,0x00,0x00,0xf8,
 0xff,0x00,0x00,0x00,0x00,0x00,0x00,0x00,0x00,0x00,0x00,0x00,0x00,0x00,0xfc,
 0xff,0x01,0x00,0x00,0x00,0x00,0x00,0x00,0x00,0x00,0x00,0x00,0x00,0x00,0x00,
 0x00,0xe0,0x1f,0x00,0x00,0x00,0x00,0x00,0x00,0x00,0x00,0x00,0x00,0x00,0x00,
 0x00,0xf0,0x3f,0x00,0x00,0x00,0x00,0x00,0x00,0x00,0x00,0x00,0x00,0x00,0x00,
 0x00,0x00,0x00,0x00,0x00,0x00,0x00,0x00,0x00,0x00,0x00,0x00,0x00,0x00,0x00,
 0x00,0x00,0x00,0x00,0x07,0x00,0x00,0x00,0x00,0x00,0x00,0x00,0x00,0x00,0x00,
 0x00,0x00,0x00,0x00,0x00,0x00,0x00,0x00,0x00,0x00,0x00,0x00,0x00,0x00,0x00,
 0x00,0x00,0x00,0x00,0x00,0x00,0x00,0x00 };
