#define _width 256
#define _height 64
static char _bits[] = {
 0x00,0x00,0x00,0x00,0x00,0x00,0x00,0x00,0x00,0x00,0x00,0x00,0x00,0x00,0x00,
 0x00,0x00,0x00,0x00,0x00,0x00,0x00,0x00,0x00,0x00,0x00,0x00,0x00,0x00,0x00,
 0x00,0x00,0x00,0x00,0x00,0x00,0x00,0x00,0x00,0x00,0x00,0x00,0x00,0x00,0x00,
 0x00,0x00,0x00,0x00,0x00,0x00,0x00,0x00,0x00,0x00,0x00,0x00,0x00,0x00,0x00,
 0x00,0x00,0x00,0x00,0x00,0x00,0x00,0x00,0x00,0x00,0x00,0x00,0x00,0x00,0x00,
 0x00,0x00,0x00,0x00,0x00,0x00,0x00,0x00,0x00,0x00,0x00,0x00,0x00,0x00,0x00,
 0x00,0x00,0x00,0x00,0x00,0x00,0x00,0x00,0x00,0x00,0x00,0x00,0x00,0x00,0x00,
 0x00,0x00,0x00,0x00,0x00,0x00,0x00,0x00,0x00,0x00,0x00,0x00,0x00,0x00,0x00,
 0x00,0x00,0x00,0x00,0x00,0x00,0x00,0x00,0x00,0x00,0x00,0x00,0x00,0x00,0x00,
 0x00,0x00,0x00,0x00,0x00,0x00,0x00,0x00,0x00,0x00,0x00,0x00,0x00,0x00,0x00,
 0x00,0x00,0x00,0x00,0x00,0x00,0x00,0x00,0x00,0x00,0x00,0x00,0x00,0x00,0x00,
 0x00,0x00,0x00,0x00,0x00,0x00,0x00,0x00,0x00,0x00,0x00,0x00,0x00,0x00,0x00,
 0x00,0x00,0x00,0x00,0x00,0x00,0x00,0x00,0x00,0x00,0x00,0x00,0x00,0x00,0x00,
 0x00,0x00,0x00,0x00,0x00,0x00,0x00,0x00,0x00,0x00,0x00,0x00,0x00,0x00,0x00,
 0x00,0x00,0x00,0x00,0x00,0x00,0x00,0x00,0x00,0x00,0x00,0x00,0x00,0x00,0x00,
 0x00,0x00,0x00,0x00,0x00,0x00,0x00,0x00,0x00,0x00,0x00,0x00,0x00,0x00,0x00,
 0x00,0x00,0x00,0x00,0x00,0x00,0x00,0x00,0x00,0x00,0x00,0x00,0x00,0x00,0x00,
 0x00,0x00,0x00,0x00,0x00,0x00,0x00,0x00,0x00,0x00,0x00,0x00,0x00,0x00,0x00,
 0x00,0x00,0x00,0x00,0x00,0x00,0x00,0x00,0x00,0x00,0x00,0x00,0x00,0x00,0x00,
 0x00,0x00,0x00,0x00,0x00,0x00,0x00,0x00,0x00,0x00,0x00,0x00,0x00,0x00,0x00,
 0x00,0x00,0x00,0x00,0x00,0x00,0x00,0x00,0x00,0x00,0x00,0x00,0x00,0x00,0x00,
 0x00,0x00,0x00,0x00,0x00,0x00,0x00,0x00,0x00,0x00,0x00,0x00,0x00,0x00,0x00,
 0x00,0x00,0x00,0x00,0x00,0x00,0x00,0x00,0x00,0x00,0x00,0x00,0x00,0x00,0x00,
 0x00,0x00,0x00,0x00,0x00,0x00,0x00,0x00,0x00,0x00,0x00,0x00,0x00,0x00,0x00,
 0x00,0x00,0x00,0x00,0x00,0x00,0x00,0x00,0x00,0x00,0x00,0x00,0x00,0x00,0x00,
 0x00,0x00,0x00,0x00,0x00,0x00,0x00,0x00,0x00,0x00,0x00,0x00,0x00,0x00,0x00,
 0x00,0x00,0x00,0x00,0x00,0x00,0x00,0x00,0x00,0x00,0x00,0x00,0x00,0x00,0x00,
 0x00,0x00,0x00,0x00,0x00,0x00,0x00,0x00,0x00,0x00,0x00,0x00,0x00,0x00,0x00,
 0x00,0x00,0x00,0x00,0x00,0x00,0x00,0x00,0x00,0x00,0x00,0x00,0x00,0x00,0x00,
 0x00,0x00,0x00,0x00,0x00,0x00,0x00,0x00,0x00,0x00,0x00,0x00,0x00,0x00,0x00,
 0x00,0x00,0x00,0x00,0x00,0x00,0x00,0x00,0x00,0x00,0x00,0x00,0x00,0x00,0x00,
 0x00,0x00,0x00,0x00,0x00,0x00,0x00,0x00,0x00,0x00,0x00,0x00,0x00,0x00,0x00,
 0xf0,0xff,0x0f,0x00,0x00,0x00,0x00,0xc0,0xff,0x07,0x00,0x00,0x00,0xfc,0xff,
 0xff,0x0f,0x00,0x00,0x00,0x00,0x00,0x00,0x00,0x00,0x00,0x00,0x00,0x00,0x00,
 0x00,0x00,0xf0,0xff,0x0f,0x00,0x00,0x00,0x00,0xe0,0xff,0x0f,0x00,0x00,0x00,
 0xfe,0xff,0xff,0x1f,0x00,0x00,0x00,0x00,0x00,0x00,0x00,0x00,0x00,0x00,0x00,
 0x00,0x00,0x00,0x00,0x30,0x00,0x0c,0x00,0x00,0x00,0x00,0x60,0x00,0x0c,0x00,
 0x00,0x00,0x06,0x00,0x00,0x38,0x00,0x00,0x00,0x00,0x00,0x00,0x00,0x00,0x00,
 0x00,0x00,0x00,0x00,0x00,0x00,0x30,0x00,0x0c,0x00,0x00,0x00,0x00,0x60,0x00,
 0x0c,0x00,0x00,0x00,0x06,0x00,0x00,0x70,0x00,0x00,0x00,0x00,0x00,0x00,0x00,
 0x00,0x00,0x00,0x00,0x00,0x00,0x00,0x00,0x70,0x00,0x0c,0x00,0x00,0x00,0x00,
 0xe0,0x00,0x0c,0x00,0x00,0x00,0x0e,0x00,0x00,0x60,0x00,0x00,0x00,0x00,0x00,
 0x00,0x00,0x00,0x00,0x00,0x00,0x00,0x00,0x00,0x00,0x60,0x00,0x0c,0x00,0x00,
 0x00,0x00,0xc0,0x00,0x0c,0x00,0x00,0x00,0x0c,0x00,0x00,0x60,0x00,0x00,0x00,
 0x00,0x00,0x00,0x00,0x00,0x00,0x00,0x00,0x00,0x00,0x00,0x00,0x60,0x00,0x0c,
 0xe0,0xff,0x7f,0xc0,0xff,0x00,0x8c,0xff,0xff,0x00,0x0c,0x00,0x00,0xe0,0xff,
 0xff,0xff,0xff,0xff,0xff,0xff,0xff,0xff,0x87,0xff,0xff,0xf1,0xff,0xff,0x70,
 0x00,0x0e,0xf0,0xff,0xff,0xe0,0x7f,0x00,0xce,0xff,0xff,0x01,0x0c,0x00,0x00,
 0xe0,0xff,0xff,0xff,0xff,0xff,0xff,0xff,0xff,0xff,0xcf,0xff,0xff,0xff,0xff,
 0xff,0x30,0x00,0x06,0x38,0x00,0xc0,0x79,0x00,0x00,0x76,0x00,0x80,0x03,0x0e,
 0x80,0x01,0x60,0x00,0x08,0x00,0x03,0x30,0x00,0x06,0x80,0x01,0xfc,0x00,0x00,
 0x0e,0x80,0x80,0x30,0x00,0x06,0x1c,0x00,0x80,0x1f,0x00,0x00,0x1e,0x00,0x00,
 0x03,0x06,0x80,0x03,0x60,0x00,0x08,0x00,0x03,0x00,0x00,0x06,0x00,0x00,0x78,
 0x00,0x00,0x1c,0x00,0xc0,0x30,0x00,0x06,0x0e,0x00,0x00,0x0f,0x00,0x00,0x0e,
 0x00,0x00,0x03,0x06,0xc0,0x02,0xe0,0x00,0x18,0x00,0x07,0x00,0x00,0x0e,0x00,
 0x00,0x38,0x00,0x00,0x18,0x00,0xc0,0x30,0x00,0x07,0x07,0x00,0x00,0x0f,0x00,
 0x00,0x0f,0x00,0x00,0x03,0x06,0xc0,0x03,0xf0,0x00,0x18,0x00,0x07,0x00,0x00,
 0x0e,0x00,0x00,0x18,0x00,0x00,0x18,0x00,0xc0,0x38,0x00,0x03,0x07,0x00,0x00,
 0x07,0x00,0x00,0x07,0x00,0x00,0x03,0x07,0xc0,0x01,0xf0,0x00,0x1c,0x80,0x07,
 0x00,0x00,0x0e,0x00,0x00,0x18,0x00,0x00,0x18,0x00,0xc0,0x18,0x00,0x03,0x03,
 0x00,0x00,0x07,0x00,0x00,0x07,0x60,0x00,0x03,0x03,0x00,0x00,0x78,0x00,0x0c,
 0x80,0x03,0x00,0x00,0x0e,0x00,0x00,0x18,0x80,0x01,0x18,0x00,0xc0,0x18,0x00,
 0x03,0x03,0x30,0x00,0x03,0x30,0x00,0x03,0x60,0x00,0x03,0x03,0x00,0x00,0x7c,
 0x00,0x0c,0x80,0x03,0x00,0x00,0x06,0x00,0x00,0x0c,0x80,0x01,0x08,0x00,0xff,
 0x1c,0x80,0x83,0x03,0x30,0x80,0x03,0x18,0x80,0x03,0x60,0x00,0x03,0x03,0x00,
 0x00,0x7e,0x00,0x0c,0x80,0x02,0x10,0x00,0x06,0xc0,0x00,0x0c,0x80,0x01,0x0c,
 0xc0,0xff,0x0c,0x80,0x81,0x01,0x38,0x80,0x01,0x1c,0x80,0x01,0x00,0x80,0x83,
 0x03,0x00,0x00,0x37,0x00,0x06,0xc0,0x01,0x18,0x00,0x07,0xe0,0x00,0x06,0x00,
 0x00,0x0c,0xe0,0x01,0x0c,0x80,0xc1,0x01,0x18,0x80,0x01,0x1c,0x80,0x01,0x00,
 0xc0,0x81,0x01,0x00,0x80,0x33,0x00,0x06,0xc0,0x01,0x18,0x00,0x07,0x60,0x00,
 0x06,0x00,0x00,0x06,0x60,0x00,0x0c,0x80,0xc1,0x00,0x1c,0x80,0x01,0x1c,0x80,
 0x01,0x00,0xe0,0x80,0x01,0x00,0xc0,0x30,0x00,0x06,0xc0,0x01,0x1c,0x00,0x03,
 0x60,0x00,0x02,0x00,0x00,0x07,0x60,0x00,0x0e,0x80,0xc1,0x00,0x1c,0xc0,0x01,
 0x1c,0x80,0x01,0xf8,0x7f,0x80,0x01,0x00,0xc0,0x38,0x00,0x07,0xe0,0x01,0x0c,
 0x80,0x03,0x60,0x00,0x02,0xf0,0xff,0x05,0x70,0x00,0x06,0xc0,0xc1,0x00,0x1c,
 0xc0,0x00,0x0e,0xc0,0x01,0x18,0x70,0xc0,0x01,0x00,0x80,0x19,0x00,0x07,0xe0,
 0x00,0x0c,0x80,0x03,0x70,0x00,0x02,0x30,0xc0,0x07,0x30,0x00,0x06,0xc0,0xe0,
 0x00,0x0c,0xc0,0x00,0x0e,0xc0,0x00,0x18,0xf8,0xc0,0x00,0x00,0x00,0x1b,0x00,
 0x03,0xa0,0x00,0x0c,0x80,0x03,0x30,0x00,0x03,0xf0,0x7f,0x07,0x30,0x00,0x06,
 0xc0,0x7f,0x00,0x0c,0xc0,0x00,0x0e,0xc0,0x00,0xf0,0xcf,0xc0,0x00,0x30,0x00,
 0x1e,0x00,0x03,0xe0,0x00,0x0c,0x80,0x01,0x30,0x00,0x03,0xe0,0x7f,0x03,0x30,
 0x00,0x07,0xc0,0x5f,0x00,0x0c,0xc0,0x00,0x06,0xc0,0x00,0x00,0xe0,0xc0,0x00,
 0x30,0x00,0x1e,0x00,0x01,0xf0,0x00,0x0e,0xc0,0x01,0x30,0x00,0x01,0x00,0x00,
 0x03,0x30,0x00,0x03,0x00,0x40,0x00,0x00,0xe0,0x00,0x00,0xc0,0x00,0x00,0x60,
 0xe0,0x00,0x38,0x00,0x0c,0x00,0x00,0x70,0x00,0x06,0xc0,0x01,0x30,0x00,0x01,
 0x00,0x00,0x03,0x38,0x00,0x03,0x00,0x40,0x00,0x00,0xe0,0x00,0x00,0xe0,0x00,
 0x00,0x60,0x60,0x00,0x7c,0x00,0x0c,0x00,0x00,0x70,0x00,0x06,0xc0,0x01,0x38,
 0x80,0x01,0x00,0x80,0x03,0x18,0x00,0x03,0x00,0x60,0x00,0x00,0xe0,0x00,0x00,
 0xe0,0x00,0x00,0x70,0x60,0x00,0x6c,0x00,0x0c,0x00,0x00,0x70,0x00,0x06,0xc0,
 0x00,0x18,0x80,0x01,0x00,0x80,0x01,0x18,0x00,0x03,0x00,0x60,0x00,0x00,0xf0,
 0x00,0x00,0xe0,0x00,0x00,0x38,0x60,0x00,0xec,0x00,0x0c,0x00,0x00,0x78,0x00,
 0x03,0xe0,0x00,0x18,0x80,0x01,0x00,0xc0,0x01,0x18,0x00,0x03,0x00,0xf0,0x00,
 0x00,0xf8,0x00,0x00,0xe0,0x00,0x00,0x18,0x60,0x00,0xdc,0x00,0x0c,0x00,0x00,
 0x30,0x00,0x02,0xe0,0x00,0x18,0x80,0x03,0x00,0xe0,0x01,0x38,0x00,0x03,0x00,
 0xf0,0x00,0x00,0xdc,0x01,0x02,0xc0,0x01,0x00,0x1c,0x60,0x00,0xd8,0x01,0x1c,
 0x00,0x00,0x20,0x00,0x02,0xc0,0x00,0x10,0x00,0x03,0x00,0xf0,0x01,0x30,0x00,
 0x03,0x00,0xd8,0x01,0x00,0x8f,0x03,0x07,0xc0,0x03,0x00,0x0e,0x60,0x00,0x98,
 0x03,0x3e,0x80,0x01,0x60,0x00,0x06,0x80,0x00,0x10,0x00,0x0f,0x00,0xbc,0x01,
 0x30,0x00,0xff,0xff,0x9f,0xff,0xff,0x07,0xff,0xfd,0xff,0xff,0xff,0x07,0xe0,
 0xff,0x1f,0xff,0xf7,0xff,0xff,0xff,0xff,0xff,0xff,0xff,0xff,0xff,0xff,0xff,
 0x9f,0xff,0x3f,0x00,0xff,0xff,0x0f,0xff,0xff,0x01,0xfe,0xf8,0xff,0xfe,0xff,
 0x03,0xe0,0xff,0x1f,0xfe,0xe3,0xff,0xff,0xff,0xff,0xff,0xff,0xff,0xff,0xff,
 0xf9,0xff,0x87,0xff,0x3f,0x00,0x00,0x00,0x00,0x00,0x00,0x00,0x00,0x00,0x00,
 0x00,0x00,0x00,0x00,0x00,0x00,0x00,0x00,0x00,0x00,0x00,0x00,0x00,0x00,0x00,
 0x00,0x00,0x00,0x00,0x00,0x00,0x00,0x00,0x00,0x00,0x00,0x00,0x00,0x00,0x00,
 0x00,0x00,0x00,0x00,0x00,0x00,0x00,0x00,0x00,0x00,0x00,0x00,0x00,0x00,0x00,
 0x00,0x00,0x00,0x00,0x00,0x00,0x00,0x00,0x00,0x00,0x00,0x00,0x00,0x00,0x00,
 0x00,0x00,0x00,0x00,0x00,0x00,0x00,0x00,0x00,0x00,0x00,0x00,0x00,0x00,0x00,
 0x00,0x00,0x00,0x00,0x00,0x00,0x00,0x00,0x00,0x00,0x00,0x00,0x00,0x00,0x00,
 0x00,0x00,0x00,0x00,0x00,0x00,0x00,0x00,0x00,0x00,0x00,0x00,0x00,0x00,0x00,
 0x00,0x00,0x00,0x00,0x00,0x00,0x00,0x00,0x00,0x00,0x00,0x00,0x00,0x00,0x00,
 0x00,0x00,0x00,0x00,0x00,0x00,0x00,0x00,0x00,0x00,0x00,0x00,0x00,0x00,0x00,
 0x00,0x00,0x00,0x00,0x00,0x00,0x00,0x00,0x00,0x00,0x00,0x00,0x00,0x00,0x00,
 0x00,0x00,0x00,0x00,0x00,0x00,0x00,0x00,0x00,0x00,0x00,0x00,0x00,0x00,0x00,
 0x00,0x00,0x00,0x00,0x00,0x00,0x00,0x00,0x00,0x00,0x00,0x00,0x00,0x00,0x00,
 0x00,0x00,0x00,0x00,0x00,0x00,0x00,0x00,0x00,0x00,0x00,0x00,0x00,0x00,0x00,
 0x00,0x00,0x00,0x00,0x00,0x00,0x00,0x00,0x00,0x00,0x00,0x00,0x00,0x00,0x00,
 0x00,0x00,0x00,0x00,0x00,0x00,0x00,0x00,0x00,0x00,0x00,0x00,0x00,0x00,0x00,
 0x00,0x00,0x00,0x00,0x00,0x00,0x00,0x00,0x00,0x00,0x00,0x00,0x00,0x00,0x00,
 0x00,0x00,0x00,0x00,0x00,0x00,0x00,0x00,0x00,0x00,0x00,0x00,0x00,0x00,0x00,
 0x00,0x00,0x00,0x00,0x00,0x00,0x00,0x00,0x00,0x00,0x00,0x00,0x00,0x00,0x00,
 0x00,0x00,0x00,0x00,0x00,0x00,0x00,0x00,0x00,0x00,0x00,0x00,0x00,0x00,0x00,
 0x00,0x00,0x00,0x00,0x00,0x00,0x00,0x00,0x00,0x00,0x00,0x00,0x00,0x00,0x00,
 0x00,0x00,0x00,0x00,0x00,0x00,0x00,0x00,0x00,0x00,0x00,0x00,0x00,0x00,0x00,
 0x00,0x00,0x00,0x00,0x00,0x00,0x00,0x00,0x00,0x00,0x00,0x00,0x00,0x00,0x00,
 0x00,0x00,0x00,0x00,0x00,0x00,0x00,0x00,0x00,0x00,0x00,0x00,0x00,0x00,0x00,
 0x00,0x00,0x00,0x00,0x00,0x00,0x00,0x00,0x00,0x00,0x00,0x00,0x00,0x00,0x00,
 0x00,0x00,0x00,0x00,0x00,0x00,0x00,0x00,0x00,0x00,0x00,0x00,0x00,0x00,0x00,
 0x00,0x00,0x00,0x00,0x00,0x00,0x00,0x00,0x00,0x00,0x00,0x00,0x00,0x00,0x00,
 0x00,0x00,0x00,0x00,0x00,0x00,0x00,0x00,0x00,0x00,0x00,0x00,0x00,0x00,0x00,
 0x00,0x00,0x00,0x00,0x00,0x00,0x00,0x00,0x00,0x00,0x00,0x00,0x00,0x00,0x00,
 0x00,0x00,0x00,0x00,0x00,0x00,0x00,0x00,0x00,0x00,0x00,0x00,0x00,0x00,0x00,
 0x00,0x00,0x00,0x00,0x00,0x00,0x00,0x00,0x00,0x00,0x00,0x00,0x00,0x00,0x00,
 0x00,0x00,0x00,0x00,0x00,0x00,0x00,0x00,0x00,0x00,0x00,0x00,0x00,0x00,0x00,
 0x00,0x00,0x00,0x00,0x00,0x00,0x00,0x00,0x00,0x00,0x00,0x00,0x00,0x00,0x00,
 0x00,0x00,0x00,0x00,0x00,0x00,0x00,0x00,0x00,0x00,0x00,0x00,0x00,0x00,0x00,
 0x00,0x00,0x00,0x00,0x00,0x00,0x00,0x00 };
