#define _width 256
#define _height 64
static char _bits[] = {
 0x00,0x00,0x00,0x00,0x00,0x00,0x00,0xf8,0xff,0x07,0x00,0x00,0x00,0x00,0xe0,
 0xff,0x03,0x00,0x00,0x00,0x00,0x00,0x00,0x00,0x00,0x00,0x00,0x00,0x00,0x00,
 0x00,0x00,0x00,0x00,0x00,0x00,0x00,0x00,0x00,0xf8,0xff,0x07,0x00,0x00,0x00,
 0x00,0xf0,0xff,0x07,0x00,0x00,0x00,0x00,0x00,0x00,0x00,0x00,0x00,0x00,0x00,
 0x00,0x00,0x00,0x00,0x00,0x00,0x00,0x00,0x00,0x00,0x00,0x18,0x00,0x06,0x00,
 0x00,0x00,0x00,0x30,0x00,0x06,0x00,0x00,0x00,0x00,0x00,0x00,0x00,0x00,0x00,
 0x00,0x00,0x00,0x00,0x00,0x00,0x00,0x00,0x00,0x00,0x00,0x00,0x00,0x18,0x00,
 0x06,0x00,0x00,0x00,0x00,0x30,0x00,0x06,0x00,0x00,0x00,0x00,0x00,0x00,0x00,
 0x00,0x00,0x00,0x00,0x00,0x00,0x00,0x00,0x00,0x00,0x00,0x00,0x00,0x00,0x00,
 0x38,0x00,0x06,0x00,0x00,0x00,0x00,0x70,0x00,0x06,0x00,0x00,0x00,0x00,0x00,
 0x00,0x80,0xff,0xff,0xff,0xff,0xff,0xff,0xff,0x07,0x00,0x00,0x00,0x00,0x00,
 0x00,0x00,0x30,0x00,0x06,0x00,0x00,0x00,0x00,0x60,0x00,0x06,0x00,0x00,0x00,
 0x00,0x00,0x00,0x80,0xff,0xff,0xff,0xff,0xff,0xff,0xff,0x07,0x00,0x00,0x00,
 0x00,0x00,0x00,0x00,0x30,0x00,0x06,0xf0,0xff,0x3f,0xe0,0x7f,0x00,0xc6,0xff,
 0x7f,0x00,0x00,0x00,0x00,0x80,0x01,0x00,0x00,0x00,0x00,0x00,0x00,0x06,0x00,
 0x00,0x00,0x00,0x00,0x00,0x00,0x38,0x00,0x07,0xf8,0xff,0x7f,0xf0,0x3f,0x00,
 0xe7,0xff,0xff,0x00,0x00,0x00,0x00,0x80,0x01,0x00,0x00,0x00,0x00,0x00,0x00,
 0x06,0x00,0x00,0x00,0x00,0x00,0x00,0x00,0x18,0x00,0x03,0x1c,0x00,0xe0,0x3c,
 0x00,0x00,0x3b,0x00,0xc0,0x01,0x00,0x00,0x00,0x80,0x01,0x00,0x00,0x00,0x00,
 0x00,0x00,0x06,0x00,0x00,0x00,0x00,0x00,0x00,0x00,0x18,0x00,0x03,0x0e,0x00,
 0xc0,0x0f,0x00,0x00,0x0f,0x00,0x80,0x01,0x00,0x00,0x00,0xc0,0x01,0x00,0x00,
 0x00,0x00,0x00,0x00,0x07,0x00,0x00,0x00,0x00,0x00,0x00,0x00,0x18,0x00,0x03,
 0x07,0x00,0x80,0x07,0x00,0x00,0x07,0x00,0x80,0x01,0x00,0x00,0x00,0xc0,0x00,
 0x00,0x00,0x00,0x00,0x00,0x00,0x03,0x00,0x00,0x00,0x00,0x00,0x00,0x00,0x18,
 0x80,0x83,0x03,0x00,0x80,0x07,0x00,0x80,0x07,0x00,0x80,0x01,0x00,0x00,0x00,
 0xc0,0x00,0x00,0x00,0x00,0x00,0x00,0x00,0x03,0x00,0x00,0x00,0x00,0x00,0x00,
 0x00,0x1c,0x80,0x81,0x03,0x00,0x80,0x03,0x00,0x80,0x03,0x00,0x80,0x01,0x00,
 0x00,0x00,0xc0,0x00,0x00,0x00,0x00,0x00,0x00,0x00,0x03,0x00,0x00,0x00,0x00,
 0x00,0x00,0x00,0x0c,0x80,0x81,0x01,0x00,0x80,0x03,0x00,0x80,0x03,0x30,0x80,
 0x01,0x00,0x00,0x00,0xc0,0x1f,0xe0,0x3f,0xc0,0xff,0x0f,0xf8,0x03,0x00,0x00,
 0x00,0x00,0x00,0x00,0x00,0x0c,0x80,0x81,0x01,0x18,0x80,0x01,0x18,0x80,0x01,
 0x30,0x80,0x01,0x00,0x00,0x00,0xc0,0x1f,0xf0,0x3f,0xc0,0xff,0x0f,0xf8,0x03,
 0x00,0x00,0x00,0x00,0x00,0x00,0x00,0x0e,0xc0,0xc1,0x01,0x18,0xc0,0x01,0x0c,
 0xc0,0x01,0x30,0x80,0x01,0x00,0x00,0x00,0x00,0x0c,0x30,0x30,0xc0,0x00,0x06,
 0x1c,0x00,0x00,0x00,0x00,0x00,0x00,0x00,0x00,0x06,0xc0,0xc0,0x00,0x1c,0xc0,
 0x00,0x0e,0xc0,0x00,0x00,0xc0,0x01,0x00,0x00,0x00,0x00,0x0c,0x30,0x30,0xc0,
 0x00,0x07,0x0c,0x00,0x00,0x00,0x00,0x00,0x00,0x00,0x00,0x06,0xc0,0xe0,0x00,
 0x0c,0xc0,0x00,0x0e,0xc0,0x00,0x00,0xe0,0x00,0x00,0x00,0x00,0x00,0x0c,0x30,
 0x30,0xc0,0x00,0x03,0x0c,0x00,0x00,0x00,0x00,0x00,0x00,0x00,0x00,0x06,0xc0,
 0x60,0x00,0x0e,0xc0,0x00,0x0e,0xc0,0x00,0x00,0x70,0x00,0x00,0x00,0x00,0x00,
 0x0c,0x30,0x30,0xc0,0x80,0x03,0x0e,0x00,0x00,0x00,0x00,0x00,0x00,0x00,0x00,
 0x07,0xc0,0x60,0x00,0x0e,0xe0,0x00,0x0e,0xc0,0x00,0xfc,0x3f,0x00,0x00,0x00,
 0x00,0x00,0x0e,0x38,0x30,0xc0,0x80,0x01,0x06,0x00,0x00,0x00,0x00,0x00,0x00,
 0x00,0x00,0x03,0xe0,0x60,0x00,0x0e,0x60,0x00,0x07,0xe0,0x00,0x0c,0x38,0x00,
 0x00,0x00,0x00,0x00,0x06,0x18,0x30,0xc0,0x80,0x01,0x06,0x00,0x00,0x00,0x00,
 0x00,0x00,0x00,0x00,0x03,0x60,0x70,0x00,0x06,0x60,0x00,0x07,0x60,0x00,0x0c,
 0x7c,0x00,0x00,0x00,0x00,0x00,0x06,0x18,0x30,0xc0,0xc0,0x01,0x07,0x00,0x00,
 0x00,0x00,0x00,0x00,0x00,0x00,0x03,0xe0,0x3f,0x00,0x06,0x60,0x00,0x07,0x60,
 0x00,0xf8,0x67,0x00,0x00,0x00,0x00,0x00,0x06,0x18,0x30,0xc0,0xc0,0x00,0x03,
 0x00,0x00,0x00,0x00,0x00,0x00,0x00,0x80,0x03,0xe0,0x2f,0x00,0x06,0x60,0x00,
 0x03,0x60,0x00,0x00,0x70,0x00,0x00,0x00,0x00,0x00,0x06,0x18,0x30,0xc0,0xc0,
 0x00,0x03,0x00,0x00,0x00,0x00,0x00,0x00,0x00,0x80,0x01,0x00,0x20,0x00,0x00,
 0x70,0x00,0x00,0x60,0x00,0x00,0x30,0x00,0x00,0x00,0x00,0x00,0x07,0x1c,0x38,
 0xc0,0xe0,0x80,0x03,0x00,0x00,0x00,0x00,0x00,0x00,0x00,0x80,0x01,0x00,0x20,
 0x00,0x00,0x70,0x00,0x00,0x70,0x00,0x00,0x30,0x00,0x00,0x00,0x00,0x00,0x03,
 0x0c,0x18,0xe0,0x60,0x80,0x01,0x00,0x00,0x00,0x00,0x00,0x00,0x00,0x80,0x01,
 0x00,0x30,0x00,0x00,0x70,0x00,0x00,0x70,0x00,0x00,0x38,0x00,0x00,0x00,0x00,
 0x00,0x03,0x0c,0x18,0x60,0x60,0x80,0x01,0x00,0x00,0x00,0x00,0x00,0x00,0x00,
 0x80,0x01,0x00,0x30,0x00,0x00,0x78,0x00,0x00,0x70,0x00,0x00,0x1c,0x00,0x00,
 0x00,0x00,0x00,0x03,0x0c,0x18,0x60,0x70,0xc0,0x01,0x00,0x00,0x00,0x00,0x00,
 0x00,0x00,0x80,0x01,0x00,0x78,0x00,0x00,0x7c,0x00,0x00,0x70,0x00,0x00,0x0c,
 0x00,0x00,0x00,0x00,0x00,0x03,0x0c,0x18,0x60,0x30,0xc0,0x00,0x00,0x00,0x00,
 0x00,0x00,0x00,0x00,0x80,0x01,0x00,0x78,0x00,0x00,0xee,0x00,0x01,0xe0,0x00,
 0x00,0x0e,0x00,0x00,0x00,0x00,0x80,0x03,0x0e,0x18,0x60,0x30,0xc0,0x00,0x00,
 0x00,0x00,0x00,0x00,0x00,0x00,0x80,0x01,0x00,0xec,0x00,0x80,0xc7,0x81,0x03,
 0xe0,0x01,0x00,0x07,0x00,0x00,0x00,0x00,0x80,0x01,0x06,0x18,0x60,0x38,0xe0,
 0x00,0x00,0x00,0x00,0x00,0xff,0xff,0xff,0x83,0xff,0xff,0xcf,0xff,0xff,0x83,
 0xff,0xfe,0xff,0xff,0xff,0x03,0x00,0x00,0x00,0x00,0x80,0x01,0x06,0x18,0x60,
 0x18,0x60,0x00,0x00,0x00,0x00,0x80,0xff,0xff,0xff,0x87,0xff,0xff,0x87,0xff,
 0xff,0x00,0x7f,0xfc,0x7f,0xff,0xff,0x01,0x00,0x00,0x00,0x00,0x80,0x01,0x06,
 0x18,0x60,0x18,0x60,0x00,0x00,0x00,0x00,0x80,0x01,0x00,0x00,0x0e,0x00,0x00,
 0x00,0x00,0x00,0x00,0x00,0x00,0x00,0x00,0x00,0x00,0x00,0x00,0x00,0x00,0x80,
 0x01,0x06,0x18,0x60,0x1c,0x70,0x00,0x00,0x00,0x00,0x80,0x01,0x00,0x00,0x1c,
 0x00,0x00,0x00,0x00,0x00,0x00,0x00,0x00,0x00,0x00,0x00,0x00,0x00,0x00,0x00,
 0x00,0xc0,0x01,0x07,0x18,0x60,0x0c,0x30,0x00,0x00,0x00,0x00,0x80,0x03,0x00,
 0x00,0x18,0x00,0x00,0x00,0x00,0x00,0x00,0x00,0x00,0x00,0x00,0x00,0x00,0x00,
 0x00,0x00,0x00,0xc0,0x00,0x03,0x18,0x60,0x0c,0x30,0x00,0x00,0x00,0x00,0x00,
 0x03,0x00,0x00,0x18,0x00,0x00,0x00,0x00,0x00,0x00,0x00,0x00,0x00,0x00,0x00,
 0x00,0x00,0x00,0x00,0x00,0xc0,0x00,0x03,0x18,0x60,0x0e,0x38,0x00,0x00,0x00,
 0x00,0x00,0x03,0x00,0x00,0xf8,0xff,0xff,0xff,0xff,0xff,0xff,0xff,0xff,0xff,
 0xe1,0xff,0x7f,0xfc,0xff,0x3f,0x00,0xc0,0x00,0x03,0x1c,0x60,0x06,0x18,0x00,
 0x00,0x00,0x00,0x00,0x03,0x00,0x00,0xf8,0xff,0xff,0xff,0xff,0xff,0xff,0xff,
 0xff,0xff,0xf3,0xff,0xff,0xff,0xff,0x3f,0x00,0xc0,0x00,0x03,0x0c,0x70,0x06,
 0x18,0x00,0x00,0x00,0x00,0x80,0x03,0x60,0x00,0x18,0x00,0x02,0xc0,0x00,0x0c,
 0x80,0x01,0x60,0x00,0x3f,0x00,0x80,0x03,0x20,0x20,0x00,0xe0,0x80,0x03,0x0c,
 0x30,0x07,0x1c,0x00,0x00,0x00,0x00,0x80,0x01,0xe0,0x00,0x18,0x00,0x02,0xc0,
 0x00,0x00,0x80,0x01,0x00,0x00,0x1e,0x00,0x00,0x07,0x00,0x30,0x00,0x60,0x80,
 0x01,0x0c,0x30,0x03,0x0c,0x00,0x00,0x00,0x00,0x80,0x01,0xb0,0x00,0x38,0x00,
 0x06,0xc0,0x01,0x00,0x80,0x03,0x00,0x00,0x0e,0x00,0x00,0x06,0x00,0x30,0x00,
 0x60,0x80,0x01,0x0c,0x30,0x03,0x0c,0x00,0x00,0x00,0x00,0x80,0x01,0xf0,0x00,
 0x3c,0x00,0x06,0xc0,0x01,0x00,0x80,0x03,0x00,0x00,0x06,0x00,0x00,0x06,0x00,
 0x30,0x00,0x60,0x80,0x01,0x0c,0xb0,0x03,0x0e,0x00,0x00,0x00,0x00,0xc0,0x01,
 0x70,0x00,0x3c,0x00,0x07,0xe0,0x01,0x00,0x80,0x03,0x00,0x00,0x06,0x00,0x00,
 0x06,0x00,0x30,0x00,0x60,0x80,0x01,0x0c,0xb0,0x01,0x06,0x00,0x00,0x00,0x00,
 0xc0,0x00,0x00,0x00,0x1e,0x00,0x03,0xe0,0x00,0x00,0x80,0x03,0x00,0x00,0x06,
 0x60,0x00,0x06,0x00,0x30,0x00,0x70,0xc0,0x01,0x0c,0xb0,0x01,0x06,0x00,0x00,
 0x00,0x00,0xc0,0x00,0x00,0x00,0x1f,0x00,0x03,0xe0,0x00,0x00,0x80,0x01,0x00,
 0x00,0x03,0x60,0x00,0x02,0xc0,0x3f,0x00,0x30,0xc0,0x00,0x0c,0xf0,0x01,0x07,
 0x00,0x00,0x00,0x00,0xc0,0x00,0x00,0x80,0x1f,0x00,0x03,0xa0,0x00,0x04,0x80,
 0x01,0x30,0x00,0x03,0x60,0x00,0x03,0xf0,0x3f,0x00,0x30,0xc0,0x00,0x0c,0xf0,
 0x00,0x03,0x00,0x00,0x00,0x00,0xe0,0x00,0x00,0xc0,0x0d,0x80,0x01,0x70,0x00,
 0x06,0xc0,0x01,0x38,0x80,0x01,0x00,0x00,0x03,0x78,0x00,0x00,0x30,0xc0,0x00,
 0x0c,0xf0,0x00,0x03,0x00,0x00,0x00,0x00,0x60,0x00,0x00,0xe0,0x0c,0x80,0x01,
 0x70,0x00,0x06,0xc0,0x01,0x18,0x80,0x01,0x00,0x80,0x01,0x18,0x00,0x00,0x30,
 0xc0,0x00,0x0c,0xf0,0x00,0x03,0x00,0x00,0x00,0x00,0x60,0x00,0x00,0x30,0x0c,
 0x80,0x01,0x70,0x00,0x07,0xc0,0x00,0x18,0x80,0x00,0x00,0xc0,0x01,0x18,0x00,
 0xc0,0x3f,0xe0,0xff,0x0f,0x70,0x80,0x7f,0x00,0x00,0x00,0x00,0x60,0x00,0x00,
 0x30,0x0e,0xc0,0x01,0x78,0x00,0x03,0xe0,0x00,0x18,0x80,0x00,0xfc,0x7f,0x01,
 0x1c,0x00,0xc0,0x1f,0xe0,0xff,0x0f,0x70,0x80,0x7f,0x00,0x00,0x00,0x00,0x70,
 0x00,0x00,0x60,0x06,0xc0,0x01,0x38,0x00,0x03,0xe0,0x00,0x1c,0x80,0x00,0x0c,
 0xf0,0x01,0x0c,0x00,0xc0,0x00,0x00,0x00,0x00,0x00,0x00,0x60,0x00,0x00,0x00,
 0x00,0x30,0x00,0x00,0xc0,0x06,0xc0,0x00,0x28,0x00,0x03,0xe0,0x00,0x0c,0xc0,
 0x00,0xfc,0xdf,0x01,0x0c,0x00,0xc0,0x00,0x00,0x00,0x00,0x00,0x00,0x60,0x00,
 0x00,0x00,0x00,0x30,0x00,0x0c,0x80,0x07,0xc0,0x00,0x38,0x00,0x03,0x60,0x00,
 0x0c,0xc0,0x00,0xf8,0xdf,0x00,0x0c,0x00,0xc0,0x00,0x00,0x00,0x00,0x00,0x00,
 0x60,0x00,0x00,0x00,0x00,0x30,0x00,0x0c,0x80,0x07,0x40,0x00,0x3c,0x80,0x03,
 0x70,0x00,0x0c,0x40,0x00,0x00,0xc0,0x00,0x0c,0x00,0xe0,0x00,0x00,0x00,0x00,
 0x00,0x00,0x70,0x00,0x00,0x00,0x00,0x38,0x00,0x0e,0x00,0x03,0x00,0x00,0x1c,
 0x80,0x01,0x70,0x00,0x0c,0x40,0x00,0x00,0xc0,0x00,0x0e,0x00,0x60,0x00,0x00,
 0x00,0x00,0x00,0x00,0x30,0x00,0x00,0x00,0x00,0x18,0x00,0x1f,0x00,0x03,0x00,
 0x00,0x1c,0x80,0x01,0x70,0x00,0x0e,0x60,0x00,0x00,0xe0,0x00,0x06,0x00,0x60,
 0x00,0x00,0x00,0x00,0x00,0x00,0x30,0x00,0x00,0x00,0x00,0x18,0x00,0x1b,0x00,
 0x03,0x00,0x00,0x1c,0x80,0x01,0x30,0x00,0x06,0x60,0x00,0x00,0x60,0x00,0x06,
 0x00,0x60,0x00,0x00,0x00,0x00,0x00,0x00,0x30,0x00,0x00,0x00,0x00,0x18,0x00,
 0x3b,0x00,0x03,0x00,0x00,0x1e,0xc0,0x00,0x38,0x00,0x06,0x60,0x00,0x00,0x70,
 0x00,0x06,0x00,0xe0,0xff,0xff,0xff,0xff,0xff,0xff,0x3f,0x00,0x00,0x00,0x00,
 0x18,0x00,0x37,0x00,0x03,0x00,0x00,0x0c,0x80,0x00,0x38,0x00,0x06,0xe0,0x00,
 0x00,0x78,0x00,0x0e,0x00,0xe0,0xff,0xff,0xff,0xff,0xff,0xff,0x3f,0x00,0x00,
 0x00,0x00,0x18,0x00,0x76,0x00,0x07,0x00,0x00,0x08,0x80,0x00,0x30,0x00,0x04,
 0xc0,0x00,0x00,0x7c,0x00,0x0c,0x00,0x00,0x00,0x00,0x00,0x00,0x00,0x00,0x00,
 0x00,0x00,0x00,0x00,0x18,0x00,0xe6,0x80,0x0f,0x60,0x00,0x18,0x80,0x01,0x20,
 0x00,0x04,0xc0,0x03,0x00,0x6f,0x00,0x0c,0x00,0x00,0x00,0x00,0x00,0x00,0x00,
 0x00,0x00,0x00,0x00,0x00,0x00,0xf8,0xff,0xc7,0xff,0xfd,0xff,0xff,0xff,0xff,
 0xff,0xff,0xff,0xff,0xff,0xff,0xff,0xe7,0xff,0x0f,0x00,0x00,0x00,0x00,0x00,
 0x00,0x00,0x00,0x00,0x00,0x00,0x00,0x00,0xf8,0xff,0x87,0xff,0xf8,0xff,0xff,
 0xff,0xff,0xff,0xff,0xff,0xff,0x7f,0xfe,0xff,0xe1,0xff,0x0f,0x00,0x00,0x00,
 0x00,0x00,0x00,0x00,0x00,0x00,0x00,0x00 };
