#define _width 128
#define _height 64
static char _bits[] = {
 0x00,0x00,0x00,0x00,0x00,0x00,0x00,0x00,0x00,0x00,0x00,0x00,0x00,0x00,0x00,
 0x00,0x00,0x00,0x00,0x00,0x00,0x00,0x00,0x00,0x00,0x00,0x00,0x00,0x00,0x00,
 0x00,0x00,0x00,0x00,0x00,0x00,0x00,0x00,0x00,0x00,0x7e,0x00,0x00,0x00,0x00,
 0x00,0x00,0x00,0x00,0x00,0x00,0x00,0x00,0x00,0x00,0xc0,0xff,0x00,0x00,0x00,
 0x00,0x00,0x00,0x00,0x00,0x00,0x00,0x00,0x00,0x00,0x00,0xf0,0xff,0x01,0x00,
 0x00,0x00,0x00,0x00,0x00,0x00,0x00,0x00,0x00,0x00,0x00,0x00,0xfc,0xff,0x01,
 0x00,0x00,0x00,0x00,0x00,0x00,0x00,0x00,0x00,0x00,0x00,0x00,0x00,0xfe,0xff,
 0x01,0x00,0x00,0x00,0x00,0x00,0x00,0x00,0x00,0x00,0x00,0x00,0x00,0x00,0xff,
 0xff,0x01,0x00,0x00,0x00,0x00,0x00,0x00,0x00,0x00,0x00,0x00,0x00,0x00,0x80,
 0xff,0xff,0x00,0x00,0x00,0x00,0x00,0x00,0x00,0x00,0x00,0x00,0x00,0x00,0xe0,
 0x87,0x7f,0x1c,0x00,0x00,0x00,0x00,0x00,0x00,0x00,0x00,0x00,0x00,0x00,0x00,
 0xf8,0xcf,0x1f,0x04,0x00,0x00,0x00,0x00,0x00,0x00,0x00,0x00,0x00,0x00,0x00,
 0x00,0xff,0xdf,0x1f,0x00,0x00,0xd2,0x07,0x00,0x00,0x00,0x00,0x00,0x00,0x00,
 0x00,0xe0,0xff,0xdf,0x1f,0xf8,0xff,0xef,0xff,0x1f,0x00,0x00,0x00,0x00,0x00,
 0x00,0x00,0xf8,0xff,0xdf,0x9f,0x7f,0x00,0x06,0x00,0xf8,0x07,0x00,0x00,0x00,
 0x00,0x00,0x00,0xf8,0xff,0xdf,0x1f,0x00,0x80,0x07,0x00,0x00,0x3e,0x00,0x00,
 0x00,0x00,0x00,0x00,0xf8,0xff,0xdf,0x1f,0x00,0xc0,0x03,0x00,0xe0,0xf1,0x00,
 0x00,0x00,0x00,0x00,0x00,0xf8,0xcf,0xdf,0x1f,0xd8,0xf1,0x00,0x00,0xfe,0x83,
 0x03,0x00,0x00,0x00,0x00,0x00,0xf8,0xc3,0xdf,0x1f,0xb0,0xfd,0x00,0x80,0xbf,
 0x07,0x0e,0x00,0x00,0x00,0x00,0x00,0xf8,0xc3,0xdf,0x1f,0xf4,0x7e,0x00,0xe0,
 0x07,0x07,0x18,0x00,0x00,0x00,0x00,0x00,0xf8,0xc3,0xdf,0x1f,0xfe,0x3f,0x00,
 0xf8,0x00,0x06,0x30,0x00,0x00,0x00,0x00,0x00,0xf8,0xc3,0xdf,0x9f,0xef,0x1f,
 0x00,0x38,0x00,0x06,0x60,0x00,0x00,0x00,0x00,0xe0,0xf8,0xc3,0xdf,0xff,0xff,
 0x0f,0xf0,0x1f,0x10,0x06,0x60,0x00,0x00,0x00,0x00,0x78,0xf8,0xfb,0xcf,0xff,
 0xf7,0x07,0xfe,0x0f,0x1e,0x06,0xc0,0x00,0x00,0x00,0x00,0x0f,0xf8,0xff,0xcf,
 0xff,0xfb,0xcf,0x1f,0x8f,0x03,0x07,0xc0,0x00,0x00,0x00,0xc0,0x03,0xf8,0xff,
 0xc7,0xff,0xfd,0xef,0x03,0x86,0x80,0x07,0xc0,0x00,0x00,0x00,0xf0,0x00,0xf8,
 0xff,0xc3,0xff,0x7f,0xee,0x00,0x06,0xc0,0x07,0xc0,0x00,0x00,0x00,0x38,0x00,
 0xf8,0xff,0x81,0xff,0xbe,0x1b,0x00,0x06,0xf8,0x07,0xc0,0x00,0x00,0x00,0x0f,
 0x00,0xf8,0x7f,0x80,0x3f,0xef,0x37,0x38,0x06,0x3f,0x06,0xc0,0x00,0x00,0x80,
 0x03,0x00,0xf8,0x0f,0x00,0x86,0xf3,0x0c,0x3f,0x86,0x07,0x06,0x60,0x00,0x00,
 0xc0,0x00,0x00,0xfe,0x03,0x00,0xc0,0x7d,0x8c,0x3f,0x86,0x01,0x06,0x60,0x00,
 0x00,0x70,0x00,0xc0,0xff,0x03,0x00,0x68,0x73,0x8c,0x3b,0x06,0x80,0x07,0x30,
 0x00,0x00,0x18,0x00,0xf8,0xff,0x03,0x00,0xb6,0x70,0x8c,0x3b,0x06,0xf0,0x07,
 0x18,0x00,0x00,0x0c,0x00,0xfe,0xf9,0x03,0x80,0x0b,0x70,0x8c,0x3b,0x0e,0xfc,
 0x01,0x1c,0x00,0x00,0x06,0xc0,0x3f,0xf8,0x03,0xc0,0x01,0x70,0x8c,0x3b,0x8e,
 0x7f,0x00,0x0e,0x00,0x00,0x03,0xe0,0x07,0xf8,0x83,0xff,0x81,0x71,0x8c,0x3b,
 0xfe,0x07,0x00,0x03,0x00,0x00,0x01,0xe0,0x00,0xfe,0xe3,0x7f,0xe0,0x71,0x8c,
 0x3b,0xfe,0x01,0x80,0x01,0x00,0x80,0x01,0xe0,0x80,0xff,0xff,0x7b,0xfc,0x71,
 0x8c,0xbb,0x0f,0x00,0xc0,0x00,0x00,0x80,0x00,0xe0,0xf8,0xe7,0x3f,0x70,0xfc,
 0x71,0x8c,0xfb,0x07,0x00,0x70,0x00,0x00,0xc0,0x00,0xe0,0xf8,0xe0,0x0f,0x60,
 0xdc,0x71,0x8c,0xfb,0x00,0x00,0x1c,0x00,0x00,0x40,0x00,0xe0,0x38,0xe4,0x01,
 0x60,0xfc,0x71,0xcc,0x3b,0x00,0x00,0x0e,0x00,0x00,0x40,0x00,0xe0,0xb8,0x67,
 0x80,0x61,0xfc,0x71,0xfc,0x03,0x00,0x80,0x03,0x00,0x00,0x40,0x00,0xe0,0xf8,
 0x67,0xf0,0x61,0x7c,0x70,0xff,0x00,0x00,0xf0,0x00,0x00,0x00,0xc0,0x00,0xe0,
 0xf8,0x67,0xfc,0x61,0x1c,0xf0,0x3f,0x00,0x00,0x3c,0x00,0x00,0x00,0xc0,0x00,
 0xe0,0x38,0x66,0xfc,0x61,0x00,0xf0,0x07,0x00,0x00,0x0f,0x00,0x00,0x00,0x80,
 0x00,0xe0,0x08,0x66,0x9c,0x61,0x00,0xf0,0x00,0x00,0xe0,0x01,0x00,0x00,0x00,
 0x80,0x01,0xe0,0x00,0x66,0x9c,0x61,0xe0,0x71,0x00,0x00,0x7c,0x00,0x00,0x00,
 0x00,0x00,0x03,0xe0,0x80,0x67,0x9c,0xe1,0xf8,0x71,0x00,0x80,0x0f,0x00,0x00,
 0x00,0x00,0x00,0x06,0xe0,0xf0,0x67,0x9c,0xe1,0xff,0x71,0x00,0xf0,0x01,0x00,
 0x00,0x00,0x00,0x00,0x18,0xe0,0xf8,0x70,0x9c,0xf1,0xff,0x31,0x80,0x1f,0x00,
 0x00,0x00,0x00,0x00,0x00,0x70,0xe0,0x38,0x7c,0x9c,0xff,0xe3,0x38,0xf8,0x01,
 0x00,0x00,0x00,0x00,0x00,0x00,0xc0,0xe1,0x98,0x7f,0x9c,0x7f,0x70,0x38,0x3f,
 0x00,0x00,0x00,0x00,0x00,0x00,0x00,0x00,0xef,0xf8,0x67,0x9c,0x0f,0x3f,0x9c,
 0x01,0x00,0x00,0x00,0x00,0x00,0x00,0x00,0x00,0xe0,0xf8,0x61,0x9c,0x83,0x1f,
 0x1e,0x00,0x00,0x00,0x00,0x00,0x00,0x00,0x00,0x00,0xe0,0x38,0xe0,0x1f,0x80,
 0x07,0x0e,0x00,0x00,0x00,0x00,0x00,0x00,0x00,0x00,0x00,0xe0,0x08,0xe0,0x0f,
 0x80,0x01,0x07,0x00,0x00,0x00,0x00,0x00,0x00,0x00,0x00,0x00,0xe0,0x00,0xfc,
 0x01,0x80,0xc1,0x03,0x00,0x00,0x00,0x00,0x00,0x00,0x00,0x00,0x00,0xe0,0x80,
 0x3f,0x00,0x80,0xf9,0x01,0x00,0x00,0x00,0x00,0x00,0x00,0x00,0x00,0x00,0xe0,
 0xe0,0x0f,0x00,0x80,0xff,0x00,0x00,0x00,0x00,0x00,0x00,0x00,0x00,0x00,0x00,
 0xe0,0xfc,0x01,0x00,0x80,0x3f,0x00,0x00,0x00,0x00,0x00,0x00,0x00,0x00,0x00,
 0x00,0xe0,0x3f,0x00,0x00,0x80,0x03,0x00,0x00,0x00,0x00,0x00,0x00,0x00,0x00,
 0x00,0x00,0xe0,0x0f,0x00,0x00,0x80,0x00,0x00,0x00,0x00,0x00,0x00,0x00,0x00,
 0x00,0x00,0x00,0xe0,0x01,0x00,0x00,0x00,0x00,0x00,0x00,0x00,0x00,0x00,0x00,
 0x00,0x00,0x00,0x00,0x00,0x00,0x00,0x00,0x00,0x00,0x00,0x00,0x00,0x00,0x00,
 0x00,0x00,0x00,0x00,0x00,0x00,0x00,0x00,0x00,0x00,0x00,0x00,0x00,0x00,0x00,
 0x00,0x00,0x00,0x00 };
