#define _width 16
#define _height 16
static char _bits[] = {
 0x38,0x1c,0x38,0x1c,0xfc,0x3f,0xfe,0x7f,0x06,0x60,0xc6,0x61,0xfe,0x7f,0xfe,
 0x7f,0xdf,0xfb,0xfb,0xdf,0xe3,0xc7,0x26,0x64,0x06,0x60,0x86,0x61,0xc2,0xc3,
 0x7e,0x7f };
