#define _width 256
#define _height 64
static char _bits[] = {
 0x00,0x00,0x00,0x00,0x00,0x00,0x00,0x00,0x00,0x00,0x00,0x00,0x00,0x00,0x00,
 0x40,0x01,0x00,0x00,0x00,0x00,0x00,0x00,0x00,0x00,0x00,0x00,0x00,0x00,0x00,
 0x00,0x00,0x00,0x00,0x00,0x00,0x00,0x00,0x00,0x00,0x00,0x00,0x00,0x00,0x00,
 0x00,0x00,0x60,0x07,0x00,0x00,0x00,0x00,0x00,0x00,0x00,0x00,0x00,0x00,0x00,
 0x00,0x00,0x00,0x00,0x00,0x00,0x00,0x00,0x00,0x00,0x00,0x00,0x00,0x00,0x00,
 0x00,0x00,0x00,0x00,0x78,0x0f,0x00,0x00,0x00,0x00,0x00,0x00,0x00,0x00,0x00,
 0x00,0x00,0x00,0x00,0x00,0x40,0x00,0x00,0x00,0x00,0x00,0x00,0x00,0x00,0x00,
 0x00,0x00,0x00,0x00,0x00,0x00,0x7c,0x1f,0x00,0x00,0x00,0x00,0x00,0x00,0x00,
 0x00,0x00,0x00,0x00,0x00,0x00,0x00,0x00,0x00,0x00,0x00,0x00,0x00,0x00,0x00,
 0x00,0x00,0x00,0x00,0x00,0x00,0x00,0x00,0x7e,0xff,0x00,0x00,0x00,0x00,0x00,
 0x00,0x00,0x00,0x00,0x00,0x00,0x00,0x00,0x00,0x00,0x00,0x00,0x00,0x02,0x00,
 0x00,0x00,0x00,0x00,0x00,0x00,0x00,0x00,0x00,0x00,0x7f,0xff,0x01,0x00,0x00,
 0x00,0x00,0x00,0x00,0x00,0x00,0x00,0x00,0x04,0x00,0x00,0x00,0x00,0x00,0x00,
 0x00,0x00,0x00,0x00,0x00,0x00,0x00,0x00,0x00,0x00,0x00,0x00,0x7f,0xff,0x01,
 0x00,0x00,0x00,0x00,0x00,0x00,0x00,0x00,0x00,0x00,0x04,0x00,0x00,0x00,0x00,
 0x00,0x00,0x00,0x00,0x00,0x00,0x00,0x00,0x00,0x00,0x00,0x00,0x00,0x8c,0x7f,
 0xff,0x19,0x00,0x00,0x00,0x00,0x00,0x00,0x00,0x00,0x00,0x00,0x04,0x00,0x00,
 0x00,0x00,0x00,0x00,0x00,0x00,0x00,0x00,0x00,0x00,0x00,0x00,0x00,0x00,0x00,
 0x8c,0x7f,0xff,0x19,0x00,0x00,0x00,0x00,0x00,0x00,0x00,0x00,0x00,0x00,0x04,
 0x00,0x00,0x00,0x00,0x00,0x00,0x00,0x00,0x00,0x00,0x00,0x00,0x00,0x00,0x00,
 0x00,0x00,0x8f,0x7f,0xff,0x79,0x00,0x00,0x00,0x00,0x00,0x00,0x10,0x00,0x00,
 0x00,0x00,0x00,0x00,0x00,0x00,0x00,0x00,0x00,0x00,0x00,0x00,0x00,0x00,0x00,
 0x00,0x01,0x00,0xc0,0x8f,0x7f,0xff,0xf3,0x01,0x00,0x00,0x00,0x00,0x00,0x00,
 0x00,0x00,0x00,0x00,0x04,0x00,0x00,0x00,0x01,0x00,0x00,0x00,0x00,0x00,0x00,
 0x00,0x00,0x00,0x00,0x00,0xe0,0xcf,0x7f,0xff,0xf3,0x03,0x00,0x00,0x00,0x00,
 0x00,0x00,0x00,0x00,0x00,0x00,0x00,0x00,0x00,0x00,0x00,0x00,0x00,0x00,0x00,
 0x00,0x00,0x00,0x00,0x00,0x00,0x00,0xe3,0xc7,0x7f,0xff,0xf3,0x33,0x00,0x00,
 0x00,0x01,0x00,0x00,0x00,0x00,0x00,0x00,0x00,0x00,0x00,0x00,0x00,0x00,0x00,
 0x00,0x00,0x00,0x00,0x00,0x00,0x00,0x00,0xc0,0xe7,0xc7,0x7b,0xcf,0xf3,0xf7,
 0x00,0x00,0x00,0x00,0x00,0x00,0x00,0x00,0x00,0x00,0x00,0x00,0x00,0x00,0x00,
 0x00,0xd0,0x00,0x00,0x10,0x00,0x00,0x00,0x00,0x00,0xf8,0xe7,0xf7,0x7b,0xcf,
 0xf7,0xe7,0x0f,0x00,0x00,0x00,0x00,0x00,0x00,0x00,0x00,0x00,0x00,0x00,0x00,
 0x00,0x00,0x00,0x22,0x01,0x00,0x00,0x00,0x00,0x00,0x00,0x00,0xfe,0xf7,0xf7,
 0x79,0xdf,0xe7,0xef,0x0f,0x00,0x00,0x00,0x00,0x00,0x00,0x00,0x00,0x00,0x00,
 0x00,0x00,0x00,0x00,0x00,0x34,0x02,0x00,0x00,0x00,0x00,0x00,0x00,0x00,0xf0,
 0xff,0xf7,0x79,0xdf,0xe7,0xef,0x07,0x00,0x00,0x00,0x00,0x00,0x00,0x00,0x00,
 0x00,0x00,0x00,0x00,0x00,0x00,0x80,0x18,0x00,0x00,0x00,0x00,0x00,0x00,0x00,
 0x00,0xf0,0xff,0xf3,0x7f,0xff,0xe7,0xff,0x0f,0x00,0x00,0x00,0x00,0x00,0x00,
 0x00,0x00,0x00,0x00,0x00,0x00,0x00,0x00,0x00,0x1d,0x00,0x00,0x00,0x00,0x00,
 0x00,0x00,0x00,0xf0,0xbf,0xfb,0x7f,0xff,0xe7,0xff,0x0f,0x00,0x00,0x00,0x00,
 0x00,0x00,0x00,0x00,0x00,0x00,0x00,0x00,0x00,0x00,0x40,0x1e,0x00,0x00,0x00,
 0x00,0x00,0x00,0x00,0x00,0xf0,0xbf,0xfb,0x3f,0xfe,0xef,0xff,0x0f,0x00,0x00,
 0x00,0x00,0x00,0x00,0x00,0x00,0x04,0x00,0x00,0x00,0x00,0x00,0x80,0xce,0x00,
 0x00,0x00,0x00,0x00,0x00,0x00,0x00,0xf0,0x9f,0xfb,0x3f,0xfe,0xcf,0xff,0x0f,
 0x00,0x00,0x00,0x00,0x00,0x00,0x08,0x00,0x04,0x00,0x00,0x00,0x00,0x00,0x00,
 0x6f,0x00,0x00,0x00,0x00,0x00,0x00,0x18,0x00,0xf8,0xde,0xfb,0x0f,0xfc,0xcf,
 0xff,0x0f,0x00,0x00,0x00,0x00,0x00,0x00,0x00,0x00,0x0e,0x00,0x00,0x00,0x00,
 0x00,0x00,0xf7,0x02,0x00,0x00,0x00,0x00,0x00,0x38,0x00,0xf8,0xce,0xfb,0x41,
 0xc0,0xcf,0xff,0x0f,0x00,0x18,0x00,0x00,0x00,0x00,0x00,0x00,0x0e,0x00,0x00,
 0x00,0x00,0x00,0x00,0xf7,0x02,0x00,0x00,0x00,0x00,0x00,0x3c,0x00,0xf8,0xee,
 0x03,0x70,0x1c,0xc0,0xf7,0x0f,0x00,0x3c,0x00,0x00,0x00,0x00,0x00,0x00,0x1f,
 0x00,0x00,0x00,0x00,0x00,0x00,0x6f,0x00,0x00,0x00,0x00,0x00,0x00,0x3c,0x00,
 0xf8,0xee,0x03,0x70,0x1c,0xc0,0xf7,0x0f,0x00,0x3c,0x00,0x00,0x00,0x00,0x00,
 0x80,0x31,0x00,0x00,0x00,0x00,0x00,0x80,0xce,0x00,0x00,0x00,0x00,0x00,0x00,
 0x7c,0x00,0xf8,0xee,0x07,0x7e,0xfe,0x01,0xe6,0x1f,0x10,0x3c,0x00,0x00,0x00,
 0x00,0x00,0xe0,0xfb,0x00,0x00,0x00,0x00,0x00,0x40,0x1e,0x00,0x00,0x00,0x00,
 0x00,0x00,0xfc,0x00,0xfe,0xe4,0xc1,0x7f,0xfe,0xc7,0xc0,0x1f,0x00,0x3e,0x00,
 0x00,0x00,0x00,0x00,0xa0,0xb1,0x00,0x00,0x00,0x00,0x00,0x00,0x1d,0x00,0x00,
 0x00,0x00,0x00,0x00,0xfe,0x00,0xfe,0x04,0xfc,0x7f,0xff,0xcf,0xc3,0x1f,0x00,
 0x7e,0x00,0x00,0x00,0x00,0x00,0x00,0x1f,0x00,0x00,0x00,0x00,0x00,0x80,0x18,
 0x00,0x00,0x00,0x00,0x00,0x00,0xfe,0x01,0xfe,0x00,0xfc,0x7f,0xff,0xdf,0x0f,
 0x3f,0x00,0x7f,0x00,0x00,0x00,0x00,0x00,0x00,0x0e,0x00,0x00,0x00,0x00,0x00,
 0x00,0x34,0x02,0x00,0x00,0x00,0x00,0x04,0xfe,0x03,0x7f,0x00,0xfc,0x0f,0xff,
 0xdf,0x7f,0x38,0x00,0x7f,0x00,0x00,0x00,0x00,0x00,0x00,0x1f,0x00,0x00,0x00,
 0x00,0x00,0x00,0x22,0x01,0x00,0x00,0x00,0x00,0x80,0xff,0x07,0x0f,0x3f,0xfc,
 0x01,0xff,0xdf,0xff,0x03,0x80,0xff,0x00,0x00,0x00,0x00,0x00,0xc8,0x7f,0x02,
 0x00,0x00,0x00,0x00,0x00,0xd0,0x00,0x00,0x00,0x00,0x00,0x80,0xff,0x0f,0xc1,
 0x7f,0xfe,0x40,0xff,0xde,0xff,0x0f,0xc0,0xff,0x00,0x00,0x00,0x00,0x00,0xe8,
 0xe0,0x02,0x00,0x00,0x00,0x00,0x00,0x00,0x00,0x00,0x00,0x00,0x00,0x80,0xff,
 0x0f,0xf8,0x7f,0xfe,0x60,0x3f,0x9c,0xff,0x1f,0xc0,0xff,0x00,0x00,0x00,0x00,
 0x00,0xf8,0xf5,0x03,0x00,0x00,0x00,0x00,0x00,0x00,0x00,0x00,0x00,0x00,0x00,
 0x80,0xff,0x1f,0xfe,0x7f,0xfe,0x7c,0xff,0x98,0xff,0x3f,0xe0,0xff,0x01,0x00,
 0x00,0x00,0x00,0x9c,0x35,0x07,0x00,0x00,0x00,0x00,0x00,0x00,0x00,0x01,0x00,
 0x00,0x00,0xc0,0xff,0x1f,0xfe,0x7f,0xfe,0x7f,0xff,0x93,0xff,0x3f,0xe0,0xff,
 0x01,0x00,0x00,0x00,0x00,0x8e,0x20,0x0e,0x00,0x00,0x00,0x00,0x00,0x00,0x00,
 0x00,0x00,0x00,0x00,0xc0,0x9f,0x3f,0xff,0x7f,0xfe,0x7f,0xfe,0x3f,0xf8,0x7f,
 0xf0,0xfb,0x01,0x00,0x00,0x00,0x00,0x80,0x3f,0x00,0x00,0x00,0x00,0x00,0x00,
 0x00,0x00,0x00,0x00,0x00,0x00,0xc0,0x1f,0xbf,0x3f,0x7c,0xfe,0x7f,0xfe,0x3f,
 0xf8,0x7f,0xf0,0xe3,0x03,0x00,0x10,0x00,0x00,0x00,0x1f,0x00,0x00,0x00,0x00,
 0x00,0x00,0x00,0x00,0x00,0x00,0x00,0x00,0xe0,0x1f,0x9f,0x3f,0x7c,0xff,0x7f,
 0xfc,0x7f,0xf8,0x73,0xf8,0xe1,0x03,0x00,0x00,0x00,0x00,0x00,0x0e,0x00,0x00,
 0x00,0x00,0x00,0x00,0x00,0x00,0x00,0x00,0x00,0x00,0xe0,0x0f,0xde,0x1f,0x3e,
 0xff,0x7f,0xf8,0xff,0xf8,0x63,0xfc,0xe0,0x03,0x00,0x00,0x00,0x00,0x00,0x1f,
 0x00,0x00,0x00,0x00,0x00,0x00,0x00,0x00,0x00,0x00,0x00,0x00,0xe0,0x0f,0xde,
 0xff,0x3f,0xff,0x6f,0xc1,0xff,0xf8,0x43,0xfc,0xc0,0x07,0x00,0x00,0x00,0x00,
 0xc1,0x7f,0x10,0x00,0x00,0x00,0x00,0x00,0x00,0x00,0x00,0x00,0x00,0x00,0xe0,
 0x0f,0xce,0xff,0x3f,0xff,0x6f,0xc1,0xff,0xf8,0x43,0xfc,0xc0,0x07,0x00,0x00,
 0x00,0x00,0xf1,0xff,0x11,0x00,0x00,0x00,0x00,0x00,0x00,0x00,0x00,0x00,0x00,
 0x00,0xf0,0x0f,0xef,0xff,0x3f,0x7f,0x00,0x03,0xff,0xf9,0x03,0xfe,0xe0,0x07,
 0x00,0x00,0x00,0x80,0x7b,0xc0,0x3b,0x00,0x00,0x00,0x00,0x00,0x00,0x00,0x00,
 0x00,0x00,0x00,0xf0,0x87,0xef,0xff,0x1f,0x3f,0x00,0x07,0xfc,0xf9,0x03,0xfe,
 0xff,0x07,0x00,0x00,0x00,0xc0,0xff,0xea,0x7f,0x00,0x00,0x00,0x00,0x00,0x00,
 0x00,0x00,0x00,0x00,0x00,0xf0,0xc7,0xef,0xff,0x87,0x3f,0x40,0x1f,0xfc,0xf9,
 0x03,0xff,0xff,0x0f,0x00,0x00,0x00,0xc0,0xff,0xea,0x7f,0x00,0x00,0x00,0x00,
 0x00,0x00,0x00,0x00,0x00,0x00,0x00,0xf8,0xc7,0xef,0xff,0x83,0x3f,0x60,0xff,
 0xfe,0xf9,0x83,0xff,0xff,0x0f,0x00,0x00,0x00,0xc0,0xff,0xea,0x7f,0x00,0x01,
 0x00,0x00,0x00,0x00,0x00,0x00,0x00,0x00,0x00,0xf8,0xe3,0xef,0xff,0xc7,0xff,
 0x7f,0xff,0xff,0xf1,0x83,0xff,0xff,0x0f,0x00,0x00,0x00,0x40,0x60,0xc0,0x40,
 0x00,0x00,0x00,0x00,0x00,0x00,0x00,0x00,0x00,0x00,0x00,0xf8,0xf3,0xe7,0xc7,
 0xcf,0xff,0x7f,0xff,0xff,0xf1,0xc3,0xff,0xff,0x1f,0x00,0x00,0x00,0x40,0xc0,
 0x7f,0x40,0x00,0x00,0x00,0x00,0x00,0x00,0x00,0x00,0x00,0x00,0x00,0xfc,0x03,
 0xf0,0x87,0xcf,0xff,0x7f,0xff,0xff,0xf0,0xc7,0x0f,0x00,0x1f,0x00,0x00,0x00,
 0x40,0xc0,0x7f,0x40,0x00,0x00,0x00,0x02,0x00,0x00,0x00,0x00,0x00,0x00,0x00,
 0xfc,0x01,0xf0,0x87,0xcf,0xff,0x7f,0xff,0xff,0xf0,0xe7,0x07,0x00,0x1f,0x00,
 0x00,0x00,0x00,0x80,0x3f,0x00,0x00,0x00,0x00,0x00,0x00,0x00,0x00,0x00,0x00,
 0x00,0x00,0xfc,0x01,0xf8,0x87,0xdf,0xff,0x7f,0xff,0x7f,0xf8,0xef,0x07,0x00,
 0x1e,0x00,0x00,0x00,0x00,0x00,0x1f,0x00,0x00,0x00,0x00,0x00,0x00,0x00,0x00,
 0x00,0x00,0x00,0x00,0xfe,0x01,0x00,0x00,0x80,0xff,0x7f,0xff,0x01,0x00,0x00,
 0x00,0x00,0x1c,0x00,0x00,0x00,0x00,0x00,0x1f,0x00,0x00,0x00,0x00,0x00,0x00,
 0x00,0x00,0x00,0x01,0x00,0x00,0xfe,0x01,0x00,0x00,0x00,0x00,0x70,0x0f,0x00,
 0x00,0x00,0x00,0x00,0x1c,0x08,0x00,0x00,0x00,0x00,0x04,0x00,0x00,0x00,0x00,
 0x00,0x00,0x00,0x00,0x00,0x00,0x00,0x00,0xfe,0xff,0xff,0xff,0xff,0xff,0x47,
 0xe3,0xff,0xff,0xff,0xff,0xff,0x1f,0x00,0x00,0x00,0x00,0x00,0x0a,0x00,0x00,
 0x00,0x00,0x00,0x00,0x00,0x00,0x00,0x00,0x00,0x00,0xff,0xff,0xff,0xff,0xff,
 0xff,0x1f,0xf8,0xff,0xff,0xff,0xff,0xff,0x1f,0x00,0x00,0x00,0x80,0x00,0x10,
 0x00,0x00,0x00,0x00,0x00,0x00,0x80,0x00,0x00,0x00,0x00,0x00,0xff,0xff,0xff,
 0xff,0xff,0xff,0x3f,0xfc,0xff,0xff,0xff,0xff,0xff,0x1f,0x00,0x00,0x00,0x00,
 0x00,0x05,0x00,0x00,0x00,0x00,0x00,0x00,0x00,0x00,0x00,0x00,0x00,0x00,0x00,
 0x00,0x00,0x00,0x00,0x80,0x7f,0xfe,0x00,0x00,0x00,0x00,0x00,0x00,0x00,0x00,
 0x00,0x00,0x00,0x08,0x00,0x00,0x00,0x00,0x00,0x00,0x00,0x00,0x00,0x00,0x00,
 0x00,0x00,0x00,0x00,0x00,0x00,0x80,0x7f,0xfe,0x00,0x00,0x00,0x00,0x00,0x00,
 0x00,0x00,0x00,0x00,0x40,0x22,0x00,0x00,0x00,0x00,0x00,0x00,0x00,0x00,0x00,
 0x00,0x00,0x00,0x00,0x00,0x00,0x00,0x00,0x00,0xfc,0x1f,0x00,0x00,0x00,0x00,
 0x02,0x00,0x00,0x00,0x00,0x00,0x00,0x09,0x00,0x00,0x00,0x00,0x00,0x00,0x00,
 0x00,0x00,0x00,0x00,0x00,0x00,0x00,0x00,0x00,0x00,0x00,0xf8,0x07,0x00,0x00,
 0x00,0x00,0x00,0x00,0x00,0x00,0x00,0x00,0x80,0x50,0x00,0x00,0x00,0x00,0x00,
 0x00,0x00,0x00,0x00,0x00,0x00,0x00,0x00,0x00,0x00,0x00,0x10,0x00,0xf0,0x03,
 0x00,0x00,0x00,0x00,0x00,0x00,0x00,0x00,0x00,0x20,0x00,0x02,0x00,0x00,0x00,
 0x00,0x00,0x00,0x00,0x00,0x00,0x00,0x00,0x00,0x00,0x00,0x00,0x00,0x00,0x00,
 0xe0,0x03,0x00,0x00,0x00,0x00,0x00,0x00,0x00,0x00,0x00,0x00,0x00,0x41,0x00,
 0x00,0x00,0x00,0x00,0x00,0x00,0x00,0x00,0x00,0x00,0x00,0x00,0x00,0x00,0x00,
 0x00,0x00,0xc0,0x01,0x00,0x00,0x00,0x00,0x00,0x00,0x00,0x00,0x00,0x00,0x00,
 0x08,0x00,0x00,0x00,0x00,0x00,0x00,0x00,0x00,0x00,0x00,0x00,0x00,0x20,0x00,
 0x00,0x00,0x00,0x00,0xc0,0x01,0x00,0x00,0x00,0x00,0x00,0x00,0x00,0x00,0x00,
 0x00,0x00,0x20,0x00,0x00,0x00,0x00,0x00,0x00,0x00,0x00,0x00,0x00,0x00,0x00,
 0x00,0x00,0x00,0x00,0x00,0x00,0x80,0x00,0x00,0x00,0x00,0x00,0x00,0x00,0x00,
 0x00,0x00,0x00,0x00,0x00,0x00,0x00,0x00 };
