#define _width 256
#define _height 64
static char _bits[] = {
 0x00,0x00,0x00,0x00,0x00,0x00,0x00,0x00,0x00,0x00,0x00,0x00,
 0x00,0x00,0x00,0x00,0x00,0x00,0x00,0x00,0x00,0x00,0x00,0x00,
 0x00,0x00,0x00,0x00,0x00,0x00,0x00,0x00,0x00,0x00,0x00,0x00,
 0x00,0x00,0x00,0x00,0x00,0x00,0x00,0x00,0x00,0x00,0x00,0x00,
 0x00,0x00,0x00,0x00,0x00,0x00,0x00,0x00,0x00,0x00,0x00,0x00,
 0x00,0x00,0x00,0x00,0x00,0x00,0x00,0x00,0x00,0x00,0x00,0x00,
 0x00,0x00,0x00,0x00,0x00,0x00,0x00,0x00,0x00,0x00,0x00,0x00,
 0x00,0x00,0x00,0x00,0x00,0x00,0x00,0x00,0x00,0x00,0x00,0x00,
 0x00,0x00,0x00,0x00,0x00,0x00,0x00,0x00,0x00,0x00,0x00,0x00,
 0x00,0x00,0x00,0x00,0x00,0x00,0x00,0x00,0x00,0x00,0x00,0x00,
 0x00,0x00,0x00,0x00,0x00,0x00,0x00,0x00,0x00,0x00,0x00,0x00,
 0x00,0x00,0x00,0x00,0x00,0x00,0x00,0x00,0x00,0x00,0x00,0x00,
 0x00,0x00,0x00,0x00,0x00,0x00,0x00,0x00,0x00,0x00,0x00,0x00,
 0x00,0x00,0x00,0x00,0x00,0x00,0x00,0x00,0x00,0x00,0x00,0x00,
 0x00,0x00,0x00,0x00,0x00,0x00,0x00,0x00,0x00,0x00,0x00,0x00,
 0x00,0x00,0x00,0x00,0x00,0x00,0x00,0x00,0x00,0x00,0x00,0x00,
 0x00,0x00,0x00,0x00,0x00,0x00,0x00,0x00,0x00,0x00,0x00,0x00,
 0x00,0x00,0x00,0x00,0x00,0x00,0x00,0x00,0x00,0x00,0x00,0x00,
 0x00,0x00,0x00,0x00,0x00,0x00,0x00,0x00,0x00,0x00,0x00,0x00,
 0x00,0x00,0x00,0x00,0x00,0x00,0x00,0x00,0x00,0x00,0x00,0x00,
 0x00,0x00,0x00,0x00,0x00,0x00,0x00,0x00,0x00,0x00,0x00,0x00,
 0x00,0x00,0x00,0x00,0x00,0x00,0x00,0x0f,0x00,0x00,0x00,0x00,
 0x00,0x00,0x00,0x00,0x00,0x00,0x00,0x00,0x00,0x00,0x00,0x00,
 0x00,0x00,0x00,0x00,0x00,0x00,0x00,0x00,0x00,0x00,0x00,0x00,
 0x00,0x00,0x00,0x7f,0x00,0x00,0x00,0x00,0x00,0x00,0x00,0x00,
 0x00,0x00,0x00,0x00,0x00,0x00,0x00,0x00,0x00,0x00,0x00,0x00,
 0x00,0x00,0x00,0x00,0x00,0x00,0x00,0x00,0x00,0x00,0x00,0xff,
 0x03,0x00,0x00,0x00,0x00,0x00,0x00,0x00,0x00,0x00,0x00,0x00,
 0x00,0x00,0x00,0x00,0x00,0x00,0x00,0x00,0x00,0x00,0x00,0x00,
 0x00,0x00,0x00,0x00,0x00,0x00,0x00,0xff,0x1f,0x00,0x00,0x00,
 0x00,0x00,0x00,0x00,0x00,0x00,0x00,0x00,0x00,0x00,0x00,0x00,
 0x00,0x00,0x00,0x00,0x00,0x00,0x00,0x00,0x00,0x00,0x00,0x00,
 0x00,0x00,0x00,0xff,0x7f,0x00,0x00,0x00,0x00,0x00,0x00,0x00,
 0x00,0x00,0x00,0x00,0x00,0x00,0x00,0x00,0x00,0x00,0x00,0x00,
 0x00,0x00,0x00,0x00,0x00,0x00,0x00,0x00,0x00,0x00,0x00,0xff,
 0xff,0x01,0x00,0x00,0x00,0x00,0x00,0x00,0x00,0x00,0x00,0x00,
 0x00,0x00,0x00,0x00,0x00,0x00,0x00,0x00,0x00,0x00,0x00,0x00,
 0x00,0x00,0x00,0x00,0x00,0x00,0x00,0xff,0xff,0x07,0x00,0x00,
 0x00,0x00,0x00,0x00,0x00,0x00,0x00,0x00,0x00,0x00,0x00,0x00,
 0x00,0x00,0x00,0x00,0x00,0x00,0x00,0x00,0x00,0x00,0x00,0x00,
 0x00,0x00,0x00,0xff,0xf1,0x0f,0x00,0x00,0x00,0x00,0x00,0x00,
 0x00,0x00,0x00,0x00,0x00,0x00,0x00,0x00,0x00,0x00,0x00,0x00,
 0x00,0x00,0x00,0x00,0x00,0x00,0x00,0x00,0x00,0x00,0x00,0xff,
 0xe1,0x1f,0x00,0x00,0x00,0x00,0x00,0x00,0x00,0x00,0x00,0x00,
 0x00,0x00,0x00,0x00,0x00,0x00,0x00,0x00,0x00,0x00,0x00,0x00,
 0x00,0x00,0x00,0x00,0x00,0x00,0x00,0xff,0xe1,0x1f,0x00,0x00,
 0x00,0x00,0x00,0x00,0x00,0x00,0x00,0x00,0x00,0x00,0x00,0x00,
 0x00,0x00,0x00,0x00,0x00,0x00,0x00,0x00,0x00,0x00,0x00,0x00,
 0x00,0x00,0x00,0xff,0xe1,0x3f,0x00,0x00,0x00,0x00,0x00,0x00,
 0x00,0x00,0x00,0x00,0x00,0x00,0x00,0x00,0x00,0x00,0x00,0x00,
 0x00,0x00,0x00,0x00,0x00,0x00,0x00,0x00,0x00,0x00,0x00,0xff,
 0xe1,0x3f,0x00,0x00,0x00,0xc0,0xff,0x07,0x3c,0x00,0x00,0x00,
 0x00,0x00,0xe0,0x7f,0x00,0x00,0x00,0x00,0x00,0x00,0x0f,0x00,
 0x00,0x00,0x00,0x00,0x00,0x00,0x00,0xff,0xe1,0x3f,0x00,0x00,
 0x00,0xc0,0xff,0x1f,0x7c,0x00,0x00,0x00,0x00,0x00,0xf8,0x7f,
 0x00,0x00,0x00,0x00,0x00,0x00,0x0f,0x00,0x00,0x00,0x00,0x00,
 0x00,0x00,0x00,0xff,0xe1,0x7f,0x00,0x00,0x00,0xc0,0xff,0x3f,
 0x7c,0x00,0x00,0x00,0x00,0x00,0xf8,0x7f,0x00,0x00,0x00,0x00,
 0x00,0x00,0x0f,0x00,0x00,0x00,0x00,0x00,0x00,0x00,0x00,0xff,
 0xe1,0x7f,0x00,0x00,0x00,0xc0,0x03,0x3c,0x7c,0x00,0x00,0x00,
 0x00,0x00,0x3c,0x00,0xf0,0x00,0x00,0x00,0x78,0x00,0x0f,0x00,
 0x00,0x00,0x00,0x00,0x00,0x00,0x00,0xff,0xe1,0x7f,0x00,0x00,
 0x00,0xc0,0x03,0x7c,0x7c,0x00,0x00,0x00,0x00,0x00,0x3c,0x00,
 0xf0,0x00,0x00,0x00,0x78,0x00,0x00,0x00,0x00,0x00,0x00,0x00,
 0x00,0x00,0x00,0xff,0xe1,0x7f,0x00,0x00,0x00,0xc0,0x03,0x78,
 0x7c,0x00,0x00,0x00,0x00,0x00,0x1e,0x00,0xf0,0x00,0x00,0x00,
 0x78,0x00,0x00,0x00,0x00,0x00,0x00,0x00,0x00,0x00,0x00,0xff,
 0xe1,0x7f,0x00,0x00,0x00,0xc0,0x03,0x78,0x7c,0x00,0x00,0x00,
 0x00,0x00,0x1e,0x00,0xf0,0x01,0x00,0x00,0xf8,0x00,0x00,0x00,
 0x00,0x00,0x00,0x00,0x00,0x00,0x00,0xff,0xe1,0x7f,0x00,0x00,
 0x00,0xc0,0x03,0x78,0x7c,0xc0,0xff,0xe3,0x03,0x78,0x1e,0x00,
 0xf0,0x1f,0xf8,0x7f,0xf8,0x0f,0x0f,0xf8,0x0f,0xf8,0x7f,0x00,
 0x00,0x00,0x00,0xff,0xe1,0x7f,0x00,0x00,0x00,0xc0,0x03,0x78,
 0x7c,0xe0,0xff,0xc3,0x03,0x3c,0x1e,0x00,0xf0,0x1f,0xfc,0x7f,
 0xf8,0x0f,0x0f,0xfc,0x1f,0xf8,0xff,0x00,0x00,0x00,0x00,0xff,
 0xe1,0x7f,0x00,0x00,0x00,0xc0,0x03,0x78,0x7c,0xf0,0xc1,0xc3,
 0x03,0x3c,0x3e,0x00,0xf0,0x00,0x3e,0x78,0xf8,0x00,0x0f,0x3e,
 0x3e,0xf8,0xe0,0x01,0x00,0x00,0x00,0xff,0xe1,0x3f,0x00,0x00,
 0x00,0xc0,0x03,0x78,0x7c,0xf8,0xc0,0xc3,0x07,0x3c,0x3c,0x00,
 0xf0,0x00,0x1f,0x78,0x78,0x00,0x0f,0x1f,0x7c,0x78,0xc0,0x03,
 0x00,0x00,0x00,0xff,0xe1,0x3f,0x00,0x00,0x00,0xc0,0x03,0x78,
 0x7c,0x78,0xc0,0x83,0x07,0x1e,0xfc,0x03,0xf0,0x00,0x0f,0x78,
 0x78,0x00,0x0f,0x0f,0x78,0x78,0xc0,0x03,0x00,0x00,0x00,0xff,
 0xe1,0x1f,0x00,0x00,0x00,0xc0,0x03,0x3c,0x7c,0x78,0xc0,0x83,
 0x07,0x1e,0xf8,0x3f,0xf0,0x00,0x0f,0x78,0x78,0x00,0x0f,0x0f,
 0x78,0x78,0xc0,0x03,0x00,0x00,0x00,0xff,0xe1,0x1f,0x00,0x00,
 0x00,0xc0,0x03,0x3c,0x7c,0x7c,0xc0,0x83,0x0f,0x0e,0xf8,0x7f,
 0xf0,0x00,0x0f,0x78,0x78,0x00,0x0f,0x0f,0xf8,0x78,0x80,0x07,
 0x00,0x00,0x00,0xff,0xc1,0x07,0x00,0x00,0x00,0xc0,0xe3,0x1f,
 0x7c,0x7c,0xc0,0x83,0x0f,0x0f,0xe0,0x7f,0xf0,0x80,0x0f,0x78,
 0x78,0x00,0x8f,0x0f,0xf8,0x78,0x80,0x07,0x00,0x00,0x30,0xff,
 0x01,0x00,0x00,0x00,0x00,0xc0,0xe3,0x1f,0x7c,0x7c,0xc0,0x03,
 0x0f,0x0f,0x00,0xfc,0xf0,0x80,0x0f,0x78,0x78,0x00,0x8f,0x0f,
 0xf8,0x78,0x80,0x07,0x00,0x00,0x3c,0xff,0x01,0x00,0x00,0x00,
 0x00,0xc0,0xe3,0x07,0x7c,0x3c,0xc0,0x03,0x1f,0x07,0x00,0xf8,
 0xf0,0x80,0x0f,0x78,0x78,0x00,0x8f,0x0f,0xf8,0x78,0x80,0x07,
 0x00,0x80,0x3f,0xff,0x01,0xfe,0x01,0x00,0x00,0xc0,0x03,0x00,
 0x7c,0x3c,0xc0,0x03,0x9f,0x07,0x00,0xf0,0xf0,0x80,0x0f,0x78,
 0x78,0x00,0x8f,0x0f,0xf8,0x78,0x80,0x07,0x00,0xf0,0x3f,0xff,
 0xe1,0xff,0x3f,0x00,0x00,0xc0,0x03,0x00,0x7c,0x3c,0xc0,0x03,
 0x9e,0x07,0x00,0xf0,0xf0,0x80,0x0f,0x78,0x78,0x00,0x8f,0x0f,
 0xf8,0x78,0x80,0x07,0x00,0xfc,0x3f,0xff,0xf9,0xff,0xff,0x00,
 0x00,0xc0,0x03,0x00,0x7c,0x3c,0xc0,0x03,0xfe,0x03,0x00,0xf0,
 0xf0,0x80,0x0f,0x78,0x78,0x00,0x8f,0x0f,0xf8,0x78,0x80,0x07,
 0x80,0xff,0x1f,0xff,0xf9,0x3f,0xfc,0x03,0x00,0xc0,0x03,0x00,
 0x7c,0x3c,0xc0,0x03,0xfe,0x03,0x00,0xf0,0xf0,0x80,0x0f,0x78,
 0x78,0x00,0x0f,0x0f,0xf8,0x78,0x80,0x07,0xe0,0xff,0x03,0xff,
 0xf9,0x07,0xf8,0x07,0x00,0xc0,0x03,0x00,0x7c,0x3c,0xc0,0x03,
 0xfc,0x03,0x00,0xf0,0xf0,0x80,0x0f,0x78,0x78,0x00,0x0f,0x0f,
 0x78,0x78,0x80,0x07,0xf0,0xff,0x00,0xff,0xf9,0x00,0xf8,0x07,
 0x00,0xc0,0x03,0x00,0x7c,0x7c,0xc0,0x03,0xfc,0x01,0x00,0xf0,
 0xf0,0x80,0x0f,0x78,0xf8,0x00,0x0f,0x0f,0x78,0x78,0x80,0x07,
 0xf8,0x1f,0x00,0xff,0x39,0x00,0xff,0x07,0x00,0xc0,0x03,0x00,
 0x7c,0x78,0xc0,0x03,0xfc,0x01,0x00,0xf8,0xf0,0x00,0x0f,0x78,
 0xf0,0x00,0x0f,0x1f,0x7c,0x78,0x80,0x07,0xf8,0x07,0x20,0xff,
 0x01,0xc0,0xff,0x03,0x00,0xc0,0x03,0x00,0x7c,0xf8,0xc0,0x03,
 0xf8,0x00,0x00,0x7c,0xe0,0x01,0x1f,0x78,0xf0,0x01,0x0f,0x3e,
 0x3e,0x78,0x80,0x07,0xf0,0x07,0x3c,0xff,0x01,0xf8,0xff,0x00,
 0x00,0xc0,0x03,0x00,0x7c,0xf0,0xc7,0x03,0xf8,0x00,0xfc,0x3f,
 0xe0,0x0f,0xfe,0x78,0xe0,0x07,0x0f,0xfc,0x1f,0x78,0x80,0x07,
 0xe0,0xff,0x3f,0xff,0x01,0xff,0x3f,0x00,0x00,0xc0,0x03,0x00,
 0x7c,0xe0,0xc7,0x03,0xf8,0x00,0xfc,0x1f,0xc0,0x0f,0xfc,0x78,
 0xc0,0x07,0x0f,0xf8,0x0f,0x78,0x80,0x07,0x80,0xff,0x3f,0xff,
 0xc1,0xff,0x0f,0x00,0x00,0x00,0x00,0x00,0x00,0x00,0x00,0x00,
 0x78,0x00,0x00,0x00,0x00,0x00,0x00,0x00,0x00,0x00,0x00,0x00,
 0x00,0x00,0x00,0x00,0x00,0xfc,0x3f,0xff,0xf9,0xff,0x01,0x00,
 0x00,0x00,0x00,0x00,0x00,0x00,0x00,0x00,0x78,0x00,0x00,0x00,
 0x00,0x00,0x00,0x00,0x00,0x00,0x00,0x00,0x00,0x00,0x00,0x00,
 0x00,0x00,0x00,0xff,0xf9,0x3f,0x00,0x00,0x00,0x00,0x00,0x00,
 0x00,0x00,0x00,0x00,0x78,0x00,0x00,0x00,0x00,0x00,0x00,0x00,
 0x00,0x00,0x00,0x00,0x00,0x00,0x00,0x00,0x00,0x00,0x00,0xff,
 0xf9,0x0f,0x00,0x00,0x00,0x00,0x00,0x00,0x00,0x00,0x00,0x00,
 0x3c,0x00,0x00,0x00,0x00,0x00,0x00,0x00,0x00,0x00,0x00,0x00,
 0x00,0x00,0x00,0x00,0x00,0x00,0x00,0xff,0xf9,0x01,0x00,0x00,
 0x00,0x00,0x00,0x00,0x00,0x00,0x00,0x00,0x3c,0x00,0x00,0x00,
 0x00,0x00,0x00,0x00,0x00,0x00,0x00,0x00,0x00,0x00,0x00,0x00,
 0x00,0x00,0x00,0xf8,0x39,0x00,0x00,0x00,0x00,0x00,0x00,0x00,
 0x00,0x00,0x00,0x00,0x1c,0x00,0x00,0x00,0x00,0x00,0x00,0x00,
 0x00,0x00,0x00,0x00,0x00,0x00,0x00,0x00,0x00,0x00,0x00,0xc0,
 0x09,0x00,0x00,0x00,0x00,0x00,0x00,0x00,0x00,0x00,0x00,0x00,
 0x1e,0x00,0x00,0x00,0x00,0x00,0x00,0x00,0x00,0x00,0x00,0x00,
 0x00,0x00,0x00,0x00,0x00,0x00,0x00,0x00,0x00,0x00,0x00,0x00,
 0x00,0x00,0x00,0x00,0x00,0x00,0x00,0x00,0x1e,0x00,0x00,0x00,
 0x00,0x00,0x00,0x00,0x00,0x00,0x00,0x00,0x00,0x00,0x00,0x00,
 0x00,0x00,0x00,0x00,0x00,0x00,0x00,0x00,0x00,0x00,0x00,0x00,
 0x00,0x00,0x00,0x00,0x0e,0x00,0x00,0x00,0x00,0x00,0x00,0x00,
 0x00,0x00,0x00,0x00,0x00,0x00,0x00,0x00,0x00,0x00,0x00,0x00,
 0x00,0x00,0x00,0x00,0x00,0x00,0x00,0x00,0x00,0x00,0x00,0x00,
 0x0f,0x00,0x00,0x00,0x00,0x00,0x00,0x00,0x00,0x00,0x00,0x00,
 0x00,0x00,0x00,0x00,0x00,0x00,0x00,0x00,0x00,0x00,0x00,0x00,
 0x00,0x00,0x00,0x00,0x00,0x00,0x00,0x00,0x0f,0x00,0x00,0x00,
 0x00,0x00,0x00,0x00,0x00,0x00,0x00,0x00,0x00,0x00,0x00,0x00,
 0x00,0x00,0x00,0x00,0x00,0x00,0x00,0x00,0x00,0x00,0x00,0x00,
 0x00,0x00,0x00,0x00,0x00,0x00,0x00,0x00,0x00,0x00,0x00,0x00,
 0x00,0x00,0x00,0x00,0x00,0x00,0x00,0x00,0x00,0x00,0x00,0x00,
 0x00,0x00,0x00,0x00,0x00,0x00,0x00,0x00,0x00,0x00,0x00,0x00,
 0x00,0x00,0x00,0x00,0x00,0x00,0x00,0x00,0x00,0x00,0x00,0x00,
 0x00,0x00,0x00,0x00,0x00,0x00,0x00,0x00,0x00,0x00,0x00,0x00,
 0x00,0x00,0x00,0x00,0x00,0x00,0x00,0x00,0x00,0x00,0x00,0x00,
 0x00,0x00,0x00,0x00,0x00,0x00,0x00,0x00,0x00,0x00,0x00,0x00,
 0x00,0x00,0x00,0x00,0x00,0x00,0x00,0x00,0x00,0x00,0x00,0x00,
 0x00,0x00,0x00,0x00,0x00,0x00,0x00,0x00,0x00,0x00,0x00,0x00,
 0x00,0x00,0x00,0x00,0x00,0x00,0x00,0x00,0x00,0x00,0x00,0x00,
 0x00,0x00,0x00,0x00,0x00,0x00,0x00,0x00,0x00,0x00,0x00,0x00,
 0x00,0x00,0x00,0x00,0x00,0x00,0x00,0x00,0x00,0x00,0x00,0x00,
 0x00,0x00,0x00,0x00,0x00,0x00,0x00,0x00,0x00,0x00,0x00,0x00,
 0x00,0x00,0x00,0x00,0x00,0x00,0x00,0x00,0x00,0x00,0x00,0x00,
 0x00,0x00,0x00,0x00,0x00,0x00,0x00,0x00,0x00,0x00,0x00,0x00,
 0x00,0x00,0x00,0x00,0x00,0x00,0x00,0x00,0x00,0x00,0x00,0x00,
 0x00,0x00,0x00,0x00,0x00,0x00,0x00,0x00,0x00,0x00,0x00,0x00,
 0x00,0x00,0x00,0x00,0x00,0x00,0x00,0x00 };
