#define _width 256
#define _height 64
static char _bits[] = {
 0x00,0x00,0x00,0x00,0x00,0x00,0x00,0x00,0x00,0x00,0x00,0x00,0x00,0x00,0x00,
 0x00,0x00,0x00,0x00,0x00,0x00,0x00,0x00,0x00,0x00,0x00,0x00,0x00,0x00,0x00,
 0x00,0x00,0x00,0x00,0x00,0x00,0x00,0x00,0x00,0x00,0x00,0x00,0x00,0x00,0x00,
 0x00,0x00,0x00,0x00,0x00,0x00,0x00,0x00,0x00,0x00,0x00,0x00,0x00,0x00,0x00,
 0x00,0x00,0x00,0x00,0x00,0x00,0x00,0x00,0x00,0x00,0x00,0x00,0x00,0x00,0x00,
 0x00,0x00,0x00,0x00,0x00,0x00,0x00,0x00,0x00,0x00,0x00,0x00,0x00,0x00,0x00,
 0x00,0x00,0x00,0x00,0x00,0x00,0x00,0x00,0x00,0x00,0x00,0x00,0x00,0x00,0x00,
 0x00,0x00,0x00,0x00,0x00,0x00,0x00,0x00,0x00,0x00,0x00,0x00,0x00,0x00,0x00,
 0x00,0x00,0x00,0x00,0x00,0x00,0x00,0x00,0x00,0x00,0x00,0x00,0x00,0x00,0x00,
 0x00,0x00,0x00,0x00,0x00,0x00,0x00,0x00,0x00,0x00,0x00,0x00,0x00,0x00,0x00,
 0x00,0x00,0x00,0x00,0x00,0x00,0x00,0x00,0x00,0x00,0xf8,0xff,0xff,0xff,0xff,
 0xff,0xff,0xff,0xff,0xff,0xff,0xff,0xff,0xff,0xff,0xff,0xff,0xff,0xff,0xff,
 0xff,0xff,0xff,0xff,0xff,0xff,0xff,0xff,0xff,0xff,0xff,0x1f,0xfc,0xff,0xff,
 0xff,0xff,0xff,0xff,0xff,0xff,0xff,0xff,0xff,0xff,0xff,0xff,0xff,0xff,0xff,
 0xff,0xff,0xff,0xff,0xff,0xff,0xff,0xff,0xff,0xff,0xff,0xff,0xff,0x3f,0xfe,
 0xff,0xff,0xff,0xff,0xff,0xff,0xff,0xff,0xff,0xff,0xff,0xff,0xff,0xff,0xff,
 0xff,0xff,0xff,0xff,0xff,0xff,0xff,0xff,0xff,0xff,0xff,0xff,0xff,0xff,0xff,
 0x7f,0x0f,0x00,0x00,0x00,0x00,0x00,0x00,0x00,0x00,0x00,0x00,0x00,0x00,0x00,
 0x00,0x00,0x00,0x00,0x00,0x00,0x00,0x00,0x00,0x00,0x00,0x00,0x00,0x00,0x00,
 0x00,0x00,0xf0,0x07,0x00,0x00,0x00,0x00,0x00,0x00,0x00,0x00,0x00,0x00,0x00,
 0x00,0x00,0x00,0x00,0x00,0x00,0x00,0x00,0x00,0x00,0x00,0x00,0x00,0x00,0x00,
 0x00,0x00,0x00,0x00,0xe0,0x07,0x00,0x00,0x00,0x00,0x00,0x00,0x00,0x00,0x00,
 0x00,0x00,0x00,0x00,0x00,0x00,0x00,0x00,0x00,0x00,0x00,0x00,0x00,0x00,0x00,
 0x00,0x00,0x00,0x00,0x00,0x00,0xe0,0x07,0x00,0x00,0x00,0x00,0x00,0x00,0x00,
 0x00,0x00,0x00,0x00,0x00,0x00,0x00,0x00,0x00,0x00,0x00,0x00,0x00,0x00,0x02,
 0x00,0x00,0x00,0x40,0x00,0x00,0x00,0x00,0xe0,0x07,0x00,0x00,0x00,0x00,0x00,
 0x00,0x00,0x00,0x00,0x00,0x00,0x00,0x00,0x00,0x00,0x00,0x00,0x04,0x01,0x00,
 0x00,0x13,0x00,0x18,0x00,0xc0,0x22,0x00,0x00,0x00,0xe0,0x07,0xff,0xff,0x0f,
 0xf0,0xff,0xf3,0xff,0x01,0x80,0xff,0x01,0xe0,0xff,0x07,0x40,0x02,0x00,0x2c,
 0x03,0x00,0x80,0x1f,0x00,0x58,0x00,0xc0,0x25,0xf0,0xff,0x03,0xe0,0x07,0x01,
 0x00,0x38,0x10,0x00,0x12,0x00,0x01,0xf0,0xe0,0x0f,0x20,0x00,0x04,0xc0,0x07,
 0x00,0x7c,0x07,0x00,0xc0,0x5e,0x00,0xfc,0x04,0x40,0x6f,0x10,0x00,0x02,0xe0,
 0x07,0xf9,0xff,0xdf,0x90,0xff,0x9f,0xff,0x0f,0x18,0x3f,0x78,0x20,0xff,0x3f,
 0xc0,0x0d,0x00,0xe4,0x0f,0x00,0x60,0x7e,0x00,0xe4,0x04,0x40,0xfe,0x90,0xff,
 0x3f,0xe0,0x07,0x09,0x00,0xf8,0x90,0x00,0x90,0x00,0x08,0x8c,0x01,0xc0,0x21,
 0x01,0x20,0x60,0x19,0x00,0x24,0x1f,0x00,0x30,0x7b,0x00,0xb6,0x0f,0x40,0xf6,
 0x91,0x00,0x60,0xe0,0x07,0x09,0x00,0x80,0x91,0x00,0xb0,0x00,0x08,0xe6,0x00,
 0x00,0x23,0x01,0x20,0x30,0x71,0x00,0x24,0x3f,0x00,0x98,0x79,0x00,0x12,0x0f,
 0x40,0xe2,0x91,0x00,0xe0,0xe0,0x07,0x09,0x00,0x00,0x93,0x00,0xf0,0x00,0xf8,
 0x33,0x00,0x00,0x26,0x01,0xe0,0x99,0xe1,0x00,0x24,0x3e,0x00,0xdc,0x78,0x00,
 0x1b,0x1f,0x40,0xe2,0x93,0x00,0xe0,0xe1,0x07,0x09,0x00,0x00,0x96,0x00,0xf0,
 0x00,0xf8,0x19,0x00,0x00,0x2c,0x01,0xe0,0xcd,0x80,0x01,0x24,0x7c,0x00,0x6c,
 0x78,0x00,0x09,0x3e,0x40,0xc2,0x97,0x00,0xe0,0xe1,0x07,0x09,0x00,0x00,0x9c,
 0x00,0xf0,0x00,0xf8,0x0c,0x00,0x00,0x38,0x01,0xe0,0x67,0x00,0x03,0x24,0xf8,
 0x00,0x36,0x78,0x80,0x0d,0x3e,0x40,0x82,0x9f,0x00,0xe0,0xe1,0x07,0x09,0x00,
 0x00,0xb8,0x00,0xf0,0x00,0xf8,0x06,0x00,0x00,0xb0,0x01,0xe0,0x33,0x00,0x06,
 0x24,0xf0,0x01,0x1b,0x78,0x80,0x04,0x7c,0x40,0x02,0x9f,0x00,0xe0,0xe1,0x07,
 0x09,0x00,0x00,0xb0,0x00,0xf0,0x00,0xf8,0x03,0x00,0x00,0xa1,0x01,0xe0,0x19,
 0x00,0x0c,0x24,0xe0,0x81,0x0d,0x78,0xc0,0x06,0x78,0x40,0x02,0x9f,0x00,0xe0,
 0xe1,0x07,0x09,0x00,0x00,0xf0,0x00,0xf0,0x00,0x79,0x01,0x00,0x80,0xe1,0x01,
 0xe0,0x0f,0x00,0x08,0x24,0xc0,0xc3,0x06,0x78,0x40,0x02,0xf8,0x40,0x02,0x9e,
 0x00,0xe0,0xe1,0x07,0x09,0x00,0x00,0xe0,0x00,0xf0,0x00,0xf9,0x01,0x00,0xe0,
 0xf8,0x01,0xe0,0x01,0x00,0x0c,0x24,0xc0,0x67,0x03,0x78,0x60,0x03,0xf0,0x40,
 0x02,0x9c,0x00,0xe0,0xe1,0x07,0x09,0x00,0x02,0xe0,0x00,0xf0,0x00,0xf9,0x00,
 0x00,0x38,0xfe,0x01,0x20,0x00,0xc0,0x0c,0x24,0x80,0xbf,0x01,0x78,0x20,0x01,
 0xf0,0x41,0x02,0x9c,0x00,0xe0,0xe1,0x07,0x09,0x00,0x07,0xe0,0x00,0xf0,0x00,
 0xf9,0x00,0x00,0x0c,0xff,0x01,0x00,0x00,0x60,0x1e,0x24,0x00,0xdf,0x00,0x78,
 0xb0,0x01,0xe0,0x41,0x02,0x98,0x00,0xe0,0xe1,0x07,0x09,0x00,0x06,0xe4,0x00,
 0xf0,0x00,0x79,0x00,0x00,0xc7,0x3f,0x01,0x00,0x00,0x30,0x1f,0x24,0x00,0x6e,
 0x00,0x78,0x90,0x00,0xe0,0x43,0x02,0xb0,0x00,0xe0,0xe1,0x07,0x09,0x00,0x00,
 0xe4,0x00,0xf0,0x00,0x79,0x00,0x80,0xe1,0x3f,0x01,0x00,0x00,0x18,0x1f,0x24,
 0x00,0x34,0x00,0x78,0xd8,0x00,0xc0,0x43,0x02,0xe0,0x00,0xe0,0xe1,0x07,0x09,
 0x00,0x60,0xe6,0x00,0xf0,0x00,0x79,0x00,0x00,0xfc,0x23,0x01,0x00,0x00,0x8e,
 0x0f,0x24,0x00,0x38,0x00,0x78,0x48,0x00,0xc0,0x47,0x02,0xc0,0x00,0xe0,0xe1,
 0x07,0x09,0x00,0x30,0xf2,0x00,0xf0,0x00,0x79,0x00,0x00,0xff,0x20,0x01,0x00,
 0x00,0xc3,0x07,0x24,0x00,0x18,0x00,0x78,0x6c,0x00,0x80,0x4f,0x02,0x80,0x00,
 0xe0,0xe1,0x07,0x09,0x00,0x1f,0xf3,0x00,0xf0,0x00,0x79,0x00,0xc0,0x3f,0x20,
 0x01,0x00,0xf0,0xf1,0x03,0x24,0x00,0x00,0x00,0x78,0x24,0x00,0x00,0x4f,0x02,
 0x00,0x00,0xe0,0xe1,0x07,0x09,0x00,0x80,0xf9,0x00,0xf0,0x00,0x79,0x00,0x00,
 0xff,0x20,0x01,0x00,0x00,0xfc,0x01,0x24,0x00,0x00,0x00,0x78,0x36,0xe0,0x00,
 0x5f,0x02,0x00,0x00,0xe0,0xe1,0x07,0x09,0x00,0xe0,0xfc,0x00,0xf0,0x00,0x79,
 0x00,0x00,0x9c,0x23,0x01,0x00,0x00,0xfe,0x01,0x24,0x00,0x00,0x00,0x78,0x13,
 0xe0,0x01,0x5e,0x02,0x00,0x00,0xe0,0xe1,0x07,0x09,0xe0,0x3f,0xfe,0x00,0xf0,
 0x00,0x79,0x00,0x00,0x70,0x2f,0x01,0x00,0x00,0xf8,0x01,0x24,0x00,0x00,0x00,
 0x78,0x19,0xf0,0x01,0x7e,0x02,0x00,0x00,0xe0,0xe1,0x07,0x09,0x20,0x00,0xbf,
 0x00,0xf0,0x00,0x79,0x00,0x80,0xc3,0x28,0x01,0x00,0x00,0xc0,0x07,0x24,0x00,
 0x00,0x00,0xf8,0x0d,0xe0,0x08,0x7c,0x02,0x00,0x00,0xe0,0xe1,0x07,0x09,0x20,
 0xf0,0xbf,0x01,0x00,0x00,0x79,0x00,0x00,0x8e,0x2b,0x01,0x00,0x00,0x00,0x04,
 0x24,0x00,0x00,0x00,0xf8,0x04,0x40,0x08,0x7c,0x02,0x00,0x00,0xe0,0xe1,0x07,
 0x09,0x20,0xff,0x6f,0x01,0x00,0x00,0xf9,0x00,0x00,0x38,0x2e,0x01,0x04,0x00,
 0x00,0x3c,0x24,0x00,0x00,0x00,0xf8,0x06,0x00,0x0c,0xf8,0x02,0x00,0x00,0xe0,
 0xe1,0x07,0x09,0x20,0xff,0x47,0x01,0x00,0x80,0xf9,0x00,0x00,0xe0,0x38,0x01,
 0x24,0x06,0x00,0x3c,0x24,0x00,0x00,0x00,0xf9,0x02,0x00,0x07,0xf0,0x02,0x00,
 0x00,0xe4,0xe1,0x07,0x09,0x20,0xff,0x81,0x03,0x00,0x80,0xfc,0x01,0x00,0x80,
 0xe3,0x01,0x64,0x0c,0x00,0x3d,0x24,0x00,0x00,0x00,0xf9,0x03,0x80,0x01,0xf0,
 0x03,0x00,0x00,0xe4,0xe1,0x07,0x09,0x20,0x1f,0x00,0x03,0x00,0xc0,0x7c,0x01,
 0x00,0x00,0xe2,0x01,0xe4,0x18,0x00,0x3d,0x24,0x00,0x00,0x00,0xf9,0x01,0x00,
 0x00,0xe0,0x03,0x00,0x00,0xe4,0xe1,0x07,0x09,0x20,0x0f,0x00,0x06,0x00,0x60,
 0x3e,0x03,0x00,0x00,0xf3,0x01,0xe4,0x71,0x00,0x3d,0x24,0x00,0x00,0x00,0xf9,
 0x01,0x00,0x00,0xe0,0x03,0x00,0x00,0xe4,0xe1,0x07,0x09,0x20,0x0f,0x00,0x0c,
 0x00,0x38,0x3f,0x06,0x00,0x00,0xf1,0x01,0xe4,0xc3,0x01,0x3d,0x24,0x00,0x00,
 0x00,0xf9,0x00,0x00,0x00,0xc0,0x03,0x00,0x00,0xe4,0xe1,0x07,0x09,0x20,0x0f,
 0x00,0x18,0x10,0x8f,0x1f,0x0c,0x00,0x80,0xf9,0x01,0xe4,0x0f,0x1f,0x3d,0x24,
 0x00,0x00,0x00,0xf9,0x00,0x00,0x00,0xc0,0x03,0x00,0x00,0xe4,0xe1,0x07,0x8f,
 0x3f,0x0f,0x00,0x30,0xf0,0xc1,0x1f,0x08,0x00,0xe0,0xfc,0xf1,0xe7,0x3d,0xf0,
 0x3d,0x3c,0x00,0x00,0xfe,0x79,0x00,0x00,0x00,0x80,0x07,0x00,0xfc,0xe7,0xe1,
 0x07,0x08,0x00,0x0f,0x00,0x60,0x00,0xe0,0x0f,0x38,0x00,0x3c,0xfe,0x01,0xe0,
 0xf1,0x01,0x3c,0x20,0x00,0x00,0x00,0x78,0x00,0x00,0x00,0x80,0x0f,0x00,0x00,
 0xe0,0xe1,0x07,0x08,0x00,0x0f,0x00,0xc0,0x07,0xfe,0x07,0xe0,0x80,0x87,0x1f,
 0x01,0xe0,0xe1,0x3f,0x3c,0x20,0x00,0x00,0x00,0x78,0x00,0x00,0x00,0x00,0x1f,
 0x00,0x00,0xe0,0xe1,0x07,0xf8,0xff,0x0f,0x00,0x00,0xff,0xff,0x03,0xc0,0x03,
 0xe0,0x0f,0xff,0xff,0x81,0xff,0x3f,0xe0,0xff,0xff,0xff,0xff,0xff,0xff,0xff,
 0xff,0xff,0xff,0xff,0xff,0xe1,0x07,0xc0,0xff,0x0f,0x00,0x00,0xfe,0xff,0x01,
 0x80,0xff,0xff,0x07,0xf8,0xff,0x01,0xff,0x3f,0x00,0xff,0xff,0xff,0xff,0xff,
 0xff,0xff,0xff,0xff,0xff,0xff,0xff,0xe1,0x07,0xc0,0xff,0x0f,0x00,0x00,0xf0,
 0x7f,0x00,0x00,0xfe,0xff,0x01,0xf8,0xff,0x01,0xf0,0x3f,0x00,0xff,0xff,0xff,
 0xff,0xff,0xff,0xff,0xff,0xff,0xff,0xff,0xff,0xe1,0x07,0xc0,0xff,0x0f,0x00,
 0x00,0x00,0x00,0x00,0x00,0xf8,0xff,0x00,0xf8,0xff,0x01,0x00,0x3e,0x00,0xff,
 0xff,0xff,0xff,0xff,0xff,0xff,0xff,0xff,0xff,0xff,0xff,0xe1,0x07,0x00,0x00,
 0x00,0x00,0x00,0x00,0x00,0x00,0x00,0xc0,0x1f,0x00,0x00,0x00,0x00,0x00,0x00,
 0x00,0x00,0x00,0x00,0x00,0x00,0x00,0x00,0x00,0x00,0x00,0x00,0x00,0xe0,0x07,
 0x00,0x00,0x00,0x00,0x00,0x00,0x00,0x00,0x00,0x00,0x00,0x00,0x00,0x00,0x00,
 0x00,0x00,0x00,0x00,0x00,0x00,0x00,0x00,0x00,0x00,0x00,0x00,0x00,0x00,0x00,
 0xe0,0x07,0x00,0x00,0x00,0x00,0x00,0x00,0x00,0x00,0x00,0x00,0x00,0x00,0x00,
 0x00,0x00,0x00,0x00,0x00,0x00,0x00,0x00,0x00,0x00,0x00,0x00,0x00,0x00,0x00,
 0x00,0x00,0xe0,0x0f,0x00,0x00,0x00,0x00,0x00,0x00,0x00,0x00,0x00,0x00,0x00,
 0x00,0x00,0x00,0x00,0x00,0x00,0x00,0x00,0x00,0x00,0x00,0x00,0x00,0x00,0x00,
 0x00,0x00,0x00,0x00,0xf0,0xfe,0xff,0xff,0xff,0xff,0xff,0xff,0xff,0xff,0xff,
 0xff,0xff,0xff,0xff,0xff,0xff,0xff,0xff,0xff,0xff,0xff,0xff,0xff,0xff,0xff,
 0xff,0xff,0xff,0xff,0xff,0xff,0x7f,0xfc,0xff,0xff,0xff,0xff,0xff,0xff,0xff,
 0xff,0xff,0xff,0xff,0xff,0xff,0xff,0xff,0xff,0xff,0xff,0xff,0xff,0xff,0xff,
 0xff,0xff,0xff,0xff,0xff,0xff,0xff,0xff,0x3f,0xf8,0xff,0xff,0xff,0xff,0xff,
 0xff,0xff,0xff,0xff,0xff,0xff,0xff,0xff,0xff,0xff,0xff,0xff,0xff,0xff,0xff,
 0xff,0xff,0xff,0xff,0xff,0xff,0xff,0xff,0xff,0xff,0x1f,0x00,0x00,0x00,0x00,
 0x00,0x00,0x00,0x00,0x00,0x00,0x00,0x00,0x00,0x00,0x00,0x00,0x00,0x00,0x00,
 0x00,0x00,0x00,0x00,0x00,0x00,0x00,0x00,0x00,0x00,0x00,0x00,0x00,0x00,0x00,
 0x00,0x00,0x00,0x00,0x00,0x00,0x00,0x00,0x00,0x00,0x00,0x00,0x00,0x00,0x00,
 0x00,0x00,0x00,0x00,0x00,0x00,0x00,0x00,0x00,0x00,0x00,0x00,0x00,0x00,0x00,
 0x00,0x00,0x00,0x00,0x00,0x00,0x00,0x00,0x00,0x00,0x00,0x00,0x00,0x00,0x00,
 0x00,0x00,0x00,0x00,0x00,0x00,0x00,0x00,0x00,0x00,0x00,0x00,0x00,0x00,0x00,
 0x00,0x00,0x00,0x00,0x00,0x00,0x00,0x00,0x00,0x00,0x00,0x00,0x00,0x00,0x00,
 0x00,0x00,0x00,0x00,0x00,0x00,0x00,0x00,0x00,0x00,0x00,0x00,0x00,0x00,0x00,
 0x00,0x00,0x00,0x00,0x00,0x00,0x00,0x00,0x00,0x00,0x00,0x00,0x00,0x00,0x00,
 0x00,0x00,0x00,0x00,0x00,0x00,0x00,0x00,0x00,0x00,0x00,0x00,0x00,0x00,0x00,
 0x00,0x00,0x00,0x00,0x00,0x00,0x00,0x00,0x00,0x00,0x00,0x00,0x00,0x00,0x00,
 0x00,0x00,0x00,0x00,0x00,0x00,0x00,0x00,0x00,0x00,0x00,0x00,0x00,0x00,0x00,
 0x00,0x00,0x00,0x00,0x00,0x00,0x00,0x00 };
