#define rallyx_width 256
#define rallyx_height 64
static unsigned char rallyx_bits[] = {
   0x00, 0x00, 0x00, 0x00, 0x00, 0x00, 0x00, 0x00, 0x00, 0x00, 0x00, 0x00,
   0x00, 0x00, 0x00, 0x00, 0x00, 0x00, 0x00, 0x00, 0x00, 0x00, 0x00, 0x00,
   0x00, 0x00, 0x00, 0x00, 0x00, 0x00, 0x00, 0x00, 0x00, 0x00, 0x00, 0x00,
   0x00, 0x00, 0x00, 0x00, 0x00, 0x00, 0x00, 0x00, 0x00, 0x00, 0x00, 0x00,
   0x00, 0x00, 0x00, 0x00, 0x00, 0x00, 0x00, 0x00, 0x00, 0x00, 0x00, 0x00,
   0x00, 0x00, 0x00, 0x00, 0x00, 0x00, 0x00, 0x00, 0x00, 0x00, 0x00, 0x00,
   0x00, 0x00, 0x00, 0x00, 0x00, 0x00, 0x00, 0x00, 0x00, 0x00, 0x00, 0x00,
   0x00, 0x00, 0x00, 0x00, 0x00, 0x00, 0x00, 0x00, 0x00, 0x00, 0x00, 0x00,
   0x00, 0x00, 0x00, 0x00, 0x00, 0x00, 0x00, 0x00, 0x00, 0x00, 0x00, 0x00,
   0x00, 0x00, 0x00, 0x00, 0x00, 0x00, 0x00, 0x00, 0x00, 0x00, 0x00, 0x00,
   0x00, 0x00, 0x00, 0x00, 0x00, 0x00, 0x00, 0x00, 0x00, 0x00, 0x00, 0x00,
   0x00, 0x00, 0xff, 0xff, 0x0f, 0x80, 0xff, 0x03, 0xe0, 0x3f, 0x00, 0xfc,
   0x07, 0xff, 0x03, 0x80, 0xff, 0x00, 0x80, 0x1f, 0x00, 0x7f, 0x00, 0x00,
   0x00, 0x00, 0x00, 0x00, 0x00, 0x00, 0x00, 0x00, 0x00, 0x80, 0x01, 0x00,
   0x30, 0xc0, 0x00, 0x04, 0x18, 0x40, 0x00, 0x02, 0x98, 0xfc, 0x0c, 0x60,
   0x80, 0x01, 0x40, 0x60, 0xc0, 0xc0, 0x00, 0x00, 0x00, 0x00, 0x00, 0x00,
   0x00, 0x00, 0x00, 0x00, 0x00, 0x40, 0xfe, 0xff, 0x47, 0x60, 0xff, 0x09,
   0xc8, 0x9f, 0x00, 0xf1, 0x97, 0xfc, 0x19, 0x90, 0x3f, 0x02, 0x20, 0x9f,
   0x40, 0x80, 0x01, 0x00, 0x00, 0x00, 0x00, 0x00, 0x00, 0x00, 0x00, 0x00,
   0x00, 0x40, 0x01, 0x00, 0x98, 0xa0, 0x01, 0x13, 0x68, 0x30, 0x01, 0x09,
   0xa4, 0x06, 0x12, 0x58, 0x40, 0x02, 0xa0, 0x31, 0xa1, 0x3f, 0x01, 0x00,
   0x00, 0x00, 0x00, 0x00, 0x00, 0x00, 0x00, 0x00, 0x00, 0xa0, 0x01, 0x00,
   0x30, 0xa1, 0x00, 0x36, 0x28, 0x20, 0x01, 0x05, 0xe8, 0x04, 0x24, 0x28,
   0x40, 0x02, 0xa0, 0x61, 0xd1, 0x20, 0x01, 0x00, 0x00, 0x00, 0x00, 0x00,
   0x00, 0x00, 0x00, 0x00, 0x00, 0xa0, 0x00, 0x00, 0x20, 0xa3, 0x00, 0x24,
   0x28, 0x20, 0x02, 0x07, 0xc8, 0x0c, 0x6c, 0x34, 0x60, 0x04, 0x20, 0x41,
   0x52, 0x30, 0x01, 0x00, 0x00, 0x00, 0x00, 0x00, 0x00, 0x00, 0x00, 0x00,
   0x00, 0xa0, 0x01, 0x00, 0x40, 0xf2, 0x00, 0x44, 0x28, 0x20, 0x02, 0x05,
   0xc8, 0x09, 0x48, 0x12, 0x30, 0x04, 0x20, 0xc1, 0x2a, 0x10, 0x01, 0x00,
   0x00, 0x00, 0x00, 0x00, 0x00, 0x00, 0x00, 0x00, 0x00, 0xa0, 0x01, 0x00,
   0x40, 0x54, 0x00, 0xc4, 0x28, 0x20, 0x04, 0x05, 0x88, 0x19, 0x90, 0x0b,
   0x10, 0x04, 0x40, 0x82, 0x2c, 0x18, 0x01, 0x00, 0x00, 0x00, 0x00, 0x00,
   0x00, 0x00, 0x00, 0x00, 0x00, 0xa0, 0x01, 0x3f, 0x40, 0x58, 0x00, 0x84,
   0x28, 0x20, 0x0c, 0x05, 0x88, 0x33, 0xa0, 0x0d, 0x18, 0x04, 0x40, 0x82,
   0x15, 0x08, 0x01, 0x00, 0x00, 0x00, 0x00, 0x00, 0x00, 0x00, 0x00, 0x00,
   0x00, 0xa0, 0x00, 0x21, 0x40, 0x50, 0x00, 0x0c, 0x29, 0x20, 0x08, 0x05,
   0x08, 0x23, 0x60, 0x04, 0x0c, 0x08, 0x40, 0x04, 0x11, 0x0c, 0x01, 0x00,
   0x00, 0x00, 0x00, 0x00, 0x00, 0x00, 0x00, 0x00, 0x00, 0xa0, 0x00, 0x21,
   0x40, 0x40, 0x30, 0x0c, 0x2b, 0x20, 0x18, 0x05, 0x08, 0x67, 0x40, 0x02,
   0x04, 0x08, 0x40, 0x04, 0x09, 0x04, 0x02, 0x00, 0x00, 0x00, 0x00, 0x00,
   0x00, 0x00, 0x00, 0x00, 0x00, 0xa0, 0x01, 0x1f, 0x40, 0x40, 0x68, 0x08,
   0x26, 0x20, 0x10, 0x05, 0x08, 0xc7, 0x80, 0x03, 0x06, 0x08, 0x80, 0x08,
   0x0f, 0x06, 0x02, 0x00, 0x00, 0x00, 0x00, 0x00, 0x00, 0x00, 0x00, 0x00,
   0x00, 0xa0, 0x00, 0x00, 0x40, 0x60, 0x48, 0x08, 0x2c, 0x20, 0x20, 0x05,
   0x08, 0x86, 0x80, 0x01, 0x03, 0x10, 0x80, 0x08, 0x06, 0x02, 0x02, 0x00,
   0x00, 0x00, 0x00, 0x00, 0x00, 0x00, 0x00, 0x00, 0x00, 0xa0, 0x00, 0x00,
   0x40, 0x20, 0x48, 0x08, 0x2c, 0x20, 0x20, 0x05, 0x08, 0x8e, 0x01, 0x80,
   0x01, 0x10, 0x80, 0x18, 0x06, 0x03, 0x02, 0x00, 0x00, 0x00, 0x00, 0x00,
   0x00, 0x00, 0x00, 0x00, 0x00, 0xa0, 0x00, 0x00, 0x60, 0x20, 0x48, 0x08,
   0x20, 0x20, 0x40, 0x05, 0x08, 0x0c, 0x03, 0x80, 0x01, 0x10, 0x80, 0x10,
   0x80, 0x01, 0x02, 0x00, 0x00, 0x00, 0x00, 0x00, 0x00, 0x00, 0x00, 0x00,
   0x00, 0xa0, 0x00, 0x00, 0x30, 0x20, 0xcc, 0x18, 0x20, 0x20, 0x40, 0x05,
   0x08, 0x1c, 0x02, 0xc0, 0x00, 0x20, 0x00, 0x31, 0x80, 0x01, 0x02, 0x00,
   0x00, 0x00, 0x00, 0x00, 0x00, 0x00, 0x00, 0x00, 0x00, 0xa0, 0x00, 0x00,
   0x1c, 0x20, 0xfc, 0x10, 0x20, 0x60, 0x80, 0x05, 0x08, 0x18, 0x06, 0x60,
   0x00, 0xe0, 0x01, 0x21, 0x80, 0x00, 0x02, 0x00, 0x00, 0x00, 0x00, 0x00,
   0x00, 0x00, 0x00, 0x00, 0x00, 0xa0, 0x00, 0x00, 0x0c, 0x30, 0x00, 0x10,
   0x20, 0xe0, 0x8f, 0x05, 0xf8, 0x31, 0x04, 0x20, 0x00, 0x1f, 0x02, 0x31,
   0x80, 0x00, 0x02, 0x00, 0x00, 0x00, 0x00, 0x00, 0x00, 0x00, 0x00, 0x00,
   0x00, 0xa0, 0x00, 0x00, 0x18, 0x10, 0x00, 0x10, 0x20, 0x40, 0x1f, 0x05,
   0xf8, 0x37, 0x0c, 0x20, 0xc0, 0xff, 0x04, 0x11, 0x80, 0x00, 0x02, 0x00,
   0x00, 0x00, 0x00, 0x00, 0x00, 0x00, 0x00, 0x00, 0x00, 0xa0, 0x00, 0x00,
   0x30, 0x10, 0x00, 0x10, 0x20, 0x00, 0x30, 0x05, 0x00, 0x24, 0x0c, 0x20,
   0x40, 0x80, 0x04, 0x11, 0x80, 0x01, 0x02, 0x00, 0x00, 0x00, 0x00, 0x00,
   0x00, 0x00, 0x00, 0x00, 0x00, 0xa0, 0x00, 0x00, 0x20, 0x10, 0x00, 0x30,
   0x20, 0x00, 0x20, 0x04, 0x00, 0x64, 0x0c, 0x20, 0x40, 0x80, 0x05, 0x12,
   0x80, 0x01, 0x03, 0x00, 0x00, 0x00, 0x00, 0x00, 0x00, 0x00, 0x00, 0x00,
   0x00, 0xa0, 0x00, 0x0e, 0x20, 0x10, 0x00, 0x30, 0x20, 0x00, 0x20, 0x04,
   0x00, 0x44, 0x0c, 0x20, 0x40, 0x80, 0x09, 0x0a, 0x00, 0x01, 0x01, 0x00,
   0x00, 0x00, 0x00, 0x00, 0x00, 0x00, 0x00, 0x00, 0x00, 0xa0, 0x00, 0x1e,
   0x20, 0x10, 0x00, 0x20, 0x20, 0x00, 0x20, 0x04, 0x00, 0xc4, 0x0c, 0x30,
   0x40, 0x80, 0x09, 0x0e, 0x00, 0x81, 0x00, 0x00, 0x00, 0x00, 0x00, 0x00,
   0x00, 0x00, 0x00, 0x00, 0x00, 0xa0, 0x00, 0x12, 0x20, 0x18, 0x00, 0x20,
   0x20, 0x00, 0x20, 0x04, 0x00, 0x84, 0x0d, 0x30, 0x40, 0x80, 0x09, 0x0e,
   0x00, 0x83, 0x00, 0x00, 0x00, 0x00, 0x00, 0x00, 0x00, 0x00, 0x00, 0x00,
   0x00, 0xa0, 0x00, 0x12, 0x20, 0x08, 0x00, 0x20, 0x20, 0x00, 0x20, 0x04,
   0x00, 0x84, 0x09, 0x30, 0x40, 0x80, 0x09, 0x06, 0x00, 0x42, 0x00, 0x00,
   0x00, 0x00, 0x00, 0x00, 0x00, 0x00, 0x00, 0x00, 0x00, 0xa0, 0x00, 0x12,
   0x20, 0x08, 0x00, 0x60, 0x20, 0x00, 0x20, 0x04, 0x00, 0x04, 0x0f, 0x30,
   0xc0, 0xf1, 0x10, 0x07, 0x00, 0x42, 0x00, 0x00, 0x00, 0x00, 0x00, 0x00,
   0x00, 0x00, 0x00, 0x00, 0x00, 0xa0, 0x00, 0x12, 0x20, 0x08, 0x00, 0x60,
   0x20, 0x00, 0x30, 0x04, 0x00, 0x04, 0x0f, 0x30, 0x80, 0x7f, 0x10, 0x07,
   0x00, 0x26, 0x00, 0x00, 0x00, 0x00, 0x00, 0x00, 0x00, 0x00, 0x00, 0x00,
   0x00, 0xa0, 0x00, 0x12, 0x20, 0x08, 0x00, 0x40, 0x20, 0x00, 0x20, 0x04,
   0x00, 0x04, 0x0e, 0x30, 0x00, 0x00, 0x10, 0x03, 0x00, 0x26, 0x00, 0x00,
   0x00, 0x00, 0x00, 0x00, 0x00, 0x00, 0x00, 0x00, 0x00, 0xa0, 0x00, 0x12,
   0x20, 0x0c, 0x00, 0x40, 0x20, 0x00, 0x20, 0x0c, 0x00, 0x04, 0x0e, 0x30,
   0x00, 0x00, 0xa0, 0x03, 0x00, 0x14, 0x00, 0x00, 0x00, 0x00, 0x00, 0x00,
   0x00, 0x00, 0x00, 0x00, 0x00, 0xa0, 0x00, 0x12, 0x20, 0x04, 0x00, 0x40,
   0x20, 0x00, 0x30, 0x0c, 0x00, 0x04, 0x0c, 0x30, 0x00, 0x00, 0xa0, 0x03,
   0x00, 0x14, 0x00, 0x00, 0x00, 0x00, 0x00, 0x00, 0x00, 0x00, 0x00, 0x00,
   0x00, 0xa0, 0x00, 0x12, 0x20, 0x04, 0x00, 0x40, 0x20, 0x00, 0x30, 0x0c,
   0x00, 0x04, 0x08, 0x30, 0x00, 0x00, 0xe0, 0x01, 0x00, 0x2c, 0x00, 0x00,
   0x00, 0x00, 0x00, 0x00, 0x00, 0x00, 0x00, 0x00, 0x00, 0xa0, 0x00, 0x12,
   0x20, 0x04, 0x00, 0xc0, 0x20, 0x00, 0x30, 0x0c, 0x00, 0x04, 0x08, 0x30,
   0x60, 0x00, 0xe0, 0x01, 0x06, 0x28, 0x00, 0x00, 0x00, 0x00, 0x00, 0x00,
   0x00, 0x00, 0x00, 0x00, 0x00, 0xa0, 0x00, 0x12, 0x20, 0x04, 0x00, 0x80,
   0x20, 0x00, 0x30, 0x0c, 0x00, 0x04, 0x08, 0x30, 0x60, 0x00, 0xe0, 0x01,
   0x06, 0x28, 0x00, 0x00, 0x00, 0x00, 0x00, 0x00, 0x00, 0x00, 0x00, 0x00,
   0x00, 0xa0, 0x00, 0x12, 0x20, 0x04, 0x00, 0x80, 0x20, 0x00, 0x30, 0x0c,
   0x00, 0x04, 0x08, 0x30, 0x90, 0x00, 0xe0, 0x00, 0x07, 0x68, 0x00, 0x00,
   0x00, 0x00, 0x00, 0x00, 0x00, 0x00, 0x00, 0x00, 0x00, 0xa0, 0x00, 0x12,
   0x20, 0x06, 0x00, 0x80, 0x20, 0x00, 0x30, 0x0c, 0x00, 0x04, 0x08, 0x30,
   0x90, 0x00, 0xe0, 0x00, 0x0f, 0x58, 0x00, 0x00, 0x00, 0x00, 0x00, 0x00,
   0x00, 0x00, 0x00, 0x00, 0x00, 0xa0, 0x00, 0x12, 0x20, 0x02, 0x00, 0x80,
   0x20, 0x00, 0x30, 0x0c, 0x00, 0x04, 0x08, 0x30, 0x90, 0x00, 0xc0, 0x00,
   0x09, 0x50, 0x00, 0x00, 0x00, 0x00, 0x00, 0x00, 0x00, 0x00, 0x00, 0x00,
   0x00, 0xa0, 0x00, 0x1a, 0x20, 0x02, 0x00, 0x80, 0x21, 0x00, 0x30, 0x0c,
   0x00, 0x04, 0x08, 0x30, 0x10, 0x01, 0x40, 0x80, 0x09, 0x50, 0x00, 0x00,
   0x00, 0x00, 0x00, 0x00, 0x00, 0x00, 0x00, 0x00, 0x00, 0xa0, 0x00, 0x12,
   0x20, 0x02, 0x00, 0x80, 0x21, 0x00, 0x30, 0x0c, 0x00, 0x04, 0x08, 0x30,
   0x10, 0x01, 0x40, 0x80, 0x18, 0xf0, 0x00, 0x00, 0x00, 0x00, 0x00, 0x00,
   0x00, 0x00, 0x00, 0x00, 0x00, 0xa0, 0x01, 0x12, 0x20, 0x02, 0x00, 0x00,
   0x21, 0x00, 0x30, 0x0c, 0x00, 0x04, 0x08, 0x10, 0x10, 0x01, 0x40, 0xc0,
   0x10, 0xb0, 0x00, 0x00, 0x00, 0x00, 0x00, 0x00, 0x00, 0x00, 0x00, 0x00,
   0x00, 0xa0, 0x01, 0x13, 0x30, 0x02, 0x00, 0x80, 0x61, 0x00, 0x10, 0x18,
   0x00, 0x06, 0x18, 0x18, 0x10, 0x02, 0xc0, 0xe0, 0x30, 0xb8, 0x00, 0x00,
   0x00, 0x00, 0x00, 0x00, 0x00, 0x00, 0x00, 0x00, 0x00, 0x20, 0xff, 0xf1,
   0x1f, 0xfe, 0xff, 0xff, 0xc1, 0xff, 0x1f, 0xf0, 0xff, 0x03, 0xf0, 0x0f,
   0x10, 0x02, 0xc0, 0x7f, 0xe0, 0x9f, 0x00, 0x00, 0x00, 0x00, 0x00, 0x00,
   0x00, 0x00, 0x00, 0x00, 0x00, 0x40, 0x00, 0xc0, 0x0f, 0x00, 0x00, 0x00,
   0x00, 0x00, 0x00, 0x00, 0x00, 0x00, 0x00, 0x00, 0x10, 0xfc, 0x1f, 0x00,
   0x00, 0x80, 0x00, 0x00, 0x00, 0x00, 0x00, 0x00, 0x00, 0x00, 0x00, 0x00,
   0x00, 0xc0, 0x00, 0x00, 0x00, 0x00, 0x00, 0x00, 0x00, 0x00, 0x00, 0x00,
   0x00, 0x00, 0x00, 0x00, 0x10, 0x00, 0x10, 0x00, 0x00, 0x00, 0x01, 0x00,
   0x00, 0x00, 0x00, 0x00, 0x00, 0x00, 0x00, 0x00, 0x00, 0x80, 0x01, 0x00,
   0x00, 0x00, 0x00, 0x00, 0x00, 0x00, 0x00, 0x00, 0x00, 0x00, 0x04, 0x00,
   0x10, 0x00, 0x20, 0x00, 0x00, 0x00, 0x01, 0x00, 0x00, 0x00, 0x00, 0x00,
   0x00, 0x00, 0x00, 0x00, 0x00, 0x00, 0x03, 0x00, 0x00, 0x00, 0x00, 0x00,
   0x00, 0x00, 0x00, 0x00, 0x00, 0x00, 0x0c, 0x00, 0x10, 0x00, 0x20, 0x00,
   0x00, 0x00, 0x01, 0x00, 0x00, 0x00, 0x00, 0x00, 0x00, 0x00, 0x00, 0x00,
   0x00, 0x00, 0x06, 0x00, 0x00, 0x00, 0x00, 0x00, 0x00, 0x00, 0x00, 0x00,
   0x00, 0x00, 0x0c, 0x00, 0x10, 0x00, 0x20, 0x00, 0x00, 0x00, 0x01, 0x00,
   0x00, 0x00, 0x00, 0x00, 0x00, 0x00, 0x00, 0x00, 0x00, 0x00, 0x0c, 0x00,
   0x00, 0x00, 0x00, 0x00, 0x00, 0x00, 0x00, 0x00, 0x00, 0x00, 0x1c, 0x00,
   0x10, 0x00, 0x40, 0x00, 0x00, 0x00, 0x01, 0x00, 0x00, 0x00, 0x00, 0x00,
   0x00, 0x00, 0x00, 0x00, 0x00, 0x00, 0x18, 0x00, 0x00, 0x00, 0x00, 0x00,
   0x00, 0x00, 0x00, 0x00, 0x00, 0x00, 0x14, 0x00, 0x10, 0x00, 0x40, 0x00,
   0x00, 0x00, 0x02, 0x00, 0x00, 0x00, 0x00, 0x00, 0x00, 0x00, 0x00, 0x00,
   0x00, 0x00, 0x30, 0x00, 0x00, 0x00, 0x00, 0x00, 0x00, 0x00, 0x00, 0x00,
   0x00, 0x00, 0x24, 0x00, 0x10, 0x00, 0x40, 0x00, 0x00, 0x00, 0x02, 0x00,
   0x00, 0x00, 0x00, 0x00, 0x00, 0x00, 0x00, 0x00, 0x00, 0x00, 0x60, 0x00,
   0x00, 0x00, 0x00, 0x00, 0x00, 0x00, 0x00, 0xc0, 0x00, 0x00, 0x24, 0x00,
   0x10, 0x00, 0x40, 0x00, 0x20, 0x00, 0x02, 0x00, 0x00, 0x00, 0x00, 0x00,
   0x00, 0x00, 0x00, 0x00, 0x00, 0x00, 0xc0, 0x00, 0x00, 0x00, 0x00, 0x00,
   0x00, 0x00, 0x00, 0xc0, 0x00, 0x00, 0x44, 0x00, 0x10, 0x00, 0x80, 0x00,
   0x20, 0x00, 0x02, 0x00, 0x00, 0x00, 0x00, 0x00, 0x00, 0x00, 0x00, 0x00,
   0x00, 0x00, 0x80, 0x01, 0x00, 0x00, 0x00, 0x00, 0x00, 0x00, 0x00, 0xc0,
   0x01, 0x00, 0x40, 0x00, 0x10, 0x00, 0x80, 0x00, 0x60, 0x00, 0x02, 0x00,
   0x00, 0x00, 0x00, 0x00, 0x00, 0x00, 0x00, 0x00, 0x00, 0x00, 0x00, 0x03,
   0x00, 0x00, 0x00, 0x00, 0x00, 0x10, 0x00, 0x40, 0x01, 0x00, 0x80, 0x00,
   0x10, 0x00, 0x80, 0x00, 0x50, 0x00, 0x02, 0x00, 0x00, 0x00, 0x00, 0x00,
   0x00, 0x00, 0x00, 0x00, 0x00, 0x00, 0x00, 0x06, 0x00, 0x00, 0x00, 0x00,
   0x00, 0x30, 0x00, 0x40, 0x02, 0x00, 0x80, 0x00, 0x10, 0x00, 0x00, 0x01,
   0x50, 0x00, 0x06, 0x00, 0x00, 0x00, 0x00, 0x00, 0x00, 0x00, 0x00, 0x00,
   0x00, 0x00, 0x00, 0x0c, 0x00, 0x00, 0x0c, 0x00, 0x00, 0x68, 0x00, 0x40,
   0x04, 0x00, 0x04, 0x01, 0x10, 0x00, 0x00, 0x01, 0x48, 0x00, 0x02, 0x00,
   0x00, 0x00, 0x00, 0x00, 0x00, 0x00, 0x00, 0x00, 0x00, 0x00, 0x00, 0x18,
   0xe0, 0x00, 0x1a, 0x00, 0x00, 0xcc, 0x00, 0x60, 0x0c, 0x00, 0x06, 0x03,
   0x08, 0x00, 0x00, 0x02, 0x8c, 0x01, 0x03, 0x00, 0x00, 0x00, 0x00, 0x00,
   0x00, 0x00, 0x00, 0x00, 0x00, 0x00, 0x00, 0xe0, 0x1f, 0xff, 0xe1, 0xff,
   0xff, 0x07, 0xff, 0x1f, 0xf0, 0xff, 0x01, 0xfc, 0x07, 0x00, 0x00, 0xfc,
   0x07, 0xff, 0x00, 0x00, 0x00, 0x00, 0x00, 0x00, 0x00, 0x00, 0x00, 0x00,
   0x00, 0x00, 0x00, 0x00, 0x00, 0x00, 0x00, 0x00, 0x00, 0x00, 0x00, 0x00,
   0x00, 0x00, 0x00, 0x00, 0x00, 0x00, 0x00, 0x00, 0x00, 0x00, 0x00, 0x00,
   0x00, 0x00, 0x00, 0x00, 0x00, 0x00, 0x00, 0x00, 0x00, 0x00, 0x00, 0x00,
   0x00, 0x00, 0x00, 0x00, 0x00, 0x00, 0x00, 0x00, 0x00, 0x00, 0x00, 0x00,
   0x00, 0x00, 0x00, 0x00, 0x00, 0x00, 0x00, 0x00, 0x00, 0x00, 0x00, 0x00,
   0x00, 0x00, 0x00, 0x00, 0x00, 0x00, 0x00, 0x00, 0x00, 0x00, 0x00, 0x00,
   0x00, 0x00, 0x00, 0x00, 0x00, 0x00, 0x00, 0x00, 0x00, 0x00, 0x00, 0x00,
   0x00, 0x00, 0x00, 0x00, 0x00, 0x00, 0x00, 0x00 };
