#define rallyx_width 256
#define rallyx_height 64
static unsigned char rallyx_bits[] = {
   0x00, 0x00, 0x00, 0x00, 0x00, 0x00, 0x00, 0x00, 0x00, 0x00, 0x00, 0x00,
   0x00, 0x00, 0x00, 0x00, 0x00, 0x00, 0x00, 0x00, 0x00, 0x00, 0x00, 0x00,
   0x00, 0x00, 0x00, 0x00, 0x00, 0x00, 0x00, 0x00, 0x00, 0x00, 0x00, 0x00,
   0x00, 0x00, 0x00, 0x00, 0x00, 0x00, 0x00, 0x00, 0x00, 0x00, 0x00, 0x00,
   0x00, 0x00, 0x00, 0x00, 0x00, 0x00, 0x00, 0x00, 0x00, 0x00, 0x00, 0x00,
   0x00, 0x00, 0x00, 0x00, 0x00, 0x00, 0x00, 0x00, 0x00, 0x00, 0x00, 0x00,
   0x00, 0x00, 0x00, 0x00, 0x00, 0x00, 0x00, 0x00, 0x00, 0x00, 0x00, 0x00,
   0x00, 0x00, 0x00, 0x00, 0x00, 0x00, 0x00, 0x00, 0x00, 0x00, 0x00, 0x00,
   0x00, 0x00, 0x00, 0x00, 0x00, 0x00, 0x00, 0x00, 0x00, 0x00, 0x00, 0x00,
   0x00, 0x00, 0x00, 0x00, 0x00, 0x00, 0x00, 0x00, 0x00, 0x00, 0x00, 0x00,
   0x00, 0x00, 0x00, 0x00, 0x00, 0x00, 0x00, 0x00, 0x00, 0x00, 0x00, 0x00,
   0x00, 0x00, 0x00, 0x00, 0x00, 0x00, 0x00, 0x00, 0x00, 0x00, 0x00, 0x00,
   0x00, 0x00, 0x00, 0x00, 0x00, 0x00, 0x00, 0x00, 0x00, 0x00, 0x00, 0x00,
   0x00, 0x00, 0x00, 0x00, 0x00, 0x00, 0x00, 0x00, 0x00, 0x00, 0x00, 0x00,
   0x00, 0x00, 0x00, 0x00, 0x00, 0x04, 0x00, 0x00, 0x00, 0x04, 0x00, 0x00,
   0x44, 0x00, 0x00, 0x80, 0x04, 0x00, 0x00, 0x00, 0x00, 0x00, 0x00, 0x00,
   0x00, 0x00, 0x00, 0x00, 0x00, 0x00, 0x00, 0x00, 0x00, 0x00, 0x00, 0x00,
   0x00, 0x08, 0x00, 0x00, 0x08, 0x02, 0x20, 0x00, 0x00, 0x00, 0x00, 0x20,
   0x00, 0x80, 0x80, 0x00, 0x00, 0x00, 0x00, 0x00, 0x00, 0x00, 0x00, 0x00,
   0x00, 0x00, 0x00, 0x00, 0x00, 0x00, 0x00, 0x00, 0x00, 0x00, 0x00, 0x01,
   0x00, 0x00, 0x00, 0x00, 0x02, 0x00, 0x00, 0x00, 0x00, 0x00, 0x00, 0x00,
   0x00, 0x00, 0x00, 0x00, 0x00, 0x00, 0x00, 0x00, 0x00, 0xff, 0xff, 0x1f,
   0x00, 0xf9, 0x0f, 0x00, 0xf8, 0x23, 0x00, 0xf0, 0x23, 0xc0, 0x0f, 0x00,
   0xf1, 0x23, 0x00, 0x00, 0x07, 0x00, 0x1c, 0x00, 0x00, 0x00, 0x00, 0x00,
   0x00, 0x00, 0x00, 0x00, 0x00, 0xff, 0xff, 0x3f, 0x00, 0xf8, 0x9f, 0x00,
   0xf8, 0x23, 0x00, 0xf0, 0x23, 0xc0, 0x0f, 0x00, 0xf8, 0x03, 0x00, 0x00,
   0x0f, 0x00, 0x1c, 0x01, 0x00, 0x00, 0x00, 0x00, 0x00, 0x00, 0x00, 0x00,
   0x00, 0xff, 0xff, 0x3f, 0x02, 0xf8, 0x1f, 0x01, 0xf8, 0x23, 0x00, 0xf0,
   0x43, 0x84, 0x1f, 0x81, 0xf8, 0x31, 0x00, 0x00, 0x8e, 0x00, 0x0f, 0x00,
   0x00, 0x00, 0x00, 0x00, 0x00, 0x00, 0x00, 0x00, 0x00, 0xff, 0xe0, 0x3f,
   0x04, 0xf8, 0x1f, 0x01, 0xf8, 0x63, 0x00, 0xf0, 0x23, 0x88, 0x3f, 0x20,
   0xfc, 0x20, 0x00, 0x20, 0x1c, 0x08, 0x4f, 0x01, 0x00, 0x00, 0x00, 0x00,
   0x00, 0x00, 0x00, 0x00, 0x00, 0x7f, 0xc0, 0x3f, 0x8a, 0xfc, 0x1f, 0x01,
   0xf8, 0xc3, 0x00, 0xf0, 0x43, 0x00, 0x3f, 0x04, 0x7e, 0x58, 0x00, 0x00,
   0x1c, 0x80, 0x87, 0x00, 0x00, 0x00, 0x00, 0x00, 0x00, 0x00, 0x00, 0x00,
   0x00, 0x7f, 0x80, 0x3f, 0x4a, 0xfc, 0x1f, 0x05, 0xf8, 0x43, 0x01, 0xf0,
   0xa3, 0x10, 0x7e, 0x14, 0x3e, 0x54, 0x00, 0x40, 0x38, 0x84, 0x87, 0x01,
   0x00, 0x00, 0x00, 0x00, 0x00, 0x00, 0x00, 0x00, 0x00, 0x7f, 0x80, 0x3f,
   0x54, 0x3c, 0x3c, 0x02, 0xf8, 0xa3, 0x00, 0xf0, 0x43, 0x21, 0xfe, 0x08,
   0x3f, 0xda, 0x00, 0x80, 0x70, 0xc4, 0x63, 0x02, 0x00, 0x00, 0x00, 0x00,
   0x00, 0x00, 0x00, 0x00, 0x00, 0x7f, 0x80, 0x3f, 0x54, 0x1c, 0x3c, 0x0e,
   0xf8, 0xa3, 0x03, 0xf0, 0x43, 0x21, 0xfc, 0x80, 0x1f, 0xaa, 0x00, 0x80,
   0x70, 0xe0, 0x41, 0x01, 0x00, 0x00, 0x00, 0x00, 0x00, 0x00, 0x00, 0x00,
   0x00, 0x7f, 0xc0, 0x3f, 0x56, 0x1c, 0x3c, 0x04, 0xf9, 0xa3, 0x00, 0xf0,
   0xa3, 0x40, 0xf8, 0xc1, 0x0f, 0x55, 0x01, 0x00, 0xe1, 0xe0, 0x51, 0x01,
   0x00, 0x00, 0x00, 0x00, 0x00, 0x00, 0x00, 0x00, 0x00, 0xff, 0xff, 0x3f,
   0x2c, 0x1e, 0x38, 0x1c, 0xf8, 0xa3, 0x07, 0xf0, 0xa3, 0x83, 0xf0, 0xc3,
   0x07, 0x5b, 0x01, 0x00, 0xe1, 0xf0, 0xa0, 0x02, 0x00, 0x00, 0x00, 0x00,
   0x00, 0x00, 0x00, 0x00, 0x00, 0xff, 0xff, 0x3f, 0x2a, 0x1e, 0x38, 0x32,
   0xf9, 0xa3, 0x04, 0xf0, 0x43, 0x41, 0xf1, 0xe7, 0x87, 0x6a, 0x01, 0x80,
   0xc2, 0xf1, 0x28, 0x01, 0x00, 0x00, 0x00, 0x00, 0x00, 0x00, 0x00, 0x00,
   0x00, 0xff, 0xff, 0x1f, 0x2a, 0x8e, 0x38, 0xac, 0xf8, 0xa3, 0x0b, 0xf0,
   0x43, 0x07, 0xe1, 0xf7, 0xa3, 0x56, 0x01, 0x00, 0xc5, 0x79, 0x50, 0x02,
   0x00, 0x00, 0x00, 0x00, 0x00, 0x00, 0x00, 0x00, 0x00, 0xff, 0xff, 0x0f,
   0x16, 0x8e, 0x78, 0x74, 0xf8, 0xa3, 0x0a, 0xf0, 0xa3, 0x82, 0xc2, 0xff,
   0x41, 0x55, 0x05, 0x00, 0x82, 0x7f, 0xac, 0x02, 0x00, 0x00, 0x00, 0x00,
   0x00, 0x00, 0x00, 0x00, 0x00, 0xff, 0xff, 0x03, 0x2a, 0x8e, 0x78, 0xc8,
   0xf8, 0x03, 0x1a, 0xf0, 0x43, 0x0a, 0xc5, 0xff, 0xd1, 0x96, 0x02, 0x00,
   0x86, 0x3f, 0xa8, 0x02, 0x00, 0x00, 0x00, 0x00, 0x00, 0x00, 0x00, 0x00,
   0x00, 0xff, 0xff, 0x43, 0x15, 0x0f, 0x78, 0xb4, 0xf8, 0x03, 0x10, 0xf0,
   0x03, 0x00, 0x85, 0xff, 0x50, 0x05, 0x00, 0x00, 0xc5, 0x3f, 0x56, 0x05,
   0x00, 0x00, 0x00, 0x00, 0x00, 0x00, 0x00, 0x00, 0x00, 0xff, 0xff, 0x83,
   0x16, 0xff, 0x7f, 0xb4, 0xf8, 0x07, 0x40, 0xf0, 0x07, 0x00, 0x0a, 0xff,
   0xa8, 0x01, 0x00, 0x00, 0xc4, 0x3f, 0x54, 0x02, 0x00, 0x00, 0x00, 0x00,
   0x00, 0x00, 0x00, 0x00, 0x00, 0xff, 0xff, 0x0f, 0x15, 0xff, 0x7f, 0x68,
   0xf9, 0xff, 0x23, 0xf1, 0xff, 0x03, 0x0a, 0xff, 0x68, 0xc3, 0x0f, 0x00,
   0xc2, 0x3f, 0x54, 0x01, 0x00, 0x00, 0x00, 0x00, 0x00, 0x00, 0x00, 0x00,
   0x00, 0xff, 0xff, 0x1f, 0x0d, 0xff, 0xff, 0xa8, 0xf8, 0xff, 0x47, 0xf0,
   0xff, 0x47, 0x0a, 0xff, 0x50, 0xe2, 0x0f, 0x00, 0xe2, 0x7f, 0x54, 0x01,
   0x00, 0x00, 0x00, 0x00, 0x00, 0x00, 0x00, 0x00, 0x00, 0xff, 0xff, 0x1f,
   0x0a, 0xff, 0xff, 0xd8, 0xf8, 0xff, 0x27, 0xf0, 0xff, 0x07, 0x0c, 0xff,
   0xe8, 0xe2, 0x9f, 0x00, 0xe0, 0x7f, 0xa8, 0x00, 0x00, 0x00, 0x00, 0x00,
   0x00, 0x00, 0x00, 0x00, 0x00, 0xff, 0xf0, 0x1f, 0x8a, 0xff, 0xff, 0xb0,
   0xf8, 0xff, 0xc7, 0xf1, 0xff, 0x87, 0x08, 0xff, 0x98, 0xe2, 0x1f, 0x01,
   0xe0, 0x7f, 0xa8, 0x00, 0x00, 0x00, 0x00, 0x00, 0x00, 0x00, 0x00, 0x00,
   0x00, 0x7f, 0xe0, 0x1f, 0x8b, 0xff, 0xff, 0x68, 0xf9, 0xff, 0x47, 0xf1,
   0xff, 0xc7, 0x08, 0xff, 0xd0, 0xe2, 0x1f, 0x01, 0xf2, 0xff, 0xa8, 0x00,
   0x00, 0x00, 0x00, 0x00, 0x00, 0x00, 0x00, 0x00, 0x00, 0x7f, 0xe0, 0x1f,
   0x8d, 0xff, 0xff, 0xa8, 0xf8, 0xff, 0x47, 0xf1, 0xff, 0x87, 0x18, 0xff,
   0xd8, 0xe2, 0x0f, 0x01, 0xf0, 0xff, 0x28, 0x00, 0x00, 0x00, 0x00, 0x00,
   0x00, 0x00, 0x00, 0x00, 0x00, 0x7f, 0xe0, 0x1f, 0x85, 0xff, 0xff, 0x71,
   0xf9, 0xff, 0xa7, 0xf1, 0xff, 0xc7, 0x01, 0xff, 0xb0, 0x01, 0x00, 0x01,
   0xf0, 0xff, 0x50, 0x00, 0x00, 0x00, 0x00, 0x00, 0x00, 0x00, 0x00, 0x00,
   0x00, 0x7f, 0xe0, 0x1f, 0x8b, 0xff, 0xff, 0xd1, 0xf8, 0xff, 0x47, 0xf1,
   0xff, 0x87, 0x02, 0xff, 0x50, 0x03, 0x00, 0x03, 0xf0, 0xff, 0x10, 0x00,
   0x00, 0x00, 0x00, 0x00, 0x00, 0x00, 0x00, 0x00, 0x00, 0x7f, 0xe0, 0x1f,
   0xca, 0xff, 0xff, 0x51, 0xf9, 0xff, 0xa7, 0xf1, 0xff, 0xc7, 0x02, 0xff,
   0x68, 0x05, 0x80, 0x02, 0xf9, 0xff, 0x21, 0x00, 0x00, 0x00, 0x00, 0x00,
   0x00, 0x00, 0x00, 0x00, 0x00, 0x7f, 0xe0, 0x1f, 0xc5, 0xff, 0xff, 0xb1,
   0xf8, 0xff, 0x47, 0xf1, 0xff, 0x87, 0x05, 0xff, 0x58, 0xab, 0xaa, 0x02,
   0xf8, 0xff, 0x11, 0x00, 0x00, 0x00, 0x00, 0x00, 0x00, 0x00, 0x00, 0x00,
   0x00, 0x7f, 0xe0, 0x1f, 0xc5, 0xff, 0xff, 0x61, 0xf9, 0xff, 0xa7, 0xf1,
   0xff, 0xc7, 0x16, 0xff, 0xb0, 0xb6, 0x6a, 0x07, 0xf8, 0xff, 0x01, 0x00,
   0x00, 0x00, 0x00, 0x00, 0x00, 0x00, 0x00, 0x00, 0x00, 0x7f, 0xe0, 0x1f,
   0xc5, 0xff, 0xff, 0xc3, 0xf8, 0xff, 0x67, 0xf1, 0xff, 0x87, 0x05, 0xff,
   0xb0, 0xb5, 0x5b, 0x05, 0xfc, 0xf9, 0x13, 0x00, 0x00, 0x00, 0x00, 0x00,
   0x00, 0x00, 0x00, 0x00, 0x00, 0x7f, 0xe0, 0x1f, 0xc5, 0xff, 0xff, 0xa3,
   0xf8, 0xff, 0xc7, 0xf0, 0xff, 0xc7, 0x1e, 0xff, 0x68, 0xd5, 0xb6, 0x0a,
   0xfc, 0xf9, 0x03, 0x00, 0x00, 0x00, 0x00, 0x00, 0x00, 0x00, 0x00, 0x00,
   0x00, 0x7f, 0xe0, 0x1f, 0xe2, 0xff, 0xff, 0xe3, 0xf8, 0xff, 0x87, 0xf1,
   0xff, 0x87, 0x15, 0xff, 0xd0, 0x52, 0xd5, 0x05, 0xfc, 0xf9, 0x03, 0x00,
   0x00, 0x00, 0x00, 0x00, 0x00, 0x00, 0x00, 0x00, 0x00, 0x7f, 0xe0, 0x1f,
   0xe5, 0xff, 0xff, 0x43, 0xf9, 0xff, 0x67, 0xf1, 0xff, 0x47, 0x15, 0xff,
   0xa8, 0x60, 0x5b, 0x0b, 0xfe, 0xf0, 0x47, 0x00, 0x00, 0x00, 0x00, 0x00,
   0x00, 0x00, 0x00, 0x00, 0x80, 0x7f, 0xe0, 0x1f, 0xe2, 0xff, 0xff, 0xa3,
   0xf8, 0xff, 0x47, 0xf1, 0xff, 0xc7, 0x0d, 0xff, 0xd8, 0x40, 0xb5, 0x0a,
   0xfe, 0xf0, 0x07, 0x00, 0x00, 0x00, 0x00, 0x00, 0x00, 0x00, 0x00, 0x00,
   0x80, 0x7f, 0xe0, 0x1f, 0xe1, 0xff, 0xff, 0x43, 0xf9, 0xff, 0xe7, 0xf0,
   0xff, 0x87, 0x16, 0xff, 0xb0, 0x60, 0xab, 0x05, 0x7e, 0xe0, 0x07, 0x00,
   0x00, 0x00, 0x00, 0x00, 0x00, 0x00, 0x00, 0x00, 0x80, 0x7f, 0xe0, 0x1f,
   0xe2, 0xff, 0xff, 0xc7, 0xf8, 0xff, 0x87, 0xf1, 0xff, 0xc7, 0x0a, 0xff,
   0xa8, 0xc0, 0x5a, 0x1b, 0x7f, 0xe0, 0x0f, 0x00, 0x00, 0x00, 0x00, 0x00,
   0x00, 0x00, 0x00, 0x00, 0x80, 0x7f, 0xe0, 0x1f, 0xf1, 0xff, 0xff, 0x87,
   0xf8, 0xff, 0x67, 0xf1, 0xff, 0x87, 0x0d, 0xff, 0xb0, 0x80, 0x56, 0x15,
   0x7f, 0xe0, 0x0f, 0x00, 0x00, 0x00, 0x00, 0x00, 0x00, 0x00, 0x00, 0x00,
   0x80, 0x7f, 0xe0, 0x1f, 0xf1, 0xff, 0xff, 0x87, 0xf8, 0xff, 0x47, 0xf1,
   0xff, 0x47, 0x15, 0xff, 0xd0, 0x80, 0xd5, 0x0a, 0x3f, 0xc2, 0x0f, 0x00,
   0x00, 0x00, 0x00, 0x00, 0x00, 0x00, 0x00, 0x00, 0x80, 0x7f, 0xe0, 0x1f,
   0xf0, 0xff, 0xff, 0x47, 0xf9, 0xff, 0xa7, 0xf0, 0xff, 0x87, 0x0d, 0xff,
   0xa8, 0x00, 0xad, 0x8a, 0x3f, 0xc4, 0x1f, 0x00, 0x00, 0x00, 0x00, 0x00,
   0x00, 0x00, 0x00, 0x00, 0x80, 0x7f, 0xe0, 0x1f, 0xe1, 0xff, 0xff, 0x43,
   0xe0, 0xff, 0xa1, 0xf1, 0xff, 0x87, 0x0a, 0xff, 0x58, 0x81, 0xaa, 0x8a,
   0x3f, 0x82, 0x1f, 0x00, 0x00, 0x00, 0x00, 0x00, 0x00, 0x00, 0x00, 0x00,
   0x00, 0x3f, 0xc0, 0x07, 0xe0, 0xff, 0xff, 0x81, 0x00, 0x00, 0x40, 0x01,
   0x00, 0x40, 0x15, 0x00, 0x50, 0x01, 0x55, 0x05, 0x00, 0x0a, 0x00, 0x01,
   0x00, 0x00, 0x00, 0x00, 0x00, 0x00, 0x00, 0x00, 0x00, 0x00, 0x00, 0x00,
   0x01, 0x00, 0x00, 0x40, 0x01, 0x00, 0x60, 0x01, 0x00, 0xa0, 0x16, 0x00,
   0xa8, 0x00, 0xb5, 0x02, 0x00, 0x05, 0x00, 0x00, 0x00, 0x00, 0x00, 0x00,
   0x00, 0x00, 0x00, 0x00, 0x00, 0x00, 0x04, 0x80, 0x02, 0x00, 0x00, 0xc0,
   0x02, 0x00, 0x50, 0x03, 0x00, 0xa0, 0x15, 0x00, 0x56, 0x01, 0x00, 0x10,
   0x80, 0x0a, 0x80, 0x01, 0x00, 0x00, 0x00, 0x00, 0x00, 0x00, 0x00, 0x00,
   0x00, 0x00, 0x0a, 0x50, 0x05, 0x00, 0x00, 0x50, 0x05, 0x02, 0x54, 0x15,
   0x02, 0x54, 0xb5, 0x04, 0xaa, 0x00, 0x00, 0x40, 0xaa, 0xaa, 0xaa, 0x00,
   0x00, 0x00, 0x00, 0x00, 0x00, 0x00, 0x00, 0x00, 0x80, 0x54, 0xa9, 0xaa,
   0xaa, 0x6a, 0xb7, 0xaa, 0xfa, 0xfa, 0x55, 0xf5, 0xfa, 0x55, 0x45, 0x75,
   0x55, 0x01, 0x00, 0x40, 0x95, 0xaa, 0x94, 0x02, 0x00, 0x00, 0x00, 0x00,
   0x00, 0x00, 0x00, 0x00, 0x00, 0x22, 0x25, 0x49, 0xaa, 0x4a, 0xaa, 0xaa,
   0x4a, 0x15, 0xb5, 0x4a, 0x15, 0x55, 0x0d, 0xa5, 0xaa, 0x00, 0x00, 0x40,
   0x52, 0xaa, 0x52, 0x01, 0x00, 0x00, 0x00, 0x00, 0x00, 0x00, 0x00, 0x00,
   0x00, 0x48, 0xaa, 0x52, 0x49, 0xb5, 0xaa, 0x56, 0x55, 0x65, 0x55, 0xb5,
   0xea, 0xaa, 0x92, 0xaa, 0xaa, 0x00, 0x00, 0x40, 0x95, 0x88, 0x2a, 0x01,
   0x00, 0x00, 0x00, 0x00, 0x00, 0x00, 0x00, 0x00, 0x00, 0x88, 0x20, 0x25,
   0x55, 0xa5, 0xaa, 0x54, 0x55, 0x55, 0x55, 0x55, 0x95, 0xaa, 0x0a, 0xaa,
   0xaa, 0x00, 0x00, 0x40, 0x52, 0x29, 0x49, 0x01, 0x00, 0x00, 0x00, 0x00,
   0x00, 0x00, 0x00, 0x00, 0x00, 0x20, 0x4a, 0x4a, 0x49, 0xaa, 0xaa, 0xaa,
   0xaa, 0xaa, 0xaa, 0xaa, 0xaa, 0xaa, 0x0a, 0x12, 0x49, 0x01, 0x00, 0x80,
   0x24, 0xa5, 0x2a, 0x01, 0x00, 0x00, 0x00, 0x00, 0x00, 0x00, 0x00, 0x00,
   0x00, 0x80, 0x88, 0x50, 0x92, 0x4a, 0x52, 0x55, 0x55, 0x55, 0x55, 0x95,
   0xaa, 0xaa, 0x0a, 0xa4, 0x52, 0x00, 0x00, 0x80, 0xa4, 0x14, 0xa9, 0x02,
   0x00, 0x00, 0x00, 0x00, 0x00, 0x00, 0x00, 0x00, 0x00, 0x00, 0x22, 0x8a,
   0x54, 0x54, 0x95, 0x92, 0xaa, 0xaa, 0xaa, 0x12, 0x49, 0x92, 0x14, 0x54,
   0x8a, 0x00, 0x00, 0x00, 0x09, 0x21, 0x22, 0x01, 0x00, 0x00, 0x00, 0x00,
   0x00, 0x00, 0x00, 0x00, 0x00, 0x00, 0x80, 0x90, 0x42, 0x91, 0xa4, 0xa4,
   0x24, 0x49, 0x92, 0x14, 0xaa, 0x24, 0x05, 0x88, 0x90, 0x00, 0x00, 0x00,
   0x22, 0x05, 0x24, 0x02, 0x00, 0x00, 0x00, 0x00, 0x00, 0x00, 0x00, 0x00,
   0x00, 0x00, 0x24, 0x02, 0x28, 0x4a, 0x49, 0x09, 0x49, 0x92, 0x24, 0x25,
   0x24, 0x55, 0x12, 0x20, 0x0a, 0x00, 0x00, 0x00, 0x08, 0x10, 0x81, 0x00,
   0x00, 0x00, 0x00, 0x00, 0x00, 0x00, 0x00, 0x00, 0x00, 0x00, 0x00, 0x48,
   0x82, 0x10, 0x12, 0x52, 0x92, 0x24, 0x29, 0x09, 0x24, 0x41, 0x04, 0x40,
   0x40, 0x00, 0x00, 0x00, 0x41, 0x00, 0x08, 0x00, 0x00, 0x00, 0x00, 0x00,
   0x00, 0x00, 0x00, 0x00, 0x00, 0x00, 0x00, 0x00, 0x28, 0xa2, 0xa4, 0x08,
   0x49, 0x48, 0x42, 0x04, 0x90, 0x14, 0x01, 0x00, 0x10, 0x00, 0x00, 0x00,
   0x00, 0x00, 0x00, 0x00, 0x00, 0x00, 0x00, 0x00, 0x00, 0x00, 0x00, 0x00,
   0x00, 0x00, 0x00, 0x00, 0x00, 0x04, 0x04, 0x21, 0x80, 0x40, 0x88, 0x10,
   0x00, 0x20, 0x04, 0x00, 0x00, 0x00, 0x00, 0x00, 0x00, 0x00, 0x00, 0x00,
   0x00, 0x00, 0x00, 0x00, 0x00, 0x00, 0x00, 0x00, 0x00, 0x00, 0x00, 0x00,
   0x80, 0x80, 0x20, 0x84, 0x04, 0x00, 0x21, 0x02, 0x20, 0x01, 0x00, 0x00,
   0x00, 0x00, 0x00, 0x00, 0x00, 0x00, 0x00, 0x00, 0x00, 0x00, 0x00, 0x00,
   0x00, 0x00, 0x00, 0x00, 0x00, 0x00, 0x00, 0x00, 0x00, 0x00, 0x00, 0x00,
   0x08, 0x00, 0x02, 0x00, 0x00, 0x00, 0x00, 0x00, 0x00, 0x00, 0x00, 0x00,
   0x00, 0x00, 0x00, 0x00, 0x00, 0x00, 0x00, 0x00 };
