#define _width 256
#define _height 64
static char _bits[] = {
 0x00,0x00,0x00,0x00,0x00,0x00,0x00,0x00,0x00,0x00,0x00,0x00,0x00,0x00,0x00,
 0x00,0x00,0x00,0x00,0x00,0x00,0x00,0x00,0x30,0x00,0x00,0x00,0x00,0x00,0x00,
 0x00,0x00,0x00,0x00,0x00,0x00,0x00,0x00,0x00,0x00,0x00,0x00,0x00,0x00,0x00,
 0x00,0x00,0x00,0x00,0x00,0x00,0x00,0x00,0x00,0x00,0x3e,0x00,0x00,0x00,0x00,
 0x00,0x00,0x00,0x00,0x00,0x00,0x00,0x00,0x00,0x00,0x00,0x00,0x00,0x00,0x00,
 0x00,0x00,0x00,0x00,0x00,0x00,0x00,0x00,0x00,0x00,0x00,0x80,0x3f,0x00,0x00,
 0x00,0x00,0x00,0x00,0x00,0x00,0x00,0x00,0x00,0x00,0x00,0x00,0x00,0x00,0x00,
 0x00,0x00,0x00,0x00,0x00,0x00,0x00,0x00,0x00,0x00,0x00,0x00,0x00,0xe0,0x3f,
 0x00,0x00,0x00,0x00,0x00,0x00,0x00,0x00,0x00,0x00,0x00,0x00,0x00,0x00,0x00,
 0x00,0x00,0x00,0x00,0x00,0x00,0x00,0x00,0x00,0x00,0x00,0x00,0x00,0x00,0x00,
 0xfc,0x3f,0x00,0x00,0x00,0x00,0x00,0x00,0x00,0x00,0x00,0x00,0x00,0x00,0x00,
 0x00,0x00,0x00,0x00,0x00,0x00,0x00,0x00,0x00,0x00,0x00,0x00,0x00,0x00,0x00,
 0x00,0xf8,0xff,0x3e,0x00,0x00,0x00,0x00,0x00,0x00,0x00,0x00,0x00,0x00,0x00,
 0x00,0x00,0x00,0x00,0x00,0x00,0x00,0x00,0x00,0x00,0x00,0x00,0x00,0x00,0x00,
 0x00,0x00,0x00,0xfe,0x7f,0x1e,0x00,0x00,0x00,0x00,0x00,0x00,0x00,0x00,0x00,
 0x00,0x00,0x00,0x00,0x00,0x00,0x00,0x00,0x00,0x00,0x00,0x70,0x00,0x00,0x00,
 0x00,0x00,0x00,0x00,0x1c,0xff,0x79,0x1e,0x00,0x00,0x00,0x00,0x00,0x00,0x00,
 0x00,0x00,0x00,0x00,0x00,0x00,0x00,0x00,0x00,0x00,0x00,0x00,0x00,0xf8,0x00,
 0x00,0x00,0x00,0x00,0x00,0xf0,0xff,0x7e,0x78,0x1e,0x00,0x00,0x00,0x00,0x00,
 0x00,0x00,0x00,0x00,0x00,0x00,0x00,0x00,0x00,0x00,0x00,0x00,0x00,0x00,0xf0,
 0x9d,0x01,0x00,0x00,0x00,0x70,0x00,0xfc,0xff,0x39,0x38,0x1e,0x00,0x00,0x00,
 0x00,0x00,0x00,0x00,0x00,0x00,0x00,0x00,0x00,0x00,0x00,0x00,0x00,0x00,0x00,
 0x00,0xf8,0xb8,0x01,0x00,0x00,0x00,0xfc,0x01,0xff,0xff,0x3b,0x3c,0x1e,0x00,
 0x00,0x00,0x00,0x00,0x00,0x00,0x00,0x00,0x00,0x00,0x00,0x00,0x00,0x00,0x00,
 0x00,0x00,0xe0,0x3c,0xc0,0x01,0x00,0x00,0x00,0x9f,0xc1,0x7f,0xf0,0x33,0x3c,
 0x1e,0x00,0x00,0x00,0x00,0x00,0x00,0x00,0x00,0x00,0x00,0x00,0x00,0x00,0x00,
 0x00,0x00,0x00,0x00,0xf0,0xb9,0xf9,0x00,0x00,0x00,0x80,0x07,0xe0,0x7f,0xe0,
 0xf7,0x1c,0x1e,0x00,0x00,0x00,0x00,0x00,0x00,0x00,0x00,0x00,0x00,0x00,0x00,
 0x00,0x00,0x00,0x00,0x00,0x00,0xf8,0xf1,0x79,0x01,0x00,0x00,0xc0,0x03,0xf0,
 0x7f,0xe0,0xf7,0x1c,0x1e,0x00,0x00,0x00,0x00,0x00,0x00,0x00,0x00,0x00,0x00,
 0x00,0x00,0x00,0x00,0x00,0x00,0x00,0xc0,0x98,0xf3,0xb0,0x03,0x00,0x00,0xc0,
 0x01,0xf8,0x3d,0xe0,0x73,0x1c,0x1e,0x00,0x00,0x00,0x00,0x00,0x00,0x00,0x00,
 0x00,0x00,0x00,0x00,0x00,0x00,0x00,0x00,0x00,0x8c,0x19,0x73,0x30,0x07,0x00,
 0x00,0xe0,0x1f,0xfc,0x3c,0xe0,0x13,0xdc,0x1f,0x40,0x00,0x00,0x00,0x00,0x00,
 0x00,0x00,0x00,0x00,0x00,0x00,0x00,0x00,0x00,0x00,0xe0,0x8c,0xb9,0x33,0x30,
 0x06,0x00,0x00,0xf0,0x7f,0x7e,0x3c,0xe0,0x03,0xfe,0x3f,0x60,0x00,0x00,0x00,
 0x00,0x00,0x00,0x00,0x00,0x00,0x00,0x00,0x00,0x00,0x00,0x00,0xf0,0x98,0xb1,
 0x31,0x34,0x00,0x00,0x00,0xff,0xff,0x3c,0x3c,0xf0,0x01,0xfe,0xff,0xf0,0x00,
 0x00,0x00,0x00,0x00,0x00,0x00,0x00,0x00,0x00,0x00,0x00,0x00,0x00,0x00,0x38,
 0x18,0xf3,0xf0,0x27,0x00,0x00,0xc0,0x7f,0xf0,0x3d,0x3e,0xf8,0x01,0xfe,0xff,
 0xff,0x00,0x00,0x00,0x00,0x00,0x00,0x00,0x00,0x00,0x00,0x00,0x00,0x00,0x00,
 0x00,0x18,0x18,0x73,0xf0,0x03,0x00,0x00,0xf0,0x3f,0xf0,0x3d,0x3e,0xfc,0x00,
 0xfe,0xff,0xff,0x00,0x00,0x00,0x00,0x00,0x00,0x00,0x00,0x00,0x00,0x00,0x00,
 0x00,0x00,0x00,0xf0,0x39,0x67,0x20,0x00,0x00,0x00,0xf8,0x39,0xf0,0x7d,0xfe,
 0x7f,0x00,0x7e,0xfe,0xff,0x00,0x00,0x00,0x00,0x00,0x00,0x00,0x00,0x00,0x00,
 0x00,0x00,0x00,0x00,0x00,0xc0,0x33,0x66,0x00,0x00,0x00,0x00,0x7c,0x3c,0xf0,
 0x3d,0xfe,0xff,0x00,0x1e,0xfe,0xff,0x00,0x00,0x00,0x00,0x00,0x00,0x00,0x00,
 0x00,0x00,0x00,0x00,0x00,0x00,0x00,0x10,0x37,0x67,0x00,0x00,0x00,0x1c,0x3e,
 0x1c,0xf8,0x0c,0xfe,0xff,0x00,0x1e,0xfc,0xff,0x00,0x00,0x00,0x00,0x00,0x00,
 0x00,0x00,0x00,0x00,0x00,0x00,0x00,0x00,0x00,0x38,0xe6,0x03,0x00,0x00,0x80,
 0xff,0x3c,0x1e,0x7c,0x00,0x7e,0xfc,0x00,0x1f,0xfc,0x7f,0x00,0x00,0x00,0x00,
 0x00,0x00,0x00,0x00,0x00,0x00,0x00,0x00,0x00,0x00,0x00,0x38,0xc6,0x00,0x00,
 0x00,0xe0,0xff,0x39,0x1e,0xfe,0x00,0x7e,0xfc,0x01,0x1f,0xf8,0x7f,0x00,0x00,
 0x00,0x00,0x00,0x00,0x00,0x00,0x00,0x00,0x00,0x00,0x00,0x00,0x00,0xf0,0x03,
 0x00,0xfc,0x03,0xf8,0xff,0x39,0x9e,0xff,0x07,0x7e,0xf8,0xc1,0x1f,0xf0,0x3f,
 0x00,0x00,0x00,0x00,0x00,0x00,0x00,0x00,0x00,0x00,0x00,0x00,0x00,0x00,0x00,
 0xf0,0x03,0x00,0xfe,0x03,0xf8,0xff,0x7b,0xfe,0xff,0x1f,0x7e,0xf8,0xfd,0x1f,
 0xe0,0x1f,0x00,0x00,0x00,0x00,0x00,0x00,0x00,0x00,0x00,0x00,0x00,0x00,0x00,
 0x00,0x00,0xc0,0x00,0x80,0xff,0x07,0xfc,0xff,0xf3,0xff,0xff,0x3f,0x7e,0xf8,
 0xfd,0x0f,0xc0,0x0f,0x00,0x00,0x00,0x00,0x00,0x00,0x00,0x00,0x00,0x00,0x00,
 0x00,0x00,0x00,0x00,0x00,0x00,0xe0,0x03,0x07,0x7e,0xf8,0xf3,0xff,0xff,0x3f,
 0x7e,0xf8,0xf9,0x0f,0x00,0x00,0x00,0x00,0x00,0x00,0x00,0x00,0x00,0x00,0x00,
 0x00,0x00,0x00,0x00,0x00,0x00,0x00,0x00,0xf0,0x00,0x07,0x3e,0xf0,0x73,0x3f,
 0xc0,0x7f,0x7e,0xf8,0xf9,0x0f,0x00,0x00,0x00,0x00,0x00,0x00,0x00,0x00,0x00,
 0x00,0x00,0x00,0x00,0x00,0x00,0x00,0x00,0xfe,0x07,0x78,0xc0,0x07,0x1f,0xf0,
 0x03,0x1f,0xc0,0x7f,0x7e,0xf8,0xfb,0x0f,0x00,0x00,0x00,0x00,0x00,0x00,0x00,
 0x00,0x00,0x00,0x00,0x00,0x00,0x00,0x00,0x00,0x80,0xff,0xff,0x3e,0xf8,0x03,
 0x3f,0xf0,0x03,0x1f,0x80,0x7f,0x7e,0xf8,0xf7,0x07,0x00,0x00,0x00,0x00,0x00,
 0x00,0x00,0x00,0x00,0x00,0x00,0x00,0x00,0x00,0x00,0x00,0xe0,0xff,0xff,0xff,
 0xff,0x01,0xff,0xf0,0x03,0x1f,0x80,0x7f,0x7e,0xf8,0xef,0x03,0x00,0x00,0x00,
 0x00,0x00,0x00,0x00,0x00,0x00,0x00,0x00,0x00,0x00,0x00,0x00,0x00,0xf8,0xff,
 0xff,0xff,0x7f,0x00,0xff,0xf0,0x03,0x7f,0x80,0x7f,0x7e,0xf8,0xef,0x01,0x00,
 0x00,0x00,0x00,0x00,0x00,0x00,0x00,0x00,0x00,0x00,0x00,0x00,0x00,0x00,0x00,
 0xf8,0xff,0xe7,0xc7,0x0f,0xc0,0x7e,0xf0,0x03,0x3f,0x80,0x7f,0x3e,0xf0,0x07,
 0x00,0x00,0x00,0x00,0x00,0x00,0x00,0x00,0x00,0x00,0x00,0x00,0x00,0x00,0x00,
 0x00,0x00,0xfc,0x7f,0xe0,0x01,0x00,0x60,0x00,0xf0,0x83,0x3f,0xc0,0x7f,0x3e,
 0xc0,0x01,0x00,0x00,0x00,0x00,0x00,0x00,0x00,0x00,0x00,0x00,0x00,0x00,0x00,
 0x00,0x00,0x00,0x00,0xfe,0x1f,0xf0,0x00,0x00,0x78,0x00,0xf0,0x83,0x7f,0xe0,
 0x3f,0x3f,0x00,0x00,0x00,0x00,0x00,0x00,0x00,0x00,0x00,0x00,0x00,0x00,0x00,
 0x00,0x00,0x00,0x00,0x00,0x00,0xfe,0x0f,0xf8,0x80,0x3f,0x3c,0x00,0xf8,0x81,
 0xff,0xf1,0x3f,0x3f,0x00,0x00,0x00,0x00,0x00,0x00,0x00,0x00,0x00,0x00,0x00,
 0x00,0x00,0x00,0x00,0x00,0x00,0x00,0x00,0xfe,0x0f,0xf8,0xc0,0x3f,0x3c,0x00,
 0xf8,0x81,0xff,0xff,0xbf,0x3f,0x00,0x00,0x00,0x00,0x00,0x00,0x00,0x00,0x00,
 0x00,0x00,0x00,0x00,0x00,0x00,0x00,0x00,0x00,0x00,0xff,0x0f,0x7c,0xe0,0xff,
 0x3c,0x00,0xfc,0xcc,0xff,0xff,0x9f,0x1f,0x00,0x00,0x00,0x00,0x00,0x00,0x00,
 0x00,0x00,0x00,0x00,0x00,0x00,0x00,0x00,0x00,0x00,0x00,0x00,0xff,0x0f,0x7e,
 0xf0,0xff,0x3d,0x00,0xfc,0xfc,0xff,0xff,0xcf,0x1f,0x00,0x00,0x00,0x00,0x00,
 0x00,0x00,0x00,0x00,0x00,0x00,0x00,0x00,0x00,0x00,0x00,0x00,0x00,0x00,0xff,
 0x3f,0x3e,0xf0,0xff,0x39,0x00,0xfe,0xfc,0xff,0xff,0xe7,0x0f,0x00,0x00,0x00,
 0x00,0x00,0x00,0x00,0x00,0x00,0x00,0x00,0x00,0x00,0x00,0x00,0x00,0x00,0x00,
 0x00,0xff,0x3f,0x3f,0xd8,0xff,0x3b,0x00,0x7f,0xfe,0xff,0xff,0xf9,0x0f,0x00,
 0x00,0x00,0x00,0x00,0x00,0x00,0x00,0x00,0x00,0x00,0x00,0x00,0x00,0x00,0x00,
 0x00,0x00,0x00,0xfe,0x1f,0x3f,0x08,0xff,0x7b,0x80,0x7f,0xff,0xf7,0x7f,0xfe,
 0x03,0x00,0x00,0x00,0x00,0x00,0x00,0x00,0x00,0x00,0x00,0x00,0x00,0x00,0x00,
 0x00,0x00,0x00,0x00,0x00,0xfe,0x8f,0x3f,0x00,0xff,0xf3,0xe0,0x3f,0xff,0x07,
 0x87,0xff,0x01,0x00,0x00,0x00,0x00,0x00,0x00,0x00,0x00,0x00,0x00,0x00,0x00,
 0x00,0x00,0x00,0x00,0x00,0x00,0x00,0xfc,0x83,0x3f,0x00,0xff,0xf3,0xff,0xbf,
 0xff,0x07,0xc0,0x3f,0x00,0x00,0x00,0x00,0x00,0x00,0x00,0x00,0x00,0x00,0x00,
 0x00,0x00,0x00,0x00,0x00,0x00,0x00,0x00,0x00,0xf8,0xc0,0x3f,0x00,0xff,0xf3,
 0xff,0x9f,0xff,0x03,0xe0,0x07,0x00,0x00,0x00,0x00,0x00,0x00,0x00,0x00,0x00,
 0x00,0x00,0x00,0x00,0x00,0x00,0x00,0x00,0x00,0x00,0x00,0x00,0xc0,0x3f,0x00,
 0xff,0xfb,0xff,0xcf,0xff,0x03,0xf0,0x01,0x00,0x00,0x00,0x00,0x00,0x00,0x00,
 0x00,0x00,0x00,0x00,0x00,0x00,0x00,0x00,0x00,0x00,0x00,0x00,0x00,0x00,0xc0,
 0x7f,0x80,0xff,0xfb,0xff,0xcf,0xff,0x01,0x7c,0x00,0x00,0x00,0x00,0x00,0x00,
 0x00,0x00,0x00,0x00,0x00,0x00,0x00,0x00,0x00,0x00,0x00,0x00,0x00,0x00,0x00,
 0x00,0xc0,0xff,0x80,0xff,0xf9,0xff,0x87,0x7f,0x00,0x3e,0x00,0x00,0x00,0x00,
 0x00,0x00,0x00,0x00,0x00,0x00,0x00,0x00,0x00,0x00,0x00,0x00,0x00,0x00,0x00,
 0x00,0x00,0x00,0xe0,0xff,0xef,0xff,0xf9,0xff,0x03,0x0c,0x00,0x1f,0x00,0x00,
 0x00,0x00,0x00,0x00,0x00,0x00,0x00,0x00,0x00,0x00,0x00,0x00,0x00,0x00,0x00,
 0x00,0x00,0x00,0x00,0x00,0xe0,0xff,0xff,0xff,0xf9,0xff,0x03,0x00,0xc0,0x0f,
 0x00,0x00,0x00,0x00,0x00,0x00,0x00,0x00,0x00,0x00,0x00,0x00,0x00,0x00,0x00,
 0x00,0x00,0x00,0x00,0x00,0x00,0x00,0xe0,0xff,0xff,0xff,0xfd,0xff,0x01,0x00,
 0xf0,0x07,0x00,0x00,0x00,0x00,0x00,0x00,0x00,0x00,0x00,0x00,0x00,0x00,0x00,
 0x00,0x00,0x00,0x00,0x00,0x00,0x00,0x00,0x00,0xe0,0xff,0xff,0xff,0xfc,0x7f,
 0x00,0x00,0xf8,0x01,0x00,0x00,0x00,0x00,0x00,0x00,0x00,0x00,0x00,0x00,0x00,
 0x00,0x00,0x00,0x00,0x00,0x00,0x00,0x00,0x00,0x00,0x00,0xe0,0xff,0xff,0xff,
 0xfc,0x3f,0x00,0x00,0xf8,0x00,0x00,0x00,0x00,0x00,0x00,0x00,0x00,0x00,0x00,
 0x00,0x00,0x00,0x00,0x00,0x00,0x00,0x00,0x00,0x00,0x00,0x00,0x00,0xc0,0xff,
 0xff,0x7f,0xf8,0x07,0x00,0x00,0x7c,0x00,0x00,0x00,0x00,0x00,0x00,0x00,0x00,
 0x00,0x00,0x00,0x00,0x00,0x00,0x00,0x00,0x00,0x00,0x00,0x00,0x00,0x00,0x00,
 0xc0,0xff,0xff,0x3f,0x00,0x00,0x00,0x00,0x3e,0x00,0x00,0x00,0x00,0x00,0x00,
 0x00,0x00,0x00,0x00,0x00,0x00,0x00,0x00,0x00,0x00,0x00,0x00,0x00,0x00,0x00,
 0x00,0x00,0xc0,0xff,0xff,0x1f,0x00,0x00,0x00,0x00,0x1f,0x00,0x00,0x00,0x00,
 0x00,0x00,0x00,0x00,0x00,0x00,0x00,0x00,0x00,0x00,0x00,0x00,0x00,0x00,0x00,
 0x00,0x00,0x00,0x00,0x80,0xff,0xff,0x0f,0x00,0x00,0x00,0x80,0x0f,0x00,0x00,
 0x00,0x00,0x00,0x00,0x00,0x00,0x00,0x00,0x00,0x00,0x00,0x00,0x00,0x00,0x00,
 0x00,0x00,0x00,0x00,0x00,0x00,0x00,0xff,0xff,0x07,0x00,0x00,0x00,0xe0,0x07,
 0x00,0x00,0x00,0x00,0x00,0x00,0x00,0x00,0x00,0x00,0x00,0x00,0x00,0x00,0x00,
 0x00,0x00,0x00,0x00,0x00,0x00,0x00,0x00,0x00,0xfe,0xff,0x03,0x00,0x00,0x00,
 0xf0,0x03,0x00,0x00,0x00,0x00,0x00,0x00,0x00,0x00,0x00,0x00,0x00,0x00,0x00,
 0x00,0x00,0x00,0x00,0x00,0x00,0x00,0x00,0x00,0x00,0x00,0xfc,0xff,0x00,0x00,
 0x00,0x00,0xf8,0x01,0x00,0x00,0x00,0x00,0x00,0x00,0x00,0x00,0x00,0x00,0x00,
 0x00,0x00,0x00,0x00,0x00,0x00,0x00,0x00,0x00,0x00,0x00,0x00,0x00,0xf8,0x3f,
 0x00,0x00,0x00,0x00,0x7c,0x00,0x00,0x00,0x00,0x00,0x00,0x00,0x00,0x00,0x00,
 0x00,0x00,0x00,0x00,0x00,0x00,0x00,0x00,0x00,0x00,0x00,0x00,0x00,0x00,0x00,
 0xe0,0x07,0x00,0x00,0x00,0x00,0x18,0x00,0x00,0x00,0x00,0x00,0x00,0x00,0x00,
 0x00,0x00,0x00,0x00,0x00,0x00,0x00,0x00 };
