#define shinobi_width 256
#define shinobi_height 64
static unsigned char shinobi_bits[] = {
   0x00, 0x00, 0x00, 0x00, 0x00, 0x00, 0x00, 0x00, 0x00, 0x00, 0x00, 0x00,
   0x00, 0x00, 0x00, 0x00, 0x00, 0x20, 0x00, 0x00, 0x00, 0x00, 0x00, 0x00,
   0x00, 0x00, 0x00, 0x00, 0x00, 0x00, 0x00, 0x00, 0x00, 0x00, 0x00, 0x00,
   0x00, 0x00, 0x00, 0x00, 0x00, 0x00, 0x00, 0x00, 0x80, 0x00, 0x00, 0x00,
   0x00, 0xd8, 0x00, 0x00, 0x00, 0x00, 0x00, 0x00, 0x00, 0x00, 0x00, 0x00,
   0x00, 0x00, 0x00, 0x00, 0x00, 0x00, 0x00, 0x00, 0x00, 0x00, 0x00, 0x00,
   0x00, 0x00, 0x00, 0x00, 0x80, 0x06, 0x00, 0x00, 0x00, 0x0b, 0x03, 0x00,
   0x00, 0x00, 0x00, 0x00, 0x00, 0x00, 0x00, 0x00, 0x00, 0x00, 0x00, 0x00,
   0x00, 0x00, 0x00, 0x00, 0x00, 0x00, 0x00, 0x00, 0x00, 0x00, 0x00, 0x00,
   0x00, 0x19, 0x00, 0x00, 0x80, 0xb2, 0x04, 0x00, 0x00, 0x00, 0x00, 0x00,
   0x00, 0x00, 0x00, 0x00, 0x00, 0x00, 0x00, 0x00, 0x00, 0x00, 0x00, 0x00,
   0x00, 0x00, 0x00, 0x00, 0x00, 0x00, 0x00, 0x00, 0x00, 0x65, 0x01, 0xa0,
   0xbe, 0x54, 0x05, 0x00, 0x00, 0x00, 0x00, 0x00, 0x00, 0x00, 0x00, 0x00,
   0x00, 0x00, 0x00, 0x00, 0x00, 0x00, 0x00, 0x00, 0x00, 0x00, 0x00, 0x00,
   0x00, 0x00, 0x00, 0x00, 0x00, 0x49, 0xdb, 0x5e, 0xa1, 0x4a, 0x1a, 0x00,
   0x00, 0x00, 0x00, 0x00, 0x00, 0x00, 0x00, 0x00, 0x00, 0x00, 0x00, 0x00,
   0x00, 0x00, 0x00, 0x00, 0x00, 0x00, 0x00, 0x00, 0x00, 0x00, 0x00, 0x00,
   0x00, 0x2a, 0x25, 0xa1, 0x4a, 0xa9, 0x22, 0x00, 0x00, 0x00, 0x00, 0x00,
   0x00, 0x00, 0x00, 0x00, 0x00, 0x00, 0x00, 0x00, 0x00, 0x00, 0x00, 0x00,
   0x00, 0x00, 0x00, 0x00, 0x00, 0x00, 0x00, 0x00, 0x00, 0x56, 0xa9, 0x2a,
   0x55, 0x4a, 0x55, 0x00, 0x00, 0x00, 0x00, 0x00, 0x00, 0x00, 0x00, 0x00,
   0x00, 0x00, 0x00, 0x00, 0x00, 0x00, 0x00, 0x00, 0x00, 0x00, 0x00, 0x00,
   0x00, 0x00, 0x00, 0x00, 0x00, 0x28, 0x55, 0xa5, 0x94, 0x92, 0xaa, 0x00,
   0x00, 0x00, 0x00, 0x00, 0x00, 0x00, 0x00, 0x00, 0x00, 0x00, 0x00, 0x00,
   0x00, 0x00, 0x00, 0x00, 0x00, 0x00, 0x00, 0x00, 0x00, 0x00, 0x00, 0x00,
   0x00, 0x48, 0x4a, 0x2a, 0x51, 0xaa, 0xa4, 0x00, 0x00, 0x00, 0x00, 0x00,
   0x00, 0x00, 0x00, 0x00, 0x00, 0x00, 0x00, 0x00, 0x00, 0x00, 0x00, 0x00,
   0x00, 0x00, 0x00, 0x00, 0x00, 0x00, 0x00, 0x00, 0x00, 0xa8, 0x52, 0xc9,
   0xae, 0x95, 0x4a, 0x01, 0x00, 0x00, 0x00, 0x00, 0x00, 0x00, 0x00, 0x00,
   0x00, 0x00, 0x00, 0x00, 0x00, 0x00, 0x00, 0x00, 0x00, 0x00, 0x00, 0x00,
   0x00, 0x00, 0x00, 0x00, 0x00, 0xb0, 0x2a, 0xd5, 0x03, 0x2a, 0x95, 0x00,
   0x00, 0x00, 0x00, 0x00, 0x00, 0x00, 0x00, 0x00, 0x00, 0x00, 0x00, 0x00,
   0x00, 0x00, 0x00, 0x00, 0x00, 0x00, 0x00, 0x00, 0x00, 0x00, 0x00, 0x00,
   0x00, 0x20, 0xc5, 0x32, 0x01, 0xa4, 0x54, 0x00, 0x00, 0x00, 0x00, 0x00,
   0x00, 0x00, 0x00, 0x00, 0x00, 0x00, 0x00, 0x00, 0x00, 0x00, 0x00, 0x00,
   0x00, 0x00, 0x00, 0x00, 0x00, 0x00, 0x00, 0x00, 0x00, 0x80, 0x58, 0xa0,
   0x00, 0x54, 0x65, 0x00, 0x00, 0x00, 0x00, 0x00, 0x00, 0x00, 0x00, 0x00,
   0x00, 0x00, 0x00, 0x00, 0x00, 0x00, 0x00, 0x00, 0x00, 0x00, 0x00, 0x00,
   0x00, 0x00, 0x00, 0x00, 0x00, 0x80, 0x0b, 0xac, 0x00, 0x4a, 0x19, 0x00,
   0x00, 0x00, 0x00, 0x00, 0x00, 0x00, 0x00, 0x00, 0x00, 0x00, 0x00, 0x00,
   0x00, 0x00, 0x00, 0x00, 0x00, 0x00, 0x00, 0x00, 0x00, 0x00, 0x00, 0x00,
   0x00, 0x00, 0x00, 0x48, 0x00, 0x52, 0x12, 0x00, 0x00, 0x00, 0x00, 0x00,
   0x00, 0x00, 0x00, 0x00, 0x00, 0x00, 0x00, 0x00, 0x00, 0x00, 0x00, 0x00,
   0x00, 0x00, 0x00, 0x00, 0x00, 0x00, 0x00, 0x00, 0x00, 0x00, 0x00, 0x56,
   0x00, 0x4a, 0x0d, 0x00, 0x00, 0x00, 0x00, 0x00, 0x00, 0x00, 0x00, 0x00,
   0x00, 0x00, 0x00, 0x00, 0x00, 0x00, 0x00, 0x00, 0x00, 0x00, 0x00, 0x00,
   0x00, 0x00, 0x00, 0x00, 0x00, 0x00, 0x00, 0x29, 0x00, 0xaa, 0x04, 0x00,
   0x00, 0x00, 0x00, 0x00, 0x00, 0x00, 0x00, 0x00, 0x00, 0x00, 0x00, 0x00,
   0x00, 0x00, 0x00, 0x00, 0x00, 0x00, 0x00, 0x00, 0x00, 0x00, 0x00, 0x00,
   0x00, 0x00, 0x80, 0x12, 0x00, 0x95, 0x02, 0x00, 0x00, 0x00, 0x00, 0x00,
   0x00, 0x00, 0x00, 0x00, 0x00, 0x00, 0x00, 0x00, 0x00, 0x00, 0x00, 0x00,
   0x00, 0x00, 0x00, 0x00, 0x00, 0x00, 0x00, 0x00, 0x00, 0x00, 0x40, 0x15,
   0x00, 0xa5, 0x02, 0x00, 0x00, 0x00, 0x00, 0x00, 0x00, 0x00, 0x00, 0x00,
   0x00, 0x00, 0x00, 0x00, 0x00, 0x00, 0x00, 0x00, 0x00, 0x00, 0x00, 0x00,
   0x00, 0x00, 0x00, 0x00, 0x00, 0x40, 0xab, 0x1a, 0x80, 0x94, 0x02, 0x00,
   0x00, 0x00, 0x00, 0x00, 0x00, 0x00, 0x00, 0x00, 0x00, 0x00, 0x00, 0x00,
   0x00, 0x00, 0x00, 0x00, 0x00, 0x00, 0x00, 0xf0, 0x0f, 0x00, 0x00, 0x00,
   0x00, 0x58, 0x2a, 0x09, 0x80, 0x15, 0x01, 0x00, 0x00, 0x00, 0x00, 0x00,
   0x00, 0x00, 0x00, 0x00, 0x00, 0x00, 0x00, 0x00, 0x00, 0x00, 0x00, 0x00,
   0x00, 0x00, 0x00, 0xfc, 0x1f, 0x00, 0x00, 0x40, 0x20, 0x50, 0xa5, 0x24,
   0x40, 0xe4, 0x00, 0x00, 0x00, 0x00, 0x00, 0x00, 0x00, 0x07, 0x00, 0x00,
   0x00, 0x00, 0x00, 0x00, 0x00, 0x00, 0x00, 0x00, 0x00, 0x00, 0x00, 0xff,
   0x3f, 0x00, 0x00, 0xe0, 0xe0, 0x81, 0x2a, 0xc5, 0x41, 0xf9, 0x81, 0xff,
   0x00, 0x00, 0x00, 0x7c, 0x00, 0xfe, 0x00, 0x00, 0x00, 0x00, 0x00, 0x00,
   0x00, 0x00, 0x00, 0x00, 0x00, 0x00, 0xc0, 0xff, 0x3f, 0x07, 0x00, 0xf0,
   0xc1, 0x4f, 0xf9, 0x1f, 0xad, 0xfa, 0x03, 0xf0, 0x03, 0x00, 0x00, 0xfe,
   0x03, 0xfc, 0x03, 0x00, 0x00, 0x00, 0x00, 0x00, 0x00, 0x00, 0x00, 0x00,
   0x00, 0x00, 0xf0, 0xff, 0x3f, 0x0e, 0x00, 0xf8, 0x01, 0x7f, 0xe5, 0x3f,
   0x54, 0xfe, 0x07, 0xc0, 0x0f, 0x06, 0x80, 0xff, 0x07, 0xf0, 0x0f, 0x00,
   0x00, 0x00, 0x00, 0x00, 0x00, 0x00, 0x00, 0x00, 0x00, 0x00, 0xf8, 0xff,
   0x1f, 0x1e, 0x00, 0xfc, 0x01, 0xff, 0xea, 0x7f, 0x94, 0xff, 0x07, 0x1c,
   0x3f, 0x1c, 0xe0, 0xff, 0x0f, 0xe0, 0x1f, 0x00, 0x00, 0x00, 0x00, 0x00,
   0x00, 0x00, 0x00, 0x00, 0x00, 0x00, 0xfc, 0xff, 0x0f, 0x1c, 0x00, 0xff,
   0x01, 0xfe, 0x89, 0x7f, 0xa8, 0xff, 0x8f, 0x7f, 0x7e, 0x38, 0xf8, 0xff,
   0x1f, 0xc0, 0x3f, 0x00, 0x00, 0x00, 0x00, 0x00, 0x00, 0x00, 0x00, 0x00,
   0x00, 0x00, 0xfe, 0xff, 0x07, 0x3c, 0x80, 0x7f, 0x00, 0xfe, 0x2a, 0x7f,
   0xf0, 0xff, 0xef, 0xff, 0xfc, 0xf0, 0xfc, 0xe3, 0x1f, 0x80, 0x7f, 0x00,
   0x00, 0x00, 0x00, 0x00, 0x00, 0x00, 0x00, 0x00, 0x00, 0x00, 0xff, 0xe7,
   0x07, 0x3c, 0xc0, 0x3f, 0x00, 0xfc, 0x69, 0xff, 0xf0, 0x7b, 0xf4, 0x7f,
   0xfc, 0xe0, 0x7f, 0xc0, 0x3f, 0x80, 0x7f, 0x00, 0x00, 0x00, 0x00, 0x00,
   0x00, 0x00, 0x00, 0x00, 0x00, 0x80, 0xff, 0xc1, 0x03, 0x7c, 0xe0, 0x3f,
   0x00, 0xfc, 0xaa, 0xfe, 0x18, 0x7c, 0xf8, 0x3f, 0xf8, 0xc1, 0x1f, 0xc0,
   0x3f, 0x80, 0x7f, 0x00, 0x00, 0x00, 0x00, 0x00, 0x00, 0x00, 0x00, 0x00,
   0x00, 0xc0, 0x7f, 0x80, 0x03, 0x7c, 0x78, 0x1e, 0x00, 0xfc, 0x8a, 0xfe,
   0x61, 0x7d, 0xfa, 0x1f, 0xf8, 0xc3, 0x0f, 0x80, 0x1f, 0x80, 0x3f, 0x00,
   0x00, 0x00, 0x00, 0x00, 0x00, 0x00, 0x00, 0x00, 0x00, 0xc0, 0x1f, 0x80,
   0x03, 0x78, 0x08, 0xff, 0x00, 0x7e, 0x80, 0xfe, 0xa3, 0xbe, 0xfc, 0x39,
   0xf0, 0xc3, 0x0f, 0xc0, 0x1f, 0xc0, 0x1f, 0x00, 0x00, 0x00, 0x00, 0x00,
   0x00, 0x00, 0x00, 0x00, 0x00, 0xc0, 0x0f, 0x00, 0x03, 0x7c, 0x00, 0x7f,
   0x01, 0x7e, 0x00, 0xfd, 0x47, 0x3f, 0xfc, 0x34, 0xf0, 0x83, 0x0f, 0xe0,
   0x3f, 0xc0, 0x1f, 0x00, 0x00, 0x00, 0x00, 0x00, 0x00, 0x00, 0x00, 0x00,
   0x00, 0xc0, 0x0f, 0x00, 0x03, 0xf8, 0x80, 0xff, 0x02, 0x3e, 0x00, 0xfd,
   0x8f, 0x7f, 0xfc, 0x72, 0xf0, 0x87, 0x0f, 0xf0, 0x7f, 0xc0, 0x0f, 0x00,
   0x00, 0x00, 0x00, 0x00, 0x00, 0x00, 0x00, 0x00, 0x00, 0xc0, 0x0f, 0x00,
   0x02, 0xfc, 0xe0, 0xff, 0x0d, 0x7f, 0x00, 0xfe, 0x1f, 0x3f, 0xfc, 0xaa,
   0xf0, 0x87, 0x0f, 0xfc, 0xff, 0xc0, 0x0f, 0x00, 0x00, 0x00, 0x00, 0x00,
   0x00, 0x00, 0x00, 0x00, 0x00, 0x80, 0x7f, 0x00, 0x00, 0xf8, 0xfc, 0xff,
   0x09, 0xff, 0x02, 0xfe, 0x3e, 0x1f, 0x7e, 0x95, 0xf0, 0x07, 0x1f, 0xff,
   0xff, 0xe1, 0x0f, 0x00, 0x00, 0x00, 0x00, 0x00, 0x00, 0x00, 0x00, 0x00,
   0x00, 0x80, 0xff, 0x0f, 0x00, 0xfc, 0xff, 0xff, 0x33, 0xff, 0x0b, 0xfc,
   0xfe, 0x1f, 0x7e, 0x54, 0xf1, 0x07, 0xbf, 0x1f, 0xfc, 0xe1, 0x0f, 0x00,
   0x00, 0x00, 0x00, 0x00, 0x00, 0x00, 0x00, 0x00, 0x00, 0x00, 0xff, 0x7f,
   0x20, 0xfe, 0xff, 0xff, 0x27, 0x7f, 0x2b, 0xfc, 0xfc, 0x0f, 0x7e, 0xa5,
   0xf0, 0x0f, 0xff, 0x03, 0xfc, 0xe3, 0x0f, 0x00, 0x00, 0x00, 0x00, 0x00,
   0x00, 0x00, 0x00, 0x00, 0x00, 0x00, 0xfe, 0xff, 0xf9, 0xff, 0xff, 0xff,
   0x57, 0x7f, 0xaf, 0xfe, 0xfe, 0x0f, 0x7e, 0x55, 0xf1, 0x0f, 0xff, 0x01,
   0xf8, 0xe3, 0x0f, 0x00, 0x00, 0x00, 0x00, 0x00, 0x00, 0x00, 0x00, 0x00,
   0x00, 0x00, 0xf8, 0xff, 0xf9, 0xff, 0xdf, 0xff, 0xa3, 0x7f, 0xae, 0xfe,
   0xfd, 0x0f, 0x7e, 0x4a, 0xf1, 0x8f, 0xff, 0x00, 0xf8, 0xe3, 0x0f, 0x00,
   0x00, 0x00, 0x00, 0x00, 0x00, 0x00, 0x00, 0x00, 0x00, 0x10, 0xc0, 0xff,
   0xf3, 0xff, 0x83, 0xff, 0x1f, 0xff, 0x5d, 0xff, 0xf8, 0x0f, 0xfe, 0x52,
   0xf9, 0x8f, 0x7f, 0x00, 0xf8, 0xe3, 0x0f, 0x00, 0x00, 0x00, 0x00, 0x00,
   0x00, 0x00, 0x00, 0x00, 0x00, 0x10, 0x00, 0xff, 0x67, 0xff, 0xc1, 0xff,
   0x7d, 0xff, 0x3c, 0xff, 0xfa, 0x4f, 0x7e, 0x95, 0xf8, 0x87, 0x7f, 0x00,
   0xfc, 0xf3, 0x0f, 0x00, 0x00, 0x00, 0x00, 0x00, 0x00, 0x00, 0x00, 0x00,
   0x00, 0x30, 0x00, 0xfc, 0x67, 0xff, 0x80, 0x7f, 0xf9, 0xff, 0xbd, 0xff,
   0xf5, 0x4f, 0xfe, 0xa4, 0xfc, 0x87, 0x7f, 0x00, 0xfc, 0xf3, 0x0f, 0x00,
   0x00, 0x00, 0x00, 0x00, 0x00, 0x00, 0x00, 0x00, 0x00, 0x30, 0x00, 0xf8,
   0xe7, 0xff, 0xc0, 0xff, 0xf2, 0xff, 0xfa, 0xff, 0xf2, 0x5f, 0xfe, 0xa9,
   0xfc, 0x87, 0x7f, 0x00, 0xfe, 0xf3, 0x1f, 0x00, 0x00, 0x00, 0x00, 0x00,
   0x00, 0x00, 0x00, 0x00, 0x00, 0x70, 0x00, 0xfc, 0xe7, 0xff, 0xc0, 0xff,
   0xf4, 0xff, 0xfa, 0xff, 0xea, 0x9f, 0xfe, 0x87, 0xfe, 0xc7, 0x7f, 0x80,
   0xff, 0xe3, 0x1f, 0x00, 0x00, 0x00, 0x00, 0x00, 0x00, 0x00, 0x00, 0x00,
   0x00, 0x70, 0x00, 0xfe, 0xe3, 0xff, 0xc0, 0xff, 0xe5, 0xff, 0xfd, 0x7f,
   0xf5, 0xbf, 0xff, 0xff, 0xff, 0xc7, 0x7f, 0x80, 0xff, 0xf7, 0x1f, 0x00,
   0x00, 0x00, 0x00, 0x00, 0x00, 0x00, 0x00, 0x00, 0x00, 0xf0, 0x80, 0xff,
   0xe3, 0x7f, 0xc0, 0xff, 0xd5, 0xff, 0xf9, 0x3f, 0xe5, 0x7f, 0xfe, 0xff,
   0xff, 0xc7, 0x7f, 0xe0, 0xff, 0xfd, 0x1f, 0x00, 0x00, 0x00, 0x00, 0x00,
   0x00, 0x00, 0x00, 0x00, 0x00, 0xf8, 0xff, 0xff, 0xe3, 0x7f, 0xc0, 0xff,
   0xe9, 0xff, 0xfd, 0x3f, 0xca, 0xff, 0xfe, 0xff, 0xff, 0xc3, 0x3f, 0xf8,
   0xff, 0xf8, 0x3f, 0x00, 0x00, 0x00, 0x00, 0x00, 0x00, 0x00, 0x00, 0x00,
   0x00, 0xfc, 0xff, 0xff, 0xf1, 0x7f, 0xc0, 0xff, 0xcb, 0xff, 0xfd, 0x1f,
   0xda, 0xff, 0xfd, 0xff, 0xff, 0xc3, 0x3f, 0xfe, 0x7f, 0xf8, 0x3f, 0x00,
   0x00, 0x00, 0x00, 0x00, 0x00, 0x00, 0x00, 0x00, 0x00, 0xfc, 0xff, 0xff,
   0xf0, 0x3f, 0x80, 0xff, 0xd4, 0xff, 0xfd, 0x1f, 0xd0, 0xff, 0xfc, 0xff,
   0xff, 0x81, 0xff, 0xff, 0x7f, 0xf0, 0x3f, 0x00, 0x00, 0x00, 0x00, 0x00,
   0x00, 0x00, 0x00, 0x00, 0x00, 0xfe, 0xff, 0x7f, 0xf0, 0x3f, 0x80, 0xff,
   0xa4, 0xff, 0xfd, 0x1f, 0xc0, 0xff, 0xfa, 0xff, 0xff, 0xff, 0xff, 0xff,
   0x1f, 0xf0, 0x7f, 0x00, 0x00, 0x00, 0x00, 0x00, 0x00, 0x00, 0x00, 0x00,
   0x00, 0xfe, 0xff, 0x3f, 0xf0, 0x3f, 0x80, 0xff, 0xca, 0xff, 0xfd, 0x0f,
   0x80, 0xff, 0xf5, 0xff, 0xff, 0xfc, 0xff, 0xff, 0x0f, 0xe0, 0x7f, 0x00,
   0x00, 0x00, 0x00, 0x00, 0x00, 0x00, 0x00, 0x00, 0x00, 0xfc, 0xff, 0x1f,
   0xf0, 0x1f, 0x80, 0x7f, 0xa9, 0xff, 0xfd, 0x0f, 0xc0, 0xff, 0xf4, 0xff,
   0x7f, 0xf0, 0xff, 0xff, 0x07, 0xe0, 0x7f, 0x00, 0x00, 0x00, 0x00, 0x00,
   0x00, 0x00, 0x00, 0x00, 0x00, 0xfc, 0xff, 0x0f, 0xf0, 0x0f, 0x00, 0x3f,
   0x95, 0xff, 0xfd, 0x57, 0xdd, 0xff, 0xea, 0xff, 0x3f, 0xc0, 0xff, 0xff,
   0x03, 0xe0, 0x7f, 0x00, 0x00, 0x00, 0x00, 0x00, 0x00, 0x00, 0x00, 0x00,
   0x00, 0xf0, 0xff, 0x07, 0xf0, 0x0f, 0x00, 0x3e, 0xaa, 0x7f, 0xfe, 0x57,
   0xa9, 0x7f, 0xc9, 0xff, 0x1f, 0x00, 0xff, 0xff, 0x00, 0xe0, 0x3f, 0x00,
   0x00, 0x00, 0x00, 0x00, 0x00, 0x00, 0x00, 0x00, 0x00, 0xe0, 0xff, 0x01,
   0xe0, 0x07, 0x00, 0x0e, 0xaa, 0x3f, 0xfd, 0x4b, 0xd2, 0x7f, 0x95, 0xff,
   0x07, 0x00, 0xfe, 0x7f, 0x00, 0xc0, 0x1f, 0x00, 0x00, 0x00, 0x00, 0x00,
   0x00, 0x00, 0x00, 0x00, 0x00, 0x00, 0x3e, 0x00, 0xc0, 0x01, 0x00, 0x00,
   0xa8, 0x1e, 0xfa, 0x51, 0x25, 0x3f, 0x29, 0xfd, 0x00, 0x00, 0xfc, 0x1f,
   0x00, 0xc0, 0x0f, 0x00, 0x00, 0x00, 0x00, 0x00, 0x00, 0x00, 0x00, 0x00,
   0x00, 0x00, 0x00, 0x00, 0x00, 0x00, 0x00, 0x00, 0x00, 0x00, 0xfa, 0x96,
   0xaa, 0x5e, 0x55, 0x05, 0x00, 0x00, 0xf8, 0x07, 0x00, 0x80, 0x07, 0x00,
   0x00, 0x00, 0x00, 0x00, 0x00, 0x00, 0x00, 0x00, 0x00, 0x00, 0x00, 0x00,
   0x00, 0x00, 0x00, 0x00, 0x00, 0x00, 0x94, 0xa8, 0x4a, 0x4d, 0xa5, 0x04,
   0x00, 0x00, 0x00, 0x00, 0x00, 0x00, 0x00, 0x00, 0x00, 0x00, 0x00, 0x00,
   0x00, 0x00, 0x00, 0x00, 0x00, 0x00, 0x00, 0x00, 0x00, 0x00, 0x00, 0x00,
   0x00, 0x00, 0xa8, 0x12, 0x54, 0x92, 0x94, 0x02, 0x00, 0x00, 0x00, 0x00,
   0x00, 0x00, 0x00, 0x00, 0x00, 0x00, 0x00, 0x00, 0x00, 0x00, 0x00, 0x00,
   0x00, 0x00, 0x00, 0x00, 0x00, 0x00, 0x00, 0x00, 0x00, 0x00, 0xa0, 0xea,
   0x8b, 0x74, 0x25, 0x05, 0x00, 0x00, 0x00, 0x00, 0x00, 0x00, 0x00, 0x00,
   0x00, 0x00, 0x00, 0x00, 0x00, 0x00, 0x00, 0x00, 0x00, 0x00, 0x00, 0x00,
   0x00, 0x00, 0x00, 0x00, 0x00, 0x00, 0x80, 0x02, 0x00, 0x00, 0x54, 0x02,
   0x00, 0x00, 0x00, 0x00, 0x00, 0x00, 0x00, 0x00, 0x00, 0x00, 0x00, 0x00,
   0x00, 0x00, 0x00, 0x00, 0x00, 0x00, 0x00, 0x00, 0x00, 0x00, 0x00, 0x00,
   0x00, 0x00, 0x00, 0x00, 0x00, 0x00, 0x40, 0x01, 0x00, 0x00, 0x00, 0x00,
   0x00, 0x00, 0x00, 0x00, 0x00, 0x00, 0x00, 0x00 };
