#define spyhunt_width 256
#define spyhunt_height 64
static unsigned char spyhunt_bits[] = {
   0x00, 0x00, 0x00, 0x00, 0x00, 0x00, 0x00, 0x00, 0x00, 0x00, 0x00, 0x00,
   0x00, 0x00, 0x00, 0x00, 0x00, 0x00, 0x00, 0x00, 0x00, 0x00, 0x00, 0x00,
   0x00, 0x00, 0x00, 0x00, 0x00, 0x00, 0x00, 0x00, 0x00, 0x00, 0x00, 0x00,
   0x00, 0x00, 0x00, 0xff, 0xff, 0xff, 0xff, 0xff, 0xff, 0xff, 0xff, 0xff,
   0x00, 0xe0, 0x7f, 0x00, 0x00, 0x00, 0x00, 0x00, 0x00, 0x00, 0x00, 0x00,
   0x00, 0x00, 0x00, 0x00, 0x00, 0x00, 0x00, 0x00, 0x00, 0x00, 0x80, 0xff,
   0xff, 0xff, 0xff, 0xff, 0xff, 0xff, 0xff, 0xff, 0x00, 0xf0, 0x7f, 0x00,
   0x00, 0x00, 0x00, 0x00, 0x00, 0x00, 0x00, 0x00, 0x00, 0x00, 0x00, 0x00,
   0x00, 0x00, 0x00, 0x00, 0x00, 0x00, 0xc0, 0xff, 0xff, 0xff, 0xff, 0xff,
   0xff, 0xff, 0xff, 0xff, 0x01, 0xfc, 0x3f, 0x00, 0x00, 0x00, 0x00, 0x00,
   0x00, 0x00, 0x00, 0x00, 0x00, 0x00, 0x00, 0x00, 0x00, 0x00, 0x00, 0x00,
   0x00, 0x00, 0xe0, 0xff, 0xff, 0xff, 0xff, 0xff, 0xff, 0xff, 0xff, 0xff,
   0x01, 0xfc, 0x1f, 0x00, 0x00, 0x00, 0x00, 0x00, 0x00, 0x00, 0x00, 0x00,
   0x00, 0x00, 0x00, 0x00, 0x00, 0x00, 0x00, 0x00, 0x00, 0x00, 0xf0, 0xff,
   0xff, 0xff, 0xff, 0xff, 0xff, 0xff, 0xff, 0xff, 0x03, 0xfe, 0x0f, 0x00,
   0x00, 0x00, 0x00, 0x00, 0x00, 0x00, 0x00, 0x00, 0x00, 0x00, 0x00, 0x00,
   0x00, 0x00, 0x00, 0x00, 0x00, 0x00, 0xf0, 0xbf, 0x52, 0x92, 0x24, 0x95,
   0x24, 0x49, 0x92, 0x52, 0x05, 0xff, 0x29, 0x04, 0x00, 0x00, 0x00, 0x00,
   0x00, 0x00, 0x00, 0x00, 0x00, 0x00, 0x00, 0x00, 0x00, 0x00, 0x00, 0x00,
   0x00, 0x00, 0xf0, 0x07, 0x00, 0x00, 0x00, 0x00, 0x00, 0x00, 0x00, 0x00,
   0x80, 0xff, 0x80, 0x00, 0x00, 0x00, 0x00, 0x00, 0x00, 0x00, 0x00, 0x00,
   0x00, 0x00, 0x00, 0x00, 0x00, 0x00, 0x00, 0x00, 0x00, 0x00, 0xf8, 0xa3,
   0xaa, 0xaa, 0x6a, 0xa1, 0xaa, 0xaa, 0xaa, 0x50, 0xc5, 0x7f, 0x4a, 0x02,
   0x00, 0x00, 0x00, 0x00, 0x00, 0x00, 0x00, 0x00, 0x00, 0x00, 0x00, 0x00,
   0x00, 0x00, 0x00, 0x00, 0x00, 0x00, 0xf8, 0xa9, 0xaa, 0xaa, 0x2a, 0xa1,
   0xaa, 0xaa, 0xaa, 0xa0, 0xe2, 0x3f, 0x3a, 0x00, 0x00, 0x00, 0x00, 0x00,
   0x00, 0x00, 0x00, 0x00, 0x00, 0x00, 0x00, 0x00, 0x00, 0x00, 0x00, 0x00,
   0x00, 0x00, 0xf8, 0xa8, 0xaa, 0xaa, 0xaa, 0xb1, 0xca, 0xaa, 0xaa, 0xa2,
   0xf2, 0x9f, 0x0a, 0x01, 0x00, 0x00, 0x00, 0x00, 0x00, 0x00, 0x00, 0x00,
   0x00, 0x00, 0x00, 0x00, 0x00, 0x00, 0x00, 0x00, 0x00, 0x00, 0xfc, 0x54,
   0x2a, 0x55, 0xa9, 0x90, 0x2a, 0xaa, 0xaa, 0x42, 0xe5, 0x4f, 0x55, 0x00,
   0x00, 0x00, 0x00, 0x00, 0x00, 0x00, 0x00, 0x00, 0x00, 0x00, 0x00, 0x00,
   0x00, 0x00, 0x00, 0x00, 0x00, 0x00, 0x78, 0xaa, 0xdb, 0x6d, 0xb7, 0xd0,
   0xda, 0xab, 0xaa, 0x4a, 0xc5, 0x47, 0x05, 0x00, 0x00, 0x00, 0x00, 0x00,
   0x00, 0x00, 0x00, 0x00, 0x00, 0x00, 0x00, 0x00, 0x00, 0x00, 0x00, 0x00,
   0x00, 0x00, 0x7c, 0x4a, 0x00, 0x00, 0x00, 0x50, 0x22, 0x48, 0xaa, 0x90,
   0xca, 0xa3, 0x12, 0x00, 0x00, 0x00, 0x00, 0x00, 0x00, 0x00, 0x00, 0x00,
   0x00, 0x00, 0x00, 0x00, 0x00, 0x00, 0x00, 0x00, 0x00, 0x00, 0x7c, 0x2a,
   0x48, 0x24, 0x91, 0x52, 0x01, 0x00, 0x50, 0x9d, 0xd2, 0x53, 0x02, 0x00,
   0x00, 0x00, 0x00, 0x00, 0x00, 0x00, 0x00, 0x00, 0x00, 0x00, 0x00, 0x00,
   0x00, 0x00, 0x00, 0x00, 0x00, 0x00, 0x3c, 0xaa, 0xff, 0xff, 0xff, 0xa9,
   0xfc, 0xff, 0x53, 0x91, 0x8a, 0xa8, 0x09, 0x00, 0x00, 0x00, 0x00, 0x00,
   0x00, 0x00, 0x00, 0x00, 0x00, 0x00, 0x00, 0x00, 0x00, 0x00, 0x00, 0x00,
   0x00, 0x00, 0x78, 0x25, 0xa5, 0x52, 0xd5, 0xc9, 0xfc, 0xff, 0x51, 0x30,
   0x95, 0x54, 0x00, 0x00, 0x00, 0x00, 0x00, 0x00, 0x00, 0x00, 0x00, 0x00,
   0x00, 0x00, 0x00, 0x00, 0x00, 0x00, 0x00, 0x00, 0x00, 0x00, 0x30, 0x15,
   0x00, 0x00, 0xc0, 0x28, 0x94, 0x02, 0x49, 0x25, 0x15, 0x4a, 0x02, 0x00,
   0x00, 0x00, 0x00, 0x00, 0x00, 0x00, 0x00, 0x00, 0x00, 0x00, 0x00, 0x00,
   0x00, 0x00, 0x00, 0x00, 0x00, 0x00, 0x20, 0xaa, 0x2a, 0x95, 0x14, 0x95,
   0x00, 0x20, 0x54, 0x40, 0x24, 0x25, 0x00, 0x00, 0x00, 0x00, 0x00, 0x00,
   0x00, 0x00, 0x00, 0x00, 0x00, 0x00, 0x00, 0x00, 0x00, 0x00, 0x00, 0x00,
   0x00, 0x00, 0x00, 0x49, 0x54, 0x49, 0x25, 0xa9, 0x52, 0x4a, 0xa9, 0x60,
   0x2a, 0x99, 0x00, 0x00, 0x00, 0x00, 0x00, 0x00, 0x00, 0x00, 0x00, 0x00,
   0x00, 0x00, 0x00, 0x00, 0x00, 0x00, 0x00, 0x00, 0x00, 0x00, 0x2a, 0xa5,
   0x92, 0x54, 0x12, 0x24, 0x49, 0x29, 0x25, 0xc2, 0xa4, 0x44, 0x00, 0x00,
   0x00, 0x00, 0x00, 0x00, 0x00, 0x00, 0x00, 0x00, 0x00, 0x00, 0x00, 0x00,
   0x00, 0x00, 0x00, 0x00, 0x00, 0x00, 0x3e, 0x4a, 0x49, 0x29, 0x25, 0x90,
   0x94, 0x92, 0x12, 0xe1, 0x14, 0x05, 0x00, 0x00, 0x00, 0x00, 0x00, 0x00,
   0x00, 0x00, 0x00, 0x00, 0x00, 0x00, 0x00, 0x00, 0x00, 0x00, 0x00, 0x00,
   0x00, 0x00, 0x7e, 0x10, 0x22, 0x82, 0x48, 0x4a, 0x22, 0x44, 0x94, 0xe0,
   0xa0, 0x10, 0x00, 0x00, 0x00, 0x00, 0x00, 0x00, 0x00, 0x00, 0x00, 0x00,
   0x00, 0x00, 0x00, 0x00, 0x00, 0x00, 0x00, 0x00, 0x00, 0x00, 0xff, 0x00,
   0x00, 0x00, 0x12, 0x20, 0x49, 0x12, 0x01, 0xf0, 0x09, 0x01, 0x00, 0x00,
   0x00, 0x00, 0x00, 0x00, 0x00, 0x00, 0x00, 0x00, 0x00, 0x00, 0x00, 0x00,
   0x00, 0x00, 0x00, 0x00, 0x00, 0x00, 0xff, 0x77, 0xdb, 0x7e, 0x04, 0x0a,
   0x00, 0x00, 0x40, 0xe0, 0x21, 0x04, 0x00, 0x00, 0x00, 0x00, 0x00, 0x00,
   0x00, 0x00, 0x00, 0x00, 0x00, 0x00, 0x00, 0x00, 0x00, 0x00, 0x00, 0x00,
   0x00, 0x00, 0xff, 0xff, 0xff, 0x7f, 0x20, 0x20, 0x49, 0x52, 0x15, 0xf0,
   0x89, 0x00, 0x00, 0x00, 0x00, 0x00, 0x00, 0x00, 0x00, 0x00, 0x00, 0x00,
   0x00, 0x00, 0x00, 0x00, 0x00, 0x00, 0x00, 0x00, 0x00, 0x00, 0x9f, 0x84,
   0x94, 0x00, 0x02, 0x00, 0x00, 0x00, 0x00, 0xf0, 0x01, 0x04, 0x00, 0x00,
   0x00, 0x00, 0x00, 0x00, 0x00, 0x00, 0x00, 0x00, 0x00, 0x00, 0x00, 0x00,
   0x00, 0x00, 0x00, 0x00, 0x00, 0x80, 0x0f, 0x10, 0x00, 0x00, 0x08, 0x89,
   0x00, 0x00, 0x00, 0xf0, 0x21, 0x00, 0x00, 0x00, 0x00, 0x00, 0x00, 0x00,
   0x00, 0x00, 0x00, 0x00, 0x00, 0x00, 0x00, 0x00, 0x00, 0x00, 0x00, 0x00,
   0x00, 0x80, 0x0f, 0x00, 0x00, 0x01, 0x00, 0x00, 0x00, 0x00, 0x00, 0xf0,
   0x01, 0x02, 0x00, 0x00, 0x00, 0x00, 0x00, 0x00, 0x00, 0x00, 0x00, 0x00,
   0x00, 0x00, 0x00, 0x00, 0x00, 0x00, 0x00, 0xb4, 0x05, 0x00, 0x08, 0x00,
   0x00, 0x44, 0x00, 0x40, 0x55, 0x05, 0x00, 0xf8, 0x00, 0xaa, 0xaa, 0xaa,
   0xaa, 0xaa, 0xaa, 0xaa, 0xaa, 0xaa, 0xaa, 0xaa, 0x2a, 0x00, 0x00, 0x00,
   0x00, 0x00, 0x00, 0xfc, 0x07, 0x00, 0x00, 0x00, 0x00, 0x00, 0x00, 0xc0,
   0xff, 0x3f, 0x00, 0xf8, 0x00, 0xfe, 0xff, 0xff, 0xff, 0xff, 0xff, 0xff,
   0xff, 0xff, 0xff, 0xff, 0xff, 0x00, 0x00, 0x00, 0x00, 0x00, 0x00, 0xfc,
   0x07, 0x00, 0x08, 0x00, 0x00, 0x00, 0x00, 0xc0, 0xff, 0x7f, 0x00, 0xf8,
   0x00, 0xfe, 0xff, 0xff, 0xff, 0xff, 0xff, 0xff, 0xff, 0xff, 0xff, 0xff,
   0xff, 0x01, 0x00, 0x00, 0x00, 0x00, 0x00, 0xfe, 0x07, 0x00, 0x00, 0x00,
   0x00, 0x00, 0x10, 0xc0, 0xff, 0xff, 0x00, 0xf8, 0x00, 0xfe, 0xff, 0xff,
   0xff, 0xff, 0xff, 0xff, 0xff, 0xff, 0xff, 0xff, 0xff, 0x03, 0x00, 0x00,
   0x00, 0x00, 0x00, 0xfe, 0x03, 0x00, 0x08, 0x00, 0x00, 0x00, 0x15, 0xc0,
   0xff, 0xff, 0x00, 0x7c, 0x00, 0xff, 0xff, 0xff, 0xff, 0xff, 0xff, 0xff,
   0xff, 0xff, 0xff, 0xff, 0xff, 0x03, 0x00, 0x00, 0x00, 0x00, 0x00, 0xfe,
   0x0b, 0x00, 0xd0, 0xf5, 0xf7, 0x48, 0x20, 0xfb, 0xff, 0xff, 0x00, 0xfc,
   0xfb, 0xff, 0xdf, 0xff, 0xdf, 0xfb, 0xdf, 0xff, 0x7f, 0xff, 0xef, 0xdf,
   0xff, 0x03, 0x00, 0x00, 0x00, 0x00, 0x00, 0x1e, 0x40, 0x00, 0xf0, 0x05,
   0x00, 0x02, 0x80, 0x1f, 0x00, 0x00, 0x01, 0x7c, 0x00, 0x00, 0x20, 0x00,
   0x20, 0x0e, 0x20, 0x00, 0x80, 0x00, 0x10, 0x20, 0x00, 0x04, 0x00, 0x00,
   0x00, 0x00, 0x00, 0x3f, 0x12, 0x00, 0xf8, 0x10, 0x88, 0x00, 0x80, 0x8f,
   0x84, 0x24, 0x04, 0x3c, 0x0a, 0x92, 0x84, 0x88, 0x04, 0x82, 0x88, 0xa4,
   0x24, 0x20, 0x42, 0x04, 0x91, 0x00, 0x00, 0x00, 0x00, 0x00, 0x00, 0x9f,
   0x0a, 0x00, 0xf0, 0xa9, 0x54, 0x02, 0x80, 0x4f, 0x45, 0x55, 0x01, 0x7e,
   0x22, 0x55, 0x55, 0x55, 0x55, 0x52, 0x55, 0x55, 0x55, 0xa9, 0xaa, 0xaa,
   0xaa, 0x12, 0x00, 0x00, 0x00, 0x00, 0x00, 0x9f, 0xca, 0x56, 0xfd, 0x54,
   0x54, 0x00, 0x80, 0xa7, 0xa2, 0xaa, 0x02, 0x3e, 0x1d, 0xa9, 0xaa, 0xaa,
   0x6a, 0xa8, 0xca, 0x2a, 0x55, 0x51, 0x55, 0x55, 0x55, 0x05, 0x00, 0x00,
   0x00, 0x00, 0x00, 0x4f, 0xc5, 0xff, 0xff, 0x54, 0x54, 0x01, 0xc0, 0x4f,
   0x45, 0x55, 0x09, 0x3e, 0x85, 0x56, 0x55, 0x55, 0x15, 0x54, 0x35, 0xd5,
   0x2a, 0xa9, 0xaa, 0xaa, 0xaa, 0x2a, 0x00, 0x00, 0x00, 0x00, 0x80, 0x9f,
   0xea, 0xff, 0x7f, 0x2a, 0x2a, 0x00, 0xc0, 0xa7, 0xa2, 0xaa, 0x02, 0x9e,
   0x1a, 0x29, 0x55, 0x55, 0x55, 0xaa, 0xca, 0x2a, 0xd5, 0x54, 0x55, 0x55,
   0x55, 0x05, 0x00, 0x00, 0x00, 0x00, 0x80, 0x4f, 0xe5, 0xff, 0xff, 0x54,
   0x54, 0x00, 0xc0, 0xa7, 0xa2, 0xb4, 0x12, 0x3f, 0x85, 0xd6, 0xaa, 0x5a,
   0x2d, 0xaa, 0x2a, 0xa9, 0x52, 0xa8, 0x54, 0xaa, 0x52, 0x25, 0x00, 0x00,
   0x00, 0x00, 0x80, 0x4f, 0xe5, 0xff, 0x7f, 0x2a, 0x12, 0x01, 0xc0, 0x53,
   0xa1, 0x42, 0x05, 0x9f, 0x12, 0x08, 0x52, 0x01, 0x00, 0x2a, 0x00, 0x00,
   0x00, 0x54, 0x00, 0x00, 0x40, 0x05, 0x00, 0x00, 0x00, 0x00, 0x80, 0xa7,
   0xf2, 0xff, 0x7f, 0x2a, 0x2a, 0x00, 0xe0, 0xa7, 0x52, 0x49, 0x0d, 0x9f,
   0x4a, 0x41, 0xa8, 0xa4, 0x12, 0x25, 0xed, 0xee, 0xae, 0x54, 0xb6, 0xdb,
   0x8e, 0x02, 0x00, 0x00, 0x00, 0x00, 0xc0, 0x4f, 0x01, 0x00, 0x02, 0x2a,
   0x95, 0x00, 0xe0, 0x53, 0x51, 0x49, 0x21, 0x8f, 0x0a, 0xf0, 0xd3, 0x00,
   0x3e, 0x95, 0xff, 0xff, 0xff, 0x54, 0xff, 0xff, 0x4f, 0x15, 0x00, 0x00,
   0x00, 0x00, 0xc0, 0x27, 0x45, 0x22, 0x90, 0x0a, 0x2a, 0x00, 0xe0, 0x53,
   0x21, 0x19, 0x8d, 0x9f, 0x04, 0xf0, 0x29, 0x04, 0x3e, 0x15, 0x01, 0x00,
   0x20, 0x14, 0x52, 0xa9, 0xa2, 0x02, 0x00, 0x00, 0x00, 0x00, 0xc0, 0xa7,
   0x2a, 0x55, 0x55, 0x12, 0x05, 0x00, 0xe0, 0x49, 0xd0, 0x9c, 0xc2, 0x4f,
   0x25, 0xf0, 0xa1, 0x00, 0x3e, 0x29, 0x24, 0x49, 0x02, 0x4a, 0x00, 0x00,
   0x50, 0x11, 0x00, 0x00, 0x00, 0x00, 0xc0, 0xa3, 0xaa, 0xa4, 0x4a, 0x15,
   0x55, 0x00, 0xf0, 0x23, 0x29, 0x30, 0x99, 0x4f, 0x02, 0xf0, 0x59, 0x02,
   0x1f, 0xa5, 0x92, 0x24, 0x29, 0x54, 0x55, 0xaa, 0x4a, 0x02, 0x00, 0x00,
   0x00, 0x00, 0xe0, 0x27, 0x49, 0x95, 0xa4, 0x14, 0x09, 0x00, 0xf8, 0xa9,
   0x90, 0x30, 0x85, 0x47, 0x05, 0xf8, 0x44, 0x00, 0x9f, 0x12, 0x55, 0x96,
   0x55, 0x2a, 0x89, 0x12, 0x29, 0x09, 0x00, 0x00, 0x00, 0x00, 0xe0, 0x93,
   0x24, 0x22, 0x52, 0x82, 0xd4, 0xff, 0xff, 0x91, 0xa8, 0x32, 0x95, 0x4f,
   0x12, 0xf8, 0x28, 0x02, 0x1f, 0xa9, 0x88, 0x20, 0x08, 0x91, 0x54, 0xc9,
   0x44, 0x01, 0x00, 0x00, 0x00, 0x00, 0xe0, 0x23, 0x55, 0x55, 0x15, 0x15,
   0xc2, 0xff, 0xff, 0x49, 0x44, 0x20, 0x90, 0x27, 0x01, 0xf8, 0x54, 0x00,
   0x9f, 0x54, 0x55, 0x55, 0x15, 0x4a, 0xaa, 0x14, 0x2a, 0x02, 0x00, 0x00,
   0x00, 0x00, 0xe0, 0x53, 0x00, 0x00, 0x40, 0x81, 0xc4, 0xff, 0xff, 0x11,
   0x28, 0x62, 0x0a, 0x87, 0x08, 0xf8, 0x00, 0x81, 0x0f, 0x01, 0x00, 0x00,
   0x00, 0x91, 0x00, 0x22, 0x01, 0x00, 0x00, 0x00, 0x00, 0x00, 0xf0, 0x01,
   0x21, 0x22, 0x02, 0x08, 0xe1, 0xff, 0xff, 0x44, 0x04, 0x60, 0x20, 0x22,
   0x01, 0xfc, 0x28, 0x00, 0x4f, 0x04, 0x42, 0x08, 0x01, 0x08, 0x92, 0x88,
   0xa8, 0x00, 0x00, 0x00, 0x00, 0x00, 0xf0, 0x49, 0x04, 0x80, 0x9f, 0x44,
   0xe4, 0xff, 0xff, 0x08, 0x20, 0xc1, 0x04, 0x47, 0x08, 0x7c, 0x02, 0x81,
   0x0f, 0xe1, 0xbd, 0xf7, 0x3e, 0x42, 0x00, 0x20, 0x00, 0x00, 0x00, 0x00,
   0x00, 0x00, 0xf0, 0x01, 0x00, 0x80, 0x0f, 0x00, 0xa0, 0xaa, 0x2a, 0x20,
   0x00, 0xc0, 0x10, 0x00, 0x00, 0x7c, 0x20, 0x00, 0x0f, 0xf0, 0xff, 0xff,
   0x1f, 0x00, 0x00, 0x82, 0x10, 0x00, 0x00, 0x00, 0x00, 0x00, 0xf8, 0x21,
   0x02, 0x80, 0x0f, 0x81, 0x04, 0x00, 0x80, 0x04, 0x12, 0x81, 0x80, 0x48,
   0x04, 0x3c, 0x04, 0x00, 0x87, 0x00, 0x00, 0x00, 0x80, 0x24, 0x00, 0x04,
   0x04, 0x00, 0x00, 0x00, 0x00, 0x00, 0xf0, 0x00, 0x00, 0x80, 0x0f, 0x00,
   0x00, 0x00, 0x00, 0x00, 0x00, 0x00, 0x01, 0x00, 0x00, 0x7c, 0x80, 0x00,
   0x06, 0x02, 0x00, 0x00, 0x00, 0x00, 0x00, 0x08, 0x20, 0x00, 0x00, 0x00,
   0x00, 0x00, 0x50, 0x01, 0x01, 0x80, 0x06, 0x00, 0x00, 0x00, 0x00, 0x00,
   0x80, 0x00, 0x02, 0x00, 0x04, 0x34, 0x40, 0x00, 0x08, 0x00, 0x00, 0x00,
   0x00, 0x20, 0x00, 0x00, 0x40, 0x00, 0x00, 0x00, 0x00, 0x00, 0x00, 0x00,
   0x00, 0x00, 0x00, 0x00, 0x00, 0x00, 0x00, 0x00, 0x00, 0x00, 0x00, 0x00,
   0x00, 0x00, 0x00, 0x00, 0x00, 0x00, 0x00, 0x00, 0x00, 0x00, 0x00, 0x10,
   0x80, 0x00, 0x00, 0x00, 0x00, 0x00, 0x80, 0x00, 0x00, 0x00, 0x08, 0x00,
   0x00, 0x00, 0x00, 0x00, 0x80, 0x00, 0x04, 0x00, 0x02, 0x00, 0x00, 0x00,
   0x00, 0x00, 0x00, 0x00, 0x00, 0x20, 0x00, 0x20, 0x00, 0x00, 0x00, 0x00,
   0x00, 0x00, 0x00, 0x00, 0x01, 0x00, 0x00, 0x08, 0x00, 0x00, 0x00, 0x20,
   0x00, 0x00, 0x00, 0x00, 0x00, 0x20, 0x40, 0x00, 0x08, 0x00, 0x00, 0x00,
   0x00, 0x00, 0x00, 0x00, 0x00, 0x01, 0x00, 0x00, 0x00, 0x00, 0x00, 0x00,
   0x00, 0x00, 0x00, 0x10, 0x00, 0x00, 0x00, 0x10, 0x00, 0x00, 0x08, 0x00,
   0x02, 0x00, 0x00, 0x00, 0x00, 0x00, 0x00, 0x00, 0x00, 0x10, 0x00, 0x40,
   0x00, 0x02, 0x00, 0x00, 0x00, 0x00, 0x80, 0xaa, 0x00, 0x00, 0x54, 0x45,
   0x55, 0x55, 0x55, 0x45, 0x55, 0x00, 0xa0, 0xaa, 0x00, 0xa0, 0x2a, 0x00,
   0x40, 0x55, 0x55, 0x55, 0x55, 0x05, 0x00, 0x80, 0xaa, 0x00, 0x00, 0x00,
   0x00, 0x00, 0x00, 0x00, 0x00, 0x00, 0x00, 0x00, 0x00, 0x00, 0x00, 0x00,
   0x00, 0x00, 0x00, 0x00, 0x00, 0x00, 0x00, 0x00, 0x00, 0x00, 0x00, 0x00,
   0x00, 0x00, 0x00, 0x00, 0x00, 0x00, 0x00, 0x00 };
