#define _width 256
#define _height 64
static char _bits[] = {
 0x00,0x00,0x00,0x00,0x00,0x00,0x00,0x00,0x00,0x00,0x00,0x00,0x00,0x00,0x00,
 0x00,0x00,0x00,0x00,0xc0,0x01,0x00,0x00,0x00,0x00,0x00,0x00,0x00,0x00,0x00,
 0x00,0x00,0x00,0x00,0x00,0x00,0x00,0x00,0x00,0x00,0x00,0x00,0x00,0x00,0x00,
 0x00,0x00,0x00,0x00,0x00,0x00,0xc0,0x03,0x00,0x00,0x00,0x00,0x00,0x00,0x00,
 0x00,0x00,0x00,0x00,0x00,0x00,0x00,0x00,0x00,0x00,0x00,0x00,0x00,0x00,0x00,
 0x00,0x00,0x00,0x00,0x00,0x00,0x00,0x00,0xf0,0x03,0x00,0x00,0x00,0x00,0x00,
 0x00,0x00,0x00,0x00,0x00,0x00,0x00,0x00,0x00,0x00,0x00,0x00,0x00,0x00,0x00,
 0x00,0x00,0x00,0x00,0x00,0x00,0x00,0x00,0x00,0x00,0xf8,0x03,0x00,0x00,0x00,
 0x00,0x00,0x00,0x00,0x00,0x00,0x00,0x00,0x00,0x00,0x00,0x00,0x00,0x00,0x00,
 0x00,0x00,0x00,0x00,0x00,0xe0,0x00,0x00,0xe0,0x03,0x00,0x00,0xfc,0x03,0x00,
 0x00,0x00,0x00,0x00,0x00,0x00,0x00,0x00,0x00,0x00,0x00,0x00,0x00,0x00,0x00,
 0x00,0x00,0x00,0x00,0x00,0x00,0x00,0xfc,0x07,0x00,0xf0,0x07,0x00,0x00,0xfe,
 0x03,0x00,0x00,0x00,0x00,0x00,0x00,0x00,0x00,0x00,0x00,0x00,0x00,0x00,0x00,
 0x00,0x00,0x00,0x00,0x00,0x00,0x00,0x00,0xf8,0xff,0x3f,0x00,0xfe,0x1f,0x00,
 0x00,0xff,0x03,0x00,0x00,0x00,0x00,0x00,0x00,0x00,0x00,0x00,0x00,0x00,0x00,
 0x00,0x00,0x00,0x00,0x00,0x00,0x00,0x00,0x00,0x00,0xff,0xff,0x1f,0xc0,0xff,
 0x3f,0x00,0x00,0xff,0x01,0x80,0x07,0x00,0x00,0x00,0x00,0x00,0x00,0x00,0x00,
 0x00,0x00,0x00,0x00,0x00,0x00,0x00,0x00,0x00,0x00,0x00,0xfc,0xff,0xff,0x03,
 0xc0,0xff,0x7f,0x00,0x80,0xff,0x00,0xc0,0x7f,0x00,0x00,0x00,0x00,0x00,0x00,
 0x00,0x00,0x00,0x00,0x00,0x00,0x00,0x00,0x00,0x00,0x00,0x00,0x00,0xff,0xff,
 0x3f,0x00,0xe0,0xff,0x7f,0x00,0xc0,0xff,0x00,0xc0,0x7f,0x00,0x00,0x00,0x00,
 0x00,0x00,0x00,0x00,0x00,0x00,0x00,0x00,0x00,0x00,0x00,0x00,0x00,0x00,0xe0,
 0xff,0xff,0x03,0x00,0xe0,0xff,0xff,0x00,0xc0,0x7f,0x00,0xe0,0x3f,0x00,0x00,
 0x00,0x00,0x00,0x00,0x00,0x00,0x00,0x00,0x00,0x00,0x00,0x00,0x00,0x00,0x00,
 0x00,0xfc,0xff,0xff,0x00,0x00,0xe0,0xff,0xff,0x00,0xc0,0x3f,0x00,0xe0,0x3f,
 0x00,0x00,0x00,0x00,0x00,0x00,0x00,0x00,0x00,0x00,0x00,0x00,0x00,0x00,0x00,
 0x00,0x00,0x00,0xff,0xff,0x0f,0x00,0x00,0xf0,0x0f,0xff,0x00,0xe0,0x3f,0x00,
 0xe0,0x3f,0x00,0x00,0x00,0x00,0x00,0x00,0x00,0x00,0x00,0x00,0x00,0x00,0x00,
 0x00,0x00,0x00,0x00,0x80,0xff,0xff,0x03,0x00,0x00,0xf8,0x07,0xff,0x00,0xf0,
 0x1f,0x00,0xe0,0x1f,0x00,0x00,0x00,0x00,0x00,0x00,0x00,0x00,0x00,0x00,0x00,
 0x00,0x00,0x00,0x00,0x00,0x00,0xc0,0xff,0x7f,0x00,0x00,0x00,0xf8,0x03,0xff,
 0x00,0xf8,0x0f,0x00,0xe0,0x1f,0x00,0x00,0x00,0x00,0x00,0x00,0x00,0x00,0x00,
 0x00,0x00,0x00,0x00,0x00,0x00,0x00,0x00,0xe0,0xff,0x3f,0x00,0x00,0x00,0xfc,
 0x03,0xfe,0x00,0xf8,0x0f,0x00,0xf0,0x1f,0x00,0x00,0x00,0x00,0x00,0x00,0x00,
 0x00,0x00,0x00,0x00,0x00,0x00,0x00,0x00,0x00,0x00,0xf0,0xff,0x0f,0x00,0x00,
 0x00,0xfc,0x03,0xfc,0x01,0xfc,0x07,0x00,0xf0,0x0f,0x00,0x00,0x00,0x00,0x00,
 0x00,0x00,0x00,0x00,0x00,0x00,0x00,0x00,0x00,0x00,0x00,0x00,0xf8,0xff,0xc3,
 0x03,0x00,0x00,0xfc,0x03,0xfc,0x01,0xfc,0x07,0x00,0xf0,0x0f,0x00,0x00,0x00,
 0x00,0x00,0x00,0x00,0x00,0x00,0x00,0x00,0x00,0x00,0x00,0x00,0x00,0x00,0xf8,
 0x7f,0xe0,0x07,0x00,0x00,0xfc,0x03,0xfc,0x01,0xfe,0x03,0x00,0xf0,0x0f,0x00,
 0x00,0x00,0x00,0x00,0x00,0x00,0x00,0x00,0x00,0x00,0x00,0x00,0x00,0x00,0x00,
 0x00,0xfc,0x1f,0xf0,0x07,0x00,0x00,0xfc,0x03,0xfc,0x03,0xfe,0x03,0x00,0xf0,
 0x0f,0x00,0x00,0x00,0x00,0x00,0x00,0x00,0x00,0x00,0x00,0x00,0x00,0x00,0x00,
 0x00,0x00,0x00,0xfe,0x3f,0xf8,0x03,0x00,0x00,0xfe,0x03,0xfc,0x03,0xfe,0x03,
 0x30,0xf8,0x07,0x00,0x00,0x00,0x00,0x00,0x00,0x00,0x00,0x00,0x00,0x00,0x00,
 0x00,0x00,0x00,0x00,0x00,0xff,0x37,0xf8,0x03,0x00,0x00,0xfe,0x03,0xfc,0x03,
 0xff,0x03,0x3e,0xf8,0x07,0x00,0x00,0x00,0x00,0x00,0x00,0x00,0x00,0x00,0x00,
 0x00,0x00,0x00,0x00,0x00,0x00,0x00,0xff,0x79,0xf8,0x03,0x00,0x00,0xfe,0x03,
 0xfc,0x83,0xff,0xc1,0x7f,0xf8,0x07,0x00,0x00,0x00,0x00,0x00,0x00,0x00,0x00,
 0x00,0x00,0x00,0x00,0x00,0x00,0x00,0x00,0x00,0xff,0xf8,0xfc,0x03,0x00,0x00,
 0xfe,0x03,0xfc,0x81,0xff,0xf1,0x7f,0xf8,0x03,0x00,0x00,0x00,0x00,0x00,0x00,
 0x00,0x00,0x00,0x00,0x00,0x00,0x00,0x00,0x00,0x00,0x00,0x7f,0xfc,0xfc,0x03,
 0x00,0x00,0xfe,0x01,0xfc,0x81,0xff,0xf0,0x7f,0xf8,0x03,0x00,0x00,0x00,0x00,
 0x00,0x00,0x00,0x00,0x00,0x00,0x00,0x00,0x00,0x00,0x00,0x00,0x00,0x3e,0xfc,
 0xfc,0x01,0x00,0x00,0xfe,0x01,0xfc,0x81,0xff,0xf0,0x7f,0xf8,0x03,0x00,0x00,
 0x00,0x00,0x00,0x00,0x00,0x00,0x00,0x00,0x00,0x00,0x00,0x00,0x00,0x00,0x00,
 0x0c,0x7e,0xfe,0x01,0x00,0x00,0xfe,0x01,0xfc,0xc0,0x7f,0xfc,0xff,0xf8,0xe3,
 0x03,0x00,0x00,0x00,0x00,0x00,0x00,0x00,0x00,0x00,0x00,0x00,0x00,0x00,0x00,
 0x00,0x00,0x00,0x7e,0xfe,0x00,0x00,0x00,0xfe,0x01,0xfe,0xc0,0x7f,0xfc,0xff,
 0xf9,0xf3,0x07,0x00,0x00,0x00,0x00,0x00,0x00,0x00,0x00,0x00,0x00,0x00,0x00,
 0x00,0x00,0x00,0x00,0x00,0x3f,0xfe,0x00,0x00,0x00,0xfe,0x01,0xfe,0xc0,0x7f,
 0xfc,0xff,0xf9,0xff,0x0f,0x00,0x00,0x00,0x00,0x00,0x00,0x00,0x00,0x00,0x00,
 0x00,0x00,0x00,0x00,0x00,0x00,0x00,0x3f,0x7e,0x00,0x00,0x00,0xff,0x01,0xfe,
 0xc0,0x3f,0xff,0xfe,0xfd,0xff,0x0f,0x00,0x00,0x00,0x00,0x00,0x00,0x00,0x00,
 0x00,0x00,0x00,0x00,0x00,0x00,0x00,0x00,0x00,0x3f,0x7e,0x00,0x70,0x00,0xff,
 0x01,0x7c,0xe0,0x3f,0xff,0xfe,0xfd,0xff,0x1f,0x00,0x00,0x00,0x00,0x00,0x00,
 0x00,0x00,0x00,0x00,0x00,0x00,0x00,0x00,0x00,0x00,0x00,0x3f,0x7f,0x00,0xf8,
 0x00,0xff,0x00,0x00,0xe0,0x3f,0xff,0xfe,0xfd,0xff,0x3f,0x00,0x00,0x00,0x00,
 0x00,0x00,0x00,0x00,0x00,0x00,0x00,0x00,0x00,0x00,0x00,0x00,0x80,0x3f,0x3f,
 0x00,0xff,0x00,0xff,0xf0,0xff,0xe3,0x1f,0x7f,0xfe,0xfd,0xdf,0x3f,0x00,0x00,
 0x00,0x00,0x00,0x00,0x00,0x00,0x00,0x00,0x00,0x00,0x00,0x00,0x00,0x00,0xe0,
 0x3f,0x3f,0x80,0xff,0x03,0xff,0xf8,0xff,0xe7,0xdf,0x7f,0xfe,0xfd,0x0f,0x7f,
 0x00,0x00,0x00,0x00,0x00,0x00,0x00,0x00,0x00,0x00,0x00,0x00,0x00,0x00,0x00,
 0x00,0xe0,0x3f,0xbf,0xcf,0xff,0x03,0xff,0xf8,0xff,0xe7,0xdf,0x3f,0xfc,0xf9,
 0x03,0x7f,0x00,0x00,0x00,0x00,0x00,0x00,0x00,0x00,0x00,0x00,0x00,0x00,0x00,
 0x00,0x00,0x00,0xe0,0x3f,0xbf,0xdf,0xef,0x03,0xff,0xf8,0xff,0xf7,0xdf,0x3f,
 0xfc,0xf9,0x01,0xff,0x00,0x00,0x00,0x00,0x00,0x00,0x00,0x00,0x00,0x00,0x00,
 0x00,0x00,0x00,0x00,0x00,0xc0,0x1f,0xff,0xdf,0xe7,0x03,0xff,0xf8,0xff,0xf3,
 0xcf,0x1f,0xfc,0xf8,0x01,0xff,0x00,0x00,0x00,0x00,0x00,0x00,0x00,0x00,0x00,
 0x00,0x00,0x00,0x00,0x00,0x00,0x00,0xc0,0x0f,0xff,0xdf,0xf3,0x03,0xff,0xf8,
 0xff,0xf3,0xcf,0x1f,0xfc,0xf8,0x01,0xfe,0x00,0x00,0x00,0x00,0x00,0x00,0x00,
 0x00,0x00,0x00,0x00,0x00,0x00,0x00,0x00,0x00,0xc0,0x1f,0xff,0xdf,0xf7,0x01,
 0xff,0xf1,0xff,0xf3,0xef,0x1f,0xfc,0xf8,0x01,0xfe,0x00,0x00,0x00,0x00,0x00,
 0x00,0x00,0x00,0x00,0x00,0x00,0x00,0x00,0x00,0x00,0x00,0xc0,0x1f,0xff,0xdf,
 0xff,0x01,0xfe,0xf1,0xff,0xf1,0xef,0x0f,0xfc,0xf1,0x03,0xfe,0x00,0x00,0x00,
 0x00,0x00,0x00,0x00,0x00,0x00,0x00,0x00,0x00,0x00,0x00,0x00,0x00,0xc0,0x1f,
 0x7f,0xdf,0xff,0x00,0xfe,0xf3,0xe7,0xf1,0xcf,0x0f,0xfc,0xf1,0x03,0xfe,0x00,
 0x00,0x00,0x00,0x00,0x00,0x00,0x00,0x00,0x00,0x00,0x00,0x00,0x00,0x00,0x00,
 0xc0,0x1f,0x3f,0xdf,0x7f,0x03,0xfe,0xf3,0xc7,0xf1,0xcf,0x1f,0xfc,0xf1,0x03,
 0xff,0x00,0x00,0x00,0x00,0x00,0x00,0x00,0x00,0x00,0x00,0x00,0x00,0x00,0x00,
 0x00,0x00,0xe0,0x1f,0x3f,0xff,0xbf,0x03,0xfe,0xe3,0xe7,0xf1,0xcf,0x1f,0xfc,
 0xf1,0x03,0xff,0x00,0x00,0x00,0x00,0x00,0x00,0x00,0x00,0x00,0x00,0x00,0x00,
 0x00,0x00,0x00,0x00,0xe0,0x1f,0x3f,0xbf,0xdf,0x03,0xfe,0xe3,0xef,0xf0,0xcf,
 0x3f,0xfc,0xf1,0x03,0x7f,0x00,0x00,0x00,0x00,0x00,0x00,0x00,0x00,0x00,0x00,
 0x00,0x00,0x00,0x00,0x00,0x00,0xc0,0x1f,0x7f,0xbf,0xcf,0x03,0xfe,0xe7,0xcf,
 0xf0,0xc7,0x3f,0xfe,0xf1,0x03,0x7f,0x00,0x00,0x00,0x00,0x00,0x00,0x00,0x00,
 0x00,0x00,0x00,0x00,0x00,0x00,0x00,0x00,0xc0,0x3f,0x7f,0xbe,0xcf,0x07,0xfe,
 0xe7,0x0f,0xf0,0xc7,0x3f,0xff,0xf1,0x03,0x3f,0x00,0x00,0x00,0x00,0x00,0x00,
 0x00,0x00,0x00,0x00,0x00,0x00,0x00,0x00,0x00,0x00,0xc0,0x3f,0x7f,0xbf,0xef,
 0x03,0xfe,0xcf,0x0f,0xf0,0xc7,0x7f,0xff,0xf0,0x87,0x3f,0x00,0x00,0x00,0x00,
 0x00,0x00,0x00,0x00,0x00,0x00,0x00,0x00,0x00,0x00,0x00,0x00,0xc0,0x3f,0x7f,
 0x3f,0xff,0x01,0xfe,0xcf,0x0f,0xf0,0xc7,0x7f,0xff,0xf0,0x8f,0x3f,0x00,0x00,
 0x00,0x00,0x00,0x00,0x00,0x00,0x00,0x00,0x00,0x00,0x00,0x00,0x00,0x00,0xc0,
 0x3f,0x7f,0x3f,0xff,0x01,0xfc,0xff,0x0f,0xf0,0x87,0xff,0xff,0xf0,0xcf,0x3f,
 0x00,0x00,0x00,0x00,0x00,0x00,0x00,0x00,0x00,0x00,0x00,0x00,0x00,0x00,0x00,
 0x00,0xc0,0x3f,0x7e,0x3f,0xff,0x00,0xfc,0xff,0x0f,0xf0,0x07,0xff,0xff,0xf0,
 0xff,0x3f,0x00,0x00,0x00,0x00,0x00,0x00,0x00,0x00,0x00,0x00,0x00,0x00,0x00,
 0x00,0x00,0x00,0xc0,0x7f,0x7e,0x3e,0xfc,0x00,0xfc,0xff,0x0f,0xf0,0x07,0xfe,
 0x7f,0xf0,0xff,0x1f,0x00,0x00,0x00,0x00,0x00,0x00,0x00,0x00,0x00,0x00,0x00,
 0x00,0x00,0x00,0x00,0x00,0xc0,0x7f,0x7e,0x3e,0xfc,0x00,0xf8,0xff,0x1f,0xf0,
 0x07,0xfc,0x7f,0xf0,0xff,0x1f,0x00,0x00,0x00,0x00,0x00,0x00,0x00,0x00,0x00,
 0x00,0x00,0x00,0x00,0x00,0x00,0x00,0x80,0x7f,0xfc,0x7e,0x30,0x00,0xf0,0xff,
 0x1f,0xf0,0x0f,0xf8,0x7f,0xf0,0xff,0x0f,0x00,0x00,0x00,0x00,0x00,0x00,0x00,
 0x00,0x00,0x00,0x00,0x00,0x00,0x00,0x00,0x00,0x80,0x7f,0xfc,0x7e,0x00,0x00,
 0xf0,0xff,0x3f,0xf0,0x0f,0xf0,0x7f,0xe0,0xff,0x0f,0x00,0x00,0x00,0x00,0x00,
 0x00,0x00,0x00,0x00,0x00,0x00,0x00,0x00,0x00,0x00,0x00,0x00,0x7f,0x18,0x7c,
 0x00,0x00,0xe0,0xff,0x3f,0xf0,0x0f,0xe0,0x3f,0xe0,0xff,0x03,0x00,0x00,0x00,
 0x00,0x00,0x00,0x00,0x00,0x00,0x00,0x00,0x00,0x00,0x00,0x00,0x00,0x00,0x7f,
 0x18,0x7c,0x00,0x00,0xc0,0xff,0x3f,0xf0,0x0f,0xc0,0x3f,0xe0,0xf3,0x00,0x00,
 0x00,0x00,0x00,0x00,0x00,0x00,0x00,0x00,0x00,0x00,0x00,0x00,0x00,0x00,0x00,
 0x00,0x7c,0x00,0x70,0x00,0x00,0x80,0xff,0x1f,0xf0,0x0f,0x00,0x3f,0x00,0x03,
 0x00,0x00,0x00,0x00,0x00,0x00,0x00,0x00,0x00,0x00,0x00,0x00,0x00,0x00,0x00,
 0x00,0x00,0x00,0x70,0x00,0xe0,0x00,0x00,0x00,0xff,0x1f,0xf0,0x0f,0x00,0x04,
 0x00,0x00,0x00,0x00,0x00,0x00,0x00,0x00,0x00,0x00,0x00,0x00,0x00,0x00,0x00,
 0x00,0x00,0x00,0x00,0x00,0x60,0x00,0xc0,0x00,0x00,0x00,0xfc,0x0f,0xf0,0x1f,
 0x00,0x00,0x00,0x00,0x00,0x00,0x00,0x00,0x00,0x00,0x00,0x00,0x00,0x00,0x00,
 0x00,0x00,0x00,0x00,0x00,0x00,0x00,0x00,0x00,0x80,0x01,0x00,0x00,0xe0,0x07,
 0xf0,0x1f,0x00,0x00,0x00,0x00,0x00,0x00,0x00,0x00,0x00,0x00,0x00,0x00,0x00,
 0x00,0x00,0x00,0x00,0x00,0x00,0x00,0x00,0x00,0x00,0x00,0x00,0x03,0x00,0x00,
 0xc0,0x07,0xc0,0x1f,0x00,0x00,0x00,0x00,0x00,0x00,0x00,0x00,0x00,0x00,0x00,
 0x00,0x00,0x00,0x00,0x00,0x00,0x00,0x00,0x00,0x00,0x00,0x00,0x00,0x00,0x0f,
 0x00,0x00,0xc0,0x07,0x80,0x0f,0x00,0x00,0x00,0x00,0x00,0x00,0x00,0x00,0x00,
 0x00,0x00,0x00,0x00,0x00,0x00,0x00,0x00,0x00,0x00,0x00,0x00,0x00,0x00,0x00,
 0x00,0xfe,0x00,0x00,0x00,0x01,0x00,0x07,0x00,0x00,0x00,0x00,0x00,0x00,0x00,
 0x00,0x00,0x00,0x00,0x00,0x00,0x00,0x00,0x00,0x00,0x00,0x00,0x00,0x00,0x00,
 0x00,0x00,0x00,0xc0,0x00,0x00,0x00,0x00,0x00,0x06,0x00,0x00,0x00,0x00,0x00,
 0x00,0x00,0x00,0x00,0x00,0x00,0x00,0x00 };
