#define _width 256
#define _height 64
static char _bits[] = {
 0x00,0x00,0x00,0x00,0x00,0x00,0x00,0x00,0x00,0x00,0x00,0x00,0x00,0x00,0x00,
 0x00,0x00,0x00,0x00,0x00,0x00,0x00,0x00,0x00,0x00,0x00,0x00,0x00,0x00,0x00,
 0x00,0x00,0x00,0x00,0x00,0x00,0x00,0x00,0x00,0x00,0x00,0x00,0x3f,0x00,0x00,
 0x00,0x00,0x00,0x00,0x00,0x00,0x00,0x00,0x00,0x00,0x00,0x00,0x00,0x00,0x00,
 0x00,0xf0,0x1f,0x00,0xfc,0x07,0xfc,0x87,0xff,0x01,0x3e,0xfc,0xcf,0x1f,0x41,
 0x00,0x00,0x00,0x00,0x00,0x00,0x00,0x00,0x00,0x00,0x00,0x00,0x00,0x00,0x00,
 0x00,0x00,0x00,0x1c,0x20,0x00,0x02,0x08,0x04,0x82,0x01,0x02,0x41,0x03,0xf0,
 0x20,0x83,0x00,0x00,0x00,0x00,0x00,0x00,0x00,0x00,0x00,0x00,0x00,0x00,0x00,
 0x00,0x00,0x00,0x00,0x00,0x06,0x60,0x00,0x06,0x10,0x04,0x82,0x03,0x84,0x81,
 0x03,0xe0,0xc0,0x07,0x01,0x00,0x00,0x00,0x00,0x00,0x00,0x00,0x00,0x00,0x00,
 0x00,0x00,0x00,0x00,0x00,0x00,0x00,0x07,0xc0,0x00,0x0e,0x20,0x02,0x82,0x03,
 0x88,0x01,0x07,0xc6,0x81,0x07,0x01,0x00,0x00,0x00,0x00,0x00,0x00,0x00,0x00,
 0x00,0x00,0x00,0x00,0x00,0x00,0x00,0x00,0x00,0x03,0x84,0x01,0x1e,0x40,0x02,
 0x81,0x07,0xd0,0x01,0x0f,0xfe,0x03,0x0e,0x02,0x00,0x00,0x00,0x00,0x00,0x00,
 0x00,0x00,0x00,0x00,0x00,0x00,0x00,0x00,0x00,0x00,0xc0,0x01,0x1f,0x01,0x3e,
 0x40,0x02,0x81,0x07,0xe0,0x01,0x0e,0xfc,0x03,0x18,0x04,0x00,0x00,0x00,0x00,
 0x00,0x00,0x00,0x00,0x00,0x00,0x00,0x00,0x00,0x00,0x00,0x00,0xf0,0x00,0x31,
 0x01,0x7e,0x80,0x02,0x81,0x0f,0xc0,0x01,0x1e,0xf8,0x07,0x30,0x04,0x00,0x00,
 0x00,0x00,0x00,0x00,0x00,0x00,0x00,0x00,0x00,0x00,0x00,0x00,0x03,0x00,0x8c,
 0x03,0x61,0x01,0xfe,0x00,0x83,0x80,0x0f,0x80,0x01,0x1c,0x10,0x07,0x00,0x08,
 0x00,0x00,0x00,0x00,0x00,0x00,0x00,0x00,0x00,0x00,0x00,0x70,0x00,0xc0,0x03,
 0x00,0x86,0x13,0x21,0x01,0xfe,0x01,0x80,0x00,0x1f,0x00,0x03,0x38,0x00,0x0e,
 0x00,0x08,0x00,0x00,0x00,0x00,0x00,0x00,0x00,0x00,0x00,0x00,0x00,0x78,0x00,
 0xe0,0x06,0x80,0x03,0x97,0x21,0x01,0xfc,0x03,0x40,0x00,0x1e,0x00,0x03,0x78,
 0x00,0x1c,0x00,0x10,0x00,0x00,0x00,0x00,0x00,0x00,0x00,0x00,0x00,0x00,0x00,
 0x4c,0x00,0x30,0x03,0xc0,0x80,0x1f,0x21,0x01,0xf8,0x07,0x40,0xc0,0x3f,0x00,
 0x02,0x70,0x00,0x18,0x00,0x20,0x00,0x00,0x00,0x00,0x00,0x00,0x00,0x00,0x00,
 0x00,0x00,0x67,0x00,0x9c,0x01,0x70,0xc0,0x9f,0x11,0x01,0xf0,0x1f,0x40,0x20,
 0x70,0x00,0x00,0xe0,0xc0,0x38,0x08,0x40,0x00,0x00,0x00,0x00,0x00,0x00,0x00,
 0x00,0x00,0x00,0xc0,0x21,0x00,0xc6,0x00,0x30,0xf0,0x99,0x90,0x01,0xe0,0x3f,
 0x80,0x30,0x60,0x00,0x00,0xe0,0x81,0x7f,0x10,0x40,0x00,0x00,0x00,0x00,0x00,
 0x00,0x00,0x00,0x00,0x00,0xe0,0x20,0x80,0x83,0x01,0x30,0xfc,0x98,0x92,0x01,
 0xc0,0x7f,0x00,0x71,0xe0,0x00,0x80,0xc0,0x81,0x7f,0x60,0x80,0x00,0x00,0x00,
 0x00,0x00,0x00,0x00,0x00,0x00,0x00,0x30,0x30,0xc0,0x00,0x01,0x20,0x38,0x8c,
 0xcf,0x00,0x80,0xff,0x00,0x7a,0xc0,0x40,0x80,0x81,0x03,0xff,0xe0,0x00,0x01,
 0x00,0x00,0x00,0x00,0x00,0x00,0x00,0x00,0x00,0x1c,0x18,0x70,0x80,0x61,0xa0,
 0x19,0x8c,0x60,0x00,0x00,0xff,0x00,0xfc,0xc0,0x81,0x00,0x83,0x03,0xfe,0xc0,
 0x01,0x01,0x00,0x00,0x00,0x00,0x00,0x00,0x00,0x00,0x00,0x06,0x1c,0x18,0xc0,
 0xf8,0xf8,0x0d,0x8f,0x71,0x00,0x00,0xfe,0x00,0xf8,0xff,0x01,0x01,0x03,0x07,
 0xc4,0x81,0x07,0x02,0x00,0x00,0x00,0x00,0x00,0x00,0x00,0x00,0x00,0x03,0x07,
 0x0e,0x60,0x4e,0xe8,0x8c,0x89,0x11,0x00,0x00,0xfc,0x00,0xf0,0xff,0x03,0x03,
 0x07,0x0f,0x80,0x03,0x0f,0x03,0x00,0x00,0x00,0x00,0x00,0x00,0x00,0x00,0x00,
 0x01,0x03,0x03,0x38,0x63,0xe8,0xcc,0x88,0x31,0x20,0x00,0xf8,0x00,0xe0,0xff,
 0x03,0x06,0x06,0x0e,0x00,0x03,0xff,0x03,0x00,0x00,0x00,0x00,0x00,0x00,0x00,
 0x00,0x70,0x27,0xc2,0x01,0x8c,0x21,0xc8,0x9c,0x8f,0x21,0x10,0x00,0x70,0x00,
 0xc0,0xff,0x07,0x0c,0x0e,0x1c,0x00,0xe6,0xff,0x01,0x00,0x00,0x00,0x00,0x00,
 0x80,0x01,0x00,0xc8,0x39,0x42,0x00,0xc7,0xe0,0xaf,0xd4,0xcf,0x23,0x10,0x00,
 0x60,0x00,0x80,0xe0,0x0f,0x1c,0x1e,0x3c,0x00,0xff,0xff,0x00,0x00,0x00,0x00,
 0x00,0x00,0x40,0x01,0x00,0xc7,0x31,0x42,0x00,0xc1,0x60,0xa4,0x54,0x86,0x63,
 0x1c,0x00,0x60,0x40,0x00,0xc1,0x0f,0x38,0x1c,0x38,0xf8,0x7f,0xff,0x00,0x00,
 0x00,0x00,0x00,0x00,0x20,0x02,0x81,0x61,0x38,0xc1,0x00,0x61,0x78,0xe6,0x1c,
 0xc3,0x44,0x16,0x00,0x70,0xc0,0x00,0x82,0x1f,0x70,0x3c,0x70,0xff,0x7f,0x1e,
 0x00,0x00,0x00,0x00,0x00,0x00,0x10,0x82,0xc3,0x30,0x1c,0x81,0x18,0x7d,0x6c,
 0x46,0x0c,0x4d,0x44,0x1a,0x00,0x70,0xc0,0x01,0x84,0x1f,0xf0,0x7c,0xfe,0x7f,
 0x7f,0x00,0x00,0x00,0x00,0x00,0x00,0x00,0x08,0x42,0x62,0x18,0x16,0xc1,0x0c,
 0x37,0x76,0xc6,0xce,0x47,0xc4,0x0a,0x00,0x70,0xc0,0x03,0x08,0x3f,0xe0,0xff,
 0xff,0x7f,0x7e,0x00,0x80,0x07,0x78,0x00,0x00,0x00,0x04,0x22,0x42,0x08,0x13,
 0xc1,0x8e,0x33,0x5f,0x66,0x4a,0x47,0x84,0x09,0x00,0x30,0xc0,0x07,0x10,0x3f,
 0xe0,0xff,0xff,0x3f,0x00,0x00,0xe0,0x0f,0x7e,0x00,0x00,0x00,0x02,0x16,0x7e,
 0x18,0x0e,0x81,0xc7,0xb1,0x4f,0x62,0xce,0x45,0x88,0x0d,0x00,0x30,0xc0,0x0f,
 0x20,0x7e,0xfc,0xfd,0xfb,0x3f,0x00,0x00,0x60,0x18,0x61,0x00,0x00,0x00,0x01,
 0x0e,0xeb,0x6c,0x0b,0x01,0x4c,0x90,0x63,0x70,0xcc,0x46,0x08,0x08,0x00,0x30,
 0xc0,0x1f,0x40,0xfe,0xff,0xf9,0xf3,0x01,0x00,0x00,0xc0,0x90,0x21,0x00,0x00,
 0x80,0x00,0x87,0xc1,0x25,0x89,0x00,0x04,0x98,0x61,0x32,0x4c,0x46,0x08,0x0c,
 0x00,0x38,0xc0,0x3f,0x80,0xfc,0xff,0xf9,0x03,0x00,0x00,0x00,0x80,0xa1,0xf0,
 0x7f,0x00,0x40,0xc0,0xc1,0x80,0x35,0x9c,0x00,0x04,0x9c,0x31,0x32,0x0e,0xc3,
 0x08,0x04,0x00,0x38,0xe0,0x7f,0xf8,0xfc,0xef,0xf1,0x00,0x00,0x00,0x00,0x00,
 0xe1,0x38,0xe0,0x00,0x40,0x60,0x61,0xb8,0x31,0x8e,0x00,0x04,0x9f,0x31,0x33,
 0x87,0x81,0x10,0x04,0x00,0x38,0xa0,0xff,0x7f,0xf8,0xcf,0x01,0x00,0x00,0x00,
 0x00,0x00,0x43,0x08,0x80,0x01,0x20,0x30,0x61,0x2c,0x39,0x8f,0x07,0x84,0x93,
 0x31,0x73,0x86,0x87,0x10,0x04,0x00,0x1c,0x20,0xff,0x7f,0xf8,0x07,0x01,0x00,
 0x00,0x00,0x00,0x00,0x02,0x8c,0x1f,0x01,0x20,0x18,0x6d,0xb6,0x8d,0x93,0x05,
 0x82,0x99,0x3b,0xe3,0xc5,0xc2,0x08,0x06,0x00,0x1c,0x30,0xfe,0x3f,0xf0,0x07,
 0x00,0x00,0x00,0x00,0x00,0x00,0x04,0x8c,0xff,0x00,0x20,0x0c,0x4b,0x9c,0x0c,
 0x8b,0x05,0xc1,0x99,0x39,0x33,0x4c,0x44,0x18,0x02,0x00,0x9c,0x1f,0xfc,0x3f,
 0xf0,0x01,0x00,0x00,0x00,0x00,0x00,0x00,0x08,0x12,0x80,0x00,0x40,0x06,0x68,
 0x8c,0x84,0x89,0x06,0x61,0xb9,0x31,0x1b,0x30,0x7c,0x70,0x02,0x00,0xfe,0x1f,
 0xf8,0x1f,0x00,0x00,0x00,0x00,0x00,0x00,0x00,0x00,0xf0,0xf1,0x1f,0x01,0x40,
 0x1c,0x68,0x98,0x90,0xc4,0x82,0x41,0x39,0x33,0x1b,0x20,0x00,0xe0,0x03,0x00,
 0xfe,0x0f,0xf0,0x07,0x00,0x00,0x00,0x00,0x00,0x00,0x00,0x00,0x70,0x88,0x1f,
 0x3f,0x40,0x20,0x28,0xcc,0x18,0x0e,0x83,0x41,0x29,0xf9,0x0e,0x00,0x00,0x00,
 0x00,0x00,0xfe,0x0f,0xe0,0x00,0x00,0x00,0x00,0x00,0x00,0x00,0x00,0x00,0x00,
 0x08,0x00,0x23,0x40,0xc0,0x29,0xec,0x1c,0x06,0x01,0x21,0x69,0x08,0x00,0x00,
 0x00,0x00,0x00,0x00,0xfe,0x0f,0x00,0x00,0x00,0x00,0x00,0x00,0x00,0x00,0x00,
 0x00,0x00,0x10,0x80,0x23,0x80,0x01,0x6b,0xcc,0x3d,0x87,0x01,0x21,0xd9,0x09,
 0x00,0x00,0x00,0x00,0x00,0x00,0xfe,0x07,0x00,0x00,0x00,0x00,0x00,0x00,0x00,
 0x00,0x00,0x00,0x00,0xf0,0x7f,0x3e,0x00,0x07,0x66,0xdc,0xa7,0x85,0x00,0xa1,
 0x11,0x0b,0x00,0x00,0x00,0x00,0x00,0x00,0xfe,0x07,0x00,0x00,0x00,0x00,0x00,
 0x00,0x00,0x00,0x00,0x00,0x00,0x00,0x00,0x00,0x00,0x3e,0x66,0x94,0xc4,0x8e,
 0x00,0xa1,0x19,0x0e,0x00,0x00,0x00,0x00,0x00,0x00,0xfe,0x03,0x00,0x00,0x00,
 0x00,0x00,0x00,0x00,0x00,0x00,0x00,0x00,0x00,0x00,0x00,0x00,0x30,0xa4,0x34,
 0x02,0x90,0x80,0xa1,0x09,0x00,0x00,0x00,0x00,0x00,0x00,0x00,0xfe,0x01,0x00,
 0x00,0x00,0x00,0x00,0x00,0x00,0x00,0x00,0x00,0x00,0x00,0x00,0x00,0x00,0x10,
 0xac,0x24,0x03,0x70,0x80,0xa1,0x09,0x00,0x00,0x00,0x00,0x00,0x00,0x00,0x00,
 0x00,0x00,0x00,0x00,0x00,0x00,0x00,0x00,0x00,0x00,0x00,0x00,0x00,0x00,0x00,
 0x00,0x10,0xac,0x26,0x01,0x20,0x00,0x23,0x0e,0x00,0x00,0x00,0x00,0x00,0x00,
 0x00,0x00,0x00,0x00,0x00,0x00,0x00,0x00,0x00,0x00,0x00,0x00,0x00,0x00,0x00,
 0x00,0x00,0x00,0x08,0xac,0xc1,0x01,0x00,0x00,0x37,0x00,0x00,0x00,0x00,0x00,
 0x00,0x00,0x00,0x00,0x00,0x00,0x00,0x00,0x00,0x00,0x00,0x00,0x00,0x00,0x00,
 0x00,0x00,0x00,0x00,0x00,0x08,0x3e,0x80,0x01,0x00,0x00,0x1c,0x00,0x00,0x00,
 0x00,0x00,0x00,0x00,0x00,0x00,0x00,0x00,0x00,0x00,0x00,0x00,0x00,0x00,0x00,
 0x00,0x00,0x00,0x00,0x00,0x00,0x00,0x04,0x13,0x00,0x00,0x00,0x00,0x00,0x00,
 0x00,0x00,0x00,0x00,0x00,0x00,0x00,0x00,0x00,0x00,0x00,0x00,0x00,0x00,0x00,
 0x00,0x00,0x00,0x00,0x00,0x00,0x00,0x00,0x00,0x04,0x09,0x00,0x00,0x00,0x00,
 0x00,0x00,0x00,0x00,0x00,0x00,0x00,0x00,0x00,0x00,0x00,0x00,0x00,0x00,0x00,
 0x00,0x00,0x00,0x00,0x00,0x00,0x00,0x00,0x00,0x00,0x00,0x82,0x0c,0x00,0x00,
 0x00,0x00,0x00,0x00,0x00,0x00,0x00,0x00,0x00,0x00,0x00,0x00,0x00,0x00,0x00,
 0x00,0x00,0x00,0x00,0x00,0x00,0x00,0x00,0x00,0x00,0x00,0x00,0x00,0x41,0x06,
 0x00,0x00,0x00,0x00,0x00,0x00,0x00,0x00,0x00,0x00,0x00,0x00,0x00,0x00,0x00,
 0x00,0x00,0x00,0x00,0x00,0x00,0x00,0x00,0x00,0x00,0x00,0x00,0x00,0x00,0x80,
 0x20,0x03,0x00,0x00,0x00,0x00,0x00,0x00,0x00,0x00,0x00,0x00,0x00,0x00,0x00,
 0x00,0x00,0x00,0x00,0x00,0x00,0x00,0x00,0x00,0x00,0x00,0x00,0x00,0x00,0x00,
 0x00,0x40,0x10,0x01,0x00,0x00,0x00,0x00,0x00,0x00,0x00,0x00,0x00,0x00,0x00,
 0x00,0x00,0x00,0x00,0x00,0x00,0x00,0x00,0x00,0x00,0x00,0x00,0x00,0x00,0x00,
 0x00,0x00,0x00,0x20,0x88,0x01,0x00,0x00,0x00,0x00,0x00,0x00,0x00,0x00,0x00,
 0x00,0x00,0x00,0x00,0x00,0x00,0x00,0x00,0x00,0x00,0x00,0x00,0x00,0x00,0x00,
 0x00,0x00,0x00,0x00,0x00,0x20,0xc4,0x00,0x00,0x00,0x00,0x00,0x00,0x00,0x00,
 0x00,0x00,0x00,0x00,0x00,0x00,0x00,0x00,0x00,0x00,0x00,0x00,0x00,0x00,0x00,
 0x00,0x00,0x00,0x00,0x00,0x00,0x00,0x20,0x62,0x00,0x00,0x00,0x00,0x00,0x00,
 0x00,0x00,0x00,0x00,0x00,0x00,0x00,0x00,0x00,0x00,0x00,0x00,0x00,0x00,0x00,
 0x00,0x00,0x00,0x00,0x00,0x00,0x00,0x00,0x00,0x20,0x32,0x00,0x00,0x00,0x00,
 0x00,0x00,0x00,0x00,0x00,0x00,0x00,0x00,0x00,0x00,0x00,0x00,0x00,0x00,0x00,
 0x00,0x00,0x00,0x00,0x00,0x00,0x00,0x00,0x00,0x00,0x00,0x40,0x18,0x00,0x00,
 0x00,0x00,0x00,0x00,0x00,0x00,0x00,0x00,0x00,0x00,0x00,0x00,0x00,0x00,0x00,
 0x00,0x00,0x00,0x00,0x00,0x00,0x00,0x00,0x00,0x00,0x00,0x00,0x00,0x40,0x0c,
 0x00,0x00,0x00,0x00,0x00,0x00,0x00,0x00,0x00,0x00,0x00,0x00,0x00,0x00,0x00,
 0x00,0x00,0x00,0x00,0x00,0x00,0x00,0x00,0x00,0x00,0x00,0x00,0x00,0x00,0x00,
 0x20,0x06,0x00,0x00,0x00,0x00,0x00,0x00,0x00,0x00,0x00,0x00,0x00,0x00,0x00,
 0x00,0x00,0x00,0x00,0x00,0x00,0x00,0x00,0x00,0x00,0x00,0x00,0x00,0x00,0x00,
 0x00,0x00,0x20,0x03,0x00,0x00,0x00,0x00,0x00,0x00,0x00,0x00,0x00,0x00,0x00,
 0x00,0x00,0x00,0x00,0x00,0x00,0x00,0x00,0x00,0x00,0x00,0x00,0x00,0x00,0x00,
 0x00,0x00,0x00,0x00,0xa0,0x01,0x00,0x00,0x00,0x00,0x00,0x00,0x00,0x00,0x00,
 0x00,0x00,0x00,0x00,0x00,0x00,0x00,0x00,0x00,0x00,0x00,0x00,0x00,0x00,0x00,
 0x00,0x00,0x00,0x00,0x00,0x00,0x40,0x00,0x00,0x00,0x00,0x00,0x00,0x00,0x00,
 0x00,0x00,0x00,0x00,0x00,0x00,0x00,0x00,0x00,0x00,0x00,0x00,0x00,0x00,0x00,
 0x00,0x00,0x00,0x00,0x00,0x00,0x00,0x00,0x00,0x00,0x00,0x00,0x00,0x00,0x00,
 0x00,0x00,0x00,0x00,0x00,0x00,0x00,0x00 };
